<?xml version="1.0" standalone="no"?>
<!DOCTYPE svg PUBLIC "-//W3C//DTD SVG 1.1//EN" "http://www.w3.org/Graphics/SVG/1.1/DTD/svg11.dtd" >
<svg xmlns="http://www.w3.org/2000/svg" xmlns:xlink="http://www.w3.org/1999/xlink" version="1.1">
<metadata>
Created by FontForge 20161004 at Thu Apr 20 15:18:21 2017
 By mb
(URW)++,Copyright 2016 by (URW)++ Design &#38; Development
</metadata>
<defs>
<font id="TeleGroteskNext-Bold" horiz-adv-x="1156" >
  <font-face 
    font-family="TeleGrotesk Next"
    font-weight="700"
    font-stretch="normal"
    units-per-em="2048"
    panose-1="0 0 0 0 0 0 0 0 0 0"
    ascent="1679"
    descent="-369"
    x-height="942"
    cap-height="1365"
    bbox="-124 -512 2525 1821"
    underline-thickness="173"
    underline-position="-282"
    unicode-range="U+0020-FFFD"
  />
<missing-glyph horiz-adv-x="531" 
d="M53 0v1365h425v-1365h-425zM425 53v1259h-319v-1259h319z" />
    <glyph glyph-name="fi" unicode="fi" horiz-adv-x="1029" 
d="M144 0v786h-143v156h142v129q0 166 51 232q71 93 225 93q45 0 112 -13v-168q-47 13 -80 13q-63 0 -85 -33t-22 -128v-125h175v-156h-174v-786h-201zM678 1160v205h213v-205h-213zM678 0v942h201v-942h-201z" />
    <glyph glyph-name="fl" unicode="fl" horiz-adv-x="1029" 
d="M146 0v786h-145v156h144v129q0 166 52 233q72 92 228 92q46 0 113 -13v-168q-48 13 -82 13q-65 0 -87.5 -33t-22.5 -128v-125h180v-156h-179v-786h-201zM690 0v1365h201v-1365h-201z" />
    <glyph glyph-name="afii61352" unicode="Nr&#x2e;" horiz-adv-x="1774" 
d="M171 0v1365h231l508 -1012v1012h209v-1365h-233l-506 1007v-1007h-209zM1494 913q120 0 192 -85q71 -82 71 -225q0 -150 -79 -235q-70 -75 -183 -75q-126 0 -197 88q-69 86 -69 226q0 127 64 211q73 95 201 95zM1493 762q-48 0 -77 -42.5t-29 -114.5q0 -76 28.5 -118.5
t78.5 -42.5q49 0 77 42.5t28 117.5q0 74 -28.5 116t-77.5 42zM1757 226v-132h-528v132h528z" />
    <glyph glyph-name=".notdef" horiz-adv-x="531" 
d="M53 0v1365h425v-1365h-425zM425 53v1259h-319v-1259h319z" />
    <glyph glyph-name="_" horiz-adv-x="0" 
 />
    <glyph glyph-name="_001" horiz-adv-x="531" 
 />
    <glyph glyph-name="space" unicode=" " horiz-adv-x="531" 
 />
    <glyph glyph-name="exclam" unicode="!" horiz-adv-x="672" 
d="M443 1365v-392l-57 -596h-106l-50 594v394h213zM459 246v-246h-246v246h246z" />
    <glyph glyph-name="quotedbl" unicode="&#x22;" horiz-adv-x="765" 
d="M293 844h-152l-35 521h222zM624 844h-151l-35 521h222z" />
    <glyph glyph-name="numbersign" unicode="#" horiz-adv-x="1323" 
d="M181 436v147h206l31 222h-185v147h206l49 345h168l-49 -345h187l49 345h168l-49 -345h188v-147h-209l-31 -222h188v-147h-209l-51 -368h-168l52 368h-188l-51 -368h-168l51 368h-185zM773 805h-187l-31 -222h187z" />
    <glyph glyph-name="dollar" unicode="$" horiz-adv-x="1133" 
d="M479 1447h160v-98q117 -17 201 -75q129 -88 143 -271h-212q-10 127 -132 159v-383q143 -56 215 -104q180 -118 180 -300q0 -150 -106 -248.5t-289 -116.5v-92h-160v98q-164 26 -258 131t-103 270h228q5 -158 133 -215v432q-125 51 -193 103q-145 112 -145 284
q0 135 91.5 224.5t246.5 106.5v95zM639 188q84 16 129 62.5t45 117.5q0 130 -174 214v-394zM479 1165q-133 -33 -133 -145q0 -107 133 -186v331z" />
    <glyph glyph-name="percent" unicode="%" horiz-adv-x="1786" 
d="M390 1383q147 0 241 -113q100 -120 100 -314q0 -169 -77 -285q-94 -144 -264 -144q-171 0 -268 146q-75 113 -75 288q0 191 98 307q97 115 245 115zM389 1244q-81 0 -129 -74q-53 -81 -53 -208q0 -134 47 -215q22 -37 59 -59t78 -22q82 0 131 79t49 212q0 131 -51 211
q-49 76 -131 76zM674 0h-145l588 1365h141zM1399 837q147 0 241 -113q100 -120 100 -314q0 -169 -77 -285q-94 -144 -264 -144q-171 0 -268 146q-75 113 -75 288q0 191 98 307q97 115 245 115zM1398 698q-81 0 -129 -74q-53 -81 -53 -208q0 -134 47 -215q22 -37 59 -59
t78 -22q82 0 131 79t49 212q0 131 -51 211q-48 76 -131 76z" />
    <glyph glyph-name="ampersand" unicode="&#x26;" horiz-adv-x="1121" 
d="M1060 0h-220l-46 69q-125 -98 -297 -98q-174 0 -282 98q-119 109 -119 271q0 220 243 420q-10 15 -15 23q-71 105 -92 156q-37 88 -37 170q0 138 119 222q88 63 201 63q133 0 217 -82q78 -77 78 -198q0 -97 -53 -182.5t-185 -198.5l223 -334q19 78 23 168h198
q-20 -206 -100 -350zM435 614q-135 -131 -135 -283q0 -96 62 -153q57 -53 142 -53q110 0 195 89zM481 869q147 112 147 237q0 58 -32.5 96t-82.5 38q-51 0 -85 -39t-34 -97q0 -104 87 -235z" />
    <glyph glyph-name="quotesingle" unicode="'" horiz-adv-x="434" 
d="M293 844h-152l-35 521h222z" />
    <glyph glyph-name="parenleft" unicode="(" horiz-adv-x="621" 
d="M333 1365h164q-5 -9 -10 -19q-184 -383 -184 -846q0 -227 47 -433.5t148 -421.5h-165q-114 221 -155 346q-82 249 -82 501q0 285 87 548q27 81 71.5 177.5t78.5 147.5z" />
    <glyph glyph-name="parenright" unicode=")" horiz-adv-x="621" 
d="M125 1365h163q34 -50 78 -146.5t72 -178.5q87 -262 87 -546q0 -254 -82 -503q-41 -126 -154 -346h-166l6 13q189 403 189 842q0 238 -45.5 442.5t-147.5 422.5z" />
    <glyph glyph-name="asterisk" unicode="*" horiz-adv-x="894" 
d="M759 1102l-222 -72l138 -185l-91 -69l-139 191l-138 -191l-93 69l142 185l-220 72l36 108l218 -79l-2 234h118l-4 -234l218 79z" />
    <glyph glyph-name="plus" unicode="+" horiz-adv-x="1065" 
d="M61 776h381v355h181v-355h380v-173h-380v-355h-188v348h-374v180z" />
    <glyph glyph-name="comma" unicode="," horiz-adv-x="598" 
d="M422 246v-171q0 -111 -21 -175t-73 -111q-59 -54 -152 -76v119q107 27 111 168h-111v246h246z" />
    <glyph glyph-name="hyphen" unicode="-" horiz-adv-x="453" 
d="M437 611v-197h-421v197h421z" />
    <glyph glyph-name="period" unicode="." horiz-adv-x="598" 
d="M422 246v-246h-246v246h246z" />
    <glyph glyph-name="slash" unicode="/" horiz-adv-x="798" 
d="M148 -355h-172l551 1720h171z" />
    <glyph glyph-name="zero" unicode="0" horiz-adv-x="1006" 
d="M501 1394q400 0 400 -714q0 -351 -99 -529q-101 -180 -296 -180q-401 0 -401 715q0 354 100 526q105 182 296 182zM502 1209q-101 0 -145 -124.5t-44 -408.5q0 -268 40 -385q47 -135 152 -135q114 0 155 158q33 125 33 378q0 242 -37 372q-42 145 -154 145z" />
    <glyph glyph-name="one" unicode="1" horiz-adv-x="1006" 
d="M446 0v1003q-46 -36 -91 -48t-137 -13v169q132 4 191 58t88 196h158v-1365h-209z" />
    <glyph glyph-name="two" unicode="2" horiz-adv-x="1006" 
d="M896 184v-184h-812q0 196 47 310q41 99 115.5 174.5t251.5 196.5q198 137 198 318q0 80 -37 134q-55 82 -162 82q-90 0 -142.5 -67.5t-53.5 -183.5h-206q8 188 102 299q114 134 302 134q93 0 177.5 -35t140.5 -96q93 -103 93 -268q0 -193 -148 -339q-73 -72 -249 -191
q-111 -76 -158.5 -137t-61.5 -147h603z" />
    <glyph glyph-name="three" unicode="3" horiz-adv-x="1006" 
d="M313 1000h-197q5 150 66 246q100 160 307 160q170 0 271 -106q95 -100 95 -259q0 -206 -168 -290q102 -34 158 -122.5t56 -218.5q0 -192 -119 -311q-116 -115 -298 -115q-248 0 -349 203q-46 93 -46 206q0 6 1 27h199q7 -252 200 -252q91 0 142 60q57 67 57 182
q0 119 -55 181t-161 62q-23 0 -65 -3v168q109 0 154 22q41 21 65.5 70.5t24.5 113.5q0 90 -46 144t-123 54q-162 0 -169 -222z" />
    <glyph glyph-name="four" unicode="4" horiz-adv-x="1006" 
d="M563 0v335h-473v211l478 819h193v-850h139v-180h-139v-335h-198zM563 515v540l-300 -540h300z" />
    <glyph glyph-name="five" unicode="5" horiz-adv-x="1006" 
d="M88 343h204q10 -76 44 -121q52 -67 144 -67q97 0 149.5 74.5t52.5 212.5q0 123 -45 203q-53 95 -160 95q-110 0 -178 -120l-178 6l104 739h596v-190h-442l-49 -348q79 85 205 85q154 0 250 -116q110 -132 110 -339q0 -212 -114 -348q-116 -138 -306 -138
q-168 0 -275 102.5t-112 269.5z" />
    <glyph glyph-name="six" unicode="6" horiz-adv-x="1006" 
d="M883 1053h-200q-24 165 -152 165q-194 0 -218 -458q93 143 241 143q160 0 259 -130q95 -125 95 -323q0 -195 -95 -326q-111 -153 -292 -153q-193 0 -296 165q-115 184 -115 528q0 328 104 521q113 209 329 209q141 0 233 -92t107 -249zM516 727q-81 0 -131 -78t-50 -204
q0 -114 42 -196q49 -94 142 -94q79 0 127.5 77.5t48.5 205.5q0 114 -41 194q-48 95 -138 95z" />
    <glyph glyph-name="seven" unicode="7" horiz-adv-x="1006" 
d="M498 0h-222q2 165 62 396.5t148 414.5q111 230 215 353h-571v201h770v-185q-149 -177 -266 -496q-121 -330 -136 -684z" />
    <glyph glyph-name="eight" unicode="8" horiz-adv-x="1006" 
d="M309 736q-62 31 -96 78q-70 97 -70 228q0 158 98 253q103 99 266 99q160 0 260 -99q94 -94 94 -249q0 -106 -43 -186.5t-122 -123.5q68 -29 104 -64q106 -103 106 -291q0 -170 -95 -280q-113 -130 -309 -130q-186 0 -298 116q-105 109 -105 286q0 133 53.5 226t156.5 137
zM504 1216q-75 0 -120 -53.5t-45 -142.5q0 -95 45.5 -153.5t119.5 -58.5q73 0 117 57t44 152q0 92 -43.5 145.5t-117.5 53.5zM502 650q-85 0 -136 -68q-54 -72 -54 -181q0 -117 52 -185.5t142 -68.5q88 0 137.5 64t49.5 180q0 107 -43 175q-54 84 -148 84z" />
    <glyph glyph-name="nine" unicode="9" horiz-adv-x="1006" 
d="M123 319h200q25 -172 153 -172q191 0 217 460q-93 -143 -241 -143q-160 0 -259 130q-95 124 -95 322q0 195 95 326q111 152 292 152q193 0 296 -165q115 -183 115 -526q0 -329 -104 -523q-112 -209 -328 -209q-142 0 -233.5 93.5t-107.5 254.5zM488 1210q-89 0 -136 -89
q-41 -79 -41 -189q0 -115 41 -197q47 -95 139 -95q81 0 130.5 78t49.5 206q0 114 -42 193q-50 93 -141 93z" />
    <glyph glyph-name="colon" unicode=":" horiz-adv-x="598" 
d="M422 942v-246h-246v246h246zM422 246v-246h-246v246h246z" />
    <glyph glyph-name="semicolon" unicode=";" horiz-adv-x="598" 
d="M422 246v-171q0 -111 -21 -175t-73 -111q-59 -54 -152 -76v119q107 27 111 168h-111v246h246zM422 942v-246h-246v246h246z" />
    <glyph glyph-name="less" unicode="&#x3c;" horiz-adv-x="1081" 
d="M984 1214v-218l-654 -313l654 -313v-218l-887 438v186z" />
    <glyph glyph-name="equal" unicode="=" horiz-adv-x="1065" 
d="M62 947h942v-173h-942v173zM62 605h942v-173h-942v173z" />
    <glyph glyph-name="greater" unicode="&#x3e;" horiz-adv-x="1082" 
d="M98 1214l887 -438v-186l-887 -438v218l654 313l-654 313v218z" />
    <glyph glyph-name="question" unicode="?" horiz-adv-x="983" 
d="M133 961q0 9 1 22q7 179 90 283q104 130 279 130q171 0 277 -109q102 -104 102 -267q0 -116 -59 -215q-22 -38 -39 -57.5t-95 -99.5q-89 -91 -95 -197l-1 -76h-183q4 114 14 165q13 63 39.5 109t95.5 125q64 72 88.5 123.5t24.5 112.5q0 89 -46.5 143t-124.5 54
q-164 0 -173 -246h-195zM619 246v-246h-246v246h246z" />
    <glyph glyph-name="at" unicode="@" horiz-adv-x="1553" 
d="M1000 981h149l-79 -399q-11 -73 -11 -80q0 -43 35 -43q73 0 142 71q120 123 120 313q0 196 -141 317q-135 114 -338 114q-255 0 -436 -186q-190 -195 -190 -493q0 -225 126 -361q136 -145 392 -145q124 0 221.5 24t222.5 84l14 6l43 -119q-39 -19 -55 -26
q-199 -91 -456 -91q-317 0 -487 172q-174 174 -174 453q0 228 119 430q112 190 309 289q168 85 350 85q250 0 420 -143q188 -157 188 -408q0 -171 -91 -312q-60 -92 -142.5 -143.5t-169.5 -51.5q-104 0 -140 82q-52 -51 -96.5 -72t-102.5 -21q-117 0 -187 89q-62 79 -62 202
q0 158 94 274q90 111 226 111q114 0 174 -89zM823 876q-84 0 -138 -82q-49 -75 -49 -170q0 -79 33 -126t88 -47q87 0 141 93q42 74 42 178q0 72 -31 112q-32 42 -86 42z" />
    <glyph glyph-name="A" unicode="A" 
d="M462 1365h235l438 -1365h-236l-107 366h-431l-108 -366h-231zM414 546h325l-161 552z" />
    <glyph glyph-name="B" unicode="B" horiz-adv-x="1219" 
d="M171 0v1365h455q129 0 206 -20t130 -67q102 -90 102 -244q0 -104 -49.5 -180t-145.5 -119q247 -72 247 -334q0 -133 -67 -234q-79 -118 -212 -151q-64 -16 -151 -16h-515zM396 797h189q112 0 158 18q45 18 71 64t26 107q0 133 -91 174q-38 17 -157 17h-196v-380zM396 188
h216q147 0 200 38q79 57 79 181q0 70 -28 121.5t-78 73.5q-47 21 -192 21h-197v-435z" />
    <glyph glyph-name="C" unicode="C" horiz-adv-x="1236" 
d="M929 523h222q-11 -208 -117 -358q-139 -198 -385 -198q-243 0 -386 181q-160 203 -160 531q0 283 130 481q154 236 426 236q244 0 387 -199q83 -116 97 -269h-222q-19 110 -69 176q-77 100 -199 100q-153 0 -234 -138q-91 -156 -91 -386q0 -225 87 -379q80 -141 234 -141
q241 0 280 363z" />
    <glyph glyph-name="D" unicode="D" horiz-adv-x="1272" 
d="M171 0v1365h419q273 0 413 -153q166 -182 166 -520q0 -397 -215 -585q-68 -58 -148.5 -82.5t-204.5 -24.5h-430zM396 188h174q102 0 158 19.5t101 71.5q115 132 115 413q0 238 -94 361.5t-277 123.5h-177v-989z" />
    <glyph glyph-name="E" unicode="E" horiz-adv-x="1118" 
d="M171 0v1365h823v-193h-598v-370h553v-193h-553v-416h608v-193h-833z" />
    <glyph glyph-name="F" unicode="F" horiz-adv-x="1037" 
d="M171 0v1365h797v-193h-572v-382h500v-193h-500v-597h-225z" />
    <glyph glyph-name="G" unicode="G" horiz-adv-x="1326" 
d="M1177 0h-173v158q-84 -105 -164.5 -148t-191.5 -43q-219 0 -362 158q-183 202 -183 548q0 336 174 543q152 181 396 181q267 0 408 -221q69 -107 82 -247h-218q-18 111 -71 179q-77 96 -206 96q-156 0 -243 -135q-97 -148 -97 -393q0 -261 111 -404q86 -112 234 -112
q196 0 270 205q24 65 30 180h-301v184h505v-729z" />
    <glyph glyph-name="H" unicode="H" horiz-adv-x="1301" 
d="M171 0v1365h225v-552h510v552h225v-1365h-225v620h-510v-620h-225z" />
    <glyph glyph-name="I" unicode="I" horiz-adv-x="566" 
d="M171 0v1365h225v-1365h-225z" />
    <glyph glyph-name="J" unicode="J" horiz-adv-x="675" 
d="M16 -19v199q66 -18 112 -18q121 0 156 115q11 38 13.5 74.5t3.5 168.5v845h225v-873q0 -151 -13 -226.5t-50 -138.5q-92 -160 -320 -160q-56 0 -127 14z" />
    <glyph glyph-name="K" unicode="K" horiz-adv-x="1163" 
d="M171 0v1365h224v-580l473 580h262l-477 -564l506 -801h-258l-393 629l-113 -134v-495h-224z" />
    <glyph glyph-name="L" unicode="L" horiz-adv-x="1035" 
d="M171 0v1365h225v-1172h565v-193h-790z" />
    <glyph glyph-name="M" unicode="M" horiz-adv-x="1546" 
d="M171 0v1365h302l305 -1064l295 1064h302v-1365h-209v1080l-292 -1080h-190l-304 1067v-1067h-209z" />
    <glyph glyph-name="N" unicode="N" horiz-adv-x="1289" 
d="M171 0v1365h231l508 -1012v1012h209v-1365h-233l-506 1007v-1007h-209z" />
    <glyph glyph-name="O" unicode="O" horiz-adv-x="1320" 
d="M662 1396q238 0 391 -186q164 -202 164 -527q0 -284 -126 -479q-75 -116 -191 -178q-109 -59 -238 -59q-279 0 -436 241q-123 189 -123 484q0 320 160 513q158 191 399 191zM660 1204q-150 0 -239 -139q-93 -145 -93 -371q0 -237 84 -383q40 -70 108 -111t144 -41
q66 0 126.5 33t99.5 91q102 151 102 401q0 233 -90 377q-89 143 -242 143z" />
    <glyph glyph-name="P" unicode="P" horiz-adv-x="1143" 
d="M171 0v1365h427q135 0 214.5 -24t137.5 -84q114 -114 114 -309q0 -222 -139 -337q-56 -46 -125 -66t-175 -20h-229v-525h-225zM396 717h198q128 0 181 51q64 63 64 177q0 131 -90 189q-50 32 -173 32h-180v-449z" />
    <glyph glyph-name="Q" unicode="Q" horiz-adv-x="1320" 
d="M1193 6l-121 -118l-151 161q-126 -82 -268 -82q-182 0 -321 120q-229 196 -229 596q0 325 160 522q155 191 399 191q239 0 391 -186q164 -202 164 -534q0 -161 -41 -284t-131 -231zM766 453l148 -155q78 147 78 384q0 232 -90 380q-88 142 -242 142q-150 0 -239 -139
q-93 -145 -93 -378q0 -230 84 -376q41 -72 109.5 -112t151.5 -40q60 0 120 26l-144 153z" />
    <glyph glyph-name="R" unicode="R" horiz-adv-x="1288" 
d="M197 0v1365h505q107 0 175.5 -20t122.5 -67q123 -106 123 -290q0 -250 -221 -337q85 -24 126 -80q32 -44 46.5 -95t22.5 -149q15 -187 25.5 -235.5t43.5 -91.5h-237q-18 36 -24.5 71.5t-11.5 131.5q-8 132 -22 194.5t-46 102.5q-51 64 -204 64h-199v-564h-225zM422 739
h198q144 0 197 38q81 57 81 185q0 113 -60 164t-192 51h-224v-438z" />
    <glyph glyph-name="S" unicode="S" horiz-adv-x="1103" 
d="M97 417h234q4 -103 42 -164q63 -102 188 -102q105 0 164 70q47 56 47 134q0 115 -106 181q-50 31 -222 102q-135 56 -215 135q-102 101 -102 257q0 169 124 274q109 92 280 92q235 0 353 -156q67 -87 78 -237h-219q-8 87 -42 130q-54 70 -169 70q-82 0 -130 -40
q-57 -48 -57 -131q0 -81 56 -134t201 -110q124 -49 180 -79t100 -70q124 -115 124 -282q0 -165 -117 -274q-123 -116 -330 -116q-239 0 -365 160q-88 113 -97 290z" />
    <glyph glyph-name="T" unicode="T" horiz-adv-x="1053" 
d="M415 0v1172h-356v193h936v-193h-355v-1172h-225z" />
    <glyph glyph-name="U" unicode="U" horiz-adv-x="1258" 
d="M149 1365h225v-781q0 -129 11.5 -199t40.5 -119q63 -107 207 -107q141 0 195.5 93t54.5 332v781h225v-772q0 -171 -18 -256q-81 -370 -461 -370q-278 0 -400 205q-44 74 -62 169t-18 256v768z" />
    <glyph glyph-name="V" unicode="V" horiz-adv-x="1060" 
d="M406 0l-384 1365h238l275 -1098l278 1098h226l-387 -1365h-246z" />
    <glyph glyph-name="W" unicode="W" horiz-adv-x="1561" 
d="M329 0l-302 1365h228l196 -1055l218 1055h226l215 -1057l200 1057h224l-308 -1365h-229l-218 1055l-219 -1055h-231z" />
    <glyph glyph-name="X" unicode="X" horiz-adv-x="1087" 
d="M11 0l407 709l-378 656h257l250 -480l257 480h244l-376 -656l405 -709h-263l-273 514l-280 -514h-250z" />
    <glyph glyph-name="Y" unicode="Y" horiz-adv-x="1068" 
d="M423 0v545l-428 820h253l291 -597l288 597h245l-424 -822v-543h-225z" />
    <glyph glyph-name="Z" unicode="Z" horiz-adv-x="1098" 
d="M87 0v186l657 986h-606v193h875v-181l-661 -991h677v-193h-942z" />
    <glyph glyph-name="bracketleft" unicode="[" horiz-adv-x="631" 
d="M544 1365v-164h-192v-1392h192v-164h-369v1720h369z" />
    <glyph glyph-name="backslash" unicode="\" horiz-adv-x="798" 
d="M650 -355l-550 1720h170l552 -1720h-172z" />
    <glyph glyph-name="bracketright" unicode="]" horiz-adv-x="631" 
d="M87 1365h369v-1720h-369v164h192v1392h-192v164z" />
    <glyph glyph-name="asciicircum" unicode="^" horiz-adv-x="1071" 
d="M273 747h-199l338 624h246l338 -624h-200l-262 475z" />
    <glyph glyph-name="underscore" unicode="_" horiz-adv-x="1065" 
d="M61 -110h942v-173h-942v173z" />
    <glyph glyph-name="grave" unicode="`" horiz-adv-x="982" 
d="M236 1365h190l180 -273h-174z" />
    <glyph glyph-name="a" unicode="a" horiz-adv-x="1000" 
d="M952 142v-142q-61 -25 -133 -25q-62 0 -94.5 23.5t-51.5 84.5q-110 -112 -288 -112q-128 0 -214 64q-106 77 -106 212q0 147 118 232q69 49 163 67t310 24v78q0 167 -179 167q-91 0 -127.5 -24t-44.5 -89h-203q16 269 388 269q208 0 307 -111q40 -44 52 -98t12 -187v-356
q0 -53 10 -70.5t39 -17.5q18 0 42 11zM656 454q-135 -6 -212 -24q-78 -18 -121 -61q-49 -49 -49 -114q0 -61 42.5 -96.5t116.5 -35.5q118 0 182 104q41 69 41 152v75z" />
    <glyph glyph-name="b" unicode="b" horiz-adv-x="1075" 
d="M129 0v1365h201v-527q95 133 267 133q180 0 293 -135q111 -132 111 -363q0 -213 -101 -355q-105 -147 -290 -147t-281 135v-106h-200zM558 803q-102 0 -164 -84q-64 -88 -64 -243q0 -150 55 -239q61 -98 173 -98q108 0 168 98q58 96 58 238q0 154 -65 244q-60 84 -161 84
z" />
    <glyph glyph-name="c" unicode="c" horiz-adv-x="960" 
d="M701 333h211q-20 -145 -101 -236q-112 -126 -306 -126q-190 0 -306 119q-133 137 -133 374q0 222 113 357q125 150 335 150q162 0 265.5 -87t119.5 -237h-212q-15 75 -61.5 115.5t-118.5 40.5q-115 0 -177 -96q-59 -91 -59 -240q0 -152 63 -243q59 -85 167 -85
q82 0 134 50.5t66 143.5z" />
    <glyph glyph-name="d" unicode="d" horiz-adv-x="1075" 
d="M946 0h-202v106q-97 -135 -283 -135q-187 0 -294 147q-102 142 -102 355q0 231 113 363q54 64 132.5 99.5t164.5 35.5q178 0 270 -133v527h201v-1365zM507 803q-107 0 -169 -84q-68 -92 -68 -240q0 -145 61 -242q62 -98 176 -98q111 0 174.5 88.5t63.5 243.5
q0 162 -67 248q-66 84 -171 84z" />
    <glyph glyph-name="e" unicode="e" horiz-adv-x="986" 
d="M922 420h-644q2 -89 27 -150q59 -144 212 -144q145 0 177 121h203q-14 -74 -54 -127q-111 -149 -333 -149q-210 0 -331 143q-114 135 -114 347q0 216 117 361q120 149 315 149q198 0 311.5 -147t113.5 -404zM708 561q-6 81 -36 139q-60 115 -177 115q-112 0 -169 -102
q-34 -61 -45 -152h427z" />
    <glyph glyph-name="f" unicode="f" horiz-adv-x="556" 
d="M163 0v786h-150v156h148v129q0 165 51 232q70 93 222 93q43 0 109 -13v-168q-45 13 -77 13q-60 0 -82 -34.5t-22 -126.5v-125h169v-156h-167v-786h-201z" />
    <glyph glyph-name="g" unicode="g" horiz-adv-x="1055" 
d="M99 -107h208q8 -37 25 -54q48 -45 158 -45q116 0 171 74t55 230v49q-88 -139 -265 -139q-176 0 -282 126q-107 130 -107 347q0 225 113 357q113 133 294 133q173 0 267 -139v110h189v-763q0 -144 -16.5 -225.5t-59.5 -144.5q-110 -164 -358 -164q-184 0 -283 63t-109 185
zM492 801q-100 0 -157 -75q-68 -89 -68 -242q0 -158 78 -243q60 -65 147 -65q99 0 158 78q71 92 71 242q0 160 -80 243q-60 62 -149 62z" />
    <glyph glyph-name="h" unicode="h" horiz-adv-x="1044" 
d="M131 0v1365h201v-534q100 140 273 140q93 0 165 -37t109 -103q40 -72 40 -225v-606h-201v575q0 113 -27 157q-42 71 -143 71q-115 0 -174 -96q-25 -40 -33.5 -92.5t-8.5 -160.5v-454h-201z" />
    <glyph glyph-name="i" unicode="i" horiz-adv-x="528" 
d="M151 1160v205h213v-205h-213zM157 0v942h201v-942h-201z" />
    <glyph glyph-name="j" unicode="j" horiz-adv-x="547" 
d="M31 -349v166q31 -6 53 -6q56 0 74.5 34.5t18.5 138.5v958h201v-931q0 -186 -31 -251q-26 -53 -84.5 -84t-135.5 -31q-35 0 -79 4zM170 1160v205h213v-205h-213z" />
    <glyph glyph-name="k" unicode="k" horiz-adv-x="982" 
d="M134 0v1365h201v-762l341 339h252l-360 -348l394 -594h-254l-288 452l-85 -82v-370h-201z" />
    <glyph glyph-name="l" unicode="l" horiz-adv-x="531" 
d="M165 0v1365h201v-1365h-201z" />
    <glyph glyph-name="m" unicode="m" horiz-adv-x="1507" 
d="M113 0v942h195v-114q108 143 269 143q173 0 242 -151q107 151 284 151q103 0 180 -53q62 -42 89.5 -106.5t27.5 -168.5v-643h-201v579q0 102 -17 142q-34 82 -135 82q-125 0 -172 -119q-19 -48 -19 -178v-506h-201v591q0 119 -31 161q-38 51 -112 51q-58 0 -105.5 -33.5
t-70.5 -89.5q-22 -55 -22 -174v-506h-201z" />
    <glyph glyph-name="n" unicode="n" horiz-adv-x="1044" 
d="M131 0v942h196v-119q101 148 284 148q115 0 198 -62q62 -46 86 -113t24 -194v-602h-201v549q0 109 -16 158q-14 44 -53 69q-42 27 -99 27q-64 0 -115.5 -34t-75.5 -91q-27 -67 -27 -205v-473h-201z" />
    <glyph glyph-name="o" unicode="o" horiz-adv-x="1028" 
d="M516 971q205 0 329 -137q120 -133 120 -363q0 -245 -136 -380q-120 -120 -312 -120q-216 0 -337 143q-117 138 -117 364q0 205 110 340q124 153 343 153zM515 803q-111 0 -177 -85q-70 -91 -70 -242q0 -165 69 -253q66 -84 180 -84q104 0 167 74q76 90 76 260
q0 157 -67 244q-67 86 -178 86z" />
    <glyph glyph-name="p" unicode="p" horiz-adv-x="1075" 
d="M129 -355v1297h203v-106q97 135 284 135q188 0 295 -147q102 -142 102 -354q0 -230 -114 -364q-115 -135 -298 -135q-178 0 -271 133v-459h-201zM570 803q-110 0 -174.5 -88.5t-64.5 -239.5q0 -165 67 -252q65 -84 173 -84q107 0 169 84q68 92 68 244q0 144 -61 238
q-64 98 -177 98z" />
    <glyph glyph-name="q" unicode="q" horiz-adv-x="1075" 
d="M745 -355v459q-94 -133 -273 -133q-183 0 -297 135q-113 133 -113 363q0 213 102 355q107 147 295 147q186 0 284 -135v106h203v-1297h-201zM505 803q-114 0 -177 -98q-61 -96 -61 -233q0 -157 68 -249q62 -84 170 -84q111 0 175 89t64 243q0 149 -58 234q-66 98 -181 98
z" />
    <glyph glyph-name="r" unicode="r" horiz-adv-x="660" 
d="M131 0v942h194v-156q96 185 287 185q10 0 45 -2v-205q-53 6 -79 6q-146 0 -211 -135q-35 -72 -35 -254v-381h-201z" />
    <glyph glyph-name="s" unicode="s" horiz-adv-x="889" 
d="M61 267h212q12 -75 56 -109.5t126 -34.5q78 0 123 35.5t45 96.5q0 81 -93 121q-35 16 -177 47q-278 62 -278 274q0 121 94 197q95 77 254 77q216 0 314 -125q44 -56 53 -145h-212q-19 119 -159 119q-66 0 -105.5 -31t-39.5 -83t36.5 -79t136.5 -49q166 -37 228 -68
q153 -77 153 -234q0 -135 -105 -222q-99 -83 -274 -83q-343 0 -388 296z" />
    <glyph glyph-name="t" unicode="t" horiz-adv-x="588" 
d="M12 786v156h150v117l147 196h54v-313h175v-156h-174v-492q0 -83 12 -105q20 -38 84 -38q33 0 78 14v-165q-54 -21 -142 -21q-152 0 -203 88q-30 52 -30 207v512h-151z" />
    <glyph glyph-name="u" unicode="u" horiz-adv-x="1044" 
d="M913 0h-189v119q-104 -148 -287 -148q-189 0 -267 132q-25 44 -35 95t-10 142v602h201v-549q0 -108 16 -158q14 -44 52 -69q42 -27 100 -27q64 0 115.5 34t75.5 91q27 67 27 205v473h201v-942z" />
    <glyph glyph-name="v" unicode="v" horiz-adv-x="913" 
d="M342 0l-320 942h230l212 -708l207 708h220l-314 -942h-235z" />
    <glyph glyph-name="w" unicode="w" horiz-adv-x="1349" 
d="M303 0l-276 942h227l166 -688l148 688h214l156 -681l167 681h218l-275 -942h-218l-156 675l-151 -675h-220z" />
    <glyph glyph-name="x" unicode="x" horiz-adv-x="976" 
d="M30 0l328 496l-302 446h253l176 -281l181 281h243l-300 -436l337 -506h-254l-208 339l-207 -339h-247z" />
    <glyph glyph-name="y" unicode="y" horiz-adv-x="931" 
d="M110 -344v172q75 -13 106 -13q65 0 96 67q41 84 51 139l-341 921h232l221 -689l212 689h222l-324 -922q-77 -219 -126 -281q-74 -94 -208 -94q-55 0 -141 11z" />
    <glyph glyph-name="z" unicode="z" horiz-adv-x="956" 
d="M89 0v159l501 615h-467v168h731v-146l-503 -628h529v-168h-791z" />
    <glyph glyph-name="braceleft" unicode="{" horiz-adv-x="596" 
d="M196 504q68 -40 94.5 -92.5t26.5 -149.5v-286q0 -68 8 -96t33 -47q33 -25 127 -25h27v-163h-50q-103 0 -151 9.5t-85 39.5q-86 67 -86 239v318q0 84 -25.5 124.5t-88.5 54.5v161q61 15 87.5 53t26.5 112v331q0 166 89 231q66 49 233 47h50v-164h-26q-103 0 -136 -32
t-33 -132v-294q0 -97 -25.5 -147.5t-95.5 -91.5z" />
    <glyph glyph-name="bar" unicode="|" horiz-adv-x="1282" 
d="M531 1365h220v-1706h-220v1706z" />
    <glyph glyph-name="braceright" unicode="}" horiz-adv-x="596" 
d="M400 504q-70 41 -95.5 91.5t-25.5 147.5v294q0 64 -8.5 92.5t-32.5 46.5q-34 25 -128 25h-26v164h50q167 2 233 -47q89 -65 89 -231v-331q0 -74 26.5 -112t87.5 -53v-161q-63 -14 -88.5 -54.5t-25.5 -124.5v-318q0 -172 -86 -239q-37 -30 -85 -39.5t-150 -9.5h-51v163h27
q104 0 136 32t32 136v286q0 97 26 149.5t95 92.5z" />
    <glyph glyph-name="asciitilde" unicode="~" horiz-adv-x="1496" 
d="M369 1165l-111 90q58 129 127.5 189.5t159.5 60.5q76 0 230 -74q86 -41 119 -52.5t67 -11.5q91 0 170 143l111 -91q-44 -97 -87 -149q-85 -102 -200 -102q-38 0 -80.5 14t-143.5 61q-139 64 -193 64q-49 0 -86.5 -31.5t-82.5 -110.5z" />
    <glyph glyph-name="Adieresis" unicode="&#xc4;" 
d="M462 1365h235l438 -1365h-236l-107 366h-431l-108 -366h-231zM414 546h325l-161 552zM837 1676v-205h-192v205h192zM512 1676v-205h-192v205h192z" />
    <glyph glyph-name="Aring" unicode="&#xc5;" 
d="M462 1365h235l438 -1365h-236l-107 366h-431l-108 -366h-231zM414 546h325l-161 552zM580 1727q-40 0 -68 -29t-28 -71t27.5 -71t66.5 -29t67 29t28 71q0 41 -27.5 70.5t-65.5 29.5zM581 1821q80 0 137.5 -57t57.5 -137q0 -79 -57 -135q-58 -58 -141 -58t-140 56
q-58 58 -58 137q0 81 58.5 137.5t142.5 56.5z" />
    <glyph glyph-name="Ccedilla" unicode="&#xc7;" horiz-adv-x="1237" 
d="M660 -33l-29 -75q27 12 58 12q67 0 113.5 -44t46.5 -109q0 -73 -51 -117t-135 -44q-69 0 -114 30t-52 81h108q9 -31 57 -31q73 0 73 77q0 37 -20 58.5t-54 21.5q-41 0 -53 -27h-108l65 174q-142 22 -243 112q-100 89 -157 235q-62 158 -62 358q0 283 130 481
q154 236 426 236q244 0 387 -199q83 -116 97 -269h-222q-19 110 -69 176q-77 100 -199 100q-153 0 -234 -138q-91 -156 -91 -386q0 -225 87 -379q80 -141 234 -141q241 0 280 363h222q-13 -245 -148.5 -398.5t-342.5 -157.5z" />
    <glyph glyph-name="Eacute" unicode="&#xc9;" horiz-adv-x="1118" 
d="M171 0v1365h823v-193h-598v-370h553v-193h-553v-416h608v-193h-833zM813 1734l-185 -259h-171l170 259h186z" />
    <glyph glyph-name="Ntilde" unicode="&#xd1;" horiz-adv-x="1289" 
d="M171 0v1365h231l508 -1012v1012h209v-1365h-233l-506 1007v-1007h-209zM837 1713h116q-36 -232 -190 -232q-57 0 -162 61q-52 30 -78 30q-53 0 -71 -91h-115q34 232 196 232q37 0 66 -11t87 -47q48 -30 76 -30q53 0 75 88z" />
    <glyph glyph-name="Odieresis" unicode="&#xd6;" horiz-adv-x="1320" 
d="M662 1396q238 0 391 -186q164 -202 164 -527q0 -284 -126 -479q-75 -116 -191 -178q-109 -59 -238 -59q-279 0 -436 241q-123 189 -123 484q0 320 160 513q158 191 399 191zM660 1204q-150 0 -239 -139q-93 -145 -93 -371q0 -237 84 -383q40 -70 108 -111t144 -41
q66 0 126.5 33t99.5 91q102 151 102 401q0 233 -90 377q-89 143 -242 143zM912 1676v-205h-192v205h192zM587 1676v-205h-192v205h192z" />
    <glyph glyph-name="Udieresis" unicode="&#xdc;" horiz-adv-x="1258" 
d="M149 1365h225v-781q0 -129 11.5 -199t40.5 -119q63 -107 207 -107q141 0 195.5 93t54.5 332v781h225v-772q0 -171 -18 -256q-81 -370 -461 -370q-278 0 -400 205q-44 74 -62 169t-18 256v768zM885 1676v-205h-192v205h192zM560 1676v-205h-192v205h192z" />
    <glyph glyph-name="aacute" unicode="&#xe1;" horiz-adv-x="1000" 
d="M952 142v-142q-61 -25 -133 -25q-62 0 -94.5 23.5t-51.5 84.5q-110 -112 -288 -112q-128 0 -214 64q-106 77 -106 212q0 147 118 232q69 49 163 67t310 24v78q0 167 -179 167q-91 0 -127.5 -24t-44.5 -89h-203q16 269 388 269q208 0 307 -111q40 -44 52 -98t12 -187v-356
q0 -53 10 -70.5t39 -17.5q18 0 42 11zM656 454q-135 -6 -212 -24q-78 -18 -121 -61q-49 -49 -49 -114q0 -61 42.5 -96.5t116.5 -35.5q118 0 182 104q41 69 41 152v75zM755 1365l-196 -273h-174l180 273h190z" />
    <glyph glyph-name="agrave" unicode="&#xe0;" horiz-adv-x="1000" 
d="M952 142v-142q-61 -25 -133 -25q-62 0 -94.5 23.5t-51.5 84.5q-110 -112 -288 -112q-128 0 -214 64q-106 77 -106 212q0 147 118 232q69 49 163 67t310 24v78q0 167 -179 167q-91 0 -127.5 -24t-44.5 -89h-203q16 269 388 269q208 0 307 -111q40 -44 52 -98t12 -187v-356
q0 -53 10 -70.5t39 -17.5q18 0 42 11zM656 454q-135 -6 -212 -24q-78 -18 -121 -61q-49 -49 -49 -114q0 -61 42.5 -96.5t116.5 -35.5q118 0 182 104q41 69 41 152v75zM238 1365h190l180 -273h-174z" />
    <glyph glyph-name="acircumflex" unicode="&#xe2;" horiz-adv-x="1000" 
d="M952 142v-142q-61 -25 -133 -25q-62 0 -94.5 23.5t-51.5 84.5q-110 -112 -288 -112q-128 0 -214 64q-106 77 -106 212q0 147 118 232q69 49 163 67t310 24v78q0 167 -179 167q-91 0 -127.5 -24t-44.5 -89h-203q16 269 388 269q208 0 307 -111q40 -44 52 -98t12 -187v-356
q0 -53 10 -70.5t39 -17.5q18 0 42 11zM656 454q-135 -6 -212 -24q-78 -18 -121 -61q-49 -49 -49 -114q0 -61 42.5 -96.5t116.5 -35.5q118 0 182 104q41 69 41 152v75zM771 1092h-179l-89 153l-92 -153h-166l168 273h188z" />
    <glyph glyph-name="adieresis" unicode="&#xe4;" horiz-adv-x="1000" 
d="M952 142v-142q-61 -25 -133 -25q-62 0 -94.5 23.5t-51.5 84.5q-110 -112 -288 -112q-128 0 -214 64q-106 77 -106 212q0 147 118 232q69 49 163 67t310 24v78q0 167 -179 167q-91 0 -127.5 -24t-44.5 -89h-203q16 269 388 269q208 0 307 -111q40 -44 52 -98t12 -187v-356
q0 -53 10 -70.5t39 -17.5q18 0 42 11zM656 454q-135 -6 -212 -24q-78 -18 -121 -61q-49 -49 -49 -114q0 -61 42.5 -96.5t116.5 -35.5q118 0 182 104q41 69 41 152v75zM778 1311v-205h-203v205h203zM422 1311v-205h-192v205h192z" />
    <glyph glyph-name="atilde" unicode="&#xe3;" horiz-adv-x="1000" 
d="M952 142v-142q-61 -25 -133 -25q-62 0 -94.5 23.5t-51.5 84.5q-110 -112 -288 -112q-128 0 -214 64q-106 77 -106 212q0 147 118 232q69 49 163 67t310 24v78q0 167 -179 167q-91 0 -127.5 -24t-44.5 -89h-203q16 269 388 269q208 0 307 -111q40 -44 52 -98t12 -187v-356
q0 -53 10 -70.5t39 -17.5q18 0 42 11zM656 454q-135 -6 -212 -24q-78 -18 -121 -61q-49 -49 -49 -114q0 -61 42.5 -96.5t116.5 -35.5q118 0 182 104q41 69 41 152v75zM803 1365q-10 -76 -31 -125q-53 -122 -162 -122q-52 0 -156 52q-50 26 -72 26q-45 0 -65 -90h-127
q7 66 28 119q25 60 70 94.5t99 34.5q37 0 63 -9.5t119 -57.5q23 -12 42 -12q47 0 63 90h129z" />
    <glyph glyph-name="aring" unicode="&#xe5;" horiz-adv-x="1000" 
d="M952 142v-142q-61 -25 -133 -25q-62 0 -94.5 23.5t-51.5 84.5q-110 -112 -288 -112q-128 0 -214 64q-106 77 -106 212q0 147 118 232q69 49 163 67t310 24v78q0 167 -179 167q-91 0 -127.5 -24t-44.5 -89h-203q16 269 388 269q208 0 307 -111q40 -44 52 -98t12 -187v-356
q0 -53 10 -70.5t39 -17.5q18 0 42 11zM656 454q-135 -6 -212 -24q-78 -18 -121 -61q-49 -49 -49 -114q0 -61 42.5 -96.5t116.5 -35.5q118 0 182 104q41 69 41 152v75zM506 1356q-43 0 -72.5 -29t-29.5 -72q0 -41 29 -70.5t70 -29.5q42 0 71.5 29.5t29.5 70.5q0 42 -29 71.5
t-69 29.5zM507 1447q84 0 144 -56q61 -56 61 -136q0 -77 -60 -133q-61 -57 -148 -57t-147 56q-61 56 -61 134q0 81 61.5 136.5t149.5 55.5z" />
    <glyph glyph-name="ccedilla" unicode="&#xe7;" horiz-adv-x="960" 
d="M504 -29l-29 -79q20 12 45 12q74 0 122 -43.5t48 -109.5q0 -73 -50.5 -117t-133.5 -44q-68 0 -113 30.5t-52 80.5h107q9 -31 56 -31q73 0 73 77q0 37 -19.5 58.5t-53.5 21.5q-41 0 -52 -27h-108l67 179q-90 16 -159 66q-186 133 -186 419q0 222 113 357q125 150 335 150
q162 0 265.5 -87t119.5 -237h-212q-15 75 -61.5 115.5t-118.5 40.5q-115 0 -177 -96q-59 -91 -59 -240q0 -152 63 -243q59 -85 167 -85q82 0 134 50.5t66 143.5h211q-24 -171 -131.5 -266.5t-276.5 -95.5z" />
    <glyph glyph-name="eacute" unicode="&#xe9;" horiz-adv-x="986" 
d="M922 420h-644q2 -89 27 -150q59 -144 212 -144q145 0 177 121h203q-14 -74 -54 -127q-111 -149 -333 -149q-210 0 -331 143q-114 135 -114 347q0 216 117 361q120 149 315 149q198 0 311.5 -147t113.5 -404zM708 561q-6 81 -36 139q-60 115 -177 115q-112 0 -169 -102
q-34 -61 -45 -152h427zM741 1365l-196 -273h-174l180 273h190z" />
    <glyph glyph-name="egrave" unicode="&#xe8;" horiz-adv-x="986" 
d="M922 420h-644q2 -89 27 -150q59 -144 212 -144q145 0 177 121h203q-14 -74 -54 -127q-111 -149 -333 -149q-210 0 -331 143q-114 135 -114 347q0 216 117 361q120 149 315 149q198 0 311.5 -147t113.5 -404zM708 561q-6 81 -36 139q-60 115 -177 115q-112 0 -169 -102
q-34 -61 -45 -152h427zM229 1365h190l180 -273h-174z" />
    <glyph glyph-name="ecircumflex" unicode="&#xea;" horiz-adv-x="986" 
d="M922 420h-644q2 -89 27 -150q59 -144 212 -144q145 0 177 121h203q-14 -74 -54 -127q-111 -149 -333 -149q-210 0 -331 143q-114 135 -114 347q0 216 117 361q120 149 315 149q198 0 311.5 -147t113.5 -404zM708 561q-6 81 -36 139q-60 115 -177 115q-112 0 -169 -102
q-34 -61 -45 -152h427zM757 1090h-179l-89 153l-92 -153h-166l168 273h188z" />
    <glyph glyph-name="edieresis" unicode="&#xeb;" horiz-adv-x="986" 
d="M922 420h-644q2 -89 27 -150q59 -144 212 -144q145 0 177 121h203q-14 -74 -54 -127q-111 -149 -333 -149q-210 0 -331 143q-114 135 -114 347q0 216 117 361q120 149 315 149q198 0 311.5 -147t113.5 -404zM708 561q-6 81 -36 139q-60 115 -177 115q-112 0 -169 -102
q-34 -61 -45 -152h427zM763 1311v-205h-203v205h203zM407 1311v-205h-192v205h192z" />
    <glyph glyph-name="iacute" unicode="&#xed;" horiz-adv-x="531" 
d="M166 0v942h201v-942h-201zM527 1365l-196 -273h-174l180 273h190z" />
    <glyph glyph-name="igrave" unicode="&#xec;" horiz-adv-x="531" 
d="M165 0v942h201v-942h-201zM22 1365h190l180 -273h-174z" />
    <glyph glyph-name="icircumflex" unicode="&#xee;" horiz-adv-x="531" 
d="M165 0v942h201v-942h-201zM529 1092h-179l-89 153l-92 -153h-166l168 273h188z" />
    <glyph glyph-name="idieresis" unicode="&#xef;" horiz-adv-x="531" 
d="M166 0v942h201v-942h-201zM488 1311v-205h-174v205h174zM209 1311v-205h-165v205h165z" />
    <glyph glyph-name="ntilde" unicode="&#xf1;" horiz-adv-x="1044" 
d="M131 0v942h196v-119q101 148 284 148q115 0 198 -62q62 -46 86 -113t24 -194v-602h-201v549q0 109 -16 158q-14 44 -53 69q-42 27 -99 27q-64 0 -115.5 -34t-75.5 -91q-27 -67 -27 -205v-473h-201zM831 1365q-10 -76 -31 -125q-53 -122 -162 -122q-52 0 -156 52
q-50 26 -72 26q-45 0 -65 -90h-127q7 66 28 119q25 60 70 94.5t99 34.5q37 0 63 -9.5t119 -57.5q23 -12 42 -12q47 0 63 90h129z" />
    <glyph glyph-name="oacute" unicode="&#xf3;" horiz-adv-x="1028" 
d="M516 971q205 0 329 -137q120 -133 120 -363q0 -245 -136 -380q-120 -120 -312 -120q-216 0 -337 143q-117 138 -117 364q0 205 110 340q124 153 343 153zM515 803q-111 0 -177 -85q-70 -91 -70 -242q0 -165 69 -253q66 -84 180 -84q104 0 167 74q76 90 76 260
q0 157 -67 244q-67 86 -178 86zM770 1365l-196 -273h-174l180 273h190z" />
    <glyph glyph-name="ograve" unicode="&#xf2;" horiz-adv-x="1028" 
d="M516 971q205 0 329 -137q120 -133 120 -363q0 -245 -136 -380q-120 -120 -312 -120q-216 0 -337 143q-117 138 -117 364q0 205 110 340q124 153 343 153zM515 803q-111 0 -177 -85q-70 -91 -70 -242q0 -165 69 -253q66 -84 180 -84q104 0 167 74q76 90 76 260
q0 157 -67 244q-67 86 -178 86zM267 1365h190l180 -273h-174z" />
    <glyph glyph-name="ocircumflex" unicode="&#xf4;" horiz-adv-x="1028" 
d="M516 971q205 0 329 -137q120 -133 120 -363q0 -245 -136 -380q-120 -120 -312 -120q-216 0 -337 143q-117 138 -117 364q0 205 110 340q124 153 343 153zM515 803q-111 0 -177 -85q-70 -91 -70 -242q0 -165 69 -253q66 -84 180 -84q104 0 167 74q76 90 76 260
q0 157 -67 244q-67 86 -178 86zM777 1092h-179l-89 153l-92 -153h-166l168 273h188z" />
    <glyph glyph-name="odieresis" unicode="&#xf6;" horiz-adv-x="1028" 
d="M516 971q205 0 329 -137q120 -133 120 -363q0 -245 -136 -380q-120 -120 -312 -120q-216 0 -337 143q-117 138 -117 364q0 205 110 340q124 153 343 153zM515 803q-111 0 -177 -85q-70 -91 -70 -242q0 -165 69 -253q66 -84 180 -84q104 0 167 74q76 90 76 260
q0 157 -67 244q-67 86 -178 86zM789 1311v-205h-203v205h203zM433 1311v-205h-192v205h192z" />
    <glyph glyph-name="otilde" unicode="&#xf5;" horiz-adv-x="1028" 
d="M516 971q205 0 329 -137q120 -133 120 -363q0 -245 -136 -380q-120 -120 -312 -120q-216 0 -337 143q-117 138 -117 364q0 205 110 340q124 153 343 153zM515 803q-111 0 -177 -85q-70 -91 -70 -242q0 -165 69 -253q66 -84 180 -84q104 0 167 74q76 90 76 260
q0 157 -67 244q-67 86 -178 86zM821 1365q-10 -76 -31 -125q-53 -122 -162 -122q-52 0 -156 52q-50 26 -72 26q-45 0 -65 -90h-127q7 66 28 119q25 60 70 94.5t99 34.5q37 0 63 -9.5t119 -57.5q23 -12 42 -12q47 0 63 90h129z" />
    <glyph glyph-name="uacute" unicode="&#xfa;" horiz-adv-x="1044" 
d="M913 0h-189v119q-104 -148 -287 -148q-189 0 -267 132q-25 44 -35 95t-10 142v602h201v-549q0 -108 16 -158q14 -44 52 -69q42 -27 100 -27q64 0 115.5 34t75.5 91q27 67 27 205v473h201v-942zM783 1365l-196 -273h-174l180 273h190z" />
    <glyph glyph-name="ugrave" unicode="&#xf9;" horiz-adv-x="1044" 
d="M913 0h-189v119q-104 -148 -287 -148q-189 0 -267 132q-25 44 -35 95t-10 142v602h201v-549q0 -108 16 -158q14 -44 52 -69q42 -27 100 -27q64 0 115.5 34t75.5 91q27 67 27 205v473h201v-942zM262 1365h190l180 -273h-174z" />
    <glyph glyph-name="ucircumflex" unicode="&#xfb;" horiz-adv-x="1044" 
d="M913 0h-189v119q-104 -148 -287 -148q-189 0 -267 132q-25 44 -35 95t-10 142v602h201v-549q0 -108 16 -158q14 -44 52 -69q42 -27 100 -27q64 0 115.5 34t75.5 91q27 67 27 205v473h201v-942zM782 1092h-179l-89 153l-92 -153h-166l168 273h188z" />
    <glyph glyph-name="udieresis" unicode="&#xfc;" horiz-adv-x="1044" 
d="M913 0h-189v119q-104 -148 -287 -148q-189 0 -267 132q-25 44 -35 95t-10 142v602h201v-549q0 -108 16 -158q14 -44 52 -69q42 -27 100 -27q64 0 115.5 34t75.5 91q27 67 27 205v473h201v-942zM798 1311v-205h-203v205h203zM442 1311v-205h-192v205h192z" />
    <glyph glyph-name="dagger" unicode="&#x2020;" horiz-adv-x="1025" 
d="M909 981v-190h-298v-1156h-201v1156h-294v190h294v384h201v-384h298z" />
    <glyph glyph-name="degree" unicode="&#xb0;" horiz-adv-x="1167" 
d="M583 1365q125 0 214 -86q88 -86 88 -209q0 -122 -87 -208q-89 -88 -214 -88q-126 0 -214 88q-88 86 -88 212q0 120 88 204q91 87 213 87zM583 1235q-66 0 -114 -48t-48 -115q0 -71 47 -119q48 -49 116 -49q67 0 114.5 49t47.5 117t-47.5 116.5t-115.5 48.5z" />
    <glyph glyph-name="cent" unicode="&#xa2;" horiz-adv-x="983" 
d="M434 1324h141v-139q136 -21 216 -103.5t94 -215.5h-201q-18 104 -109 145v-642q102 41 123 182h199q-23 -171 -129 -268q-79 -72 -193 -89v-153h-141v154q-100 15 -172 68q-178 134 -178 419q0 299 189 433q70 49 161 67v142zM434 1006q-145 -68 -145 -320t145 -315v635z
" />
    <glyph glyph-name="sterling" unicode="&#xa3;" horiz-adv-x="901" 
d="M107 -27l-93 124q100 82 154.5 184t54.5 207q0 28 -7 67h-191v168h126q-11 18 -33 52q-82 126 -82 248q0 168 123 276q107 93 276 93q264 0 363 -181q47 -85 50 -198h-205q-3 99 -57 153t-152 54q-92 0 -138 -57q-50 -64 -50 -150q0 -48 17.5 -94t63.5 -119
q28 -44 48 -77h296v-168h-236q3 -28 3 -46q0 -90 -42 -164.5t-151 -177.5q111 72 181 72q36 0 94 -36q36 -23 65 -23q82 0 92 144h196q-8 -155 -63 -244q-66 -109 -194 -109q-68 0 -166 44q-78 35 -128 35q-47 0 -93 -16.5t-122 -60.5z" />
    <glyph glyph-name="section" unicode="&#xa7;" horiz-adv-x="1033" 
d="M849 1057h-183q-10 167 -144 167q-59 0 -95.5 -37t-36.5 -97q0 -56 31 -93t132 -102q195 -125 259 -179q122 -103 122 -249q0 -98 -44.5 -174.5t-124.5 -117.5q50 -53 70 -102t20 -118q0 -144 -101 -240q-89 -84 -232 -84q-160 0 -252 93.5t-96 261.5h185
q16 -179 164 -179q63 0 101 39t38 103q0 69 -53.5 121t-260.5 184q-132 84 -181 146q-69 87 -69 214q0 98 46 171t126 103q-72 88 -72 195q0 123 74 208q93 105 252 105q120 0 204 -65q56 -44 88 -117t33 -162v5zM369 782q-44 -20 -69.5 -60.5t-25.5 -90.5q0 -65 44 -110
t215 -158q45 -29 67 -46q41 -31 59 -41q40 17 67.5 63.5t27.5 95.5q0 67 -54 118t-265 184l-51 35z" />
    <glyph glyph-name="bullet" unicode="&#x2022;" horiz-adv-x="740" 
d="M173 521v394h395v-394h-395z" />
    <glyph glyph-name="paragraph" unicode="&#xb6;" horiz-adv-x="1288" 
d="M504 -232v885q-18 -1 -26 -1q-133 0 -222 80q-109 96 -109 271q0 103 40.5 183.5t113.5 124.5q90 54 266 54h481v-115h-93v-1482h-161v1482h-129v-1482h-161z" />
    <glyph glyph-name="germandbls" unicode="&#xdf;" horiz-adv-x="992" 
d="M318 0h-201v786h-124v156h124q2 140 22 213t71 129q103 112 284 112q150 0 246 -81q96 -82 96 -202q0 -60 -22.5 -102.5t-96.5 -120.5q-57 -60 -57 -111q0 -40 21.5 -75.5t79.5 -90.5q92 -88 129.5 -156t37.5 -150q0 -145 -109.5 -236t-284.5 -91q-68 0 -128 20v171
q66 -27 131 -27q86 0 136 43.5t50 118.5q0 62 -27.5 112.5t-108.5 135.5q-65 69 -90.5 114t-25.5 90q0 39 17 75t67 100q44 57 60 92.5t16 74.5q0 57 -41.5 92.5t-107.5 35.5q-97 0 -139 -84q-25 -49 -25 -200v-944z" />
    <glyph glyph-name="registered" unicode="&#xae;" horiz-adv-x="1469" 
d="M743 1268q-218 0 -368 -168q-70 -77 -110 -182q-44 -114 -44 -237q0 -114 39.5 -222.5t110.5 -189.5q149 -171 363 -171q217 0 368 175q147 171 147 408q0 245 -150 416q-65 74 -147 117q-102 54 -209 54zM744 1386q181 0 338 -113q144 -104 222 -273q68 -151 68 -319
q0 -285 -183 -491q-186 -210 -456 -210q-265 0 -449 205q-85 94 -134 218q-53 135 -53 277q0 204 99 379q92 162 249 250q138 77 299 77zM452 273v819h312q121 0 185 -54q77 -66 77 -179q0 -127 -107 -193q55 -34 72 -79.5t26 -184.5q6 -83 42 -129h-170q-15 28 -18.5 47.5
t-7.5 82.5q-9 134 -36 165q-29 32 -111 32h-104v-327h-160zM612 729h103q81 0 109 19q42 29 42 96q0 60 -31.5 85.5t-104.5 25.5h-118v-226z" />
    <glyph glyph-name="copyright" unicode="&#xa9;" horiz-adv-x="1469" 
d="M887 604h157q-9 -143 -72 -229q-87 -120 -238 -120q-150 0 -239 110q-97 120 -97 316q0 169 79 287q95 143 262 143q126 0 209 -82.5t92 -216.5h-157q-27 160 -147 160q-82 0 -126 -73q-52 -87 -52 -217q0 -132 48 -210t128 -78q130 0 153 210zM743 1268
q-218 0 -368 -168q-70 -77 -110 -182q-44 -114 -44 -237q0 -113 39.5 -222t110.5 -190q149 -171 363 -171q217 0 368 175q147 171 147 408q0 245 -150 416q-65 74 -147 117q-102 54 -209 54zM744 1386q181 0 338 -113q144 -104 222 -273q68 -151 68 -319q0 -285 -183 -491
q-186 -210 -456 -210q-265 0 -449 205q-85 94 -134 218q-53 135 -53 277q0 204 99 379q92 162 249 250q138 77 299 77z" />
    <glyph glyph-name="trademark" unicode="&#x2122;" horiz-adv-x="1493" 
d="M230 546v680h-210v139h579v-139h-209v-680h-160zM669 546v819h202l170 -581l164 581h202v-819h-150v539l-149 -539h-133l-156 536v-536h-150z" />
    <glyph glyph-name="acute" unicode="&#xb4;" horiz-adv-x="982" 
d="M754 1365l-196 -273h-174l180 273h190z" />
    <glyph glyph-name="dieresis" unicode="&#xa8;" horiz-adv-x="982" 
d="M769 1311v-205h-203v205h203zM413 1311v-205h-192v205h192z" />
    <glyph glyph-name="notequal" unicode="&#x2260;" horiz-adv-x="1065" 
d="M373 238l-151 87l62 107h-222v173h322l97 169h-419v173h520l111 194l151 -87l-62 -107h222v-173h-322l-97 -169h419v-173h-519z" />
    <glyph glyph-name="AE" unicode="&#xc6;" horiz-adv-x="1635" 
d="M701 366h-298l-145 -366h-234l569 1365h917v-193h-598v-370h553v-193h-553v-416h608v-193h-819v366zM701 546v567l-226 -567h226z" />
    <glyph glyph-name="Oslash" unicode="&#xd8;" horiz-adv-x="1320" 
d="M320 -33h-178l117 196q-156 201 -156 519q0 327 160 524q156 191 398 191q158 0 288 -89l53 89h176l-118 -197q157 -202 157 -517q0 -283 -126 -479q-75 -116 -191 -178q-109 -59 -239 -59q-157 0 -288 88zM836 1139q-80 65 -176 65q-150 0 -239 -139q-93 -145 -93 -378
q0 -187 59 -329zM487 224q83 -64 176 -64q67 0 127.5 33t99.5 91q102 150 102 400q0 184 -60 320z" />
    <glyph glyph-name="infinity" unicode="&#x221e;" horiz-adv-x="1404" 
d="M705 597q-51 -68 -92 -109q-106 -106 -248 -106t-230 98q-78 87 -78 220q0 135 84 221q89 90 224 90q183 0 334 -215q47 66 92 109q110 105 248 105q148 0 236 -103q72 -85 72 -212q0 -138 -85 -224q-88 -89 -223 -89q-97 0 -174.5 50t-159.5 165zM776 697
q64 -99 120.5 -141t124.5 -42q75 0 124 51.5t49 130.5q0 86 -58 137q-49 44 -117 44q-124 0 -243 -180zM628 696q-63 97 -120.5 139.5t-126.5 42.5q-75 0 -123 -51t-48 -131q0 -87 57 -138q49 -43 118 -43q67 0 121.5 40t121.5 141z" />
    <glyph glyph-name="plusminus" unicode="&#xb1;" horiz-adv-x="1065" 
d="M61 803h381v355h181v-355h380v-173h-380v-354h-188v347h-374v180zM61 173h942v-173h-942v173z" />
    <glyph glyph-name="lessequal" unicode="&#x2264;" horiz-adv-x="1081" 
d="M984 1137v-205l-648 -239l648 -238v-205l-887 351v186zM984 192v-192h-887v192h887z" />
    <glyph glyph-name="greaterequal" unicode="&#x2265;" horiz-adv-x="1081" 
d="M97 1137l887 -350v-187l-887 -350v205l648 238l-648 239v205zM97 192h887v-192h-887v192z" />
    <glyph glyph-name="yen" unicode="&#xa5;" horiz-adv-x="1106" 
d="M659 0h-209v272h-240v145h240v101h-240v145h237l-367 702h242l236 -483l233 483h234l-362 -702h232v-145h-236v-101h236v-145h-236v-272z" />
    <glyph glyph-name="mu" unicode="&#xb5;" horiz-adv-x="1058" 
d="M356 -355h-201v1297h201v-549q0 -108 14 -158q13 -44 48.5 -70t85.5 -26q57 0 102.5 34t66.5 91q24 67 24 205v473h201v-942h-189v119q-96 -148 -251 -148q-56 0 -102 28v-354z" />
    <glyph glyph-name="partialdiff" unicode="&#x2202;" horiz-adv-x="1043" 
d="M638 940q-80 124 -149 195t-178 141l72 118q161 -76 299 -233q108 -121 183 -295q82 -188 82 -392q0 -246 -128 -383q-112 -120 -296 -120q-202 0 -317 143q-110 137 -110 357q0 213 103 347q56 72 137 112.5t170 40.5q66 0 132 -31zM522 803q-100 0 -158 -85
q-63 -92 -63 -242q0 -163 62 -253q58 -84 161 -84q94 0 149 74q69 92 69 261q0 156 -60 243q-60 86 -160 86z" />
    <glyph glyph-name="summation" unicode="&#x2211;" horiz-adv-x="1434" 
d="M1271 1536v-489h-189l-21 297h-730l505 -795l-504 -870h748l12 302h198v-493h-1191v221l491 839l-491 769v219h1172z" />
    <glyph glyph-name="product" unicode="&#x220f;" horiz-adv-x="1411" 
d="M72 1536h1268v-168h-150v-1712h150v-168h-485v168h148v1712h-594v-1712h145v-168h-482v168h151v1712h-151v168z" />
    <glyph glyph-name="_002" horiz-adv-x="531" 
 />
    <glyph glyph-name="integral" unicode="&#x222b;" horiz-adv-x="1137" 
d="M217 -491l39 196q47 -21 82 -21q83 0 107 63q13 33 13 205v1083q0 238 18 308q24 88 104 140.5t192 52.5q52 0 148 -22l-39 -195q-48 21 -85 21q-73 0 -99 -54q-17 -36 -17 -151v-1201q0 -166 -13 -228t-58 -113q-93 -104 -287 -104q-36 0 -81 14q-15 4 -24 6z" />
    <glyph glyph-name="ordfeminine" unicode="&#xaa;" horiz-adv-x="587" 
d="M563 663v-106q-45 -25 -90 -25q-58 0 -85 51q-67 -54 -154 -54q-85 0 -138.5 48.5t-53.5 125.5q0 64 37.5 112t101.5 67q61 18 190 21v33q0 82 -85 82q-44 0 -63 -16.5t-24 -56.5h-139q11 191 232 191q122 0 181 -69q24 -28 31.5 -61t7.5 -113v-207q0 -24 3.5 -30.5
t16.5 -6.5q12 0 31 14zM371 808q-60 -3 -98 -12q-81 -20 -81 -88q0 -63 72 -63q45 0 76 39t31 95v29z" />
    <glyph glyph-name="ordmasculine" unicode="&#xba;" horiz-adv-x="614" 
d="M308 1137q120 0 193 -84q70 -81 70 -220q0 -148 -79 -230q-71 -74 -184 -74q-126 0 -198 88q-68 83 -68 220q0 124 64 206q73 94 202 94zM307 1012q-54 0 -85.5 -47.5t-31.5 -128.5q0 -87 31 -134.5t87 -47.5q54 0 84.5 48t30.5 132q0 83 -31 130.5t-85 47.5z" />
    <glyph glyph-name="Omega" unicode="&#x2126;" horiz-adv-x="1320" 
d="M116 0v181h191q-204 203 -204 554q0 303 183 496q155 165 372 165q225 0 382 -169q177 -189 177 -494q0 -350 -204 -552h191v-181h-458v168q96 71 150 165q96 169 96 377q0 216 -106 363q-91 128 -224 128q-136 0 -229 -127q-105 -145 -105 -366q0 -178 62 -314.5
t184 -225.5v-168h-458z" />
    <glyph glyph-name="ae" unicode="&#xe6;" horiz-adv-x="1491" 
d="M1447 427h-630q3 -92 27 -153q56 -147 202 -147q71 0 111 27.5t63 91.5h201q-15 -74 -51 -125q-108 -150 -327 -150q-112 0 -190.5 41t-141.5 132q-80 -92 -159.5 -132.5t-180.5 -40.5q-127 0 -218 64q-108 75 -108 212q0 100 60.5 174t165.5 104q103 29 351 36v87
q0 86 -41.5 126t-131.5 40q-82 0 -119 -25.5t-44 -86.5h-205q7 128 99 197q96 72 250 72q234 0 329 -122q114 122 279 122q190 0 299.5 -145.5t109.5 -398.5zM622 434q-132 -5 -204 -22q-79 -17 -121.5 -58.5t-42.5 -99.5q0 -60 41 -95t111 -35q114 0 176 104q40 68 40 151
v55zM1233 561q-5 81 -35 139q-58 115 -171 115q-86 0 -139 -65.5t-68 -188.5h413z" />
    <glyph glyph-name="oslash" unicode="&#xf8;" horiz-adv-x="1019" 
d="M231 -29h-187l119 159q-105 139 -105 342q0 211 110 346q125 153 343 153q130 0 236 -60l45 60h183l-118 -158q103 -132 103 -343q0 -243 -135 -379q-121 -120 -312 -120q-132 0 -238 59zM627 767q-58 36 -117 36q-106 0 -168 -85q-67 -91 -67 -246q0 -91 25 -171z
M394 173q62 -34 121 -34q104 0 165 74q75 92 75 251q0 97 -36 176z" />
    <glyph glyph-name="questiondown" unicode="&#xbf;" horiz-adv-x="983" 
d="M882 14q0 -7 -1 -19q-7 -158 -90 -249q-103 -115 -277 -115q-173 0 -279 108q-102 103 -102 268q0 95 39 161t152 162q44 37 60.5 62t27.5 67q9 36 10 96v12h183q1 -85 -9 -141q-12 -63 -37 -99t-128 -135q-48 -47 -67.5 -88t-19.5 -95q0 -85 47 -136.5t124 -51.5
q165 0 173 193h194zM636 942v-246h-246v246h246z" />
    <glyph glyph-name="exclamdown" unicode="&#xa1;" horiz-adv-x="672" 
d="M230 -355v394l57 526h106l50 -524v-396h-213zM459 942v-246h-246v246h246z" />
    <glyph glyph-name="logicalnot" unicode="&#xac;" horiz-adv-x="1081" 
d="M771 207v387h-674v192h887v-579h-213z" />
    <glyph glyph-name="radical" unicode="&#x221a;" horiz-adv-x="1382" 
d="M1373 1693v-173h-376l-429 -1520h-235l-155 573h-170v173h291l76 -261q9 -32 52 -251l6 -31h11q43 202 69.5 306t108.5 395l222 789h529z" />
    <glyph glyph-name="florin" unicode="&#x192;" horiz-adv-x="628" 
d="M240 -218h-203l141 1004h-116v156h138l18 129q23 166 81 232q80 93 225 93q38 0 104 -13l-24 -168q-41 13 -69 13q-55 0 -79.5 -34t-37.5 -127l-17 -125h149v-156h-171z" />
    <glyph glyph-name="approxequal" unicode="&#x2248;" horiz-adv-x="1052" 
d="M145 713l-111 77q42 91 83 142q86 107 204 107q73 0 227 -74q136 -65 190 -65q49 0 87.5 30t81.5 101l111 -77q-45 -99 -89 -152q-83 -99 -196 -99q-40 0 -83.5 14.5t-138.5 58.5q-142 66 -198 66q-48 0 -86 -29.5t-82 -99.5zM145 326l-111 77q42 92 83 143
q86 107 205 107q72 0 226 -73q88 -42 121.5 -53.5t68.5 -11.5q49 0 87.5 29.5t81.5 100.5l111 -77q-45 -99 -89 -153q-83 -99 -196 -99q-40 0 -83 14t-139 60q-141 65 -198 65q-48 0 -86 -29.5t-82 -99.5z" />
    <glyph glyph-name="Delta" unicode="&#x2206;" 
d="M462 1365h235l438 -1365h-1113zM578 1098l-272 -918h540z" />
    <glyph glyph-name="guillemotleft" unicode="&#xab;" horiz-adv-x="845" 
d="M696 859v-208l-152 -139l152 -142v-207l-259 243v209zM385 858v-204l-155 -140l155 -143v-210l-262 248v206z" />
    <glyph glyph-name="guillemotright" unicode="&#xbb;" horiz-adv-x="845" 
d="M460 859l262 -250v-206l-262 -243v205l155 139l-155 145v210zM149 856l258 -244v-206l-258 -243v204l152 139l-152 142v208z" />
    <glyph glyph-name="ellipsis" unicode="&#x2026;" horiz-adv-x="1597" 
d="M422 246v-246h-246v246h246zM922 246v-246h-246v246h246zM1421 246v-246h-246v246h246z" />
    <glyph glyph-name="_003" horiz-adv-x="1006" 
 />
    <glyph glyph-name="Agrave" unicode="&#xc0;" 
d="M462 1365h235l438 -1365h-236l-107 366h-431l-108 -366h-231zM414 546h325l-161 552zM331 1734h187l169 -259h-171z" />
    <glyph glyph-name="Atilde" unicode="&#xc3;" 
d="M462 1365h235l438 -1365h-236l-107 366h-431l-108 -366h-231zM414 546h325l-161 552zM770 1713h116q-36 -232 -190 -232q-57 0 -162 61q-52 30 -78 30q-53 0 -71 -91h-115q34 232 196 232q37 0 66 -11t87 -47q48 -30 76 -30q53 0 75 88z" />
    <glyph glyph-name="Otilde" unicode="&#xd5;" horiz-adv-x="1320" 
d="M662 1396q238 0 391 -186q164 -202 164 -527q0 -284 -126 -479q-75 -116 -191 -178q-109 -59 -238 -59q-279 0 -436 241q-123 189 -123 484q0 320 160 513q158 191 399 191zM660 1204q-150 0 -239 -139q-93 -145 -93 -371q0 -237 84 -383q40 -70 108 -111t144 -41
q66 0 126.5 33t99.5 91q102 151 102 401q0 233 -90 377q-89 143 -242 143zM852 1713h116q-36 -232 -190 -232q-57 0 -162 61q-52 30 -78 30q-53 0 -71 -91h-115q34 232 196 232q37 0 66 -11t87 -47q48 -30 76 -30q53 0 75 88z" />
    <glyph glyph-name="OE" unicode="&#x152;" horiz-adv-x="1849" 
d="M929 1237v128h796v-193h-591v-370h546v-193h-546v-416h601v-193h-806v126q-125 -159 -310 -159q-164 0 -298 121q-218 197 -218 595q0 325 152 523q75 96 179 147q91 44 189 44q186 0 306 -160zM633 1204q-138 0 -220 -139q-85 -145 -85 -370q0 -237 77 -383
q36 -70 99 -111t132 -41q61 0 116.5 33t91.5 91q93 151 93 401q0 232 -83 377q-81 142 -221 142z" />
    <glyph glyph-name="oe" unicode="&#x153;" horiz-adv-x="1533" 
d="M1490 420h-630q3 -90 27 -150q57 -144 203 -144q142 0 173 122h202q-15 -77 -52 -126q-115 -151 -326 -151q-198 0 -311 150q-114 -150 -306 -150q-200 0 -316 142q-111 138 -111 359q0 210 104 346q117 153 324 153q196 0 308 -155q115 155 297 155q192 0 303 -148
t111 -403zM467 803q-99 0 -157 -85q-62 -91 -62 -241q0 -164 61 -254q57 -84 160 -84q93 0 147 74q68 92 68 261q0 155 -60 243q-58 86 -157 86zM1276 561q-5 81 -35 139q-58 115 -170 115q-86 0 -139.5 -65.5t-68.5 -188.5h413z" />
    <glyph glyph-name="endash" unicode="&#x2013;" horiz-adv-x="1043" 
d="M891 611v-197h-739v197h739z" />
    <glyph glyph-name="emdash" unicode="&#x2014;" horiz-adv-x="1529" 
d="M1374 611v-197h-1214v197h1214z" />
    <glyph glyph-name="quotedblleft" unicode="&#x201c;" horiz-adv-x="925" 
d="M749 853h-246v171q0 111 21 175t73 111q59 54 152 76v-119q-107 -27 -111 -168h111v-246zM422 853h-246v171q0 111 21 175t73 111q59 54 152 76v-119q-107 -27 -111 -168h111v-246z" />
    <glyph glyph-name="quotedblright" unicode="&#x201d;" horiz-adv-x="925" 
d="M176 1365h246v-171q0 -111 -21 -175t-73 -111q-59 -54 -152 -76v119q107 27 111 168h-111v246zM503 1365h246v-171q0 -111 -21 -175t-73 -111q-59 -54 -152 -76v119q107 27 111 168h-111v246z" />
    <glyph glyph-name="quoteleft" unicode="&#x2018;" horiz-adv-x="598" 
d="M176 853v171q0 111 21 175t73 111q59 54 152 76v-119q-107 -27 -111 -168h111v-246h-246z" />
    <glyph glyph-name="quoteright" unicode="&#x2019;" horiz-adv-x="598" 
d="M422 1365v-171q0 -111 -21 -175t-73 -111q-59 -54 -152 -76v119q107 27 111 168h-111v246h246z" />
    <glyph glyph-name="divide" unicode="&#xf7;" horiz-adv-x="1065" 
d="M626 1131v-215h-187v215h187zM626 463v-215h-187v215h187zM61 776h942v-173h-942v173z" />
    <glyph glyph-name="lozenge" unicode="&#x25ca;" horiz-adv-x="1472" 
d="M736 1419l532 -736l-532 -736l-532 736zM736 1237l-404 -554l404 -555l403 555z" />
    <glyph glyph-name="ydieresis" unicode="&#xff;" horiz-adv-x="931" 
d="M110 -344v172q75 -13 106 -13q65 0 96 67q41 84 51 139l-341 921h232l221 -689l212 689h222l-324 -922q-77 -219 -126 -281q-74 -94 -208 -94q-55 0 -141 11zM754 1311v-205h-203v205h203zM398 1311v-205h-192v205h192z" />
    <glyph glyph-name="Ydieresis" unicode="&#x178;" horiz-adv-x="1068" 
d="M423 0v545l-428 820h253l291 -597l288 597h245l-424 -822v-543h-225zM803 1676v-205h-192v205h192zM478 1676v-205h-192v205h192z" />
    <glyph glyph-name="fraction" unicode="&#x2044;" horiz-adv-x="532" 
d="M37 0h-161l623 1365h158z" />
    <glyph glyph-name="Euro" unicode="&#x20ac;" horiz-adv-x="1215" 
d="M203 490h-152l55 145h82v41q0 12 1 54h-138l55 145h98q28 154 89 258q77 134 184.5 197.5t257.5 63.5q194 0 371 -125l-70 -183q-83 68 -149.5 95.5t-147.5 27.5q-134 0 -215 -82.5t-112 -251.5h536l-56 -145h-496v-48v-47h460l-55 -145h-389q14 -77 40 -136
q40 -92 96 -139q70 -59 188 -59q73 0 128.5 23.5t131.5 85.5l119 -122q-55 -52 -92 -77q-138 -95 -315 -95q-307 0 -446 311q-40 91 -59 208z" />
    <glyph glyph-name="guilsinglleft" unicode="&#x2039;" horiz-adv-x="530" 
d="M381 857v-206l-152 -138l152 -142v-209l-258 246v208z" />
    <glyph glyph-name="guilsinglright" unicode="&#x203a;" horiz-adv-x="529" 
d="M149 857l257 -244v-211l-257 -240v205l152 140l-152 141v209z" />
    <glyph glyph-name="daggerdbl" unicode="&#x2021;" horiz-adv-x="1025" 
d="M909 977v-187h-298v-581h298v-187h-298v-387h-201v387h-294v187h294v581h-294v187h294v388h201v-388h298z" />
    <glyph glyph-name="periodcentered" unicode="&#xb7;" horiz-adv-x="598" 
d="M422 601v-246h-246v246h246z" />
    <glyph glyph-name="quotesinglbase" unicode="&#x201a;" horiz-adv-x="598" 
d="M176 246h246v-171q0 -111 -21 -175t-73 -111q-59 -54 -152 -76v119q107 27 111 168h-111v246z" />
    <glyph glyph-name="quotedblbase" unicode="&#x201e;" horiz-adv-x="925" 
d="M176 246h246v-171q0 -111 -21 -175t-73 -111q-59 -54 -152 -76v119q107 27 111 168h-111v246zM503 246h246v-171q0 -111 -21 -175t-73 -111q-59 -54 -152 -76v119q107 27 111 168h-111v246z" />
    <glyph glyph-name="perthousand" unicode="&#x2030;" horiz-adv-x="2571" 
d="M390 1383q147 0 241 -113q100 -120 100 -314q0 -169 -77 -285q-94 -144 -264 -144q-171 0 -268 146q-75 113 -75 288q0 191 98 307q97 115 245 115zM389 1244q-81 0 -129 -74q-53 -81 -53 -208q0 -134 47 -215q22 -37 59 -59t78 -22q82 0 131 79t49 212q0 131 -51 211
q-49 76 -131 76zM674 0h-145l588 1365h141zM1399 837q147 0 241 -113q100 -120 100 -314q0 -169 -77 -285q-94 -144 -264 -144q-171 0 -268 146q-75 113 -75 288q0 191 98 307q97 115 245 115zM1398 698q-81 0 -129 -74q-53 -81 -53 -208q0 -134 47 -215q22 -37 59 -59
t78 -22q82 0 131 79t49 212q0 131 -51 211q-48 76 -131 76zM2184 837q147 0 241 -113q100 -120 100 -314q0 -169 -77 -285q-94 -144 -264 -144q-172 0 -269 146q-75 113 -75 288q0 191 98 307q97 115 246 115zM2183 698q-81 0 -130 -74q-53 -81 -53 -208q0 -134 47 -215
q48 -81 138 -81q82 0 131 79.5t49 211.5q0 130 -51 211q-49 76 -131 76z" />
    <glyph glyph-name="Acircumflex" unicode="&#xc2;" 
d="M462 1365h235l438 -1365h-236l-107 366h-431l-108 -366h-231zM414 546h325l-161 552zM859 1475h-180l-101 148l-100 -148h-180l183 259h194z" />
    <glyph glyph-name="Ecircumflex" unicode="&#xca;" horiz-adv-x="1118" 
d="M171 0v1365h823v-193h-598v-370h553v-193h-553v-416h608v-193h-833zM866 1475h-180l-101 148l-100 -148h-180l183 259h194z" />
    <glyph glyph-name="Aacute" unicode="&#xc1;" 
d="M462 1365h235l438 -1365h-236l-107 366h-431l-108 -366h-231zM414 546h325l-161 552zM810 1734l-185 -259h-171l170 259h186z" />
    <glyph glyph-name="Edieresis" unicode="&#xcb;" horiz-adv-x="1118" 
d="M171 0v1365h823v-193h-598v-370h553v-193h-553v-416h608v-193h-833zM839 1676v-205h-192v205h192zM514 1676v-205h-192v205h192z" />
    <glyph glyph-name="Egrave" unicode="&#xc8;" horiz-adv-x="1118" 
d="M171 0v1365h823v-193h-598v-370h553v-193h-553v-416h608v-193h-833zM320 1734h187l169 -259h-171z" />
    <glyph glyph-name="Iacute" unicode="&#xcd;" horiz-adv-x="566" 
d="M171 0v1365h225v-1365h-225zM528 1734l-185 -259h-171l170 259h186z" />
    <glyph glyph-name="Icircumflex" unicode="&#xce;" horiz-adv-x="566" 
d="M171 0v1365h225v-1365h-225zM564 1475h-180l-101 148l-100 -148h-180l183 259h194z" />
    <glyph glyph-name="Idieresis" unicode="&#xcf;" horiz-adv-x="566" 
d="M171 0v1365h225v-1365h-225zM538 1676v-205h-192v205h192zM227 1676v-205h-192v205h192z" />
    <glyph glyph-name="Igrave" unicode="&#xcc;" horiz-adv-x="566" 
d="M170 0v1365h225v-1365h-225zM26 1734h187l169 -259h-171z" />
    <glyph glyph-name="Oacute" unicode="&#xd3;" horiz-adv-x="1320" 
d="M662 1396q238 0 391 -186q164 -202 164 -527q0 -284 -126 -479q-75 -116 -191 -178q-109 -59 -238 -59q-279 0 -436 241q-123 189 -123 484q0 320 160 513q158 191 399 191zM660 1204q-150 0 -239 -139q-93 -145 -93 -371q0 -237 84 -383q40 -70 108 -111t144 -41
q66 0 126.5 33t99.5 91q102 151 102 401q0 233 -90 377q-89 143 -242 143zM909 1734l-185 -259h-171l170 259h186z" />
    <glyph glyph-name="Ocircumflex" unicode="&#xd4;" horiz-adv-x="1320" 
d="M662 1396q238 0 391 -186q164 -202 164 -527q0 -284 -126 -479q-75 -116 -191 -178q-109 -59 -238 -59q-279 0 -436 241q-123 189 -123 484q0 320 160 513q158 191 399 191zM660 1204q-150 0 -239 -139q-93 -145 -93 -371q0 -237 84 -383q40 -70 108 -111t144 -41
q66 0 126.5 33t99.5 91q102 151 102 401q0 233 -90 377q-89 143 -242 143zM941 1475h-180l-101 148l-100 -148h-180l183 259h194z" />
    <glyph glyph-name="_004" horiz-adv-x="531" 
 />
    <glyph glyph-name="Ograve" unicode="&#xd2;" horiz-adv-x="1320" 
d="M662 1396q238 0 391 -186q164 -202 164 -527q0 -284 -126 -479q-75 -116 -191 -178q-109 -59 -238 -59q-279 0 -436 241q-123 189 -123 484q0 320 160 513q158 191 399 191zM660 1204q-150 0 -239 -139q-93 -145 -93 -371q0 -237 84 -383q40 -70 108 -111t144 -41
q66 0 126.5 33t99.5 91q102 151 102 401q0 233 -90 377q-89 143 -242 143zM387 1734h187l169 -259h-171z" />
    <glyph glyph-name="Uacute" unicode="&#xda;" horiz-adv-x="1258" 
d="M149 1365h225v-781q0 -129 11.5 -199t40.5 -119q63 -107 207 -107q141 0 195.5 93t54.5 332v781h225v-772q0 -171 -18 -256q-81 -370 -461 -370q-278 0 -400 205q-44 74 -62 169t-18 256v768zM860 1734l-185 -259h-171l170 259h186z" />
    <glyph glyph-name="Ucircumflex" unicode="&#xdb;" horiz-adv-x="1258" 
d="M149 1365h225v-781q0 -129 11.5 -199t40.5 -119q63 -107 207 -107q141 0 195.5 93t54.5 332v781h225v-772q0 -171 -18 -256q-81 -370 -461 -370q-278 0 -400 205q-44 74 -62 169t-18 256v768zM908 1475h-180l-101 148l-100 -148h-180l183 259h194z" />
    <glyph glyph-name="Ugrave" unicode="&#xd9;" horiz-adv-x="1258" 
d="M149 1365h225v-781q0 -129 11.5 -199t40.5 -119q63 -107 207 -107q141 0 195.5 93t54.5 332v781h225v-772q0 -171 -18 -256q-81 -370 -461 -370q-278 0 -400 205q-44 74 -62 169t-18 256v768zM387 1734h187l169 -259h-171z" />
    <glyph glyph-name="dotlessi" unicode="&#x131;" horiz-adv-x="531" 
d="M165 0v942h201v-942h-201z" />
    <glyph glyph-name="circumflex" unicode="&#x2c6;" horiz-adv-x="982" 
d="M759 1092h-179l-89 153l-92 -153h-166l168 273h188z" />
    <glyph glyph-name="tilde" unicode="&#x2dc;" horiz-adv-x="982" 
d="M802 1365q-10 -76 -31 -125q-53 -122 -162 -122q-52 0 -156 52q-50 26 -72 26q-45 0 -65 -90h-127q7 66 28 119q25 60 70 94.5t99 34.5q37 0 63 -9.5t119 -57.5q23 -12 42 -12q47 0 63 90h129z" />
    <glyph glyph-name="uni02C9" unicode="&#x2c9;" horiz-adv-x="982" 
d="M775 1267v-129h-559v129h559z" />
    <glyph glyph-name="breve" unicode="&#x2d8;" horiz-adv-x="982" 
d="M767 1365q-38 -273 -272 -273t-271 273h137q24 -138 134 -138q111 0 135 138h137z" />
    <glyph glyph-name="dotaccent" unicode="&#x2d9;" horiz-adv-x="960" 
d="M584 1311v-205h-203v205h203z" />
    <glyph glyph-name="ring" unicode="&#x2da;" horiz-adv-x="982" 
d="M497 1356q-43 0 -72.5 -29t-29.5 -72q0 -41 29 -70.5t70 -29.5q42 0 71.5 29.5t29.5 70.5q0 42 -29 71.5t-69 29.5zM498 1447q84 0 144 -56q61 -56 61 -136q0 -77 -60 -133q-61 -57 -148 -57t-147 56q-61 56 -61 134q0 81 61.5 136.5t149.5 55.5z" />
    <glyph glyph-name="cedilla" unicode="&#xb8;" horiz-adv-x="1259" 
d="M531 0h95l-40 -108q21 12 46 12q73 0 121 -43.5t48 -109.5q0 -73 -50 -117t-134 -44q-68 0 -112.5 30.5t-51.5 80.5h107q8 -31 56 -31q72 0 72 77q0 37 -19.5 58.5t-52.5 21.5q-42 0 -53 -27h-107z" />
    <glyph glyph-name="hungarumlaut" unicode="&#x2dd;" horiz-adv-x="1036" 
d="M613 1365l-196 -273h-174l180 273h190zM975 1365l-196 -273h-174l180 273h190z" />
    <glyph glyph-name="ogonek" unicode="&#x2db;" horiz-adv-x="1272" 
d="M817 3q-9 -8 -13 -12q-83 -76 -83 -144q0 -44 28 -70.5t75 -26.5q24 0 71 15v-111q-58 -22 -108 -22q-93 0 -148 53q-50 48 -50 126q0 51 23.5 92t85.5 100h119z" />
    <glyph glyph-name="caron" unicode="&#x2c7;" horiz-adv-x="982" 
d="M233 1365h178l89 -153l93 153h166l-168 -273h-189z" />
    <glyph glyph-name="nonbreakingspace" unicode="&#xa0;" horiz-adv-x="531" 
 />
    <glyph glyph-name="currency" unicode="&#xa4;" horiz-adv-x="1428" 
d="M112 265l200 201q-97 133 -97 288q0 146 98 285l-204 202l111 112l203 -203q143 98 292 98q148 0 287 -96l202 200l110 -111l-200 -200q100 -143 100 -289t-97 -285l202 -202l-110 -111l-202 201q-138 -98 -290 -98q-145 0 -293 98l-202 -201zM719 1067q-135 0 -227 -92
t-92 -223q0 -130 92 -222q93 -92 222 -92q131 0 223 92t92 222q0 133 -92 223q-94 92 -218 92z" />
    <glyph glyph-name="brokenbar" unicode="&#xa6;" horiz-adv-x="1282" 
d="M531 1365h220v-698h-220v698zM531 314h220v-655h-220v655z" />
    <glyph glyph-name="uni00AD" unicode="&#xad;" horiz-adv-x="453" 
d="M437 611v-197h-421v197h421z" />
    <glyph glyph-name="macron" unicode="&#xaf;" horiz-adv-x="1065" 
d="M61 1648h942v-173h-942v173z" />
    <glyph glyph-name="twosuperior" unicode="&#xb2;" horiz-adv-x="583" 
d="M550 687v-141h-537q0 129 31 198q48 106 236 219q119 74 119 172q0 49 -30.5 78.5t-81.5 29.5q-109 0 -109 -138h-165q0 83 31 143q34 64 97 99.5t143 35.5q122 0 198.5 -68t76.5 -177q0 -93 -50.5 -156.5t-199.5 -157.5q-108 -68 -126 -137h367z" />
    <glyph glyph-name="threesuperior" unicode="&#xb3;" horiz-adv-x="586" 
d="M188 1126h-160q3 102 46 165q68 98 211 98q116 0 184 -66q66 -62 66 -159q0 -109 -93 -166q121 -65 121 -200q0 -117 -81 -190q-78 -71 -201 -71q-169 0 -238 124q-31 57 -31 132q0 6 1 24h160q2 -76 27 -107.5t83 -31.5q56 0 88 32t32 89q0 125 -126 125q-13 0 -59 -2
v126q23 -1 31 -1q64 0 93 25t29 81q0 44 -24.5 69.5t-67.5 25.5q-87 0 -91 -122z" />
    <glyph glyph-name="onesuperior" unicode="&#xb9;" horiz-adv-x="510" 
d="M180 546v569q-51 -30 -126 -30h-26v132q101 3 140 41q33 32 44 107h118v-819h-150z" />
    <glyph glyph-name="onequarter" unicode="&#xbc;" horiz-adv-x="1366" 
d="M152 546v569q-51 -30 -126 -30h-26v132q101 3 140 41q33 32 44 107h118v-819h-150zM430 0h-160l623 1365h157zM1120 0v194h-296v140l305 485h131v-493h99v-132h-99v-194h-140zM1120 326v261l-153 -261h153z" />
    <glyph glyph-name="onehalf" unicode="&#xbd;" horiz-adv-x="1438" 
d="M151 546v569q-51 -30 -126 -30h-26v132q101 3 140 41q33 32 44 107h118v-819h-150zM429 0h-160l623 1365h157zM1430 141v-141h-537q0 129 30 198q48 106 231 219q115 74 115 172q0 49 -29 78.5t-78 29.5q-104 0 -104 -138h-165q3 88 31 143q71 135 240 135
q122 0 198.5 -68t76.5 -177q0 -93 -50.5 -156t-199.5 -158q-109 -67 -126 -137h367z" />
    <glyph glyph-name="threequarters" unicode="&#xbe;" horiz-adv-x="1480" 
d="M547 0h-161l623 1365h158zM1236 0v194h-296v140l305 485h131v-493h100v-132h-100v-194h-140zM1236 326v261l-153 -261h153zM167 1126h-160q3 102 46 165q68 98 211 98q116 0 184 -66q66 -62 66 -159q0 -109 -93 -166q121 -65 121 -200q0 -117 -81 -190q-78 -71 -201 -71
q-169 0 -238 124q-31 57 -31 132q0 6 1 24h160q2 -76 27 -107.5t83 -31.5q56 0 88 32t32 89q0 125 -126 125q-13 0 -59 -2v126q23 -1 31 -1q64 0 93 25t29 81q0 44 -24.5 69.5t-67.5 25.5q-87 0 -91 -122z" />
    <glyph glyph-name="Eth" unicode="&#xd0;" horiz-adv-x="1234" 
d="M8 609v193h125v563h419q273 0 413 -153q166 -182 166 -520q0 -397 -216 -585q-67 -58 -147.5 -82.5t-204.5 -24.5h-430v609h-125zM358 188h174q102 0 158 19.5t101 71.5q115 132 115 413q0 239 -94 362t-277 123h-177v-375h273v-193h-273v-421z" />
    <glyph glyph-name="multiply" unicode="&#xd7;" horiz-adv-x="1111" 
d="M161 961l123 123l271 -272l272 272l123 -123l-272 -272l272 -271l-123 -123l-272 272l-271 -272l-123 123l272 272z" />
    <glyph glyph-name="Yacute" unicode="&#xdd;" horiz-adv-x="1068" 
d="M423 0v545l-428 820h253l291 -597l288 597h245l-424 -822v-543h-225zM771 1734l-185 -259h-171l170 259h186z" />
    <glyph glyph-name="Thorn" unicode="&#xde;" horiz-adv-x="1126" 
d="M396 1116h162q134 0 213.5 -24.5t137.5 -83.5q114 -114 114 -309q0 -223 -139 -338q-56 -46 -125 -66t-175 -20h-188v-275h-225v1365h225v-249zM396 917v-450h157q128 0 181 52q64 62 64 176q0 132 -90 190q-50 32 -173 32h-139z" />
    <glyph glyph-name="eth" unicode="&#xf0;" horiz-adv-x="1028" 
d="M721 1394l72 -117l-145 -79q85 -83 149 -182q168 -264 168 -543q0 -247 -136 -382q-120 -120 -313 -120q-215 0 -336 143q-117 137 -117 357q0 213 109 347q60 72 145.5 112.5t179.5 40.5q69 0 140 -31q-76 111 -139 177l-162 -89l-72 117l124 67q-41 30 -97 64l76 118
q85 -38 169 -101zM515 803q-111 0 -177 -85q-70 -91 -70 -242q0 -165 69 -253q66 -84 180 -84q104 0 167 74q76 90 76 260q0 157 -67 244q-67 86 -178 86z" />
    <glyph glyph-name="yacute" unicode="&#xfd;" horiz-adv-x="931" 
d="M110 -344v172q75 -13 106 -13q65 0 96 67q41 84 51 139l-341 921h232l221 -689l212 689h222l-324 -922q-77 -219 -126 -281q-74 -94 -208 -94q-55 0 -141 11zM712 1365l-196 -273h-174l180 273h190z" />
    <glyph glyph-name="thorn" unicode="&#xfe;" horiz-adv-x="1075" 
d="M129 -355v1720h201v-529q94 135 280 135q188 0 298 -147q105 -140 105 -354q0 -230 -114 -364q-115 -135 -297 -135q-176 0 -272 133v-459h-201zM568 803q-111 0 -176.5 -88.5t-65.5 -239.5q0 -164 68 -252q66 -84 174 -84q109 0 171 84q69 92 69 244q0 144 -62 238
q-64 98 -178 98z" />
    <glyph glyph-name="Amacron" unicode="&#x100;" 
d="M462 1365h235l438 -1365h-236l-107 366h-431l-108 -366h-231zM414 546h325l-161 552zM869 1611v-132h-580v132h580z" />
    <glyph glyph-name="amacron" unicode="&#x101;" horiz-adv-x="1000" 
d="M952 142v-142q-61 -25 -133 -25q-62 0 -94.5 23.5t-51.5 84.5q-110 -112 -288 -112q-128 0 -214 64q-106 77 -106 212q0 147 118 232q69 49 163 67t310 24v78q0 167 -179 167q-91 0 -127.5 -24t-44.5 -89h-203q16 269 388 269q208 0 307 -111q40 -44 52 -98t12 -187v-356
q0 -53 10 -70.5t39 -17.5q18 0 42 11zM656 454q-135 -6 -212 -24q-78 -18 -121 -61q-49 -49 -49 -114q0 -61 42.5 -96.5t116.5 -35.5q118 0 182 104q41 69 41 152v75zM771 1267v-129h-559v129h559z" />
    <glyph glyph-name="Abreve" unicode="&#x102;" 
d="M462 1365h235l438 -1365h-236l-107 366h-431l-108 -366h-231zM414 546h325l-161 552zM307 1734h136q16 -71 46 -99t89 -28q60 0 90.5 28t46.5 99h136q-9 -77 -31 -123q-68 -143 -241 -143q-119 0 -187.5 67t-84.5 199z" />
    <glyph glyph-name="abreve" unicode="&#x103;" horiz-adv-x="1000" 
d="M952 142v-142q-61 -25 -133 -25q-62 0 -94.5 23.5t-51.5 84.5q-110 -112 -288 -112q-128 0 -214 64q-106 77 -106 212q0 147 118 232q69 49 163 67t310 24v78q0 167 -179 167q-91 0 -127.5 -24t-44.5 -89h-203q16 269 388 269q208 0 307 -111q40 -44 52 -98t12 -187v-356
q0 -53 10 -70.5t39 -17.5q18 0 42 11zM656 454q-135 -6 -212 -24q-78 -18 -121 -61q-49 -49 -49 -114q0 -61 42.5 -96.5t116.5 -35.5q118 0 182 104q41 69 41 152v75zM765 1365q-38 -273 -272 -273t-271 273h137q24 -138 134 -138q111 0 135 138h137z" />
    <glyph glyph-name="Aogonek" unicode="&#x104;" 
d="M1123 0l-6 -5q-88 -77 -88 -159q0 -41 28.5 -67t74.5 -26q24 0 71 15l1 -111q-61 -22 -109 -22q-94 0 -148 53q-50 48 -50 124q0 55 23 98t84 100h-105l-107 366h-431l-108 -366h-231l440 1365h235l438 -1365h-12zM414 546h325l-161 552z" />
    <glyph glyph-name="aogonek" unicode="&#x105;" horiz-adv-x="1000" 
d="M923 -10q-81 -76 -81 -142q0 -45 27.5 -71.5t74.5 -26.5q24 0 71 15l1 -111q-58 -22 -108 -22q-94 0 -149 52q-50 48 -50 126q0 85 82 167q-89 9 -118 106q-111 -112 -288 -112q-128 0 -214 64q-106 77 -106 212q0 147 118 232q69 49 163 67t310 24v78q0 167 -179 167
q-91 0 -127.5 -24t-44.5 -89h-203q16 269 388 269q208 0 307 -111q40 -44 52 -98t12 -187v-356q0 -52 10 -69.5t39 -17.5q18 0 42 10v-142q-15 -6 -29 -10zM656 454q-136 -6 -212 -24q-78 -18 -121 -61q-49 -48 -49 -113q0 -61 42.5 -96.5t116.5 -35.5q118 0 182 104
q41 68 41 151v75z" />
    <glyph glyph-name="Cacute" unicode="&#x106;" horiz-adv-x="1237" 
d="M929 523h222q-11 -208 -117 -358q-139 -198 -385 -198q-243 0 -386 181q-160 203 -160 531q0 283 130 481q154 236 426 236q244 0 387 -199q83 -116 97 -269h-222q-19 110 -69 176q-77 100 -199 100q-153 0 -234 -138q-91 -156 -91 -386q0 -225 87 -379q80 -141 234 -141
q241 0 280 363zM864 1734l-185 -259h-171l170 259h186z" />
    <glyph glyph-name="cacute" unicode="&#x107;" horiz-adv-x="960" 
d="M701 333h211q-20 -145 -101 -236q-112 -126 -306 -126q-190 0 -306 119q-133 137 -133 374q0 222 113 357q125 150 335 150q162 0 265.5 -87t119.5 -237h-212q-15 75 -61.5 115.5t-118.5 40.5q-115 0 -177 -96q-59 -91 -59 -240q0 -152 63 -243q59 -85 167 -85
q82 0 134 50.5t66 143.5zM736 1365l-196 -273h-174l180 273h190z" />
    <glyph glyph-name="Ccircumflex" unicode="&#x108;" horiz-adv-x="1237" 
d="M929 523h222q-11 -208 -117 -358q-139 -198 -385 -198q-243 0 -386 181q-160 203 -160 531q0 283 130 481q154 236 426 236q244 0 387 -199q83 -116 97 -269h-222q-19 110 -69 176q-77 100 -199 100q-153 0 -234 -138q-91 -156 -91 -386q0 -225 87 -379q80 -141 234 -141
q241 0 280 363zM920 1475h-180l-101 148l-100 -148h-180l183 259h194z" />
    <glyph glyph-name="ccircumflex" unicode="&#x109;" horiz-adv-x="960" 
d="M701 333h211q-20 -145 -101 -236q-112 -126 -306 -126q-190 0 -306 119q-133 137 -133 374q0 222 113 357q125 150 335 150q162 0 265.5 -87t119.5 -237h-212q-15 75 -61.5 115.5t-118.5 40.5q-115 0 -177 -96q-59 -91 -59 -240q0 -152 63 -243q59 -85 167 -85
q82 0 134 50.5t66 143.5zM762 1092h-179l-89 153l-92 -153h-166l168 273h188z" />
    <glyph glyph-name="Cdotaccent" unicode="&#x10a;" horiz-adv-x="1237" 
d="M929 523h222q-11 -208 -117 -358q-139 -198 -385 -198q-243 0 -386 181q-160 203 -160 531q0 283 130 481q154 236 426 236q244 0 387 -199q83 -116 97 -269h-222q-19 110 -69 176q-77 100 -199 100q-153 0 -234 -138q-91 -156 -91 -386q0 -225 87 -379q80 -141 234 -141
q241 0 280 363zM736 1676v-205h-192v205h192z" />
    <glyph glyph-name="cdotaccent" unicode="&#x10b;" horiz-adv-x="960" 
d="M701 333h211q-20 -145 -101 -236q-112 -126 -306 -126q-190 0 -306 119q-133 137 -133 374q0 222 113 357q125 150 335 150q162 0 265.5 -87t119.5 -237h-212q-15 75 -61.5 115.5t-118.5 40.5q-115 0 -177 -96q-59 -91 -59 -240q0 -152 63 -243q59 -85 167 -85
q82 0 134 50.5t66 143.5zM602 1311v-205h-203v205h203z" />
    <glyph glyph-name="Ccaron" unicode="&#x10c;" horiz-adv-x="1237" 
d="M929 523h222q-11 -208 -117 -358q-139 -198 -385 -198q-243 0 -386 181q-160 203 -160 531q0 283 130 481q154 236 426 236q244 0 387 -199q83 -116 97 -269h-222q-19 110 -69 176q-77 100 -199 100q-153 0 -234 -138q-91 -156 -91 -386q0 -225 87 -379q80 -141 234 -141
q241 0 280 363zM361 1734h180l100 -148l100 148h181l-183 -259h-195z" />
    <glyph glyph-name="ccaron" unicode="&#x10d;" horiz-adv-x="960" 
d="M701 333h211q-20 -145 -101 -236q-112 -126 -306 -126q-190 0 -306 119q-133 137 -133 374q0 222 113 357q125 150 335 150q162 0 265.5 -87t119.5 -237h-212q-15 75 -61.5 115.5t-118.5 40.5q-115 0 -177 -96q-59 -91 -59 -240q0 -152 63 -243q59 -85 167 -85
q82 0 134 50.5t66 143.5zM241 1365h178l89 -153l93 153h166l-168 -273h-189z" />
    <glyph glyph-name="Dcaron" unicode="&#x10e;" horiz-adv-x="1272" 
d="M171 0v1365h419q273 0 413 -153q166 -182 166 -520q0 -397 -215 -585q-68 -58 -148.5 -82.5t-204.5 -24.5h-430zM396 188h174q102 0 158 19.5t101 71.5q115 132 115 413q0 238 -94 361.5t-277 123.5h-177v-989zM314 1734h180l100 -148l100 148h181l-183 -259h-195z" />
    <glyph glyph-name="dcaron" unicode="&#x10f;" horiz-adv-x="1174" 
d="M946 0h-202v106q-97 -135 -283 -135q-187 0 -294 147q-102 142 -102 355q0 231 113 363q54 64 132.5 99.5t164.5 35.5q178 0 270 -133v527h201v-1365zM507 803q-107 0 -169 -84q-68 -92 -68 -240q0 -145 61 -242q62 -98 176 -98q111 0 174.5 88.5t63.5 243.5
q0 162 -67 248q-66 84 -171 84zM1235 1365v-134q2 -217 -176 -232v77q72 15 80 110h-80v179h176z" />
    <glyph glyph-name="Dcroat" unicode="&#x110;" horiz-adv-x="1234" 
d="M8 609v193h125v563h419q273 0 413 -153q166 -182 166 -520q0 -397 -216 -585q-67 -58 -147.5 -82.5t-204.5 -24.5h-430v609h-125zM358 188h174q102 0 158 19.5t101 71.5q115 132 115 413q0 239 -94 362t-277 123h-177v-375h273v-193h-273v-421z" />
    <glyph glyph-name="dcroat" unicode="&#x111;" horiz-adv-x="1048" 
d="M946 0h-200v106q-98 -135 -285 -135q-189 0 -296 147q-103 142 -103 355q0 231 113 363q54 64 133 99.5t166 35.5q175 0 271 -133v244h-273v129h273v154h201v-154h95v-129h-95v-1082zM505 803q-107 0 -170 -84q-68 -91 -68 -240q0 -146 61 -242q63 -98 178 -98
q110 0 174.5 89t64.5 243q0 161 -68 248q-65 84 -172 84z" />
    <glyph glyph-name="Emacron" unicode="&#x112;" horiz-adv-x="1118" 
d="M171 0v1365h823v-193h-598v-370h553v-193h-553v-416h608v-193h-833zM872 1611v-132h-580v132h580z" />
    <glyph glyph-name="emacron" unicode="&#x113;" horiz-adv-x="986" 
d="M922 420h-644q2 -89 27 -150q59 -144 212 -144q145 0 177 121h203q-14 -74 -54 -127q-111 -149 -333 -149q-210 0 -331 143q-114 135 -114 347q0 216 117 361q120 149 315 149q198 0 311.5 -147t113.5 -404zM708 561q-6 81 -36 139q-60 115 -177 115q-112 0 -169 -102
q-34 -61 -45 -152h427zM769 1267v-129h-559v129h559z" />
    <glyph glyph-name="Ebreve" unicode="&#x114;" horiz-adv-x="1118" 
d="M171 0v1365h823v-193h-598v-370h553v-193h-553v-416h608v-193h-833zM306 1734h136q16 -71 46 -99t89 -28q60 0 90.5 28t46.5 99h136q-9 -77 -31 -123q-68 -143 -241 -143q-119 0 -187.5 67t-84.5 199z" />
    <glyph glyph-name="ebreve" unicode="&#x115;" horiz-adv-x="986" 
d="M922 420h-644q2 -89 27 -150q59 -144 212 -144q145 0 177 121h203q-14 -74 -54 -127q-111 -149 -333 -149q-210 0 -331 143q-114 135 -114 347q0 216 117 361q120 149 315 149q198 0 311.5 -147t113.5 -404zM708 561q-6 81 -36 139q-60 115 -177 115q-112 0 -169 -102
q-34 -61 -45 -152h427zM771 1365q-38 -273 -272 -273t-271 273h137q24 -138 134 -138q111 0 135 138h137z" />
    <glyph glyph-name="Edotaccent" unicode="&#x116;" horiz-adv-x="1118" 
d="M171 0v1365h823v-193h-598v-370h553v-193h-553v-416h608v-193h-833zM676 1676v-205h-192v205h192z" />
    <glyph glyph-name="edotaccent" unicode="&#x117;" horiz-adv-x="986" 
d="M922 420h-644q2 -89 27 -150q59 -144 212 -144q145 0 177 121h203q-14 -74 -54 -127q-111 -149 -333 -149q-210 0 -331 143q-114 135 -114 347q0 216 117 361q120 149 315 149q198 0 311.5 -147t113.5 -404zM708 561q-6 81 -36 139q-60 115 -177 115q-112 0 -169 -102
q-34 -61 -45 -152h427zM595 1311v-205h-203v205h203z" />
    <glyph glyph-name="Eogonek" unicode="&#x118;" horiz-adv-x="1118" 
d="M994 0q-93 -82 -93 -164q0 -41 28.5 -67t74.5 -26q23 0 71 15v-111q-60 -22 -108 -22q-93 0 -148 53q-50 48 -50 124q0 55 23 98t84 100h-705v1365h823v-193h-598v-370h553v-193h-553v-416h608v-193h-10z" />
    <glyph glyph-name="eogonek" unicode="&#x119;" horiz-adv-x="986" 
d="M637 -14q-78 -73 -78 -139q0 -45 27.5 -71.5t75.5 -26.5q25 0 71 16v-111q-59 -22 -108 -22q-93 0 -148 52q-50 48 -50 126q0 84 76 161q-162 3 -267 87q-171 138 -171 403q0 216 117 361q120 149 315 149q198 0 311.5 -147t113.5 -404h-644q2 -89 27 -150
q59 -144 212 -144q145 0 177 121h203q-18 -91 -79 -156q-70 -75 -181 -105zM708 561q-6 81 -36 139q-60 115 -177 115q-112 0 -169 -102q-34 -61 -45 -152h427z" />
    <glyph glyph-name="Ecaron" unicode="&#x11a;" horiz-adv-x="1118" 
d="M171 0v1365h823v-193h-598v-370h553v-193h-553v-416h608v-193h-833zM307 1734h180l100 -148l100 148h181l-183 -259h-195z" />
    <glyph glyph-name="ecaron" unicode="&#x11b;" horiz-adv-x="986" 
d="M922 420h-644q2 -89 27 -150q59 -144 212 -144q145 0 177 121h203q-14 -74 -54 -127q-111 -149 -333 -149q-210 0 -331 143q-114 135 -114 347q0 216 117 361q120 149 315 149q198 0 311.5 -147t113.5 -404zM708 561q-6 81 -36 139q-60 115 -177 115q-112 0 -169 -102
q-34 -61 -45 -152h427zM235 1365h178l89 -153l93 153h166l-168 -273h-189z" />
    <glyph glyph-name="Gcircumflex" unicode="&#x11c;" horiz-adv-x="1326" 
d="M1177 0h-173v158q-84 -105 -164.5 -148t-191.5 -43q-219 0 -362 158q-183 202 -183 548q0 336 174 543q152 181 396 181q267 0 408 -221q69 -107 82 -247h-218q-18 111 -71 179q-77 96 -206 96q-156 0 -243 -135q-97 -148 -97 -393q0 -261 111 -404q86 -112 234 -112
q196 0 270 205q24 65 30 180h-301v184h505v-729zM952 1475h-180l-101 148l-100 -148h-180l183 259h194z" />
    <glyph glyph-name="gcircumflex" unicode="&#x11d;" horiz-adv-x="1055" 
d="M99 -107h208q8 -37 25 -54q48 -45 158 -45q116 0 171 74t55 230v49q-88 -139 -265 -139q-176 0 -282 126q-107 130 -107 347q0 225 113 357q113 133 294 133q173 0 267 -139v110h189v-763q0 -144 -16.5 -225.5t-59.5 -144.5q-110 -164 -358 -164q-184 0 -283 63t-109 185
zM492 801q-100 0 -157 -75q-68 -89 -68 -242q0 -158 78 -243q60 -65 147 -65q99 0 158 78q71 92 71 242q0 160 -80 243q-60 62 -149 62zM784 1092h-179l-89 153l-92 -153h-166l168 273h188z" />
    <glyph glyph-name="Gbreve" unicode="&#x11e;" horiz-adv-x="1326" 
d="M1177 0h-173v158q-84 -105 -164.5 -148t-191.5 -43q-219 0 -362 158q-183 202 -183 548q0 336 174 543q152 181 396 181q267 0 408 -221q69 -107 82 -247h-218q-18 111 -71 179q-77 96 -206 96q-156 0 -243 -135q-97 -148 -97 -393q0 -261 111 -404q86 -112 234 -112
q196 0 270 205q24 65 30 180h-301v184h505v-729zM390 1734h136q16 -71 46 -99t89 -28q60 0 90.5 28t46.5 99h136q-9 -77 -31 -123q-68 -143 -241 -143q-119 0 -187.5 67t-84.5 199z" />
    <glyph glyph-name="gbreve" unicode="&#x11f;" horiz-adv-x="1055" 
d="M99 -107h208q8 -37 25 -54q48 -45 158 -45q116 0 171 74t55 230v49q-88 -139 -265 -139q-176 0 -282 126q-107 130 -107 347q0 225 113 357q113 133 294 133q173 0 267 -139v110h189v-763q0 -144 -16.5 -225.5t-59.5 -144.5q-110 -164 -358 -164q-184 0 -283 63t-109 185
zM492 801q-100 0 -157 -75q-68 -89 -68 -242q0 -158 78 -243q60 -65 147 -65q99 0 158 78q71 92 71 242q0 160 -80 243q-60 62 -149 62zM804 1365q-38 -273 -272 -273t-271 273h137q24 -138 134 -138q111 0 135 138h137z" />
    <glyph glyph-name="Gdotaccent" unicode="&#x120;" horiz-adv-x="1326" 
d="M1177 0h-173v158q-84 -105 -164.5 -148t-191.5 -43q-219 0 -362 158q-183 202 -183 548q0 336 174 543q152 181 396 181q267 0 408 -221q69 -107 82 -247h-218q-18 111 -71 179q-77 96 -206 96q-156 0 -243 -135q-97 -148 -97 -393q0 -261 111 -404q86 -112 234 -112
q196 0 270 205q24 65 30 180h-301v184h505v-729zM778 1676v-205h-192v205h192z" />
    <glyph glyph-name="gdotaccent" unicode="&#x121;" horiz-adv-x="1055" 
d="M99 -107h208q8 -37 25 -54q48 -45 158 -45q116 0 171 74t55 230v49q-88 -139 -265 -139q-176 0 -282 126q-107 130 -107 347q0 225 113 357q113 133 294 133q173 0 267 -139v110h189v-763q0 -144 -16.5 -225.5t-59.5 -144.5q-110 -164 -358 -164q-184 0 -283 63t-109 185
zM492 801q-100 0 -157 -75q-68 -89 -68 -242q0 -158 78 -243q60 -65 147 -65q99 0 158 78q71 92 71 242q0 160 -80 243q-60 62 -149 62zM607 1311v-205h-203v205h203z" />
    <glyph glyph-name="Gcommaaccent" unicode="&#x122;" horiz-adv-x="1326" 
d="M1177 0h-173v158q-84 -105 -164.5 -148t-191.5 -43q-219 0 -362 158q-183 202 -183 548q0 336 174 543q152 181 396 181q267 0 408 -221q69 -107 82 -247h-218q-18 111 -71 179q-77 96 -206 96q-156 0 -243 -135q-97 -148 -97 -393q0 -261 111 -404q86 -112 234 -112
q196 0 270 205q24 65 30 180h-301v184h505v-729zM762 -94v-134q2 -216 -166 -232v77q68 15 75 110h-75v179h166z" />
    <glyph glyph-name="gcommaaccent" unicode="&#x123;" horiz-adv-x="1055" 
d="M99 -107h208q8 -37 25 -54q48 -45 158 -45q116 0 171 74t55 230v49q-88 -139 -265 -139q-176 0 -282 126q-107 130 -107 347q0 225 113 357q113 133 294 133q173 0 267 -139v110h189v-763q0 -144 -16.5 -225.5t-59.5 -144.5q-110 -164 -358 -164q-184 0 -283 63t-109 185
zM492 801q-100 0 -157 -75q-68 -89 -68 -242q0 -158 78 -243q60 -65 147 -65q99 0 158 78q71 92 71 242q0 160 -80 243q-60 62 -149 62zM413 1092v134q-2 217 166 232v-77q-68 -15 -75 -110h75v-179h-166z" />
    <glyph glyph-name="Hcircumflex" unicode="&#x124;" horiz-adv-x="1302" 
d="M171 0v1365h225v-552h510v552h225v-1365h-225v620h-510v-620h-225zM932 1475h-180l-101 148l-100 -148h-180l183 259h194z" />
    <glyph glyph-name="hcircumflex" unicode="&#x125;" horiz-adv-x="1044" 
d="M131 0v1365h201v-534q100 140 273 140q93 0 165 -37t109 -103q40 -72 40 -225v-606h-201v575q0 113 -27 157q-42 71 -143 71q-115 0 -174 -96q-25 -40 -33.5 -92.5t-8.5 -160.5v-454h-201zM529 1475h-180l-101 148l-100 -148h-180l183 259h194z" />
    <glyph glyph-name="Hbar" unicode="&#x126;" horiz-adv-x="1248" 
d="M144 966h-109v132h109v267h225v-267h510v267h225v-267h110v-132h-110v-966h-225v620h-510v-620h-225v966zM369 966v-153h510v153h-510z" />
    <glyph glyph-name="hbar" unicode="&#x127;" horiz-adv-x="1044" 
d="M131 1138h-119v129h119v98h201v-98h239v-129h-239v-307q100 140 273 140q92 0 164.5 -37t109.5 -104q40 -71 40 -224v-606h-201v575q0 113 -27 157q-42 71 -143 71q-115 0 -174 -96q-25 -40 -33.5 -92.5t-8.5 -160.5v-454h-201v1138z" />
    <glyph glyph-name="Itilde" unicode="&#x128;" horiz-adv-x="566" 
d="M171 0v1365h225v-1365h-225zM475 1713h116q-36 -232 -190 -232q-57 0 -162 61q-52 30 -78 30q-53 0 -71 -91h-115q34 232 196 232q37 0 66 -11t87 -47q48 -30 76 -30q53 0 75 88z" />
    <glyph glyph-name="itilde" unicode="&#x129;" horiz-adv-x="531" 
d="M165 0v942h201v-942h-201zM572 1365q-10 -76 -31 -125q-53 -122 -162 -122q-52 0 -156 52q-50 26 -72 26q-45 0 -65 -90h-127q7 66 28 119q25 60 70 94.5t99 34.5q37 0 63 -9.5t119 -57.5q23 -12 42 -12q47 0 63 90h129z" />
    <glyph glyph-name="Imacron" unicode="&#x12a;" horiz-adv-x="566" 
d="M171 0v1365h225v-1365h-225zM568 1611v-132h-580v132h580z" />
    <glyph glyph-name="imacron" unicode="&#x12b;" horiz-adv-x="531" 
d="M165 0v942h201v-942h-201zM550 1267v-129h-559v129h559z" />
    <glyph glyph-name="Ibreve" unicode="&#x12c;" horiz-adv-x="566" 
d="M171 0v1365h225v-1365h-225zM11 1734h136q16 -71 46 -99t89 -28q60 0 90.5 28t46.5 99h136q-9 -77 -31 -123q-68 -143 -241 -143q-119 0 -187.5 67t-84.5 199z" />
    <glyph glyph-name="ibreve" unicode="&#x12d;" horiz-adv-x="531" 
d="M165 0v942h201v-942h-201zM537 1365q-38 -273 -272 -273t-271 273h137q24 -138 134 -138q111 0 135 138h137z" />
    <glyph glyph-name="Iogonek" unicode="&#x12e;" horiz-adv-x="566" 
d="M389 0q-94 -82 -94 -164q0 -42 28.5 -67.5t75.5 -25.5q23 0 71 15v-111q-61 -22 -108 -22q-94 0 -149 53q-50 47 -50 124q0 56 23 98.5t84 99.5h-99v1365h225v-1365h-7z" />
    <glyph glyph-name="iogonek" unicode="&#x12f;" horiz-adv-x="528" 
d="M335 0q-93 -83 -93 -154q0 -44 28 -70.5t75 -26.5q25 0 71 16v-111q-59 -22 -108 -22q-94 0 -149 52q-50 48 -50 127q0 90 107 189h-59v942h201v-942h-23zM157 1160v205h213v-205h-213z" />
    <glyph glyph-name="Idotaccent" unicode="&#x130;" horiz-adv-x="566" 
d="M171 0v1365h225v-1365h-225zM381 1676v-205h-192v205h192z" />
    <glyph glyph-name="IJ" unicode="&#x132;" horiz-adv-x="1104" 
d="M171 0v1365h225v-1365h-225zM445 -19v199q66 -18 112 -18q121 0 156 115q11 38 13.5 74.5t3.5 168.5v845h225v-873q0 -151 -13 -226.5t-50 -138.5q-92 -160 -320 -160q-56 0 -127 14z" />
    <glyph glyph-name="ij" unicode="&#x133;" horiz-adv-x="962" 
d="M140 1160v205h213v-205h-213zM146 0v942h201v-942h-201zM463 -349v166q31 -6 53 -6q56 0 74.5 34.5t18.5 138.5v958h201v-931q0 -186 -31 -251q-26 -53 -84.5 -84t-135.5 -31q-35 0 -79 4zM602 1160v205h213v-205h-213z" />
    <glyph glyph-name="Jcircumflex" unicode="&#x134;" horiz-adv-x="675" 
d="M16 -19v199q66 -18 112 -18q121 0 156 115q11 38 13.5 74.5t3.5 168.5v845h225v-873q0 -151 -13 -226.5t-50 -138.5q-92 -160 -320 -160q-56 0 -127 14zM693 1475h-180l-101 148l-100 -148h-180l183 259h194z" />
    <glyph glyph-name="jcircumflex" unicode="&#x135;" horiz-adv-x="547" 
d="M31 -349v166q33 -6 58 -6q60 0 80 34.5t20 138.5v958h201v-931q0 -186 -32 -251q-27 -53 -87.5 -84t-139.5 -31q-38 0 -82 4zM548 1092h-179l-89 153l-92 -153h-166l168 273h188z" />
    <glyph glyph-name="Kcommaaccent" unicode="&#x136;" horiz-adv-x="1163" 
d="M171 0v1365h224v-580l473 580h262l-477 -564l506 -801h-258l-393 629l-113 -134v-495h-224zM693 -94v-134q2 -216 -166 -232v77q68 15 75 110h-75v179h166z" />
    <glyph glyph-name="kcommaaccent" unicode="&#x137;" horiz-adv-x="982" 
d="M134 0v1365h201v-762l341 339h252l-360 -348l394 -594h-254l-288 452l-85 -82v-370h-201zM584 -94v-134q2 -216 -166 -232v77q68 15 75 110h-75v179h166z" />
    <glyph glyph-name="kgreenlandic" unicode="&#x138;" horiz-adv-x="959" 
d="M335 575l341 367h252l-359 -370l393 -572h-250l-280 432l-97 -100v-332h-201v942h201v-367z" />
    <glyph glyph-name="Lacute" unicode="&#x139;" horiz-adv-x="1035" 
d="M171 0v1365h225v-1172h565v-193h-790zM609 1734l-185 -259h-171l170 259h186z" />
    <glyph glyph-name="lacute" unicode="&#x13a;" horiz-adv-x="531" 
d="M166 0v1365h201v-1365h-201zM527 1741l-196 -273h-174l180 273h190z" />
    <glyph glyph-name="Lcommaaccent" unicode="&#x13b;" horiz-adv-x="1035" 
d="M171 0v1365h225v-1172h565v-193h-790zM637 -94v-134q2 -216 -166 -232v77q68 15 75 110h-75v179h166z" />
    <glyph glyph-name="lcommaaccent" unicode="&#x13c;" horiz-adv-x="531" 
d="M165 0v1365h201v-1365h-201zM348 -94v-134q2 -216 -166 -232v77q68 15 75 110h-75v179h166z" />
    <glyph glyph-name="Lcaron" unicode="&#x13d;" horiz-adv-x="1035" 
d="M171 0v1365h225v-1172h565v-193h-790zM803 1365v-134q2 -216 -166 -232v77q68 15 75 110h-75v179h166z" />
    <glyph glyph-name="lcaron" unicode="&#x13e;" horiz-adv-x="570" 
d="M165 0v1365h201v-1365h-201zM655 1365v-134q2 -217 -176 -232v77q72 15 80 110h-80v179h176z" />
    <glyph glyph-name="Ldot" unicode="&#x13f;" horiz-adv-x="1021" 
d="M143 0v1365h201v-1172h636v-193h-837zM714 784v-205h-201v205h201z" />
    <glyph glyph-name="ldot" unicode="&#x140;" horiz-adv-x="647" 
d="M152 0v1365h201v-1365h-201zM652 808v-205h-201v205h201z" />
    <glyph glyph-name="Lslash" unicode="&#x141;" horiz-adv-x="998" 
d="M8 406v193l125 93v673h225v-525l244 178v-193l-244 -178v-454h565v-193h-790v498z" />
    <glyph glyph-name="lslash" unicode="&#x142;" horiz-adv-x="511" 
d="M21 453v179l134 108v625h201v-462l134 108v-179l-134 -107v-725h-201v561z" />
    <glyph glyph-name="Nacute" unicode="&#x143;" horiz-adv-x="1289" 
d="M171 0v1365h231l508 -1012v1012h209v-1365h-233l-506 1007v-1007h-209zM882 1734l-185 -259h-171l170 259h186z" />
    <glyph glyph-name="nacute" unicode="&#x144;" horiz-adv-x="1044" 
d="M131 0v942h196v-119q101 148 284 148q115 0 198 -62q62 -46 86 -113t24 -194v-602h-201v549q0 109 -16 158q-14 44 -53 69q-42 27 -99 27q-64 0 -115.5 -34t-75.5 -91q-27 -67 -27 -205v-473h-201zM753 1365l-196 -273h-174l180 273h190z" />
    <glyph glyph-name="Ncommaaccent" unicode="&#x145;" horiz-adv-x="1289" 
d="M171 0v1365h231l508 -1012v1012h209v-1365h-233l-506 1007v-1007h-209zM735 -94v-134q2 -216 -166 -232v77q68 15 75 110h-75v179h166z" />
    <glyph glyph-name="ncommaaccent" unicode="&#x146;" horiz-adv-x="1044" 
d="M131 0v942h196v-119q101 148 284 148q115 0 198 -62q62 -46 86 -113t24 -194v-602h-201v549q0 109 -16 158q-14 44 -53 69q-42 27 -99 27q-64 0 -115.5 -34t-75.5 -91q-27 -67 -27 -205v-473h-201zM593 -94v-134q2 -216 -166 -232v77q68 15 75 110h-75v179h166z" />
    <glyph glyph-name="Ncaron" unicode="&#x147;" horiz-adv-x="1289" 
d="M171 0v1365h231l508 -1012v1012h209v-1365h-233l-506 1007v-1007h-209zM365 1734h180l100 -148l100 148h181l-183 -259h-195z" />
    <glyph glyph-name="ncaron" unicode="&#x148;" horiz-adv-x="1044" 
d="M131 0v942h196v-119q101 148 284 148q115 0 198 -62q62 -46 86 -113t24 -194v-602h-201v549q0 109 -16 158q-14 44 -53 69q-42 27 -99 27q-64 0 -115.5 -34t-75.5 -91q-27 -67 -27 -205v-473h-201zM248 1365h178l89 -153l93 153h166l-168 -273h-189z" />
    <glyph glyph-name="napostrophe" unicode="&#x149;" horiz-adv-x="1143" 
d="M233 0v942h196v-119q101 148 284 148q115 0 198 -62q62 -46 86 -113t24 -194v-602h-201v549q0 109 -16 158q-14 44 -53 69q-42 27 -99 27q-64 0 -115.5 -34t-75.5 -91q-27 -67 -27 -205v-473h-201zM152 1138v-134q2 -217 -176 -232v77q72 15 80 110h-80v179h176z" />
    <glyph glyph-name="Eng" unicode="&#x14a;" horiz-adv-x="1282" 
d="M133 1365h225v-175q60 79 107 116q107 82 256 82q157 0 273 -90q85 -67 121 -172t36 -289v-518q0 -226 -77 -325q-108 -136 -314 -136q-75 0 -169 29v194q73 -31 132 -31q113 0 162 67q23 32 32 85.5t9 162.5v501q0 94 -9 144.5t-33 86.5q-30 47 -88.5 73t-132.5 26
q-185 0 -255 -146q-50 -105 -50 -308v-742h-225v1365z" />
    <glyph glyph-name="eng" unicode="&#x14b;" horiz-adv-x="1044" 
d="M561 -205v167q33 -7 57 -7q60 0 80 34.5t20 138.5v421q0 109 -16 158q-14 44 -53 69q-42 27 -99 27q-64 0 -115.5 -34t-75.5 -91q-27 -67 -27 -205v-473h-201v942h196v-119q101 148 284 148q115 0 198 -62q62 -46 86 -113t24 -194v-447q0 -186 -32 -250q-29 -58 -90 -87
q-62 -29 -137 -29q-29 0 -99 6z" />
    <glyph glyph-name="Omacron" unicode="&#x14c;" horiz-adv-x="1320" 
d="M662 1396q238 0 391 -186q164 -202 164 -527q0 -284 -126 -479q-75 -116 -191 -178q-109 -59 -238 -59q-279 0 -436 241q-123 189 -123 484q0 320 160 513q158 191 399 191zM660 1204q-150 0 -239 -139q-93 -145 -93 -371q0 -237 84 -383q40 -70 108 -111t144 -41
q66 0 126.5 33t99.5 91q102 151 102 401q0 233 -90 377q-89 143 -242 143zM950 1611v-132h-580v132h580z" />
    <glyph glyph-name="omacron" unicode="&#x14d;" horiz-adv-x="1028" 
d="M516 971q205 0 329 -137q120 -133 120 -363q0 -245 -136 -380q-120 -120 -312 -120q-216 0 -337 143q-117 138 -117 364q0 205 110 340q124 153 343 153zM515 803q-111 0 -177 -85q-70 -91 -70 -242q0 -165 69 -253q66 -84 180 -84q104 0 167 74q76 90 76 260
q0 157 -67 244q-67 86 -178 86zM793 1267v-129h-559v129h559z" />
    <glyph glyph-name="Obreve" unicode="&#x14e;" horiz-adv-x="1320" 
d="M662 1396q238 0 391 -186q164 -202 164 -527q0 -284 -126 -479q-75 -116 -191 -178q-109 -59 -238 -59q-279 0 -436 241q-123 189 -123 484q0 320 160 513q158 191 399 191zM660 1204q-150 0 -239 -139q-93 -145 -93 -371q0 -237 84 -383q40 -70 108 -111t144 -41
q66 0 126.5 33t99.5 91q102 151 102 401q0 233 -90 377q-89 143 -242 143zM388 1734h136q16 -71 46 -99t89 -28q60 0 90.5 28t46.5 99h136q-9 -77 -31 -123q-68 -143 -241 -143q-119 0 -187.5 67t-84.5 199z" />
    <glyph glyph-name="obreve" unicode="&#x14f;" horiz-adv-x="1028" 
d="M516 971q205 0 329 -137q120 -133 120 -363q0 -245 -136 -380q-120 -120 -312 -120q-216 0 -337 143q-117 138 -117 364q0 205 110 340q124 153 343 153zM515 803q-111 0 -177 -85q-70 -91 -70 -242q0 -165 69 -253q66 -84 180 -84q104 0 167 74q76 90 76 260
q0 157 -67 244q-67 86 -178 86zM786 1365q-38 -273 -272 -273t-271 273h137q24 -138 134 -138q111 0 135 138h137z" />
    <glyph glyph-name="Ohungarumlaut" unicode="&#x150;" horiz-adv-x="1320" 
d="M662 1396q238 0 391 -186q164 -202 164 -527q0 -284 -126 -479q-75 -116 -191 -178q-109 -59 -238 -59q-279 0 -436 241q-123 189 -123 484q0 320 160 513q158 191 399 191zM660 1204q-150 0 -239 -139q-93 -145 -93 -371q0 -237 84 -383q40 -70 108 -111t144 -41
q66 0 126.5 33t99.5 91q102 151 102 401q0 233 -90 377q-89 143 -242 143zM758 1737l-196 -273h-174l180 273h190zM1078 1737l-196 -273h-174l180 273h190z" />
    <glyph glyph-name="ohungarumlaut" unicode="&#x151;" horiz-adv-x="1028" 
d="M516 971q205 0 329 -137q120 -133 120 -363q0 -245 -136 -380q-120 -120 -312 -120q-216 0 -337 143q-117 138 -117 364q0 205 110 340q124 153 343 153zM515 803q-111 0 -177 -85q-70 -91 -70 -242q0 -165 69 -253q66 -84 180 -84q104 0 167 74q76 90 76 260
q0 157 -67 244q-67 86 -178 86zM605 1365l-196 -273h-174l180 273h190zM925 1365l-196 -273h-174l180 273h190z" />
    <glyph glyph-name="Racute" unicode="&#x154;" horiz-adv-x="1289" 
d="M197 0v1365h505q107 0 175.5 -20t122.5 -67q123 -106 123 -290q0 -250 -221 -337q85 -24 126 -80q32 -44 46.5 -95t22.5 -149q15 -187 25.5 -235.5t43.5 -91.5h-237q-18 36 -24.5 71.5t-11.5 131.5q-8 132 -22 194.5t-46 102.5q-51 64 -204 64h-199v-564h-225zM422 739
h198q144 0 197 38q81 57 81 185q0 113 -60 164t-192 51h-224v-438zM859 1734l-185 -259h-171l170 259h186z" />
    <glyph glyph-name="racute" unicode="&#x155;" horiz-adv-x="660" 
d="M131 0v942h194v-156q96 185 287 185q10 0 45 -2v-205q-53 6 -79 6q-146 0 -211 -135q-35 -72 -35 -254v-381h-201zM629 1365l-196 -273h-174l180 273h190z" />
    <glyph glyph-name="Rcommaaccent" unicode="&#x156;" horiz-adv-x="1289" 
d="M197 0v1365h505q107 0 175.5 -20t122.5 -67q123 -106 123 -290q0 -250 -221 -337q85 -24 126 -80q32 -44 46.5 -95t22.5 -149q15 -187 25.5 -235.5t43.5 -91.5h-237q-18 36 -24.5 71.5t-11.5 131.5q-8 132 -22 194.5t-46 102.5q-51 64 -204 64h-199v-564h-225zM422 739
h198q144 0 197 38q81 57 81 185q0 113 -60 164t-192 51h-224v-438zM742 -94v-134q2 -216 -166 -232v77q68 15 75 110h-75v179h166z" />
    <glyph glyph-name="rcommaaccent" unicode="&#x157;" horiz-adv-x="660" 
d="M131 0v942h194v-156q96 185 287 185q10 0 45 -2v-205q-53 6 -79 6q-146 0 -211 -135q-35 -72 -35 -254v-381h-201zM317 -94v-134q2 -216 -166 -232v77q68 15 75 110h-75v179h166z" />
    <glyph glyph-name="Rcaron" unicode="&#x158;" horiz-adv-x="1289" 
d="M197 0v1365h505q107 0 175.5 -20t122.5 -67q123 -106 123 -290q0 -250 -221 -337q85 -24 126 -80q32 -44 46.5 -95t22.5 -149q15 -187 25.5 -235.5t43.5 -91.5h-237q-18 36 -24.5 71.5t-11.5 131.5q-8 132 -22 194.5t-46 102.5q-51 64 -204 64h-199v-564h-225zM422 739
h198q144 0 197 38q81 57 81 185q0 113 -60 164t-192 51h-224v-438zM337 1734h180l100 -148l100 148h181l-183 -259h-195z" />
    <glyph glyph-name="rcaron" unicode="&#x159;" horiz-adv-x="660" 
d="M131 0v942h194v-156q96 185 287 185q10 0 45 -2v-205q-53 6 -79 6q-146 0 -211 -135q-35 -72 -35 -254v-381h-201zM149 1365h178l89 -153l93 153h166l-168 -273h-189z" />
    <glyph glyph-name="Sacute" unicode="&#x15a;" horiz-adv-x="1103" 
d="M97 417h234q4 -103 42 -164q63 -102 188 -102q105 0 164 70q47 56 47 134q0 115 -106 181q-50 31 -222 102q-135 56 -215 135q-102 101 -102 257q0 169 124 274q109 92 280 92q235 0 353 -156q67 -87 78 -237h-219q-8 87 -42 130q-54 70 -169 70q-82 0 -130 -40
q-57 -48 -57 -131q0 -81 56 -134t201 -110q124 -49 180 -79t100 -70q124 -115 124 -282q0 -165 -117 -274q-123 -116 -330 -116q-239 0 -365 160q-88 113 -97 290zM784 1734l-185 -259h-171l170 259h186z" />
    <glyph glyph-name="sacute" unicode="&#x15b;" horiz-adv-x="889" 
d="M61 267h212q12 -75 56 -109.5t126 -34.5q78 0 123 35.5t45 96.5q0 81 -93 121q-35 16 -177 47q-278 62 -278 274q0 121 94 197q95 77 254 77q216 0 314 -125q44 -56 53 -145h-212q-19 119 -159 119q-66 0 -105.5 -31t-39.5 -83t36.5 -79t136.5 -49q166 -37 228 -68
q153 -77 153 -234q0 -135 -105 -222q-99 -83 -274 -83q-343 0 -388 296zM665 1365l-196 -273h-174l180 273h190z" />
    <glyph glyph-name="Scircumflex" unicode="&#x15c;" horiz-adv-x="1103" 
d="M97 417h234q4 -103 42 -164q63 -102 188 -102q105 0 164 70q47 56 47 134q0 115 -106 181q-50 31 -222 102q-135 56 -215 135q-102 101 -102 257q0 169 124 274q109 92 280 92q235 0 353 -156q67 -87 78 -237h-219q-8 87 -42 130q-54 70 -169 70q-82 0 -130 -40
q-57 -48 -57 -131q0 -81 56 -134t201 -110q124 -49 180 -79t100 -70q124 -115 124 -282q0 -165 -117 -274q-123 -116 -330 -116q-239 0 -365 160q-88 113 -97 290zM832 1475h-180l-101 148l-100 -148h-180l183 259h194z" />
    <glyph glyph-name="scircumflex" unicode="&#x15d;" horiz-adv-x="889" 
d="M61 267h212q12 -75 56 -109.5t126 -34.5q78 0 123 35.5t45 96.5q0 81 -93 121q-35 16 -177 47q-278 62 -278 274q0 121 94 197q95 77 254 77q216 0 314 -125q44 -56 53 -145h-212q-19 119 -159 119q-66 0 -105.5 -31t-39.5 -83t36.5 -79t136.5 -49q166 -37 228 -68
q153 -77 153 -234q0 -135 -105 -222q-99 -83 -274 -83q-343 0 -388 296zM693 1092h-179l-89 153l-92 -153h-166l168 273h188z" />
    <glyph glyph-name="Scedilla" unicode="&#x15e;" horiz-adv-x="1103" 
d="M577 -33l-28 -75q27 12 57 12q67 0 113.5 -44t46.5 -109q0 -73 -51 -117t-135 -44q-69 0 -114 30t-52 81h108q10 -31 57 -31q73 0 73 77q0 37 -20 58.5t-53 21.5q-42 0 -54 -27h-108l65 172q-129 15 -220 87q-154 122 -165 358h234q4 -103 42 -164q63 -102 188 -102
q105 0 164 70q47 56 47 134q0 115 -106 181q-50 31 -222 102q-317 131 -317 392q0 169 124 274q109 92 280 92q235 0 353 -156q67 -87 78 -237h-219q-8 87 -42 130q-54 70 -169 70q-82 0 -130 -40q-57 -48 -57 -131q0 -81 56 -134t201 -110q207 -82 280 -149
q124 -115 124 -282q0 -131 -75 -229q-121 -157 -354 -161z" />
    <glyph glyph-name="scedilla" unicode="&#x15f;" horiz-adv-x="889" 
d="M433 -28l-29 -80q20 12 45 12q74 0 122 -43.5t48 -109.5q0 -73 -50.5 -117t-134.5 -44q-67 0 -112 30.5t-52 80.5h107q9 -31 56 -31q73 0 73 77q0 37 -19.5 58.5t-53.5 21.5q-41 0 -53 -27h-107l68 181q-244 44 -280 286h212q12 -75 56 -109.5t126 -34.5q78 0 123 35.5
t45 96.5q0 81 -93 121q-35 16 -177 47q-278 62 -278 274q0 121 94 197q95 77 254 77q216 0 314 -125q44 -56 53 -145h-212q-19 119 -159 119q-66 0 -105.5 -31t-39.5 -83t36.5 -79t136.5 -49q166 -37 228 -68q153 -77 153 -234q0 -135 -105 -222q-99 -83 -268 -83
q-9 0 -22 1z" />
    <glyph glyph-name="Scaron" unicode="&#x160;" horiz-adv-x="1103" 
d="M97 417h234q4 -103 42 -164q63 -102 188 -102q105 0 164 70q47 56 47 134q0 115 -106 181q-50 31 -222 102q-135 56 -215 135q-102 101 -102 257q0 169 124 274q109 92 280 92q235 0 353 -156q67 -87 78 -237h-219q-8 87 -42 130q-54 70 -169 70q-82 0 -130 -40
q-57 -48 -57 -131q0 -81 56 -134t201 -110q124 -49 180 -79t100 -70q124 -115 124 -282q0 -165 -117 -274q-123 -116 -330 -116q-239 0 -365 160q-88 113 -97 290zM271 1734h180l100 -148l100 148h181l-183 -259h-195z" />
    <glyph glyph-name="scaron" unicode="&#x161;" horiz-adv-x="889" 
d="M61 267h212q12 -75 56 -109.5t126 -34.5q78 0 123 35.5t45 96.5q0 81 -93 121q-35 16 -177 47q-278 62 -278 274q0 121 94 197q95 77 254 77q216 0 314 -125q44 -56 53 -145h-212q-19 119 -159 119q-66 0 -105.5 -31t-39.5 -83t36.5 -79t136.5 -49q166 -37 228 -68
q153 -77 153 -234q0 -135 -105 -222q-99 -83 -274 -83q-343 0 -388 296zM172 1365h178l89 -153l93 153h166l-168 -273h-189z" />
    <glyph glyph-name="Tcommaaccent" unicode="&#x162;" horiz-adv-x="1054" 
d="M415 0v1172h-356v193h936v-193h-355v-1172h-225zM610 -94v-134q2 -216 -166 -232v77q68 15 75 110h-75v179h166z" />
    <glyph glyph-name="tcommaaccent" unicode="&#x163;" horiz-adv-x="588" 
d="M12 786v156h150v117l147 196h54v-313h175v-156h-174v-492q0 -83 12 -105q20 -38 84 -38q33 0 78 14v-165q-54 -21 -142 -21q-152 0 -203 88q-30 52 -30 207v512h-151zM439 -94v-134q2 -216 -166 -232v77q68 15 75 110h-75v179h166z" />
    <glyph glyph-name="Tcaron" unicode="&#x164;" horiz-adv-x="1054" 
d="M415 0v1172h-356v193h936v-193h-355v-1172h-225zM247 1734h180l100 -148l100 148h181l-183 -259h-195z" />
    <glyph glyph-name="tcaron" unicode="&#x165;" horiz-adv-x="604" 
d="M12 786v156h150v117l147 196h54v-313h175v-156h-174v-492q0 -83 12 -105q20 -38 84 -38q33 0 78 14v-165q-54 -21 -142 -21q-152 0 -203 88q-30 52 -30 207v512h-151zM643 1380v-134q2 -217 -176 -232v77q72 15 80 110h-80v179h176z" />
    <glyph glyph-name="Tbar" unicode="&#x166;" horiz-adv-x="1037" 
d="M631 662v-662h-225v662h-221v129h221v381h-384v193h992v-193h-383v-381h220v-129h-220z" />
    <glyph glyph-name="tbar" unicode="&#x167;" horiz-adv-x="568" 
d="M165 646v140h-153v156h148v117l148 196h55v-313h175v-156h-176v-140h176v-136h-176v-216q0 -85 11 -105q21 -38 85 -38q33 0 80 14v-165q-53 -21 -143 -21q-150 0 -200 88q-30 52 -30 207v236h-153v136h153z" />
    <glyph glyph-name="Utilde" unicode="&#x168;" horiz-adv-x="1258" 
d="M149 1365h225v-781q0 -129 11.5 -199t40.5 -119q63 -107 207 -107q141 0 195.5 93t54.5 332v781h225v-772q0 -171 -18 -256q-81 -370 -461 -370q-278 0 -400 205q-44 74 -62 169t-18 256v768zM820 1713h116q-36 -232 -190 -232q-57 0 -162 61q-52 30 -78 30
q-53 0 -71 -91h-115q34 232 196 232q37 0 66 -11t87 -47q48 -30 76 -30q53 0 75 88z" />
    <glyph glyph-name="utilde" unicode="&#x169;" horiz-adv-x="1044" 
d="M913 0h-189v119q-104 -148 -287 -148q-189 0 -267 132q-25 44 -35 95t-10 142v602h201v-549q0 -108 16 -158q14 -44 52 -69q42 -27 100 -27q64 0 115.5 34t75.5 91q27 67 27 205v473h201v-942zM825 1365q-10 -76 -31 -125q-52 -122 -161 -122q-53 0 -156 52
q-51 26 -73 26q-45 0 -64 -90h-128q7 66 29 119q24 60 69.5 94.5t98.5 34.5q38 0 63.5 -9.5t119.5 -57.5q22 -12 42 -12q47 0 62 90h129z" />
    <glyph glyph-name="Umacron" unicode="&#x16a;" horiz-adv-x="1258" 
d="M149 1365h225v-781q0 -129 11.5 -199t40.5 -119q63 -107 207 -107q141 0 195.5 93t54.5 332v781h225v-772q0 -171 -18 -256q-81 -370 -461 -370q-278 0 -400 205q-44 74 -62 169t-18 256v768zM916 1611v-132h-580v132h580z" />
    <glyph glyph-name="umacron" unicode="&#x16b;" horiz-adv-x="1044" 
d="M913 0h-189v119q-104 -148 -287 -148q-189 0 -267 132q-25 44 -35 95t-10 142v602h201v-549q0 -108 16 -158q14 -44 52 -69q42 -27 100 -27q64 0 115.5 34t75.5 91q27 67 27 205v473h201v-942zM798 1267v-129h-559v129h559z" />
    <glyph glyph-name="Ubreve" unicode="&#x16c;" horiz-adv-x="1258" 
d="M149 1365h225v-781q0 -129 11.5 -199t40.5 -119q63 -107 207 -107q141 0 195.5 93t54.5 332v781h225v-772q0 -171 -18 -256q-81 -370 -461 -370q-278 0 -400 205q-44 74 -62 169t-18 256v768zM357 1734h136q16 -71 46 -99t89 -28q60 0 90.5 28t46.5 99h136
q-9 -77 -31 -123q-68 -143 -241 -143q-119 0 -187.5 67t-84.5 199z" />
    <glyph glyph-name="ubreve" unicode="&#x16d;" horiz-adv-x="1044" 
d="M913 0h-189v119q-104 -148 -287 -148q-189 0 -267 132q-25 44 -35 95t-10 142v602h201v-549q0 -108 16 -158q14 -44 52 -69q42 -27 100 -27q64 0 115.5 34t75.5 91q27 67 27 205v473h201v-942zM790 1365q-38 -273 -272 -273t-271 273h137q24 -138 134 -138q111 0 135 138
h137z" />
    <glyph glyph-name="Uring" unicode="&#x16e;" horiz-adv-x="1258" 
d="M149 1365h225v-781q0 -129 11.5 -199t40.5 -119q63 -107 207 -107q141 0 195.5 93t54.5 332v781h225v-772q0 -171 -18 -256q-81 -370 -461 -370q-278 0 -400 205q-44 74 -62 169t-18 256v768zM630 1727q-40 0 -68 -29t-28 -71t27.5 -71t66.5 -29t67 29t28 71
q0 41 -27.5 70.5t-65.5 29.5zM631 1821q80 0 137.5 -57t57.5 -137q0 -79 -57 -135q-58 -58 -141 -58t-140 56q-58 58 -58 137q0 81 58.5 137.5t142.5 56.5z" />
    <glyph glyph-name="uring" unicode="&#x16f;" horiz-adv-x="1044" 
d="M913 0h-189v119q-104 -148 -287 -148q-189 0 -267 132q-25 44 -35 95t-10 142v602h201v-549q0 -108 16 -158q14 -44 52 -69q42 -27 100 -27q64 0 115.5 34t75.5 91q27 67 27 205v473h201v-942zM521 1356q-43 0 -72.5 -29t-29.5 -72q0 -41 29 -70.5t70 -29.5
q42 0 71.5 29.5t29.5 70.5q0 42 -29 71.5t-69 29.5zM522 1447q84 0 144 -56q61 -56 61 -136q0 -77 -60 -133q-61 -57 -148 -57t-147 56q-61 56 -61 134q0 81 61.5 136.5t149.5 55.5z" />
    <glyph glyph-name="Uhungarumlaut" unicode="&#x170;" horiz-adv-x="1258" 
d="M149 1365h225v-781q0 -129 11.5 -199t40.5 -119q63 -107 207 -107q141 0 195.5 93t54.5 332v781h225v-772q0 -171 -18 -256q-81 -370 -461 -370q-278 0 -400 205q-44 74 -62 169t-18 256v768zM715 1737l-196 -273h-174l180 273h190zM1035 1737l-196 -273h-174l180 273
h190z" />
    <glyph glyph-name="uhungarumlaut" unicode="&#x171;" horiz-adv-x="1044" 
d="M913 0h-189v119q-104 -148 -287 -148q-189 0 -267 132q-25 44 -35 95t-10 142v602h201v-549q0 -108 16 -158q14 -44 52 -69q42 -27 100 -27q64 0 115.5 34t75.5 91q27 67 27 205v473h201v-942zM587 1365l-196 -273h-174l180 273h190zM907 1365l-196 -273h-174l180 273
h190z" />
    <glyph glyph-name="Uogonek" unicode="&#x172;" horiz-adv-x="1258" 
d="M819 -4q-3 -2 -6 -5q-83 -75 -83 -154q0 -42 28.5 -68t74.5 -26q23 0 71 15v-111q-60 -22 -108 -22q-94 0 -148 52q-50 48 -50 125q0 92 74 167q-20 -2 -43 -2q-277 0 -400 205q-44 74 -62 169t-18 256v768h225v-781q0 -129 11.5 -199t40.5 -118q63 -107 207 -107
q141 0 195.5 93t54.5 331v781h225v-772q13 -484 -289 -597z" />
    <glyph glyph-name="uogonek" unicode="&#x173;" horiz-adv-x="1044" 
d="M897 0q-93 -83 -93 -153q0 -44 28 -70.5t75 -26.5q24 0 71 15v-111q-58 -22 -108 -22q-94 0 -149 53q-50 48 -50 126q0 91 107 189h-54v119q-104 -148 -287 -148q-189 0 -267 132q-25 44 -35 95t-10 142v602h201v-549q0 -108 16 -158q14 -44 52 -69q42 -27 100 -27
q64 0 115.5 34t75.5 91q27 67 27 205v473h201v-942h-16z" />
    <glyph glyph-name="Wcircumflex" unicode="&#x174;" horiz-adv-x="1561" 
d="M329 0l-302 1365h228l196 -1055l218 1055h226l215 -1057l200 1057h224l-308 -1365h-229l-218 1055l-219 -1055h-231zM1061 1475h-180l-101 148l-100 -148h-180l183 259h194z" />
    <glyph glyph-name="wcircumflex" unicode="&#x175;" horiz-adv-x="1349" 
d="M303 0l-276 942h227l166 -688l148 688h214l156 -681l167 681h218l-275 -942h-218l-156 675l-151 -675h-220zM938 1092h-179l-89 153l-92 -153h-166l168 273h188z" />
    <glyph glyph-name="Ycircumflex" unicode="&#x176;" horiz-adv-x="1068" 
d="M423 0v545l-428 820h253l291 -597l288 597h245l-424 -822v-543h-225zM814 1475h-180l-101 148l-100 -148h-180l183 259h194z" />
    <glyph glyph-name="ycircumflex" unicode="&#x177;" horiz-adv-x="931" 
d="M110 -344v172q75 -13 106 -13q65 0 96 67q41 84 51 139l-341 921h232l221 -689l212 689h222l-324 -922q-77 -219 -126 -281q-74 -94 -208 -94q-55 0 -141 11zM728 1092h-179l-89 153l-92 -153h-166l168 273h188z" />
    <glyph glyph-name="Zacute" unicode="&#x179;" horiz-adv-x="1098" 
d="M87 0v186l657 986h-606v193h875v-181l-661 -991h677v-193h-942zM795 1734l-185 -259h-171l170 259h186z" />
    <glyph glyph-name="zacute" unicode="&#x17a;" horiz-adv-x="870" 
d="M47 0v159l501 615h-467v168h731v-146l-503 -628h529v-168h-791zM689 1365l-196 -273h-174l180 273h190z" />
    <glyph glyph-name="Zdotaccent" unicode="&#x17b;" horiz-adv-x="1098" 
d="M87 0v186l657 986h-606v193h875v-181l-661 -991h677v-193h-942zM661 1676v-205h-192v205h192z" />
    <glyph glyph-name="zdotaccent" unicode="&#x17c;" horiz-adv-x="870" 
d="M47 0v159l501 615h-467v168h731v-146l-503 -628h529v-168h-791zM541 1311v-205h-203v205h203z" />
    <glyph glyph-name="Zcaron" unicode="&#x17d;" horiz-adv-x="1098" 
d="M87 0v186l657 986h-606v193h875v-181l-661 -991h677v-193h-942zM293 1734h180l100 -148l100 148h181l-183 -259h-195z" />
    <glyph glyph-name="zcaron" unicode="&#x17e;" horiz-adv-x="870" 
d="M47 0v159l501 615h-467v168h731v-146l-503 -628h529v-168h-791zM180 1365h178l89 -153l93 153h166l-168 -273h-189z" />
    <glyph glyph-name="longs" unicode="&#x17f;" horiz-adv-x="598" 
d="M198 0v1071q0 166 51 232q71 93 225 93q41 0 112 -13v-168q-49 13 -81 13q-62 0 -84 -33.5t-22 -127.5v-1067h-201z" />
    <glyph glyph-name="uni01CD" unicode="&#x1cd;" 
d="M462 1365h235l438 -1365h-236l-107 366h-431l-108 -366h-231zM414 546h325l-161 552zM298 1734h180l100 -148l100 148h181l-183 -259h-195z" />
    <glyph glyph-name="uni01CE" unicode="&#x1ce;" horiz-adv-x="1000" 
d="M952 142v-142q-61 -25 -133 -25q-62 0 -94.5 23.5t-51.5 84.5q-110 -112 -288 -112q-128 0 -214 64q-106 77 -106 212q0 147 118 232q69 49 163 67t310 24v78q0 167 -179 167q-91 0 -127.5 -24t-44.5 -89h-203q16 269 388 269q208 0 307 -111q40 -44 52 -98t12 -187v-356
q0 -53 10 -70.5t39 -17.5q18 0 42 11zM656 454q-135 -6 -212 -24q-78 -18 -121 -61q-49 -49 -49 -114q0 -61 42.5 -96.5t116.5 -35.5q118 0 182 104q41 69 41 152v75zM243 1365h178l89 -153l93 153h166l-168 -273h-189z" />
    <glyph glyph-name="uni01D3" unicode="&#x1d3;" horiz-adv-x="1258" 
d="M149 1365h225v-781q0 -129 11.5 -199t40.5 -119q63 -107 207 -107q141 0 195.5 93t54.5 332v781h225v-772q0 -171 -18 -256q-81 -370 -461 -370q-278 0 -400 205q-44 74 -62 169t-18 256v768zM348 1734h180l100 -148l100 148h181l-183 -259h-195z" />
    <glyph glyph-name="uni01D4" unicode="&#x1d4;" horiz-adv-x="1044" 
d="M913 0h-189v119q-104 -148 -287 -148q-189 0 -267 132q-25 44 -35 95t-10 142v602h201v-549q0 -108 16 -158q14 -44 52 -69q42 -27 100 -27q64 0 115.5 34t75.5 91q27 67 27 205v473h201v-942zM256 1365h178l89 -153l93 153h166l-168 -273h-189z" />
    <glyph glyph-name="Gcaron" unicode="&#x1e6;" horiz-adv-x="1326" 
d="M1177 0h-173v158q-84 -105 -164.5 -148t-191.5 -43q-219 0 -362 158q-183 202 -183 548q0 336 174 543q152 181 396 181q267 0 408 -221q69 -107 82 -247h-218q-18 111 -71 179q-77 96 -206 96q-156 0 -243 -135q-97 -148 -97 -393q0 -261 111 -404q86 -112 234 -112
q196 0 270 205q24 65 30 180h-301v184h505v-729zM391 1734h180l100 -148l100 148h181l-183 -259h-195z" />
    <glyph glyph-name="gcaron" unicode="&#x1e7;" horiz-adv-x="1055" 
d="M99 -107h208q8 -37 25 -54q48 -45 158 -45q116 0 171 74t55 230v49q-88 -139 -265 -139q-176 0 -282 126q-107 130 -107 347q0 225 113 357q113 133 294 133q173 0 267 -139v110h189v-763q0 -144 -16.5 -225.5t-59.5 -144.5q-110 -164 -358 -164q-184 0 -283 63t-109 185
zM492 801q-100 0 -157 -75q-68 -89 -68 -242q0 -158 78 -243q60 -65 147 -65q99 0 158 78q71 92 71 242q0 160 -80 243q-60 62 -149 62zM253 1365h178l89 -153l93 153h166l-168 -273h-189z" />
    <glyph glyph-name="uni01F5" unicode="&#x1f5;" horiz-adv-x="1055" 
d="M99 -107h208q8 -37 25 -54q48 -45 158 -45q116 0 171 74t55 230v49q-88 -139 -265 -139q-176 0 -282 126q-107 130 -107 347q0 225 113 357q113 133 294 133q173 0 267 -139v110h189v-763q0 -144 -16.5 -225.5t-59.5 -144.5q-110 -164 -358 -164q-184 0 -283 63t-109 185
zM492 801q-100 0 -157 -75q-68 -89 -68 -242q0 -158 78 -243q60 -65 147 -65q99 0 158 78q71 92 71 242q0 160 -80 243q-60 62 -149 62zM753 1365l-196 -273h-174l180 273h190z" />
    <glyph glyph-name="Scommaaccent" unicode="&#x218;" horiz-adv-x="1103" 
d="M97 417h234q4 -103 42 -164q63 -102 188 -102q105 0 164 70q47 56 47 134q0 115 -106 181q-50 31 -222 102q-135 56 -215 135q-102 101 -102 257q0 169 124 274q109 92 280 92q235 0 353 -156q67 -87 78 -237h-219q-8 87 -42 130q-54 70 -169 70q-82 0 -130 -40
q-57 -48 -57 -131q0 -81 56 -134t201 -110q124 -49 180 -79t100 -70q124 -115 124 -282q0 -165 -117 -274q-123 -116 -330 -116q-239 0 -365 160q-88 113 -97 290zM634 -94v-134q2 -216 -166 -232v77q68 15 75 110h-75v179h166z" />
    <glyph glyph-name="scommaaccent" unicode="&#x219;" horiz-adv-x="889" 
d="M61 267h212q12 -75 56 -109.5t126 -34.5q78 0 123 35.5t45 96.5q0 81 -93 121q-35 16 -177 47q-278 62 -278 274q0 121 94 197q95 77 254 77q216 0 314 -125q44 -56 53 -145h-212q-19 119 -159 119q-66 0 -105.5 -31t-39.5 -83t36.5 -79t136.5 -49q166 -37 228 -68
q153 -77 153 -234q0 -135 -105 -222q-99 -83 -274 -83q-343 0 -388 296zM530 -94v-134q2 -216 -166 -232v77q68 15 75 110h-75v179h166z" />
    <glyph glyph-name="uni021A" unicode="&#x21a;" horiz-adv-x="1054" 
d="M415 0v1172h-356v193h936v-193h-355v-1172h-225zM610 -94v-134q2 -216 -166 -232v77q68 15 75 110h-75v179h166z" />
    <glyph glyph-name="uni021B" unicode="&#x21b;" horiz-adv-x="588" 
d="M12 786v156h150v117l147 196h54v-313h175v-156h-174v-492q0 -83 12 -105q20 -38 84 -38q33 0 78 14v-165q-54 -21 -142 -21q-152 0 -203 88q-30 52 -30 207v512h-151zM439 -94v-134q2 -216 -166 -232v77q68 15 75 110h-75v179h166z" />
    <glyph glyph-name="dotlessj" unicode="&#x237;" horiz-adv-x="501" 
d="M-15 -349v166q33 -6 58 -6q60 0 80 34.5t20 138.5v958h201v-931q0 -186 -32 -251q-27 -53 -87.5 -84t-139.5 -31q-38 0 -82 4z" />
    <glyph glyph-name="afii57929" unicode="&#x2bc;" horiz-adv-x="598" 
d="M422 1365v-171q0 -111 -21 -175t-73 -111q-59 -54 -152 -76v119q107 27 111 168h-111v246h246z" />
    <glyph glyph-name="uni037E" unicode="&#x37e;" horiz-adv-x="598" 
d="M422 246v-171q0 -111 -21 -175t-73 -111q-59 -54 -152 -76v119q107 27 111 168h-111v246h246zM422 942v-246h-246v246h246z" />
    <glyph glyph-name="anoteleia" unicode="&#x387;" horiz-adv-x="598" 
d="M422 601v-246h-246v246h246z" />
    <glyph glyph-name="afii10023" unicode="&#x401;" horiz-adv-x="1118" 
d="M171 0v1365h823v-193h-598v-370h553v-193h-553v-416h608v-193h-833zM846 1652v-205h-192v205h192zM521 1652v-205h-192v205h192z" />
    <glyph glyph-name="afii10051" unicode="&#x402;" horiz-adv-x="1236" 
d="M614 -17q47 -16 82 -16q108 0 162 102q58 109 58 308q0 426 -214 426q-135 0 -176 -147q-19 -69 -19 -193v-463h-225v1172h-256v193h936v-193h-455v-341q92 140 253 140q120 0 202 -76q76 -71 117.5 -203.5t41.5 -307.5q0 -319 -150 -475q-104 -108 -248 -108
q-56 0 -109 15v167z" />
    <glyph glyph-name="afii10052" unicode="&#x403;" horiz-adv-x="1035" 
d="M171 1365h790v-193h-565v-1172h-225v1365zM803 1734l-185 -259h-171l170 259h186z" />
    <glyph glyph-name="afii10053" unicode="&#x404;" horiz-adv-x="1236" 
d="M336 802h440v-193h-445q11 -141 52 -241q84 -208 267 -208q240 0 280 363h221q-11 -208 -117 -358q-139 -198 -384 -198q-244 0 -387 181q-160 203 -160 531q0 283 130 481q154 236 426 236q244 0 387 -199q84 -116 97 -269h-221q-20 110 -70 176q-76 100 -198 100
q-262 0 -318 -402z" />
    <glyph glyph-name="afii10054" unicode="&#x405;" horiz-adv-x="1103" 
d="M97 417h234q4 -103 42 -164q63 -102 188 -102q105 0 164 70q47 56 47 134q0 115 -106 181q-50 31 -222 102q-135 56 -215 135q-102 101 -102 257q0 169 124 274q109 92 280 92q235 0 353 -156q67 -87 78 -237h-219q-8 87 -42 130q-54 70 -169 70q-82 0 -130 -40
q-57 -48 -57 -131q0 -81 56 -134t201 -110q124 -49 180 -79t100 -70q124 -115 124 -282q0 -165 -117 -274q-123 -116 -330 -116q-239 0 -365 160q-88 113 -97 290z" />
    <glyph glyph-name="afii10055" unicode="&#x406;" horiz-adv-x="566" 
d="M171 0v1365h225v-1365h-225z" />
    <glyph glyph-name="afii10056" unicode="&#x407;" horiz-adv-x="566" 
d="M171 0v1365h225v-1365h-225zM509 1652v-205h-192v205h192zM249 1652v-205h-192v205h192z" />
    <glyph glyph-name="afii10057" unicode="&#x408;" horiz-adv-x="675" 
d="M16 -19v199q66 -18 112 -18q121 0 156 115q11 38 13.5 74.5t3.5 168.5v845h225v-873q0 -151 -13 -226.5t-50 -138.5q-92 -160 -320 -160q-56 0 -127 14z" />
    <glyph glyph-name="afii10058" unicode="&#x409;" horiz-adv-x="1746" 
d="M1071 1365v-524h175q135 0 214.5 -24.5t137.5 -83.5q114 -114 114 -312q0 -220 -137 -335q-56 -47 -131 -66.5t-198 -19.5h-400v1172h-339l-87 -761q-14 -121 -27 -170.5t-43 -98.5q-98 -162 -318 -162h-8h-7v195q80 3 118 46t50 143l119 1001h767zM1071 642v-443h153
q132 0 184 40q79 61 79 182q0 131 -90 189q-50 32 -173 32h-153z" />
    <glyph glyph-name="afii10059" unicode="&#x40a;" horiz-adv-x="1815" 
d="M914 826v539h225v-539h175q135 0 214 -24t138 -82q114 -113 114 -307q0 -216 -137 -328q-56 -46 -131 -65.5t-198 -19.5h-400v633h-483v-633h-225v1365h225v-539h483zM1139 633v-434h153q132 0 184 39q79 60 79 178q0 129 -90 186q-50 31 -173 31h-153z" />
    <glyph glyph-name="afii10060" unicode="&#x40b;" horiz-adv-x="1204" 
d="M507 1172v-341q92 140 253 140q86 0 152.5 -37t100.5 -104q37 -71 37 -224v-606h-201v575q0 113 -23 157q-38 71 -128 71q-121 0 -168 -128q-23 -60 -23 -212v-463h-225v1172h-256v193h936v-193h-455z" />
    <glyph glyph-name="afii10061" unicode="&#x40c;" horiz-adv-x="1214" 
d="M163 0v1365h220v-571h81l460 571h239l-497 -635l546 -730h-240l-511 655h-78v-655h-220zM903 1734l-185 -259h-171l170 259h186z" />
    <glyph glyph-name="afii10062" unicode="&#x40e;" horiz-adv-x="1066" 
d="M425 380l-422 985h249l288 -754l291 754h245l-479 -1120q-71 -166 -140 -222t-202 -56q-61 0 -132 14v199q67 -18 110 -18q58 0 100.5 42t75.5 134zM268 1734h136q16 -71 46 -99t89 -28q60 0 90.5 28t46.5 99h136q-9 -77 -31 -123q-68 -143 -241 -143q-119 0 -187.5 67
t-84.5 199z" />
    <glyph glyph-name="afii10145" unicode="&#x40f;" horiz-adv-x="1301" 
d="M539 0h-368v1365h225v-1172h510v1172h225v-1365h-367v-205h-225v205z" />
    <glyph glyph-name="afii10017" unicode="&#x410;" 
d="M462 1365h235l438 -1365h-236l-107 366h-431l-108 -366h-231zM414 546h325l-161 552z" />
    <glyph glyph-name="afii10018" unicode="&#x411;" horiz-adv-x="1134" 
d="M961 1365v-193h-565v-331h202q135 0 214.5 -24t137.5 -84q114 -114 114 -312q0 -220 -137 -335q-56 -47 -131 -66.5t-198 -19.5h-427v1365h790zM396 642v-443h180q132 0 184 40q79 61 79 182q0 131 -90 189q-50 32 -173 32h-180z" />
    <glyph glyph-name="afii10019" unicode="&#x412;" horiz-adv-x="1219" 
d="M171 0v1365h455q129 0 206 -20t130 -67q102 -90 102 -244q0 -104 -49.5 -180t-145.5 -119q247 -72 247 -334q0 -133 -67 -234q-79 -118 -212 -151q-64 -16 -151 -16h-515zM396 797h189q112 0 158 18q45 18 71 64t26 107q0 133 -91 174q-38 17 -157 17h-196v-380zM396 188
h216q147 0 200 38q79 57 79 181q0 70 -28 121.5t-78 73.5q-47 21 -192 21h-197v-435z" />
    <glyph glyph-name="afii10020" unicode="&#x413;" horiz-adv-x="1035" 
d="M171 1365h790v-193h-565v-1172h-225v1365z" />
    <glyph glyph-name="afii10021" unicode="&#x414;" horiz-adv-x="1273" 
d="M1119 193h137v-398h-225v205h-807v-205h-225v398h40q77 0 116.5 44t51.5 144l118 984h794v-1172zM894 193v979h-366l-87 -744q-12 -98 -26.5 -145t-47.5 -90h527z" />
    <glyph glyph-name="afii10022" unicode="&#x415;" horiz-adv-x="1118" 
d="M171 0v1365h823v-193h-598v-370h553v-193h-553v-416h608v-193h-833z" />
    <glyph glyph-name="afii10024" unicode="&#x416;" horiz-adv-x="1887" 
d="M1056 655v-655h-220v655h-83l-512 -655h-239l546 730l-497 635h239l459 -571h87v571h220v-571h82l459 571h239l-497 -635l546 -730h-240l-511 655h-78z" />
    <glyph glyph-name="afii10025" unicode="&#x417;" horiz-adv-x="1153" 
d="M460 609v193h138q105 0 168 46q79 58 79 160q0 88 -64 142t-169 54q-249 0 -297 -276h-222q18 215 165 347q136 121 362 121q216 0 327 -92q125 -103 125 -275q0 -121 -66 -204t-189 -116q256 -68 256 -321q0 -177 -125 -297q-131 -124 -347 -124q-281 0 -422 232
q-86 142 -94 324h221q17 -151 64 -233q74 -130 233 -130q110 0 177 69q66 68 66 169q0 102 -64 156.5t-185 54.5h-137z" />
    <glyph glyph-name="afii10026" unicode="&#x418;" horiz-adv-x="1289" 
d="M171 1365h209v-917l530 809v108h209v-1365h-209v913l-530 -813v-100h-209v1365z" />
    <glyph glyph-name="afii10027" unicode="&#x419;" horiz-adv-x="1289" 
d="M171 1365h209v-917l530 809v108h209v-1365h-209v913l-530 -813v-100h-209v1365zM373 1734h136q16 -71 46 -99t89 -28q60 0 90.5 28t46.5 99h136q-9 -77 -31 -123q-68 -143 -241 -143q-119 0 -187.5 67t-84.5 199z" />
    <glyph glyph-name="afii10028" unicode="&#x41a;" horiz-adv-x="1214" 
d="M163 0v1365h220v-571h81l460 571h239l-497 -635l546 -730h-240l-511 655h-78v-655h-220z" />
    <glyph glyph-name="afii10029" unicode="&#x41b;" horiz-adv-x="1269" 
d="M507 1172l-88 -762q-14 -120 -26.5 -169.5t-42.5 -98.5q-98 -162 -318 -162h-8h-7v195q80 3 118 46t50 142l119 1002h794v-1365h-225v1172h-366z" />
    <glyph glyph-name="afii10030" unicode="&#x41c;" horiz-adv-x="1546" 
d="M171 0v1365h302l305 -1064l295 1064h302v-1365h-209v1080l-292 -1080h-190l-304 1067v-1067h-209z" />
    <glyph glyph-name="afii10031" unicode="&#x41d;" horiz-adv-x="1301" 
d="M171 0v1365h225v-552h510v552h225v-1365h-225v620h-510v-620h-225z" />
    <glyph glyph-name="afii10032" unicode="&#x41e;" horiz-adv-x="1320" 
d="M662 1396q238 0 391 -186q164 -202 164 -527q0 -284 -126 -479q-75 -116 -191 -178q-109 -59 -238 -59q-279 0 -436 241q-123 189 -123 484q0 320 160 513q158 191 399 191zM660 1204q-150 0 -239 -139q-93 -145 -93 -371q0 -237 84 -383q40 -70 108 -111t144 -41
q66 0 126.5 33t99.5 91q102 151 102 401q0 233 -90 377q-89 143 -242 143z" />
    <glyph glyph-name="afii10033" unicode="&#x41f;" horiz-adv-x="1301" 
d="M1131 1365v-1365h-225v1172h-510v-1172h-225v1365h960z" />
    <glyph glyph-name="afii10034" unicode="&#x420;" horiz-adv-x="1143" 
d="M171 0v1365h427q135 0 214.5 -24t137.5 -84q114 -114 114 -309q0 -222 -139 -337q-56 -46 -125 -66t-175 -20h-229v-525h-225zM396 717h198q128 0 181 51q64 63 64 177q0 131 -90 189q-50 32 -173 32h-180v-449z" />
    <glyph glyph-name="afii10035" unicode="&#x421;" horiz-adv-x="1236" 
d="M929 523h222q-11 -208 -117 -358q-139 -198 -385 -198q-243 0 -386 181q-160 203 -160 531q0 283 130 481q154 236 426 236q244 0 387 -199q83 -116 97 -269h-222q-19 110 -69 176q-77 100 -199 100q-153 0 -234 -138q-91 -156 -91 -386q0 -225 87 -379q80 -141 234 -141
q241 0 280 363z" />
    <glyph glyph-name="afii10036" unicode="&#x422;" horiz-adv-x="1053" 
d="M415 0v1172h-356v193h936v-193h-355v-1172h-225z" />
    <glyph glyph-name="afii10037" unicode="&#x423;" horiz-adv-x="1066" 
d="M425 380l-422 985h249l288 -754l291 754h245l-479 -1120q-71 -166 -140 -222t-202 -56q-61 0 -132 14v199q67 -18 110 -18q58 0 100.5 42t75.5 134z" />
    <glyph glyph-name="afii10038" unicode="&#x424;" horiz-adv-x="1647" 
d="M936 160v-160h-225v160q-139 5 -239 31q-118 30 -211 107q-164 136 -164 384q0 247 164 384q83 69 185.5 100t264.5 38v161h225v-161q139 -6 239 -31q117 -30 211 -107q164 -137 164 -384q0 -248 -164 -384q-83 -69 -185.5 -100.5t-264.5 -37.5zM711 352v659
q-157 -6 -239 -51q-150 -82 -150 -278q0 -161 95 -241.5t294 -88.5zM936 1011v-659q157 7 239 51q150 83 150 279q0 161 -95 241t-294 88z" />
    <glyph glyph-name="afii10039" unicode="&#x425;" horiz-adv-x="1087" 
d="M11 0l407 709l-378 656h257l250 -480l257 480h244l-376 -656l405 -709h-263l-273 514l-280 -514h-250z" />
    <glyph glyph-name="afii10040" unicode="&#x426;" horiz-adv-x="1285" 
d="M1131 193h137v-398h-225v205h-872v1365h225v-1172h510v1172h225v-1172z" />
    <glyph glyph-name="afii10041" unicode="&#x427;" horiz-adv-x="1303" 
d="M907 515q-112 -71 -290 -71q-275 0 -403 165q-82 107 -82 300v456h225v-454q0 -142 70.5 -208.5t220.5 -66.5q139 0 199 64t60 211v454h225v-26v-1339h-225v515z" />
    <glyph glyph-name="afii10042" unicode="&#x428;" horiz-adv-x="1818" 
d="M1648 0h-1477v1365h225v-1172h401v1172h225v-1172h401v1172h225v-1365z" />
    <glyph glyph-name="afii10043" unicode="&#x429;" horiz-adv-x="1802" 
d="M1648 192h137v-397h-225v205h-1389v1365h225v-1173h401v1173h225v-1173h401v1173h225v-1173z" />
    <glyph glyph-name="afii10044" unicode="&#x42a;" horiz-adv-x="1253" 
d="M17 1365h498v-524h202q135 0 214.5 -24t137.5 -84q114 -114 114 -312q0 -220 -137 -335q-56 -47 -131 -66.5t-198 -19.5h-427v1172h-273v193zM515 642v-443h180q132 0 184 40q79 61 79 182q0 131 -90 189q-50 32 -173 32h-180z" />
    <glyph glyph-name="afii10045" unicode="&#x42b;" horiz-adv-x="1563" 
d="M171 1365h225v-524h202q135 0 214.5 -24t137.5 -84q114 -114 114 -312q0 -220 -137 -335q-56 -47 -131 -66.5t-198 -19.5h-427v1365zM396 642v-443h180q132 0 184 40q79 61 79 182q0 131 -90 189q-50 32 -173 32h-180zM1168 0v1365h225v-1365h-225z" />
    <glyph glyph-name="afii10046" unicode="&#x42c;" horiz-adv-x="1134" 
d="M171 1365h225v-524h202q135 0 214.5 -24t137.5 -84q114 -114 114 -312q0 -220 -137 -335q-56 -47 -131 -66.5t-198 -19.5h-427v1365zM396 642v-443h180q132 0 184 40q79 61 79 182q0 131 -90 189q-50 32 -173 32h-180z" />
    <glyph glyph-name="afii10047" unicode="&#x42d;" horiz-adv-x="1236" 
d="M900 802q-56 402 -318 402q-106 0 -175 -71.5t-92 -204.5h-222q15 171 118 296q141 172 366 172q272 0 426 -236q130 -198 130 -481q0 -328 -160 -531q-143 -181 -387 -181q-266 0 -407 232q-86 142 -94 324h221q40 -363 280 -363q136 0 219 116.5t100 332.5h-445v193
h440z" />
    <glyph glyph-name="afii10048" unicode="&#x42e;" horiz-adv-x="1831" 
d="M622 813q23 184 94 307q80 138 204 210q115 66 254 66q240 0 391 -186q164 -204 164 -527q0 -284 -126 -479q-75 -116 -191 -178q-109 -59 -240 -59q-237 0 -387.5 176.5t-167.5 476.5h-221v-620h-225v1365h225v-552h226zM1172 1204q-150 0 -240 -139q-93 -144 -93 -370
q0 -238 84 -383q40 -70 108 -111t144 -41q67 0 127 33t100 91q102 151 102 400q0 234 -90 378q-89 142 -242 142z" />
    <glyph glyph-name="afii10049" unicode="&#x42f;" horiz-adv-x="1288" 
d="M1092 0h-225v564h-200q-89 0 -138 -18t-77 -61q-26 -41 -37.5 -100t-18.5 -182q-5 -96 -11.5 -131.5t-24.5 -71.5h-237q30 39 39 71q14 55 30 256q8 98 22 149t47 95q41 56 126 80q-221 87 -221 337q0 203 146 308q96 69 275 69h505v-1365zM867 739v438h-224
q-120 0 -172 -36q-80 -55 -80 -179q0 -140 94 -194q51 -29 184 -29h198z" />
    <glyph glyph-name="afii10065" unicode="&#x430;" horiz-adv-x="1000" 
d="M952 142v-142q-61 -25 -133 -25q-62 0 -94.5 23.5t-51.5 84.5q-110 -112 -288 -112q-128 0 -214 64q-106 77 -106 212q0 147 118 232q69 49 163 67t310 24v78q0 167 -179 167q-91 0 -127.5 -24t-44.5 -89h-203q16 269 388 269q208 0 307 -111q40 -44 52 -98t12 -187v-356
q0 -53 10 -70.5t39 -17.5q18 0 42 11zM656 454q-135 -6 -212 -24q-78 -18 -121 -61q-49 -49 -49 -114q0 -61 42.5 -96.5t116.5 -35.5q118 0 182 104q41 69 41 152v75z" />
    <glyph glyph-name="afii10066" unicode="&#x431;" horiz-adv-x="1035" 
d="M668 1421h167v-39v-43q0 -66 -12.5 -105t-42.5 -67q-47 -45 -161 -64q-124 -22 -172 -52q-48 -31 -95 -119q90 40 185 40q209 0 332 -159q103 -134 103 -342q0 -216 -109 -349q-123 -150 -333 -150q-220 0 -340 163q-98 134 -98 362q0 274 75 464q82 209 305 279
q42 14 148 32q34 6 41.5 25t6.5 103v21zM529 812q-109 0 -176 -84q-76 -96 -76 -252q0 -157 68 -253q65 -92 185 -92q107 0 169 84q69 96 69 257q0 162 -72 256q-63 84 -167 84z" />
    <glyph glyph-name="afii10067" unicode="&#x432;" horiz-adv-x="952" 
d="M134 0v942h446q110 0 177 -35q112 -60 112 -193q0 -154 -166 -204q200 -55 200 -236q0 -155 -136 -232q-43 -24 -90 -33t-134 -9h-409zM335 410v-242h186q174 0 174 121t-167 121h-193zM335 774v-196h190q58 0 92.5 27t34.5 73q0 96 -122 96h-195z" />
    <glyph glyph-name="afii10068" unicode="&#x433;" horiz-adv-x="772" 
d="M342 774v-774h-201v942h633v-168h-432z" />
    <glyph glyph-name="afii10069" unicode="&#x434;" horiz-adv-x="1028" 
d="M917 168h109v-373h-201v205h-637v-205h-201v373h24q62 0 94.5 36t41.5 118l74 620h696v-774zM716 168v606h-303l-57 -416q-10 -76 -25.5 -117t-46.5 -73h432z" />
    <glyph glyph-name="afii10070" unicode="&#x435;" horiz-adv-x="986" 
d="M922 420h-644q2 -89 27 -150q59 -144 212 -144q145 0 177 121h203q-14 -74 -54 -127q-111 -149 -333 -149q-210 0 -331 143q-114 135 -114 347q0 216 117 361q120 149 315 149q198 0 311.5 -147t113.5 -404zM708 561q-6 81 -36 139q-60 115 -177 115q-112 0 -169 -102
q-34 -61 -45 -152h427z" />
    <glyph glyph-name="afii10072" unicode="&#x436;" horiz-adv-x="1413" 
d="M610 432h-57l-362 -432h-214l408 500l-380 442h213l331 -385h61v385h197v-385h60l333 386h213l-382 -443l407 -500h-214l-361 432h-56v-432h-197v432z" />
    <glyph glyph-name="afii10073" unicode="&#x437;" horiz-adv-x="912" 
d="M366 572h93q83 0 130 30.5t47 84.5t-42.5 85t-118.5 31q-170 0 -200 -156h-212q17 159 123.5 241.5t294.5 82.5q155 0 248 -58q111 -69 111 -196q0 -84 -49 -139.5t-139 -72.5q211 -56 211 -239q0 -134 -103.5 -214.5t-275.5 -80.5q-189 0 -299.5 92t-134.5 270h211
q29 -194 219 -194q79 0 128.5 37.5t49.5 97.5q0 63 -50 96.5t-144 33.5h-98v168z" />
    <glyph glyph-name="afii10074" unicode="&#x438;" horiz-adv-x="1050" 
d="M335 373l383 504v65h201v-942h-201v569l-383 -504v-65h-204v942h204v-569z" />
    <glyph glyph-name="afii10075" unicode="&#x439;" horiz-adv-x="1050" 
d="M335 373l383 504v65h201v-942h-201v569l-383 -504v-65h-204v942h204v-569zM796 1365q-38 -273 -272 -273t-271 273h137q24 -138 134 -138q111 0 135 138h137z" />
    <glyph glyph-name="afii10076" unicode="&#x43a;" horiz-adv-x="956" 
d="M125 0v942h197v-385h76l320 386h216l-385 -443l410 -500h-216l-349 432h-72v-432h-197z" />
    <glyph glyph-name="afii10077" unicode="&#x43b;" horiz-adv-x="1029" 
d="M402 774l-55 -442q-19 -157 -61 -220q-88 -132 -280 -132h-7h-6v161q70 3 103.5 38.5t43.5 115.5l76 647h682v-942h-201v774h-295z" />
    <glyph glyph-name="afii10078" unicode="&#x43c;" horiz-adv-x="1233" 
d="M124 0v942h295l201 -680l194 680h295v-942h-197v690l-192 -690h-198l-201 680v-680h-197z" />
    <glyph glyph-name="afii10079" unicode="&#x43d;" horiz-adv-x="1050" 
d="M332 410v-410h-201v942h201v-364h386v364h201v-942h-201v410h-386z" />
    <glyph glyph-name="afii10080" unicode="&#x43e;" horiz-adv-x="1028" 
d="M516 971q205 0 329 -137q120 -133 120 -363q0 -245 -136 -380q-120 -120 -312 -120q-216 0 -337 143q-117 138 -117 364q0 205 110 340q124 153 343 153zM515 803q-111 0 -177 -85q-70 -91 -70 -242q0 -165 69 -253q66 -84 180 -84q104 0 167 74q76 90 76 260
q0 157 -67 244q-67 86 -178 86z" />
    <glyph glyph-name="afii10081" unicode="&#x43f;" horiz-adv-x="1050" 
d="M332 774v-774h-201v942h788v-942h-201v774h-386z" />
    <glyph glyph-name="afii10082" unicode="&#x440;" horiz-adv-x="1075" 
d="M129 -355v1297h203v-106q97 135 284 135q188 0 295 -147q102 -142 102 -354q0 -230 -114 -364q-115 -135 -298 -135q-178 0 -271 133v-459h-201zM570 803q-110 0 -174.5 -88.5t-64.5 -239.5q0 -165 67 -252q65 -84 173 -84q107 0 169 84q68 92 68 244q0 144 -61 238
q-64 98 -177 98z" />
    <glyph glyph-name="afii10083" unicode="&#x441;" horiz-adv-x="960" 
d="M701 333h211q-20 -145 -101 -236q-112 -126 -306 -126q-190 0 -306 119q-133 137 -133 374q0 222 113 357q125 150 335 150q162 0 265.5 -87t119.5 -237h-212q-15 75 -61.5 115.5t-118.5 40.5q-115 0 -177 -96q-59 -91 -59 -240q0 -152 63 -243q59 -85 167 -85
q82 0 134 50.5t66 143.5z" />
    <glyph glyph-name="afii10084" unicode="&#x442;" horiz-adv-x="726" 
d="M464 786v-786h-201v786h-259v156h719v-156h-259z" />
    <glyph glyph-name="afii10085" unicode="&#x443;" horiz-adv-x="877" 
d="M83 -344v172q75 -13 106 -13q65 0 96 67q41 84 51 139l-341 921h232l221 -689l212 689h222l-324 -922q-77 -219 -126 -281q-74 -94 -208 -94q-55 0 -141 11z" />
    <glyph glyph-name="afii10086" unicode="&#x444;" horiz-adv-x="1344" 
d="M770 -355h-197v403q-36 -44 -75 -60.5t-106 -16.5q-166 0 -262 140q-98 142 -98 361q0 209 92 349q99 150 268 150q66 0 105.5 -17t75.5 -61v472h197v-472q15 18 29 32q49 46 152 46q169 0 268 -150q92 -140 92 -349q0 -219 -98 -361q-96 -140 -262 -140q-67 0 -106 16.5
t-75 60.5v-403zM406 803q-79 0 -124 -85q-49 -93 -49 -242q0 -162 48 -253q45 -84 126 -84q78 0 122 89t44 245t-46 244q-45 86 -121 86zM937 803q-77 0 -122 -88.5t-45 -241.5q0 -167 52 -260q42 -74 114 -74q82 0 128 89t46 248q0 151 -49 242q-46 85 -124 85z" />
    <glyph glyph-name="afii10087" unicode="&#x445;" horiz-adv-x="888" 
d="M-14 0l328 496l-302 446h253l176 -281l181 281h243l-300 -436l337 -506h-254l-208 339l-207 -339h-247z" />
    <glyph glyph-name="afii10088" unicode="&#x446;" horiz-adv-x="1030" 
d="M918 168h109v-373h-201v205h-695v942h201v-774h382v774h204v-774z" />
    <glyph glyph-name="afii10089" unicode="&#x447;" horiz-adv-x="1045" 
d="M914 0h-201v367q-103 -48 -265 -48q-221 0 -313 103q-29 32 -40.5 72.5t-11.5 111.5v336h201v-283q0 -77 20 -107q20 -29 69 -47t109 -18q152 0 204 94q27 49 27 154v207h201v-942z" />
    <glyph glyph-name="afii10090" unicode="&#x448;" horiz-adv-x="1368" 
d="M784 168h264v774h201v-942h-1131v942h201v-774h264v774h201v-774z" />
    <glyph glyph-name="afii10091" unicode="&#x449;" horiz-adv-x="1354" 
d="M1156 0h-1038v942h201v-774h263v774h201v-774h264v774h201v-774h109v-373h-201v205z" />
    <glyph glyph-name="afii10092" unicode="&#x44a;" horiz-adv-x="958" 
d="M-11 942h429v-348h188q359 0 359 -291q0 -150 -106 -233q-50 -39 -107.5 -54.5t-154.5 -15.5h-380v774h-228v168zM418 426v-258h140q202 0 202 131q0 73 -59 106q-40 21 -128 21h-155z" />
    <glyph glyph-name="afii10093" unicode="&#x44b;" horiz-adv-x="1286" 
d="M323 594h187q357 0 357 -291q0 -151 -105 -233q-50 -39 -107 -54.5t-154 -15.5h-379v942h201v-348zM323 426v-258h140q184 0 184 131q0 67 -40 97t-130 30h-154zM962 0v942h203v-942h-203z" />
    <glyph glyph-name="afii10094" unicode="&#x44c;" horiz-adv-x="883" 
d="M338 594h189q361 0 361 -291q0 -151 -106 -233q-50 -39 -108 -54.5t-156 -15.5h-381v942h201v-348zM338 426v-258h141q188 0 188 131q0 73 -55 106q-36 21 -118 21h-156z" />
    <glyph glyph-name="afii10095" unicode="&#x44d;" horiz-adv-x="960" 
d="M668 572q-9 57 -31 103q-60 128 -189 128q-70 0 -115.5 -40.5t-59.5 -115.5h-212q14 131 93 212q108 112 293 112q209 0 334 -150q113 -135 113 -357q0 -237 -133 -374q-115 -119 -306 -119q-208 0 -321 144q-68 87 -86 218h211q13 -93 64 -143.5t131 -50.5
q190 0 220 265h-310v168h304z" />
    <glyph glyph-name="afii10096" unicode="&#x44e;" horiz-adv-x="1393" 
d="M440 578q16 101 62 181q121 212 388 212q208 0 332 -137q122 -134 122 -364q0 -242 -137 -379q-120 -120 -317 -120q-285 0 -402 236q-42 85 -53 203h-117v-410h-201v942h201v-364h122zM895 803q-109 0 -174 -85q-70 -91 -70 -242q0 -165 68 -253q66 -84 179 -84
q103 0 165 74q76 90 76 260q0 156 -67 243q-66 87 -177 87z" />
    <glyph glyph-name="afii10097" unicode="&#x44f;" horiz-adv-x="976" 
d="M642 349h-123q-75 0 -111 -13.5t-56 -48.5q-20 -36 -27 -143q-7 -116 -27 -144h-231q24 22 33 58t21 168q6 66 19 99t42 57q39 34 133 47q-222 42 -222 239q0 135 106 210q89 64 263 64h381v-942h-201v349zM642 517v257h-142q-186 0 -186 -131q0 -73 54 -105
q37 -21 118 -21h156z" />
    <glyph glyph-name="afii10071" unicode="&#x451;" horiz-adv-x="986" 
d="M922 420h-644q2 -89 27 -150q59 -144 212 -144q145 0 177 121h203q-14 -74 -54 -127q-111 -149 -333 -149q-210 0 -331 143q-114 135 -114 347q0 216 117 361q120 149 315 149q198 0 311.5 -147t113.5 -404zM708 561q-6 81 -36 139q-60 115 -177 115q-112 0 -169 -102
q-34 -61 -45 -152h427zM768 1311v-205h-203v205h203zM412 1311v-205h-192v205h192z" />
    <glyph glyph-name="afii10099" unicode="&#x452;" horiz-adv-x="998" 
d="M317 0h-201v1138h-122v129h122v98h201v-98h236v-129h-236v-307q92 140 251 140q151 0 246 -115q120 -147 120 -442q0 -305 -130 -469q-118 -148 -297 -148q-50 0 -118 16v167q53 -17 93 -17q93 0 153 77q94 118 94 364q0 191 -54.5 295t-155.5 104q-61 0 -109 -34
t-70 -94q-23 -61 -23 -212v-463z" />
    <glyph glyph-name="afii10100" unicode="&#x453;" horiz-adv-x="772" 
d="M342 774v-774h-201v942h633v-168h-432zM723 1365l-196 -273h-174l180 273h190z" />
    <glyph glyph-name="afii10101" unicode="&#x454;" horiz-adv-x="960" 
d="M292 572h304v-168h-310q30 -265 220 -265q80 0 130.5 50.5t64.5 143.5h211q-21 -145 -101 -236q-112 -126 -306 -126q-191 0 -306 119q-133 137 -133 374q0 222 113 357q125 150 334 150q163 0 266.5 -87t119.5 -237h-213q-13 75 -58.5 115.5t-115.5 40.5
q-178 0 -220 -231z" />
    <glyph glyph-name="afii10102" unicode="&#x455;" horiz-adv-x="890" 
d="M67 267h212q12 -75 56 -109.5t126 -34.5q78 0 123 35.5t45 96.5q0 81 -93 121q-35 16 -177 47q-278 62 -278 274q0 121 94 197q95 77 254 77q216 0 314 -125q44 -56 53 -145h-212q-19 119 -159 119q-66 0 -105.5 -31t-39.5 -83t36.5 -79t136.5 -49q166 -37 228 -68
q153 -77 153 -234q0 -135 -105 -222q-99 -83 -274 -83q-343 0 -388 296z" />
    <glyph glyph-name="afii10103" unicode="&#x456;" horiz-adv-x="528" 
d="M157 1160v205h213v-205h-213zM157 0v942h201v-942h-201z" />
    <glyph glyph-name="afii10104" unicode="&#x457;" horiz-adv-x="531" 
d="M166 0v942h201v-942h-201zM488 1311v-205h-174v205h174zM209 1311v-205h-165v205h165z" />
    <glyph glyph-name="afii10105" unicode="&#x458;" horiz-adv-x="501" 
d="M-15 -349v166q31 -6 53 -6q56 0 74.5 34.5t18.5 138.5v958h201v-931q0 -186 -31 -251q-26 -53 -84.5 -84t-135.5 -31q-35 0 -79 4zM131 1160v205h213v-205h-213z" />
    <glyph glyph-name="afii10106" unicode="&#x459;" horiz-adv-x="1337" 
d="M857 594h158q356 0 356 -291q0 -150 -105 -233q-50 -39 -107 -54.5t-153 -15.5h-350v774h-264l-54 -442q-20 -157 -61 -220q-87 -132 -278 -132h-7h-6v161q70 3 103.5 38.5t42.5 115.5l75 647h650v-348zM857 426v-258h110q199 0 199 131q0 73 -58 106q-39 21 -126 21
h-125z" />
    <glyph glyph-name="afii10107" unicode="&#x45a;" horiz-adv-x="1353" 
d="M671 417h-351v-417h-201v942h201v-357h351v357h201v-357h158q357 0 357 -287q0 -148 -105 -229q-50 -39 -107.5 -54t-153.5 -15h-350v417zM872 417v-249h111q199 0 199 127q0 70 -59 101q-39 21 -126 21h-125z" />
    <glyph glyph-name="afii10108" unicode="&#x45b;" horiz-adv-x="1022" 
d="M116 1138h-123v129h123v98h201v-98h239v-129h-239v-307q102 140 270 140q91 0 162 -37t108 -104q39 -71 39 -224v-606h-202v575q0 114 -25 157q-42 71 -138 71q-111 0 -168 -96q-24 -40 -32 -92t-8 -161v-454h-207v1138z" />
    <glyph glyph-name="afii10109" unicode="&#x45c;" horiz-adv-x="956" 
d="M125 0v942h197v-385h76l320 386h216l-385 -443l410 -500h-216l-349 432h-72v-432h-197zM788 1365l-196 -273h-174l180 273h190z" />
    <glyph glyph-name="afii10110" unicode="&#x45e;" horiz-adv-x="877" 
d="M83 -344v172q75 -13 106 -13q65 0 96 67q41 84 51 139l-341 921h232l221 -689l212 689h222l-324 -922q-77 -219 -126 -281q-74 -94 -208 -94q-55 0 -141 11zM710 1365q-38 -273 -272 -273t-271 273h137q24 -138 134 -138q111 0 135 138h137z" />
    <glyph glyph-name="afii10193" unicode="&#x45f;" horiz-adv-x="1050" 
d="M633 0v-205h-217v205h-285v942h201v-774h386v774h201v-942h-286z" />
    <glyph glyph-name="afii10050" unicode="&#x490;" horiz-adv-x="1035" 
d="M961 1488v-316h-565v-1172h-225v1365h565v123h225z" />
    <glyph glyph-name="afii10098" unicode="&#x491;" horiz-adv-x="772" 
d="M774 1051v-277h-432v-774h-201v942h420v109h213z" />
    <glyph glyph-name="uni04C0" unicode="&#x4c0;" horiz-adv-x="566" 
d="M171 0v1365h225v-1365h-225z" />
    <glyph glyph-name="Wgrave" unicode="&#x1e80;" horiz-adv-x="1561" 
d="M329 0l-302 1365h228l196 -1055l218 1055h226l215 -1057l200 1057h224l-308 -1365h-229l-218 1055l-219 -1055h-231zM543 1734h187l169 -259h-171z" />
    <glyph glyph-name="wgrave" unicode="&#x1e81;" horiz-adv-x="1349" 
d="M303 0l-276 942h227l166 -688l148 688h214l156 -681l167 681h218l-275 -942h-218l-156 675l-151 -675h-220zM432 1365h190l180 -273h-174z" />
    <glyph glyph-name="Wacute" unicode="&#x1e82;" horiz-adv-x="1561" 
d="M329 0l-302 1365h228l196 -1055l218 1055h226l215 -1057l200 1057h224l-308 -1365h-229l-218 1055l-219 -1055h-231zM1018 1734l-185 -259h-171l170 259h186z" />
    <glyph glyph-name="wacute" unicode="&#x1e83;" horiz-adv-x="1349" 
d="M303 0l-276 942h227l166 -688l148 688h214l156 -681l167 681h218l-275 -942h-218l-156 675l-151 -675h-220zM931 1365l-196 -273h-174l180 273h190z" />
    <glyph glyph-name="Wdieresis" unicode="&#x1e84;" horiz-adv-x="1561" 
d="M329 0l-302 1365h228l196 -1055l218 1055h226l215 -1057l200 1057h224l-308 -1365h-229l-218 1055l-219 -1055h-231zM1044 1676v-205h-192v205h192zM719 1676v-205h-192v205h192z" />
    <glyph glyph-name="wdieresis" unicode="&#x1e85;" horiz-adv-x="1349" 
d="M303 0l-276 942h227l166 -688l148 688h214l156 -681l167 681h218l-275 -942h-218l-156 675l-151 -675h-220zM960 1311v-205h-203v205h203zM604 1311v-205h-192v205h192z" />
    <glyph glyph-name="uni1E9E" unicode="&#x1e9e;" horiz-adv-x="1162" 
d="M714 806q167 -11 258 -123q86 -108 86 -269q0 -224 -151 -336q-106 -78 -275 -78q-106 0 -193 35l75 171q55 -19 99 -19q97 0 158.5 66.5t61.5 172.5q0 121 -66.5 176.5t-210.5 55.5h-55v163l225 350l-157 2q-90 1 -142.5 -66t-52.5 -182v-925h-225v977q0 161 97 266
q112 122 289 122h422v-174z" />
    <glyph glyph-name="Ygrave" unicode="&#x1ef2;" horiz-adv-x="1068" 
d="M423 0v545l-428 820h253l291 -597l288 597h245l-424 -822v-543h-225zM287 1734h187l169 -259h-171z" />
    <glyph glyph-name="ygrave" unicode="&#x1ef3;" horiz-adv-x="931" 
d="M110 -344v172q75 -13 106 -13q65 0 96 67q41 84 51 139l-341 921h232l221 -689l212 689h222l-324 -922q-77 -219 -126 -281q-74 -94 -208 -94q-55 0 -141 11zM230 1365h190l180 -273h-174z" />
    <glyph glyph-name="uni2000" unicode="&#x2000;" horiz-adv-x="1348" 
 />
    <glyph glyph-name="uni2001" unicode="&#x2001;" horiz-adv-x="2679" 
 />
    <glyph glyph-name="uni2002" unicode="&#x2002;" horiz-adv-x="1348" 
 />
    <glyph glyph-name="uni2003" unicode="&#x2003;" horiz-adv-x="2679" 
 />
    <glyph glyph-name="uni2004" unicode="&#x2004;" horiz-adv-x="904" 
 />
    <glyph glyph-name="uni2005" unicode="&#x2005;" horiz-adv-x="682" 
 />
    <glyph glyph-name="uni2006" unicode="&#x2006;" horiz-adv-x="460" 
 />
    <glyph glyph-name="uni2007" unicode="&#x2007;" horiz-adv-x="1483" 
 />
    <glyph glyph-name="uni2008" unicode="&#x2008;" horiz-adv-x="730" 
 />
    <glyph glyph-name="uni2009" unicode="&#x2009;" horiz-adv-x="549" 
 />
    <glyph glyph-name="uni200A" unicode="&#x200a;" horiz-adv-x="283" 
 />
    <glyph glyph-name="uni200B" unicode="&#x200b;" horiz-adv-x="16" 
 />
    <glyph glyph-name="uni2010" unicode="&#x2010;" horiz-adv-x="453" 
d="M437 611v-197h-421v197h421z" />
    <glyph glyph-name="uni2011" unicode="&#x2011;" horiz-adv-x="453" 
d="M437 611v-197h-421v197h421z" />
    <glyph glyph-name="figuredash" unicode="&#x2012;" horiz-adv-x="1043" 
d="M891 611v-197h-739v197h739z" />
    <glyph glyph-name="afii00208" unicode="&#x2015;" horiz-adv-x="1529" 
d="M1374 611v-197h-1214v197h1214z" />
    <glyph glyph-name="quotereversed" unicode="&#x201b;" horiz-adv-x="531" 
 />
    <glyph glyph-name="uni203E" unicode="&#x203e;" horiz-adv-x="1065" 
d="M61 1648h942v-173h-942v173z" />
    <glyph glyph-name="zerosuperior" unicode="&#x2070;" horiz-adv-x="640" 
d="M318 1382q261 0 261 -428q0 -425 -257 -425q-262 0 -262 428q0 210 64 313q69 112 194 112zM319 1245q-58 0 -83.5 -69t-25.5 -224q0 -150 26.5 -218t84.5 -68t83 69t25 226q0 148 -26.5 216t-83.5 68z" />
    <glyph glyph-name="foursuperior" unicode="&#x2074;" horiz-adv-x="577" 
d="M313 546v194h-289v141l298 484h136v-491h94v-134h-94v-194h-145zM313 874v239l-140 -239h140z" />
    <glyph glyph-name="fivesuperior" unicode="&#x2075;" horiz-adv-x="629" 
d="M42 775h156q15 -108 106 -108q112 0 112 150q0 75 -30 116t-85 41q-61 0 -104 -70l-136 4l68 457h395v-140h-273l-22 -148q47 26 104 26q100 0 165 -72q71 -80 71 -205q0 -128 -73 -211q-76 -85 -200 -85q-80 0 -142 36.5t-91 100.5q-17 39 -21 108z" />
    <glyph glyph-name="sixsuperior" unicode="&#x2076;" horiz-adv-x="641" 
d="M567 1155h-154q-14 95 -79 95q-48 0 -73.5 -45.5t-40.5 -156.5q56 50 128 50q105 0 171 -81q62 -75 62 -195q0 -118 -61 -198q-73 -94 -192 -94q-127 0 -195 102q-73 110 -73 313q0 195 66 309q73 128 215 128q73 0 128 -37t80 -102q12 -30 18 -88zM324 966
q-46 0 -75 -40.5t-29 -106.5q0 -68 29.5 -110t76.5 -42q46 0 74 40.5t28 106.5q0 69 -28.5 110.5t-75.5 41.5z" />
    <glyph glyph-name="sevensuperior" unicode="&#x2077;" horiz-adv-x="554" 
d="M282 546h-168q2 161 68.5 344.5t175.5 328.5h-333v146h504v-127q-100 -108 -170 -303.5t-77 -388.5z" />
    <glyph glyph-name="eightsuperior" unicode="&#x2078;" horiz-adv-x="646" 
d="M170 988q-83 59 -83 175q0 98 65 158q67 61 174 61q104 0 168 -60t64 -156q0 -114 -83 -177q111 -59 111 -207q0 -104 -62 -172q-74 -80 -201 -80q-121 0 -194 71q-69 67 -69 177q0 143 110 210zM328 1249q-41 0 -65 -26.5t-24 -71.5q0 -49 24.5 -78.5t64.5 -29.5
t63.5 28.5t23.5 77.5q0 46 -23 73t-64 27zM323 922q-49 0 -79.5 -36t-30.5 -93q0 -61 30 -96t82 -35q108 0 108 126q0 61 -30 97.5t-80 36.5z" />
    <glyph glyph-name="ninesuperior" unicode="&#x2079;" horiz-adv-x="641" 
d="M74 760h154q13 -99 79 -99q89 0 114 203q-56 -50 -128 -50q-105 0 -171 81q-62 75 -62 195q0 119 61 198q73 94 192 94q127 0 195 -102q73 -110 73 -312q0 -195 -66 -310q-73 -129 -215 -129q-73 0 -128 37.5t-81 104.5q-12 32 -17 89zM315 1246q-46 0 -74 -40t-28 -106
q0 -70 28.5 -112t75.5 -42t75.5 41t28.5 108q0 68 -29 109.5t-77 41.5z" />
    <glyph glyph-name="parenleftsuperior" unicode="&#x207d;" horiz-adv-x="460" 
d="M238 1365h135l-16 -28q-121 -222 -121 -487t122 -480q1 -2 15 -29h-136q-5 9 -9 17q-79 145 -110.5 252.5t-31.5 234.5q0 141 41 281.5t111 238.5z" />
    <glyph glyph-name="parenrightsuperior" unicode="&#x207e;" horiz-adv-x="461" 
d="M87 1365h135q5 -8 8 -12q48 -69 90 -186q54 -153 54 -321q0 -172 -66 -336q-15 -37 -85 -169h-137q13 25 17 34q60 129 86 238.5t26 236.5q0 133 -26 245t-85 238z" />
    <glyph glyph-name="nsuperior" unicode="&#x207f;" horiz-adv-x="610" 
d="M61 546v575h145v-40q64 57 149 57q115 0 165 -85q28 -46 28 -144v-363h-146v333q0 61 -9 87q-15 45 -73 45q-72 0 -98 -63q-15 -35 -15 -113v-289h-146z" />
    <glyph glyph-name="zeroinferior" unicode="&#x2080;" horiz-adv-x="640" 
d="M318 836q261 0 261 -428q0 -425 -257 -425q-262 0 -262 428q0 210 64 313q69 112 194 112zM319 699q-58 0 -83.5 -69t-25.5 -224q0 -150 26.5 -218t84.5 -68t83 69t25 226q0 148 -26.5 216t-83.5 68z" />
    <glyph glyph-name="oneinferior" unicode="&#x2081;" horiz-adv-x="510" 
d="M180 0v569q-50 -30 -126 -30h-26v132q101 3 140 41q33 32 44 107h118v-819h-150z" />
    <glyph glyph-name="twoinferior" unicode="&#x2082;" horiz-adv-x="583" 
d="M550 141v-141h-537q0 129 31 198q48 106 236 219q119 74 119 172q0 49 -30.5 78.5t-81.5 29.5q-109 0 -109 -138h-165q0 83 31 143q34 64 97 99.5t143 35.5q122 0 198.5 -68t76.5 -177q0 -93 -50.5 -156.5t-199.5 -157.5q-108 -68 -126 -137h367z" />
    <glyph glyph-name="threeinferior" unicode="&#x2083;" horiz-adv-x="586" 
d="M188 580h-160q3 102 46 165q68 98 211 98q116 0 184 -66q66 -62 66 -159q0 -109 -93 -166q121 -65 121 -201q0 -116 -81 -190q-78 -71 -201 -71q-169 0 -238 125q-31 57 -31 132q0 6 1 24h160q2 -77 27 -108.5t83 -31.5q56 0 88 32.5t32 88.5q0 126 -126 126
q-13 0 -59 -2v126q23 -1 31 -1q64 0 93 25t29 81q0 44 -24.5 69.5t-67.5 25.5q-87 0 -91 -122z" />
    <glyph glyph-name="fourinferior" unicode="&#x2084;" horiz-adv-x="591" 
d="M317 0v194h-296v140l305 485h131v-493h99v-132h-99v-194h-140zM317 326v261l-153 -261h153z" />
    <glyph glyph-name="fiveinferior" unicode="&#x2085;" horiz-adv-x="629" 
d="M42 228h156q15 -109 106 -109q112 0 112 151q0 75 -30 116.5t-85 41.5q-35 0 -56.5 -14.5t-47.5 -55.5l-136 4l68 457h395v-140h-273l-22 -148q47 26 104 26q100 0 165 -72q71 -80 71 -206q0 -128 -73 -211q-76 -85 -200 -85q-79 0 -141.5 36.5t-91.5 100.5
q-17 39 -21 108z" />
    <glyph glyph-name="sixinferior" unicode="&#x2086;" horiz-adv-x="641" 
d="M567 609h-154q-14 95 -79 95q-48 0 -73.5 -45.5t-40.5 -156.5q56 50 128 50q105 0 171 -81q62 -75 62 -196q0 -118 -61 -198q-73 -94 -192 -94q-127 0 -195 102q-73 110 -73 313q0 195 66 309q73 129 215 129q73 0 128 -37t80 -102q12 -30 18 -88zM324 420
q-46 0 -75 -40.5t-29 -106.5q0 -69 29 -111t77 -42q46 0 74 40.5t28 107.5q0 69 -28.5 110.5t-75.5 41.5z" />
    <glyph glyph-name="seveninferior" unicode="&#x2087;" horiz-adv-x="554" 
d="M282 0h-168q2 161 68.5 344.5t175.5 328.5h-333v146h504v-127q-100 -108 -170 -303.5t-77 -388.5z" />
    <glyph glyph-name="eightinferior" unicode="&#x2088;" horiz-adv-x="646" 
d="M170 442q-83 59 -83 175q0 98 65 158q67 61 174 61q104 0 168 -60t64 -156q0 -114 -83 -177q111 -59 111 -208q0 -104 -62 -172q-74 -80 -201 -80q-121 0 -194 71q-69 68 -69 177q0 144 110 211zM328 703q-41 0 -65 -26.5t-24 -71.5q0 -49 24.5 -78.5t64.5 -29.5
t63.5 28.5t23.5 77.5q0 46 -23 73t-64 27zM323 376q-49 0 -79.5 -36t-30.5 -94q0 -61 30 -96t82 -35q108 0 108 126q0 61 -30 98t-80 37z" />
    <glyph glyph-name="nineinferior" unicode="&#x2089;" horiz-adv-x="641" 
d="M74 214h154q13 -99 79 -99q89 0 114 202q-56 -49 -128 -49q-105 0 -171 81q-62 75 -62 194t61 198q73 94 192 94q127 0 195 -102q73 -110 73 -312q0 -194 -66 -309q-73 -129 -215 -129q-72 0 -127.5 37.5t-81.5 104.5q-12 32 -17 89zM315 698q-46 0 -74 -40t-28 -105
q0 -70 28.5 -111.5t75.5 -41.5t75.5 40.5t28.5 107.5q0 68 -29 109t-77 41z" />
    <glyph glyph-name="franc" unicode="&#x20a3;" horiz-adv-x="1439" 
d="M171 0v1365h780v-180h-572v-327h433v-180h-433v-678h-208zM921 0v858h189v-156q86 185 265 185q10 0 42 -2v-205q-48 6 -71 6q-134 0 -193 -135q-31 -73 -31 -254v-297h-201z" />
    <glyph glyph-name="lira" unicode="&#x20a4;" horiz-adv-x="928" 
d="M202 324h-164v168h198q-1 28 -7 63h-191v168h126q-11 18 -33 52q-82 126 -82 248q0 168 123 276q107 93 276 93q264 0 363 -181q47 -85 50 -198h-205q-3 99 -57 153t-152 54q-92 0 -138 -57q-50 -64 -50 -150q0 -48 17.5 -94t63.5 -119q28 -44 48 -77h296v-168h-236
q3 -28 3 -46q0 -10 -1 -17h234v-168h-287q-37 -60 -139 -157q111 72 181 72q36 0 94 -36q36 -23 65 -23q82 0 92 144h196q-8 -155 -63 -244q-66 -109 -194 -109q-68 0 -166 44q-78 35 -128 35q-47 0 -93 -16.5t-122 -60.5l-93 124q119 97 175 227z" />
    <glyph glyph-name="peseta" unicode="&#x20a7;" horiz-adv-x="2176" 
d="M171 0v1365h427q135 0 214.5 -24t137.5 -84q114 -114 114 -309q0 -222 -139 -337q-56 -46 -125 -66t-175 -20h-229v-525h-225zM396 717h198q128 0 181 51q64 63 64 177q0 131 -90 189q-50 32 -173 32h-180v-449zM1084 625v125h107v94l118 157h45v-251h128v-125h-129v-395
q0 -67 8 -84q15 -30 63 -30q25 0 58 10v-132q-40 -16 -110 -16q-115 0 -154 70q-23 43 -23 166v411h-111zM1516 209h161q17 -116 133 -116q56 0 89 28.5t33 77.5q0 65 -69 97q-26 13 -131 38q-206 49 -206 219q0 100 72 160.5t192 60.5q124 0 195.5 -56t82.5 -161h-160
q-15 96 -122 96q-50 0 -80 -25t-30 -67t27.5 -63.5t103.5 -39.5q126 -28 174 -54q116 -61 116 -188q0 -111 -78.5 -178t-208.5 -67q-261 0 -294 238z" />
    <glyph glyph-name="uni2101" unicode="&#x2101;" horiz-adv-x="1616" 
d="M272 1365h158l263 -819h-169l-62 212h-226l-63 -212h-165zM275 892h148l-73 251zM999 271h166q4 -154 118 -154q47 0 77 28.5t30 74.5q0 58 -54 92q-28 17 -126 57q-193 80 -193 241q0 101 69 164t179 63q171 0 237 -128q23 -45 28 -130h-156q-1 9 -1 14q-9 102 -106 102
q-94 0 -94 -84q0 -41 30 -68.5t109 -58.5q122 -48 166 -89q77 -71 77 -173q0 -103 -72 -170q-76 -71 -202 -71q-169 0 -244 131q-34 59 -38 159zM671 0h-152l588 1365h149z" />
    <glyph glyph-name="estimated" unicode="&#x212e;" horiz-adv-x="986" 
d="M922 420h-644q2 -89 27 -150q59 -144 212 -144q145 0 177 121h203q-14 -74 -54 -127q-111 -149 -333 -149q-210 0 -331 143q-114 135 -114 347q0 216 117 361q120 149 315 149q198 0 311.5 -147t113.5 -404zM708 561q-6 81 -36 139q-60 115 -177 115q-112 0 -169 -102
q-34 -61 -45 -152h427z" />
    <glyph glyph-name="onethird" unicode="&#x2153;" horiz-adv-x="1437" 
d="M151 546v569q-51 -30 -126 -30h-26v132q101 3 140 41q33 32 44 107h118v-819h-150zM429 0h-160l623 1365h157zM1041 580h-160q3 102 46 165q68 98 211 98q116 0 184 -66q66 -62 66 -159q0 -108 -93 -166q121 -65 121 -201q0 -116 -81 -190q-78 -71 -201 -71
q-169 0 -238 125q-31 57 -31 132q0 6 1 24h160q2 -77 27 -108.5t83 -31.5q56 0 88 32.5t32 88.5q0 126 -126 126q-13 0 -59 -2v126q24 -1 33 -1q68 0 98.5 25t30.5 81q0 44 -26 69.5t-70 25.5q-92 0 -96 -122z" />
    <glyph glyph-name="twothirds" unicode="&#x2154;" horiz-adv-x="1584" 
d="M582 0h-160l623 1365h157zM1193 580h-159q3 103 46 165q68 98 210 98q116 0 185 -66q66 -62 66 -159q0 -108 -94 -166q122 -66 122 -201q0 -116 -81 -190q-78 -71 -202 -71q-168 0 -237 125q-31 57 -31 132v24h160q2 -77 27 -108.5t84 -31.5q56 0 88 32.5t32 88.5
q0 126 -126 126q-13 0 -59 -2v126q23 -1 32 -1q68 0 99 25t31 81q0 44 -26 69.5t-70 25.5q-93 0 -97 -122zM560 687v-141h-536q-1 24 -1 34q0 125 56 209q29 43 71 78t140 96q119 74 119 172q0 49 -30.5 78.5t-81.5 29.5q-109 0 -109 -138h-166q3 88 32 143q71 135 239 135
q123 0 199.5 -68t76.5 -177q0 -93 -51 -156.5t-199 -157.5q-109 -68 -127 -137h368z" />
    <glyph glyph-name="oneeighth" unicode="&#x215b;" horiz-adv-x="1438" 
d="M151 546v569q-51 -30 -126 -30h-26v132q101 3 140 41q33 32 44 107h118v-819h-150zM429 0h-160l623 1365h157zM974 442q-83 59 -83 175q0 98 65 158q68 61 174 61q103 0 167.5 -60t64.5 -156q0 -114 -83 -177q111 -59 111 -208q0 -104 -62 -172q-74 -80 -201 -80
q-119 0 -191 68t-72 180q0 144 110 211zM1128 703q-43 0 -68.5 -26.5t-25.5 -71.5q0 -49 26 -78.5t68 -29.5t66.5 28.5t24.5 77.5q0 46 -24.5 73t-66.5 27zM1127 376q-49 0 -79.5 -36t-30.5 -94q0 -61 30 -96t82 -35q108 0 108 126q0 62 -30 98.5t-80 36.5z" />
    <glyph glyph-name="threeeighths" unicode="&#x215c;" horiz-adv-x="1532" 
d="M528 0h-161l623 1365h158zM1073 442q-84 59 -84 175q0 98 65 158q68 61 175 61q103 0 167.5 -60t64.5 -156q0 -114 -84 -177q112 -59 112 -208q0 -104 -62 -172q-74 -80 -202 -80q-119 0 -191 68t-72 180q0 144 111 211zM1226 703q-43 0 -68.5 -26.5t-25.5 -71.5
q0 -49 26 -78.5t68 -29.5q43 0 67.5 28.5t24.5 77.5q0 47 -24.5 73.5t-67.5 26.5zM1226 376q-50 0 -80.5 -36t-30.5 -94q0 -61 30 -96t83 -35q108 0 108 126q0 62 -30 98.5t-80 36.5zM198 1126h-160q3 102 46 165q68 98 211 98q116 0 184 -66q66 -62 66 -159
q0 -109 -93 -166q121 -65 121 -200q0 -117 -81 -190q-78 -71 -201 -71q-169 0 -238 124q-31 57 -31 132q0 6 1 24h160q2 -76 27 -107.5t83 -31.5q56 0 88 32t32 89q0 125 -126 125q-13 0 -59 -2v126q23 -1 31 -1q64 0 93 25t29 81q0 44 -24.5 69.5t-67.5 25.5
q-87 0 -91 -122z" />
    <glyph glyph-name="fiveeighths" unicode="&#x215d;" horiz-adv-x="1487" 
d="M481 0h-161l623 1365h157zM1025 442q-83 59 -83 175q0 98 65 158q67 61 174 61q103 0 167.5 -60t64.5 -156q0 -113 -83 -177q111 -59 111 -208q0 -104 -62 -172q-74 -80 -201 -80q-119 0 -191 68t-72 180q0 144 110 211zM1179 703q-43 0 -68.5 -26.5t-25.5 -71.5
q0 -49 26 -78.5t68 -29.5t66.5 28.5t24.5 77.5q0 46 -24.5 73t-66.5 27zM1183 376q-47 0 -76.5 -36t-29.5 -93q0 -62 28.5 -97t78.5 -35q104 0 104 127q0 61 -28.5 97.5t-76.5 36.5zM5 775h156q15 -108 106 -108q112 0 112 150q0 75 -30 116t-85 41q-61 0 -104 -70l-136 4
l68 457h395v-140h-273l-22 -148q47 26 104 26q100 0 165 -72q71 -80 71 -205q0 -128 -73 -211q-76 -85 -200 -85q-80 0 -142 36.5t-91 100.5q-17 39 -21 108z" />
    <glyph glyph-name="seveneighths" unicode="&#x215e;" horiz-adv-x="1383" 
d="M373 0h-161l623 1365h157zM917 442q-83 60 -83 175q0 98 65 158q68 61 175 61q103 0 167.5 -60t64.5 -156q0 -115 -84 -177q111 -59 111 -208q0 -104 -62 -172q-74 -80 -201 -80q-119 0 -191 68t-72 180q0 144 110 211zM1071 703q-43 0 -68.5 -26.5t-25.5 -71.5
q0 -49 26 -78.5t69 -29.5q41 0 66 28.5t25 77.5q0 47 -24.5 73.5t-67.5 26.5zM1070 376q-45 0 -73 -36t-28 -93q0 -61 27.5 -96.5t74.5 -35.5q100 0 100 126q0 62 -27.5 98.5t-73.5 36.5zM301 546h-168q2 161 68.5 344.5t175.5 328.5h-333v146h504v-127
q-100 -108 -170 -303.5t-77 -388.5z" />
    <glyph glyph-name="minus" unicode="&#x2212;" horiz-adv-x="1065" 
d="M61 776h942v-173h-942v173z" />
    <glyph glyph-name="fraction005" unicode="&#x2215;" horiz-adv-x="532" 
d="M37 0h-161l623 1365h158z" />
    <glyph glyph-name="periodcentered" unicode="&#x2219;" horiz-adv-x="598" 
d="M422 601v-246h-246v246h246z" />
    <glyph glyph-name="uni2236" unicode="&#x2236;" horiz-adv-x="1467" 
d="M734 528q40 0 68 -28t28 -68t-28 -68.5t-68 -28.5q-41 0 -69 28.5t-28 69.5q0 39 28.5 67t68.5 28zM734 1059q40 0 68 -28t28 -68t-28 -68.5t-68 -28.5q-41 0 -69 28.5t-28 69.5q0 39 28.5 67t68.5 28z" />
    <glyph glyph-name="dotmath" unicode="&#x22c5;" horiz-adv-x="598" 
d="M422 601v-246h-246v246h246z" />
    <glyph glyph-name="one.fitted" unicode="&#xe001;" horiz-adv-x="969" 
d="M438 0v1003q-46 -36 -91 -48t-137 -13v169q132 4 191 58t88 196h158v-1365h-209z" />
    <glyph glyph-name="two.fitted" unicode="&#xe002;" horiz-adv-x="1012" 
d="M897 184v-184h-812q0 196 47 310q41 99 115.5 174.5t251.5 196.5q198 137 198 319q0 79 -37 133q-55 82 -162 82q-90 0 -142.5 -67.5t-53.5 -183.5h-206q8 188 102 299q114 134 302 134q93 0 177.5 -34.5t140.5 -96.5q93 -102 93 -268q0 -192 -148 -339
q-73 -72 -249 -191q-111 -76 -158.5 -137t-61.5 -147h603z" />
    <glyph glyph-name="three.fitted" unicode="&#xe003;" horiz-adv-x="1002" 
d="M309 1000h-197q5 150 66 246q100 160 308 160q169 0 270 -106q95 -100 95 -259q0 -206 -168 -290q102 -34 158 -122.5t56 -218.5q0 -192 -119 -311q-116 -115 -298 -115q-248 0 -349 203q-46 93 -46 201q0 10 1 32h199q3 -96 31 -156q45 -96 169 -96q91 0 142 60
q57 67 57 182q0 119 -55 181t-160 62q-24 0 -66 -3v168q109 0 154 22q41 21 65.5 70.5t24.5 114.5q0 89 -46 143t-123 54q-162 0 -169 -222z" />
    <glyph glyph-name="four.fitted" unicode="&#xe004;" horiz-adv-x="999" 
d="M557 0v335h-473v211l478 819h193v-850h139v-180h-139v-335h-198zM557 515v540l-300 -540h300z" />
    <glyph glyph-name="five.fitted" unicode="&#xe005;" horiz-adv-x="1006" 
d="M85 343h204q10 -76 44 -121q52 -67 144 -67q97 0 149.5 74.5t52.5 213.5q0 122 -45 202q-53 95 -160 95q-110 0 -178 -120l-178 6l104 739h596v-190h-442l-49 -348q79 85 205 85q154 0 250 -116q110 -132 110 -339q0 -212 -114 -348q-116 -138 -306 -138
q-168 0 -275 102.5t-112 269.5z" />
    <glyph glyph-name="six.fitted" unicode="&#xe006;" horiz-adv-x="1001" 
d="M878 1053h-200q-24 165 -152 165q-194 0 -218 -458q93 143 241 143q160 0 259 -130q95 -125 95 -323q0 -195 -95 -326q-111 -153 -292 -153q-193 0 -296 165q-115 184 -115 528q0 329 104 521q113 209 329 209q141 0 233 -92t107 -249zM508 727q-79 0 -128.5 -79
t-49.5 -206q0 -111 42 -193q49 -94 141 -94q90 0 136 89q41 81 41 192q0 133 -49.5 212t-132.5 79z" />
    <glyph glyph-name="seven.fitted" unicode="&#xe007;" horiz-adv-x="993" 
d="M486 0h-222q2 165 62 396.5t148 414.5q111 230 215 353h-571v201h770v-185q-149 -177 -266 -496q-121 -330 -136 -684z" />
    <glyph glyph-name="eight.fitted" unicode="&#xe008;" horiz-adv-x="1002" 
d="M307 736q-62 31 -96 78q-70 96 -70 228q0 158 98 253q103 99 266 99q160 0 260 -99q94 -94 94 -249q0 -106 -43 -186.5t-122 -123.5q68 -30 104 -64q106 -103 106 -291q0 -170 -95 -280q-113 -130 -309 -130q-186 0 -298 116q-105 108 -105 286q0 133 53.5 226t156.5 137
zM499 1216q-73 0 -117.5 -54.5t-44.5 -144.5q0 -92 46 -150.5t119 -58.5t117 57t44 151q0 93 -43.5 146.5t-120.5 53.5zM498 650q-83 0 -135.5 -70.5t-52.5 -181.5q0 -115 52.5 -183t140.5 -68q89 0 138.5 64t49.5 179q0 119 -52 189.5t-141 70.5z" />
    <glyph glyph-name="nine.fitted" unicode="&#xe009;" horiz-adv-x="1001" 
d="M126 319h200q25 -172 153 -172q191 0 217 460q-93 -143 -241 -143q-160 0 -259 130q-95 124 -95 322q0 195 95 326q111 152 292 152q193 0 296 -165q115 -183 115 -525q0 -330 -104 -524q-112 -209 -328 -209q-142 0 -233.5 93.5t-107.5 254.5zM488 1210
q-78 0 -126 -77.5t-48 -203.5q0 -112 41 -194q47 -95 139 -95q81 0 130.5 78t49.5 205q0 115 -42 194q-50 93 -144 93z" />
    <glyph glyph-name="zero.fitted" unicode="&#xe00a;" horiz-adv-x="998" 
d="M503 1394q104 0 184.5 -55t128.5 -158q81 -175 81 -501q0 -351 -99 -529q-101 -180 -296 -180q-401 0 -401 708q0 715 402 715zM495 1209q-99 0 -142.5 -126t-43.5 -413q0 -262 40 -379q47 -135 152 -135q114 0 155 158q33 125 33 381q0 239 -37 369q-42 145 -157 145z
" />
    <glyph glyph-name="uniEA31" unicode="&#xea31;" horiz-adv-x="1021" 
d="M589 1101h97q-1 -9 -1 -14q-4 -85 -52 -138t-122 -53q-83 0 -134 63q-54 68 -54 179q0 108 53 175.5t138 67.5q73 0 118 -46.5t52 -130.5h-96q-17 89 -75 89q-41 0 -66 -42t-25 -113q0 -70 24.5 -112t64.5 -42q65 0 78 117zM510 1554q172 0 293 -121t121 -293
q0 -171 -121 -293q-121 -121 -292 -121q-173 0 -293 121q-121 123 -121 298q0 77 33 155t88 133q123 121 292 121zM510 1487q-144 0 -245 -102t-101 -241q0 -146 101 -249q101 -102 246 -102q143 0 245 102q101 102 101 245q0 146 -101 245q-105 102 -246 102z" />
    <glyph glyph-name="uniEA32" unicode="&#xea32;" horiz-adv-x="1021" 
d="M358 907v464h175q71 0 110 -35t39 -100q0 -67 -52 -106q38 -29 43 -104q5 -66 8 -76t28 -43h-111l-6 12q-8 17 -11 65q-4 67 -16.5 85t-56.5 18h-51v-180h-99zM457 1170h50q43 0 59.5 12.5t16.5 45.5q0 31 -15 43.5t-53 12.5h-58v-114zM510 1554q172 0 293 -121t121 -293
q0 -171 -121 -293q-121 -121 -292 -121q-173 0 -293 121q-121 123 -121 298q0 77 33 155t88 133q123 121 292 121zM510 1487q-144 0 -245 -102t-101 -241q0 -146 101 -249q101 -102 246 -102q143 0 245 102q101 102 101 245q0 146 -101 245q-105 102 -246 102z" />
    <glyph glyph-name="uniEA3F" unicode="&#xea3f;" horiz-adv-x="555" 
d="M690 1365v-134q2 -217 -176 -232v77q72 15 80 110h-80v179h176z" />
    <glyph glyph-name="uniEA4F" unicode="&#xea4f;" horiz-adv-x="1055" 
d="M443 1092v134q-2 217 166 232v-77q-68 -15 -75 -110h75v-179h-166z" />
    <glyph glyph-name="uniEA66" unicode="&#xea66;" horiz-adv-x="1053" 
d="M612 -94v-134q2 -216 -166 -232v77q68 15 75 110h-75v179h166z" />
    <glyph glyph-name="uniEA67" unicode="&#xea67;" horiz-adv-x="1035" 
d="M808 1365v-134q2 -216 -166 -232v77q68 15 75 110h-75v179h166z" />
    <glyph glyph-name="uniEA68" unicode="&#xea68;" horiz-adv-x="504" 
d="M478 1652v-205h-192v205h192zM218 1652v-205h-192v205h192z" />
    <glyph glyph-name="uniEA69" unicode="&#xea69;" horiz-adv-x="890" 
d="M529 -94v-134q2 -216 -166 -232v77q68 15 75 110h-75v179h166z" />
    <glyph glyph-name="uniEA6A" unicode="&#xea6a;" horiz-adv-x="464" 
d="M454 1311v-205h-174v205h174zM175 1311v-205h-165v205h165z" />
    <glyph glyph-name="uniEA71" unicode="&#xea71;" horiz-adv-x="1117" 
d="M144 891h-109v129h109v345h428q409 13 461 -345h59v-129h-57q-18 -181 -128.5 -273.5t-308.5 -92.5h-229v-525h-225v891zM369 891v-174h198q113 0 168.5 40t72.5 134h-439zM369 1020h434q-21 80 -79 113t-175 33h-180v-146z" />
    <glyph glyph-name="uniEA72" unicode="&#xea72;" horiz-adv-x="589" 
d="M255 806v381q-33 -15 -76 -15h-10h-18v103q73 2 98 26q20 20 29 75h93v-570h-116zM482 109v-109h-379v15v7q0 95 36.5 149t148.5 125q77 49 77 111q0 67 -69 67q-67 0 -67 -79v-4v-11h-127q1 51 12 83q19 56 67 88t113 32q86 0 140 -48t54 -125q0 -66 -35.5 -110.5
t-137.5 -109.5q-66 -42 -80 -81h247zM24 724h541v-78h-541v78z" />
    <glyph glyph-name="uniEA73" unicode="&#xea73;" horiz-adv-x="589" 
d="M262 806v381q-34 -15 -77 -15h-10h-18v103q74 2 99 26q20 20 29 75h93v-570h-116zM303 0v132h-207v103l216 336h100v-336h62v-103h-62v-132h-109zM303 235v145l-87 -145h87zM24 724h541v-78h-541v78z" />
    <glyph glyph-name="uniEA74" unicode="&#xea74;" horiz-adv-x="589" 
d="M232 1200h-122q1 56 14 87q41 105 168 105q78 0 127.5 -44.5t49.5 -115.5q0 -72 -57 -112q76 -44 76 -138q0 -80 -56 -131.5t-143 -51.5q-90 0 -140 50t-50 139v15h124q0 -54 14 -74.5t51 -20.5q70 0 70 76q0 79 -74 79q-15 0 -45 -3v101q20 -1 30 -1q43 0 62 15t19 50
q0 58 -58 58q-32 0 -44.5 -18t-15.5 -65zM296 0v132h-207v103l216 336h100v-336h62v-103h-62v-132h-109zM296 235v145l-87 -145h87zM24 724h541v-78h-541v78z" />
    <glyph glyph-name="Dotaccent" unicode="&#xefed;" 
d="M674 1652v-205h-192v205h192z" />
    <glyph glyph-name="Breve" unicode="&#xefee;" 
d="M307 1734h136q16 -71 46 -99t89 -28q60 0 90.5 28t46.5 99h136q-9 -77 -31 -123q-68 -143 -241 -143q-119 0 -187.5 67t-84.5 199z" />
    <glyph glyph-name="Ogonek" unicode="&#xeff1;" horiz-adv-x="1174" 
d="M1015 0h119q-93 -82 -93 -164q0 -41 28.5 -67t74.5 -26q23 0 71 15v-111q-60 -22 -108 -22q-94 0 -148 53q-50 47 -50 124q0 55 23 98t83 100z" />
    <glyph glyph-name="Cedilla" unicode="&#xeff2;" horiz-adv-x="1236" 
d="M514 -200l80 212l95 -4l-44 -116q27 12 58 12q67 0 113.5 -44t46.5 -109q0 -73 -51 -117t-135 -44q-69 0 -114 30t-52 81h108q10 -31 57 -31q73 0 73 77q0 37 -20 58.5t-53 21.5q-42 0 -54 -27h-108z" />
    <glyph glyph-name="Ring" unicode="&#xeff3;" 
d="M580 1727q-40 0 -68 -29t-28 -71t27.5 -71t66.5 -29t67 29t28 71q0 41 -27.5 70.5t-65.5 29.5zM581 1821q80 0 137.5 -57t57.5 -137q0 -79 -57 -135q-58 -58 -141 -58t-140 56q-58 58 -58 137q0 81 58.5 137.5t142.5 56.5z" />
    <glyph glyph-name="Tilde" unicode="&#xeff5;" 
d="M770 1713h116q-36 -232 -190 -232q-57 0 -162 61q-52 30 -78 30q-53 0 -71 -91h-115q34 232 196 232q37 0 66 -11t87 -47q48 -30 76 -30q53 0 75 88z" />
    <glyph glyph-name="Circumflex" unicode="&#xeff7;" 
d="M859 1475h-180l-101 148l-100 -148h-180l183 259h194z" />
    <glyph glyph-name="Acute" unicode="&#xf6c9;" 
d="M826 1734l-185 -259h-171l170 259h186z" />
    <glyph glyph-name="Caron" unicode="&#xf6ca;" horiz-adv-x="1103" 
d="M271 1734h180l100 -148l100 148h181l-183 -259h-195z" />
    <glyph glyph-name="Dieresis" unicode="&#xf6cb;" 
d="M837 1652v-205h-192v205h192zM512 1652v-205h-192v205h192z" />
    <glyph glyph-name="Grave" unicode="&#xf6ce;" 
d="M331 1734h187l169 -259h-171z" />
    <glyph glyph-name="Hungarumlaut" unicode="&#xf6cf;" horiz-adv-x="1258" 
d="M691 1745l-196 -273h-174l180 273h190zM1011 1745l-196 -273h-174l180 273h190z" />
    <glyph glyph-name="Macron" unicode="&#xf6d0;" 
d="M868 1611v-132h-580v132h580z" />
    <glyph glyph-name="uniFEFF" unicode="&#xfeff;" horiz-adv-x="16" 
 />
    <glyph glyph-name="uniFFFC" unicode="&#xfffc;" horiz-adv-x="2064" 
d="M2056 1150h-100v223h-223v100h323v-323zM1481 1373h-323v100h323v-100zM2056 575h-100v323h100v-323zM906 1388h-323v100h323v-100zM2056 0h-323v100h223v223h100v-323zM331 1373h-223v-223h-100v323h323v-100zM1481 0h-323v100h323v-100zM108 575h-100v323h100v-323z
M906 0h-323v100h323v-100zM331 0h-323v323h100v-223h223v-100zM563 1096q134 0 215 -105q84 -109 84 -279q0 -152 -65 -257q-81 -131 -234 -131q-138 0 -219 106.5t-81 285.5q0 172 83 275q85 105 217 105zM562 1017q-91 0 -148 -81q-58 -83 -58 -219q0 -135 49 -220
q26 -44 69 -70t90 -26q87 0 140 71q65 90 65 239q0 136 -57 222q-55 84 -150 84zM971 357v737h233q101 0 147 -29q78 -51 78 -153q0 -109 -101 -160q128 -37 128 -184q0 -100 -56 -155.5t-157 -55.5h-272zM1061 780h124q82 0 109 20q44 30 44 96q0 83 -55 108q-22 11 -91 11
h-131v-235zM1061 436h140q87 0 116 19q48 32 48 114q0 92 -65 123q-27 13 -113 13h-126v-269zM1501 346v80q25 -10 51 -10q72 0 98 67q13 33 13 141v470h90v-485q0 -79 -7 -119t-25 -69q-52 -82 -163 -82q-26 0 -57 7z" />
    <glyph glyph-name="uniFFFD" unicode="&#xfffd;" horiz-adv-x="2115" 
d="M1054 1556l940 -938l-940 -937l-937 937zM719 779h214q9 199 132 199q49 0 78 -35t29 -93q0 -52 -24 -96q-10 -20 -97 -107q-60 -61 -78 -112.5t-21 -175.5v-6v-8h198v10q-1 132 88 197q86 71 122.5 138.5t36.5 155.5q0 158 -104 254q-87 79 -226 79q-160 0 -251 -104.5
t-97 -295.5zM1178 243h-254v-248h254v248z" />
    </font>
</defs>
</svg>
