<?xml version="1.0" standalone="no"?>
<!DOCTYPE svg PUBLIC "-//W3C//DTD SVG 1.1//EN" "http://www.w3.org/Graphics/SVG/1.1/DTD/svg11.dtd" >
<svg xmlns="http://www.w3.org/2000/svg" xmlns:xlink="http://www.w3.org/1999/xlink" version="1.1">
<metadata>
Created by FontForge 20161004 at Thu Apr 20 15:18:21 2017
 By mb
(URW)++,Copyright 2016 by (URW)++ Design &#38; Development
</metadata>
<defs>
<font id="TeleGroteskNext-MediumItalic" horiz-adv-x="1123" >
  <font-face 
    font-family="TeleGrotesk Next Medium"
    font-weight="500"
    font-style="italic"
    font-stretch="normal"
    units-per-em="2048"
    panose-1="0 0 0 0 0 0 0 0 0 0"
    ascent="1679"
    descent="-369"
    x-height="942"
    cap-height="1365"
    bbox="-100 -512 2672 1821"
    underline-thickness="132"
    underline-position="-241"
    slope="-12"
    unicode-range="U+0020-FFFD"
  />
<missing-glyph horiz-adv-x="522" 
d="M52 0v1365h418v-1365h-418zM418 52v1261h-314v-1261h314z" />
    <glyph glyph-name="fi" unicode="fi" horiz-adv-x="999" 
d="M939 1157l44 208h153l-45 -208h-152zM693 0l200 942h153l-200 -942h-153zM169 0l173 815h-148l27 127h148l41 185q18 85 37 127t53 73q74 69 196 69q47 0 112 -14l-28 -135q-43 14 -76 14q-63 0 -96.5 -36t-51.5 -124l-34 -159h170l-27 -127h-170l-173 -815h-153z" />
    <glyph glyph-name="fl" unicode="fl" horiz-adv-x="1009" 
d="M693 0l290 1365h153l-291 -1365h-152zM169 0l173 815h-148l27 127h148l41 185q18 85 37 127t53 73q74 69 196 69q47 0 112 -14l-28 -135q-43 14 -76 14q-63 0 -96.5 -36t-51.5 -124l-34 -159h170l-27 -127h-170l-173 -815h-153z" />
    <glyph glyph-name="afii61352" unicode="Nr&#x2e;" horiz-adv-x="1839" 
d="M202 0l290 1365h178l358 -1117l238 1117h152l-290 -1365h-181l-358 1105l-234 -1105h-153zM1807 230l-26 -120h-514l26 120h514zM1687 931q97 0 154 -57q60 -60 60 -163q0 -84 -26.5 -167t-69.5 -135q-90 -108 -223 -108q-104 0 -159 58q-58 61 -58 168q0 162 78 274
q90 130 244 130zM1675 811q-80 0 -134 -90q-47 -80 -47 -180q0 -120 99 -120q72 0 122 75q56 84 56 196q0 55 -25.5 87t-70.5 32z" />
    <glyph glyph-name=".notdef" horiz-adv-x="522" 
d="M52 0v1365h418v-1365h-418zM418 52v1261h-314v-1261h314z" />
    <glyph glyph-name="_" horiz-adv-x="0" 
 />
    <glyph glyph-name="_001" horiz-adv-x="522" 
 />
    <glyph glyph-name="space" unicode=" " horiz-adv-x="522" 
 />
    <glyph glyph-name="exclam" unicode="!" horiz-adv-x="658" 
d="M709 1365l-90 -418l-175 -607h-86l83 607l89 418h179zM474 213l-46 -213h-199l45 213h200z" />
    <glyph glyph-name="quotedbl" unicode="&#x22;" horiz-adv-x="674" 
d="M428 845h-113l87 520h161zM718 845h-114l88 520h160z" />
    <glyph glyph-name="numbersign" unicode="#" horiz-adv-x="1322" 
d="M276 450l25 119h201l88 250h-184l25 119h201l127 359h134l-127 -359h248l127 359h134l-127 -359h186l-25 -119h-203l-88 -250h186l-25 -119h-203l-135 -382h-134l135 382h-248l-135 -382h-134l135 382h-184zM972 819h-248l-88 -250h248z" />
    <glyph glyph-name="dollar" unicode="$" horiz-adv-x="1120" 
d="M901 1348q86 -14 147 -49q141 -81 141 -236q0 -28 -8 -79h-174q6 35 6 57q0 66 -36.5 110.5t-104.5 59.5l-94 -442l85 -33q126 -49 181.5 -120.5t55.5 -184.5q0 -186 -131 -299t-352 -117l-20 -97h-127l22 104q-120 17 -186 68q-119 92 -119 249q0 41 11 104h166
q-8 -44 -8 -77q0 -168 165 -205l106 497l-55 22q-118 45 -174.5 118t-56.5 179q0 164 118.5 267.5t315.5 111.5l20 91h127zM744 613l-97 -459q111 11 180 68q88 73 88 187q0 138 -171 204zM660 815l86 401q-68 -9 -119 -38q-106 -60 -106 -181q0 -125 139 -182z" />
    <glyph glyph-name="percent" unicode="%" horiz-adv-x="1862" 
d="M681 1384q128 0 205 -83q81 -86 81 -236q0 -195 -102 -350q-124 -189 -320 -189q-147 0 -225 106q-62 84 -62 207q0 107 33 210t91 177q123 158 299 158zM679 1268q-124 0 -210 -134q-37 -58 -59 -140t-22 -160q0 -96 49 -147q44 -46 108 -46q124 0 209 136
q82 131 82 293q0 92 -42 145t-115 53zM703 0h-129l879 1365h125zM1608 838q128 0 205 -83q81 -86 81 -236q0 -194 -102 -349q-124 -189 -320 -189q-147 0 -225 106q-62 83 -62 206q0 107 33 210t91 177q123 158 299 158zM1605 722q-123 0 -209 -134q-36 -57 -58.5 -139
t-22.5 -161q0 -95 49 -146q44 -46 108 -46q124 0 209 136q82 130 82 293q0 91 -42 144t-116 53z" />
    <glyph glyph-name="ampersand" unicode="&#x26;" horiz-adv-x="1057" 
d="M1017 0h-170l-44 95q-55 -47 -99 -70q-97 -54 -213 -54q-160 0 -253 95q-82 83 -82 211q0 175 142 315q67 66 207 157q-8 19 -36 82q-48 106 -48 211q0 170 105 265q97 87 237 87q120 0 192 -65.5t72 -174.5q0 -158 -175 -304q-55 -47 -169 -121l173 -378q50 87 83 216
h143q-60 -210 -164 -352zM555 641q-128 -85 -186 -170t-58 -187q0 -81 48 -131q56 -59 150 -59q114 0 243 111zM632 837q109 74 158 125q79 84 79 181q0 59 -34 93.5t-93 34.5q-78 0 -123 -57.5t-45 -157.5q0 -59 10.5 -99.5t47.5 -119.5z" />
    <glyph glyph-name="quotesingle" unicode="'" horiz-adv-x="384" 
d="M428 845h-113l87 520h161z" />
    <glyph glyph-name="parenleft" unicode="(" horiz-adv-x="621" 
d="M651 1365h121q-81 -102 -165 -255t-138 -299q-132 -353 -132 -711q0 -250 70 -455h-121q-4 12 -35 110q-67 212 -67 430q0 335 151 675q57 129 144.5 269t171.5 236z" />
    <glyph glyph-name="parenright" unicode=")" horiz-adv-x="657" 
d="M429 1365h121q102 -244 102 -533q0 -294 -108 -578q-60 -156 -129 -273t-222 -323l-9 -13h-121q207 274 321.5 603.5t114.5 648.5q0 273 -70 468z" />
    <glyph glyph-name="asterisk" unicode="*" horiz-adv-x="797" 
d="M928 1120l-235 -75l122 -188l-78 -55l-121 193l-165 -193l-67 55l167 188l-218 75l38 84l215 -78l24 239h93l-28 -239l233 78z" />
    <glyph glyph-name="plus" unicode="+" horiz-adv-x="1076" 
d="M255 756h374l74 347h140l-74 -347h374l-29 -132h-373l-74 -348h-140l74 348h-374z" />
    <glyph glyph-name="comma" unicode="," horiz-adv-x="583" 
d="M437 213l-28 -131q-23 -108 -47.5 -165.5t-66.5 -104.5q-65 -71 -164 -99l21 101q97 28 132 168l4 18h-96l45 213h200z" />
    <glyph glyph-name="hyphen" unicode="-" horiz-adv-x="410" 
d="M529 591l-34 -164h-399l35 164h398z" />
    <glyph glyph-name="period" unicode="." horiz-adv-x="583" 
d="M437 213l-46 -213h-199l45 213h200z" />
    <glyph glyph-name="slash" unicode="/" horiz-adv-x="789" 
d="M30 -355h-130l943 1720h126z" />
    <glyph glyph-name="zero" unicode="0" horiz-adv-x="992" 
d="M784 1394q164 0 241 -102q67 -90 67 -244q0 -170 -47 -396.5t-113 -371.5q-71 -157 -170.5 -233t-232.5 -76q-313 0 -313 357q0 210 68 479q80 317 201 451q123 136 299 136zM774 1256q-171 0 -267 -274q-51 -145 -89 -342t-38 -317q0 -214 157 -214q168 0 265 275
q48 135 88 339.5t40 312.5q0 220 -156 220z" />
    <glyph glyph-name="one" unicode="1" horiz-adv-x="992" 
d="M470 0l227 1066q-57 -44 -108 -59t-146 -16l27 127q133 4 203 56.5t129 190.5h119l-290 -1365h-161z" />
    <glyph glyph-name="two" unicode="2" horiz-adv-x="992" 
d="M889 140l-30 -140h-761q18 118 38 178.5t62 122.5q90 135 322 277q144 87 197 124.5t102 87.5q119 122 119 277q0 86 -52 137q-50 50 -140 50q-107 0 -175 -71t-86 -200h-178q27 157 92 245q126 168 359 168q165 0 259 -89q96 -92 96 -239q0 -183 -136 -336
q-83 -93 -304 -222q-135 -78 -185 -111.5t-90 -73.5q-78 -77 -105 -185h596z" />
    <glyph glyph-name="three" unicode="3" horiz-adv-x="992" 
d="M476 1019h-153q28 142 94 226q116 149 314 149q162 0 249 -99q70 -80 70 -201q0 -128 -67 -221.5t-192 -139.5q175 -63 175 -269q0 -181 -115 -323q-136 -170 -364 -170q-170 0 -261 92q-80 79 -80 205q0 44 16 110h155q-8 -50 -8 -79q0 -82 41 -131q49 -59 144 -59
q151 0 237 130q69 103 69 216q0 199 -215 199h-60l30 140h48q136 0 216 97q66 80 66 193q0 79 -47 125.5t-127 46.5q-187 0 -235 -237z" />
    <glyph glyph-name="four" unicode="4" horiz-adv-x="992" 
d="M571 0l74 345h-496l32 150l700 870h125l-188 -888h150l-28 -132h-151l-73 -345h-145zM673 477l126 592l-473 -592h347z" />
    <glyph glyph-name="five" unicode="5" horiz-adv-x="992" 
d="M270 640l257 725h577l-31 -143h-460l-147 -404q96 89 228 89q162 0 237 -118q58 -92 58 -230q0 -117 -36.5 -225.5t-102.5 -186.5q-148 -176 -369 -176q-175 0 -261 111q-58 74 -58 173q0 27 8 75h158q-3 -32 -3 -56q0 -72 46.5 -118.5t119.5 -46.5q140 0 241 143
q89 126 89 285q0 112 -45 172t-128 60q-150 0 -250 -138z" />
    <glyph glyph-name="six" unicode="6" horiz-adv-x="992" 
d="M1096 1057h-157q1 24 1 39q0 75 -36 117.5t-100 42.5q-154 0 -261 -192q-38 -67 -60 -130t-55 -199q60 75 115 106q80 47 176 47q131 0 207 -86q85 -97 85 -254q0 -106 -39 -219.5t-103 -191.5q-64 -79 -151.5 -122.5t-181.5 -43.5q-176 0 -263 137q-59 94 -59 243
q0 266 91 539q98 298 267 421q115 83 254 83q120 0 191 -65q82 -74 82 -205q0 -25 -3 -67zM677 750q-142 0 -235 -173q-64 -119 -64 -256q0 -99 45 -157q43 -55 122 -55q136 0 226 157q71 123 71 276q0 100 -43 154t-122 54z" />
    <glyph glyph-name="seven" unicode="7" horiz-adv-x="992" 
d="M438 0h-166q83 340 240 612t456 595h-585l34 158h743l-30 -142q-249 -269 -394 -503q-205 -331 -298 -720z" />
    <glyph glyph-name="eight" unicode="8" horiz-adv-x="992" 
d="M487 749q-116 77 -116 230q0 166 111 287q116 128 297 128q132 0 212 -70q91 -79 91 -217q0 -75 -23.5 -146.5t-62.5 -118.5q-53 -63 -152 -101q146 -84 146 -276q0 -177 -101 -316q-129 -178 -365 -178q-162 0 -251.5 88t-89.5 247q0 186 111 313q74 85 193 130z
M771 1256q-103 0 -172 -93q-65 -87 -65 -200q0 -75 38.5 -118t105.5 -43q108 0 179 110q58 88 58 193q0 71 -38.5 111t-105.5 40zM647 674q-61 0 -119 -34t-101 -96q-76 -109 -76 -244q0 -84 50 -137.5t128 -53.5q136 0 223 129q72 105 72 230q0 93 -42 147q-48 59 -135 59z
" />
    <glyph glyph-name="nine" unicode="9" horiz-adv-x="992" 
d="M200 309h158q-2 -25 -2 -39q0 -76 36 -118.5t101 -42.5q153 0 260 192q38 68 60 130.5t55 199.5q-60 -75 -115 -107q-80 -46 -176 -46q-131 0 -207 86q-85 97 -85 253q0 106 39 219.5t103 191.5q64 79 151.5 122.5t181.5 43.5q176 0 263 -137q59 -93 59 -243
q0 -265 -91 -538q-99 -299 -267 -421q-114 -84 -254 -84q-120 0 -191 65q-82 75 -82 206q0 24 3 67zM751 1256q-136 0 -226 -157q-71 -123 -71 -275q0 -100 43 -154t122 -54q142 0 235 172q64 120 64 256q0 98 -45 157q-43 55 -122 55z" />
    <glyph glyph-name="colon" unicode=":" horiz-adv-x="583" 
d="M592 942l-46 -213h-199l45 213h200zM437 213l-46 -213h-199l45 213h200z" />
    <glyph glyph-name="semicolon" unicode=";" horiz-adv-x="583" 
d="M592 942l-46 -213h-199l45 213h200zM437 213l-28 -131q-23 -108 -47.5 -165.5t-66.5 -104.5q-65 -71 -164 -99l21 101q97 28 132 168l4 18h-96l45 213h200z" />
    <glyph glyph-name="less" unicode="&#x3c;" horiz-adv-x="1076" 
d="M1231 1176l-35 -166l-779 -327l640 -327l-35 -166l-798 421l30 144z" />
    <glyph glyph-name="equal" unicode="=" horiz-adv-x="1076" 
d="M287 906h887l-28 -132h-887zM223 606h888l-29 -132h-887z" />
    <glyph glyph-name="greater" unicode="&#x3e;" horiz-adv-x="1076" 
d="M346 1176l797 -421l-31 -144l-976 -421l35 166l779 327l-640 327z" />
    <glyph glyph-name="question" unicode="?" horiz-adv-x="975" 
d="M345 965q14 151 61 233q111 199 354 199q161 0 249 -92q78 -81 78 -206q0 -211 -214 -401q-96 -85 -129.5 -123t-59.5 -90q-24 -49 -38 -148h-149q23 142 51 202q26 58 63 103t125 127q108 100 146 179q34 72 34 142q0 78 -52 123q-47 41 -122 41q-142 0 -208 -131
q-32 -64 -40 -158h-149zM645 213l-46 -213h-199l45 213h200z" />
    <glyph glyph-name="at" unicode="@" horiz-adv-x="1589" 
d="M1223 973h128l-159 -391q-30 -85 -30 -100q0 -34 31 -34q55 0 120.5 40t120.5 107q122 149 122 323q0 148 -96 246q-127 129 -364 129q-200 0 -372 -93q-204 -109 -298 -315q-61 -133 -61 -286q0 -197 97 -333q61 -85 152 -135q111 -60 241 -60q179 0 320 72q14 7 75 42
l11 -103q-209 -115 -420 -115q-216 0 -374 117q-229 170 -229 494q0 339 237 568q128 124 300 190q159 61 328 61q191 0 331 -78q151 -83 206 -243q25 -73 25 -152q0 -128 -63 -251q-92 -179 -257 -271q-101 -57 -193 -57q-101 0 -107 99q-100 -110 -216 -110q-92 0 -145 60
q-50 58 -50 153q0 153 108 293q119 155 278 155q131 0 164 -118zM1018 886q-45 2 -97 -30t-89 -85q-72 -103 -72 -214q0 -116 95 -116q51 0 102.5 35t87.5 94q67 112 67 213q0 98 -94 103z" />
    <glyph glyph-name="A" unicode="A" 
d="M779 1365h185l154 -1365h-178l-38 419h-463l-218 -419h-178zM512 560h378l-56 619z" />
    <glyph glyph-name="B" unicode="B" horiz-adv-x="1223" 
d="M202 0l290 1365h432q172 0 255 -71q98 -83 98 -230q0 -134 -70.5 -220.5t-204.5 -116.5q192 -65 192 -283q0 -129 -58 -231q-60 -103 -171 -158t-260 -55h-503zM535 784h229q96 0 150.5 13t97.5 46q89 67 89 195q0 97 -54 139.5t-176 42.5h-243zM399 145h259
q97 0 152.5 12.5t100.5 44.5q112 80 112 236q0 132 -97 181q-34 16 -68 21t-119 5h-233z" />
    <glyph glyph-name="C" unicode="C" horiz-adv-x="1278" 
d="M1109 515h170q-51 -198 -149 -326q-169 -222 -440 -222q-220 0 -332 135q-52 61 -81.5 161t-29.5 211q0 209 69 403q84 234 266 384q163 135 376 135q202 0 313 -121q45 -48 71 -115.5t26 -135.5q0 -22 -5 -68h-171q1 20 1 26q0 108 -57 184q-64 87 -196 87
q-224 0 -377 -256q-65 -108 -102 -250t-37 -281q0 -180 79 -274q68 -82 194 -82q141 0 246 103.5t166 301.5z" />
    <glyph glyph-name="D" unicode="D" horiz-adv-x="1289" 
d="M202 0l290 1365h364q198 0 321 -96q154 -121 154 -390q0 -178 -50.5 -346.5t-139.5 -289.5q-95 -129 -223.5 -186t-322.5 -57h-393zM399 145h198q89 0 140 8.5t99 30.5q142 67 222 244q99 218 99 447q0 178 -92 268q-78 77 -224 77h-213z" />
    <glyph glyph-name="E" unicode="E" horiz-adv-x="1125" 
d="M202 0l290 1365h789l-31 -145h-622l-95 -447h580l-30 -141h-580l-104 -487h631l-31 -145h-797z" />
    <glyph glyph-name="F" unicode="F" horiz-adv-x="1035" 
d="M202 0l290 1365h755l-31 -145h-588l-95 -446h516l-30 -141h-516l-134 -633h-167z" />
    <glyph glyph-name="G" unicode="G" horiz-adv-x="1359" 
d="M1188 0h-141l37 174q-86 -108 -182 -157.5t-218 -49.5q-226 0 -337 152q-100 137 -100 359q0 213 76 413q102 273 323 414q143 92 321 92q219 0 329 -130q88 -104 88 -246q0 -24 -6 -75l-167 -1q2 28 2 40q0 84 -38 155q-61 114 -222 114q-247 0 -402 -272
q-130 -226 -130 -499q0 -93 24 -173t66 -125q70 -74 195 -74q166 0 284 121t171 346h-359l31 143h508z" />
    <glyph glyph-name="H" unicode="H" horiz-adv-x="1322" 
d="M202 0l290 1365h167l-122 -574h583l123 574h166l-290 -1365h-167l137 646h-583l-137 -646h-167z" />
    <glyph glyph-name="I" unicode="I" horiz-adv-x="572" 
d="M202 0l290 1365h167l-290 -1365h-167z" />
    <glyph glyph-name="J" unicode="J" horiz-adv-x="654" 
d="M1 -19l31 147q42 -18 89 -18q136 0 210 124q24 40 38.5 86t41.5 175l185 870h167l-191 -898q-35 -162 -61 -233t-73 -130q-57 -71 -138 -104t-197 -33q-48 0 -102 14z" />
    <glyph glyph-name="K" unicode="K" horiz-adv-x="1149" 
d="M790 791l347 -791h-189l-290 669l-183 -168l-106 -501h-167l290 1365h167l-137 -645l688 645h206z" />
    <glyph glyph-name="L" unicode="L" horiz-adv-x="973" 
d="M202 0l290 1365h167l-260 -1220h595l-31 -145h-761z" />
    <glyph glyph-name="M" unicode="M" horiz-adv-x="1558" 
d="M202 0l290 1365h217l116 -1152l593 1152h228l-291 -1365h-152l247 1164l-585 -1164h-166l-106 1141l-242 -1141h-149z" />
    <glyph glyph-name="N" unicode="N" horiz-adv-x="1331" 
d="M202 0l290 1365h180l353 -1133l241 1133h152l-290 -1365h-180l-353 1133l-240 -1133h-153z" />
    <glyph glyph-name="O" unicode="O" horiz-adv-x="1364" 
d="M951 1396q210 0 331 -132q66 -73 99 -190q26 -89 26 -186q0 -156 -46 -316.5t-127 -286.5q-205 -318 -532 -318q-237 0 -354 159q-101 137 -101 356q0 208 74 403q93 248 280 392q157 119 350 119zM936 1250q-216 0 -369 -242q-145 -228 -145 -535q0 -187 85 -279
q77 -84 196 -84q226 0 381 249q68 110 107.5 252.5t39.5 278.5q0 182 -88 280q-73 80 -207 80z" />
    <glyph glyph-name="P" unicode="P" horiz-adv-x="1144" 
d="M202 0l290 1365h406q182 0 275 -91q93 -92 93 -252q0 -110 -44 -205t-124 -156q-129 -99 -357 -99h-253l-119 -562h-167zM519 707h233q86 0 142 17t99 57q94 86 94 232q0 114 -76 170q-50 37 -172 37h-211z" />
    <glyph glyph-name="Q" unicode="Q" horiz-adv-x="1364" 
d="M975 34q-122 -67 -278 -67q-231 0 -349 160q-101 136 -101 358q0 205 73 400q93 249 281 392q156 119 349 119q214 0 332 -132q58 -65 91.5 -165.5t33.5 -210.5q0 -218 -84 -427.5t-222 -335.5l105 -143l-121 -98zM884 158l-111 151l122 97l111 -151q74 86 125 192
q100 210 100 444q0 85 -23.5 159.5t-64.5 119.5q-73 80 -207 80q-216 0 -369 -242q-145 -228 -145 -532q0 -190 85 -282q77 -84 196 -84q93 0 181 48z" />
    <glyph glyph-name="R" unicode="R" horiz-adv-x="1241" 
d="M202 0l290 1365h457q355 0 355 -320q0 -318 -321 -383q154 -32 154 -188q0 -34 -7 -88l-23 -178q-8 -61 -8 -102q0 -71 25 -106h-190q-10 27 -10 53q0 27 11 113l27 228q4 29 4 67q0 74 -42.5 102.5t-152.5 28.5h-277l-125 -592h-167zM525 735h228q114 0 174 15t107 54
q92 80 92 222q0 99 -56.5 146.5t-175.5 47.5h-266z" />
    <glyph glyph-name="S" unicode="S" 
d="M203 424h164q-7 -49 -7 -83q0 -80 37 -135q61 -91 216 -91q166 0 252 114q50 68 50 158q0 148 -173 219l-168 70q-117 48 -173 125.5t-56 190.5q0 166 106 273q130 132 346 132q192 0 298 -96q92 -84 92 -217q0 -29 -7 -84h-174q7 37 7 61q0 89 -57.5 139.5t-158.5 50.5
q-128 0 -206 -72q-67 -63 -67 -165q0 -72 37.5 -120t120.5 -83l182 -75q124 -52 179.5 -128.5t55.5 -196.5q0 -177 -112 -297q-136 -146 -388 -146q-120 0 -201.5 31t-134.5 97q-71 89 -71 217q0 44 11 111z" />
    <glyph glyph-name="T" unicode="T" horiz-adv-x="927" 
d="M371 0l260 1220h-380l31 145h926l-31 -145h-380l-259 -1220h-167z" />
    <glyph glyph-name="U" unicode="U" horiz-adv-x="1294" 
d="M472 1365h164l-164 -771q-35 -167 -35 -249q0 -118 68 -178q64 -57 179 -57q206 0 299 173q40 75 90 311l164 771h166l-163 -769q-42 -198 -61 -255q-68 -199 -198 -291q-119 -83 -300 -83q-224 0 -331 122q-80 92 -80 228q0 99 39 282z" />
    <glyph glyph-name="V" unicode="V" horiz-adv-x="1085" 
d="M449 0l-116 1365h178l72 -1182l574 1182h175l-696 -1365h-187z" />
    <glyph glyph-name="W" unicode="W" horiz-adv-x="1567" 
d="M349 0l-5 1365h163l-21 -1132l490 1132h189l7 -1134l466 1134h166l-594 -1365h-174l-9 1154l-502 -1154h-176z" />
    <glyph glyph-name="X" unicode="X" horiz-adv-x="1069" 
d="M37 0l549 699l-234 666h188l166 -528l403 528h190l-517 -657l249 -708h-190l-182 560l-429 -560h-193z" />
    <glyph glyph-name="Y" unicode="Y" horiz-adv-x="1030" 
d="M430 0l119 560l-270 805h191l198 -643l466 643h191l-609 -805l-119 -560h-167z" />
    <glyph glyph-name="Z" unicode="Z" horiz-adv-x="1075" 
d="M74 0l32 151l939 1069h-654l31 145h835l-31 -147l-941 -1073h728l-31 -145h-908z" />
    <glyph glyph-name="bracketleft" unicode="[" horiz-adv-x="642" 
d="M795 1365l-27 -127h-172l-311 -1465h172l-28 -128h-313l366 1720h313z" />
    <glyph glyph-name="backslash" unicode="\" horiz-adv-x="736" 
d="M554 -355l-207 1720h126l211 -1720h-130z" />
    <glyph glyph-name="bracketright" unicode="]" horiz-adv-x="642" 
d="M61 -355l27 127h172l311 1465h-172l28 128h313l-366 -1720h-313z" />
    <glyph glyph-name="asciicircum" unicode="^" horiz-adv-x="1073" 
d="M406 764h-156l483 605h189l226 -605h-157l-189 491z" />
    <glyph glyph-name="underscore" unicode="_" horiz-adv-x="1076" 
d="M71 -110h888l-29 -132h-887z" />
    <glyph glyph-name="grave" unicode="`" horiz-adv-x="1250" 
d="M851 1365l104 -273h-130l-120 273h146z" />
    <glyph glyph-name="a" unicode="a" horiz-adv-x="975" 
d="M950 115l-25 -118q-49 -15 -82 -15q-60 0 -97 32.5t-37 85.5q0 12 3 35q-145 -164 -330 -164q-118 0 -185 65q-64 62 -64 160q0 105 65.5 188t181.5 126q70 25 156 35.5t266 14.5l19 88q9 42 9 68q0 131 -178 131q-95 0 -146.5 -32.5t-73.5 -106.5l-164 -1
q27 126 127 195t255 69q136 0 221 -49q106 -60 106 -186q0 -43 -25 -161l-76 -356q-10 -49 -10 -63q0 -46 48 -46q13 0 36 5zM781 458q-192 -7 -290 -32q-94 -23 -147 -77.5t-53 -127.5q0 -59 36 -93t98 -34q145 0 253 127q70 83 92 185z" />
    <glyph glyph-name="b" unicode="b" horiz-adv-x="1093" 
d="M162 0l290 1365h153l-113 -532q125 138 299 138q139 0 226 -84q98 -94 98 -264q0 -125 -42 -251.5t-113 -215.5q-148 -185 -365 -185q-91 0 -150 33t-108 110l-24 -114h-151zM762 848q-74 0 -143.5 -41.5t-118.5 -114.5q-46 -70 -74 -171t-28 -197q0 -120 68 -181
q54 -49 135 -49q155 0 262 170q96 154 96 344q0 131 -66 192q-53 48 -131 48z" />
    <glyph glyph-name="c" unicode="c" horiz-adv-x="959" 
d="M806 336h164q-25 -110 -107 -206q-136 -159 -342 -159q-166 0 -256 94q-96 99 -96 269q0 120 34.5 234t96.5 196q155 207 401 207q155 0 242 -79q88 -81 88 -212q0 -16 -1 -36h-166q-1 63 -10 92q-38 112 -166 112q-165 0 -273 -178q-90 -149 -90 -338q0 -112 54 -175
t149 -63q125 0 213 114q40 51 65 128z" />
    <glyph glyph-name="d" unicode="d" horiz-adv-x="1092" 
d="M929 0h-153l24 114q-122 -143 -303 -143q-146 0 -233 88q-44 44 -69 115.5t-25 151.5q0 132 39.5 260t104.5 207q146 178 368 178q182 0 271 -138l114 532h152zM689 848q-161 0 -263 -163q-98 -154 -98 -345q0 -130 65 -194q51 -52 132 -52t153 45t121 126
q42 69 67.5 163.5t25.5 182.5q0 131 -74 192q-54 45 -129 45z" />
    <glyph glyph-name="e" unicode="e" horiz-adv-x="997" 
d="M1001 431h-658q-11 -58 -11 -99q0 -100 46 -159q62 -79 173 -79q132 0 225 131h169q-132 -254 -402 -254q-163 0 -257 86q-114 105 -114 294q0 120 39 237t107 201q147 182 367 182q174 0 261 -95q82 -91 82 -234q0 -83 -27 -211zM862 554q8 51 8 82q0 92 -41 147
q-48 65 -150 65q-128 0 -219 -117q-54 -71 -88 -177h490z" />
    <glyph glyph-name="f" unicode="f" horiz-adv-x="514" 
d="M169 0l173 815h-148l27 127h148l41 185q18 85 37 127t53 73q74 69 196 69q47 0 112 -14l-28 -135q-43 14 -76 14q-63 0 -96.5 -36t-51.5 -124l-34 -159h170l-27 -127h-170l-173 -815h-153z" />
    <glyph glyph-name="g" unicode="g" horiz-adv-x="1069" 
d="M76 -109h169q6 -52 33 -76q52 -47 161 -47q255 0 321 309l13 62q-107 -152 -288 -152q-140 0 -224 88q-43 46 -68.5 118t-25.5 151q0 115 38.5 231.5t106.5 205.5q145 190 363 190q96 0 156.5 -35t97.5 -111l25 117h151l-172 -809q-27 -129 -51.5 -193t-68.5 -122
q-129 -173 -391 -173q-164 0 -252 62.5t-94 183.5zM669 848q-158 0 -256 -176q-87 -156 -87 -332q0 -92 35 -149q50 -81 153 -81q161 0 264 181q88 154 88 328q0 97 -40 156q-50 73 -157 73z" />
    <glyph glyph-name="h" unicode="h" horiz-adv-x="1060" 
d="M162 0l290 1365h153l-115 -537q127 143 303 143q121 0 188.5 -62t67.5 -172q0 -64 -13 -125l-130 -612h-153l126 594q14 63 14 118q0 64 -39.5 100t-110.5 36q-154 0 -247 -141q-27 -41 -45 -94t-42 -168l-94 -445h-153z" />
    <glyph glyph-name="i" unicode="i" horiz-adv-x="477" 
d="M162 0l200 942h153l-200 -942h-153zM408 1157l44 208h162l-44 -208h-162z" />
    <glyph glyph-name="j" unicode="j" horiz-adv-x="478" 
d="M-55 -349l28 131q31 -8 54 -8q88 0 114 125l222 1043h152l-217 -1022q-28 -131 -81 -192q-72 -83 -203 -83q-29 0 -69 6zM409 1157l44 208h162l-45 -208h-161z" />
    <glyph glyph-name="k" unicode="k" horiz-adv-x="965" 
d="M664 585l274 -585h-178l-224 483l-143 -113l-78 -370h-153l290 1365h153l-171 -802l471 379h210z" />
    <glyph glyph-name="l" unicode="l" horiz-adv-x="478" 
d="M162 0l290 1365h153l-290 -1365h-153z" />
    <glyph glyph-name="m" unicode="m" horiz-adv-x="1557" 
d="M162 0l200 942h148l-25 -119q130 148 290 148q89 0 147 -40.5t77 -116.5q135 157 319 157q118 0 182 -66q58 -59 58 -152q0 -44 -12 -102l-139 -651h-152l126 594q18 85 18 128q0 126 -136 126q-147 0 -232 -143q-31 -52 -64 -205l-106 -500h-153l129 606q17 79 17 126
q0 117 -124 117q-70 0 -134.5 -39t-106.5 -107q-38 -62 -68 -204l-106 -499h-153z" />
    <glyph glyph-name="n" unicode="n" horiz-adv-x="1055" 
d="M162 0l200 942h153l-25 -114q127 143 303 143q121 0 188.5 -62t67.5 -172q0 -64 -13 -125l-130 -612h-153l126 594q14 63 14 118q0 64 -39.5 100t-110.5 36q-154 0 -247 -141q-27 -41 -45 -94t-42 -168l-94 -445h-153z" />
    <glyph glyph-name="o" unicode="o" horiz-adv-x="1034" 
d="M709 971q155 0 250 -84q108 -94 108 -283q0 -135 -49 -267q-77 -209 -237 -303q-107 -63 -244 -63q-172 0 -266 92q-101 98 -101 269q0 117 35.5 232t97.5 199q153 208 406 208zM700 848q-171 0 -281 -173q-93 -147 -93 -339q0 -141 81 -202q54 -40 134 -40
q153 0 256 145q51 72 81.5 171.5t30.5 195.5q0 137 -77 198q-53 44 -132 44z" />
    <glyph glyph-name="p" unicode="p" horiz-adv-x="1093" 
d="M88 -355l276 1297h153l-25 -114q119 143 300 143q151 0 238 -88q43 -44 68.5 -116t25.5 -151q0 -126 -41.5 -251t-110.5 -210q-150 -184 -367 -184q-189 0 -266 138l-98 -464h-153zM768 848q-80 0 -152.5 -45t-122.5 -126q-42 -68 -67 -163.5t-25 -184.5q0 -129 74 -190
q55 -45 131 -45q159 0 262 163q98 153 98 342q0 131 -65 197q-51 52 -133 52z" />
    <glyph glyph-name="q" unicode="q" horiz-adv-x="1090" 
d="M852 -355h-153l99 464q-65 -74 -133 -106t-161 -32q-150 0 -238 87q-99 97 -99 292q0 257 154 444q146 177 367 177q193 0 263 -143l24 114h153zM686 848q-157 0 -264 -170q-96 -154 -96 -344q0 -132 67 -192q54 -48 132 -48q75 0 144 41t118 116q47 70 75 169t28 195
q0 123 -68 184q-55 49 -136 49z" />
    <glyph glyph-name="r" unicode="r" horiz-adv-x="646" 
d="M162 0l200 942h144l-38 -177q51 80 112 127q46 36 110.5 58t122.5 22q10 0 32 -1l-36 -171q-39 4 -51 4q-119 0 -210 -89q-60 -57 -93.5 -135.5t-68.5 -242.5l-71 -337h-153z" />
    <glyph glyph-name="s" unicode="s" horiz-adv-x="913" 
d="M158 266h166q-5 -27 -5 -41q0 -59 44.5 -93t121.5 -34q89 0 146 44q60 45 60 115q0 67 -86 115l-178 98q-150 84 -150 229q0 124 92.5 198t247.5 74q140 0 220 -57t80 -160q0 -22 -4 -55h-160q3 24 3 38q0 54 -39 83.5t-109 29.5q-76 0 -122.5 -36t-46.5 -95
q0 -68 86 -116l204 -115q143 -81 143 -210q0 -140 -106 -223.5t-283 -83.5q-187 0 -269 85q-61 62 -61 158q0 17 5 52z" />
    <glyph glyph-name="t" unicode="t" horiz-adv-x="558" 
d="M199 815l27 127h148l30 141l160 166h28l-65 -307h176l-27 -127h-176l-119 -557q-11 -54 -11 -87q0 -30 21 -47.5t57 -17.5q28 0 80 13l-27 -126q-58 -13 -100 -13q-190 0 -190 157q0 38 22 139l114 539h-148z" />
    <glyph glyph-name="u" unicode="u" horiz-adv-x="1060" 
d="M1097 942l-200 -942h-152l24 114q-127 -143 -303 -143q-121 0 -188.5 62t-67.5 172q0 62 13 125l131 612h152l-126 -594q-14 -65 -14 -118q0 -64 39.5 -100t110.5 -36q154 0 247 141q28 41 45.5 94t41.5 168l95 445h152z" />
    <glyph glyph-name="v" unicode="v" horiz-adv-x="839" 
d="M338 0l-125 942h169l79 -758l393 758l173 -1l-519 -941h-170z" />
    <glyph glyph-name="w" unicode="w" horiz-adv-x="1266" 
d="M293 0l-80 942h164l37 -745l336 745h166l26 -743l351 743h162l-479 -942h-166l-25 718l-324 -718h-168z" />
    <glyph glyph-name="x" unicode="x" horiz-adv-x="873" 
d="M12 0l434 496l-209 446h184l136 -328l280 328h185l-394 -433l230 -509h-184l-161 381l-315 -381h-186z" />
    <glyph glyph-name="y" unicode="y" horiz-adv-x="859" 
d="M25 -340l28 132q12 -4 18 -7q36 -14 65 -14q86 0 140 89l90 150l-154 932h174l95 -731l393 731h172l-598 -1043q-76 -133 -131 -182q-79 -72 -191 -72q-44 0 -101 15z" />
    <glyph glyph-name="z" unicode="z" horiz-adv-x="833" 
d="M53 0l24 113l695 702h-510l27 127h697l-21 -101l-701 -714h569l-27 -127h-753z" />
    <glyph glyph-name="braceleft" unicode="{" horiz-adv-x="667" 
d="M357 503q43 -26 60.5 -57t17.5 -80q0 -42 -12 -97l-68 -323q-12 -55 -12 -93q0 -48 46 -68q27 -12 99 -12h23l-28 -128h-37l-54 -1q-35 0 -76.5 14t-65.5 35q-53 45 -53 123q0 56 14 121l70 328q9 44 9 79q0 84 -86 107l24 114q67 17 102 57.5t52 119.5l75 351
q31 146 113.5 209t241.5 63h37l-27 -127h-23q-96 0 -140.5 -36.5t-65.5 -132.5l-71 -336q-20 -94 -56 -144t-109 -86z" />
    <glyph glyph-name="bar" unicode="|" horiz-adv-x="1292" 
d="M853 1365h166l-363 -1706h-166z" />
    <glyph glyph-name="braceright" unicode="}" horiz-adv-x="693" 
d="M524 503q-44 28 -60.5 56.5t-16.5 78.5q0 47 10 95l72 336q10 49 10 80q0 89 -144 89h-23l27 127h36q252 0 252 -177q0 -41 -11 -95l-75 -351q-8 -37 -8 -73q0 -80 87 -104l-25 -114q-67 -17 -102 -58.5t-53 -127.5l-70 -328q-31 -143 -91 -208q-35 -38 -95 -61.5
t-120 -23.5l-54 1h-37l27 128h23q98 0 136 29q28 21 43 51.5t28 92.5l69 323q20 95 56.5 147t108.5 87z" />
    <glyph glyph-name="asciitilde" unicode="~" horiz-adv-x="1492" 
d="M598 1186l-74 70q84 121 162 176t164 55q78 0 218 -78q79 -44 112 -56.5t69 -12.5q99 0 218 152l73 -70q-160 -233 -328 -233q-40 0 -82.5 16t-132.5 65q-77 42 -111.5 54.5t-71.5 12.5q-54 0 -102.5 -34t-113.5 -117z" />
    <glyph glyph-name="Adieresis" unicode="&#xc4;" 
d="M779 1365h185l154 -1365h-178l-38 419h-463l-218 -419h-178zM512 560h378l-56 619zM1133 1678l-41 -194h-144l41 194h144zM850 1678l-42 -194h-143l41 194h144z" />
    <glyph glyph-name="Aring" unicode="&#xc5;" 
d="M779 1365h185l154 -1365h-178l-38 419h-463l-218 -419h-178zM512 560h378l-56 619zM913 1733q-42 0 -71.5 -31t-29.5 -75t29 -75t70 -31q42 0 71 31t29 75q0 43 -29 74.5t-69 31.5zM914 1821q80 0 137.5 -57t57.5 -137t-58 -136.5t-140 -56.5t-140 56.5t-58 135.5
q0 82 58 138.5t143 56.5z" />
    <glyph glyph-name="Ccedilla" unicode="&#xc7;" horiz-adv-x="1278" 
d="M687 -33l-44 -73q27 11 55 11q60 0 96.5 -34.5t36.5 -92.5q0 -81 -60.5 -136.5t-150.5 -55.5q-65 0 -106.5 28t-41.5 72q0 4 1 11h105q1 -34 46 -34q40 0 66 31t26 77q0 58 -56 58q-43 0 -61 -30h-102l105 175q-85 14 -147 48q-96 54 -143 151q-65 135 -65 302
q0 208 69 402q84 234 266 384q163 135 376 135q202 0 313 -121q45 -48 71 -115.5t26 -135.5q0 -22 -5 -68h-171q1 20 1 26q0 108 -57 184q-64 87 -196 87q-224 0 -377 -256q-65 -108 -102 -249.5t-37 -280.5q0 -180 79 -274q68 -82 194 -82q141 0 246 103t166 301h170
q-65 -251 -210 -396q-153 -152 -382 -152z" />
    <glyph glyph-name="Eacute" unicode="&#xc9;" horiz-adv-x="1125" 
d="M202 0l290 1365h789l-31 -145h-622l-95 -447h580l-30 -141h-580l-104 -487h631l-31 -145h-797zM1182 1734l-253 -255h-130l231 255h152z" />
    <glyph glyph-name="Ntilde" unicode="&#xd1;" horiz-adv-x="1331" 
d="M202 0l290 1365h180l353 -1133l241 1133h152l-290 -1365h-180l-353 1133l-240 -1133h-153zM1310 1703q-34 -100 -91.5 -156t-125.5 -56q-57 0 -118 57q-47 43 -84 43q-60 0 -98 -93h-103q77 212 219 212q57 0 118 -54q49 -42 78 -42q61 0 99 89h106z" />
    <glyph glyph-name="Odieresis" unicode="&#xd6;" horiz-adv-x="1364" 
d="M951 1396q210 0 331 -132q66 -73 99 -190q26 -89 26 -186q0 -156 -46 -316.5t-127 -286.5q-205 -318 -532 -318q-237 0 -354 159q-101 137 -101 356q0 208 74 403q93 248 280 392q157 119 350 119zM936 1250q-216 0 -369 -242q-145 -228 -145 -535q0 -187 85 -279
q77 -84 196 -84q226 0 381 249q68 110 107.5 252.5t39.5 278.5q0 182 -88 280q-73 80 -207 80zM1253 1678l-41 -194h-144l41 194h144zM970 1678l-42 -194h-143l41 194h144z" />
    <glyph glyph-name="Udieresis" unicode="&#xdc;" horiz-adv-x="1294" 
d="M472 1365h164l-164 -771q-35 -167 -35 -249q0 -118 68 -178q64 -57 179 -57q206 0 299 173q40 75 90 311l164 771h166l-163 -769q-42 -198 -61 -255q-68 -199 -198 -291q-119 -83 -300 -83q-224 0 -331 122q-80 92 -80 228q0 99 39 282zM1224 1678l-41 -194h-144l41 194
h144zM941 1678l-42 -194h-143l41 194h144z" />
    <glyph glyph-name="aacute" unicode="&#xe1;" horiz-adv-x="975" 
d="M950 115l-25 -118q-49 -15 -82 -15q-60 0 -97 32.5t-37 85.5q0 12 3 35q-145 -164 -330 -164q-118 0 -185 65q-64 62 -64 160q0 105 65.5 188t181.5 126q70 25 156 35.5t266 14.5l19 88q9 42 9 68q0 131 -178 131q-95 0 -146.5 -32.5t-73.5 -106.5l-164 -1
q27 126 127 195t255 69q136 0 221 -49q106 -60 106 -186q0 -43 -25 -161l-76 -356q-10 -49 -10 -63q0 -46 48 -46q13 0 36 5zM781 458q-192 -7 -290 -32q-94 -23 -147 -77.5t-53 -127.5q0 -59 36 -93t98 -34q145 0 253 127q70 83 92 185zM997 1365l-237 -273h-130l221 273
h146z" />
    <glyph glyph-name="agrave" unicode="&#xe0;" horiz-adv-x="975" 
d="M950 115l-25 -118q-49 -15 -82 -15q-60 0 -97 32.5t-37 85.5q0 12 3 35q-145 -164 -330 -164q-118 0 -185 65q-64 62 -64 160q0 105 65.5 188t181.5 126q70 25 156 35.5t266 14.5l19 88q9 42 9 68q0 131 -178 131q-95 0 -146.5 -32.5t-73.5 -106.5l-164 -1
q27 126 127 195t255 69q136 0 221 -49q106 -60 106 -186q0 -43 -25 -161l-76 -356q-10 -49 -10 -63q0 -46 48 -46q13 0 36 5zM781 458q-192 -7 -290 -32q-94 -23 -147 -77.5t-53 -127.5q0 -59 36 -93t98 -34q145 0 253 127q70 83 92 185zM719 1365l104 -273h-130l-120 273
h146z" />
    <glyph glyph-name="acircumflex" unicode="&#xe2;" horiz-adv-x="975" 
d="M950 115l-25 -118q-49 -15 -82 -15q-60 0 -97 32.5t-37 85.5q0 12 3 35q-145 -164 -330 -164q-118 0 -185 65q-64 62 -64 160q0 105 65.5 188t181.5 126q70 25 156 35.5t266 14.5l19 88q9 42 9 68q0 131 -178 131q-95 0 -146.5 -32.5t-73.5 -106.5l-164 -1
q27 126 127 195t255 69q136 0 221 -49q106 -60 106 -186q0 -43 -25 -161l-76 -356q-10 -49 -10 -63q0 -46 48 -46q13 0 36 5zM781 458q-192 -7 -290 -32q-94 -23 -147 -77.5t-53 -127.5q0 -59 36 -93t98 -34q145 0 253 127q70 83 92 185zM989 1092h-136l-82 197l-168 -197
h-139l237 273h164z" />
    <glyph glyph-name="adieresis" unicode="&#xe4;" horiz-adv-x="975" 
d="M950 115l-25 -118q-49 -15 -82 -15q-60 0 -97 32.5t-37 85.5q0 12 3 35q-145 -164 -330 -164q-118 0 -185 65q-64 62 -64 160q0 105 65.5 188t181.5 126q70 25 156 35.5t266 14.5l19 88q9 42 9 68q0 131 -178 131q-95 0 -146.5 -32.5t-73.5 -106.5l-164 -1
q27 126 127 195t255 69q136 0 221 -49q106 -60 106 -186q0 -43 -25 -161l-76 -356q-10 -49 -10 -63q0 -46 48 -46q13 0 36 5zM781 458q-192 -7 -290 -32q-94 -23 -147 -77.5t-53 -127.5q0 -59 36 -93t98 -34q145 0 253 127q70 83 92 185zM980 1297l-40 -191h-144l41 191h143
zM697 1297l-41 -191h-143l41 191h143z" />
    <glyph glyph-name="atilde" unicode="&#xe3;" horiz-adv-x="975" 
d="M950 115l-25 -118q-49 -15 -82 -15q-60 0 -97 32.5t-37 85.5q0 12 3 35q-145 -164 -330 -164q-118 0 -185 65q-64 62 -64 160q0 105 65.5 188t181.5 126q70 25 156 35.5t266 14.5l19 88q9 42 9 68q0 131 -178 131q-95 0 -146.5 -32.5t-73.5 -106.5l-164 -1
q27 126 127 195t255 69q136 0 221 -49q106 -60 106 -186q0 -43 -25 -161l-76 -356q-10 -49 -10 -63q0 -46 48 -46q13 0 36 5zM781 458q-192 -7 -290 -32q-94 -23 -147 -77.5t-53 -127.5q0 -59 36 -93t98 -34q145 0 253 127q70 83 92 185zM1065 1317q-75 -211 -199 -211
q-49 0 -126 56q-58 43 -89 43q-51 0 -91 -92h-101q23 68 51 111q66 100 153 100q51 0 123 -56q57 -44 82 -44q56 0 95 93h102z" />
    <glyph glyph-name="aring" unicode="&#xe5;" horiz-adv-x="975" 
d="M950 115l-25 -118q-49 -15 -82 -15q-60 0 -97 32.5t-37 85.5q0 12 3 35q-145 -164 -330 -164q-118 0 -185 65q-64 62 -64 160q0 105 65.5 188t181.5 126q70 25 156 35.5t266 14.5l19 88q9 42 9 68q0 131 -178 131q-95 0 -146.5 -32.5t-73.5 -106.5l-164 -1
q27 126 127 195t255 69q136 0 221 -49q106 -60 106 -186q0 -43 -25 -161l-76 -356q-10 -49 -10 -63q0 -46 48 -46q13 0 36 5zM781 458q-192 -7 -290 -32q-94 -23 -147 -77.5t-53 -127.5q0 -59 36 -93t98 -34q145 0 253 127q70 83 92 185zM750 1356q-42 0 -70.5 -30
t-28.5 -74q0 -43 28.5 -73t68.5 -30q41 0 69.5 30t28.5 72q0 44 -28 74.5t-68 30.5zM752 1440q78 0 133.5 -55.5t55.5 -133.5q0 -77 -56.5 -131.5t-136.5 -54.5q-79 0 -135.5 55t-56.5 132q0 79 56.5 133.5t139.5 54.5z" />
    <glyph glyph-name="ccedilla" unicode="&#xe7;" horiz-adv-x="959" 
d="M531 -28l-46 -80q22 9 45 9q57 0 93.5 -35.5t36.5 -91.5q0 -79 -57.5 -131.5t-145.5 -52.5q-59 0 -96 26.5t-37 70.5v12h93q2 -34 49 -34q40 0 66 30t26 75q0 58 -57 58q-42 0 -59 -29h-93l103 177q-58 10 -98 27q-87 38 -132 120q-53 96 -53 211q0 120 34.5 234
t96.5 196q156 207 401 207q155 0 242 -79q88 -81 88 -212q0 -16 -1 -36h-166q-1 63 -10 92q-38 112 -166 112q-165 0 -273 -178q-90 -149 -90 -338q0 -112 54 -175t149 -63q125 0 213 114q40 51 65 128h164q-36 -157 -159.5 -259.5t-279.5 -104.5z" />
    <glyph glyph-name="eacute" unicode="&#xe9;" horiz-adv-x="997" 
d="M1001 431h-658q-11 -58 -11 -99q0 -100 46 -159q62 -79 173 -79q132 0 225 131h169q-132 -254 -402 -254q-163 0 -257 86q-114 105 -114 294q0 120 39 237t107 201q147 182 367 182q174 0 261 -95q82 -91 82 -234q0 -83 -27 -211zM862 554q8 51 8 82q0 92 -41 147
q-48 65 -150 65q-128 0 -219 -117q-54 -71 -88 -177h490zM1005 1365l-237 -273h-130l221 273h146z" />
    <glyph glyph-name="egrave" unicode="&#xe8;" horiz-adv-x="997" 
d="M1001 431h-658q-11 -58 -11 -99q0 -100 46 -159q62 -79 173 -79q132 0 225 131h169q-132 -254 -402 -254q-163 0 -257 86q-114 105 -114 294q0 120 39 237t107 201q147 182 367 182q174 0 261 -95q82 -91 82 -234q0 -83 -27 -211zM862 554q8 51 8 82q0 92 -41 147
q-48 65 -150 65q-128 0 -219 -117q-54 -71 -88 -177h490zM692 1365l104 -273h-130l-120 273h146z" />
    <glyph glyph-name="ecircumflex" unicode="&#xea;" horiz-adv-x="997" 
d="M1001 431h-658q-11 -58 -11 -99q0 -100 46 -159q62 -79 173 -79q132 0 225 131h169q-132 -254 -402 -254q-163 0 -257 86q-114 105 -114 294q0 120 39 237t107 201q147 182 367 182q174 0 261 -95q82 -91 82 -234q0 -83 -27 -211zM862 554q8 51 8 82q0 92 -41 147
q-48 65 -150 65q-128 0 -219 -117q-54 -71 -88 -177h490zM1019 1092h-136l-82 197l-168 -197h-139l237 273h164z" />
    <glyph glyph-name="edieresis" unicode="&#xeb;" horiz-adv-x="997" 
d="M996 1297l-40 -191h-144l41 191h143zM713 1297l-40 -191h-144l41 191h143zM1001 431h-658q-11 -58 -11 -99q0 -100 46 -159q62 -79 173 -79q132 0 225 131h169q-132 -254 -402 -254q-163 0 -257 86q-114 105 -114 294q0 120 39 237t107 201q147 182 367 182
q174 0 261 -95q82 -91 82 -234q0 -83 -27 -211zM862 554q8 51 8 82q0 92 -41 147q-48 65 -150 65q-128 0 -219 -117q-54 -71 -88 -177h490z" />
    <glyph glyph-name="iacute" unicode="&#xed;" horiz-adv-x="477" 
d="M162 0l200 942h153l-200 -942h-153zM748 1365l-237 -273h-130l221 273h146z" />
    <glyph glyph-name="igrave" unicode="&#xec;" horiz-adv-x="477" 
d="M162 0l200 942h153l-200 -942h-153zM443 1365l104 -273h-130l-120 273h146z" />
    <glyph glyph-name="icircumflex" unicode="&#xee;" horiz-adv-x="477" 
d="M162 0l200 942h153l-200 -942h-153zM760 1092h-136l-82 197l-168 -197h-139l237 273h164z" />
    <glyph glyph-name="idieresis" unicode="&#xef;" horiz-adv-x="477" 
d="M162 0l200 942h153l-200 -942h-153zM719 1297l-40 -191h-144l41 191h143zM477 1297l-41 -191h-143l41 191h143z" />
    <glyph glyph-name="ntilde" unicode="&#xf1;" horiz-adv-x="1055" 
d="M162 0l200 942h153l-25 -114q127 143 303 143q121 0 188.5 -62t67.5 -172q0 -64 -13 -125l-130 -612h-153l126 594q14 63 14 118q0 64 -39.5 100t-110.5 36q-154 0 -247 -141q-27 -41 -45 -94t-42 -168l-94 -445h-153zM1090 1317q-75 -211 -199 -211q-49 0 -126 56
q-58 43 -89 43q-51 0 -91 -92h-101q23 68 51 111q66 100 153 100q51 0 123 -56q57 -44 82 -44q56 0 95 93h102z" />
    <glyph glyph-name="oacute" unicode="&#xf3;" horiz-adv-x="1034" 
d="M709 971q155 0 250 -84q108 -94 108 -283q0 -135 -49 -267q-77 -209 -237 -303q-107 -63 -244 -63q-172 0 -266 92q-101 98 -101 269q0 117 35.5 232t97.5 199q153 208 406 208zM700 848q-171 0 -281 -173q-93 -147 -93 -339q0 -141 81 -202q54 -40 134 -40
q153 0 256 145q51 72 81.5 171.5t30.5 195.5q0 137 -77 198q-53 44 -132 44zM1040 1365l-237 -273h-130l221 273h146z" />
    <glyph glyph-name="ograve" unicode="&#xf2;" horiz-adv-x="1034" 
d="M709 971q155 0 250 -84q108 -94 108 -283q0 -135 -49 -267q-77 -209 -237 -303q-107 -63 -244 -63q-172 0 -266 92q-101 98 -101 269q0 117 35.5 232t97.5 199q153 208 406 208zM700 848q-171 0 -281 -173q-93 -147 -93 -339q0 -141 81 -202q54 -40 134 -40
q153 0 256 145q51 72 81.5 171.5t30.5 195.5q0 137 -77 198q-53 44 -132 44zM765 1365l104 -273h-130l-120 273h146z" />
    <glyph glyph-name="ocircumflex" unicode="&#xf4;" horiz-adv-x="1034" 
d="M709 971q155 0 250 -84q108 -94 108 -283q0 -135 -49 -267q-77 -209 -237 -303q-107 -63 -244 -63q-172 0 -266 92q-101 98 -101 269q0 117 35.5 232t97.5 199q153 208 406 208zM700 848q-171 0 -281 -173q-93 -147 -93 -339q0 -141 81 -202q54 -40 134 -40
q153 0 256 145q51 72 81.5 171.5t30.5 195.5q0 137 -77 198q-53 44 -132 44zM1026 1092h-136l-82 197l-168 -197h-139l237 273h164z" />
    <glyph glyph-name="odieresis" unicode="&#xf6;" horiz-adv-x="1034" 
d="M709 971q155 0 250 -84q108 -94 108 -283q0 -135 -49 -267q-77 -209 -237 -303q-107 -63 -244 -63q-172 0 -266 92q-101 98 -101 269q0 117 35.5 232t97.5 199q153 208 406 208zM700 848q-171 0 -281 -173q-93 -147 -93 -339q0 -141 81 -202q54 -40 134 -40
q153 0 256 145q51 72 81.5 171.5t30.5 195.5q0 137 -77 198q-53 44 -132 44zM1005 1297l-40 -191h-144l41 191h143zM722 1297l-41 -191h-143l41 191h143z" />
    <glyph glyph-name="otilde" unicode="&#xf5;" horiz-adv-x="1034" 
d="M709 971q155 0 250 -84q108 -94 108 -283q0 -135 -49 -267q-77 -209 -237 -303q-107 -63 -244 -63q-172 0 -266 92q-101 98 -101 269q0 117 35.5 232t97.5 199q153 208 406 208zM700 848q-171 0 -281 -173q-93 -147 -93 -339q0 -141 81 -202q54 -40 134 -40
q153 0 256 145q51 72 81.5 171.5t30.5 195.5q0 137 -77 198q-53 44 -132 44zM1093 1317q-75 -211 -199 -211q-49 0 -126 56q-58 43 -89 43q-51 0 -91 -92h-101q23 68 51 111q66 100 153 100q51 0 123 -56q57 -44 82 -44q56 0 95 93h102z" />
    <glyph glyph-name="uacute" unicode="&#xfa;" horiz-adv-x="1060" 
d="M1097 942l-200 -942h-152l24 114q-127 -143 -303 -143q-121 0 -188.5 62t-67.5 172q0 62 13 125l131 612h152l-126 -594q-14 -65 -14 -118q0 -64 39.5 -100t110.5 -36q154 0 247 141q28 41 45.5 94t41.5 168l95 445h152zM1023 1365l-237 -273h-130l221 273h146z" />
    <glyph glyph-name="ugrave" unicode="&#xf9;" horiz-adv-x="1060" 
d="M1097 942l-200 -942h-152l24 114q-127 -143 -303 -143q-121 0 -188.5 62t-67.5 172q0 62 13 125l131 612h152l-126 -594q-14 -65 -14 -118q0 -64 39.5 -100t110.5 -36q154 0 247 141q28 41 45.5 94t41.5 168l95 445h152zM737 1365l104 -273h-130l-120 273h146z" />
    <glyph glyph-name="ucircumflex" unicode="&#xfb;" horiz-adv-x="1060" 
d="M1097 942l-200 -942h-152l24 114q-127 -143 -303 -143q-121 0 -188.5 62t-67.5 172q0 62 13 125l131 612h152l-126 -594q-14 -65 -14 -118q0 -64 39.5 -100t110.5 -36q154 0 247 141q28 41 45.5 94t41.5 168l95 445h152zM1029 1092h-136l-82 197l-168 -197h-139l237 273
h164z" />
    <glyph glyph-name="udieresis" unicode="&#xfc;" horiz-adv-x="1060" 
d="M1097 942l-200 -942h-152l24 114q-127 -143 -303 -143q-121 0 -188.5 62t-67.5 172q0 62 13 125l131 612h152l-126 -594q-14 -65 -14 -118q0 -64 39.5 -100t110.5 -36q154 0 247 141q28 41 45.5 94t41.5 168l95 445h152zM1018 1297l-41 -191h-143l40 191h144zM735 1297
l-41 -191h-143l40 191h144z" />
    <glyph glyph-name="dagger" unicode="&#x2020;" horiz-adv-x="971" 
d="M1075 971l-30 -142h-315l-258 -1214h-142l258 1214h-309l30 142h310l84 394h141l-84 -394h315z" />
    <glyph glyph-name="degree" unicode="&#xb0;" horiz-adv-x="918" 
d="M678 1365q75 0 140.5 -35.5t105.5 -98.5q43 -68 43 -147q0 -118 -84 -201q-85 -84 -206 -84t-205 83.5t-84 203.5q0 115 85 196q87 83 205 83zM677 1265q-74 0 -127 -54q-52 -53 -52 -126q0 -61 34 -109q53 -76 145 -76q75 0 127.5 53.5t52.5 128.5q0 76 -52.5 129.5
t-127.5 53.5z" />
    <glyph glyph-name="cent" unicode="&#xa2;" horiz-adv-x="968" 
d="M824 1187q49 -10 86 -25q73 -30 116 -94q49 -72 49 -165q0 -16 -1 -36h-166q5 153 -111 194l-157 -735q68 17 124.5 80t85.5 153h164q-33 -145 -145.5 -247t-255.5 -116l-33 -155h-141l35 162q-43 7 -76 23q-88 40 -132 120q-53 95 -53 211q0 144 47.5 271.5t133.5 215.5
q127 130 290 146l28 134h141zM500 328l156 731q-79 -24 -138 -89q-70 -75 -109.5 -185.5t-39.5 -229.5q0 -88 34 -147t97 -80z" />
    <glyph glyph-name="sterling" unicode="&#xa3;" horiz-adv-x="874" 
d="M180 559l32 147h105q-8 25 -27 83q-31 97 -31 206q0 175 100 280q113 117 322 117q185 0 282 -97q77 -78 77 -193q0 -35 -10 -89h-164q7 40 7 66q0 182 -195 182q-118 0 -184 -68t-66 -189q0 -83 33 -188q28 -87 34 -110h332l-32 -147h-286q-9 -109 -60.5 -194
t-178.5 -198q120 63 176 63q42 0 90 -40q45 -38 76 -38q86 0 125 131h156q-37 -137 -107 -216q-85 -96 -205 -96q-43 0 -73.5 10.5t-82.5 41.5q-70 44 -118 44q-41 0 -85.5 -20t-126.5 -74l-64 104q125 84 206 193q104 138 104 260q0 11 -1 29h-160z" />
    <glyph glyph-name="section" unicode="&#xa7;" horiz-adv-x="1026" 
d="M1052 1069l-150 -1q5 31 5 51q0 143 -145 143q-76 0 -122.5 -45.5t-46.5 -120.5q0 -101 135 -210l167 -136q59 -48 93 -113t34 -130q0 -141 -139 -268q-51 -47 -120 -86q39 -47 53.5 -83.5t14.5 -86.5q0 -142 -89 -240q-55 -59 -118 -85.5t-151 -26.5q-120 0 -193 53
q-102 73 -102 207q0 34 8 80l152 1q-5 -34 -5 -54q0 -69 41.5 -110.5t112.5 -41.5q80 0 131 55t51 142t-110 176l-179 146q-81 66 -114 127t-33 143q0 120 87 217q48 53 171 128q-58 83 -58 172q0 145 94 234q95 90 246 90q130 0 209 -68t79 -179q0 -37 -9 -80zM551 817
q-75 -44 -119 -103.5t-44 -117.5q0 -69 53 -129q27 -31 150 -134q45 -38 105 -99q74 39 118.5 103.5t44.5 131.5q0 56 -47 110.5t-211 188.5q-33 28 -50 49z" />
    <glyph glyph-name="bullet" unicode="&#x2022;" horiz-adv-x="740" 
d="M316 521v394h395v-394h-395z" />
    <glyph glyph-name="paragraph" unicode="&#xb6;" horiz-adv-x="1164" 
d="M424 -202l180 846h-30q-142 1 -225.5 81.5t-83.5 216.5q0 208 157 325q131 98 380 98h548l-25 -116h-122l-309 -1451h-127l308 1451h-215l-309 -1451h-127z" />
    <glyph glyph-name="germandbls" unicode="&#xdf;" horiz-adv-x="1004" 
d="M331 0h-148l173 815h-153l27 127h153l30 137q67 317 381 317q164 0 251 -89q63 -65 63 -160q0 -57 -28 -118.5t-71 -98.5l-124 -109q-50 -44 -50 -82q0 -50 76 -143q67 -82 90.5 -134.5t23.5 -116.5q0 -167 -128 -271q-118 -95 -314 -95q-82 0 -138 21l29 135
q60 -28 125 -28q133 0 209 81q60 63 60 152q0 50 -18.5 91t-77.5 118q-82 110 -82 175q0 83 78 160l105 103q77 75 77 153q0 61 -44 97t-118 36q-119 0 -181 -90q-25 -35 -37 -74.5t-39 -171.5z" />
    <glyph glyph-name="registered" unicode="&#xae;" horiz-adv-x="1477" 
d="M546 273l175 823h258q134 0 196 -66q52 -55 52 -143q0 -169 -170 -220q71 -26 71 -109q0 -23 -15 -138q-7 -52 -7 -75q0 -37 16 -72h-134q-8 24 -8 41q0 21 14 106q10 59 10 100q0 56 -28.5 77t-104.5 21h-131l-74 -345h-120zM762 723h127q113 0 157 38q53 45 53 124
q0 55 -34.5 80t-109.5 25h-136zM987 1282q-176 0 -332 -114q-171 -124 -250 -338q-44 -119 -44 -239q0 -145 59 -263q60 -121 167 -185q100 -60 224 -60q179 0 335 120q172 131 245 339q40 114 40 233q0 143 -56 258q-55 110 -148 175q-108 74 -240 74zM1003 1385
q207 0 356 -141q182 -171 182 -455q0 -285 -184 -516q-108 -135 -248 -211q-150 -82 -313 -82q-206 0 -352 130q-145 130 -182 341q-11 63 -11 126q0 139 52 278q94 250 300 397q186 133 400 133z" />
    <glyph glyph-name="copyright" unicode="&#xa9;" horiz-adv-x="1477" 
d="M1083 591h125q-35 -124 -100 -205q-109 -135 -267 -135q-129 0 -204 84q-70 78 -70 224q0 221 115 382q124 173 313 173q128 0 201 -74q63 -65 63 -156q0 -15 -4 -47h-122v13q0 75 -37.5 117t-105.5 42q-127 0 -214 -147q-82 -138 -82 -303q0 -203 155 -203
q161 0 234 235zM1003 1282q-176 0 -333 -114q-170 -123 -249 -338q-44 -118 -44 -238q0 -145 59 -263q60 -121 167 -185q100 -60 224 -60q179 0 335 119q172 132 245 340q40 114 40 232q0 143 -56 258q-55 110 -148 175q-108 74 -240 74zM1019 1385q207 0 356 -141
q182 -171 182 -455q0 -285 -184 -516q-108 -135 -248 -211q-150 -82 -313 -82q-206 0 -352 130q-145 130 -182 341q-11 63 -11 126q0 139 52 278q94 250 300 397q186 133 400 133z" />
    <glyph glyph-name="trademark" unicode="&#x2122;" horiz-adv-x="1503" 
d="M324 546l151 713h-224l23 106h569l-23 -106h-224l-152 -713h-120zM768 546l174 819h158l63 -664l338 664h160l-174 -819h-112l137 647l-321 -647h-124l-55 635l-135 -635h-109z" />
    <glyph glyph-name="acute" unicode="&#xb4;" horiz-adv-x="1250" 
d="M1135 1365l-237 -273h-130l221 273h146z" />
    <glyph glyph-name="dieresis" unicode="&#xa8;" horiz-adv-x="1214" 
d="M1096 1297l-40 -191h-144l41 191h143zM813 1297l-41 -191h-143l41 191h143z" />
    <glyph glyph-name="notequal" unicode="&#x2260;" horiz-adv-x="1076" 
d="M195 474l28 132h319l133 168h-416l28 132h492l159 201l101 -66l-107 -135h242l-28 -132h-319l-132 -168h416l-29 -132h-492l-159 -201l-100 66l106 135h-242z" />
    <glyph glyph-name="AE" unicode="&#xc6;" horiz-adv-x="1590" 
d="M824 419h-376l-260 -419h-183l870 1365h871l-31 -145h-554l-95 -447h512l-30 -141h-512l-103 -487h562l-31 -145h-729zM854 560l139 653h-54l-404 -653h319z" />
    <glyph glyph-name="Oslash" unicode="&#xd8;" horiz-adv-x="1364" 
d="M329 154q-82 134 -82 337q0 198 73 395q93 248 281 391q157 120 349 120q187 0 305 -106l87 106h135l-154 -189q83 -135 83 -323q0 -154 -46.5 -314.5t-126.5 -285.5q-205 -318 -531 -318q-186 0 -304 103l-83 -103h-138zM447 299l704 863q-73 88 -215 88
q-216 0 -369 -242q-69 -107 -107 -246.5t-38 -280.5q0 -101 25 -182zM1204 1060l-701 -861q80 -88 200 -88q226 0 380 249q68 109 107.5 251.5t39.5 275.5q0 92 -26 173z" />
    <glyph glyph-name="infinity" unicode="&#x221e;" horiz-adv-x="1399" 
d="M842 617q-52 -74 -95 -118q-106 -112 -251 -112q-133 0 -216.5 88t-83.5 227q0 130 80 213q87 91 221 91q186 0 341 -229q50 72 94 117q110 112 251 112q145 0 230 -102q71 -84 71 -210q0 -135 -83 -219q-86 -87 -218 -87q-98 0 -178 54t-163 175zM904 697
q69 -108 130.5 -154.5t136.5 -46.5q83 0 136 56.5t53 145.5q0 95 -63 151q-54 48 -128 48t-134 -45.5t-131 -154.5zM777 696q-70 108 -132 154.5t-138 46.5q-82 0 -134.5 -56.5t-52.5 -144.5q0 -97 63 -153q54 -47 128 -47q75 0 132.5 43.5t133.5 156.5z" />
    <glyph glyph-name="plusminus" unicode="&#xb1;" horiz-adv-x="1076" 
d="M255 756h374l73 347h140l-74 -347h374l-28 -132h-374l-74 -348h-140l74 348h-374zM122 132h888l-29 -132h-887z" />
    <glyph glyph-name="lessequal" unicode="&#x2264;" horiz-adv-x="1076" 
d="M1240 1068l-33 -157l-764 -275l647 -274l-33 -157l-811 360l31 143zM1044 146l-31 -146h-887l31 146h887z" />
    <glyph glyph-name="greaterequal" unicode="&#x2265;" horiz-adv-x="1076" 
d="M340 1068l811 -360l-31 -143l-963 -360l33 157l763 274l-646 275zM144 146h887l-31 -146h-887z" />
    <glyph glyph-name="yen" unicode="&#xa5;" horiz-adv-x="1102" 
d="M622 0h-160l63 299h-264l25 118h264l27 128h-264l25 118h264l-239 702h186l167 -540l392 540h190l-535 -702h261l-25 -118h-261l-27 -128h261l-26 -118h-260z" />
    <glyph glyph-name="mu" unicode="&#xb5;" horiz-adv-x="1075" 
d="M106 -355l276 1297h152l-118 -555q-24 -114 -24 -165q0 -55 26 -86q35 -42 105 -42q69 0 131 39t101 108q43 76 79 245l97 456h153l-201 -942h-143l27 127q-132 -156 -300 -156q-75 0 -131 37l-77 -363h-153z" />
    <glyph glyph-name="partialdiff" unicode="&#x2202;" horiz-adv-x="1049" 
d="M851 929q-40 95 -56 126t-48 77q-67 95 -162 171l77 91q150 -79 256 -241q63 -96 99.5 -225.5t36.5 -255.5q0 -169 -57 -326q-76 -211 -234 -308q-107 -67 -239 -67q-155 0 -238 87q-85 90 -85 257q0 116 36.5 234t100.5 208q73 102 178 160q100 54 206 54q72 0 129 -42z
M708 848q-156 0 -260 -174q-91 -153 -91 -349q0 -109 50.5 -170t141.5 -61q139 0 236 145q49 74 79 177t30 200q0 128 -66 188q-48 44 -120 44z" />
    <glyph glyph-name="summation" unicode="&#x2211;" horiz-adv-x="1434" 
d="M1577 1536l-100 -470h-144l54 323h-819l332 -837l-704 -919h836l78 326h151l-100 -471h-1173l36 169l689 894l-325 819l35 166h1154z" />
    <glyph glyph-name="product" unicode="&#x220f;" horiz-adv-x="1409" 
d="M403 1536h1256l-27 -129h-151l-381 -1790h151l-27 -129h-450l27 129h155l381 1790h-666l-381 -1790h153l-27 -129h-448l27 129h153l380 1790h-152z" />
    <glyph glyph-name="_002" horiz-adv-x="522" 
 />
    <glyph glyph-name="integral" unicode="&#x222b;" horiz-adv-x="1109" 
d="M158 -490l64 148q40 -21 76 -21q80 0 117 60q20 34 54 194l258 1214q45 209 75 270q37 74 113.5 117.5t170.5 43.5q46 0 127 -22l-65 -148q-41 21 -78 21q-73 0 -110 -54q-24 -36 -49 -156l-276 -1297q-31 -144 -52 -197.5t-64 -95.5q-46 -46 -118.5 -72.5t-149.5 -26.5
q-32 0 -71 14q-14 5 -22 8z" />
    <glyph glyph-name="ordfeminine" unicode="&#xaa;" horiz-adv-x="628" 
d="M707 632l-18 -85q-31 -11 -63 -11q-77 0 -77 63q0 5 1 17q-78 -87 -174 -87q-69 0 -110.5 41t-41.5 109q0 62 38.5 111t107.5 73q70 24 232 27l10 46q5 23 5 42q0 31 -25.5 49.5t-69.5 18.5q-53 0 -80 -20t-41 -70h-103q15 71 46 108q58 69 182 69q78 0 125 -26
q67 -36 67 -116q0 -34 -14 -99l-44 -210q-6 -27 -6 -35q0 -20 20 -20q9 0 33 5zM586 816q-95 -3 -147 -18q-48 -13 -77 -45t-29 -73q0 -29 19 -47t50 -18q58 0 111 52.5t69 125.5z" />
    <glyph glyph-name="ordmasculine" unicode="&#xba;" horiz-adv-x="623" 
d="M545 1133q92 0 148 -55q60 -58 60 -159q0 -166 -89.5 -278t-222.5 -112q-99 0 -154 56q-57 59 -57 164q0 148 80 258q90 126 235 126zM537 1047q-88 0 -147 -98q-53 -88 -53 -202q0 -132 110 -132q79 0 134 82q63 93 63 217q0 62 -28.5 97.5t-78.5 35.5z" />
    <glyph glyph-name="Omega" unicode="&#x2126;" horiz-adv-x="1364" 
d="M139 0l29 139h291q-193 179 -193 488t188 533q101 119 238 181q124 55 259 55q269 0 388 -219q74 -135 74 -314q0 -221 -111 -411.5t-312 -312.5h266l-30 -139h-451l27 130q100 54 155.5 100.5t111.5 120.5q162 217 162 498q0 183 -75 290q-79 113 -224 113
q-125 0 -235 -76q-121 -83 -192 -240t-71 -341q0 -157 43.5 -267t140.5 -198l-27 -130h-452z" />
    <glyph glyph-name="ae" unicode="&#xe6;" horiz-adv-x="1497" 
d="M1523 438h-644q-11 -61 -11 -105q0 -98 45 -159q61 -81 173 -81q143 0 218 131l166 -1q-33 -78 -84 -129q-122 -123 -302 -123q-259 0 -326 240q-175 -240 -396 -240q-113 0 -181 61t-68 164q0 106 64 189t177 124q68 25 146 33.5t259 11.5l12 53q11 53 11 100
q0 140 -162 140q-81 0 -134 -36t-70 -103l-162 1q31 112 95 172q98 90 275 90q121 0 187.5 -39t89.5 -124q109 163 324 163q157 0 241 -91q83 -90 83 -230q0 -86 -26 -212zM736 445q-180 0 -270 -24q-88 -22 -141.5 -79.5t-53.5 -128.5q0 -56 33 -87.5t91 -31.5
q139 0 243 127q66 81 98 224zM1383 554q7 52 7 85q0 100 -46.5 154.5t-132.5 54.5q-210 0 -304 -294h476z" />
    <glyph glyph-name="oslash" unicode="&#xf8;" horiz-adv-x="1034" 
d="M239 100q-69 101 -69 237q0 113 35.5 227.5t97.5 198.5q153 208 403 208q125 0 216 -55l45 55h136l-105 -127q69 -99 69 -242q0 -133 -49 -265q-77 -208 -237 -303q-107 -63 -243 -63q-130 0 -221 56l-46 -56h-139zM345 226l485 581q-52 41 -132 41q-168 0 -279 -173
q-93 -147 -93 -336q0 -61 19 -113zM892 717l-485 -583q53 -40 136 -40q151 0 254 145q51 72 81.5 171.5t30.5 194.5q0 60 -17 112z" />
    <glyph glyph-name="questiondown" unicode="&#xbf;" horiz-adv-x="975" 
d="M797 942l-46 -213h-199l45 213h200zM867 59q-15 -150 -61 -231q-112 -197 -354 -197q-161 0 -249 91q-78 80 -78 203q0 139 105 262q37 44 175 157q67 55 99 112.5t46 147.5h148q-22 -126 -49 -180q-25 -51 -60.5 -90.5t-119.5 -112.5q-104 -90 -140 -159
q-33 -64 -33 -127q0 -77 52 -121q47 -41 122 -41q142 0 208 130q32 63 40 156h149z" />
    <glyph glyph-name="exclamdown" unicode="&#xa1;" horiz-adv-x="658" 
d="M164 -355l89 418l161 539h86l-69 -539l-89 -418h-178zM629 942l-45 -213h-199l45 213h199z" />
    <glyph glyph-name="logicalnot" unicode="&#xac;" horiz-adv-x="1076" 
d="M848 175l90 423h-726l31 146h888l-121 -569h-162z" />
    <glyph glyph-name="radical" unicode="&#x221a;" horiz-adv-x="1376" 
d="M1731 1693l-29 -133h-393l-794 -1560h-172l-46 600h-164l28 133h258l26 -285q2 -29 5 -127q3 -123 3 -151h8q17 39 86 183l99 210l172 337l402 793h511z" />
    <glyph glyph-name="florin" unicode="&#x192;" horiz-adv-x="601" 
d="M142 -218h-153l365 1033h-128l27 127h146l32 91q43 123 67 174t56 87q89 102 232 102q49 0 98 -14l-49 -139q-36 18 -67 18q-59 0 -95 -38.5t-72 -140.5l-50 -140h146l-27 -127h-164z" />
    <glyph glyph-name="approxequal" unicode="&#x2248;" horiz-adv-x="1048" 
d="M274 712l-76 61q161 232 326 232q77 0 216 -78q78 -44 112 -57t71 -13q55 0 103.5 32.5t112.5 111.5l76 -61q-62 -89 -116 -139q-101 -94 -211 -94q-41 0 -83.5 16t-131.5 64q-75 41 -111.5 54.5t-74.5 13.5q-53 0 -101.5 -32.5t-111.5 -110.5zM199 359l-76 61
q60 85 109 132q104 100 217 100q77 0 216 -77q78 -44 112.5 -57t70.5 -13q55 0 103.5 32t112.5 110l76 -60q-61 -88 -116 -139q-100 -94 -212 -94q-40 0 -84 16.5t-130 63.5q-76 42 -112 55t-74 13q-53 0 -101 -32t-112 -111z" />
    <glyph glyph-name="Delta" unicode="&#x2206;" horiz-adv-x="1161" 
d="M779 1365h185l154 -1365h-1075zM836 1179l-539 -1038h633z" />
    <glyph glyph-name="guillemotleft" unicode="&#xab;" horiz-adv-x="874" 
d="M886 832l-37 -173l-194 -148l130 -151l-36 -171l-205 240l35 164zM575 832l-36 -171l-199 -148l135 -151l-37 -176l-208 246l34 161z" />
    <glyph glyph-name="guillemotright" unicode="&#xbb;" horiz-adv-x="874" 
d="M653 833l207 -248l-34 -160l-311 -239l36 170l197 148l-133 152zM341 829l203 -241l-34 -161l-305 -239l36 172l193 146l-129 150z" />
    <glyph glyph-name="ellipsis" unicode="&#x2026;" horiz-adv-x="1547" 
d="M437 213l-46 -213h-199l45 213h200zM919 213l-46 -213h-199l45 213h200zM1401 213l-46 -213h-199l45 213h200z" />
    <glyph glyph-name="_003" horiz-adv-x="992" 
 />
    <glyph glyph-name="Agrave" unicode="&#xc0;" 
d="M779 1365h185l154 -1365h-178l-38 419h-463l-218 -419h-178zM512 560h378l-56 619zM689 1734h152l123 -255h-130z" />
    <glyph glyph-name="Atilde" unicode="&#xc3;" 
d="M779 1365h185l154 -1365h-178l-38 419h-463l-218 -419h-178zM512 560h378l-56 619zM1223 1698q-34 -100 -91.5 -156t-125.5 -56q-57 0 -118 57q-47 43 -84 43q-60 0 -98 -93h-103q77 212 219 212q57 0 118 -54q49 -42 78 -42q61 0 99 89h106z" />
    <glyph glyph-name="Otilde" unicode="&#xd5;" horiz-adv-x="1364" 
d="M951 1396q210 0 331 -132q66 -73 99 -190q26 -89 26 -186q0 -156 -46 -316.5t-127 -286.5q-205 -318 -532 -318q-237 0 -354 159q-101 137 -101 356q0 208 74 403q93 248 280 392q157 119 350 119zM936 1250q-216 0 -369 -242q-145 -228 -145 -535q0 -187 85 -279
q77 -84 196 -84q226 0 381 249q68 110 107.5 252.5t39.5 278.5q0 182 -88 280q-73 80 -207 80zM1363 1701q-34 -100 -91.5 -156t-125.5 -56q-57 0 -118 57q-47 43 -84 43q-60 0 -98 -93h-103q77 212 219 212q57 0 118 -54q49 -42 78 -42q61 0 99 89h106z" />
    <glyph glyph-name="OE" unicode="&#x152;" horiz-adv-x="1856" 
d="M2013 1365l-31 -145h-602l-95 -447h560l-30 -141h-560l-103 -487h610l-31 -145h-776l24 115q-136 -148 -317 -148q-202 0 -319 158q-97 129 -97 349q0 198 71 395q93 257 272 401q156 126 338 126q193 0 293 -148l25 117h768zM1169 1010q-48 240 -246 240
q-101 0 -193.5 -63.5t-164.5 -182.5q-65 -109 -104.5 -258.5t-39.5 -290.5q0 -168 77 -259q71 -85 180 -85q204 0 351 239z" />
    <glyph glyph-name="oe" unicode="&#x153;" horiz-adv-x="1541" 
d="M1567 431h-629q-12 -64 -12 -113q0 -98 46 -154q56 -70 157 -70q143 0 220 129h167q-29 -71 -83 -126q-123 -126 -304 -126q-229 0 -303 189q-79 -101 -161 -145t-192 -44q-138 0 -214 76q-110 109 -110 295q0 110 34.5 224t93.5 199q141 206 376 206q205 0 286 -173
q62 75 117 111q91 62 211 62q166 0 250 -100q77 -93 77 -232q0 -87 -27 -208zM648 848q-152 0 -252 -174q-91 -156 -91 -355q0 -106 48.5 -165.5t134.5 -59.5q134 0 228 145q49 75 78.5 180t29.5 204q0 121 -62 181q-45 44 -114 44zM1428 554q8 51 8 86q0 88 -37 143
q-45 65 -136 65q-98 0 -173.5 -75t-122.5 -219h461z" />
    <glyph glyph-name="endash" unicode="&#x2013;" horiz-adv-x="1060" 
d="M1003 591l-35 -164h-694l35 164h694z" />
    <glyph glyph-name="emdash" unicode="&#x2014;" horiz-adv-x="1548" 
d="M1493 591l-35 -164h-1175l35 164h1175z" />
    <glyph glyph-name="quotedblleft" unicode="&#x201c;" horiz-adv-x="871" 
d="M387 916l28 131q21 99 44.5 152.5t65.5 96.5q63 66 162 91l-22 -101q-96 -23 -125 -139l-4 -18h96l-46 -213h-199zM675 916l28 131q21 99 44.5 152.5t64.5 96.5q64 66 162 91l-21 -101q-96 -23 -126 -139l-3 -18h95l-45 -213h-199z" />
    <glyph glyph-name="quotedblright" unicode="&#x201d;" horiz-adv-x="871" 
d="M682 1365l-28 -130q-22 -101 -45 -154t-65 -96q-64 -66 -162 -91l22 101q102 31 125 139l4 18h-96l45 213h200zM969 1365l-27 -130q-22 -101 -45 -154t-65 -96q-64 -66 -162 -91l21 101q103 31 126 139l4 18h-96l45 213h199z" />
    <glyph glyph-name="quoteleft" unicode="&#x2018;" horiz-adv-x="583" 
d="M387 916l28 131q21 99 44.5 152.5t65.5 96.5q63 66 162 91l-22 -101q-96 -23 -125 -139l-4 -18h96l-46 -213h-199z" />
    <glyph glyph-name="quoteright" unicode="&#x2019;" horiz-adv-x="583" 
d="M682 1365l-28 -130q-22 -101 -45 -154t-65 -96q-64 -66 -162 -91l22 101q102 31 125 139l4 18h-96l45 213h200z" />
    <glyph glyph-name="divide" unicode="&#xf7;" horiz-adv-x="1076" 
d="M255 756h888l-29 -132h-887zM846 1104l-43 -201h-146l43 201h146zM712 476l-42 -201h-146l43 201h145z" />
    <glyph glyph-name="lozenge" unicode="&#x25ca;" horiz-adv-x="1467" 
d="M1035 1419l376 -736l-689 -736l-375 736zM997 1237l-522 -554l286 -555l521 555z" />
    <glyph glyph-name="ydieresis" unicode="&#xff;" horiz-adv-x="859" 
d="M25 -340l28 132q12 -4 18 -7q36 -14 65 -14q86 0 140 89l90 150l-154 932h174l95 -731l393 731h172l-598 -1043q-76 -133 -131 -182q-79 -72 -191 -72q-44 0 -101 15zM916 1297l-40 -191h-144l41 191h143zM633 1297l-41 -191h-143l41 191h143z" />
    <glyph glyph-name="Ydieresis" unicode="&#x178;" horiz-adv-x="1030" 
d="M430 0l119 560l-270 805h191l198 -643l466 643h191l-609 -805l-119 -560h-167zM1066 1678l-41 -194h-144l41 194h144zM783 1678l-41 -194h-144l41 194h144z" />
    <glyph glyph-name="fraction" unicode="&#x2044;" horiz-adv-x="589" 
d="M56 0h-132l913 1365h129z" />
    <glyph glyph-name="Euro" unicode="&#x20ac;" horiz-adv-x="1201" 
d="M300 622q7 56 21 119h-117l74 118h76q50 144 133 255q210 282 505 282q118 0 203.5 -40.5t165.5 -133.5l-90 -142q-46 63 -85 97q-88 76 -206 76q-135 0 -254.5 -106.5t-185.5 -287.5h596l-73 -118h-560q-13 -53 -24 -119h512l-73 -118h-450v-32q0 -187 78 -280
q69 -82 191 -82q93 0 167.5 42t168.5 148l90 -103q-83 -95 -143 -138q-127 -92 -295 -92q-206 0 -320 133.5t-114 374.5v29h-137l73 118h73z" />
    <glyph glyph-name="guilsinglleft" unicode="&#x2039;" horiz-adv-x="558" 
d="M570 831l-37 -174l-195 -150l132 -146l-37 -173l-204 235l35 165z" />
    <glyph glyph-name="guilsinglright" unicode="&#x203a;" horiz-adv-x="558" 
d="M342 831l202 -242l-35 -165l-304 -236l37 172l193 147l-130 149z" />
    <glyph glyph-name="daggerdbl" unicode="&#x2021;" horiz-adv-x="971" 
d="M591 177h315l-30 -142h-315l-89 -420h-142l89 420h-309l30 142h310l138 650h-310l31 142h309l84 396h142l-84 -396h315l-31 -142h-315z" />
    <glyph glyph-name="periodcentered" unicode="&#xb7;" horiz-adv-x="583" 
d="M519 598l-46 -213h-199l45 213h200z" />
    <glyph glyph-name="quotesinglbase" unicode="&#x201a;" horiz-adv-x="583" 
d="M437 213l-28 -131q-23 -108 -47.5 -165.5t-66.5 -104.5q-65 -71 -164 -99l21 101q97 28 132 168l4 18h-96l45 213h200z" />
    <glyph glyph-name="quotedblbase" unicode="&#x201e;" horiz-adv-x="871" 
d="M437 213l-28 -131q-23 -108 -47.5 -165.5t-66.5 -104.5q-65 -71 -164 -99l21 101q97 28 132 168l4 18h-96l45 213h200zM724 213l-27 -131q-24 -108 -48 -165.5t-67 -104.5q-64 -71 -163 -99l21 101q97 28 132 168l4 18h-96l45 213h199z" />
    <glyph glyph-name="perthousand" unicode="&#x2030;" horiz-adv-x="2640" 
d="M681 1384q128 0 205 -83q81 -86 81 -236q0 -195 -102 -350q-124 -189 -320 -189q-147 0 -225 106q-62 84 -62 207q0 107 33 210t91 177q123 158 299 158zM679 1268q-124 0 -210 -134q-37 -58 -59 -140t-22 -160q0 -96 49 -147q44 -46 108 -46q124 0 209 136
q82 131 82 293q0 92 -42 145t-115 53zM703 0h-129l879 1365h125zM1608 838q128 0 205 -83q81 -86 81 -236q0 -194 -102 -349q-124 -189 -320 -189q-147 0 -225 106q-62 83 -62 206q0 107 33 210t91 177q123 158 299 158zM1605 722q-123 0 -209 -134q-36 -57 -58.5 -139
t-22.5 -161q0 -95 49 -146q44 -46 108 -46q124 0 209 136q82 130 82 293q0 91 -42 144t-116 53zM2386 838q128 0 205 -83q81 -86 81 -236q0 -194 -102 -349q-124 -189 -320 -189q-146 0 -224 106q-62 83 -62 206q0 107 33 210t90 177q123 158 299 158zM2384 722
q-123 0 -209 -134q-37 -57 -59 -139t-22 -161q0 -95 49 -146q44 -46 107 -46q124 0 209 136q82 130 82 293q0 91 -42 144t-115 53z" />
    <glyph glyph-name="Acircumflex" unicode="&#xc2;" 
d="M779 1365h185l154 -1365h-178l-38 419h-463l-218 -419h-178zM512 560h378l-56 619zM1161 1475l-151 -1l-87 186l-167 -185h-155l238 259h192z" />
    <glyph glyph-name="Ecircumflex" unicode="&#xca;" horiz-adv-x="1125" 
d="M202 0l290 1365h789l-31 -145h-622l-95 -447h580l-30 -141h-580l-104 -487h631l-31 -145h-797zM1192 1475l-151 -1l-87 186l-167 -185h-155l238 259h192z" />
    <glyph glyph-name="Aacute" unicode="&#xc1;" 
d="M779 1365h185l154 -1365h-178l-38 419h-463l-218 -419h-178zM512 560h378l-56 619zM1175 1734l-253 -255h-130l231 255h152z" />
    <glyph glyph-name="Edieresis" unicode="&#xcb;" horiz-adv-x="1125" 
d="M202 0l290 1365h789l-31 -145h-622l-95 -447h580l-30 -141h-580l-104 -487h631l-31 -145h-797zM1170 1678l-41 -194h-144l41 194h144zM887 1678l-42 -194h-143l41 194h144z" />
    <glyph glyph-name="Egrave" unicode="&#xc8;" horiz-adv-x="1125" 
d="M202 0l290 1365h789l-31 -145h-622l-95 -447h580l-30 -141h-580l-104 -487h631l-31 -145h-797zM689 1734h152l123 -255h-130z" />
    <glyph glyph-name="Iacute" unicode="&#xcd;" horiz-adv-x="572" 
d="M202 0l290 1365h167l-290 -1365h-167zM908 1734l-253 -255h-130l231 255h152z" />
    <glyph glyph-name="Icircumflex" unicode="&#xce;" horiz-adv-x="572" 
d="M202 0l290 1365h167l-290 -1365h-167zM869 1475l-151 -1l-87 186l-167 -185h-155l238 259h192z" />
    <glyph glyph-name="Idieresis" unicode="&#xcf;" horiz-adv-x="572" 
d="M202 0l290 1365h167l-290 -1365h-167zM847 1678l-41 -194h-143l41 194h143zM592 1678l-42 -194h-143l41 194h144z" />
    <glyph glyph-name="Igrave" unicode="&#xcc;" horiz-adv-x="572" 
d="M202 0l290 1365h167l-290 -1365h-167zM415 1734h152l123 -255h-130z" />
    <glyph glyph-name="Oacute" unicode="&#xd3;" horiz-adv-x="1364" 
d="M951 1396q210 0 331 -132q66 -73 99 -190q26 -89 26 -186q0 -156 -46 -316.5t-127 -286.5q-205 -318 -532 -318q-237 0 -354 159q-101 137 -101 356q0 208 74 403q93 248 280 392q157 119 350 119zM936 1250q-216 0 -369 -242q-145 -228 -145 -535q0 -187 85 -279
q77 -84 196 -84q226 0 381 249q68 110 107.5 252.5t39.5 278.5q0 182 -88 280q-73 80 -207 80zM1279 1734l-253 -255h-130l231 255h152z" />
    <glyph glyph-name="Ocircumflex" unicode="&#xd4;" horiz-adv-x="1364" 
d="M951 1396q210 0 331 -132q66 -73 99 -190q26 -89 26 -186q0 -156 -46 -316.5t-127 -286.5q-205 -318 -532 -318q-237 0 -354 159q-101 137 -101 356q0 208 74 403q93 248 280 392q157 119 350 119zM936 1250q-216 0 -369 -242q-145 -228 -145 -535q0 -187 85 -279
q77 -84 196 -84q226 0 381 249q68 110 107.5 252.5t39.5 278.5q0 182 -88 280q-73 80 -207 80zM1283 1475l-151 -1l-87 186l-167 -185h-155l238 259h192z" />
    <glyph glyph-name="_004" horiz-adv-x="522" 
 />
    <glyph glyph-name="Ograve" unicode="&#xd2;" horiz-adv-x="1364" 
d="M951 1396q210 0 331 -132q66 -73 99 -190q26 -89 26 -186q0 -156 -46 -316.5t-127 -286.5q-205 -318 -532 -318q-237 0 -354 159q-101 137 -101 356q0 208 74 403q93 248 280 392q157 119 350 119zM936 1250q-216 0 -369 -242q-145 -228 -145 -535q0 -187 85 -279
q77 -84 196 -84q226 0 381 249q68 110 107.5 252.5t39.5 278.5q0 182 -88 280q-73 80 -207 80zM764 1734h152l123 -255h-130z" />
    <glyph glyph-name="Uacute" unicode="&#xda;" horiz-adv-x="1294" 
d="M472 1365h164l-164 -771q-35 -167 -35 -249q0 -118 68 -178q64 -57 179 -57q206 0 299 173q40 75 90 311l164 771h166l-163 -769q-42 -198 -61 -255q-68 -199 -198 -291q-119 -83 -300 -83q-224 0 -331 122q-80 92 -80 228q0 99 39 282zM1239 1734l-253 -255h-130
l231 255h152z" />
    <glyph glyph-name="Ucircumflex" unicode="&#xdb;" horiz-adv-x="1294" 
d="M472 1365h164l-164 -771q-35 -167 -35 -249q0 -118 68 -178q64 -57 179 -57q206 0 299 173q40 75 90 311l164 771h166l-163 -769q-42 -198 -61 -255q-68 -199 -198 -291q-119 -83 -300 -83q-224 0 -331 122q-80 92 -80 228q0 99 39 282zM1232 1475l-151 -1l-87 186
l-167 -185h-155l238 259h192z" />
    <glyph glyph-name="Ugrave" unicode="&#xd9;" horiz-adv-x="1294" 
d="M472 1365h164l-164 -771q-35 -167 -35 -249q0 -118 68 -178q64 -57 179 -57q206 0 299 173q40 75 90 311l164 771h166l-163 -769q-42 -198 -61 -255q-68 -199 -198 -291q-119 -83 -300 -83q-224 0 -331 122q-80 92 -80 228q0 99 39 282zM752 1734h152l123 -255h-130z" />
    <glyph glyph-name="dotlessi" unicode="&#x131;" horiz-adv-x="477" 
d="M162 0l200 942h153l-200 -942h-153z" />
    <glyph glyph-name="circumflex" unicode="&#x2c6;" horiz-adv-x="1185" 
d="M1087 1092h-136l-82 197l-168 -197h-139l237 273h164z" />
    <glyph glyph-name="tilde" unicode="&#x2dc;" horiz-adv-x="1174" 
d="M1148 1317q-75 -211 -199 -211q-49 0 -126 56q-58 43 -89 43q-51 0 -91 -92h-101q23 68 51 111q66 100 153 100q51 0 123 -56q57 -44 82 -44q56 0 95 93h102z" />
    <glyph glyph-name="uni02C9" unicode="&#x2c9;" horiz-adv-x="1192" 
d="M1113 1252l-24 -112h-502l24 112h502z" />
    <glyph glyph-name="breve" unicode="&#x2d8;" horiz-adv-x="1197" 
d="M1131 1365q-35 -273 -266 -273q-104 0 -163 56.5t-59 155.5q0 22 3 61h102q-1 -17 -1 -25q0 -66 34 -103t95 -37q127 0 153 165h102z" />
    <glyph glyph-name="dotaccent" unicode="&#x2d9;" horiz-adv-x="1299" 
d="M997 1297l-41 -191h-143l41 191h143z" />
    <glyph glyph-name="ring" unicode="&#x2da;" horiz-adv-x="1226" 
d="M876 1356q-42 0 -70.5 -30t-28.5 -74q0 -43 28.5 -73t68.5 -30q41 0 69.5 30t28.5 72q0 44 -28 74.5t-68 30.5zM878 1440q78 0 133.5 -55.5t55.5 -133.5q0 -77 -56.5 -131.5t-136.5 -54.5q-79 0 -135.5 55t-56.5 132q0 79 56.5 133.5t139.5 54.5z" />
    <glyph glyph-name="cedilla" unicode="&#xb8;" horiz-adv-x="1246" 
d="M594 0h82l-63 -108q23 9 45 9q57 0 93.5 -35.5t36.5 -91.5q0 -79 -57.5 -131.5t-144.5 -52.5q-60 0 -97 26.5t-37 70.5q0 4 1 12h93q1 -34 48 -34q40 0 66 30t26 75q0 58 -57 58q-41 0 -59 -29h-93z" />
    <glyph glyph-name="hungarumlaut" unicode="&#x2dd;" horiz-adv-x="1168" 
d="M951 1365l-237 -273h-130l221 273h146zM1224 1365l-237 -273h-130l221 273h146z" />
    <glyph glyph-name="ogonek" unicode="&#x2db;" horiz-adv-x="1252" 
d="M844 0q-132 -98 -132 -188q0 -77 91 -77q33 0 79 18l-19 -91q-63 -22 -112 -22q-73 0 -117.5 36t-44.5 95q0 117 160 229h95z" />
    <glyph glyph-name="caron" unicode="&#x2c7;" horiz-adv-x="1185" 
d="M621 1365h136l81 -197l169 197h139l-238 -273h-164z" />
    <glyph glyph-name="nonbreakingspace" unicode="&#xa0;" horiz-adv-x="522" 
 />
    <glyph glyph-name="currency" unicode="&#xa4;" horiz-adv-x="1442" 
d="M300 251l191 194q-104 135 -104 291q0 150 104 290l-196 194l83 83l194 -194q144 106 296 106q153 0 293 -104l194 192l83 -83l-193 -193q104 -142 104 -291q0 -151 -102 -290l194 -194l-82 -84l-195 194q-137 -104 -293 -104q-147 0 -296 104l-193 -193zM872 1083
q-147 0 -248 -102q-100 -102 -100 -245q0 -112 66 -203q48 -67 122 -105t156 -38q142 0 244 102q100 100 100 242q0 115 -65 206q-47 65 -121.5 104t-153.5 39z" />
    <glyph glyph-name="brokenbar" unicode="&#xa6;" horiz-adv-x="1292" 
d="M853 1365h166l-146 -686h-166zM629 314h167l-140 -655h-166z" />
    <glyph glyph-name="uni00AD" unicode="&#xad;" horiz-adv-x="410" 
d="M529 591l-34 -164h-399l35 164h398z" />
    <glyph glyph-name="macron" unicode="&#xaf;" horiz-adv-x="1076" 
d="M436 1607h888l-29 -132h-887z" />
    <glyph glyph-name="twosuperior" unicode="&#xb2;" horiz-adv-x="628" 
d="M684 649l-22 -103h-506q25 93 47 139t65 92q38 42 80 71.5t153 92.5q180 103 180 234q0 48 -30.5 76t-81.5 28q-64 0 -98 -35.5t-49 -117.5h-136q17 106 57 158q76 100 224 100q135 0 201 -77q46 -53 46 -122q0 -111 -85 -202q-55 -58 -192 -131q-116 -61 -162.5 -103
t-62.5 -100h372z" />
    <glyph glyph-name="threesuperior" unicode="&#xb3;" horiz-adv-x="625" 
d="M417 1147h-111q19 100 61 149q74 86 201 86q117 0 175 -63q48 -53 48 -132q0 -80 -43.5 -132.5t-124.5 -69.5q120 -37 120 -170q0 -122 -88.5 -204t-220.5 -82q-110 0 -170 60q-57 57 -57 140q0 18 6 54h112q-1 -18 -1 -31q0 -55 32 -88t85 -33q77 0 129.5 53t52.5 130
q0 118 -140 118h-45l20 96h38q78 0 123 40t45 110q0 47 -29 74.5t-79 27.5q-107 0 -139 -133z" />
    <glyph glyph-name="onesuperior" unicode="&#xb9;" horiz-adv-x="428" 
d="M299 546l132 621q-60 -37 -144 -37h-22l19 89h11q78 0 125 33.5t79 112.5h84l-175 -819h-109z" />
    <glyph glyph-name="onequarter" unicode="&#xbc;" horiz-adv-x="1365" 
d="M313 546l132 621q-60 -37 -144 -37h-22l19 89h11q79 0 125 33t79 113h84l-174 -819h-110zM411 0h-132l913 1365h129zM1114 0l43 204h-310l21 98l434 517h85l-111 -523h99l-19 -92h-100l-43 -204h-99zM1177 296l69 326l-273 -326h204z" />
    <glyph glyph-name="onehalf" unicode="&#xbd;" horiz-adv-x="1455" 
d="M313 546l132 621q-60 -37 -144 -37h-22l19 89h11q79 0 125 33t79 113h84l-174 -819h-110zM411 0h-132l913 1365h129zM1401 103l-22 -103h-505q25 93 47 139t64 92q39 42 81.5 71.5t152.5 92.5q180 102 180 234q0 48 -30.5 76t-82.5 28q-63 0 -97.5 -35.5t-49.5 -117.5
h-135q17 106 56 158q77 100 225 100q135 0 201 -77q46 -53 46 -123q0 -110 -85 -201q-56 -59 -192 -131q-116 -61 -162.5 -103t-62.5 -100h371z" />
    <glyph glyph-name="threequarters" unicode="&#xbe;" horiz-adv-x="1552" 
d="M569 0h-132l914 1365h128zM407 1147h-111q19 100 61 149q74 86 201 86q117 0 175 -63q48 -53 48 -132q0 -80 -43.5 -132.5t-124.5 -69.5q120 -37 120 -170q0 -122 -88.5 -204t-220.5 -82q-110 0 -170 60q-57 57 -57 140q0 18 6 54h112q-1 -18 -1 -31q0 -55 32 -88t85 -33
q77 0 129.5 53t52.5 130q0 118 -140 118h-45l20 96h38q78 0 123 40t45 110q0 47 -29 74.5t-79 27.5q-107 0 -139 -133zM1301 0l43 204h-310l21 98l434 517h85l-111 -523h100l-20 -92h-100l-43 -204h-99zM1364 296l70 326l-273 -326h203z" />
    <glyph glyph-name="Eth" unicode="&#xd0;" horiz-adv-x="1303" 
d="M381 773l126 592h363q198 0 321 -96q154 -121 154 -389q0 -179 -50.5 -347.5t-139.5 -289.5q-95 -129 -223 -186t-322 -57h-393l134 632h-154l30 141h154zM547 773h303l-30 -141h-303l-103 -487h197q90 0 140.5 8.5t98.5 30.5q142 68 222 244q99 219 99 448
q0 177 -92 268q-77 76 -224 76h-213z" />
    <glyph glyph-name="multiply" unicode="&#xd7;" horiz-adv-x="1126" 
d="M1053 1050l73 -94l-323 -267l210 -267l-113 -93l-211 267l-323 -267l-74 93l324 267l-211 267l114 94l210 -267z" />
    <glyph glyph-name="Yacute" unicode="&#xdd;" horiz-adv-x="1030" 
d="M430 0l119 560l-270 805h191l198 -643l466 643h191l-609 -805l-119 -560h-167zM1120 1734l-253 -255h-130l231 255h152z" />
    <glyph glyph-name="Thorn" unicode="&#xde;" horiz-adv-x="1135" 
d="M601 1092h211q183 0 276 -91q93 -92 93 -253q0 -110 -44.5 -205t-123.5 -156q-129 -99 -357 -99h-226l-61 -288h-167l290 1365h167zM461 433h205q87 0 143 17t99 57q94 87 94 233q0 114 -76 170q-50 37 -172 37h-184z" />
    <glyph glyph-name="eth" unicode="&#xf0;" horiz-adv-x="1034" 
d="M847 937l-8 18q-51 112 -107 185l-192 -94l-40 99l161 78q-42 39 -97 80l81 91q78 -39 152 -104l213 104l40 -99l-175 -86q94 -110 145 -258t51 -308q0 -163 -53 -307q-65 -176 -190 -270.5t-293 -94.5q-170 0 -264 92q-101 98 -101 272q0 115 35.5 229t97.5 199
q74 101 181 156q102 52 214 52q85 0 149 -34zM700 848q-171 0 -281 -173q-93 -147 -93 -339q0 -141 81 -202q54 -40 134 -40q153 0 256 145q51 72 81.5 171.5t30.5 195.5q0 137 -77 198q-53 44 -132 44z" />
    <glyph glyph-name="yacute" unicode="&#xfd;" horiz-adv-x="859" 
d="M25 -340l28 132q12 -4 18 -7q36 -14 65 -14q86 0 140 89l90 150l-154 932h174l95 -731l393 731h172l-598 -1043q-76 -133 -131 -182q-79 -72 -191 -72q-44 0 -101 15zM920 1365l-237 -273h-130l221 273h146z" />
    <glyph glyph-name="thorn" unicode="&#xfe;" horiz-adv-x="1093" 
d="M492 827q118 144 300 144q151 0 238 -88q43 -44 68.5 -116t25.5 -151q0 -126 -41.5 -251t-110.5 -210q-150 -184 -367 -184q-185 0 -266 137l-98 -463h-153l366 1720h152zM768 848q-80 0 -152.5 -45t-122.5 -126q-42 -68 -67 -163.5t-25 -184.5q0 -129 74 -190
q55 -45 131 -45q159 0 262 163q98 153 98 342q0 131 -65 197q-51 52 -133 52z" />
    <glyph glyph-name="Amacron" unicode="&#x100;" 
d="M779 1365h185l154 -1365h-178l-38 419h-463l-218 -419h-178zM512 560h378l-56 619zM1179 1603l-25 -117h-560l25 117h560z" />
    <glyph glyph-name="amacron" unicode="&#x101;" horiz-adv-x="975" 
d="M950 115l-25 -118q-49 -15 -82 -15q-60 0 -97 32.5t-37 85.5q0 12 3 35q-145 -164 -330 -164q-118 0 -185 65q-64 62 -64 160q0 105 65.5 188t181.5 126q70 25 156 35.5t266 14.5l19 88q9 42 9 68q0 131 -178 131q-95 0 -146.5 -32.5t-73.5 -106.5l-164 -1
q27 126 127 195t255 69q136 0 221 -49q106 -60 106 -186q0 -43 -25 -161l-76 -356q-10 -49 -10 -63q0 -46 48 -46q13 0 36 5zM781 458q-192 -7 -290 -32q-94 -23 -147 -77.5t-53 -127.5q0 -59 36 -93t98 -34q145 0 253 127q70 83 92 185zM1008 1252l-24 -112h-502l24 112
h502z" />
    <glyph glyph-name="Abreve" unicode="&#x102;" 
d="M779 1365h185l154 -1365h-178l-38 419h-463l-218 -419h-178zM512 560h378l-56 619zM1181 1748q-12 -92 -41 -142q-75 -131 -246 -131q-112 0 -174 59t-62 166q0 16 3 48h106q-1 -16 -1 -24q0 -64 36.5 -100.5t101.5 -36.5q70 0 110 38t61 123h106z" />
    <glyph glyph-name="abreve" unicode="&#x103;" horiz-adv-x="975" 
d="M950 115l-25 -118q-49 -15 -82 -15q-60 0 -97 32.5t-37 85.5q0 12 3 35q-145 -164 -330 -164q-118 0 -185 65q-64 62 -64 160q0 105 65.5 188t181.5 126q70 25 156 35.5t266 14.5l19 88q9 42 9 68q0 131 -178 131q-95 0 -146.5 -32.5t-73.5 -106.5l-164 -1
q27 126 127 195t255 69q136 0 221 -49q106 -60 106 -186q0 -43 -25 -161l-76 -356q-10 -49 -10 -63q0 -46 48 -46q13 0 36 5zM781 458q-192 -7 -290 -32q-94 -23 -147 -77.5t-53 -127.5q0 -59 36 -93t98 -34q145 0 253 127q70 83 92 185zM1023 1365q-35 -273 -266 -273
q-104 0 -163 56.5t-59 155.5q0 22 3 61h102q-1 -17 -1 -25q0 -66 34 -103t95 -37q127 0 153 165h102z" />
    <glyph glyph-name="Aogonek" unicode="&#x104;" 
d="M1118 0q-132 -102 -132 -189q0 -35 24 -55.5t64 -20.5q30 0 81 18l-18 -91q-59 -22 -111 -22q-72 0 -115.5 35.5t-43.5 94.5q0 116 156 230h-83l-38 419h-463l-218 -419h-178l736 1365h185zM512 560h378l-56 619z" />
    <glyph glyph-name="aogonek" unicode="&#x105;" horiz-adv-x="975" 
d="M808 -14q-99 22 -99 114q0 12 3 35q-145 -164 -330 -164q-118 0 -185 65q-64 62 -64 160q0 105 65.5 188t181.5 126q70 25 156 35.5t266 14.5l19 88q9 42 9 68q0 131 -178 131q-95 0 -146.5 -32.5t-73.5 -106.5l-164 -1q27 126 127 195t255 69q136 0 221 -49
q106 -60 106 -186q0 -43 -25 -161l-76 -356q-10 -49 -10 -63q0 -46 48 -46q13 0 36 5l-25 -118q-60 -37 -96.5 -87.5t-36.5 -97.5q0 -77 91 -77q33 0 78 18l-19 -91q-62 -22 -112 -22q-72 0 -116.5 36t-44.5 95q0 118 139 215zM781 458q-192 -7 -290 -32q-94 -23 -147 -77.5
t-53 -127.5q0 -59 36 -93t98 -34q145 0 253 127q70 83 92 185z" />
    <glyph glyph-name="Cacute" unicode="&#x106;" horiz-adv-x="1278" 
d="M1109 515h170q-51 -198 -149 -326q-169 -222 -440 -222q-220 0 -332 135q-52 61 -81.5 161t-29.5 211q0 209 69 403q84 234 266 384q163 135 376 135q202 0 313 -121q45 -48 71 -115.5t26 -135.5q0 -22 -5 -68h-171q1 20 1 26q0 108 -57 184q-64 87 -196 87
q-224 0 -377 -256q-65 -108 -102 -250t-37 -281q0 -180 79 -274q68 -82 194 -82q141 0 246 103.5t166 301.5zM1261 1734l-253 -255h-130l231 255h152z" />
    <glyph glyph-name="cacute" unicode="&#x107;" horiz-adv-x="959" 
d="M806 336h164q-25 -110 -107 -206q-136 -159 -342 -159q-166 0 -256 94q-96 99 -96 269q0 120 34.5 234t96.5 196q155 207 401 207q155 0 242 -79q88 -81 88 -212q0 -16 -1 -36h-166q-1 63 -10 92q-38 112 -166 112q-165 0 -273 -178q-90 -149 -90 -338q0 -112 54 -175
t149 -63q125 0 213 114q40 51 65 128zM1003 1365l-237 -273h-130l221 273h146z" />
    <glyph glyph-name="Ccircumflex" unicode="&#x108;" horiz-adv-x="1278" 
d="M1109 515h170q-51 -198 -149 -326q-169 -222 -440 -222q-220 0 -332 135q-52 61 -81.5 161t-29.5 211q0 209 69 403q84 234 266 384q163 135 376 135q202 0 313 -121q45 -48 71 -115.5t26 -135.5q0 -22 -5 -68h-171q1 20 1 26q0 108 -57 184q-64 87 -196 87
q-224 0 -377 -256q-65 -108 -102 -250t-37 -281q0 -180 79 -274q68 -82 194 -82q141 0 246 103.5t166 301.5zM1247 1475l-151 -1l-87 186l-167 -185h-155l238 259h192z" />
    <glyph glyph-name="ccircumflex" unicode="&#x109;" horiz-adv-x="959" 
d="M806 336h164q-25 -110 -107 -206q-136 -159 -342 -159q-166 0 -256 94q-96 99 -96 269q0 120 34.5 234t96.5 196q155 207 401 207q155 0 242 -79q88 -81 88 -212q0 -16 -1 -36h-166q-1 63 -10 92q-38 112 -166 112q-165 0 -273 -178q-90 -149 -90 -338q0 -112 54 -175
t149 -63q125 0 213 114q40 51 65 128zM1002 1092h-136l-82 197l-168 -197h-139l237 273h164z" />
    <glyph glyph-name="Cdotaccent" unicode="&#x10a;" horiz-adv-x="1278" 
d="M1109 515h170q-51 -198 -149 -326q-169 -222 -440 -222q-220 0 -332 135q-52 61 -81.5 161t-29.5 211q0 209 69 403q84 234 266 384q163 135 376 135q202 0 313 -121q45 -48 71 -115.5t26 -135.5q0 -22 -5 -68h-171q1 20 1 26q0 108 -57 184q-64 87 -196 87
q-224 0 -377 -256q-65 -108 -102 -250t-37 -281q0 -180 79 -274q68 -82 194 -82q141 0 246 103.5t166 301.5zM1087 1678l-42 -194h-143l41 194h144z" />
    <glyph glyph-name="cdotaccent" unicode="&#x10b;" horiz-adv-x="959" 
d="M806 336h164q-25 -110 -107 -206q-136 -159 -342 -159q-166 0 -256 94q-96 99 -96 269q0 120 34.5 234t96.5 196q155 207 401 207q155 0 242 -79q88 -81 88 -212q0 -16 -1 -36h-166q-1 63 -10 92q-38 112 -166 112q-165 0 -273 -178q-90 -149 -90 -338q0 -112 54 -175
t149 -63q125 0 213 114q40 51 65 128zM846 1297l-41 -191h-143l41 191h143z" />
    <glyph glyph-name="Ccaron" unicode="&#x10c;" horiz-adv-x="1278" 
d="M1109 515h170q-51 -198 -149 -326q-169 -222 -440 -222q-220 0 -332 135q-52 61 -81.5 161t-29.5 211q0 209 69 403q84 234 266 384q163 135 376 135q202 0 313 -121q45 -48 71 -115.5t26 -135.5q0 -22 -5 -68h-171q1 20 1 26q0 108 -57 184q-64 87 -196 87
q-224 0 -377 -256q-65 -108 -102 -250t-37 -281q0 -180 79 -274q68 -82 194 -82q141 0 246 103.5t166 301.5zM755 1734l152 1l86 -186l167 185h155l-238 -259h-191z" />
    <glyph glyph-name="ccaron" unicode="&#x10d;" horiz-adv-x="959" 
d="M806 336h164q-25 -110 -107 -206q-136 -159 -342 -159q-166 0 -256 94q-96 99 -96 269q0 120 34.5 234t96.5 196q155 207 401 207q155 0 242 -79q88 -81 88 -212q0 -16 -1 -36h-166q-1 63 -10 92q-38 112 -166 112q-165 0 -273 -178q-90 -149 -90 -338q0 -112 54 -175
t149 -63q125 0 213 114q40 51 65 128zM532 1365h136l81 -197l169 197h139l-238 -273h-164z" />
    <glyph glyph-name="Dcaron" unicode="&#x10e;" horiz-adv-x="1289" 
d="M202 0l290 1365h364q198 0 321 -96q154 -121 154 -390q0 -178 -50.5 -346.5t-139.5 -289.5q-95 -129 -223.5 -186t-322.5 -57h-393zM399 145h198q89 0 140 8.5t99 30.5q142 67 222 244q99 218 99 447q0 178 -92 268q-78 77 -224 77h-213zM686 1734l152 1l86 -186l167 185
h155l-238 -259h-191z" />
    <glyph glyph-name="dcaron" unicode="&#x10f;" horiz-adv-x="1183" 
d="M929 0h-153l24 114q-122 -143 -303 -143q-146 0 -233 88q-44 44 -69 115.5t-25 151.5q0 132 39.5 260t104.5 207q146 178 368 178q182 0 271 -138l114 532h152zM689 848q-161 0 -263 -163q-98 -154 -98 -345q0 -130 65 -194q51 -52 132 -52t153 45t121 126
q42 69 67.5 163.5t25.5 182.5q0 131 -74 192q-54 45 -129 45zM1506 1365l-28 -133q-44 -214 -209 -231l14 69q75 18 106 126h-79l36 169h160z" />
    <glyph glyph-name="Dcroat" unicode="&#x110;" horiz-adv-x="1303" 
d="M381 773l126 592h363q198 0 321 -96q154 -121 154 -389q0 -179 -50.5 -347.5t-139.5 -289.5q-95 -129 -223 -186t-322 -57h-393l134 632h-154l30 141h154zM547 773h303l-30 -141h-303l-103 -487h197q90 0 140.5 8.5t98.5 30.5q142 68 222 244q99 219 99 448
q0 177 -92 268q-77 76 -224 76h-213z" />
    <glyph glyph-name="dcroat" unicode="&#x111;" horiz-adv-x="1056" 
d="M1032 1200l35 165h152l-35 -165h117l-24 -112h-117l-231 -1088h-153l24 114q-122 -143 -303 -143q-146 0 -233 88q-44 44 -69 115.5t-25 151.5q0 132 39.5 260t104.5 207q146 178 368 178q182 0 271 -138l55 255h-271l24 112h271zM689 848q-161 0 -263 -163
q-98 -154 -98 -345q0 -130 65 -194q51 -52 132 -52t153 45t121 126q42 69 67.5 163.5t25.5 182.5q0 131 -74 192q-54 45 -129 45z" />
    <glyph glyph-name="Emacron" unicode="&#x112;" horiz-adv-x="1125" 
d="M202 0l290 1365h789l-31 -145h-622l-95 -447h580l-30 -141h-580l-104 -487h631l-31 -145h-797zM1210 1603l-25 -117h-560l25 117h560z" />
    <glyph glyph-name="emacron" unicode="&#x113;" horiz-adv-x="997" 
d="M1001 431h-658q-11 -58 -11 -99q0 -100 46 -159q62 -79 173 -79q132 0 225 131h169q-132 -254 -402 -254q-163 0 -257 86q-114 105 -114 294q0 120 39 237t107 201q147 182 367 182q174 0 261 -95q82 -91 82 -234q0 -83 -27 -211zM862 554q8 51 8 82q0 92 -41 147
q-48 65 -150 65q-128 0 -219 -117q-54 -71 -88 -177h490zM1005 1252l-24 -112h-502l24 112h502z" />
    <glyph glyph-name="Ebreve" unicode="&#x114;" horiz-adv-x="1125" 
d="M202 0l290 1365h789l-31 -145h-622l-95 -447h580l-30 -141h-580l-104 -487h631l-31 -145h-797zM1204 1748q-12 -92 -41 -142q-75 -131 -246 -131q-112 0 -174 59t-62 166q0 16 3 48h106q-1 -16 -1 -24q0 -64 36.5 -100.5t101.5 -36.5q70 0 110 38t61 123h106z" />
    <glyph glyph-name="ebreve" unicode="&#x115;" horiz-adv-x="997" 
d="M1001 431h-658q-11 -58 -11 -99q0 -100 46 -159q62 -79 173 -79q132 0 225 131h169q-132 -254 -402 -254q-163 0 -257 86q-114 105 -114 294q0 120 39 237t107 201q147 182 367 182q174 0 261 -95q82 -91 82 -234q0 -83 -27 -211zM862 554q8 51 8 82q0 92 -41 147
q-48 65 -150 65q-128 0 -219 -117q-54 -71 -88 -177h490zM1021 1365q-35 -273 -266 -273q-104 0 -163 56.5t-59 155.5q0 22 3 61h102q-1 -17 -1 -25q0 -66 34 -103t95 -37q127 0 153 165h102z" />
    <glyph glyph-name="Edotaccent" unicode="&#x116;" horiz-adv-x="1125" 
d="M202 0l290 1365h789l-31 -145h-622l-95 -447h580l-30 -141h-580l-104 -487h631l-31 -145h-797zM1025 1678l-42 -194h-143l41 194h144z" />
    <glyph glyph-name="edotaccent" unicode="&#x117;" horiz-adv-x="997" 
d="M1001 431h-658q-11 -58 -11 -99q0 -100 46 -159q62 -79 173 -79q132 0 225 131h169q-132 -254 -402 -254q-163 0 -257 86q-114 105 -114 294q0 120 39 237t107 201q147 182 367 182q174 0 261 -95q82 -91 82 -234q0 -83 -27 -211zM862 554q8 51 8 82q0 92 -41 147
q-48 65 -150 65q-128 0 -219 -117q-54 -71 -88 -177h490zM852 1297l-41 -191h-143l41 191h143z" />
    <glyph glyph-name="Eogonek" unicode="&#x118;" horiz-adv-x="1125" 
d="M999 0q-132 -102 -132 -189q0 -35 24 -55.5t64 -20.5q30 0 81 18l-19 -91q-59 -22 -110 -22q-73 0 -116 35.5t-43 94.5q0 116 156 230h-702l290 1365h789l-31 -145h-622l-95 -447h580l-30 -141h-580l-104 -487h631z" />
    <glyph glyph-name="eogonek" unicode="&#x119;" horiz-adv-x="997" 
d="M781 36q-99 -73 -138.5 -123t-39.5 -102q0 -76 91 -76q33 0 78 18l-19 -91q-62 -22 -112 -22q-72 0 -116.5 36t-44.5 95q0 106 124 204q-30 -4 -59 -4q-165 0 -259 86q-114 105 -114 294q0 120 39 236.5t107 201.5q147 182 367 182q174 0 261 -95q82 -91 82 -234
q0 -83 -27 -211h-658q-11 -58 -11 -99q0 -100 46 -159q62 -79 173 -79q132 0 225 131h169q-65 -125 -164 -189zM862 554q8 51 8 82q0 92 -41 147q-48 65 -150 65q-128 0 -219 -117q-54 -71 -88 -177h490z" />
    <glyph glyph-name="Ecaron" unicode="&#x11a;" horiz-adv-x="1125" 
d="M202 0l290 1365h789l-31 -145h-622l-95 -447h580l-30 -141h-580l-104 -487h631l-31 -145h-797zM679 1734l152 1l86 -186l167 185h155l-238 -259h-191z" />
    <glyph glyph-name="ecaron" unicode="&#x11b;" horiz-adv-x="997" 
d="M1001 431h-658q-11 -58 -11 -99q0 -100 46 -159q62 -79 173 -79q132 0 225 131h169q-132 -254 -402 -254q-163 0 -257 86q-114 105 -114 294q0 120 39 237t107 201q147 182 367 182q174 0 261 -95q82 -91 82 -234q0 -83 -27 -211zM862 554q8 51 8 82q0 92 -41 147
q-48 65 -150 65q-128 0 -219 -117q-54 -71 -88 -177h490zM524 1365h136l81 -197l169 197h139l-238 -273h-164z" />
    <glyph glyph-name="Gcircumflex" unicode="&#x11c;" horiz-adv-x="1359" 
d="M1188 0h-141l37 174q-86 -108 -182 -157.5t-218 -49.5q-226 0 -337 152q-100 137 -100 359q0 213 76 413q102 273 323 414q143 92 321 92q219 0 329 -130q88 -104 88 -246q0 -24 -6 -75l-167 -1q2 28 2 40q0 84 -38 155q-61 114 -222 114q-247 0 -402 -272
q-130 -226 -130 -499q0 -93 24 -173t66 -125q70 -74 195 -74q166 0 284 121t171 346h-359l31 143h508zM1265 1475l-151 -1l-87 186l-167 -185h-155l238 259h192z" />
    <glyph glyph-name="gcircumflex" unicode="&#x11d;" horiz-adv-x="1069" 
d="M76 -109h169q6 -52 33 -76q52 -47 161 -47q255 0 321 309l13 62q-107 -152 -288 -152q-140 0 -224 88q-43 46 -68.5 118t-25.5 151q0 115 38.5 231.5t106.5 205.5q145 190 363 190q96 0 156.5 -35t97.5 -111l25 117h151l-172 -809q-27 -129 -51.5 -193t-68.5 -122
q-129 -173 -391 -173q-164 0 -252 62.5t-94 183.5zM669 848q-158 0 -256 -176q-87 -156 -87 -332q0 -92 35 -149q50 -81 153 -81q161 0 264 181q88 154 88 328q0 97 -40 156q-50 73 -157 73zM1062 1092h-136l-82 197l-168 -197h-139l237 273h164z" />
    <glyph glyph-name="Gbreve" unicode="&#x11e;" horiz-adv-x="1359" 
d="M1188 0h-141l37 174q-86 -108 -182 -157.5t-218 -49.5q-226 0 -337 152q-100 137 -100 359q0 213 76 413q102 273 323 414q143 92 321 92q219 0 329 -130q88 -104 88 -246q0 -24 -6 -75l-167 -1q2 28 2 40q0 84 -38 155q-61 114 -222 114q-247 0 -402 -272
q-130 -226 -130 -499q0 -93 24 -173t66 -125q70 -74 195 -74q166 0 284 121t171 346h-359l31 143h508zM1298 1748q-12 -92 -41 -142q-75 -131 -246 -131q-112 0 -174 59t-62 166q0 16 3 48h106q-1 -16 -1 -24q0 -64 36.5 -100.5t101.5 -36.5q70 0 110 38t61 123h106z" />
    <glyph glyph-name="gbreve" unicode="&#x11f;" horiz-adv-x="1069" 
d="M76 -109h169q6 -52 33 -76q52 -47 161 -47q255 0 321 309l13 62q-107 -152 -288 -152q-140 0 -224 88q-43 46 -68.5 118t-25.5 151q0 115 38.5 231.5t106.5 205.5q145 190 363 190q96 0 156.5 -35t97.5 -111l25 117h151l-172 -809q-27 -129 -51.5 -193t-68.5 -122
q-129 -173 -391 -173q-164 0 -252 62.5t-94 183.5zM669 848q-158 0 -256 -176q-87 -156 -87 -332q0 -92 35 -149q50 -81 153 -81q161 0 264 181q88 154 88 328q0 97 -40 156q-50 73 -157 73zM1071 1365q-35 -273 -266 -273q-104 0 -163 56.5t-59 155.5q0 22 3 61h102
q-1 -17 -1 -25q0 -66 34 -103t95 -37q127 0 153 165h102z" />
    <glyph glyph-name="Gdotaccent" unicode="&#x120;" horiz-adv-x="1359" 
d="M1188 0h-141l37 174q-86 -108 -182 -157.5t-218 -49.5q-226 0 -337 152q-100 137 -100 359q0 213 76 413q102 273 323 414q143 92 321 92q219 0 329 -130q88 -104 88 -246q0 -24 -6 -75l-167 -1q2 28 2 40q0 84 -38 155q-61 114 -222 114q-247 0 -402 -272
q-130 -226 -130 -499q0 -93 24 -173t66 -125q70 -74 195 -74q166 0 284 121t171 346h-359l31 143h508zM1106 1678l-42 -194h-143l41 194h144z" />
    <glyph glyph-name="gdotaccent" unicode="&#x121;" horiz-adv-x="1069" 
d="M76 -109h169q6 -52 33 -76q52 -47 161 -47q255 0 321 309l13 62q-107 -152 -288 -152q-140 0 -224 88q-43 46 -68.5 118t-25.5 151q0 115 38.5 231.5t106.5 205.5q145 190 363 190q96 0 156.5 -35t97.5 -111l25 117h151l-172 -809q-27 -129 -51.5 -193t-68.5 -122
q-129 -173 -391 -173q-164 0 -252 62.5t-94 183.5zM669 848q-158 0 -256 -176q-87 -156 -87 -332q0 -92 35 -149q50 -81 153 -81q161 0 264 181q88 154 88 328q0 97 -40 156q-50 73 -157 73zM889 1297l-41 -191h-143l41 191h143z" />
    <glyph glyph-name="Gcommaaccent" unicode="&#x122;" horiz-adv-x="1359" 
d="M1188 0h-141l37 174q-86 -108 -182 -157.5t-218 -49.5q-226 0 -337 152q-100 137 -100 359q0 213 76 413q102 273 323 414q143 92 321 92q219 0 329 -130q88 -104 88 -246q0 -24 -6 -75l-167 -1q2 28 2 40q0 84 -38 155q-61 114 -222 114q-247 0 -402 -272
q-130 -226 -130 -499q0 -93 24 -173t66 -125q70 -74 195 -74q166 0 284 121t171 346h-359l31 143h508zM753 -84l-28 -133q-23 -109 -73.5 -165t-135.5 -66l14 69q75 20 106 126h-79l36 169h160z" />
    <glyph glyph-name="gcommaaccent" unicode="&#x123;" horiz-adv-x="1069" 
d="M76 -109h169q6 -52 33 -76q52 -47 161 -47q255 0 321 309l13 62q-107 -152 -288 -152q-140 0 -224 88q-43 46 -68.5 118t-25.5 151q0 115 38.5 231.5t106.5 205.5q145 190 363 190q96 0 156.5 -35t97.5 -111l25 117h151l-172 -809q-27 -129 -51.5 -193t-68.5 -122
q-129 -173 -391 -173q-164 0 -252 62.5t-94 183.5zM669 848q-158 0 -256 -176q-87 -156 -87 -332q0 -92 35 -149q50 -81 153 -81q161 0 264 181q88 154 88 328q0 97 -40 156q-50 73 -157 73zM676 1093l28 133q44 214 209 231l-14 -69l-6 -1q-67 -19 -99 -125h78l-36 -169
h-160z" />
    <glyph glyph-name="Hcircumflex" unicode="&#x124;" horiz-adv-x="1322" 
d="M202 0l290 1365h167l-122 -574h583l123 574h166l-290 -1365h-167l137 646h-583l-137 -646h-167zM1252 1475l-151 -1l-87 186l-167 -185h-155l238 259h192z" />
    <glyph glyph-name="hcircumflex" unicode="&#x125;" horiz-adv-x="1060" 
d="M162 0l290 1365h153l-115 -537q127 143 303 143q121 0 188.5 -62t67.5 -172q0 -64 -13 -125l-130 -612h-153l126 594q14 63 14 118q0 64 -39.5 100t-110.5 36q-154 0 -247 -141q-27 -41 -45 -94t-42 -168l-94 -445h-153zM828 1475l-152 -1l-86 186l-167 -185h-155
l238 259h191z" />
    <glyph glyph-name="Hbar" unicode="&#x126;" horiz-adv-x="1324" 
d="M411 976h-110l25 117h109l58 272h167l-58 -272h584l58 272h166l-58 -272h109l-24 -117h-110l-207 -976h-167l137 646h-583l-137 -646h-167zM577 976l-39 -185h583l40 185h-584z" />
    <glyph glyph-name="hbar" unicode="&#x127;" horiz-adv-x="1061" 
d="M429 1252l24 113h153l-24 -113h260l-24 -112h-260l-67 -312q127 143 303 143q121 0 188.5 -62t67.5 -172q0 -64 -13 -125l-130 -612h-153l126 594q14 63 14 118q0 64 -39.5 100t-110.5 36q-154 0 -247 -141q-27 -41 -45 -94t-42 -168l-94 -445h-153l242 1140h-122l24 112
h122z" />
    <glyph glyph-name="Itilde" unicode="&#x128;" horiz-adv-x="572" 
d="M202 0l290 1365h167l-290 -1365h-167zM914 1686q-34 -100 -91.5 -156t-125.5 -56q-57 0 -118 57q-47 43 -84 43q-60 0 -98 -93h-103q77 212 219 212q57 0 118 -54q49 -42 78 -42q61 0 99 89h106z" />
    <glyph glyph-name="itilde" unicode="&#x129;" horiz-adv-x="477" 
d="M162 0l200 942h153l-200 -942h-153zM807 1317q-75 -211 -199 -211q-49 0 -126 56q-58 43 -89 43q-51 0 -91 -92h-101q23 68 51 111q66 100 153 100q51 0 123 -56q57 -44 82 -44q56 0 95 93h102z" />
    <glyph glyph-name="Imacron" unicode="&#x12a;" horiz-adv-x="572" 
d="M202 0l290 1365h167l-290 -1365h-167zM910 1603l-25 -117h-560l25 117h560z" />
    <glyph glyph-name="imacron" unicode="&#x12b;" horiz-adv-x="477" 
d="M162 0l200 942h153l-200 -942h-153zM765 1252l-24 -112h-502l24 112h502z" />
    <glyph glyph-name="Ibreve" unicode="&#x12c;" horiz-adv-x="572" 
d="M202 0l290 1365h167l-290 -1365h-167zM883 1748q-12 -92 -41 -142q-75 -131 -246 -131q-112 0 -174 59t-62 166q0 16 3 48h106q-1 -16 -1 -24q0 -64 36.5 -100.5t101.5 -36.5q70 0 110 38t61 123h106z" />
    <glyph glyph-name="ibreve" unicode="&#x12d;" horiz-adv-x="477" 
d="M162 0l200 942h153l-200 -942h-153zM757 1365q-34 -273 -265 -273q-105 0 -164 56.5t-59 155.5q0 21 4 61h102q-2 -18 -2 -25q0 -66 34 -103t95 -37q128 0 154 165h101z" />
    <glyph glyph-name="Iogonek" unicode="&#x12e;" horiz-adv-x="572" 
d="M369 0q-132 -102 -132 -189q0 -35 24 -55.5t64 -20.5q30 0 81 18l-18 -91q-59 -22 -111 -22q-72 0 -115.5 35.5t-43.5 94.5q0 116 156 230h-72l291 1365h166z" />
    <glyph glyph-name="iogonek" unicode="&#x12f;" horiz-adv-x="477" 
d="M315 0q-132 -99 -132 -189q0 -76 91 -76q33 0 79 18l-19 -91q-63 -22 -112 -22q-73 0 -117.5 36t-44.5 95q0 116 160 229h-57l200 942h152zM409 1157l44 208h161l-44 -208h-161z" />
    <glyph glyph-name="Idotaccent" unicode="&#x130;" horiz-adv-x="572" 
d="M202 0l290 1365h167l-290 -1365h-167zM714 1678l-42 -194h-143l41 194h144z" />
    <glyph glyph-name="IJ" unicode="&#x132;" horiz-adv-x="1122" 
d="M202 0l290 1365h167l-290 -1365h-167zM469 -19l31 147q42 -18 89 -18q136 0 210 124q24 40 38.5 86t41.5 175l185 870h167l-191 -898q-35 -162 -61 -233t-73 -130q-57 -71 -138 -104t-197 -33q-48 0 -102 14z" />
    <glyph glyph-name="ij" unicode="&#x133;" horiz-adv-x="952" 
d="M162 0l200 942h153l-200 -942h-153zM408 1157l44 208h162l-44 -208h-162zM418 -349l28 131q31 -8 54 -8q88 0 114 125l222 1043h152l-217 -1022q-28 -131 -81 -192q-72 -83 -203 -83q-29 0 -69 6zM882 1157l44 208h162l-45 -208h-161z" />
    <glyph glyph-name="Jcircumflex" unicode="&#x134;" horiz-adv-x="654" 
d="M1 -19l31 147q42 -18 89 -18q136 0 210 124q24 40 38.5 86t41.5 175l185 870h167l-191 -898q-35 -162 -61 -233t-73 -130q-57 -71 -138 -104t-197 -33q-48 0 -102 14zM969 1475l-151 -1l-87 186l-167 -185h-155l238 259h192z" />
    <glyph glyph-name="jcircumflex" unicode="&#x135;" horiz-adv-x="470" 
d="M-63 -349l28 131q31 -8 54 -8q88 0 114 125l222 1043h152l-217 -1022q-28 -131 -81 -192q-72 -83 -203 -83q-29 0 -69 6zM749 1092h-136l-82 197l-168 -197h-139l237 273h164z" />
    <glyph glyph-name="Kcommaaccent" unicode="&#x136;" horiz-adv-x="1149" 
d="M790 791l347 -791h-189l-290 669l-183 -168l-106 -501h-167l290 1365h167l-137 -645l688 645h206zM705 -84l-28 -133q-23 -109 -73.5 -165t-135.5 -66l14 69q75 20 106 126h-79l36 169h160z" />
    <glyph glyph-name="kcommaaccent" unicode="&#x137;" horiz-adv-x="965" 
d="M664 585l274 -585h-178l-224 483l-143 -113l-78 -370h-153l290 1365h153l-171 -802l471 379h210zM582 -84l-28 -133q-44 -214 -209 -231l14 69q75 20 106 126h-79l36 169h160z" />
    <glyph glyph-name="kgreenlandic" unicode="&#x138;" horiz-adv-x="951" 
d="M659 552l279 -552h-178l-221 447l-159 -138l-65 -309h-153l200 942h153l-94 -439l484 439h203z" />
    <glyph glyph-name="Lacute" unicode="&#x139;" horiz-adv-x="973" 
d="M202 0l290 1365h167l-260 -1220h595l-31 -145h-761zM903 1734l-253 -255h-130l231 255h152z" />
    <glyph glyph-name="lacute" unicode="&#x13a;" horiz-adv-x="478" 
d="M162 0l290 1365h153l-290 -1365h-153zM841 1734l-254 -255h-130l231 255h153z" />
    <glyph glyph-name="Lcommaaccent" unicode="&#x13b;" horiz-adv-x="973" 
d="M202 0l290 1365h167l-260 -1220h595l-31 -145h-761zM645 -84l-28 -133q-23 -109 -73.5 -165t-135.5 -66l14 69q75 20 106 126h-79l36 169h160z" />
    <glyph glyph-name="lcommaaccent" unicode="&#x13c;" horiz-adv-x="478" 
d="M163 0l290 1365h153l-290 -1365h-153zM309 -84l-28 -133q-44 -214 -209 -231l14 69q75 20 106 126h-79l36 169h160z" />
    <glyph glyph-name="Lcaron" unicode="&#x13d;" horiz-adv-x="973" 
d="M202 0l290 1365h167l-260 -1220h595l-31 -145h-761zM1077 1365l-28 -133q-23 -110 -73.5 -165.5t-135.5 -65.5l14 69q75 18 106 126h-79l36 169h160z" />
    <glyph glyph-name="lcaron" unicode="&#x13e;" horiz-adv-x="570" 
d="M162 0l290 1365h153l-290 -1365h-153zM888 1365l-28 -133q-44 -214 -209 -231l14 69q75 18 106 126h-79l36 169h160z" />
    <glyph glyph-name="Ldot" unicode="&#x13f;" horiz-adv-x="973" 
d="M202 0l290 1365h167l-260 -1220h595l-31 -145h-761zM856 775l-41 -191h-143l40 191h144z" />
    <glyph glyph-name="ldot" unicode="&#x140;" horiz-adv-x="600" 
d="M162 0l290 1365h153l-290 -1365h-153zM731 755l-41 -191h-143l40 191h144z" />
    <glyph glyph-name="Lslash" unicode="&#x141;" horiz-adv-x="987" 
d="M156 426l32 152l176 112l143 675h167l-121 -569l318 201l-32 -152l-318 -201l-107 -499h595l-31 -145h-761l114 538z" />
    <glyph glyph-name="lslash" unicode="&#x142;" horiz-adv-x="494" 
d="M110 471l31 143l188 130l132 621h153l-107 -502l188 130l-30 -143l-189 -130l-153 -720h-152l128 601z" />
    <glyph glyph-name="Nacute" unicode="&#x143;" horiz-adv-x="1331" 
d="M202 0l290 1365h180l353 -1133l241 1133h152l-290 -1365h-180l-353 1133l-240 -1133h-153zM1259 1734l-253 -255h-130l231 255h152z" />
    <glyph glyph-name="nacute" unicode="&#x144;" horiz-adv-x="1055" 
d="M162 0l200 942h153l-25 -114q127 143 303 143q121 0 188.5 -62t67.5 -172q0 -64 -13 -125l-130 -612h-153l126 594q14 63 14 118q0 64 -39.5 100t-110.5 36q-154 0 -247 -141q-27 -41 -45 -94t-42 -168l-94 -445h-153zM1050 1365l-237 -273h-130l221 273h146z" />
    <glyph glyph-name="Ncommaaccent" unicode="&#x145;" horiz-adv-x="1331" 
d="M202 0l290 1365h180l353 -1133l241 1133h152l-290 -1365h-180l-353 1133l-240 -1133h-153zM751 -84l-28 -133q-23 -109 -73.5 -165t-135.5 -66l14 69q75 20 106 126h-79l36 169h160z" />
    <glyph glyph-name="ncommaaccent" unicode="&#x146;" horiz-adv-x="1055" 
d="M162 0l200 942h153l-25 -114q127 143 303 143q121 0 188.5 -62t67.5 -172q0 -64 -13 -125l-130 -612h-153l126 594q14 63 14 118q0 64 -39.5 100t-110.5 36q-154 0 -247 -141q-27 -41 -45 -94t-42 -168l-94 -445h-153zM600 -84l-28 -133q-44 -214 -209 -231l14 69
q75 20 106 126h-79l36 169h160z" />
    <glyph glyph-name="Ncaron" unicode="&#x147;" horiz-adv-x="1331" 
d="M202 0l290 1365h180l353 -1133l241 1133h152l-290 -1365h-180l-353 1133l-240 -1133h-153zM753 1734l152 1l86 -186l167 185h155l-238 -259h-191z" />
    <glyph glyph-name="ncaron" unicode="&#x148;" horiz-adv-x="1055" 
d="M162 0l200 942h153l-25 -114q127 143 303 143q121 0 188.5 -62t67.5 -172q0 -64 -13 -125l-130 -612h-153l126 594q14 63 14 118q0 64 -39.5 100t-110.5 36q-154 0 -247 -141q-27 -41 -45 -94t-42 -168l-94 -445h-153zM553 1365h136l81 -197l169 197h139l-238 -273h-164z
" />
    <glyph glyph-name="napostrophe" unicode="&#x149;" horiz-adv-x="1112" 
d="M218 0l200 942h153l-25 -114q127 143 303 143q121 0 188.5 -62t67.5 -172q0 -64 -13 -125l-130 -612h-153l126 594q14 63 14 118q0 64 -39.5 100t-110.5 36q-154 0 -247 -141q-27 -41 -45 -94t-42 -168l-94 -445h-153zM406 1143l-28 -133q-44 -214 -209 -231l14 69
q75 18 106 126h-79l36 169h160z" />
    <glyph glyph-name="Eng" unicode="&#x14a;" horiz-adv-x="1321" 
d="M492 1365h167l-37 -175q75 79 128 115q122 83 271 83q179 0 283 -107q77 -79 77 -213q0 -92 -30 -231l-109 -516q-49 -227 -144 -326q-133 -137 -332 -137q-73 0 -157 29l31 147q74 -33 141 -33q126 0 194 67q33 32 54.5 85.5t44.5 162.5l117 550q25 119 25 179
q0 76 -48 128q-65 69 -200 69q-126 0 -226 -72q-79 -58 -129 -157.5t-87 -270.5l-157 -742h-167z" />
    <glyph glyph-name="eng" unicode="&#x14b;" horiz-adv-x="1062" 
d="M315 0h-153l200 942h153l-25 -114q127 143 303 143q121 0 188.5 -62t67.5 -172q0 -64 -13 -125l-94 -441q-43 -203 -77 -257q-72 -115 -231 -115q-32 0 -74 6l28 131q32 -8 60 -8q63 0 83 35.5t57 206.5l91 424q14 62 14 118q0 64 -39.5 100t-110.5 36q-154 0 -247 -141
q-27 -41 -45 -94t-42 -168z" />
    <glyph glyph-name="Omacron" unicode="&#x14c;" horiz-adv-x="1364" 
d="M951 1396q210 0 331 -132q66 -73 99 -190q26 -89 26 -186q0 -156 -46 -316.5t-127 -286.5q-205 -318 -532 -318q-237 0 -354 159q-101 137 -101 356q0 208 74 403q93 248 280 392q157 119 350 119zM936 1250q-216 0 -369 -242q-145 -228 -145 -535q0 -187 85 -279
q77 -84 196 -84q226 0 381 249q68 110 107.5 252.5t39.5 278.5q0 182 -88 280q-73 80 -207 80zM1300 1603l-25 -117h-560l25 117h560z" />
    <glyph glyph-name="omacron" unicode="&#x14d;" horiz-adv-x="1034" 
d="M709 971q155 0 250 -84q108 -94 108 -283q0 -135 -49 -267q-77 -209 -237 -303q-107 -63 -244 -63q-172 0 -266 92q-101 98 -101 269q0 117 35.5 232t97.5 199q153 208 406 208zM700 848q-171 0 -281 -173q-93 -147 -93 -339q0 -141 81 -202q54 -40 134 -40
q153 0 256 145q51 72 81.5 171.5t30.5 195.5q0 137 -77 198q-53 44 -132 44zM1034 1252l-24 -112h-502l24 112h502z" />
    <glyph glyph-name="Obreve" unicode="&#x14e;" horiz-adv-x="1364" 
d="M951 1396q210 0 331 -132q66 -73 99 -190q26 -89 26 -186q0 -156 -46 -316.5t-127 -286.5q-205 -318 -532 -318q-237 0 -354 159q-101 137 -101 356q0 208 74 403q93 248 280 392q157 119 350 119zM936 1250q-216 0 -369 -242q-145 -228 -145 -535q0 -187 85 -279
q77 -84 196 -84q226 0 381 249q68 110 107.5 252.5t39.5 278.5q0 182 -88 280q-73 80 -207 80zM1299 1748q-12 -92 -41 -142q-75 -131 -246 -131q-112 0 -174 59t-62 166q0 16 3 48h106q-1 -16 -1 -24q0 -64 36.5 -100.5t101.5 -36.5q70 0 110 38t61 123h106z" />
    <glyph glyph-name="obreve" unicode="&#x14f;" horiz-adv-x="1034" 
d="M709 971q155 0 250 -84q108 -94 108 -283q0 -135 -49 -267q-77 -209 -237 -303q-107 -63 -244 -63q-172 0 -266 92q-101 98 -101 269q0 117 35.5 232t97.5 199q153 208 406 208zM700 848q-171 0 -281 -173q-93 -147 -93 -339q0 -141 81 -202q54 -40 134 -40
q153 0 256 145q51 72 81.5 171.5t30.5 195.5q0 137 -77 198q-53 44 -132 44zM1050 1365q-35 -273 -266 -273q-104 0 -163 56.5t-59 155.5q0 22 3 61h102q-1 -17 -1 -25q0 -66 34 -103t95 -37q127 0 153 165h102z" />
    <glyph glyph-name="Ohungarumlaut" unicode="&#x150;" horiz-adv-x="1364" 
d="M951 1396q210 0 331 -132q66 -73 99 -190q26 -89 26 -186q0 -156 -46 -316.5t-127 -286.5q-205 -318 -532 -318q-237 0 -354 159q-101 137 -101 356q0 208 74 403q93 248 280 392q157 119 350 119zM936 1250q-216 0 -369 -242q-145 -228 -145 -535q0 -187 85 -279
q77 -84 196 -84q226 0 381 249q68 110 107.5 252.5t39.5 278.5q0 182 -88 280q-73 80 -207 80zM1140 1734l-253 -255h-130l231 255h152zM1413 1734l-253 -255h-130l231 255h152z" />
    <glyph glyph-name="ohungarumlaut" unicode="&#x151;" horiz-adv-x="1034" 
d="M709 971q155 0 250 -84q108 -94 108 -283q0 -135 -49 -267q-77 -209 -237 -303q-107 -63 -244 -63q-172 0 -266 92q-101 98 -101 269q0 117 35.5 232t97.5 199q153 208 406 208zM700 848q-171 0 -281 -173q-93 -147 -93 -339q0 -141 81 -202q54 -40 134 -40
q153 0 256 145q51 72 81.5 171.5t30.5 195.5q0 137 -77 198q-53 44 -132 44zM906 1365l-237 -273h-130l221 273h146zM1179 1365l-237 -273h-130l221 273h146z" />
    <glyph glyph-name="Racute" unicode="&#x154;" horiz-adv-x="1241" 
d="M202 0l290 1365h457q355 0 355 -320q0 -318 -321 -383q154 -32 154 -188q0 -34 -7 -88l-23 -178q-8 -61 -8 -102q0 -71 25 -106h-190q-10 27 -10 53q0 27 11 113l27 228q4 29 4 67q0 74 -42.5 102.5t-152.5 28.5h-277l-125 -592h-167zM525 735h228q114 0 174 15t107 54
q92 80 92 222q0 99 -56.5 146.5t-175.5 47.5h-266zM1174 1734l-253 -255h-130l231 255h152z" />
    <glyph glyph-name="racute" unicode="&#x155;" horiz-adv-x="646" 
d="M162 0l200 942h144l-38 -177q51 80 112 127q46 36 110.5 58t122.5 22q10 0 32 -1l-36 -171q-39 4 -51 4q-119 0 -210 -89q-60 -57 -93.5 -135.5t-68.5 -242.5l-71 -337h-153zM905 1365l-237 -273h-130l221 273h146z" />
    <glyph glyph-name="Rcommaaccent" unicode="&#x156;" horiz-adv-x="1241" 
d="M202 0l290 1365h457q355 0 355 -320q0 -318 -321 -383q154 -32 154 -188q0 -34 -7 -88l-23 -178q-8 -61 -8 -102q0 -71 25 -106h-190q-10 27 -10 53q0 27 11 113l27 228q4 29 4 67q0 74 -42.5 102.5t-152.5 28.5h-277l-125 -592h-167zM525 735h228q114 0 174 15t107 54
q92 80 92 222q0 99 -56.5 146.5t-175.5 47.5h-266zM707 -84l-28 -133q-23 -109 -73.5 -165t-135.5 -66l14 69q75 20 106 126h-79l36 169h160z" />
    <glyph glyph-name="rcommaaccent" unicode="&#x157;" horiz-adv-x="646" 
d="M163 0l200 942h144l-38 -177q51 80 112 127q46 36 110.5 58t122.5 22q10 0 32 -1l-36 -171q-39 4 -51 4q-119 0 -210 -89q-60 -57 -93.5 -135.5t-68.5 -242.5l-71 -337h-153zM302 -84l-28 -133q-44 -214 -209 -231l14 69q75 20 106 126h-79l36 169h160z" />
    <glyph glyph-name="Rcaron" unicode="&#x158;" horiz-adv-x="1241" 
d="M202 0l290 1365h457q355 0 355 -320q0 -318 -321 -383q154 -32 154 -188q0 -34 -7 -88l-23 -178q-8 -61 -8 -102q0 -71 25 -106h-190q-10 27 -10 53q0 27 11 113l27 228q4 29 4 67q0 74 -42.5 102.5t-152.5 28.5h-277l-125 -592h-167zM525 735h228q114 0 174 15t107 54
q92 80 92 222q0 99 -56.5 146.5t-175.5 47.5h-266zM700 1734l152 1l86 -186l167 185h155l-238 -259h-191z" />
    <glyph glyph-name="rcaron" unicode="&#x159;" horiz-adv-x="646" 
d="M162 0l200 942h144l-38 -177q51 80 112 127q46 36 110.5 58t122.5 22q10 0 32 -1l-36 -171q-39 4 -51 4q-119 0 -210 -89q-60 -57 -93.5 -135.5t-68.5 -242.5l-71 -337h-153zM445 1365h136l81 -197l169 197h139l-238 -273h-164z" />
    <glyph glyph-name="Sacute" unicode="&#x15a;" 
d="M203 424h164q-7 -49 -7 -83q0 -80 37 -135q61 -91 216 -91q166 0 252 114q50 68 50 158q0 148 -173 219l-168 70q-117 48 -173 125.5t-56 190.5q0 166 106 273q130 132 346 132q192 0 298 -96q92 -84 92 -217q0 -29 -7 -84h-174q7 37 7 61q0 89 -57.5 139.5t-158.5 50.5
q-128 0 -206 -72q-67 -63 -67 -165q0 -72 37.5 -120t120.5 -83l182 -75q124 -52 179.5 -128.5t55.5 -196.5q0 -177 -112 -297q-136 -146 -388 -146q-120 0 -201.5 31t-134.5 97q-71 89 -71 217q0 44 11 111zM1132 1734l-253 -255h-130l231 255h152z" />
    <glyph glyph-name="sacute" unicode="&#x15b;" horiz-adv-x="913" 
d="M158 266h166q-5 -27 -5 -41q0 -59 44.5 -93t121.5 -34q89 0 146 44q60 45 60 115q0 67 -86 115l-178 98q-150 84 -150 229q0 124 92.5 198t247.5 74q140 0 220 -57t80 -160q0 -22 -4 -55h-160q3 24 3 38q0 54 -39 83.5t-109 29.5q-76 0 -122.5 -36t-46.5 -95
q0 -68 86 -116l204 -115q143 -81 143 -210q0 -140 -106 -223.5t-283 -83.5q-187 0 -269 85q-61 62 -61 158q0 17 5 52zM953 1365l-237 -273h-130l221 273h146z" />
    <glyph glyph-name="Scircumflex" unicode="&#x15c;" 
d="M203 424h164q-7 -49 -7 -83q0 -80 37 -135q61 -91 216 -91q166 0 252 114q50 68 50 158q0 148 -173 219l-168 70q-117 48 -173 125.5t-56 190.5q0 166 106 273q130 132 346 132q192 0 298 -96q92 -84 92 -217q0 -29 -7 -84h-174q7 37 7 61q0 89 -57.5 139.5t-158.5 50.5
q-128 0 -206 -72q-67 -63 -67 -165q0 -72 37.5 -120t120.5 -83l182 -75q124 -52 179.5 -128.5t55.5 -196.5q0 -177 -112 -297q-136 -146 -388 -146q-120 0 -201.5 31t-134.5 97q-71 89 -71 217q0 44 11 111zM1140 1475l-151 -1l-87 186l-167 -185h-155l238 259h192z" />
    <glyph glyph-name="scircumflex" unicode="&#x15d;" horiz-adv-x="913" 
d="M158 266h166q-5 -27 -5 -41q0 -59 44.5 -93t121.5 -34q89 0 146 44q60 45 60 115q0 67 -86 115l-178 98q-150 84 -150 229q0 124 92.5 198t247.5 74q140 0 220 -57t80 -160q0 -22 -4 -55h-160q3 24 3 38q0 54 -39 83.5t-109 29.5q-76 0 -122.5 -36t-46.5 -95
q0 -68 86 -116l204 -115q143 -81 143 -210q0 -140 -106 -223.5t-283 -83.5q-187 0 -269 85q-61 62 -61 158q0 17 5 52zM962 1092h-136l-82 197l-168 -197h-139l237 273h164z" />
    <glyph glyph-name="Scedilla" unicode="&#x15e;" 
d="M599 -32l-45 -74q27 11 55 11q60 0 96.5 -34.5t36.5 -92.5q0 -81 -60.5 -136.5t-150.5 -55.5q-65 0 -106.5 28t-41.5 72q0 4 1 11h105q1 -34 46 -34q40 0 66 31t26 77q0 58 -56 58q-43 0 -61 -30h-102l105 174q-130 16 -203 76q-118 97 -118 264q0 44 11 111h164
q-7 -49 -7 -83q0 -80 37 -135q61 -91 216 -91q166 0 252 114q50 68 50 158q0 148 -173 219l-168 70q-117 48 -173 125.5t-56 190.5q0 166 106 273q130 132 346 132q192 0 298 -96q92 -84 92 -217q0 -29 -7 -84h-174q7 37 7 61q0 89 -57.5 139.5t-158.5 50.5q-128 0 -206 -72
q-67 -63 -67 -165q0 -72 37.5 -120t120.5 -83l182 -75q124 -52 179.5 -128.5t55.5 -196.5q0 -215 -159 -340q-129 -103 -341 -103z" />
    <glyph glyph-name="scedilla" unicode="&#x15f;" horiz-adv-x="913" 
d="M489 -29l-47 -79q23 9 46 9q57 0 93.5 -35.5t36.5 -91.5q0 -79 -58 -131.5t-145 -52.5q-60 0 -97 26.5t-37 70.5q0 4 1 12h93q1 -34 49 -34q40 0 66 30t26 75q0 58 -58 58q-41 0 -58 -29h-94l103 177q-96 11 -153 47q-48 28 -75.5 80t-27.5 111q0 17 5 52h166
q-5 -27 -5 -41q0 -59 44.5 -93t121.5 -34q89 0 146 44q60 45 60 115q0 67 -86 115l-178 98q-150 84 -150 229q0 124 92.5 198t247.5 74q140 0 220 -57t80 -160q0 -22 -4 -55h-160q3 24 3 38q0 54 -39 83.5t-109 29.5q-76 0 -122.5 -36t-46.5 -95q0 -68 86 -116l204 -115
q143 -81 143 -210q0 -93 -54 -167.5t-146 -109.5q-73 -27 -183 -30z" />
    <glyph glyph-name="Scaron" unicode="&#x160;" 
d="M203 424h164q-7 -49 -7 -83q0 -80 37 -135q61 -91 216 -91q166 0 252 114q50 68 50 158q0 148 -173 219l-168 70q-117 48 -173 125.5t-56 190.5q0 166 106 273q130 132 346 132q192 0 298 -96q92 -84 92 -217q0 -29 -7 -84h-174q7 37 7 61q0 89 -57.5 139.5t-158.5 50.5
q-128 0 -206 -72q-67 -63 -67 -165q0 -72 37.5 -120t120.5 -83l182 -75q124 -52 179.5 -128.5t55.5 -196.5q0 -177 -112 -297q-136 -146 -388 -146q-120 0 -201.5 31t-134.5 97q-71 89 -71 217q0 44 11 111zM624 1734l152 1l86 -186l167 185h155l-238 -259h-191z" />
    <glyph glyph-name="scaron" unicode="&#x161;" horiz-adv-x="913" 
d="M158 266h166q-5 -27 -5 -41q0 -59 44.5 -93t121.5 -34q89 0 146 44q60 45 60 115q0 67 -86 115l-178 98q-150 84 -150 229q0 124 92.5 198t247.5 74q140 0 220 -57t80 -160q0 -22 -4 -55h-160q3 24 3 38q0 54 -39 83.5t-109 29.5q-76 0 -122.5 -36t-46.5 -95
q0 -68 86 -116l204 -115q143 -81 143 -210q0 -140 -106 -223.5t-283 -83.5q-187 0 -269 85q-61 62 -61 158q0 17 5 52zM451 1365h136l81 -197l169 197h139l-238 -273h-164z" />
    <glyph glyph-name="Tcommaaccent" unicode="&#x162;" horiz-adv-x="927" 
d="M371 0l260 1220h-380l31 145h926l-31 -145h-380l-259 -1220h-167zM527 -84l-28 -133q-23 -109 -73.5 -165t-135.5 -66l14 69q75 20 106 126h-79l36 169h160z" />
    <glyph glyph-name="tcommaaccent" unicode="&#x163;" horiz-adv-x="558" 
d="M199 815l27 127h148l30 141l160 166h28l-65 -307h176l-27 -127h-176l-119 -557q-11 -54 -11 -87q0 -30 21 -47.5t57 -17.5q28 0 80 13l-27 -126q-58 -13 -100 -13q-190 0 -190 157q0 38 22 139l114 539h-148zM374 -84l-28 -133q-44 -214 -209 -231l14 69q75 20 106 126
h-79l36 169h160z" />
    <glyph glyph-name="Tcaron" unicode="&#x164;" horiz-adv-x="927" 
d="M371 0l260 1220h-380l31 145h926l-31 -145h-380l-259 -1220h-167zM552 1734l152 1l86 -186l167 185h155l-238 -259h-191z" />
    <glyph glyph-name="tcaron" unicode="&#x165;" horiz-adv-x="634" 
d="M199 815l27 127h148l30 141l160 166h28l-65 -307h176l-27 -127h-176l-119 -557q-11 -54 -11 -87q0 -30 21 -47.5t57 -17.5q28 0 80 13l-27 -126q-58 -13 -100 -13q-190 0 -190 157q0 38 22 139l114 539h-148zM929 1381l-28 -133q-44 -214 -209 -231l14 69q75 18 106 126
h-79l36 169h160z" />
    <glyph glyph-name="Tbar" unicode="&#x166;" horiz-adv-x="982" 
d="M708 670l-142 -670h-167l142 670h-241l24 112h241l93 438h-407l31 145h982l-31 -145h-408l-93 -438h225l-23 -112h-226z" />
    <glyph glyph-name="tbar" unicode="&#x167;" horiz-adv-x="581" 
d="M473 644h179l-27 -115h-176l-58 -271q-12 -58 -12 -87q0 -65 78 -65q29 0 81 13l-27 -126q-58 -13 -101 -13q-190 0 -190 157q0 37 23 139l53 253h-148l27 115h146l36 171h-148l27 127h148l30 141l160 166h28l-65 -307h176l-27 -127h-176z" />
    <glyph glyph-name="Utilde" unicode="&#x168;" horiz-adv-x="1294" 
d="M472 1365h164l-164 -771q-35 -167 -35 -249q0 -118 68 -178q64 -57 179 -57q206 0 299 173q40 75 90 311l164 771h166l-163 -769q-42 -198 -61 -255q-68 -199 -198 -291q-119 -83 -300 -83q-224 0 -331 122q-80 92 -80 228q0 99 39 282zM1301 1703q-34 -100 -91.5 -156
t-125.5 -56q-57 0 -118 57q-47 43 -84 43q-60 0 -98 -93h-103q77 212 219 212q57 0 118 -54q49 -42 78 -42q61 0 99 89h106z" />
    <glyph glyph-name="utilde" unicode="&#x169;" horiz-adv-x="1060" 
d="M1097 942l-200 -942h-152l24 114q-127 -143 -303 -143q-121 0 -188.5 62t-67.5 172q0 62 13 125l131 612h152l-126 -594q-14 -65 -14 -118q0 -64 39.5 -100t110.5 -36q154 0 247 141q28 41 45.5 94t41.5 168l95 445h152zM1082 1317q-76 -211 -199 -211q-49 0 -126 56
q-58 43 -89 43q-51 0 -91 -92h-101q23 68 51 111q66 100 153 100q51 0 123 -56q56 -44 82 -44q55 0 94 93h103z" />
    <glyph glyph-name="Umacron" unicode="&#x16a;" horiz-adv-x="1294" 
d="M472 1365h164l-164 -771q-35 -167 -35 -249q0 -118 68 -178q64 -57 179 -57q206 0 299 173q40 75 90 311l164 771h166l-163 -769q-42 -198 -61 -255q-68 -199 -198 -291q-119 -83 -300 -83q-224 0 -331 122q-80 92 -80 228q0 99 39 282zM1260 1603l-25 -117h-560l25 117
h560z" />
    <glyph glyph-name="umacron" unicode="&#x16b;" horiz-adv-x="1060" 
d="M1097 942l-200 -942h-152l24 114q-127 -143 -303 -143q-121 0 -188.5 62t-67.5 172q0 62 13 125l131 612h152l-126 -594q-14 -65 -14 -118q0 -64 39.5 -100t110.5 -36q154 0 247 141q28 41 45.5 94t41.5 168l95 445h152zM1027 1252l-24 -112h-502l24 112h502z" />
    <glyph glyph-name="Ubreve" unicode="&#x16c;" horiz-adv-x="1294" 
d="M472 1365h164l-164 -771q-35 -167 -35 -249q0 -118 68 -178q64 -57 179 -57q206 0 299 173q40 75 90 311l164 771h166l-163 -769q-42 -198 -61 -255q-68 -199 -198 -291q-119 -83 -300 -83q-224 0 -331 122q-80 92 -80 228q0 99 39 282zM1252 1748q-12 -92 -41 -142
q-75 -131 -246 -131q-112 0 -174 59t-62 166q0 16 3 48h106q-1 -16 -1 -24q0 -64 36.5 -100.5t101.5 -36.5q70 0 110 38t61 123h106z" />
    <glyph glyph-name="ubreve" unicode="&#x16d;" horiz-adv-x="1060" 
d="M1097 942l-200 -942h-152l24 114q-127 -143 -303 -143q-121 0 -188.5 62t-67.5 172q0 62 13 125l131 612h152l-126 -594q-14 -65 -14 -118q0 -64 39.5 -100t110.5 -36q154 0 247 141q28 41 45.5 94t41.5 168l95 445h152zM1024 1365q-35 -273 -266 -273q-104 0 -163 56.5
t-59 155.5q0 22 3 61h102q-1 -17 -1 -25q0 -66 34 -103t95 -37q127 0 153 165h102z" />
    <glyph glyph-name="Uring" unicode="&#x16e;" horiz-adv-x="1294" 
d="M472 1365h164l-164 -771q-35 -167 -35 -249q0 -118 68 -178q64 -57 179 -57q206 0 299 173q40 75 90 311l164 771h166l-163 -769q-42 -198 -61 -255q-68 -199 -198 -291q-119 -83 -300 -83q-224 0 -331 122q-80 92 -80 228q0 99 39 282zM977 1733q-42 0 -71.5 -31
t-29.5 -75t29 -75t70 -31q42 0 71 31t29 75q0 43 -29 74.5t-69 31.5zM978 1821q80 0 137.5 -57t57.5 -137t-58 -136.5t-140 -56.5t-140 56.5t-58 135.5q0 82 58 138.5t143 56.5z" />
    <glyph glyph-name="uring" unicode="&#x16f;" horiz-adv-x="1060" 
d="M1097 942l-200 -942h-152l24 114q-127 -143 -303 -143q-121 0 -188.5 62t-67.5 172q0 62 13 125l131 612h152l-126 -594q-14 -65 -14 -118q0 -64 39.5 -100t110.5 -36q154 0 247 141q28 41 45.5 94t41.5 168l95 445h152zM758 1356q-42 0 -70.5 -30t-28.5 -74
q0 -43 28.5 -73t68.5 -30q41 0 69.5 30t28.5 72q0 44 -28 74.5t-68 30.5zM760 1440q78 0 133.5 -55.5t55.5 -133.5q0 -77 -56.5 -131.5t-136.5 -54.5q-79 0 -135.5 55t-56.5 132q0 79 56.5 133.5t139.5 54.5z" />
    <glyph glyph-name="Uhungarumlaut" unicode="&#x170;" horiz-adv-x="1294" 
d="M472 1365h164l-164 -771q-35 -167 -35 -249q0 -118 68 -178q64 -57 179 -57q206 0 299 173q40 75 90 311l164 771h166l-163 -769q-42 -198 -61 -255q-68 -199 -198 -291q-119 -83 -300 -83q-224 0 -331 122q-80 92 -80 228q0 99 39 282zM1100 1734l-253 -255h-130
l231 255h152zM1373 1734l-253 -255h-130l231 255h152z" />
    <glyph glyph-name="uhungarumlaut" unicode="&#x171;" horiz-adv-x="1060" 
d="M1097 942l-200 -942h-152l24 114q-127 -143 -303 -143q-121 0 -188.5 62t-67.5 172q0 62 13 125l131 612h152l-126 -594q-14 -65 -14 -118q0 -64 39.5 -100t110.5 -36q154 0 247 141q28 41 45.5 94t41.5 168l95 445h152zM850 1365l-237 -273h-130l221 273h146zM1123 1365
l-237 -273h-130l221 273h146z" />
    <glyph glyph-name="Uogonek" unicode="&#x172;" horiz-adv-x="1294" 
d="M856 -9q-120 -96 -120 -180q0 -35 24 -55.5t64 -20.5q31 0 81 18l-18 -91q-59 -22 -111 -22q-72 0 -115.5 35.5t-43.5 94.5q0 105 115 199q-21 -2 -49 -2q-116 0 -196.5 29.5t-136.5 92.5q-80 93 -80 228q0 99 39 282l163 766h164l-164 -771q-35 -167 -35 -249
q0 -118 68 -178q64 -57 179 -57q206 0 299 173q40 75 90 311l164 771h166l-163 -769q-42 -198 -61 -255q-97 -285 -323 -350z" />
    <glyph glyph-name="uogonek" unicode="&#x173;" horiz-adv-x="1060" 
d="M897 0q-132 -99 -132 -189q0 -76 92 -76q32 0 78 18l-19 -91q-62 -22 -112 -22q-73 0 -117.5 36t-44.5 95q0 116 160 229h-57l24 114q-127 -143 -303 -143q-121 0 -188.5 62t-67.5 172q0 62 13 125l131 612h152l-126 -594q-14 -65 -14 -118q0 -64 39.5 -100t110.5 -36
q154 0 247 141q28 41 45.5 94t41.5 168l95 445h152z" />
    <glyph glyph-name="Wcircumflex" unicode="&#x174;" horiz-adv-x="1567" 
d="M349 0l-5 1365h163l-21 -1132l490 1132h189l7 -1134l466 1134h166l-594 -1365h-174l-9 1154l-502 -1154h-176zM1353 1475l-151 -1l-87 186l-167 -185h-155l238 259h192z" />
    <glyph glyph-name="wcircumflex" unicode="&#x175;" horiz-adv-x="1266" 
d="M293 0l-80 942h164l37 -745l336 745h166l26 -743l351 743h162l-479 -942h-166l-25 718l-324 -718h-168zM1135 1092h-136l-82 197l-168 -197h-139l237 273h164z" />
    <glyph glyph-name="Ycircumflex" unicode="&#x176;" horiz-adv-x="1030" 
d="M430 0l119 560l-270 805h191l198 -643l466 643h191l-609 -805l-119 -560h-167zM1091 1475l-151 -1l-87 186l-167 -185h-155l238 259h192z" />
    <glyph glyph-name="ycircumflex" unicode="&#x177;" horiz-adv-x="859" 
d="M25 -340l28 132q12 -4 18 -7q36 -14 65 -14q86 0 140 89l90 150l-154 932h174l95 -731l393 731h172l-598 -1043q-76 -133 -131 -182q-79 -72 -191 -72q-44 0 -101 15zM899 1092h-136l-82 197l-168 -197h-139l237 273h164z" />
    <glyph glyph-name="Zacute" unicode="&#x179;" horiz-adv-x="1075" 
d="M74 0l32 151l939 1069h-654l31 145h835l-31 -147l-941 -1073h728l-31 -145h-908zM1132 1734l-253 -255h-130l231 255h152z" />
    <glyph glyph-name="zacute" unicode="&#x17a;" horiz-adv-x="833" 
d="M53 0l24 113l695 702h-510l27 127h697l-21 -101l-701 -714h569l-27 -127h-753zM947 1365l-237 -273h-130l221 273h146z" />
    <glyph glyph-name="Zdotaccent" unicode="&#x17b;" horiz-adv-x="1075" 
d="M74 0l32 151l939 1069h-654l31 145h835l-31 -147l-941 -1073h728l-31 -145h-908zM970 1678l-42 -194h-143l41 194h144z" />
    <glyph glyph-name="zdotaccent" unicode="&#x17c;" horiz-adv-x="833" 
d="M53 0l24 113l695 702h-510l27 127h697l-21 -101l-701 -714h569l-27 -127h-753zM777 1297l-41 -191h-143l41 191h143z" />
    <glyph glyph-name="Zcaron" unicode="&#x17d;" horiz-adv-x="1075" 
d="M74 0l32 151l939 1069h-654l31 145h835l-31 -147l-941 -1073h728l-31 -145h-908zM629 1734l152 1l86 -186l167 185h155l-238 -259h-191z" />
    <glyph glyph-name="zcaron" unicode="&#x17e;" horiz-adv-x="833" 
d="M53 0l24 113l695 702h-510l27 127h697l-21 -101l-701 -714h569l-27 -127h-753zM445 1365h136l81 -197l169 197h139l-238 -273h-164z" />
    <glyph glyph-name="longs" unicode="&#x17f;" horiz-adv-x="514" 
d="M162 0l220 1033q41 193 89 256q84 107 231 107q49 0 103 -14l-29 -139q-43 18 -78 18q-66 0 -99 -38.5t-55 -140.5l-229 -1082h-153z" />
    <glyph glyph-name="uni01CD" unicode="&#x1cd;" 
d="M779 1365h185l154 -1365h-178l-38 419h-463l-218 -419h-178zM512 560h378l-56 619zM660 1734l152 1l86 -186l167 185h155l-238 -259h-191z" />
    <glyph glyph-name="uni01CE" unicode="&#x1ce;" horiz-adv-x="975" 
d="M950 115l-25 -118q-49 -15 -82 -15q-60 0 -97 32.5t-37 85.5q0 12 3 35q-145 -164 -330 -164q-118 0 -185 65q-64 62 -64 160q0 105 65.5 188t181.5 126q70 25 156 35.5t266 14.5l19 88q9 42 9 68q0 131 -178 131q-95 0 -146.5 -32.5t-73.5 -106.5l-164 -1
q27 126 127 195t255 69q136 0 221 -49q106 -60 106 -186q0 -43 -25 -161l-76 -356q-10 -49 -10 -63q0 -46 48 -46q13 0 36 5zM781 458q-192 -7 -290 -32q-94 -23 -147 -77.5t-53 -127.5q0 -59 36 -93t98 -34q145 0 253 127q70 83 92 185zM500 1365h136l81 -197l169 197h139
l-238 -273h-164z" />
    <glyph glyph-name="uni01D2" unicode="&#x1d2;" horiz-adv-x="1034" 
d="M709 971q155 0 250 -84q108 -94 108 -283q0 -135 -49 -267q-77 -209 -237 -303q-107 -63 -244 -63q-172 0 -266 92q-101 98 -101 269q0 117 35.5 232t97.5 199q153 208 406 208zM700 848q-171 0 -281 -173q-93 -147 -93 -339q0 -141 81 -202q54 -40 134 -40
q153 0 256 145q51 72 81.5 171.5t30.5 195.5q0 137 -77 198q-53 44 -132 44zM535 1365h136l81 -197l169 197h139l-238 -273h-164z" />
    <glyph glyph-name="uni01D3" unicode="&#x1d3;" horiz-adv-x="1294" 
d="M472 1365h164l-164 -771q-35 -167 -35 -249q0 -118 68 -178q64 -57 179 -57q206 0 299 173q40 75 90 311l164 771h166l-163 -769q-42 -198 -61 -255q-68 -199 -198 -291q-119 -83 -300 -83q-224 0 -331 122q-80 92 -80 228q0 99 39 282zM727 1734l152 1l86 -186l167 185
h155l-238 -259h-191z" />
    <glyph glyph-name="uni01D4" unicode="&#x1d4;" horiz-adv-x="1060" 
d="M1097 942l-200 -942h-152l24 114q-127 -143 -303 -143q-121 0 -188.5 62t-67.5 172q0 62 13 125l131 612h152l-126 -594q-14 -65 -14 -118q0 -64 39.5 -100t110.5 -36q154 0 247 141q28 41 45.5 94t41.5 168l95 445h152zM548 1365h136l81 -197l169 197h139l-238 -273
h-164z" />
    <glyph glyph-name="Gcaron" unicode="&#x1e6;" horiz-adv-x="1359" 
d="M1188 0h-141l37 174q-86 -108 -182 -157.5t-218 -49.5q-226 0 -337 152q-100 137 -100 359q0 213 76 413q102 273 323 414q143 92 321 92q219 0 329 -130q88 -104 88 -246q0 -24 -6 -75l-167 -1q2 28 2 40q0 84 -38 155q-61 114 -222 114q-247 0 -402 -272
q-130 -226 -130 -499q0 -93 24 -173t66 -125q70 -74 195 -74q166 0 284 121t171 346h-359l31 143h508zM765 1734l152 1l86 -186l167 185h155l-238 -259h-191z" />
    <glyph glyph-name="gcaron" unicode="&#x1e7;" horiz-adv-x="1069" 
d="M76 -109h169q6 -52 33 -76q52 -47 161 -47q255 0 321 309l13 62q-107 -152 -288 -152q-140 0 -224 88q-43 46 -68.5 118t-25.5 151q0 115 38.5 231.5t106.5 205.5q145 190 363 190q96 0 156.5 -35t97.5 -111l25 117h151l-172 -809q-27 -129 -51.5 -193t-68.5 -122
q-129 -173 -391 -173q-164 0 -252 62.5t-94 183.5zM669 848q-158 0 -256 -176q-87 -156 -87 -332q0 -92 35 -149q50 -81 153 -81q161 0 264 181q88 154 88 328q0 97 -40 156q-50 73 -157 73zM575 1365h136l81 -197l169 197h139l-238 -273h-164z" />
    <glyph glyph-name="uni01F5" unicode="&#x1f5;" horiz-adv-x="1069" 
d="M76 -109h169q6 -52 33 -76q52 -47 161 -47q255 0 321 309l13 62q-107 -152 -288 -152q-140 0 -224 88q-43 46 -68.5 118t-25.5 151q0 115 38.5 231.5t106.5 205.5q145 190 363 190q96 0 156.5 -35t97.5 -111l25 117h151l-172 -809q-27 -129 -51.5 -193t-68.5 -122
q-129 -173 -391 -173q-164 0 -252 62.5t-94 183.5zM669 848q-158 0 -256 -176q-87 -156 -87 -332q0 -92 35 -149q50 -81 153 -81q161 0 264 181q88 154 88 328q0 97 -40 156q-50 73 -157 73zM1027 1365l-237 -273h-130l221 273h146z" />
    <glyph glyph-name="Scommaaccent" unicode="&#x218;" 
d="M203 424h164q-7 -49 -7 -83q0 -80 37 -135q61 -91 216 -91q166 0 252 114q50 68 50 158q0 148 -173 219l-168 70q-117 48 -173 125.5t-56 190.5q0 166 106 273q130 132 346 132q192 0 298 -96q92 -84 92 -217q0 -29 -7 -84h-174q7 37 7 61q0 89 -57.5 139.5t-158.5 50.5
q-128 0 -206 -72q-67 -63 -67 -165q0 -72 37.5 -120t120.5 -83l182 -75q124 -52 179.5 -128.5t55.5 -196.5q0 -177 -112 -297q-136 -146 -388 -146q-120 0 -201.5 31t-134.5 97q-71 89 -71 217q0 44 11 111zM647 -84l-28 -133q-23 -109 -73.5 -165t-135.5 -66l14 69
q75 20 106 126h-79l36 169h160z" />
    <glyph glyph-name="scommaaccent" unicode="&#x219;" horiz-adv-x="913" 
d="M158 266h166q-5 -27 -5 -41q0 -59 44.5 -93t121.5 -34q89 0 146 44q60 45 60 115q0 67 -86 115l-178 98q-150 84 -150 229q0 124 92.5 198t247.5 74q140 0 220 -57t80 -160q0 -22 -4 -55h-160q3 24 3 38q0 54 -39 83.5t-109 29.5q-76 0 -122.5 -36t-46.5 -95
q0 -68 86 -116l204 -115q143 -81 143 -210q0 -140 -106 -223.5t-283 -83.5q-187 0 -269 85q-61 62 -61 158q0 17 5 52zM531 -84l-28 -133q-44 -214 -209 -231l14 69q75 20 106 126h-79l36 169h160z" />
    <glyph glyph-name="uni021A" unicode="&#x21a;" horiz-adv-x="927" 
d="M371 0l260 1220h-380l31 145h926l-31 -145h-380l-259 -1220h-167zM527 -84l-28 -133q-23 -109 -73.5 -165t-135.5 -66l14 69q75 20 106 126h-79l36 169h160z" />
    <glyph glyph-name="uni021B" unicode="&#x21b;" horiz-adv-x="558" 
d="M199 815l27 127h148l30 141l160 166h28l-65 -307h176l-27 -127h-176l-119 -557q-11 -54 -11 -87q0 -30 21 -47.5t57 -17.5q28 0 80 13l-27 -126q-58 -13 -100 -13q-190 0 -190 157q0 38 22 139l114 539h-148zM374 -84l-28 -133q-44 -214 -209 -231l14 69q75 20 106 126
h-79l36 169h160z" />
    <glyph glyph-name="dotlessj" unicode="&#x237;" horiz-adv-x="470" 
d="M-63 -349l28 131q31 -8 54 -8q88 0 114 125l222 1043h152l-217 -1022q-28 -131 -81 -192q-72 -83 -203 -83q-29 0 -69 6z" />
    <glyph glyph-name="afii57929" unicode="&#x2bc;" horiz-adv-x="583" 
d="M682 1365l-28 -130q-22 -101 -45 -154t-65 -96q-64 -66 -162 -91l22 101q102 31 125 139l4 18h-96l45 213h200z" />
    <glyph glyph-name="uni037E" unicode="&#x37e;" horiz-adv-x="583" 
d="M592 942l-46 -213h-199l45 213h200zM437 213l-28 -131q-23 -108 -47.5 -165.5t-66.5 -104.5q-65 -71 -164 -99l21 101q97 28 132 168l4 18h-96l45 213h200z" />
    <glyph glyph-name="anoteleia" unicode="&#x387;" horiz-adv-x="583" 
d="M519 598l-46 -213h-199l45 213h200z" />
    <glyph glyph-name="afii10023" unicode="&#x401;" horiz-adv-x="1125" 
d="M202 0l290 1365h789l-31 -145h-622l-95 -447h580l-30 -141h-580l-104 -487h631l-31 -145h-797zM1156 1655l-41 -194h-144l41 194h144zM873 1655l-42 -194h-143l41 194h144z" />
    <glyph glyph-name="afii10051" unicode="&#x402;" horiz-adv-x="1159" 
d="M426 0h-167l260 1220h-268l31 145h926l-31 -145h-492l-83 -392q120 143 280 143q114 0 177 -66q90 -96 90 -270q0 -124 -35.5 -265t-96.5 -259q-84 -162 -187.5 -236.5t-246.5 -74.5q-46 0 -94 16l28 131q49 -18 90 -18q126 0 217 131q78 113 127 291q44 162 44 287
q0 210 -164 210q-110 0 -192 -94q-43 -49 -66 -109.5t-52 -199.5z" />
    <glyph glyph-name="afii10052" unicode="&#x403;" horiz-adv-x="1014" 
d="M492 1365h762l-31 -145h-595l-259 -1220h-167zM1198 1734l-253 -255h-130l231 255h152z" />
    <glyph glyph-name="afii10053" unicode="&#x404;" horiz-adv-x="1278" 
d="M468 773h489l-30 -141h-490q-13 -89 -13 -171q0 -174 79 -269q68 -82 194 -82q141 0 246 103.5t166 301.5h170q-51 -198 -149 -326q-169 -222 -440 -222q-220 0 -332 135q-52 61 -81.5 160.5t-29.5 210.5q0 210 69 404q84 234 266 384q163 135 376 135q202 0 313 -121
q45 -48 71 -115.5t26 -135.5q0 -22 -5 -68h-171q1 20 1 26q0 108 -57 184q-65 87 -196 87q-155 0 -284.5 -131.5t-187.5 -348.5z" />
    <glyph glyph-name="afii10054" unicode="&#x405;" 
d="M203 424h164q-7 -49 -7 -83q0 -80 37 -135q61 -91 216 -91q166 0 252 114q50 68 50 158q0 148 -173 219l-168 70q-117 48 -173 125.5t-56 190.5q0 166 106 273q130 132 346 132q192 0 298 -96q92 -84 92 -217q0 -29 -7 -84h-174q7 37 7 61q0 89 -57.5 139.5t-158.5 50.5
q-128 0 -206 -72q-67 -63 -67 -165q0 -72 37.5 -120t120.5 -83l182 -75q124 -52 179.5 -128.5t55.5 -196.5q0 -177 -112 -297q-136 -146 -388 -146q-120 0 -201.5 31t-134.5 97q-71 89 -71 217q0 44 11 111z" />
    <glyph glyph-name="afii10055" unicode="&#x406;" horiz-adv-x="572" 
d="M202 0l290 1365h167l-290 -1365h-167z" />
    <glyph glyph-name="afii10056" unicode="&#x407;" horiz-adv-x="583" 
d="M202 0l290 1365h167l-290 -1365h-167zM836 1655l-41 -194h-143l41 194h143zM581 1655l-42 -194h-143l41 194h144z" />
    <glyph glyph-name="afii10057" unicode="&#x408;" horiz-adv-x="654" 
d="M1 -19l31 147q42 -18 89 -18q136 0 210 124q24 40 38.5 86t41.5 175l185 870h167l-191 -898q-35 -162 -61 -233t-73 -130q-57 -71 -138 -104t-197 -33q-48 0 -102 14z" />
    <glyph glyph-name="afii10058" unicode="&#x409;" horiz-adv-x="1688" 
d="M1290 1365l-119 -561h211q182 0 275 -92q93 -91 93 -252q0 -110 -44 -205t-124 -156q-128 -99 -356 -99h-393l260 1220h-370l-288 -897q-105 -342 -426 -346l30 143q168 10 233 211l332 1034h686zM1031 145h205q87 0 142.5 17t99.5 58q93 86 93 232q0 114 -76 170
q-50 37 -171 37h-184z" />
    <glyph glyph-name="afii10059" unicode="&#x40a;" horiz-adv-x="1779" 
d="M1064 652h-557l-138 -652h-167l290 1365h167l-121 -568h557l120 568h167l-121 -568h212q181 0 275 -91q93 -90 93 -251q0 -109 -44 -203t-123 -154q-128 -98 -357 -98h-392zM1122 145h206q87 0 142.5 17t98.5 57q93 84 93 228q0 113 -76 169q-51 36 -172 36h-184z" />
    <glyph glyph-name="afii10060" unicode="&#x40b;" horiz-adv-x="1186" 
d="M426 0h-167l260 1220h-268l31 145h926l-31 -145h-492l-83 -392q127 143 303 143q121 0 188.5 -62t67.5 -172q0 -61 -14 -125l-130 -612h-152l126 594q14 66 14 118q0 64 -39.5 100t-110.5 36q-154 0 -247 -141q-28 -41 -45.5 -94.5t-41.5 -167.5z" />
    <glyph glyph-name="afii10061" unicode="&#x40c;" horiz-adv-x="1132" 
d="M492 1365h167l-125 -585h91l600 585h174l-652 -635l411 -730h-171l-383 669h-93l-142 -669h-167zM1273 1734l-253 -255h-130l231 255h152z" />
    <glyph glyph-name="afii10062" unicode="&#x40e;" horiz-adv-x="1051" 
d="M538 342l-225 1023h176l166 -832l498 832h187l-630 -1002q-126 -201 -181 -265q-115 -131 -288 -131q-43 0 -106 14l31 147q51 -18 91 -18q104 0 186 96q30 36 95 136zM1128 1748q-12 -92 -41 -142q-75 -131 -246 -131q-112 0 -174 59t-62 166q0 16 3 48h106
q-1 -16 -1 -24q0 -64 36.5 -100.5t101.5 -36.5q70 0 110 38t61 123h106z" />
    <glyph glyph-name="afii10145" unicode="&#x40f;" horiz-adv-x="1322" 
d="M577 0h-375l290 1365h167l-260 -1220h584l260 1220h166l-290 -1365h-375l-44 -205h-166z" />
    <glyph glyph-name="afii10017" unicode="&#x410;" 
d="M779 1365h185l154 -1365h-178l-38 419h-463l-218 -419h-178zM512 560h378l-56 619z" />
    <glyph glyph-name="afii10018" unicode="&#x411;" horiz-adv-x="1150" 
d="M492 1365h762l-31 -145h-595l-88 -416h238q183 0 276 -91q93 -92 93 -253q0 -110 -44 -205t-124 -156q-129 -99 -357 -99h-420zM399 145h233q87 0 143 17t99 58q94 86 94 232q0 114 -76 170q-51 37 -172 37h-211z" />
    <glyph glyph-name="afii10019" unicode="&#x412;" horiz-adv-x="1223" 
d="M202 0l290 1365h432q172 0 255 -71q98 -83 98 -230q0 -134 -70.5 -220.5t-204.5 -116.5q192 -65 192 -283q0 -129 -58 -231q-60 -103 -171 -158t-260 -55h-503zM535 784h229q96 0 150.5 13t97.5 46q89 67 89 195q0 97 -54 139.5t-176 42.5h-243zM399 145h259
q97 0 152.5 12.5t100.5 44.5q112 80 112 236q0 132 -97 181q-34 16 -68 21t-119 5h-233z" />
    <glyph glyph-name="afii10020" unicode="&#x413;" horiz-adv-x="1014" 
d="M492 1365h762l-31 -145h-595l-259 -1220h-167z" />
    <glyph glyph-name="afii10021" unicode="&#x414;" horiz-adv-x="1258" 
d="M1075 145h137l-75 -350h-166l43 205h-842l-43 -205h-167l74 350h26q164 0 232 211l327 1009h713zM908 145l229 1075h-397l-282 -872q-43 -130 -124 -203h574z" />
    <glyph glyph-name="afii10022" unicode="&#x415;" horiz-adv-x="1125" 
d="M202 0l290 1365h789l-31 -145h-622l-95 -447h580l-30 -141h-580l-104 -487h631l-31 -145h-797z" />
    <glyph glyph-name="afii10024" unicode="&#x416;" horiz-adv-x="1746" 
d="M1099 669l-142 -669h-167l142 669h-93l-648 -669h-191l715 730l-376 635h180l339 -585h98l124 585h167l-124 -585h89l588 585h187l-645 -635l404 -730h-181l-367 669h-99z" />
    <glyph glyph-name="afii10025" unicode="&#x417;" horiz-adv-x="1188" 
d="M650 773h120q179 0 266 84q78 75 78 189q0 92 -59 146q-65 61 -184 61q-271 0 -379 -297h-170q55 196 205 319q147 121 358 121q158 0 264 -68q145 -93 145 -281q0 -142 -89.5 -237t-245.5 -118q88 -33 131 -80q69 -77 69 -201q0 -217 -173 -345q-133 -99 -337 -99
q-211 0 -324 108q-116 111 -116 325q0 45 9 115h170q-7 -61 -7 -99q0 -306 277 -306q149 0 240 92q83 83 83 206q0 107 -67.5 165.5t-189.5 58.5h-104z" />
    <glyph glyph-name="afii10026" unicode="&#x418;" horiz-adv-x="1331" 
d="M492 1365h153l-222 -1043l826 966l17 77h152l-290 -1365h-153l222 1040l-824 -953l-18 -87h-153z" />
    <glyph glyph-name="afii10027" unicode="&#x419;" horiz-adv-x="1331" 
d="M492 1365h153l-222 -1043l826 966l17 77h152l-290 -1365h-153l222 1040l-824 -953l-18 -87h-153zM1297 1748q-12 -92 -41 -142q-75 -131 -246 -131q-112 0 -174 59t-62 166q0 16 3 48h106q-1 -16 -1 -24q0 -64 36.5 -100.5t101.5 -36.5q70 0 110 38t61 123h106z" />
    <glyph glyph-name="afii10028" unicode="&#x41a;" horiz-adv-x="1165" 
d="M492 1365h167l-125 -585h91l600 585h174l-652 -635l411 -730h-171l-383 669h-93l-142 -669h-167z" />
    <glyph glyph-name="afii10029" unicode="&#x41b;" horiz-adv-x="1230" 
d="M723 1220l-288 -897q-106 -342 -426 -346l30 143q168 11 233 211l332 1034h713l-290 -1365h-167l260 1220h-397z" />
    <glyph glyph-name="afii10030" unicode="&#x41c;" horiz-adv-x="1558" 
d="M202 0l290 1365h217l116 -1152l593 1152h228l-291 -1365h-152l247 1164l-585 -1164h-166l-106 1141l-242 -1141h-149z" />
    <glyph glyph-name="afii10031" unicode="&#x41d;" horiz-adv-x="1322" 
d="M202 0l290 1365h167l-122 -574h583l123 574h166l-290 -1365h-167l137 646h-583l-137 -646h-167z" />
    <glyph glyph-name="afii10032" unicode="&#x41e;" horiz-adv-x="1364" 
d="M951 1396q210 0 331 -132q66 -73 99 -190q26 -89 26 -186q0 -156 -46 -316.5t-127 -286.5q-205 -318 -532 -318q-237 0 -354 159q-101 137 -101 356q0 208 74 403q93 248 280 392q157 119 350 119zM936 1250q-216 0 -369 -242q-145 -228 -145 -535q0 -187 85 -279
q77 -84 196 -84q226 0 381 249q68 110 107.5 252.5t39.5 278.5q0 182 -88 280q-73 80 -207 80z" />
    <glyph glyph-name="afii10033" unicode="&#x41f;" horiz-adv-x="1322" 
d="M1409 1365l-290 -1365h-167l260 1220h-584l-259 -1220h-167l290 1365h917z" />
    <glyph glyph-name="afii10034" unicode="&#x420;" horiz-adv-x="1144" 
d="M202 0l290 1365h406q182 0 275 -91q93 -92 93 -252q0 -110 -44 -205t-124 -156q-129 -99 -357 -99h-253l-119 -562h-167zM519 707h233q86 0 142 17t99 57q94 86 94 232q0 114 -76 170q-50 37 -172 37h-211z" />
    <glyph glyph-name="afii10035" unicode="&#x421;" horiz-adv-x="1278" 
d="M1109 515h170q-51 -198 -149 -326q-169 -222 -440 -222q-220 0 -332 135q-52 61 -81.5 161t-29.5 211q0 209 69 403q84 234 266 384q163 135 376 135q202 0 313 -121q45 -48 71 -115.5t26 -135.5q0 -22 -5 -68h-171q1 20 1 26q0 108 -57 184q-64 87 -196 87
q-224 0 -377 -256q-65 -108 -102 -250t-37 -281q0 -180 79 -274q68 -82 194 -82q141 0 246 103.5t166 301.5z" />
    <glyph glyph-name="afii10036" unicode="&#x422;" horiz-adv-x="927" 
d="M371 0l260 1220h-380l31 145h926l-31 -145h-380l-259 -1220h-167z" />
    <glyph glyph-name="afii10037" unicode="&#x423;" horiz-adv-x="1051" 
d="M538 342l-225 1023h176l166 -832l498 832h187l-630 -1002q-126 -201 -181 -265q-115 -131 -288 -131q-43 0 -106 14l31 147q51 -18 91 -18q104 0 186 96q30 36 95 136z" />
    <glyph glyph-name="afii10038" unicode="&#x424;" horiz-adv-x="1647" 
d="M1163 1207q248 -8 389 -130.5t141 -331.5q0 -226 -156 -383q-195 -197 -597 -205l-34 -157h-166l33 157q-248 22 -379 133q-151 128 -151 345q0 122 54 231.5t152 183.5q204 156 547 157l34 158h166zM970 301q223 3 365 89q182 110 182 348q0 312 -385 322zM965 1060
q-224 -1 -363 -87q-86 -53 -135 -145t-49 -199q0 -181 143 -267q97 -58 242 -61z" />
    <glyph glyph-name="afii10039" unicode="&#x425;" horiz-adv-x="1069" 
d="M37 0l549 699l-234 666h188l166 -528l403 528h190l-517 -657l249 -708h-190l-182 560l-429 -560h-193z" />
    <glyph glyph-name="afii10040" unicode="&#x426;" horiz-adv-x="1333" 
d="M1150 145h136l-74 -350h-167l44 205h-887l290 1365h167l-260 -1220h584l260 1220h166z" />
    <glyph glyph-name="afii10041" unicode="&#x427;" horiz-adv-x="1240" 
d="M997 594q-130 -118 -317 -118q-194 0 -298 115q-76 83 -76 218q0 62 24 177l81 379h165l-83 -387q-17 -82 -17 -133q0 -84 36 -137q60 -88 201 -88q144 0 232 87q39 39 75 100t45 105l96 453h167l-290 -1365h-167z" />
    <glyph glyph-name="afii10042" unicode="&#x428;" horiz-adv-x="1799" 
d="M1596 0h-1394l290 1365h167l-260 -1220h448l259 1220h167l-260 -1220h447l260 1220h166z" />
    <glyph glyph-name="afii10043" unicode="&#x429;" horiz-adv-x="1810" 
d="M1627 145h136l-74 -350h-167l44 205h-1364l290 1365h167l-260 -1220h448l259 1220h167l-260 -1220h447l260 1220h166z" />
    <glyph glyph-name="afii10044" unicode="&#x42a;" horiz-adv-x="1285" 
d="M623 1220h-349l31 145h515l-119 -561h239q182 0 275 -91q93 -92 93 -253q0 -110 -44 -205t-124 -156q-128 -99 -357 -99h-420zM561 145h233q86 0 142 17t99 58q94 86 94 232q0 114 -76 170q-51 37 -172 37h-211z" />
    <glyph glyph-name="afii10045" unicode="&#x42b;" horiz-adv-x="1541" 
d="M1172 0l290 1365h167l-291 -1365h-166zM492 1365h167l-119 -561h238q183 0 276 -91q93 -92 93 -253q0 -110 -44 -205t-124 -156q-129 -99 -357 -99h-420zM399 145h233q87 0 143 17t99 58q94 86 94 232q0 114 -76 170q-51 37 -172 37h-211z" />
    <glyph glyph-name="afii10046" unicode="&#x42c;" horiz-adv-x="1125" 
d="M492 1365h167l-119 -561h238q183 0 276 -91q93 -92 93 -253q0 -110 -44 -205t-124 -156q-129 -99 -357 -99h-420zM399 145h233q87 0 143 17t99 58q94 86 94 232q0 114 -76 170q-51 37 -172 37h-211z" />
    <glyph glyph-name="afii10047" unicode="&#x42d;" horiz-adv-x="1276" 
d="M1136 773q7 56 7 115q0 188 -81 284q-69 82 -198 82t-225 -77t-147 -221h-170q45 166 161 279q167 162 383 162q230 0 344 -150q51 -66 79.5 -161t28.5 -197q0 -190 -63 -384q-85 -260 -268 -409q-158 -129 -368 -129q-229 0 -332 152q-78 115 -78 280q0 47 9 116h170
q-7 -61 -7 -99q0 -103 34 -179q57 -126 215 -126q161 0 285 134.5t194 386.5h-489l30 141h486z" />
    <glyph glyph-name="afii10048" unicode="&#x42e;" horiz-adv-x="1858" 
d="M752 646h-246l-137 -646h-167l290 1365h167l-122 -574h245q53 192 167 340q205 265 494 265q213 0 332 -132q58 -65 91.5 -165.5t33.5 -210.5q0 -155 -46.5 -316t-126.5 -287q-205 -318 -533 -318q-236 0 -353 160q-101 137 -101 358q0 77 12 161zM1429 1250
q-216 0 -369 -242q-145 -228 -145 -534q0 -186 85 -279q77 -84 196 -84q226 0 381 249q68 110 107.5 252.5t39.5 278.5q0 181 -88 279q-72 80 -207 80z" />
    <glyph glyph-name="afii10049" unicode="&#x42f;" horiz-adv-x="1239" 
d="M1037 0h-167l126 592h-242q-99 0 -156 -19.5t-93 -64.5q-41 -52 -64.5 -116t-81.5 -277q-19 -72 -54 -115h-190q43 36 69.5 98.5t86.5 265.5q71 276 269 311q-182 69 -182 293q0 186 124 292q122 105 364 105h481zM1026 735l104 485h-267q-167 0 -239 -54
q-94 -71 -94 -209q0 -117 76 -175q34 -26 77 -36.5t116 -10.5h227z" />
    <glyph glyph-name="afii10065" unicode="&#x430;" horiz-adv-x="975" 
d="M950 115l-25 -118q-49 -15 -82 -15q-60 0 -97 32.5t-37 85.5q0 12 3 35q-145 -164 -330 -164q-118 0 -185 65q-64 62 -64 160q0 105 65.5 188t181.5 126q70 25 156 35.5t266 14.5l19 88q9 42 9 68q0 131 -178 131q-95 0 -146.5 -32.5t-73.5 -106.5l-164 -1
q27 126 127 195t255 69q136 0 221 -49q106 -60 106 -186q0 -43 -25 -161l-76 -356q-10 -49 -10 -63q0 -46 48 -46q13 0 36 5zM781 458q-192 -7 -290 -32q-94 -23 -147 -77.5t-53 -127.5q0 -59 36 -93t98 -34q145 0 253 127q70 83 92 185z" />
    <glyph glyph-name="afii10066" unicode="&#x431;" horiz-adv-x="1037" 
d="M486 898q105 73 238 73q142 0 236 -84q107 -96 107 -284q0 -134 -49 -266q-66 -177 -190.5 -271.5t-292.5 -94.5q-170 0 -264 92q-101 98 -101 272q0 156 62 344.5t157 322.5q80 113 178.5 174t250.5 93q75 16 98.5 25.5t40.5 30.5q26 31 40 113h129q-17 -136 -74 -195.5
t-200 -91.5q-115 -26 -169.5 -49.5t-102.5 -70.5q-59 -57 -94 -133zM700 848q-171 0 -281 -173q-93 -147 -93 -339q0 -141 81 -202q54 -40 134 -40q153 0 256 145q51 72 81.5 171.5t30.5 195.5q0 137 -77 198q-53 44 -132 44z" />
    <glyph glyph-name="afii10067" unicode="&#x432;" horiz-adv-x="960" 
d="M418 431l-65 -304h209q102 0 154 36q73 50 73 141q0 67 -42 97t-134 30h-195zM785 496q65 -20 97 -48q61 -53 61 -148q0 -72 -33 -135t-91 -104q-51 -35 -109.5 -48t-163.5 -13h-384l200 942h363q154 0 217 -51q68 -54 68 -150q0 -91 -57 -153t-168 -92zM488 815
l-55 -257h227q85 0 135.5 41t50.5 110q0 106 -151 106h-207z" />
    <glyph glyph-name="afii10068" unicode="&#x433;" horiz-adv-x="763" 
d="M488 815l-173 -815h-153l200 942h606l-27 -127h-453z" />
    <glyph glyph-name="afii10069" unicode="&#x434;" horiz-adv-x="1060" 
d="M443 942h639l-174 -815h116l-71 -332h-152l43 205h-707l-43 -205h-153l71 332h20q76 0 120 42t80 150zM276 127h480l146 688h-330l-168 -474q-51 -144 -128 -214z" />
    <glyph glyph-name="afii10070" unicode="&#x435;" horiz-adv-x="997" 
d="M1001 431h-658q-11 -58 -11 -99q0 -100 46 -159q62 -79 173 -79q132 0 225 131h169q-132 -254 -402 -254q-163 0 -257 86q-114 105 -114 294q0 120 39 237t107 201q147 182 367 182q174 0 261 -95q82 -91 82 -234q0 -83 -27 -211zM862 554q8 51 8 82q0 92 -41 147
q-48 65 -150 65q-128 0 -219 -117q-54 -71 -88 -177h490z" />
    <glyph glyph-name="afii10072" unicode="&#x436;" horiz-adv-x="1314" 
d="M845 544h65l419 399h185l-481 -446l306 -497h-170l-274 446h-71l-95 -446h-152l94 446h-82l-445 -446h-179l513 510l-285 432h172l248 -398h79l85 398h152z" />
    <glyph glyph-name="afii10073" unicode="&#x437;" horiz-adv-x="894" 
d="M368 644h-164q35 129 114 207q121 120 316 120q148 0 243 -61q98 -62 98 -180q0 -92 -54 -153t-154 -82q134 -54 134 -196q0 -125 -90 -214q-115 -114 -324 -114q-192 0 -282 108q-75 88 -75 213q0 15 2 44h163q-2 -29 -2 -43q0 -96 51 -147.5t147 -51.5q106 0 175 53
q79 61 79 148q0 136 -186 136h-92l27 127h89q89 0 145 28q87 43 87 133q0 63 -48 95q-52 34 -138 34q-126 0 -195 -77q-40 -46 -66 -127z" />
    <glyph glyph-name="afii10074" unicode="&#x438;" horiz-adv-x="1069" 
d="M954 942h152l-200 -942h-153l144 676l-571 -621l-11 -55h-153l200 942h153l-144 -676l571 621z" />
    <glyph glyph-name="afii10075" unicode="&#x439;" horiz-adv-x="1069" 
d="M954 942h152l-200 -942h-153l144 676l-571 -621l-11 -55h-153l200 942h153l-144 -676l571 621zM1060 1365q-35 -273 -266 -273q-104 0 -163 56.5t-59 155.5q0 22 3 61h102q-1 -17 -1 -25q0 -66 34 -103t95 -37q127 0 153 165h102z" />
    <glyph glyph-name="afii10076" unicode="&#x43a;" horiz-adv-x="946" 
d="M162 0l200 942h153l-85 -398h66l415 399h193l-478 -443l302 -500h-171l-266 446h-82l-95 -446h-152z" />
    <glyph glyph-name="afii10077" unicode="&#x43b;" horiz-adv-x="1028" 
d="M1066 942l-201 -942h-152l173 815h-324l-170 -489q-71 -205 -173 -274q-46 -31 -92 -42.5t-138 -14.5l25 116q80 2 126 43q48 41 84 150l212 638h630z" />
    <glyph glyph-name="afii10078" unicode="&#x43c;" horiz-adv-x="1288" 
d="M671 149l441 793h213l-200 -942h-144l165 776l-435 -776h-143l-98 776l-165 -776h-143l200 942h221z" />
    <glyph glyph-name="afii10079" unicode="&#x43d;" horiz-adv-x="1069" 
d="M406 431l-91 -431h-153l200 942h153l-82 -384h439l82 384h152l-200 -942h-153l92 431h-439z" />
    <glyph glyph-name="afii10080" unicode="&#x43e;" horiz-adv-x="1034" 
d="M709 971q155 0 250 -84q108 -94 108 -283q0 -135 -49 -267q-77 -209 -237 -303q-107 -63 -244 -63q-172 0 -266 92q-101 98 -101 269q0 117 35.5 232t97.5 199q153 208 406 208zM700 848q-171 0 -281 -173q-93 -147 -93 -339q0 -141 81 -202q54 -40 134 -40
q153 0 256 145q51 72 81.5 171.5t30.5 195.5q0 137 -77 198q-53 44 -132 44z" />
    <glyph glyph-name="afii10081" unicode="&#x43f;" horiz-adv-x="1069" 
d="M488 815l-173 -815h-153l200 942h744l-200 -942h-153l174 815h-439z" />
    <glyph glyph-name="afii10082" unicode="&#x440;" horiz-adv-x="1093" 
d="M88 -355l276 1297h153l-25 -114q119 143 300 143q151 0 238 -88q43 -44 68.5 -116t25.5 -151q0 -126 -41.5 -251t-110.5 -210q-150 -184 -367 -184q-189 0 -266 138l-98 -464h-153zM768 848q-80 0 -152.5 -45t-122.5 -126q-42 -68 -67 -163.5t-25 -184.5q0 -129 74 -190
q55 -45 131 -45q159 0 262 163q98 153 98 342q0 131 -65 197q-51 52 -133 52z" />
    <glyph glyph-name="afii10083" unicode="&#x441;" horiz-adv-x="962" 
d="M806 336h164q-25 -110 -107 -206q-136 -159 -342 -159q-166 0 -256 94q-96 99 -96 269q0 120 34.5 234t96.5 196q155 207 401 207q155 0 242 -79q88 -81 88 -212q0 -16 -1 -36h-166q-1 63 -10 92q-38 112 -166 112q-165 0 -273 -178q-90 -149 -90 -338q0 -112 54 -175
t149 -63q125 0 213 114q40 51 65 128z" />
    <glyph glyph-name="afii10084" unicode="&#x442;" horiz-adv-x="697" 
d="M598 815l-174 -815h-152l173 815h-265l27 127h683l-27 -127h-265z" />
    <glyph glyph-name="afii10085" unicode="&#x443;" horiz-adv-x="859" 
d="M25 -340l28 132q12 -4 18 -7q36 -14 65 -14q86 0 140 89l90 150l-154 932h174l95 -731l393 731h172l-598 -1043q-76 -133 -131 -182q-79 -72 -191 -72q-44 0 -101 15z" />
    <glyph glyph-name="afii10086" unicode="&#x444;" horiz-adv-x="1368" 
d="M928 800q102 171 261 171q79 0 132 -49q103 -94 103 -285q0 -120 -35.5 -246.5t-96.5 -219.5q-66 -102 -156 -154q-78 -46 -157 -46q-70 0 -115.5 36.5t-78.5 120.5l-103 -483h-145l102 481q-41 -67 -76 -96q-68 -59 -159 -59q-118 0 -190 93q-67 86 -67 240
q0 120 34 242t93 216q63 98 147.5 153.5t173.5 55.5q73 0 118 -41.5t69 -131.5l121 567h145zM599 848q-56 3 -111.5 -43.5t-98.5 -131.5q-40 -77 -64 -182t-24 -199q0 -92 37 -145t101 -53q108 0 191 146q45 80 74 194t29 212q0 90 -36 144.5t-98 57.5zM1135 848
q-117 0 -203 -162q-43 -80 -68 -187.5t-25 -208.5q0 -92 35 -144t97 -52q119 0 205 162q41 77 67.5 186.5t26.5 200.5q0 103 -43 159q-35 46 -92 46z" />
    <glyph glyph-name="afii10087" unicode="&#x445;" horiz-adv-x="873" 
d="M12 0l434 496l-209 446h184l136 -328l280 328h185l-394 -433l230 -509h-184l-161 381l-315 -381h-186z" />
    <glyph glyph-name="afii10088" unicode="&#x446;" horiz-adv-x="1083" 
d="M931 127h118l-71 -332h-154l43 205h-705l200 942h153l-173 -815h436l174 815h152z" />
    <glyph glyph-name="afii10089" unicode="&#x447;" horiz-adv-x="999" 
d="M776 431q-104 -89 -260 -89q-144 0 -228 77q-64 59 -64 153q0 45 16 119l53 251h153l-57 -267q-8 -36 -8 -65q0 -66 48.5 -105.5t129.5 -39.5q129 0 205 87q49 57 65 130l55 260h153l-200 -942h-153z" />
    <glyph glyph-name="afii10090" unicode="&#x448;" horiz-adv-x="1420" 
d="M815 127h307l173 815h162l-200 -942h-1095l200 942h153l-173 -815h311l174 815h161z" />
    <glyph glyph-name="afii10091" unicode="&#x449;" horiz-adv-x="1439" 
d="M1220 0h-1058l200 942h153l-173 -815h313l173 815h162l-173 -815h309l173 815h162l-174 -815h112l-70 -332h-153z" />
    <glyph glyph-name="afii10092" unicode="&#x44a;" horiz-adv-x="973" 
d="M426 815h-267l27 127h419l-78 -369h179q137 0 207 -40q110 -63 110 -211q0 -85 -39.5 -154.5t-110.5 -108.5q-62 -35 -124 -47t-179 -12h-318zM500 446l-68 -319h168q122 0 185 40q80 50 80 143q0 136 -193 136h-172z" />
    <glyph glyph-name="afii10093" unicode="&#x44b;" horiz-adv-x="1303" 
d="M987 0l201 942h152l-200 -942h-153zM162 0l200 942h153l-79 -369h180q137 0 206 -40q111 -63 111 -211q0 -85 -39.5 -154.5t-110.5 -108.5q-62 -35 -124 -47t-179 -12h-318zM409 446l-67 -319h168q122 0 185 40q80 50 80 143q0 136 -193 136h-173z" />
    <glyph glyph-name="afii10094" unicode="&#x44c;" horiz-adv-x="884" 
d="M162 0l200 942h153l-79 -369h180q137 0 206 -40q111 -63 111 -211q0 -85 -39.5 -154.5t-110.5 -108.5q-62 -35 -124 -47t-179 -12h-318zM409 446l-67 -319h168q122 0 185 40q80 50 80 143q0 136 -193 136h-173z" />
    <glyph glyph-name="afii10095" unicode="&#x44d;" horiz-adv-x="962" 
d="M823 558q3 22 3 44q0 107 -46 169q-57 77 -168 77q-180 0 -244 -204h-164q35 129 114 207q121 120 306 120q187 0 284 -118q82 -100 82 -245q0 -115 -36 -231t-100 -204q-145 -202 -377 -202q-182 0 -272 108q-75 88 -75 213q0 15 2 44h163q-2 -29 -2 -43
q0 -94 50 -146.5t139 -52.5q108 0 193.5 90.5t124.5 246.5h-335l27 127h331z" />
    <glyph glyph-name="afii10096" unicode="&#x44e;" horiz-adv-x="1414" 
d="M555 431h-149l-91 -431h-153l200 942h153l-82 -384h150q33 114 99 205q152 208 406 208q156 0 250 -83q108 -96 108 -284q0 -135 -49 -268q-66 -176 -190.5 -270.5t-291.5 -94.5q-171 0 -265 92q-101 97 -101 279q0 45 6 89zM1079 848q-171 0 -281 -173
q-93 -147 -93 -339q0 -141 81 -202q54 -40 134 -40q153 0 256 145q51 72 81.5 171.5t30.5 195.5q0 136 -77 198q-53 44 -132 44z" />
    <glyph glyph-name="afii10097" unicode="&#x44f;" horiz-adv-x="988" 
d="M1026 942l-201 -942h-152l78 369h-162q-111 0 -155.5 -40.5t-81.5 -175.5q-34 -125 -59 -153h-182q28 22 43.5 58.5t55.5 166.5q20 66 38.5 98.5t50.5 57.5q48 36 122 46q-98 36 -129 90q-29 52 -29 119q0 80 39.5 146t110.5 104q62 33 124 44.5t179 11.5h310zM778 496
l68 319h-160q-122 0 -185 -40q-80 -50 -80 -143q0 -136 193 -136h164z" />
    <glyph glyph-name="afii10071" unicode="&#x451;" horiz-adv-x="997" 
d="M1000 1297l-40 -191h-152l40 191h152zM692 1297l-41 -191h-143l40 191h144zM1001 431h-658q-11 -58 -11 -99q0 -100 46 -159q62 -79 173 -79q132 0 225 131h169q-132 -254 -402 -254q-163 0 -257 86q-114 105 -114 294q0 120 39 237t107 201q147 182 367 182
q174 0 261 -95q82 -91 82 -234q0 -83 -27 -211zM862 554q8 51 8 82q0 92 -41 147q-48 65 -150 65q-128 0 -219 -117q-54 -71 -88 -177h490z" />
    <glyph glyph-name="afii10099" unicode="&#x452;" horiz-adv-x="1006" 
d="M495 828q118 143 275 143q113 0 175 -66q90 -96 90 -269q0 -187 -67 -379.5t-172 -306.5q-137 -150 -328 -150q-39 0 -80 16l28 131q39 -18 77 -18q120 0 209 129q78 111 126 285q44 161 44 286q0 219 -159 219q-106 0 -186 -94q-43 -49 -65.5 -109t-52.5 -200l-94 -445
h-153l242 1140h-120l24 112h120l24 113h153l-24 -113h259l-24 -112h-255z" />
    <glyph glyph-name="afii10100" unicode="&#x453;" horiz-adv-x="763" 
d="M488 815l-173 -815h-153l200 942h606l-27 -127h-453zM979 1365l-237 -273h-130l221 273h146z" />
    <glyph glyph-name="afii10101" unicode="&#x454;" horiz-adv-x="962" 
d="M363 558h344l-27 -127h-348q-7 -50 -7 -99q0 -112 53.5 -175t149.5 -63q125 0 213 114q40 51 65 128h164q-25 -110 -107 -206q-136 -159 -342 -159q-166 0 -256 94q-96 99 -96 269q0 120 34.5 234t96.5 196q155 207 401 207q155 0 242 -79q88 -81 88 -212q0 -16 -1 -36
h-166q-1 63 -10 92q-38 112 -166 112q-105 0 -192 -78t-133 -212z" />
    <glyph glyph-name="afii10102" unicode="&#x455;" horiz-adv-x="913" 
d="M158 266h166q-5 -27 -5 -41q0 -59 44.5 -93t121.5 -34q89 0 146 44q60 45 60 115q0 67 -86 115l-178 98q-150 84 -150 229q0 124 92.5 198t247.5 74q140 0 220 -57t80 -160q0 -22 -4 -55h-160q3 24 3 38q0 54 -39 83.5t-109 29.5q-76 0 -122.5 -36t-46.5 -95
q0 -68 86 -116l204 -115q143 -81 143 -210q0 -140 -106 -223.5t-283 -83.5q-187 0 -269 85q-61 62 -61 158q0 17 5 52z" />
    <glyph glyph-name="afii10103" unicode="&#x456;" horiz-adv-x="477" 
d="M408 1157l44 208h162l-44 -208h-162zM162 0l200 942h153l-200 -942h-153z" />
    <glyph glyph-name="afii10104" unicode="&#x457;" horiz-adv-x="477" 
d="M162 0l200 942h153l-200 -942h-153zM719 1297l-40 -191h-144l41 191h143zM477 1297l-41 -191h-143l40 191h144z" />
    <glyph glyph-name="afii10105" unicode="&#x458;" horiz-adv-x="478" 
d="M-55 -349l28 131q31 -8 54 -8q88 0 114 125l222 1043h152l-217 -1022q-28 -131 -81 -192q-72 -83 -203 -83q-29 0 -69 6zM409 1157l44 208h162l-45 -208h-161z" />
    <glyph glyph-name="afii10106" unicode="&#x459;" horiz-adv-x="1354" 
d="M1027 942l-79 -369h153q136 0 206 -40q110 -63 110 -211q0 -85 -39.5 -154.5t-110.5 -108.5q-62 -35 -124 -47t-178 -12h-291l173 815h-293l-170 -489q-71 -205 -172 -274q-46 -31 -92 -42.5t-137 -14.5l25 116q80 2 126 43q47 41 83 150l212 638h598zM921 446l-67 -319
h141q122 0 185 40q79 50 79 143q0 136 -192 136h-146z" />
    <glyph glyph-name="afii10107" unicode="&#x45a;" horiz-adv-x="1400" 
d="M840 565l80 377h153l-80 -377h152q137 0 206 -39q111 -63 111 -210q0 -83 -39 -151t-110 -107q-62 -34 -124 -46t-178 -12h-291l93 438h-405l-93 -438h-153l200 942h153l-80 -377h405zM966 438l-66 -311h141q121 0 184 39q79 48 79 139q0 133 -193 133h-145z" />
    <glyph glyph-name="afii10108" unicode="&#x45b;" horiz-adv-x="1054" 
d="M423 1252l24 113h153l-24 -113h267l-24 -112h-267l-67 -312q127 143 303 143q121 0 188.5 -62t67.5 -172q0 -64 -13 -125l-130 -612h-153l126 594q14 63 14 118q0 64 -39.5 100t-110.5 36q-154 0 -247 -141q-27 -41 -45 -94t-42 -168l-94 -445h-153l242 1140h-115l23 112
h116z" />
    <glyph glyph-name="afii10109" unicode="&#x45c;" horiz-adv-x="946" 
d="M1063 1365l-251 -273h-140l234 273h157zM162 0l200 942h153l-85 -398h66l415 399h193l-478 -443l302 -500h-171l-266 446h-82l-95 -446h-152z" />
    <glyph glyph-name="afii10110" unicode="&#x45e;" horiz-adv-x="859" 
d="M25 -340l28 132q12 -4 18 -7q36 -14 65 -14q86 0 140 89l90 150l-154 932h174l95 -731l393 731h172l-598 -1043q-76 -133 -131 -182q-79 -72 -191 -72q-44 0 -101 15zM933 1365q-35 -273 -266 -273q-104 0 -163 56.5t-59 155.5q0 22 3 61h102q-1 -17 -1 -25
q0 -66 34 -103t95 -37q127 0 153 165h102z" />
    <glyph glyph-name="afii10193" unicode="&#x45f;" horiz-adv-x="1069" 
d="M611 0l-43 -205h-155l44 205h-295l200 942h153l-173 -815h438l174 815h152l-200 -942h-295z" />
    <glyph glyph-name="afii10050" unicode="&#x490;" horiz-adv-x="1040" 
d="M1280 1488l-57 -268h-595l-259 -1220h-167l290 1365h595l26 123h167z" />
    <glyph glyph-name="afii10098" unicode="&#x491;" horiz-adv-x="763" 
d="M991 1051l-50 -236h-453l-173 -815h-153l200 942h444l23 109h162z" />
    <glyph glyph-name="uni0492" unicode="&#x492;" horiz-adv-x="1022" 
d="M374 773l126 592h762l-31 -145h-595l-95 -447h342l-28 -132h-342l-136 -641h-167l136 641h-131l28 132h131z" />
    <glyph glyph-name="uni0493" unicode="&#x493;" horiz-adv-x="763" 
d="M283 565l80 377h606l-27 -127h-453l-53 -250h270l-25 -115h-270l-96 -450h-152l96 450h-128l25 115h127z" />
    <glyph glyph-name="uni0496" unicode="&#x496;" horiz-adv-x="1747" 
d="M1624 0h-59l-367 669h-99l-142 -669h-167l142 669h-93l-648 -669h-191l715 730l-376 635h180l339 -585h98l124 585h167l-124 -585h89l588 585h187l-645 -635l323 -585h156l-74 -350h-167z" />
    <glyph glyph-name="uni0497" unicode="&#x497;" horiz-adv-x="1328" 
d="M1261 127h148l-70 -332h-148l44 205h-66l-274 446h-71l-95 -446h-152l94 446h-82l-445 -446h-179l513 510l-285 432h172l248 -398h79l85 398h152l-84 -398h65l419 399h185l-481 -446z" />
    <glyph glyph-name="uni049A" unicode="&#x49a;" horiz-adv-x="1203" 
d="M1073 145h155l-74 -350h-167l44 205h-83l-290 668l-183 -167l-106 -501h-167l290 1365h167l-137 -645l688 645h206l-626 -575z" />
    <glyph glyph-name="uni049B" unicode="&#x49b;" horiz-adv-x="987" 
d="M852 127h143l-71 -332h-154l44 205v1h-57l-266 445h-82l-95 -446h-152l200 942h153l-85 -398h66l415 399h193l-478 -443z" />
    <glyph glyph-name="uni049C" unicode="&#x49c;" horiz-adv-x="1384" 
d="M646 669h-135l-142 -669h-167l290 1365h167l-125 -585h136l69 327h137l-70 -327h70l601 585h174l-652 -635l410 -730h-171l-383 669h-72l-70 -327h-136z" />
    <glyph glyph-name="uni049D" unicode="&#x49d;" horiz-adv-x="1070" 
d="M635 446l-50 -235h-116l49 235h-109l-95 -446h-152l200 942h153l-85 -398h109l49 230h117l-49 -230h60l1 3l335 396h176l-401 -449l241 -494h-163l-209 446h-61z" />
    <glyph glyph-name="uni04A2" unicode="&#x4a2;" horiz-adv-x="1333" 
d="M202 0l290 1365h167l-122 -574h583l123 574h166l-259 -1220h136l-74 -350h-167l44 205h-137l137 646h-583l-137 -646h-167z" />
    <glyph glyph-name="uni04A3" unicode="&#x4a3;" horiz-adv-x="1085" 
d="M406 431l-91 -431h-153l200 942h153l-82 -384h439l82 384h152l-173 -815h118l-71 -332h-154l43 205h-116l92 431h-439z" />
    <glyph glyph-name="uni04AE" unicode="&#x4ae;" horiz-adv-x="1068" 
d="M452 0l119 560l-270 805h191l198 -643l466 643h191l-609 -805l-119 -560h-167z" />
    <glyph glyph-name="uni04AF" unicode="&#x4af;" horiz-adv-x="839" 
d="M501 0l-76 -355h-152l75 355l-135 942h169l77 -773l395 773l173 -1z" />
    <glyph glyph-name="uni04B0" unicode="&#x4b0;" horiz-adv-x="1030" 
d="M521 428h-234l28 132h234l-270 805h191l198 -643l466 643h191l-609 -805h239l-29 -132h-238l-91 -428h-167z" />
    <glyph glyph-name="uni04B1" unicode="&#x4b1;" horiz-adv-x="839" 
d="M476 -115l-51 -240h-153l51 240h-196l25 115h196l-135 942h168l78 -773l395 773l173 -1l-526 -941h201l-25 -115h-201z" />
    <glyph glyph-name="uni04B2" unicode="&#x4b2;" horiz-adv-x="1114" 
d="M980 145h154l-75 -350h-166l43 205h-95l-182 560l-429 -560h-193l549 699l-234 666h188l166 -528l403 528h190l-517 -658z" />
    <glyph glyph-name="uni04B3" unicode="&#x4b3;" horiz-adv-x="891" 
d="M800 127h126l-71 -332h-154l44 205h-71l-161 381l-315 -381h-186l434 496l-209 446h184l136 -328l280 328h185l-394 -433z" />
    <glyph glyph-name="uni04B8" unicode="&#x4b8;" horiz-adv-x="1240" 
d="M794 628q62 14 111 46q56 37 104 115q45 72 56 123l96 453h167l-290 -1365h-167l126 594q-100 -90 -234 -112l-57 -269h-137l57 266q-115 13 -190 64q-130 88 -130 266q0 62 24 177l81 379h165l-83 -387q-17 -81 -17 -133q0 -190 181 -221l54 257h137z" />
    <glyph glyph-name="uni04B9" unicode="&#x4b9;" horiz-adv-x="999" 
d="M623 471q78 15 133.5 72t72.5 140l55 259h153l-200 -942h-153l92 431q-74 -64 -178 -82l-43 -202h-117l42 196q-63 5 -116 28q-140 60 -140 201q0 45 16 120l53 250h153l-57 -266q-8 -37 -8 -66q0 -112 126 -140l40 191h117z" />
    <glyph glyph-name="uni04BA" unicode="&#x4ba;" horiz-adv-x="1216" 
d="M533 771q31 28 49 40q109 78 268 78q194 0 298 -115q76 -83 76 -218q0 -62 -24 -177l-81 -379h-165l83 387q17 81 17 133q0 83 -36 137q-60 88 -201 88q-144 0 -232 -87q-39 -39 -75 -100t-45 -105l-96 -453h-167l290 1365h167z" />
    <glyph glyph-name="uni04BB" unicode="&#x4bb;" horiz-adv-x="1060" 
d="M162 0l290 1365h153l-115 -537q127 143 303 143q121 0 188.5 -62t67.5 -172q0 -64 -13 -125l-130 -612h-153l126 594q14 63 14 118q0 64 -39.5 100t-110.5 36q-154 0 -247 -141q-27 -41 -45 -94t-42 -168l-94 -445h-153z" />
    <glyph glyph-name="uni04C0" unicode="&#x4c0;" horiz-adv-x="572" 
d="M202 0l290 1365h167l-290 -1365h-167z" />
    <glyph glyph-name="uni04D8" unicode="&#x4d8;" horiz-adv-x="1364" 
d="M455 1101q45 85 96 138q154 158 392 158q211 0 334 -129q69 -73 104 -193q26 -89 26 -186q0 -156 -46 -316.5t-127 -287.5q-205 -318 -533 -318q-236 0 -353 160q-101 136 -101 363q0 118 33 265h941q10 69 10 134q0 193 -94 284q-81 78 -213 78q-176 0 -266 -150h-203z
M1191 610h-761q-8 -67 -8 -133q0 -190 85 -282q77 -84 196 -84q162 0 290.5 131.5t197.5 367.5z" />
    <glyph glyph-name="afii10846" unicode="&#x4d9;" horiz-adv-x="995" 
d="M198 511h659q11 58 11 100q0 99 -46 159q-62 79 -179 79q-107 0 -186 -73h-172q58 95 153.5 145t215.5 50q166 0 260 -86q114 -105 114 -294q0 -120 -39 -236.5t-107 -201.5q-147 -182 -367 -182q-174 0 -261 95q-82 91 -82 234q0 83 26 211zM337 388q-7 -51 -7 -82
q0 -92 41 -147q49 -65 149 -65q129 0 219 117q54 71 88 177h-490z" />
    <glyph glyph-name="uni04E8" unicode="&#x4e8;" horiz-adv-x="1364" 
d="M458 755h763q10 69 10 132q0 188 -88 284q-73 80 -207 80q-216 0 -369 -242q-69 -109 -109 -254zM1191 610h-761q-8 -67 -8 -133q0 -190 85 -282q77 -84 196 -84q162 0 290.5 131.5t197.5 367.5zM951 1396q210 0 331 -132q66 -73 99 -190q26 -89 26 -186
q0 -156 -46 -316.5t-127 -286.5q-205 -318 -532 -318q-237 0 -354 159q-101 137 -101 356q0 208 74 403q93 248 280 392q157 119 350 119z" />
    <glyph glyph-name="uni04E9" unicode="&#x4e9;" horiz-adv-x="1034" 
d="M357 535h548q4 42 4 74q0 134 -77 195q-54 44 -132 44q-115 0 -207.5 -84.5t-135.5 -228.5zM878 408h-548q-4 -35 -4 -68q0 -144 81 -205q54 -40 135 -40q152 0 255 144q50 71 81 169zM709 971q155 0 250 -84q108 -94 108 -283q0 -135 -49 -267q-77 -209 -237 -303
q-107 -63 -244 -63q-172 0 -266 92q-101 98 -101 269q0 117 35.5 232t97.5 199q153 208 406 208z" />
    <glyph glyph-name="Wgrave" unicode="&#x1e80;" horiz-adv-x="1567" 
d="M349 0l-5 1365h163l-21 -1132l490 1132h189l7 -1134l466 1134h166l-594 -1365h-174l-9 1154l-502 -1154h-176zM917 1734h152l123 -255h-130z" />
    <glyph glyph-name="wgrave" unicode="&#x1e81;" horiz-adv-x="1266" 
d="M791 1365l114 -273h-137l-131 273h154zM293 0l-80 942h164l37 -745l336 745h166l26 -743l351 743h162l-479 -942h-166l-25 718l-324 -718h-168z" />
    <glyph glyph-name="Wacute" unicode="&#x1e82;" horiz-adv-x="1567" 
d="M349 0l-5 1365h163l-21 -1132l490 1132h189l7 -1134l466 1134h166l-594 -1365h-174l-9 1154l-502 -1154h-176zM1364 1730l-253 -255h-130l231 255h152z" />
    <glyph glyph-name="wacute" unicode="&#x1e83;" horiz-adv-x="1266" 
d="M293 0l-80 942h164l37 -745l336 745h166l26 -743l351 743h162l-479 -942h-166l-25 718l-324 -718h-168zM1105 1365l-237 -273h-130l221 273h146z" />
    <glyph glyph-name="Wdieresis" unicode="&#x1e84;" horiz-adv-x="1567" 
d="M349 0l-5 1365h163l-21 -1132l490 1132h189l7 -1134l466 1134h166l-594 -1365h-174l-9 1154l-502 -1154h-176zM1330 1678l-41 -194h-144l41 194h144zM1047 1678l-42 -194h-143l41 194h144z" />
    <glyph glyph-name="wdieresis" unicode="&#x1e85;" horiz-adv-x="1266" 
d="M293 0l-80 942h164l37 -745l336 745h166l26 -743l351 743h162l-479 -942h-166l-25 718l-324 -718h-168zM1105 1297l-40 -191h-144l41 191h143zM822 1297l-41 -191h-143l41 191h143z" />
    <glyph glyph-name="uni1E9E" unicode="&#x1e9e;" horiz-adv-x="1194" 
d="M860 778q20 1 30 1q137 0 215 -83.5t78 -229.5q0 -231 -156 -359q-130 -107 -343 -107q-152 0 -257 58l124 125q69 -38 154 -38q158 0 246 116q60 81 60 186q0 120 -84 172q-37 23 -78.5 31t-126.5 8h-73l22 106l418 456h-233q-115 0 -196.5 -67.5t-105.5 -183.5
l-206 -969h-167l210 986q35 168 144 264q130 115 325 115h420l-37 -170z" />
    <glyph glyph-name="Ygrave" unicode="&#x1ef2;" horiz-adv-x="1030" 
d="M430 0l119 560l-270 805h191l198 -643l466 643h191l-609 -805l-119 -560h-167zM615 1734h152l123 -255h-130z" />
    <glyph glyph-name="ygrave" unicode="&#x1ef3;" horiz-adv-x="859" 
d="M606 1365l114 -273h-138l-131 273h155zM25 -340l28 132q12 -4 18 -7q36 -14 65 -14q86 0 140 89l90 150l-154 932h174l95 -731l393 731h172l-598 -1043q-76 -133 -131 -182q-79 -72 -191 -72q-44 0 -101 15z" />
    <glyph glyph-name="uni2000" unicode="&#x2000;" horiz-adv-x="1342" 
 />
    <glyph glyph-name="uni2001" unicode="&#x2001;" horiz-adv-x="2673" 
 />
    <glyph glyph-name="uni2002" unicode="&#x2002;" horiz-adv-x="1342" 
 />
    <glyph glyph-name="uni2003" unicode="&#x2003;" horiz-adv-x="2673" 
 />
    <glyph glyph-name="uni2004" unicode="&#x2004;" horiz-adv-x="899" 
 />
    <glyph glyph-name="uni2005" unicode="&#x2005;" horiz-adv-x="677" 
 />
    <glyph glyph-name="uni2006" unicode="&#x2006;" horiz-adv-x="454" 
 />
    <glyph glyph-name="uni2007" unicode="&#x2007;" horiz-adv-x="1477" 
 />
    <glyph glyph-name="uni2008" unicode="&#x2008;" horiz-adv-x="725" 
 />
    <glyph glyph-name="uni2009" unicode="&#x2009;" horiz-adv-x="544" 
 />
    <glyph glyph-name="uni200A" unicode="&#x200a;" horiz-adv-x="277" 
 />
    <glyph glyph-name="uni200B" unicode="&#x200b;" horiz-adv-x="11" 
 />
    <glyph glyph-name="uni2010" unicode="&#x2010;" horiz-adv-x="410" 
d="M529 591l-34 -164h-399l35 164h398z" />
    <glyph glyph-name="uni2011" unicode="&#x2011;" horiz-adv-x="410" 
d="M529 591l-34 -164h-399l35 164h398z" />
    <glyph glyph-name="figuredash" unicode="&#x2012;" horiz-adv-x="1060" 
d="M1003 591l-35 -164h-694l35 164h694z" />
    <glyph glyph-name="afii00208" unicode="&#x2015;" horiz-adv-x="1548" 
d="M1493 591l-35 -164h-1175l35 164h1175z" />
    <glyph glyph-name="quotereversed" unicode="&#x201b;" horiz-adv-x="522" 
 />
    <glyph glyph-name="uni203E" unicode="&#x203e;" horiz-adv-x="1076" 
d="M436 1607h888l-29 -132h-887z" />
    <glyph glyph-name="zerosuperior" unicode="&#x2070;" horiz-adv-x="686" 
d="M624 1382q200 0 200 -230q0 -92 -29 -226.5t-65 -209.5q-89 -187 -258 -187q-97 0 -151 55.5t-54 156.5q0 96 25.5 223t61.5 213q88 205 270 205zM615 1287q-109 0 -167 -173q-27 -83 -48 -190.5t-21 -169.5q0 -130 100 -130q102 0 160 157q28 74 51.5 190.5t23.5 181.5
q0 134 -99 134z" />
    <glyph glyph-name="foursuperior" unicode="&#x2074;" horiz-adv-x="601" 
d="M464 546l43 204h-310l21 98l434 517h85l-112 -523h100l-19 -92h-100l-43 -204h-99zM527 842l69 326l-273 -326h204z" />
    <glyph glyph-name="fivesuperior" unicode="&#x2075;" horiz-adv-x="653" 
d="M293 925l160 440h374l-21 -98h-284l-79 -212q54 40 120 40q95 0 146 -58.5t51 -165.5q0 -138 -86 -236q-93 -106 -236 -106q-93 0 -148.5 51.5t-55.5 137.5q0 16 3 37h112q-2 -17 -2 -29q0 -46 27 -74t71 -28q87 0 144 81q51 73 51 162q0 133 -113 133q-81 0 -142 -81z
" />
    <glyph glyph-name="sixsuperior" unicode="&#x2076;" horiz-adv-x="655" 
d="M811 1170h-113q1 15 1 23q0 94 -80 94q-138 0 -216 -277q73 74 169 74q98 0 148 -68q42 -57 42 -136q0 -144 -86 -247q-88 -104 -215 -104q-102 0 -157 68q-53 63 -53 169q0 128 41 268t103 220q98 128 236 128q83 0 132.5 -46.5t49.5 -125.5q0 -16 -2 -40zM543 989
q-73 0 -127.5 -71t-54.5 -167q0 -60 28.5 -93.5t77.5 -33.5q74 0 127.5 71t53.5 170q0 124 -105 124z" />
    <glyph glyph-name="sevensuperior" unicode="&#x2077;" horiz-adv-x="574" 
d="M369 546h-118q49 175 133 329q113 204 287 383h-359l23 107h479l-20 -93q-292 -297 -425 -726z" />
    <glyph glyph-name="eightsuperior" unicode="&#x2078;" horiz-adv-x="636" 
d="M408 999q-72 48 -72 143q0 103 72.5 171.5t181.5 68.5q94 0 149.5 -51t55.5 -136q0 -155 -144 -205q91 -55 91 -171q0 -107 -62 -186q-38 -49 -100 -76.5t-132 -27.5q-102 0 -163 57.5t-61 152.5q0 89 49.5 158.5t134.5 101.5zM583 1287q-58 0 -97.5 -42.5t-39.5 -106.5
q0 -47 27 -76t70 -29q57 0 98.5 46.5t41.5 108.5q0 99 -100 99zM518 944q-76 0 -128.5 -59.5t-52.5 -146.5q0 -52 31 -83t84 -31q84 0 134 67q44 60 44 132q0 57 -30 89t-82 32z" />
    <glyph glyph-name="ninesuperior" unicode="&#x2079;" horiz-adv-x="685" 
d="M270 742h112q-1 -16 -1 -23q0 -95 80 -95q138 0 217 278q-73 -74 -170 -74t-148 68q-42 56 -42 136q0 144 86 246q88 104 215 104q102 0 157 -68q53 -63 53 -168q0 -129 -41 -268.5t-103 -220.5q-98 -128 -236 -128q-83 0 -132.5 46.5t-49.5 126.5q0 15 3 40zM613 1287
q-74 0 -127.5 -71t-53.5 -169q0 -124 105 -124q73 0 127.5 71t54.5 167q0 59 -28.5 92.5t-77.5 33.5z" />
    <glyph glyph-name="parenleftsuperior" unicode="&#x207d;" horiz-adv-x="422" 
d="M536 1372h93q-123 -137 -199 -336.5t-76 -384.5q0 -85 15.5 -170t40.5 -137h-93q-2 6 -3 11q-3 9 -20 58q-46 127 -46 271q0 171 76.5 353.5t211.5 334.5z" />
    <glyph glyph-name="parenrightsuperior" unicode="&#x207e;" horiz-adv-x="421" 
d="M377 1372h91q70 -148 70 -331q0 -190 -82 -376q-36 -80 -73 -138.5t-127 -175.5l-6 -7h-92q127 158 198 351.5t71 381.5q0 152 -50 295z" />
    <glyph glyph-name="nsuperior" unicode="&#x207f;" horiz-adv-x="609" 
d="M194 546l121 570h101l-12 -60q79 77 178 77q78 0 120 -45q34 -37 34 -91q0 -34 -11 -84l-78 -367h-103l71 335q13 61 13 92q0 74 -82 74q-92 0 -142 -83q-27 -43 -48 -142l-58 -276h-104z" />
    <glyph glyph-name="zeroinferior" unicode="&#x2080;" horiz-adv-x="686" 
d="M508 836q200 0 200 -230q0 -92 -29 -226.5t-65 -209.5q-89 -187 -258 -187q-97 0 -151 55.5t-54 156.5q0 96 25.5 223t61.5 213q88 205 270 205zM499 741q-109 0 -167 -173q-27 -83 -48 -190.5t-21 -169.5q0 -130 100 -130q102 0 160 157q28 74 51.5 190.5t23.5 181.5
q0 134 -99 134z" />
    <glyph glyph-name="oneinferior" unicode="&#x2081;" horiz-adv-x="435" 
d="M190 0l131 621q-58 -37 -143 -37h-22l19 89h11q78 0 125 34t79 112h84l-175 -819h-109z" />
    <glyph glyph-name="twoinferior" unicode="&#x2082;" horiz-adv-x="642" 
d="M588 103l-22 -103h-506q25 93 47 139t65 92q38 42 80 71.5t153 92.5q180 102 180 234q0 48 -30.5 76t-81.5 28q-64 0 -98 -35.5t-49 -117.5h-136q17 106 57 158q76 100 224 100q135 0 201 -77q46 -53 46 -123q0 -110 -85 -201q-55 -59 -192 -131q-115 -61 -162 -103
t-63 -100h372z" />
    <glyph glyph-name="threeinferior" unicode="&#x2083;" horiz-adv-x="622" 
d="M297 601h-111q19 100 61 149q74 86 201 86q117 0 175 -63q48 -53 48 -132q0 -80 -43.5 -132.5t-124.5 -69.5q120 -37 120 -170q0 -122 -88.5 -204t-220.5 -82q-109 0 -170 60q-57 57 -57 140q0 18 6 54h112q-1 -18 -1 -31q0 -55 32 -88t85 -33q77 0 129.5 53t52.5 130
q0 118 -140 118h-45l20 96h38q78 0 123 40t45 110q0 47 -29 74.5t-79 27.5q-107 0 -139 -133z" />
    <glyph glyph-name="fourinferior" unicode="&#x2084;" horiz-adv-x="578" 
d="M327 0l43 204h-310l21 98l434 517h85l-112 -523h100l-19 -92h-100l-43 -204h-99zM390 296l69 326l-273 -326h204z" />
    <glyph glyph-name="fiveinferior" unicode="&#x2085;" horiz-adv-x="645" 
d="M174 379l160 440h374l-21 -98h-288l-79 -212q56 40 124 40q95 0 146 -58t51 -166q0 -140 -85 -236q-43 -49 -108 -77.5t-132 -28.5q-90 0 -145.5 52t-55.5 137q0 16 3 37h112q-2 -17 -2 -29q0 -46 27 -74t72 -28q76 0 135 74t59 169q0 133 -113 133q-81 0 -142 -81z" />
    <glyph glyph-name="sixinferior" unicode="&#x2086;" horiz-adv-x="655" 
d="M702 624h-113q1 15 1 23q0 95 -80 95q-138 0 -216 -278q73 74 169 74q98 0 148 -68q42 -57 42 -136q0 -144 -86 -247q-88 -104 -215 -104q-101 0 -157 68q-53 63 -53 169q0 128 41 268t103 221q98 128 236 128q83 0 132.5 -46.5t49.5 -125.5q0 -17 -2 -41zM434 443
q-73 0 -127.5 -71t-54.5 -167q0 -60 28.5 -93.5t77.5 -33.5q74 0 127.5 71t53.5 170q0 124 -105 124z" />
    <glyph glyph-name="seveninferior" unicode="&#x2087;" horiz-adv-x="568" 
d="M267 0h-118q49 175 133 329q113 204 287 383h-359l23 107h479l-20 -93q-292 -297 -425 -726z" />
    <glyph glyph-name="eightinferior" unicode="&#x2088;" horiz-adv-x="670" 
d="M319 453q-72 48 -72 143q0 103 72.5 171.5t181.5 68.5q94 0 149.5 -51t55.5 -136q0 -155 -144 -205q91 -55 91 -171q0 -107 -62 -186q-38 -49 -100 -76.5t-132 -27.5q-102 0 -163 57.5t-61 152.5q0 89 49.5 158.5t134.5 101.5zM494 741q-58 0 -97.5 -42.5t-39.5 -106.5
q0 -47 27 -76t70 -29q57 0 98.5 46.5t41.5 108.5q0 99 -100 99zM429 398q-76 0 -128.5 -59.5t-52.5 -146.5q0 -52 31 -83t84 -31q84 0 134 67q44 60 44 132q0 57 -30 89t-82 32z" />
    <glyph glyph-name="nineinferior" unicode="&#x2089;" horiz-adv-x="676" 
d="M152 196h112q-1 -16 -1 -23q0 -95 80 -95q139 0 217 278q-74 -74 -170 -74q-98 0 -148 68q-42 57 -42 136q0 145 86 247q88 104 215 104q102 0 157 -68q53 -63 53 -169q0 -128 -41 -268t-103 -221q-98 -128 -236 -128q-83 0 -132.5 46.5t-49.5 126.5q0 15 3 40zM495 742
q-74 0 -127.5 -71t-53.5 -170q0 -124 105 -124q73 0 127.5 71t54.5 167q0 59 -28.5 93t-77.5 34z" />
    <glyph glyph-name="franc" unicode="&#x20a3;" horiz-adv-x="1413" 
d="M190 0l290 1365h749l-29 -137h-588l-88 -413h434l-28 -133h-434l-145 -682h-161zM922 0l173 815h142l-37 -177q137 213 351 206l-36 -168q-34 4 -50 4q-106 0 -193 -89q-56 -58 -88.5 -137t-67.5 -244l-45 -210h-149z" />
    <glyph glyph-name="lira" unicode="&#x20a4;" horiz-adv-x="887" 
d="M437 344q-43 -67 -166 -177q120 63 176 63q42 0 90 -40q45 -38 76 -38q86 0 125 131h156q-37 -137 -107 -216q-85 -96 -205 -96q-43 0 -73.5 10.5t-82.5 41.5q-70 44 -118 44q-41 0 -85.5 -20t-126.5 -74l-64 104q173 116 254 267h-150l31 147h172q3 20 3 39q0 10 -1 29
h-160l32 147h105q-8 25 -27 83q-31 97 -31 206q0 175 100 280q113 117 322 117q185 0 282 -97q77 -78 77 -193q0 -35 -10 -89h-164q7 40 7 66q0 182 -195 182q-118 0 -184 -68t-66 -189q0 -83 33 -188q28 -87 34 -110h332l-32 -147h-286q-3 -40 -10 -68h282l-31 -147h-314z
" />
    <glyph glyph-name="peseta" unicode="&#x20a7;" horiz-adv-x="2060" 
d="M174 0l290 1365h377q182 0 275 -91q93 -92 93 -252q0 -110 -44 -205t-124 -156q-128 -99 -357 -99h-224l-119 -562h-167zM520 707h204q87 0 142.5 17t98.5 57q94 86 94 232q0 114 -76 170q-50 37 -172 37h-182zM1147 655l22 103h120l25 115l129 134h23l-53 -249h143
l-22 -103h-143l-96 -452q-9 -42 -9 -71q0 -52 63 -52q23 0 65 11l-22 -102q-47 -11 -81 -11q-154 0 -154 127q0 31 18 113l93 437h-121zM1453 210h135q-5 -21 -5 -33q0 -48 36.5 -75.5t98.5 -27.5q72 0 118 35q49 37 49 94q0 54 -69 92l-144 81q-122 68 -122 185
q0 101 75 161t201 60q114 0 178 -46q65 -47 65 -130q0 -18 -3 -45h-130q2 18 2 31q0 91 -120 91q-62 0 -99.5 -29t-37.5 -77q0 -55 70 -94l165 -93q116 -65 116 -171q0 -113 -86 -180.5t-229 -67.5q-152 0 -219 69q-49 51 -49 128q0 13 4 42z" />
    <glyph glyph-name="uni2101" unicode="&#x2101;" horiz-adv-x="1743" 
d="M652 1365h119l92 -819h-115l-23 247h-263l-129 -247h-123zM512 890h205l-30 335zM719 0h-125l879 1365h121zM1154 255h111q-4 -28 -4 -49q0 -125 140 -125q77 0 126 43.5t49 111.5q0 83 -95 122l-101 42q-141 58 -141 194q0 109 75.5 176.5t196.5 67.5q107 0 170.5 -51
t63.5 -136q0 -15 -4 -51h-117q4 22 4 36q0 48 -31 75t-87 27q-68 0 -109.5 -36t-41.5 -95q0 -81 86 -117l109 -45q78 -33 111.5 -77.5t33.5 -117.5q0 -123 -83 -196t-223 -73q-141 0 -202 77q-43 54 -43 131q0 25 6 66z" />
    <glyph glyph-name="estimated" unicode="&#x212e;" horiz-adv-x="997" 
d="M1001 431h-658q-11 -58 -11 -99q0 -100 46 -159q62 -79 173 -79q132 0 225 131h169q-132 -254 -402 -254q-163 0 -257 86q-114 105 -114 294q0 120 39 237t107 201q147 182 367 182q174 0 261 -95q82 -91 82 -234q0 -83 -27 -211zM862 554q8 51 8 82q0 92 -41 147
q-48 65 -150 65q-128 0 -219 -117q-54 -71 -88 -177h490z" />
    <glyph glyph-name="onethird" unicode="&#x2153;" horiz-adv-x="1461" 
d="M313 546l132 621q-60 -37 -144 -37h-22l19 89h11q79 0 125 33t79 113h84l-174 -819h-110zM411 0h-132l913 1365h129zM1123 601h-111q19 100 61 149q74 86 201 86q117 0 175 -63q48 -53 48 -132q0 -80 -43.5 -132.5t-124.5 -69.5q120 -37 120 -170q0 -122 -88.5 -204
t-220.5 -82q-109 0 -170 60q-57 57 -57 140q0 19 6 54h112q-1 -19 -1 -31q0 -55 32 -88t85 -33q77 0 129.5 53t52.5 130q0 118 -139 118h-46l21 96h38q78 0 122.5 40t44.5 110q0 47 -29 74.5t-78 27.5q-108 0 -140 -133z" />
    <glyph glyph-name="twothirds" unicode="&#x2154;" horiz-adv-x="1587" 
d="M537 0h-132l913 1365h129zM697 649l-22 -103h-506q25 93 47 139t65 92q38 42 80 71.5t153 92.5q180 103 180 234q0 48 -30.5 76t-81.5 28q-64 0 -98 -35.5t-49 -117.5h-136q17 106 57 158q76 100 224 100q135 0 201 -77q46 -53 46 -122q0 -111 -85 -202
q-55 -58 -192 -131q-116 -61 -162.5 -103t-62.5 -100h372zM1249 601h-111q19 100 61 149q74 86 201 86q117 0 175 -63q48 -53 48 -132q0 -80 -43.5 -132.5t-124.5 -69.5q120 -37 120 -170q0 -122 -88.5 -204t-220.5 -82q-109 0 -170 60q-57 57 -57 140q0 17 6 54h112
q-1 -18 -1 -31q0 -55 32 -88t85 -33q77 0 129.5 53t52.5 130q0 118 -140 118h-45l20 96h39q78 0 122.5 40t44.5 110q0 47 -29 74.5t-79 27.5q-107 0 -139 -133z" />
    <glyph glyph-name="oneeighth" unicode="&#x215b;" horiz-adv-x="1431" 
d="M313 546l132 621q-60 -37 -144 -37h-22l19 89h11q79 0 125 33t79 113h84l-174 -819h-110zM411 0h-132l913 1365h129zM1080 453q-71 48 -71 143q0 103 72.5 171.5t181.5 68.5q93 0 148.5 -51t55.5 -136q0 -75 -37 -128t-107 -77q91 -55 91 -171q0 -107 -62 -186
q-38 -49 -100 -76.5t-132 -27.5q-102 0 -163 57.5t-61 152.5q0 89 49.5 158.5t134.5 101.5zM1256 741q-59 0 -98 -42.5t-39 -106.5q0 -47 26.5 -76t70.5 -29q56 0 97.5 46.5t41.5 108.5q0 99 -99 99zM1190 398q-76 0 -128.5 -59.5t-52.5 -146.5q0 -52 31 -83t84 -31
q84 0 134 67q44 60 44 132q0 57 -30 89t-82 32z" />
    <glyph glyph-name="threeeighths" unicode="&#x215c;" horiz-adv-x="1507" 
d="M486 0h-132l914 1365h128zM407 1147h-111q19 100 61 149q74 86 201 86q117 0 175 -63q48 -53 48 -132q0 -80 -43.5 -132.5t-124.5 -69.5q120 -37 120 -170q0 -122 -88.5 -204t-220.5 -82q-110 0 -170 60q-57 57 -57 140q0 18 6 54h112q-1 -18 -1 -31q0 -55 32 -88t85 -33
q77 0 129.5 53t52.5 130q0 118 -140 118h-45l20 96h38q78 0 123 40t45 110q0 47 -29 74.5t-79 27.5q-107 0 -139 -133zM1156 453q-72 48 -72 143q0 103 72.5 171.5t181.5 68.5q93 0 148.5 -51t55.5 -136q0 -75 -37 -128t-106 -77q90 -55 90 -171q0 -107 -62 -186
q-38 -49 -99.5 -76.5t-132.5 -27.5q-101 0 -162 57.5t-61 152.5q0 89 49 158.5t135 101.5zM1331 741q-59 0 -98 -42.5t-39 -106.5q0 -47 26.5 -76t70.5 -29q56 0 97.5 46.5t41.5 108.5q0 99 -99 99zM1265 398q-76 0 -128 -59.5t-52 -146.5q0 -52 31 -83t84 -31q83 0 133 67
q44 60 44 132q0 57 -29.5 89t-82.5 32z" />
    <glyph glyph-name="fiveeighths" unicode="&#x215d;" horiz-adv-x="1485" 
d="M465 0h-132l913 1365h129zM256 925l160 440h374l-21 -98h-288l-79 -212q56 40 124 40q95 0 146 -58.5t51 -166.5q0 -140 -85 -235q-43 -49 -107.5 -77.5t-132.5 -28.5q-90 0 -145.5 52t-55.5 137q0 16 3 37h112q-2 -17 -2 -29q0 -46 27 -74t72 -28q76 0 135 74t59 169
q0 133 -113 133q-81 0 -142 -81zM1134 453q-72 48 -72 143q0 103 72.5 171.5t181.5 68.5q94 0 149.5 -51t55.5 -136q0 -155 -144 -205q91 -55 91 -171q0 -107 -62 -186q-38 -49 -100 -76.5t-132 -27.5q-102 0 -163 57.5t-61 152.5q0 89 49.5 158.5t134.5 101.5zM1309 741
q-58 0 -97.5 -42.5t-39.5 -106.5q0 -47 27 -76t70 -29q57 0 98.5 46.5t41.5 108.5q0 99 -100 99zM1244 398q-76 0 -128.5 -59.5t-52.5 -146.5q0 -53 31 -83.5t84 -30.5q84 0 134 67q44 60 44 132q0 57 -30 89t-82 32z" />
    <glyph glyph-name="seveneighths" unicode="&#x215e;" horiz-adv-x="1346" 
d="M325 0h-132l913 1365h129zM355 546h-118q48 175 133 329q112 204 286 383h-359l23 107h480l-20 -93q-293 -297 -425 -726zM994 453q-71 48 -71 143q0 103 72.5 171.5t181.5 68.5q93 0 148.5 -51t55.5 -136q0 -75 -37 -128t-107 -77q91 -55 91 -171q0 -107 -62 -186
q-38 -49 -100 -76.5t-132 -27.5q-102 0 -163 57.5t-61 152.5q0 89 49.5 158.5t134.5 101.5zM1170 741q-59 0 -98 -42.5t-39 -106.5q0 -47 26.5 -76t70.5 -29q56 0 97.5 46.5t41.5 108.5q0 99 -99 99zM1104 398q-76 0 -128.5 -59.5t-52.5 -146.5q0 -52 31 -83t84 -31
q84 0 134 67q44 60 44 132q0 57 -30 89t-82 32z" />
    <glyph glyph-name="minus" unicode="&#x2212;" horiz-adv-x="1076" 
d="M255 756h888l-29 -132h-887z" />
    <glyph glyph-name="fraction005" unicode="&#x2215;" horiz-adv-x="589" 
d="M56 0h-132l913 1365h129z" />
    <glyph glyph-name="periodcentered" unicode="&#x2219;" horiz-adv-x="583" 
d="M519 598l-46 -213h-199l45 213h200z" />
    <glyph glyph-name="uni2236" unicode="&#x2236;" horiz-adv-x="835" 
d="M512 528q40 0 68 -28t28 -68t-28 -68.5t-68 -28.5q-41 0 -69 28.5t-28 69.5q0 39 28.5 67t68.5 28zM624 1059q41 0 69 -28t28 -68t-28 -68.5t-69 -28.5q-40 0 -68 28.5t-28 69.5q0 39 28.5 67t67.5 28z" />
    <glyph glyph-name="dotmath" unicode="&#x22c5;" horiz-adv-x="583" 
d="M519 598l-46 -213h-199l45 213h200z" />
    <glyph glyph-name="one.fitted" unicode="&#xe001;" horiz-adv-x="956" 
d="M452 0l227 1066q-57 -44 -108 -59t-146 -16l27 127q133 4 203 56.5t129 190.5h119l-290 -1365h-161z" />
    <glyph glyph-name="two.fitted" unicode="&#xe002;" horiz-adv-x="998" 
d="M892 140l-30 -140h-761q18 118 38 178.5t62 122.5q90 135 322 277q144 87 197 124.5t102 87.5q119 122 119 277q0 86 -52 137q-50 50 -140 50q-107 0 -175 -71t-86 -200h-178q27 157 92 245q126 168 359 168q165 0 259 -89q96 -92 96 -239q0 -183 -136 -336
q-83 -93 -304 -222q-135 -78 -185 -111.5t-90 -73.5q-78 -77 -105 -185h596z" />
    <glyph glyph-name="three.fitted" unicode="&#xe003;" horiz-adv-x="989" 
d="M475 1019h-153q28 142 94 226q116 149 314 149q162 0 249 -99q70 -80 70 -201q0 -128 -67 -221.5t-192 -139.5q175 -63 175 -269q0 -181 -115 -323q-136 -170 -364 -170q-170 0 -261 92q-80 79 -80 205q0 44 16 110h155q-8 -50 -8 -79q0 -82 41 -131q49 -59 144 -59
q151 0 237 130q69 103 69 216q0 199 -215 199h-60l30 140h48q136 0 216 97q66 80 66 193q0 79 -47 125.5t-127 46.5q-187 0 -235 -237z" />
    <glyph glyph-name="four.fitted" unicode="&#xe004;" horiz-adv-x="986" 
d="M568 0l74 345h-496l32 150l700 870h125l-188 -888h150l-28 -132h-151l-73 -345h-145zM670 477l126 592l-473 -592h347z" />
    <glyph glyph-name="five.fitted" unicode="&#xe005;" horiz-adv-x="992" 
d="M270 640l257 725h577l-31 -143h-460l-147 -404q96 89 228 89q162 0 237 -118q58 -92 58 -230q0 -117 -36.5 -225.5t-102.5 -186.5q-148 -176 -369 -176q-175 0 -261 111q-58 74 -58 173q0 27 8 75h158q-3 -32 -3 -56q0 -72 46.5 -118.5t119.5 -46.5q140 0 241 143
q89 126 89 285q0 112 -45 172t-128 60q-150 0 -250 -138z" />
    <glyph glyph-name="six.fitted" unicode="&#xe006;" horiz-adv-x="987" 
d="M1094 1057h-157q1 24 1 39q0 75 -36 117.5t-100 42.5q-154 0 -261 -192q-38 -67 -60 -130t-55 -199q60 75 115 106q80 47 176 47q131 0 207 -86q85 -97 85 -254q0 -106 -39 -219.5t-103 -191.5q-64 -79 -151.5 -122.5t-181.5 -43.5q-176 0 -263 137q-59 94 -59 243
q0 266 91 539q98 298 267 421q115 83 254 83q120 0 191 -65q82 -74 82 -205q0 -25 -3 -67zM675 750q-142 0 -235 -173q-64 -119 -64 -256q0 -99 45 -157q43 -55 122 -55q136 0 226 157q71 123 71 276q0 100 -43 154t-122 54z" />
    <glyph glyph-name="seven.fitted" unicode="&#xe007;" horiz-adv-x="979" 
d="M424 0h-166q83 340 240 612t456 595h-585l34 158h743l-30 -142q-249 -269 -394 -503q-205 -331 -298 -720z" />
    <glyph glyph-name="eight.fitted" unicode="&#xe008;" horiz-adv-x="989" 
d="M485 749q-116 77 -116 230q0 166 111 287q116 128 297 128q132 0 212 -70q91 -79 91 -217q0 -75 -23.5 -146.5t-62.5 -118.5q-53 -63 -152 -101q146 -84 146 -276q0 -177 -101 -316q-129 -178 -365 -178q-162 0 -251.5 88t-89.5 247q0 186 111 313q74 85 193 130z
M769 1256q-103 0 -172 -93q-65 -87 -65 -200q0 -75 38.5 -118t105.5 -43q108 0 179 110q58 88 58 193q0 71 -38.5 111t-105.5 40zM645 674q-61 0 -119 -34t-101 -96q-76 -109 -76 -244q0 -84 50 -137.5t128 -53.5q136 0 223 129q72 105 72 230q0 93 -42 147q-48 59 -135 59z
" />
    <glyph glyph-name="nine.fitted" unicode="&#xe009;" horiz-adv-x="987" 
d="M198 309h158q-2 -25 -2 -39q0 -76 36 -118.5t101 -42.5q153 0 260 192q38 68 60 130.5t55 199.5q-60 -75 -115 -107q-80 -46 -176 -46q-131 0 -207 86q-85 97 -85 253q0 106 39 219.5t103 191.5q64 79 151.5 122.5t181.5 43.5q176 0 263 -137q59 -93 59 -243
q0 -265 -91 -538q-99 -299 -267 -421q-114 -84 -254 -84q-120 0 -191 65q-82 75 -82 206q0 24 3 67zM749 1256q-136 0 -226 -157q-71 -123 -71 -275q0 -100 43 -154t122 -54q142 0 235 172q64 120 64 256q0 98 -45 157q-43 55 -122 55z" />
    <glyph glyph-name="zero.fitted" unicode="&#xe00a;" horiz-adv-x="984" 
d="M780 1394q164 0 241 -102q67 -90 67 -244q0 -170 -47 -396.5t-113 -371.5q-71 -157 -170.5 -233t-232.5 -76q-313 0 -313 357q0 210 68 479q80 317 201 451q123 136 299 136zM770 1256q-171 0 -267 -274q-51 -145 -89 -342t-38 -317q0 -214 157 -214q168 0 265 275
q48 135 88 339.5t40 312.5q0 220 -156 220z" />
    <glyph glyph-name="uniEA31" unicode="&#xea31;" horiz-adv-x="1035" 
d="M847 1091h69q-49 -194 -205 -194q-76 0 -114 48q-37 47 -37 123q0 134 70 224t173 90q64 0 102 -35.5t38 -95.5q0 -9 -2 -28h-70l1 12v6q0 35 -21.5 57.5t-55.5 22.5q-70 0 -117 -81q-46 -78 -46 -170q0 -112 85 -112q87 0 130 133zM823 1554q169 0 271 -121
q80 -95 80 -228q0 -173 -117 -308q-69 -81 -165 -126q-97 -45 -201 -45q-168 0 -268 119q-83 100 -83 240q0 164 117 301q67 79 164.5 123.5t201.5 44.5zM816 1491q-200 0 -325 -166q-82 -110 -82 -233q0 -117 66 -200q83 -103 226 -103q90 0 176 45t145 122q84 110 84 251
q0 115 -58 183q-84 101 -232 101z" />
    <glyph glyph-name="uniEA32" unicode="&#xea32;" horiz-adv-x="1033" 
d="M566 908l98 464h149q62 0 96.5 -29t34.5 -82q0 -101 -94 -128q39 -19 39 -62q0 -15 -3 -39q-9 -64 -9 -83t15 -41h-82q-5 14 -5 24q0 12 8 62q6 34 6 57q0 30 -15 41t-55 11h-73l-42 -195h-68zM689 1164h68q62 0 85 20q29 26 29 70q0 56 -70 56h-81zM827 1554
q169 0 271 -121q80 -95 80 -228q0 -173 -117 -308q-69 -81 -165 -126q-97 -45 -201 -45q-168 0 -268 119q-83 100 -83 240q0 164 117 301q67 79 164.5 123.5t201.5 44.5zM820 1491q-200 0 -325 -166q-82 -110 -82 -233q0 -117 66 -200q83 -103 226 -103q90 0 176 45t145 122
q84 110 84 251q0 115 -58 183q-84 101 -232 101z" />
    <glyph glyph-name="uniEA3F" unicode="&#xea3f;" horiz-adv-x="1290" 
d="M1267 1365l-28 -133q-44 -214 -209 -231l14 69q75 18 106 126h-79l36 169h160z" />
    <glyph glyph-name="uniEA4F" unicode="&#xea4f;" horiz-adv-x="1290" 
d="M782 1093l28 133q44 214 209 231l-14 -69l-6 -1q-67 -19 -99 -125h78l-36 -169h-160z" />
    <glyph glyph-name="uniEA66" unicode="&#xea66;" horiz-adv-x="1290" 
d="M692 -84l-28 -133q-23 -109 -73.5 -165t-135.5 -66l14 69q75 20 106 126h-79l36 169h160z" />
    <glyph glyph-name="uniEA67" unicode="&#xea67;" horiz-adv-x="1290" 
d="M1238 1365l-28 -133q-23 -110 -73.5 -165.5t-135.5 -65.5l14 69q75 18 106 126h-79l36 169h160z" />
    <glyph glyph-name="uniEA68" unicode="&#xea68;" horiz-adv-x="1222" 
d="M1162 1655l-41 -194h-143l41 194h143zM907 1655l-42 -194h-143l41 194h144z" />
    <glyph glyph-name="uniEA69" unicode="&#xea69;" horiz-adv-x="1290" 
d="M692 -84l-28 -133q-44 -214 -209 -231l14 69q75 20 106 126h-79l36 169h160z" />
    <glyph glyph-name="uniEA6A" unicode="&#xea6a;" horiz-adv-x="1227" 
d="M1082 1297l-40 -191h-144l41 191h143zM840 1297l-41 -191h-143l41 191h143z" />
    <glyph glyph-name="uniEA71" unicode="&#xea71;" horiz-adv-x="1078" 
d="M369 1023l73 342h406q360 -4 368 -342h71l-25 -117h-60q-84 -344 -511 -344h-253l-119 -562h-167l193 906h-95l25 117h94zM536 1023h501q-4 103 -63 150t-185 47h-211zM1021 906h-510l-42 -199h233q132 0 209 48t110 151z" />
    <glyph glyph-name="uniEA72" unicode="&#xea72;" horiz-adv-x="633" 
d="M441 806l88 415q-44 -19 -106 -18l15 74h12h4q50 0 78 21.5t50 77.5h74l-121 -570h-94zM496 84l-18 -84h-363q16 67 31 100.5t44 65.5q37 43 167 116q127 70 127 151q0 29 -20.5 47t-52.5 18q-77 0 -96 -104h-107q36 189 205 189q77 0 123.5 -39.5t46.5 -105.5
q0 -65 -44 -115.5t-153 -111.5q-123 -65 -142 -127h252zM195 724h542l-17 -78h-541z" />
    <glyph glyph-name="uniEA73" unicode="&#xea73;" horiz-adv-x="621" 
d="M429 806l89 415q-45 -19 -107 -18l16 74h11h4q50 0 78 21.5t51 77.5h74l-122 -570h-94zM300 0l29 139h-214l16 75l303 357h69l-75 -356h69l-16 -76h-70l-29 -139h-82zM346 215l41 195l-165 -195h124zM184 724h541l-17 -78h-541z" />
    <glyph glyph-name="uniEA74" unicode="&#xea74;" horiz-adv-x="630" 
d="M478 1214h-90q8 83 57 128t132 45q71 0 114 -38.5t43 -101.5q0 -52 -28 -87t-79 -49q75 -34 75 -118q0 -87 -58.5 -143t-148.5 -56q-76 0 -125 39.5t-49 100.5q0 16 7 46h90q-3 -24 -3 -35q0 -31 22 -49.5t59 -18.5q45 0 75 32.5t30 80.5q0 77 -85 77h-38l17 79h33
q47 0 76 26t29 67q0 65 -67 65q-70 0 -88 -90zM300 0l29 139h-214l16 75l303 357h69l-75 -356h69l-16 -76h-70l-29 -139h-82zM346 215l41 195l-165 -195h124zM184 724h541l-17 -78h-541z" />
    <glyph glyph-name="Dotaccent" unicode="&#xefed;" horiz-adv-x="1299" 
d="M1073 1655l-42 -194h-143l41 194h144z" />
    <glyph glyph-name="Breve" unicode="&#xefee;" horiz-adv-x="1186" 
d="M1225 1748q-12 -92 -41 -142q-75 -131 -246 -131q-112 0 -174 59t-62 166q0 16 3 48h106q-1 -16 -1 -24q0 -64 36.5 -100.5t101.5 -36.5q70 0 110 38t61 123h106z" />
    <glyph glyph-name="Ogonek" unicode="&#xeff1;" horiz-adv-x="1253" 
d="M1136 0q-132 -101 -132 -189q0 -35 24 -55.5t64 -20.5q30 0 81 18l-18 -91q-59 -22 -111 -22q-72 0 -115.5 35.5t-43.5 94.5q0 117 156 230h95z" />
    <glyph glyph-name="Cedilla" unicode="&#xeff2;" horiz-adv-x="1239" 
d="M546 0h89l-64 -106q27 10 55 10q60 0 96.5 -34.5t36.5 -91.5q0 -82 -60.5 -137t-150.5 -55q-65 0 -106.5 28t-41.5 72q0 4 1 11h105q1 -34 46 -34q40 0 66 30.5t26 76.5q0 58 -56 58q-43 0 -61 -29h-102z" />
    <glyph glyph-name="Ring" unicode="&#xeff3;" horiz-adv-x="1223" 
d="M954 1733q-42 0 -71.5 -31t-29.5 -75t29 -75t70 -31q42 0 71 31t29 75q0 43 -29 74.5t-69 31.5zM955 1821q80 0 137.5 -57t57.5 -137t-58 -136.5t-140 -56.5t-140 56.5t-58 135.5q0 82 58 138.5t143 56.5z" />
    <glyph glyph-name="Tilde" unicode="&#xeff5;" horiz-adv-x="1169" 
d="M1232 1686q-34 -100 -91.5 -156t-125.5 -56q-57 0 -118 57q-47 43 -84 43q-60 0 -98 -93h-103q77 212 219 212q57 0 118 -54q49 -42 78 -42q61 0 99 89h106z" />
    <glyph glyph-name="Circumflex" unicode="&#xeff7;" horiz-adv-x="1174" 
d="M1181 1475l-151 -1l-87 186l-167 -185h-155l238 259h192z" />
    <glyph glyph-name="Acute" unicode="&#xf6c9;" horiz-adv-x="1243" 
d="M1233 1734l-253 -255h-130l231 255h152z" />
    <glyph glyph-name="Caron" unicode="&#xf6ca;" horiz-adv-x="1174" 
d="M676 1734l152 1l86 -186l167 185h155l-238 -259h-191z" />
    <glyph glyph-name="Dieresis" unicode="&#xf6cb;" horiz-adv-x="1214" 
d="M1172 1655l-41 -194h-144l41 194h144zM889 1655l-42 -194h-143l41 194h144z" />
    <glyph glyph-name="Grave" unicode="&#xf6ce;" horiz-adv-x="1243" 
d="M772 1734h152l123 -255h-130z" />
    <glyph glyph-name="Hungarumlaut" unicode="&#xf6cf;" horiz-adv-x="1161" 
d="M1056 1734l-253 -255h-130l231 255h152zM1329 1734l-253 -255h-130l231 255h152z" />
    <glyph glyph-name="Macron" unicode="&#xf6d0;" horiz-adv-x="1174" 
d="M1208 1603l-25 -117h-560l25 117h560z" />
    <glyph glyph-name="uniFEFF" unicode="&#xfeff;" horiz-adv-x="11" 
 />
    <glyph glyph-name="uniFFFC" unicode="&#xfffc;" horiz-adv-x="2059" 
d="M2297 1150h-100l48 223h-223l21 100h323zM1770 1373h-323l21 100h323zM2175 575h-100l69 323h100zM1198 1388h-323l21 100h323zM2053 0h-323l21 100h223l48 223h100zM620 1373h-223l-48 -223h-100l69 323h323zM1478 0h-323l21 100h323zM227 575h-100l69 323h100zM903 0
h-323l21 100h323zM328 0h-323l69 323h100l-48 -223h223zM793 1096q105 0 166 -68q64 -71 64 -192q0 -184 -98 -334q-116 -178 -299 -178q-118 0 -180 87q-49 68 -49 168t32 200t86 169q116 148 278 148zM775 1017q-121 0 -205 -133q-36 -56 -57.5 -136.5t-21.5 -156.5
q0 -93 47 -144q43 -46 105 -46q122 0 205 135q80 128 80 288q0 89 -41 141t-112 52zM1043 357l157 737h233q101 0 140 -29q51 -38 51 -108q0 -141 -140 -205q95 -29 95 -127q0 -117 -74.5 -192.5t-189.5 -75.5h-272zM1223 780h124q55 0 82 6.5t49 25.5q51 44 51 120
q0 49 -25 66t-99 17h-132zM1150 436h140q59 0 87.5 6.5t50.5 25.5q59 51 59 143q0 58 -44 81q-24 13 -110 13h-126zM1572 346l17 80q23 -10 48 -10q73 0 113 67q20 33 43 141l100 470h90l-103 -485q-29 -137 -73 -188q-68 -82 -180 -82q-26 0 -55 7z" />
    <glyph glyph-name="uniFFFD" unicode="&#xfffd;" horiz-adv-x="2110" 
d="M1383 1556l741 -938l-1139 -937l-739 937zM883 779h214q10 83 21 111q34 88 128 88q51 0 80.5 -26.5t29.5 -72.5q0 -67 -47 -126q-15 -19 -121 -106q-54 -45 -78.5 -76t-46.5 -83q-23 -57 -39 -143h198q21 88 52 127.5t136 114.5q175 123 175 321q0 108 -72 184
q-84 87 -247 87q-102 0 -183.5 -42.5t-129.5 -120.5q-51 -82 -70 -237zM1228 243h-254l-53 -248h254z" />
    </font>
</defs>
</svg>
