<?xml version="1.0" standalone="no"?>
<!DOCTYPE svg PUBLIC "-//W3C//DTD SVG 1.1//EN" "http://www.w3.org/Graphics/SVG/1.1/DTD/svg11.dtd" >
<svg xmlns="http://www.w3.org/2000/svg" xmlns:xlink="http://www.w3.org/1999/xlink" version="1.1">
<metadata>
Created by FontForge 20161004 at Thu Apr 20 15:18:21 2017
 By mb
(URW)++,Copyright 2017 by (URW)++ Design &#38; Development
</metadata>
<defs>
<font id="TeleGroteskNext-BoldItalic" horiz-adv-x="1156" >
  <font-face 
    font-family="TeleGrotesk Next"
    font-weight="700"
    font-style="italic"
    font-stretch="normal"
    units-per-em="2048"
    panose-1="0 0 0 0 0 0 0 0 0 0"
    ascent="1679"
    descent="-369"
    x-height="942"
    cap-height="1365"
    bbox="-124 -512 2625 1821"
    underline-thickness="173"
    underline-position="-282"
    slope="-12"
    unicode-range="U+0020-FFFD"
  />
<missing-glyph horiz-adv-x="531" 
d="M53 0v1365h425v-1365h-425zM425 53v1259h-319v-1259h319z" />
    <glyph glyph-name="fi" unicode="fi" horiz-adv-x="1029" 
d="M145 0l167 782h-143l33 160h142l31 146q33 158 95 220q86 88 235 88q43 0 120 -12l-35 -168q-47 10 -77 10q-63 0 -92.5 -33t-49.5 -126l-26 -125h174l-33 -160h-173l-167 -782h-201zM926 1164l44 201h212l-43 -201h-213zM679 0l201 942h200l-200 -942h-201z" />
    <glyph glyph-name="fl" unicode="fl" horiz-adv-x="1029" 
d="M147 0l167 782h-145l33 160h144l33 154q32 153 93 215q84 85 233 85q45 0 128 -12l-36 -168q-49 10 -79 10q-65 0 -95 -33t-50 -126l-26 -125h180l-34 -160h-178l-167 -782h-201zM691 0l291 1365h200l-290 -1365h-201z" />
    <glyph glyph-name="afii61352" unicode="Nr&#x2e;" horiz-adv-x="1774" 
d="M171 0l290 1365h231l293 -1012l216 1012h208l-290 -1365h-232l-293 1007l-214 -1007h-209zM1670 913q98 0 159 -60q66 -65 66 -180q0 -75 -25 -148.5t-67 -124.5q-89 -107 -225 -107q-105 0 -165 62q-64 65 -64 184q0 144 81 252q92 122 240 122zM1654 763
q-59 0 -102 -67t-43 -158q0 -44 21.5 -69.5t58.5 -25.5q61 0 102 63q44 69 44 163q0 44 -21.5 69t-59.5 25zM1805 225l-28 -131h-528l28 131h528z" />
    <glyph glyph-name=".notdef" horiz-adv-x="531" 
d="M53 0v1365h425v-1365h-425zM425 53v1259h-319v-1259h319z" />
    <glyph glyph-name="_" horiz-adv-x="0" 
 />
    <glyph glyph-name="_001" horiz-adv-x="531" 
 />
    <glyph glyph-name="space" unicode=" " horiz-adv-x="531" 
 />
    <glyph glyph-name="exclam" unicode="!" horiz-adv-x="672" 
d="M733 1365l-84 -392l-184 -596h-105l76 594l84 394h213zM511 248l-52 -248h-246l52 248h246z" />
    <glyph glyph-name="quotedbl" unicode="&#x22;" horiz-adv-x="765" 
d="M472 845h-151l75 520h223zM804 845h-151l75 520h222z" />
    <glyph glyph-name="numbersign" unicode="#" horiz-adv-x="1323" 
d="M273 436l31 145h206l79 226h-186l31 145h206l122 344h168l-122 -344h187l122 344h168l-122 -344h188l-31 -145h-209l-78 -226h188l-31 -145h-209l-130 -368h-168l130 368h-187l-130 -368h-168l130 368h-185zM944 807h-188l-78 -226h187z" />
    <glyph glyph-name="dollar" unicode="$" horiz-adv-x="1133" 
d="M962 1349q112 -27 176 -104.5t64 -187.5q0 -20 -2 -53h-217v18q0 55 -15.5 83.5t-53.5 47.5l-94 -380q160 -75 230 -155t70 -191q0 -167 -139.5 -287.5t-350.5 -135.5l-23 -91h-160l25 99q-77 15 -131 50q-67 44 -106 120t-39 164q0 23 5 72h233q-8 -36 -8 -62
q0 -111 93 -153l106 428q-42 13 -130 71q-145 96 -145 266q0 162 129.5 273.5t325.5 119.5l21 82h160zM772 579l-97 -391q98 16 157 77t59 146q0 96 -119 168zM674 828l85 343q-60 -8 -94 -25q-104 -52 -104 -161q0 -51 31 -94t82 -63z" />
    <glyph glyph-name="percent" unicode="%" horiz-adv-x="1786" 
d="M673 1384q117 0 192 -78q83 -87 83 -241q0 -195 -106 -349q-129 -188 -327 -188q-140 0 -217 103q-63 85 -63 215q0 101 34.5 203.5t92.5 175.5q128 159 311 159zM651 1245q-104 0 -180 -126q-74 -121 -74 -280q0 -90 43 -134q38 -38 91 -38q107 0 182 124q75 125 75 283
q0 80 -36.5 125.5t-100.5 45.5zM673 0h-145l878 1365h142zM1566 838q117 0 192 -78q83 -87 83 -241q0 -195 -107 -349q-129 -188 -326 -188q-139 0 -217 103q-63 84 -63 214q0 102 34.5 204.5t92.5 175.5q128 159 311 159zM1544 699q-104 0 -180 -126q-74 -121 -74 -281
q0 -79 36.5 -125t98.5 -46q106 0 181 124q75 125 75 283q0 80 -36.5 125.5t-100.5 45.5z" />
    <glyph glyph-name="ampersand" unicode="&#x26;" horiz-adv-x="1121" 
d="M1061 0h-221l-30 69q-134 -98 -300 -98q-183 0 -274 106q-75 88 -75 210q0 248 340 473q-7 17 -11 25q-42 101 -55.5 152t-13.5 114q0 156 120 255q106 88 250 88q117 0 190 -66t73 -172q0 -109 -73 -204t-253 -219l152 -334q36 77 59 168h198q-64 -205 -175 -350z
M566 614q-202 -161 -202 -334q0 -69 45.5 -111t119.5 -42q113 0 216 87zM666 870q96 63 148 133t52 138q0 44 -24.5 70.5t-64.5 26.5q-65 0 -109 -55.5t-44 -136.5q0 -82 42 -176z" />
    <glyph glyph-name="quotesingle" unicode="'" horiz-adv-x="434" 
d="M472 845h-151l75 520h223z" />
    <glyph glyph-name="parenleft" unicode="(" horiz-adv-x="621" 
d="M623 1365h164q-6 -9 -14 -19q-195 -281 -300.5 -610.5t-105.5 -659.5q0 -222 50 -409l6 -22h-166q-56 189 -73.5 290t-17.5 235q0 345 152 694q59 134 145.5 276.5t159.5 224.5z" />
    <glyph glyph-name="parenright" unicode=")" horiz-adv-x="621" 
d="M414 1365h164q41 -92 66.5 -238t25.5 -286q0 -159 -36.5 -333t-103.5 -332q-58 -136 -122.5 -244.5t-195.5 -286.5h-165q7 10 15 22q195 277 303 609.5t108 656.5q0 122 -12 211.5t-44 208.5z" />
    <glyph glyph-name="asterisk" unicode="*" horiz-adv-x="894" 
d="M993 1102l-238 -72l99 -185l-105 -69l-98 191l-179 -191l-79 69l182 185l-205 72l59 108l201 -79l48 234h118l-54 -234l235 79z" />
    <glyph glyph-name="plus" unicode="+" horiz-adv-x="1065" 
d="M226 776h381l75 354h181l-75 -354h380l-37 -176h-380l-75 -352h-188l74 346h-374z" />
    <glyph glyph-name="comma" unicode="," horiz-adv-x="598" 
d="M474 248l-38 -181q-38 -179 -124 -258q-89 -82 -197 -96l25 119q112 27 146 168h-110l52 248h246z" />
    <glyph glyph-name="hyphen" unicode="-" horiz-adv-x="453" 
d="M566 615l-41 -201h-421l42 201h420z" />
    <glyph glyph-name="period" unicode="." horiz-adv-x="598" 
d="M474 248l-52 -248h-246l52 248h246z" />
    <glyph glyph-name="slash" unicode="/" horiz-adv-x="798" 
d="M73 -354h-172l917 1719h170z" />
    <glyph glyph-name="zero" unicode="0" horiz-adv-x="1006" 
d="M782 1394q110 0 190 -63q116 -93 116 -339q0 -152 -43.5 -349.5t-107.5 -338.5q-152 -333 -414 -333q-154 0 -234 103.5t-80 301.5q0 150 44 348t109 340q151 330 420 330zM757 1212q-145 0 -234 -281q-47 -149 -79 -319.5t-32 -273.5q0 -185 128 -185q76 0 131.5 66.5
t104.5 216.5q46 142 77.5 312t31.5 279q0 185 -128 185z" />
    <glyph glyph-name="one" unicode="1" horiz-adv-x="1006" 
d="M446 0l213 998q-53 -34 -97 -44.5t-144 -11.5l36 169q133 4 203.5 58t129.5 196h158l-290 -1365h-209z" />
    <glyph glyph-name="two" unicode="2" horiz-adv-x="1006" 
d="M935 182l-39 -182h-812q38 238 167 396q59 69 138.5 128.5t252.5 162.5q272 161 272 372q0 72 -42 112q-43 43 -118 43q-90 0 -156.5 -67t-91.5 -182h-206q36 181 160 300q137 131 322 131q158 0 254.5 -86t96.5 -226q0 -219 -168 -380q-103 -98 -353 -243
q-127 -74 -187.5 -134t-92.5 -145h603z" />
    <glyph glyph-name="three" unicode="3" horiz-adv-x="1006" 
d="M525 999h-199q27 153 119 259q131 149 334 149q177 0 256 -116q51 -75 51 -182q0 -123 -62.5 -216t-177.5 -142q51 -20 81 -53q73 -80 73 -207q0 -94 -38 -187t-105 -163q-149 -157 -367 -157q-190 0 -269 118q-61 90 -61 207q0 35 15 111h203q-7 -54 -7 -88
q0 -166 154 -166q120 0 192 106q64 96 64 219q0 164 -166 164q-33 0 -70 -5l36 167h29q131 0 191 69q74 84 74 198q0 66 -35 103.5t-98 37.5q-162 0 -217 -226z" />
    <glyph glyph-name="four" unicode="4" horiz-adv-x="1006" 
d="M562 0l72 336h-473l45 212l651 817h194l-181 -847h139l-38 -182h-139l-71 -336h-199zM672 518l115 538l-415 -538h300z" />
    <glyph glyph-name="five" unicode="5" horiz-adv-x="1006" 
d="M162 344h204q-2 -24 -2 -41q0 -67 41 -108.5t108 -41.5q137 0 214 147q61 118 61 258q0 86 -41 134.5t-113 48.5q-110 0 -202 -121l-177 6l262 739h596l-41 -190h-442l-123 -348q85 84 203 84q136 0 216.5 -92.5t80.5 -248.5q0 -234 -144 -412q-151 -187 -372 -187
q-161 0 -254 95q-84 86 -84 214q0 29 9 64z" />
    <glyph glyph-name="six" unicode="6" horiz-adv-x="1006" 
d="M1107 1053h-200q1 17 1 26q0 133 -118 133q-193 0 -316 -452q113 143 252 143q130 0 213 -91q80 -88 80 -243q0 -111 -36.5 -220t-100.5 -192q-145 -186 -346 -186q-160 0 -245 117q-77 105 -77 275q0 186 54.5 399t136.5 352q168 280 413 280q158 0 235 -105
q58 -79 58 -184q0 -17 -4 -52zM666 721q-54 0 -104.5 -39.5t-86.5 -109.5q-58 -114 -58 -239q0 -84 35 -132q36 -48 99 -48q112 0 186 139q63 117 63 253q0 84 -35 130t-99 46z" />
    <glyph glyph-name="seven" unicode="7" horiz-adv-x="1006" 
d="M498 0h-221q36 163 146 396.5t237 415.5q161 231 290 352h-572l43 201h770l-39 -185q-188 -179 -371 -496q-192 -331 -283 -684z" />
    <glyph glyph-name="eight" unicode="8" horiz-adv-x="1006" 
d="M466 736q-111 76 -111 238q0 171 115 291q58 61 140.5 95t171.5 34q141 0 226 -77t85 -205q0 -120 -66 -223t-175 -153q146 -73 146 -264q0 -192 -115 -331q-140 -170 -367 -170q-195 0 -289 125q-60 79 -60 193q0 153 81.5 274.5t217.5 172.5zM762 1212q-101 0 -161 -93
q-49 -75 -49 -165q0 -69 33 -107t93 -38q96 0 159 94q53 79 53 178q0 62 -34 96.5t-94 34.5zM637 653q-110 0 -186 -114q-65 -97 -65 -218q0 -80 39 -124t110 -44q125 0 195 117q57 96 57 215q0 79 -39.5 123.5t-110.5 44.5z" />
    <glyph glyph-name="nine" unicode="9" horiz-adv-x="1006" 
d="M190 319h201q-2 -23 -2 -33q0 -133 118 -133q193 0 316 454q-123 -143 -272 -143q-124 0 -199 84q-74 82 -74 227q0 114 36.5 227t100.5 199q145 193 346 193q159 0 245 -117q77 -105 77 -274q0 -187 -54.5 -400t-137.5 -352q-167 -280 -414 -280q-134 0 -213 78t-79 210
q0 24 5 60zM741 1212q-107 0 -182 -138q-62 -116 -62 -250q0 -84 34 -131t96 -47q119 0 195 148q58 114 58 241q0 84 -36.5 130.5t-102.5 46.5z" />
    <glyph glyph-name="colon" unicode=":" horiz-adv-x="598" 
d="M622 942l-52 -248h-246l52 248h246zM474 248l-52 -248h-246l52 248h246z" />
    <glyph glyph-name="semicolon" unicode=";" horiz-adv-x="598" 
d="M474 248l-38 -181q-38 -179 -124 -258q-89 -82 -197 -96l25 119q112 27 146 168h-110l52 248h246zM622 942l-52 -248h-246l52 248h246z" />
    <glyph glyph-name="less" unicode="&#x3c;" horiz-adv-x="1081" 
d="M1242 1214l-46 -218l-722 -313l588 -313l-46 -218l-794 438l40 186z" />
    <glyph glyph-name="equal" unicode="=" horiz-adv-x="1065" 
d="M262 946h942l-36 -176h-943zM190 608h942l-37 -176h-942z" />
    <glyph glyph-name="greater" unicode="&#x3e;" horiz-adv-x="1082" 
d="M356 1214l793 -438l-39 -186l-980 -438l46 218l721 313l-588 313z" />
    <glyph glyph-name="question" unicode="?" horiz-adv-x="983" 
d="M337 961q38 172 115 270q129 165 326 165q151 0 241 -83.5t90 -223.5q0 -141 -87 -263q-36 -50 -63 -76t-132 -111q-71 -57 -100 -106.5t-55 -157.5h-182q18 125 68 210.5t163 188.5q104 94 139 164q30 60 30 125q0 141 -135 141q-162 0 -223 -243h-195zM686 248
l-52 -248h-246l52 248h246z" />
    <glyph glyph-name="at" unicode="@" horiz-adv-x="1553" 
d="M1209 981h148l-164 -399q-31 -83 -31 -94q0 -29 33 -29q48 0 114 38t116 94q122 138 122 298q0 155 -113 251q-73 62 -179 97t-220 35q-189 0 -345 -99q-196 -124 -276 -321q-55 -136 -55 -269q0 -165 82 -289q132 -202 436 -202q107 0 192.5 24t200.5 87l17 -119
q-113 -65 -208.5 -91t-219.5 -26q-244 0 -406 109q-117 78 -181.5 213t-64.5 300q0 157 67 308q107 243 332 381q194 119 423 119q197 0 365 -84q186 -93 251 -260q31 -80 31 -166q0 -123 -61 -239q-89 -169 -252 -259q-99 -55 -195 -55q-117 0 -140 80q-55 -48 -98 -67
t-98 -19q-99 0 -158 64.5t-59 171.5q0 151 108 287q121 153 286 153q118 0 173 -84zM1005 879q-44 0 -92.5 -30t-83.5 -79q-71 -100 -71 -206q0 -111 91 -111q50 0 100 33.5t84 88.5q67 112 67 206q0 98 -95 98z" />
    <glyph glyph-name="A" unicode="A" 
d="M751 1365h235l149 -1365h-237l-29 367h-438l-186 -367h-231zM522 549h332l-43 550z" />
    <glyph glyph-name="B" unicode="B" horiz-adv-x="1219" 
d="M171 0l290 1365h430q154 0 229 -27q171 -62 171 -256q0 -116 -70.5 -208t-195.5 -141q186 -64 186 -268q0 -99 -44.5 -192t-124.5 -161q-69 -60 -147 -86t-185 -26h-539zM565 797h189q80 0 125.5 9t75.5 32q98 71 98 204q0 87 -60 116q-35 17 -151 17h-196zM436 190h216
q96 0 147 13t90 47q42 38 67.5 97t25.5 120q0 100 -71 134q-43 20 -186 20h-197z" />
    <glyph glyph-name="C" unicode="C" horiz-adv-x="1236" 
d="M1041 522h222q-54 -209 -186 -358q-175 -197 -412 -197q-256 0 -366 192q-76 133 -76 317q0 166 50 328t141 291q214 301 523 301q254 0 361 -199q51 -94 51 -200q0 -23 -4 -69h-226q-2 120 -33 175q-56 101 -177 101q-194 0 -327 -235q-130 -227 -130 -494
q0 -159 64 -241q59 -75 169 -75q239 0 356 363z" />
    <glyph glyph-name="D" unicode="D" horiz-adv-x="1272" 
d="M171 0l290 1365h389q203 0 315 -70q88 -56 130 -155q45 -104 45 -220q0 -196 -67 -388.5t-181 -325.5q-96 -112 -201.5 -159t-259.5 -47h-460zM436 190h174q136 0 209 40q123 69 201 242q91 205 91 411q0 146 -85 227q-68 65 -203 65h-177z" />
    <glyph glyph-name="E" unicode="E" horiz-adv-x="1118" 
d="M171 0l290 1365h823l-41 -190h-598l-79 -374h553l-41 -190h-553l-88 -421h608l-41 -190h-833z" />
    <glyph glyph-name="F" unicode="F" horiz-adv-x="1037" 
d="M171 0l290 1365h797l-41 -190h-572l-81 -384h500l-41 -190h-500l-127 -601h-225z" />
    <glyph glyph-name="G" unicode="G" horiz-adv-x="1326" 
d="M1177 0h-173l34 159q-72 -77 -127 -116q-109 -76 -252 -76q-226 0 -341 168q-95 140 -95 348t82 408q104 255 296 393q156 112 351 112q215 0 327 -137q89 -107 89 -248q0 -30 -5 -81h-218q4 34 4 54q0 99 -61.5 159.5t-160.5 60.5q-207 0 -346 -237q-59 -101 -94 -235.5
t-35 -260.5q0 -89 27.5 -158.5t76.5 -106.5q62 -46 151 -46q197 0 314 206q37 65 68 181h-301l39 182h505z" />
    <glyph glyph-name="H" unicode="H" horiz-adv-x="1301" 
d="M171 0l290 1365h225l-118 -552h511l118 552h225l-291 -1365h-224l131 623h-511l-131 -623h-225z" />
    <glyph glyph-name="I" unicode="I" horiz-adv-x="566" 
d="M171 0l290 1365h225l-290 -1365h-225z" />
    <glyph glyph-name="J" unicode="J" horiz-adv-x="675" 
d="M12 -19l42 199q63 -21 108 -21q122 0 182 124q20 41 31 79.5t42 181.5l174 821h225l-191 -898q-30 -143 -57.5 -215t-75.5 -133q-118 -152 -338 -152q-60 0 -142 14z" />
    <glyph glyph-name="K" unicode="K" horiz-adv-x="1163" 
d="M171 0l290 1365h224l-123 -580l596 580h262l-597 -564l336 -801h-258l-259 629l-142 -134l-105 -495h-224z" />
    <glyph glyph-name="L" unicode="L" horiz-adv-x="1035" 
d="M171 0l290 1365h225l-249 -1175h565l-41 -190h-790z" />
    <glyph glyph-name="M" unicode="M" horiz-adv-x="1546" 
d="M171 0l290 1365h302l73 -1064l528 1064h302l-291 -1365h-208l229 1080l-528 -1080h-189l-72 1067l-227 -1067h-209z" />
    <glyph glyph-name="N" unicode="N" horiz-adv-x="1289" 
d="M171 0l290 1365h231l293 -1012l216 1012h208l-290 -1365h-232l-293 1007l-214 -1007h-209z" />
    <glyph glyph-name="O" unicode="O" horiz-adv-x="1320" 
d="M944 1397q187 0 308 -126q70 -73 106 -194q28 -94 28 -198q0 -156 -47.5 -314t-131.5 -283q-102 -151 -236 -232q-140 -83 -297 -83q-227 0 -350 167q-101 137 -101 348q0 197 75 398q95 255 290 398q161 119 356 119zM909 1205q-89 0 -176.5 -62t-151.5 -170
q-59 -99 -94 -236t-35 -266q0 -158 77 -240q67 -72 165 -72q196 0 331 230q61 103 96.5 238.5t35.5 264.5q0 152 -73 239q-63 74 -175 74z" />
    <glyph glyph-name="P" unicode="P" horiz-adv-x="1143" 
d="M171 0l290 1365h403q194 0 283 -56q62 -38 97 -109.5t35 -159.5q0 -102 -38.5 -201.5t-104.5 -169.5q-71 -75 -159 -108.5t-216 -33.5h-254l-111 -527h-225zM548 717h198q151 0 222 76q82 90 82 214q0 83 -58 125q-44 32 -168 32h-180z" />
    <glyph glyph-name="Q" unicode="Q" horiz-adv-x="1320" 
d="M1194 6l-146 -118l-117 161q-131 -82 -270 -82q-210 0 -335 156q-103 128 -103 327q0 204 75 412q94 263 290 412q161 122 351 122q194 0 313 -126q69 -73 106 -193q28 -93 28 -195q0 -215 -78 -398.5t-229 -322.5zM862 453l115 -155q79 108 129.5 273.5t50.5 318.5
q0 155 -73 241q-63 73 -169 73q-94 0 -180.5 -60t-153.5 -172q-59 -99 -94 -235t-35 -265q0 -160 76 -241q67 -72 179 -72q60 0 125 26l-111 153z" />
    <glyph glyph-name="R" unicode="R" horiz-adv-x="1288" 
d="M197 0l290 1365h505q107 0 171.5 -22.5t109.5 -75.5q71 -84 71 -209q0 -144 -80.5 -251.5t-223.5 -155.5q62 -19 90 -53q46 -57 46 -145q0 -54 -11 -130q-26 -181 -26 -236q0 -45 27 -87h-238q-8 32 -8 57q0 41 17 145q20 126 20 183q0 101 -47 139.5t-169 38.5h-200
l-119 -563h-225zM579 739h198q93 0 144.5 13t90.5 45q46 39 72.5 100t26.5 127q0 81 -50 116t-165 35h-224z" />
    <glyph glyph-name="S" unicode="S" horiz-adv-x="1103" 
d="M186 418h234q-7 -49 -7 -80q0 -89 48 -139t133 -50q132 0 209 106q49 68 49 145q0 88 -72 142q-43 33 -200 108q-243 117 -243 323q0 172 129 294q137 129 342 129q182 0 285 -91q90 -80 90 -211q0 -33 -8 -90h-219q8 35 8 56q0 144 -174 144q-110 0 -175 -71
q-55 -62 -55 -142q0 -66 46 -112.5t164 -100.5q115 -53 163.5 -84t83.5 -73q73 -90 73 -206q0 -170 -127 -297q-151 -151 -392 -151q-187 0 -289 92q-49 44 -78 110t-29 134q0 43 11 115z" />
    <glyph glyph-name="T" unicode="T" horiz-adv-x="1053" 
d="M414 0l250 1175h-356l41 190h936l-41 -190h-355l-250 -1175h-225z" />
    <glyph glyph-name="U" unicode="U" horiz-adv-x="1258" 
d="M440 1365h224l-166 -781q-29 -138 -29 -218q0 -207 201 -207q139 0 213 93t125 332l166 781h225l-170 -797q-35 -165 -70 -247q-151 -354 -513 -354q-223 0 -322 124q-80 99 -80 255q0 99 37 275z" />
    <glyph glyph-name="V" unicode="V" horiz-adv-x="1060" 
d="M406 0l-94 1365h238l42 -1098l511 1098h226l-677 -1365h-246z" />
    <glyph glyph-name="W" unicode="W" horiz-adv-x="1561" 
d="M329 0l-12 1365h228l-28 -1055l442 1055h226l-10 -1057l425 1057h224l-598 -1365h-229l6 1055l-443 -1055h-231z" />
    <glyph glyph-name="X" unicode="X" horiz-adv-x="1087" 
d="M11 0l557 709l-238 656h257l148 -480l359 480h245l-516 -656l254 -709h-263l-163 514l-390 -514h-250z" />
    <glyph glyph-name="Y" unicode="Y" horiz-adv-x="1068" 
d="M423 0l116 545l-253 820h253l164 -597l414 597h246l-599 -822l-116 -543h-225z" />
    <glyph glyph-name="Z" unicode="Z" horiz-adv-x="1098" 
d="M87 0l39 183l867 992h-606l41 190h875l-39 -178l-871 -997h677l-41 -190h-942z" />
    <glyph glyph-name="bracketleft" unicode="[" horiz-adv-x="631" 
d="M833 1365l-35 -166h-191l-296 -1387h191l-34 -166h-369l366 1719h368z" />
    <glyph glyph-name="backslash" unicode="\" horiz-adv-x="798" 
d="M574 -354l-184 1719h170l186 -1719h-172z" />
    <glyph glyph-name="bracketright" unicode="]" horiz-adv-x="631" 
d="M378 1365h368l-365 -1719h-369l35 166h192l296 1387h-192z" />
    <glyph glyph-name="asciicircum" unicode="^" horiz-adv-x="1071" 
d="M432 748h-199l471 622h246l205 -622h-200l-161 474z" />
    <glyph glyph-name="underscore" unicode="_" horiz-adv-x="1065" 
d="M38 -107h942l-37 -176h-942z" />
    <glyph glyph-name="grave" unicode="`" horiz-adv-x="982" 
d="M527 1365h190l122 -272h-174z" />
    <glyph glyph-name="a" unicode="a" horiz-adv-x="1000" 
d="M981 142l-30 -142q-65 -25 -139 -25q-61 0 -88 24t-33 84q-134 -112 -314 -112q-122 0 -194.5 59t-72.5 157q0 104 68.5 194.5t179.5 134.5q69 27 154 38t265 16l23 107q3 14 3 30q0 57 -36 82.5t-117 25.5q-91 0 -132.5 -24t-63.5 -89h-203q73 269 444 269
q124 0 206 -47q105 -60 105 -184q0 -56 -29 -194l-70 -327q-8 -38 -8 -52q0 -36 37 -36q19 0 45 11zM753 454q-160 -7 -246 -31q-77 -22 -127.5 -77t-50.5 -117q0 -102 133 -102q118 0 202 103q55 67 72 149z" />
    <glyph glyph-name="b" unicode="b" horiz-adv-x="1075" 
d="M129 0l290 1365h201l-112 -527q123 133 293 133q120 0 204 -71q113 -95 113 -296q0 -245 -142 -433q-151 -200 -373 -200q-173 0 -251 135l-23 -106h-200zM726 801q-62 0 -121.5 -37.5t-100.5 -102.5q-39 -60 -63.5 -149.5t-24.5 -171.5q0 -96 52 -150q46 -49 120 -49
q139 0 232 158q79 135 79 297q0 111 -57 164q-44 41 -116 41z" />
    <glyph glyph-name="c" unicode="c" horiz-adv-x="960" 
d="M772 332h210q-59 -174 -180.5 -267.5t-289.5 -93.5q-170 0 -267 94t-97 260q0 122 41 241.5t113 209.5q74 91 175 142q106 53 226 53q153 0 247 -78q86 -72 89 -195v-51h-215q-6 64 -20 88q-38 66 -127 66q-141 0 -232 -143q-86 -138 -86 -316q0 -96 45 -148.5t128 -52.5
q81 0 143.5 49.5t96.5 141.5z" />
    <glyph glyph-name="d" unicode="d" horiz-adv-x="1075" 
d="M946 0h-203l23 106q-122 -135 -305 -135q-154 0 -235 105q-77 100 -77 262q0 122 41 242t112 208q73 89 176 138q97 45 196 45q179 0 249 -133l113 527h200zM674 801q-135 0 -226 -138q-88 -134 -88 -303q0 -111 52 -169q46 -50 124 -50q72 0 136.5 41.5t108.5 116.5
q77 130 77 297q0 110 -62 163q-48 42 -122 42z" />
    <glyph glyph-name="e" unicode="e" horiz-adv-x="986" 
d="M1011 420h-645q-5 -55 -5 -82q0 -96 50 -151.5t137 -55.5q143 0 198 117h203q-29 -75 -76 -127q-133 -150 -346 -150q-217 0 -310 157q-56 95 -56 233q0 112 37.5 224.5t102.5 196.5q147 189 374 189q171 0 267 -108q89 -100 89 -285q0 -77 -20 -158zM827 559q1 38 1 55
q0 91 -43 143q-46 56 -117 56q-88 0 -158 -66t-111 -188h428z" />
    <glyph glyph-name="f" unicode="f" horiz-adv-x="556" 
d="M162 0l167 782h-149l33 160h148l29 137q35 162 97 227q87 90 237 90q40 0 112 -12l-35 -168q-45 10 -74 10q-61 0 -90.5 -35t-49.5 -132l-25 -117h168l-33 -160h-167l-167 -782h-201z" />
    <glyph glyph-name="g" unicode="g" horiz-adv-x="1055" 
d="M76 -106h208q0 -37 15 -53q38 -46 145 -46q118 0 189 73.5t105 229.5l10 49q-114 -139 -288 -139q-139 0 -221 86q-90 95 -90 261q0 117 39.5 232.5t108.5 200.5q150 183 372 183q177 0 244 -139l24 110h188l-162 -763q-31 -145 -64 -225t-89 -144q-142 -165 -390 -165
q-155 0 -253 51q-94 49 -94 150q0 19 3 48zM660 801q-131 0 -219 -140q-78 -125 -78 -277q0 -96 45 -151t123 -55q136 0 228 145q80 125 80 279q0 94 -47 146.5t-132 52.5z" />
    <glyph glyph-name="h" unicode="h" horiz-adv-x="1044" 
d="M131 0l290 1365h201l-114 -534q126 140 297 140q120 0 189 -62t69 -170q0 -61 -22 -163l-122 -576h-201l122 575q16 75 16 105q0 121 -137 121q-115 0 -195 -96q-33 -39 -53.5 -92.5t-42.5 -158.5l-96 -454h-201z" />
    <glyph glyph-name="i" unicode="i" horiz-adv-x="528" 
d="M398 1164l43 201h213l-44 -201h-212zM157 0l200 942h201l-200 -942h-201z" />
    <glyph glyph-name="j" unicode="j" horiz-adv-x="547" 
d="M-43 -349l35 166q29 -6 50 -6q57 0 83 34t48 139l204 958h201l-202 -948q-37 -178 -79 -239q-74 -110 -231 -110q-35 0 -109 6zM417 1164l44 201h213l-44 -201h-213z" />
    <glyph glyph-name="k" unicode="k" horiz-adv-x="982" 
d="M134 0l290 1365h201l-162 -762l413 339h252l-434 -348l268 -594h-254l-193 452l-102 -82l-78 -370h-201z" />
    <glyph glyph-name="l" unicode="l" horiz-adv-x="531" 
d="M165 0l290 1365h201l-290 -1365h-201z" />
    <glyph glyph-name="m" unicode="m" horiz-adv-x="1507" 
d="M113 0l200 942h196l-25 -114q132 143 294 143q177 0 216 -151q135 151 308 151q118 0 187 -66q60 -58 60 -151q0 -52 -14 -119l-135 -635h-201l123 579q17 79 17 116q0 50 -32 78t-89 28q-124 0 -197 -118q-30 -48 -57 -177l-108 -506h-201l124 583q15 69 15 109
q0 109 -109 109q-59 0 -114 -32.5t-90 -89.5q-34 -54 -60 -173l-107 -506h-201z" />
    <glyph glyph-name="n" unicode="n" horiz-adv-x="1044" 
d="M131 0l200 942h196l-26 -119q131 148 310 148q119 0 187 -61t68 -168q0 -48 -21 -148l-126 -594h-201l117 549q19 91 19 134q0 37 -14 62q-31 56 -117 56q-66 0 -124.5 -33.5t-95.5 -91.5q-41 -65 -71 -203l-100 -473h-201z" />
    <glyph glyph-name="o" unicode="o" horiz-adv-x="1028" 
d="M708 971q162 0 262 -91q112 -103 112 -287q0 -122 -42.5 -241t-115.5 -204q-154 -177 -391 -177q-228 0 -325 155q-60 94 -60 228q0 238 139 415q160 202 421 202zM680 801q-70 0 -134.5 -40.5t-110.5 -112.5q-80 -129 -80 -298q0 -119 70 -172q49 -37 120 -37
q140 0 231 130q43 62 69 150.5t26 172.5q0 97 -51 152t-140 55z" />
    <glyph glyph-name="p" unicode="p" horiz-adv-x="1075" 
d="M54 -354l276 1296h203l-22 -106q119 135 299 135q157 0 241 -107q80 -101 80 -266q0 -121 -40.5 -239.5t-112.5 -205.5q-72 -89 -172 -137q-95 -45 -196 -45q-185 0 -258 133l-97 -458h-201zM737 801q-68 0 -133.5 -42.5t-107.5 -115.5q-35 -58 -56 -140t-21 -156
q0 -110 62 -164q49 -42 119 -42q140 0 232 138q88 133 88 305q0 103 -48 160t-135 57z" />
    <glyph glyph-name="q" unicode="q" horiz-adv-x="1075" 
d="M670 -354l97 458q-118 -133 -287 -133q-125 0 -212 68q-122 96 -122 298q0 244 138 432q148 202 368 202q195 0 269 -135l22 106h203l-276 -1296h-200zM672 801q-141 0 -236 -158q-79 -133 -79 -289q0 -119 61 -172q48 -41 117 -41q143 0 235 140q41 60 65 146.5
t24 169.5q0 94 -50.5 149t-136.5 55z" />
    <glyph glyph-name="r" unicode="r" horiz-adv-x="660" 
d="M131 0l200 942h194l-33 -156q126 185 314 185q10 0 57 -2l-43 -205q-51 6 -77 6q-147 0 -241 -134q-51 -73 -89 -255l-81 -381h-201z" />
    <glyph glyph-name="s" unicode="s" horiz-adv-x="889" 
d="M118 268h212q-2 -19 -2 -30q0 -52 41 -81.5t112 -29.5q88 0 144.5 45t56.5 116q0 62 -70 98q-32 16 -168 49q-109 27 -168 85.5t-59 140.5q0 135 110.5 222.5t282.5 87.5q178 0 271 -85q61 -55 61 -136q0 -21 -3 -50h-217q1 14 1 19q0 46 -36.5 74t-96.5 28
q-73 0 -121.5 -39.5t-48.5 -99.5q0 -44 31 -67t118 -44q157 -38 214 -72q110 -66 110 -186q0 -131 -110 -233q-118 -109 -318 -109q-188 0 -273 79q-34 31 -54.5 81t-20.5 101q0 14 1 36z" />
    <glyph glyph-name="t" unicode="t" horiz-adv-x="588" 
d="M179 782l33 160h150l25 117l188 196h54l-67 -313h177l-34 -160h-175l-104 -490q-14 -64 -14 -86q0 -56 78 -56q36 0 83 14l-35 -164q-57 -20 -150 -20q-189 0 -189 142q0 48 22 151l109 509h-151z" />
    <glyph glyph-name="u" unicode="u" horiz-adv-x="1044" 
d="M913 0h-189l26 119q-133 -148 -307 -148q-121 0 -188.5 61t-67.5 170q0 54 20 146l126 594h201l-117 -549q-19 -91 -19 -136q0 -35 14 -60q31 -56 114 -56q63 0 121 33.5t94 91.5q41 64 71 203l101 473h200z" />
    <glyph glyph-name="v" unicode="v" horiz-adv-x="913" 
d="M341 0l-119 942h230l62 -708l357 708h220l-514 -942h-236z" />
    <glyph glyph-name="w" unicode="w" horiz-adv-x="1349" 
d="M303 0l-76 942h227l19 -688l295 688h214l11 -681l312 681h218l-475 -942h-218l-13 675l-294 -675h-220z" />
    <glyph glyph-name="x" unicode="x" horiz-adv-x="976" 
d="M30 0l434 496l-207 446h253l116 -281l240 281h243l-393 -436l230 -506h-254l-136 339l-279 -339h-247z" />
    <glyph glyph-name="y" unicode="y" horiz-adv-x="931" 
d="M36 -344l36 172q69 -13 108 -13q61 0 107 67q57 83 80 139l-145 921h232l74 -689l359 689h222l-520 -922q-125 -221 -186 -281q-95 -94 -227 -94q-56 0 -140 11z" />
    <glyph glyph-name="z" unicode="z" horiz-adv-x="956" 
d="M89 0l34 157l632 619h-468l36 166h731l-31 -144l-636 -632h529l-36 -166h-791z" />
    <glyph glyph-name="braceleft" unicode="{" horiz-adv-x="596" 
d="M304 504q45 -29 63.5 -61t18.5 -80q0 -42 -12 -100l-61 -287q-11 -50 -11 -90t34 -58.5t108 -18.5h27l-34 -164h-51q-121 0 -171 16q-48 16 -75.5 57t-27.5 95q0 52 13 113l69 326q12 55 12 78q0 81 -88 101l34 161q65 14 99.5 52.5t50.5 112.5l72 339q34 161 136 224
q78 48 243 46h50l-35 -164h-26q-104 0 -143.5 -32t-60.5 -133l-62 -293q-21 -97 -57 -147t-115 -93z" />
    <glyph glyph-name="bar" unicode="|" horiz-adv-x="1282" 
d="M822 1366h219l-362 -1708h-220z" />
    <glyph glyph-name="braceright" unicode="}" horiz-adv-x="596" 
d="M506 504q-48 33 -64 61.5t-16 82.5q0 49 10 96l62 293q11 50 11 87q0 40 -35 59t-109 19h-26l35 164h50q115 0 168 -17q107 -32 107 -155q0 -46 -11 -98l-72 -339q-1 -3 -1 -70q0 -74 80 -95l-34 -161q-66 -15 -100.5 -55t-51.5 -124l-70 -326q-36 -168 -135 -233
q-44 -28 -93.5 -38t-152.5 -10h-50l35 164h27q104 0 142.5 32t60.5 135l61 287q20 96 57.5 149t114.5 92z" />
    <glyph glyph-name="asciitilde" unicode="~" horiz-adv-x="1496" 
d="M617 1166l-92 90q160 249 332 249q77 0 219 -72q79 -41 110 -52t64 -11q93 0 202 140l92 -90q-61 -94 -116 -149q-103 -102 -219 -102q-37 0 -78.5 14.5t-131.5 58.5q-83 40 -115.5 51t-67.5 11q-49 0 -93 -30.5t-106 -107.5z" />
    <glyph glyph-name="Adieresis" unicode="&#xc4;" 
d="M751 1365h235l149 -1365h-237l-29 367h-438l-186 -367h-231zM522 549h332l-43 550zM1188 1675l-44 -201h-192l44 201h192zM862 1675l-43 -201h-192l44 201h191z" />
    <glyph glyph-name="Aring" unicode="&#xc5;" 
d="M751 1365h235l149 -1365h-237l-29 367h-438l-186 -367h-231zM522 549h332l-43 550zM896 1727q-40 0 -68 -29t-28 -71t27.5 -71t66.5 -29t67 29t28 71q0 41 -27.5 70.5t-65.5 29.5zM897 1821q80 0 137.5 -57t57.5 -137q0 -79 -57 -135q-58 -58 -141 -58t-140 56
q-58 58 -58 137q0 81 58.5 137.5t142.5 56.5z" />
    <glyph glyph-name="Ccedilla" unicode="&#xc7;" horiz-adv-x="1237" 
d="M653 -33l-44 -75q26 11 52 11q59 0 99 -38.5t40 -95.5q0 -76 -62 -127.5t-154 -51.5q-68 0 -108 29.5t-42 81.5h108q3 -31 49 -31q39 0 64.5 28t25.5 72q0 56 -57 56q-41 0 -58 -27h-108l104 178q-133 27 -215 116q-124 135 -124 383q0 166 50 328t141 291
q214 301 523 301q254 0 361 -199q51 -94 51 -200q0 -23 -4 -69h-226q-2 120 -33 175q-56 101 -177 101q-194 0 -327 -235q-130 -227 -130 -493q0 -160 64 -242q59 -75 169 -75q239 0 356 363h222q-54 -209 -186 -358q-175 -197 -409 -197h-8h-7z" />
    <glyph glyph-name="Eacute" unicode="&#xc9;" horiz-adv-x="1118" 
d="M171 0l290 1365h823l-41 -190h-598l-79 -374h553l-41 -190h-553l-88 -421h608l-41 -190h-833zM1173 1735l-240 -260h-171l225 260h186z" />
    <glyph glyph-name="Ntilde" unicode="&#xd1;" horiz-adv-x="1289" 
d="M171 0l290 1365h231l293 -1012l216 1012h208l-290 -1365h-232l-293 1007l-214 -1007h-209zM1201 1714h117q-84 -233 -232 -233q-59 0 -154 63q-48 31 -74 31q-53 0 -91 -94h-115q83 233 239 233q37 0 64.5 -11t80.5 -48q42 -29 70 -29q54 0 95 88z" />
    <glyph glyph-name="Odieresis" unicode="&#xd6;" horiz-adv-x="1320" 
d="M944 1397q187 0 308 -126q70 -73 106 -194q28 -94 28 -198q0 -156 -47.5 -314t-131.5 -283q-102 -151 -236 -232q-140 -83 -297 -83q-227 0 -350 167q-101 137 -101 348q0 197 75 398q95 255 290 398q161 119 356 119zM909 1205q-89 0 -176.5 -62t-151.5 -170
q-59 -99 -94 -236t-35 -266q0 -158 77 -240q67 -72 165 -72q196 0 331 230q61 103 96.5 238.5t35.5 264.5q0 152 -73 239q-63 74 -175 74zM1269 1675l-44 -201h-192l44 201h192zM943 1675l-43 -201h-192l44 201h191z" />
    <glyph glyph-name="Udieresis" unicode="&#xdc;" horiz-adv-x="1258" 
d="M440 1365h224l-166 -781q-29 -138 -29 -218q0 -207 201 -207q139 0 213 93t125 332l166 781h225l-170 -797q-35 -165 -70 -247q-151 -354 -513 -354q-223 0 -322 124q-80 99 -80 255q0 99 37 275zM1242 1675l-44 -201h-192l44 201h192zM916 1675l-43 -201h-192l44 201
h191z" />
    <glyph glyph-name="aacute" unicode="&#xe1;" horiz-adv-x="1000" 
d="M981 142l-30 -142q-65 -25 -139 -25q-61 0 -88 24t-33 84q-134 -112 -314 -112q-122 0 -194.5 59t-72.5 157q0 104 68.5 194.5t179.5 134.5q69 27 154 38t265 16l23 107q3 14 3 30q0 57 -36 82.5t-117 25.5q-91 0 -132.5 -24t-63.5 -89h-203q73 269 444 269
q124 0 206 -47q105 -60 105 -184q0 -56 -29 -194l-70 -327q-8 -38 -8 -52q0 -36 37 -36q19 0 45 11zM753 454q-160 -7 -246 -31q-77 -22 -127.5 -77t-50.5 -117q0 -102 133 -102q118 0 202 103q55 67 72 149zM1038 1365l-255 -273h-174l238 273h191z" />
    <glyph glyph-name="agrave" unicode="&#xe0;" horiz-adv-x="1000" 
d="M981 142l-30 -142q-65 -25 -139 -25q-61 0 -88 24t-33 84q-134 -112 -314 -112q-122 0 -194.5 59t-72.5 157q0 104 68.5 194.5t179.5 134.5q69 27 154 38t265 16l23 107q3 14 3 30q0 57 -36 82.5t-117 25.5q-91 0 -132.5 -24t-63.5 -89h-203q73 269 444 269
q124 0 206 -47q105 -60 105 -184q0 -56 -29 -194l-70 -327q-8 -38 -8 -52q0 -36 37 -36q19 0 45 11zM753 454q-160 -7 -246 -31q-77 -22 -127.5 -77t-50.5 -117q0 -102 133 -102q118 0 202 103q55 67 72 149zM528 1365h190l122 -272h-174z" />
    <glyph glyph-name="acircumflex" unicode="&#xe2;" horiz-adv-x="1000" 
d="M981 142l-30 -142q-65 -25 -139 -25q-61 0 -88 24t-33 84q-134 -112 -314 -112q-122 0 -194.5 59t-72.5 157q0 104 68.5 194.5t179.5 134.5q69 27 154 38t265 16l23 107q3 14 3 30q0 57 -36 82.5t-117 25.5q-91 0 -132.5 -24t-63.5 -89h-203q73 269 444 269
q124 0 206 -47q105 -60 105 -184q0 -56 -29 -194l-70 -327q-8 -38 -8 -52q0 -36 37 -36q19 0 45 11zM753 454q-160 -7 -246 -31q-77 -22 -127.5 -77t-50.5 -117q0 -102 133 -102q118 0 202 103q55 67 72 149zM1003 1093h-179l-56 153l-125 -153h-166l226 272h189z" />
    <glyph glyph-name="adieresis" unicode="&#xe4;" horiz-adv-x="1000" 
d="M1044 1311l-44 -201h-203l44 201h203zM688 1311l-44 -201h-192l44 201h192zM981 142l-30 -142q-65 -25 -139 -25q-61 0 -88 24t-33 84q-134 -112 -314 -112q-122 0 -194.5 59t-72.5 157q0 104 68.5 194.5t179.5 134.5q69 27 154 38t265 16l23 107q3 14 3 30
q0 57 -36 82.5t-117 25.5q-91 0 -132.5 -24t-63.5 -89h-203q73 269 444 269q124 0 206 -47q105 -60 105 -184q0 -56 -29 -194l-70 -327q-8 -38 -8 -52q0 -36 37 -36q19 0 45 11zM753 454q-160 -7 -246 -31q-77 -22 -127.5 -77t-50.5 -117q0 -102 133 -102q118 0 202 103
q55 67 72 149z" />
    <glyph glyph-name="atilde" unicode="&#xe3;" horiz-adv-x="1001" 
d="M981 142l-30 -142q-65 -25 -139 -25q-61 0 -88 24t-33 84q-134 -112 -314 -112q-122 0 -194.5 59t-72.5 157q0 104 68.5 194.5t179.5 134.5q69 27 154 38t265 16l23 107q3 14 3 30q0 57 -36 82.5t-117 25.5q-91 0 -132.5 -24t-63.5 -89h-203q73 269 444 269
q124 0 206 -47q105 -60 105 -184q0 -56 -29 -194l-70 -327q-8 -38 -8 -52q0 -36 37 -36q19 0 45 11zM753 454q-160 -7 -246 -31q-77 -22 -127.5 -77t-50.5 -117q0 -102 133 -102q118 0 202 103q55 67 72 149zM1088 1365q-81 -247 -238 -247q-53 0 -149 51q-47 25 -70 25
q-46 0 -80 -80l-4 -8h-127q20 67 52 119q78 130 189 130q40 0 64 -9.5t111 -60.5q21 -12 41 -12q47 0 82 92h129z" />
    <glyph glyph-name="aring" unicode="&#xe5;" horiz-adv-x="1000" 
d="M981 142l-30 -142q-65 -25 -139 -25q-61 0 -88 24t-33 84q-134 -112 -314 -112q-122 0 -194.5 59t-72.5 157q0 104 68.5 194.5t179.5 134.5q69 27 154 38t265 16l23 107q3 14 3 30q0 57 -36 82.5t-117 25.5q-91 0 -132.5 -24t-63.5 -89h-203q73 269 444 269
q124 0 206 -47q105 -60 105 -184q0 -56 -29 -194l-70 -327q-8 -38 -8 -52q0 -36 37 -36q19 0 45 11zM753 454q-160 -7 -246 -31q-77 -22 -127.5 -77t-50.5 -117q0 -102 133 -102q118 0 202 103q55 67 72 149zM730 1356q-43 0 -72.5 -29t-29.5 -72q0 -41 29 -70.5t70 -29.5
q42 0 71.5 29.5t29.5 70.5q0 42 -29 71.5t-69 29.5zM731 1447q84 0 144 -56q61 -56 61 -136q0 -77 -60 -133q-61 -57 -148 -57t-147 56q-61 56 -61 134q0 81 61.5 136.5t149.5 55.5z" />
    <glyph glyph-name="ccedilla" unicode="&#xe7;" horiz-adv-x="960" 
d="M498 -29l-47 -79q28 12 53 12q60 0 99.5 -38.5t39.5 -95.5q0 -77 -62 -128.5t-154 -51.5q-68 0 -108.5 30t-41.5 81h108q3 -31 49 -31q39 0 64.5 28.5t25.5 71.5q0 56 -57 56q-40 0 -58 -27h-107l106 183q-80 16 -140 64q-120 96 -120 279q0 122 41 242t113 209
q159 195 401 195q153 0 247 -78q86 -72 89 -195v-51h-215q-6 64 -20 88q-38 66 -127 66q-141 0 -232 -143q-86 -138 -86 -316q0 -96 45 -148.5t128 -52.5q81 0 143.5 49.5t96.5 141.5h210q-58 -172 -181 -266.5t-289 -94.5h-7h-7z" />
    <glyph glyph-name="eacute" unicode="&#xe9;" horiz-adv-x="986" 
d="M1011 420h-645q-5 -55 -5 -82q0 -96 50 -151.5t137 -55.5q143 0 198 117h203q-29 -75 -76 -127q-133 -150 -346 -150q-217 0 -310 157q-56 95 -56 233q0 112 37.5 224.5t102.5 196.5q147 189 374 189q171 0 267 -108q89 -100 89 -285q0 -77 -20 -158zM827 559q1 38 1 55
q0 91 -43 143q-46 56 -117 56q-88 0 -158 -66t-111 -188h428zM1031 1365l-255 -273h-174l238 273h191z" />
    <glyph glyph-name="egrave" unicode="&#xe8;" horiz-adv-x="986" 
d="M1011 420h-645q-5 -55 -5 -82q0 -96 50 -151.5t137 -55.5q143 0 198 117h203q-29 -75 -76 -127q-133 -150 -346 -150q-217 0 -310 157q-56 95 -56 233q0 112 37.5 224.5t102.5 196.5q147 189 374 189q171 0 267 -108q89 -100 89 -285q0 -77 -20 -158zM827 559q1 38 1 55
q0 91 -43 143q-46 56 -117 56q-88 0 -158 -66t-111 -188h428zM519 1365h190l122 -272h-174z" />
    <glyph glyph-name="ecircumflex" unicode="&#xea;" horiz-adv-x="986" 
d="M1011 420h-645q-5 -55 -5 -82q0 -96 50 -151.5t137 -55.5q143 0 198 117h203q-29 -75 -76 -127q-133 -150 -346 -150q-217 0 -310 157q-56 95 -56 233q0 112 37.5 224.5t102.5 196.5q147 189 374 189q171 0 267 -108q89 -100 89 -285q0 -77 -20 -158zM827 559q1 38 1 55
q0 91 -43 143q-46 56 -117 56q-88 0 -158 -66t-111 -188h428zM988 1090h-179l-56 153l-125 -153h-166l226 272h189z" />
    <glyph glyph-name="edieresis" unicode="&#xeb;" horiz-adv-x="986" 
d="M1011 420h-645q-5 -55 -5 -82q0 -96 50 -151.5t137 -55.5q143 0 198 117h203q-29 -75 -76 -127q-133 -150 -346 -150q-217 0 -310 157q-56 95 -56 233q0 112 37.5 224.5t102.5 196.5q147 189 374 189q171 0 267 -108q89 -100 89 -285q0 -77 -20 -158zM827 559q1 38 1 55
q0 91 -43 143q-46 56 -117 56q-88 0 -158 -66t-111 -188h428zM1041 1311l-44 -201h-203l43 201h204zM684 1311l-43 -201h-192l44 201h191z" />
    <glyph glyph-name="iacute" unicode="&#xed;" horiz-adv-x="531" 
d="M165 0l200 942h201l-200 -942h-201zM818 1365l-255 -273h-174l238 273h191z" />
    <glyph glyph-name="igrave" unicode="&#xec;" horiz-adv-x="531" 
d="M165 0l200 942h201l-200 -942h-201zM312 1365h190l122 -272h-174z" />
    <glyph glyph-name="icircumflex" unicode="&#xee;" horiz-adv-x="531" 
d="M165 0l200 942h201l-200 -942h-201zM761 1093h-179l-56 153l-125 -153h-166l226 272h189z" />
    <glyph glyph-name="idieresis" unicode="&#xef;" horiz-adv-x="531" 
d="M165 0l200 942h201l-200 -942h-201zM766 1311l-44 -201h-174l43 201h175zM486 1311l-43 -201h-165l44 201h164z" />
    <glyph glyph-name="ntilde" unicode="&#xf1;" horiz-adv-x="1045" 
d="M131 0l200 942h196l-26 -119q131 148 310 148q119 0 187 -61t68 -168q0 -48 -21 -148l-126 -594h-201l117 549q19 91 19 134q0 37 -14 62q-31 56 -117 56q-66 0 -124.5 -33.5t-95.5 -91.5q-41 -65 -71 -203l-100 -473h-201zM1121 1365q-81 -247 -238 -247q-53 0 -149 51
q-47 25 -70 25q-46 0 -80 -80l-4 -8h-127q20 67 52 119q78 130 189 130q40 0 64 -9.5t111 -60.5q21 -12 41 -12q47 0 82 92h129z" />
    <glyph glyph-name="oacute" unicode="&#xf3;" horiz-adv-x="1028" 
d="M708 971q162 0 262 -91q112 -103 112 -287q0 -122 -42.5 -241t-115.5 -204q-154 -177 -391 -177q-228 0 -325 155q-60 94 -60 228q0 238 139 415q160 202 421 202zM680 801q-70 0 -134.5 -40.5t-110.5 -112.5q-80 -129 -80 -298q0 -119 70 -172q49 -37 120 -37
q140 0 231 130q43 62 69 150.5t26 172.5q0 97 -51 152t-140 55zM1061 1365l-255 -273h-174l238 273h191z" />
    <glyph glyph-name="ograve" unicode="&#xf2;" horiz-adv-x="1028" 
d="M708 971q162 0 262 -91q112 -103 112 -287q0 -122 -42.5 -241t-115.5 -204q-154 -177 -391 -177q-228 0 -325 155q-60 94 -60 228q0 238 139 415q160 202 421 202zM680 801q-70 0 -134.5 -40.5t-110.5 -112.5q-80 -129 -80 -298q0 -119 70 -172q49 -37 120 -37
q140 0 231 130q43 62 69 150.5t26 172.5q0 97 -51 152t-140 55zM557 1365h190l122 -272h-174z" />
    <glyph glyph-name="ocircumflex" unicode="&#xf4;" horiz-adv-x="1028" 
d="M708 971q162 0 262 -91q112 -103 112 -287q0 -122 -42.5 -241t-115.5 -204q-154 -177 -391 -177q-228 0 -325 155q-60 94 -60 228q0 238 139 415q160 202 421 202zM680 801q-70 0 -134.5 -40.5t-110.5 -112.5q-80 -129 -80 -298q0 -119 70 -172q49 -37 120 -37
q140 0 231 130q43 62 69 150.5t26 172.5q0 97 -51 152t-140 55zM1009 1093h-179l-56 153l-125 -153h-166l226 272h189z" />
    <glyph glyph-name="odieresis" unicode="&#xf6;" horiz-adv-x="1028" 
d="M708 971q162 0 262 -91q112 -103 112 -287q0 -122 -42.5 -241t-115.5 -204q-154 -177 -391 -177q-228 0 -325 155q-60 94 -60 228q0 238 139 415q160 202 421 202zM680 801q-70 0 -134.5 -40.5t-110.5 -112.5q-80 -129 -80 -298q0 -119 70 -172q49 -37 120 -37
q140 0 231 130q43 62 69 150.5t26 172.5q0 97 -51 152t-140 55zM1068 1311l-44 -201h-203l43 201h204zM711 1311l-43 -201h-192l44 201h191z" />
    <glyph glyph-name="otilde" unicode="&#xf5;" horiz-adv-x="1028" 
d="M708 971q162 0 262 -91q112 -103 112 -287q0 -122 -42.5 -241t-115.5 -204q-154 -177 -391 -177q-228 0 -325 155q-60 94 -60 228q0 238 139 415q160 202 421 202zM680 801q-70 0 -134.5 -40.5t-110.5 -112.5q-80 -129 -80 -298q0 -119 70 -172q49 -37 120 -37
q140 0 231 130q43 62 69 150.5t26 172.5q0 97 -51 152t-140 55zM1111 1365q-81 -247 -238 -247q-53 0 -149 51q-47 25 -70 25q-46 0 -80 -80l-4 -8h-127q20 67 52 119q78 130 189 130q40 0 64 -9.5t111 -60.5q21 -12 41 -12q47 0 82 92h129z" />
    <glyph glyph-name="uacute" unicode="&#xfa;" horiz-adv-x="1044" 
d="M913 0h-189l26 119q-133 -148 -307 -148q-121 0 -188.5 61t-67.5 170q0 54 20 146l126 594h201l-117 -549q-19 -91 -19 -136q0 -35 14 -60q31 -56 114 -56q63 0 121 33.5t94 91.5q41 64 71 203l101 473h200zM1074 1365l-255 -273h-174l238 273h191z" />
    <glyph glyph-name="ugrave" unicode="&#xf9;" horiz-adv-x="1044" 
d="M913 0h-189l26 119q-133 -148 -307 -148q-121 0 -188.5 61t-67.5 170q0 54 20 146l126 594h201l-117 -549q-19 -91 -19 -136q0 -35 14 -60q31 -56 114 -56q63 0 121 33.5t94 91.5q41 64 71 203l101 473h200zM553 1365h190l122 -272h-174z" />
    <glyph glyph-name="ucircumflex" unicode="&#xfb;" horiz-adv-x="1044" 
d="M913 0h-189l26 119q-133 -148 -307 -148q-121 0 -188.5 61t-67.5 170q0 54 20 146l126 594h201l-117 -549q-19 -91 -19 -136q0 -35 14 -60q31 -56 114 -56q63 0 121 33.5t94 91.5q41 64 71 203l101 473h200zM1014 1093h-179l-56 153l-125 -153h-166l226 272h189z" />
    <glyph glyph-name="udieresis" unicode="&#xfc;" horiz-adv-x="1044" 
d="M913 0h-189l26 119q-133 -148 -307 -148q-121 0 -188.5 61t-67.5 170q0 54 20 146l126 594h201l-117 -549q-19 -91 -19 -136q0 -35 14 -60q31 -56 114 -56q63 0 121 33.5t94 91.5q41 64 71 203l101 473h200zM1078 1311l-44 -201h-203l43 201h204zM721 1311l-43 -201h-192
l44 201h191z" />
    <glyph glyph-name="dagger" unicode="&#x2020;" horiz-adv-x="1025" 
d="M1117 981l-40 -190h-298l-246 -1156h-201l246 1156h-294l40 190h294l82 384h201l-82 -384h298z" />
    <glyph glyph-name="degree" unicode="&#xb0;" horiz-adv-x="1167" 
d="M813 1365q125 0 214 -86q88 -86 88 -209q0 -122 -87 -208q-89 -88 -214 -88q-126 0 -214 88q-88 86 -88 212q0 120 88 204q91 87 213 87zM813 1235q-66 0 -114 -48t-48 -115q0 -71 47 -119q48 -49 116 -49q67 0 114.5 49t47.5 117t-47.5 116.5t-115.5 48.5z" />
    <glyph glyph-name="cent" unicode="&#xa2;" horiz-adv-x="983" 
d="M839 1189q73 -14 125 -52q51 -37 80 -100t29 -138q0 -9 -1 -33h-204q2 16 2 23q0 84 -75 121l-160 -647q126 37 180 188h199q-55 -160 -165 -255t-258 -110l-36 -145h-140l37 152q-80 19 -134 71q-104 99 -104 285q0 114 36.5 227t101.5 201q134 180 347 213l33 135h141z
M498 379l156 629q-62 -23 -110 -82q-54 -66 -86.5 -167.5t-32.5 -202.5q0 -125 73 -177z" />
    <glyph glyph-name="sterling" unicode="&#xa3;" horiz-adv-x="901" 
d="M100 -27l-66 124q139 98 216.5 217t83.5 243h-192l36 166h126q-6 15 -22 56q-37 94 -37 178q0 169 127 298q134 137 339 137q200 0 292 -103q69 -77 69 -200q0 -28 -4 -75h-211q4 31 4 50q0 158 -167 158q-121 0 -190 -106q-48 -75 -48 -156q0 -60 41 -159q20 -49 31 -78
h296l-36 -166h-236q-12 -109 -70 -192.5t-202 -197.5q127 73 196 73q36 0 86 -36q32 -22 60 -22q82 0 123 142h196q-35 -165 -121.5 -259t-202.5 -94q-68 0 -161 44q-74 36 -124 36q-84 0 -232 -78z" />
    <glyph glyph-name="section" unicode="&#xa7;" horiz-adv-x="1033" 
d="M1078 1057h-187q4 28 4 43q0 124 -112 124q-69 0 -116.5 -49t-47.5 -121q0 -42 26 -77.5t99 -93.5l155 -122q144 -113 144 -252q0 -105 -66 -196.5t-174 -137.5q51 -85 51 -170q0 -149 -110 -261q-112 -113 -277 -113q-130 0 -208 63q-45 36 -71 93.5t-26 120.5
q0 28 6 78h189q-6 -36 -6 -58q0 -56 35 -88.5t97 -32.5q83 0 134 64q40 52 40 111q0 45 -22 78q-37 55 -137 135l-127 102q-85 68 -117.5 125.5t-32.5 140.5q0 111 66 201t173 124q-38 80 -38 154q0 150 118 257q108 97 260 97q132 0 206 -72q78 -76 78 -209q0 -27 -6 -58z
M536 782q-56 -24 -91.5 -76t-35.5 -111q0 -58 63 -116q37 -34 199 -165l48 -38q54 21 95 79.5t41 115.5t-61 110q-71 62 -201 156z" />
    <glyph glyph-name="bullet" unicode="&#x2022;" horiz-adv-x="740" 
d="M316 521v394h395v-394h-395z" />
    <glyph glyph-name="paragraph" unicode="&#xb6;" horiz-adv-x="1288" 
d="M455 -231l188 884h-20q-120 0 -196 86t-76 222q0 91 40 173.5t110 138.5q63 50 140 71t200 21h497l-24 -115h-93l-315 -1481h-161l315 1481h-129l-315 -1481h-161z" />
    <glyph glyph-name="germandbls" unicode="&#xdf;" horiz-adv-x="992" 
d="M319 0h-201l167 782h-124l33 160h124q32 141 66.5 213t97.5 129q124 112 305 112q151 0 233 -84q61 -63 61 -153q0 -75 -34 -128.5t-137 -144.5q-83 -72 -83 -138q0 -35 14 -64t53 -77q58 -72 82.5 -127t24.5 -115q0 -164 -142 -279q-131 -106 -317 -106q-75 0 -135 20
l36 170q60 -28 124 -28q98 0 160.5 58.5t62.5 149.5q0 48 -17.5 89t-67.5 111q-75 103 -75 169q0 47 27 92.5t98 119.5q67 68 91 109.5t24 85.5q0 45 -34 72.5t-90 27.5q-98 0 -159 -83q-36 -50 -68 -199z" />
    <glyph glyph-name="registered" unicode="&#xae;" horiz-adv-x="1469" 
d="M501 272l174 820h304q125 0 180 -58q47 -51 47 -128q0 -78 -40 -140t-114 -101q57 -44 57 -114q0 -48 -15 -153q-5 -40 -5 -58q0 -31 19 -68h-170q-9 21 -9 46q0 19 9 84q11 77 11 107q0 45 -18 64q-23 25 -96 25h-104l-70 -326h-160zM758 729h103q92 0 127 29
q52 43 52 119q0 41 -26.5 58.5t-88.5 17.5h-119zM997 1268q-158 0 -318 -111q-176 -122 -267 -329q-62 -140 -62 -281q0 -158 77 -278q55 -86 149 -132q79 -39 174 -39q178 0 339 117q176 127 262 330q58 136 58 275q0 159 -77 277q-111 171 -335 171zM1008 1386
q192 0 333 -121q193 -165 193 -455q0 -304 -214 -550q-112 -129 -252 -202q-151 -78 -314 -78q-180 0 -317 105q-99 76 -155.5 202t-56.5 272q0 160 72 321q107 238 314 378q188 128 397 128z" />
    <glyph glyph-name="copyright" unicode="&#xa9;" horiz-adv-x="1469" 
d="M1015 604h157q-37 -142 -115 -230q-106 -120 -252 -120q-160 0 -229 119q-48 83 -48 196q0 203 113 361q129 180 316 180q121 0 194 -82q65 -74 65 -172q0 -19 -2 -45h-159q1 19 1 36q0 56 -31 90t-83 34q-105 0 -179 -128q-73 -127 -73 -276q0 -174 129 -174t196 211z
M997 1268q-158 0 -319 -111q-174 -121 -266 -330q-62 -139 -62 -280q0 -158 77 -278q55 -86 149 -132q79 -39 174 -39q178 0 339 117q176 127 262 330q58 136 58 275q0 159 -77 277q-111 171 -335 171zM1008 1386q192 0 333 -121q193 -165 193 -455q0 -304 -214 -550
q-112 -129 -252 -202q-151 -78 -314 -78q-180 0 -317 105q-99 76 -155.5 202t-56.5 272q0 160 72 321q107 238 314 378q188 128 397 128z" />
    <glyph glyph-name="trademark" unicode="&#x2122;" horiz-adv-x="1493" 
d="M346 547l145 679h-210l30 139h579l-30 -139h-209l-145 -679h-160zM785 547l174 818h203l45 -581l288 581h202l-174 -818h-150l114 539l-268 -539h-132l-37 536l-114 -536h-151z" />
    <glyph glyph-name="acute" unicode="&#xb4;" horiz-adv-x="982" 
d="M1045 1365l-255 -273h-174l238 273h191z" />
    <glyph glyph-name="dieresis" unicode="&#xa8;" horiz-adv-x="982" 
d="M1048 1311l-44 -201h-203l43 201h204zM691 1311l-43 -201h-192l44 201h191z" />
    <glyph glyph-name="notequal" unicode="&#x2260;" horiz-adv-x="1065" 
d="M422 238l-131 87l84 107h-222l37 176h322l133 162h-420l37 176h520l153 194l132 -87l-85 -107h222l-36 -176h-323l-132 -162h419l-37 -176h-519z" />
    <glyph glyph-name="AE" unicode="&#xc6;" horiz-adv-x="1635" 
d="M779 367h-298l-223 -367h-234l859 1365h917l-41 -190h-598l-79 -374h553l-41 -190h-553l-88 -421h608l-41 -190h-819zM817 549l121 566l-347 -566h226z" />
    <glyph glyph-name="Oslash" unicode="&#xd8;" horiz-adv-x="1320" 
d="M294 163q-71 124 -71 288q0 204 77 412q98 263 301 412q167 122 358 122q160 0 268 -89l73 89h176l-160 -196q70 -134 70 -322q0 -156 -49 -314t-136 -283q-105 -150 -245 -231q-144 -84 -304 -84q-156 0 -267 88l-71 -88h-179zM465 356l621 776q-65 72 -169 72
q-95 0 -181.5 -60t-153.5 -172q-57 -95 -93.5 -231.5t-36.5 -255.5q0 -76 13 -129zM1146 1004l-615 -775q65 -69 162 -69q197 0 332 230q59 100 95.5 235t36.5 256q0 63 -11 123z" />
    <glyph glyph-name="infinity" unicode="&#x221e;" horiz-adv-x="1404" 
d="M842 617q-52 -74 -95 -118q-106 -112 -251 -112q-133 0 -216.5 88t-83.5 227q0 130 80 213q87 91 221 91q186 0 341 -229q50 72 94 117q110 112 251 112q145 0 230 -102q71 -84 71 -210q0 -135 -83 -219q-86 -87 -218 -87q-98 0 -178 54t-163 175zM904 697
q69 -108 130.5 -154.5t136.5 -46.5q83 0 136 56.5t53 145.5q0 95 -63 151q-54 48 -128 48t-134 -45.5t-131 -154.5zM777 696q-70 108 -132 154.5t-138 46.5q-82 0 -134.5 -56.5t-52.5 -144.5q0 -97 63 -153q54 -47 128 -47q75 0 132.5 43.5t133.5 156.5z" />
    <glyph glyph-name="plusminus" unicode="&#xb1;" horiz-adv-x="1065" 
d="M232 803h380l76 354h181l-76 -354h381l-37 -176h-380l-76 -351h-188l74 345h-374zM98 176h942l-37 -176h-942z" />
    <glyph glyph-name="lessequal" unicode="&#x2264;" horiz-adv-x="1081" 
d="M1226 1137l-44 -205l-698 -239l597 -238l-43 -205l-813 351l39 186zM1025 190l-41 -190h-887l41 190h887z" />
    <glyph glyph-name="greaterequal" unicode="&#x2265;" horiz-adv-x="1081" 
d="M339 1137l813 -350l-40 -187l-962 -350l44 205l699 238l-598 239zM138 190h887l-41 -190h-887z" />
    <glyph glyph-name="yen" unicode="&#xa5;" horiz-adv-x="1106" 
d="M659 0h-209l58 272h-240l31 145h239l22 102h-240l31 145h237l-217 701h241l133 -483l336 483h235l-512 -701h233l-31 -145h-237l-22 -102h237l-31 -145h-236z" />
    <glyph glyph-name="mu" unicode="&#xb5;" horiz-adv-x="1058" 
d="M280 -354h-201l276 1296h201l-117 -549q-20 -93 -20 -141q0 -52 30 -81.5t82 -29.5q59 0 111.5 33.5t86.5 91.5q38 65 68 203l100 473h201l-200 -942h-189l24 111q-122 -140 -275 -140q-59 0 -101 36z" />
    <glyph glyph-name="partialdiff" unicode="&#x2202;" horiz-adv-x="1043" 
d="M838 940q-54 125 -107.5 196t-147.5 141l96 117q71 -38 138.5 -102.5t113.5 -137.5q65 -105 102.5 -238t37.5 -260q0 -167 -57 -320q-73 -196 -228 -293q-114 -72 -253 -72q-165 0 -256 94q-97 98 -97 278q0 114 36.5 225.5t101.5 198.5q75 99 179 152q99 52 206 52
q67 0 135 -31zM689 801q-63 0 -123 -40.5t-103 -113.5q-80 -135 -80 -310q0 -91 45.5 -143.5t123.5 -52.5q128 0 214 131q42 64 68 155.5t26 178.5q0 91 -45.5 143t-125.5 52z" />
    <glyph glyph-name="summation" unicode="&#x2211;" horiz-adv-x="1434" 
d="M1597 1536l-104 -489h-188l42 299h-731l336 -797l-688 -871h748l76 304h197l-104 -494h-1191l47 220l670 841l-328 770l46 217h1172z" />
    <glyph glyph-name="product" unicode="&#x220f;" horiz-adv-x="1411" 
d="M398 1536h1268l-36 -166h-150l-363 -1716h149l-35 -166h-485l36 166h147l364 1716h-593l-364 -1716h145l-36 -166h-482l36 166h151l364 1716h-152z" />
    <glyph glyph-name="_002" horiz-adv-x="531" 
 />
    <glyph glyph-name="integral" unicode="&#x222b;" horiz-adv-x="1137" 
d="M113 -490l81 195q43 -23 78 -23q82 0 119 63q20 33 57 207l231 1092q50 234 83 302q43 88 132 139t200 51q52 0 149 -21l-81 -196q-45 20 -81 20q-72 0 -111 -54q-24 -35 -49 -149l-257 -1209q-34 -163 -60 -225t-80 -110q-116 -103 -277 -103q-69 0 -134 21z" />
    <glyph glyph-name="ordfeminine" unicode="&#xaa;" horiz-adv-x="587" 
d="M704 662l-22 -105q-45 -27 -90 -27q-63 0 -79 52q-76 -54 -159 -54q-75 0 -119.5 39.5t-44.5 106.5t39.5 119.5t108.5 79.5q68 26 226 29l7 33q5 25 5 35q0 45 -72 45q-44 0 -67 -16t-36 -55h-140q46 190 259 190q92 0 144.5 -38.5t52.5 -105.5q0 -30 -18 -114l-40 -190
q-5 -21 -5 -26q0 -11 16 -11q12 0 34 13zM543 807q-74 -4 -117 -16q-38 -11 -62.5 -39t-24.5 -59q0 -47 62 -47q44 0 84.5 39t51.5 94z" />
    <glyph glyph-name="ordmasculine" unicode="&#xba;" horiz-adv-x="614" 
d="M533 1137q97 0 160 -60q67 -64 67 -178q0 -157 -91 -263t-226 -106q-106 0 -167 61q-65 65 -65 182q0 139 80 244q92 120 242 120zM521 1012q-68 0 -115 -81q-43 -74 -43 -172q0 -104 86 -104q64 0 109 68q50 78 50 185q0 104 -87 104z" />
    <glyph glyph-name="Omega" unicode="&#x2126;" horiz-adv-x="1320" 
d="M116 0l39 182h215q-133 146 -133 370q0 248 116 456q113 201 303 310q135 78 284 78q235 0 357 -177q95 -138 95 -324q0 -205 -89 -396t-244 -317h183l-38 -182h-458l35 169q134 86 222 213q160 233 160 487q0 80 -24 153t-65 116q-61 65 -152 65q-111 0 -215 -85
q-130 -105 -197 -288q-54 -148 -54 -296q0 -233 154 -365l-36 -169h-458z" />
    <glyph glyph-name="ae" unicode="&#xe6;" horiz-adv-x="1491" 
d="M1537 426h-630q-10 -55 -10 -98q0 -201 176 -201q71 0 116.5 27.5t81.5 91.5h202q-29 -73 -75 -125q-135 -150 -346 -150q-118 0 -192 43.5t-119 138.5q-97 -98 -180.5 -140t-182.5 -42q-133 0 -215 68q-73 61 -73 165q0 98 66 181t176 123q69 25 149.5 34.5t259.5 14.5
l18 90q7 32 7 61q0 107 -143 107q-83 0 -125.5 -25.5t-63.5 -87.5h-204q25 96 90 160q112 110 318 110q227 0 302 -123q131 122 291 122q154 0 245 -103q82 -94 82 -273q0 -79 -21 -169zM714 433q-155 -7 -236 -28q-75 -20 -122 -69t-47 -108q0 -101 126 -101q113 0 196 103
q53 67 71 149zM1352 557q3 39 3 63q0 87 -41 141t-114 54q-178 0 -261 -258h413z" />
    <glyph glyph-name="oslash" unicode="&#xf8;" horiz-adv-x="1019" 
d="M191 135q-46 95 -46 219q0 235 139 413q159 204 414 204q144 0 241 -66l59 66h183l-152 -164q47 -87 47 -213q0 -122 -42 -240.5t-116 -203.5q-154 -179 -391 -179q-143 0 -244 64l-58 -64h-187zM366 306l426 453q-19 18 -57 30t-75 12q-77 0 -142 -50.5t-105 -143.5
q-49 -113 -49 -259q0 -20 2 -42zM855 632l-426 -451q51 -40 138 -40q130 0 214 123t84 275q0 43 -10 93z" />
    <glyph glyph-name="questiondown" unicode="&#xbf;" horiz-adv-x="983" 
d="M886 14q-19 -86 -42.5 -137.5t-66.5 -101.5q-124 -144 -319 -144q-153 0 -243.5 82t-90.5 220q0 151 85 253q50 60 185 153q70 48 99.5 93.5t49.5 134.5h185q-16 -117 -62 -196q-23 -40 -53 -69t-138 -113q-70 -55 -101 -109t-31 -120q0 -64 37.5 -100.5t103.5 -36.5
q156 0 207 191h195zM837 942l-53 -248h-245l52 248h246z" />
    <glyph glyph-name="exclamdown" unicode="&#xa1;" horiz-adv-x="672" 
d="M154 -354l84 394l169 525h105l-61 -523l-84 -396h-213zM659 942l-52 -248h-246l52 248h246z" />
    <glyph glyph-name="logicalnot" unicode="&#xac;" horiz-adv-x="1081" 
d="M815 207l82 389h-674l41 190h887l-123 -579h-213z" />
    <glyph glyph-name="radical" unicode="&#x221a;" horiz-adv-x="1382" 
d="M1733 1694l-36 -176h-376l-753 -1518h-234l-34 569h-170l37 176h291l20 -264q2 -25 2 -58l-3 -190v-32h10q84 195 134.5 303.5t193.5 398.5l390 791h528z" />
    <glyph glyph-name="florin" unicode="&#x192;" horiz-adv-x="628" 
d="M194 -219h-203l355 1001h-116l33 160h138l54 154q54 153 120 215q91 85 229 85q48 0 119 -12l-60 -168q-38 10 -65 10q-56 0 -88 -33.5t-64 -125.5l-44 -125h149l-33 -160h-171z" />
    <glyph glyph-name="approxequal" unicode="&#x2248;" horiz-adv-x="1052" 
d="M297 712l-95 78q60 91 111 142q105 106 222 106q73 0 215 -72q124 -63 178 -63q93 0 199 128l94 -77q-62 -97 -119 -153q-101 -99 -212 -99q-40 0 -80 13.5t-130 57.5q-130 64 -185 64q-50 0 -95 -28t-103 -97zM215 326l-95 77q59 91 110 143q106 107 223 107
q74 0 215 -72q79 -40 111.5 -51.5t66.5 -11.5q51 0 95 28.5t103 98.5l95 -77q-64 -99 -119 -152q-101 -99 -213 -99q-39 0 -79.5 14t-130.5 57q-129 64 -185 64q-49 0 -93.5 -28.5t-103.5 -97.5z" />
    <glyph glyph-name="Delta" unicode="&#x2206;" 
d="M752 1366h235l148 -1366h-1113zM811 1099l-467 -917h540z" />
    <glyph glyph-name="guillemotleft" unicode="&#xab;" horiz-adv-x="845" 
d="M878 859l-44 -208l-181 -139l121 -142l-44 -207l-206 243l44 209zM567 858l-43 -204l-185 -140l125 -143l-45 -210l-209 248l44 206z" />
    <glyph glyph-name="guillemotright" unicode="&#xbb;" horiz-adv-x="845" 
d="M643 859l209 -250l-44 -206l-314 -243l44 205l184 139l-124 145zM331 856l206 -244l-43 -206l-310 -243l43 204l182 139l-122 142z" />
    <glyph glyph-name="ellipsis" unicode="&#x2026;" horiz-adv-x="1597" 
d="M474 248l-52 -248h-246l52 248h246zM974 248l-53 -248h-245l52 248h246zM1473 248l-52 -248h-246l53 248h245z" />
    <glyph glyph-name="_003" horiz-adv-x="1006" 
 />
    <glyph glyph-name="Agrave" unicode="&#xc0;" 
d="M751 1365h235l149 -1365h-237l-29 367h-438l-186 -367h-231zM522 549h332l-43 550zM699 1735h187l114 -260h-171z" />
    <glyph glyph-name="Atilde" unicode="&#xc3;" 
d="M751 1365h235l149 -1365h-237l-29 367h-438l-186 -367h-231zM522 549h332l-43 550zM1126 1714h117q-84 -233 -232 -233q-59 0 -154 63q-48 31 -74 31q-53 0 -91 -94h-115q83 233 239 233q37 0 64.5 -11t80.5 -48q42 -29 70 -29q54 0 95 88z" />
    <glyph glyph-name="Otilde" unicode="&#xd5;" horiz-adv-x="1320" 
d="M944 1397q187 0 308 -126q70 -73 106 -194q28 -94 28 -198q0 -156 -47.5 -314t-131.5 -283q-102 -151 -236 -232q-140 -83 -297 -83q-227 0 -350 167q-101 137 -101 348q0 197 75 398q95 255 290 398q161 119 356 119zM909 1205q-89 0 -176.5 -62t-151.5 -170
q-59 -99 -94 -236t-35 -266q0 -158 77 -240q67 -72 165 -72q196 0 331 230q61 103 96.5 238.5t35.5 264.5q0 152 -73 239q-63 74 -175 74zM1215 1714h117q-84 -233 -232 -233q-59 0 -154 63q-48 31 -74 31q-53 0 -91 -94h-115q83 233 239 233q37 0 64.5 -11t80.5 -48
q42 -29 70 -29q54 0 95 88z" />
    <glyph glyph-name="OE" unicode="&#x152;" horiz-adv-x="1849" 
d="M1193 1239l27 126h796l-41 -190h-592l-79 -374h547l-41 -190h-547l-88 -421h602l-41 -190h-806l26 124q-147 -157 -323 -157q-116 0 -210 62q-107 71 -155 192q-46 116 -46 250q0 203 75 409q95 260 280 398q156 118 328 118q194 0 288 -157zM883 1204q-82 0 -162 -61
t-142 -172q-58 -103 -93 -242.5t-35 -269.5q0 -148 66 -228q59 -72 152 -72q180 0 308 231q59 106 94.5 246t35.5 268q0 141 -63 226q-55 74 -161 74z" />
    <glyph glyph-name="oe" unicode="&#x153;" horiz-adv-x="1533" 
d="M1579 420h-630q-9 -57 -9 -96q0 -197 178 -197q141 0 197 121h203q-29 -73 -77 -126q-137 -151 -344 -151q-109 0 -180 40t-115 126q-59 -70 -113 -105q-94 -61 -216 -61q-130 0 -220 68q-126 96 -126 299q0 240 139 425q155 208 401 208q204 0 285 -148q140 148 317 148
q157 0 249 -105q84 -95 84 -275q0 -80 -23 -171zM632 801q-63 0 -121.5 -40.5t-101.5 -114.5q-79 -135 -79 -310q0 -107 58 -157q44 -38 107 -38q126 0 211 131q42 64 67.5 156.5t25.5 178.5q0 90 -45 142t-122 52zM1396 559q5 38 5 63q0 88 -42.5 140.5t-114.5 52.5
q-86 0 -153 -65.5t-108 -190.5h413z" />
    <glyph glyph-name="endash" unicode="&#x2013;" horiz-adv-x="1043" 
d="M1020 615l-41 -201h-739l42 201h738z" />
    <glyph glyph-name="emdash" unicode="&#x2014;" horiz-adv-x="1529" 
d="M1504 615l-42 -201h-1214l42 201h1214z" />
    <glyph glyph-name="quotedblleft" unicode="&#x201c;" horiz-adv-x="925" 
d="M357 852l38 181q37 175 123 255q90 84 198 98l-25 -118q-113 -28 -147 -168h111l-52 -248h-246zM685 852l38 181q37 175 123 255q90 84 198 98l-26 -118q-113 -28 -146 -168h111l-53 -248h-245z" />
    <glyph glyph-name="quotedblright" unicode="&#x201d;" horiz-adv-x="925" 
d="M712 1365l-38 -181q-55 -310 -321 -354l25 119q112 27 146 168h-110l52 248h246zM1040 1365l-38 -181q-56 -310 -321 -354l25 119q112 27 146 168h-110l52 248h246z" />
    <glyph glyph-name="quoteleft" unicode="&#x2018;" horiz-adv-x="598" 
d="M357 852l38 181q37 175 123 255q90 84 198 98l-25 -118q-113 -28 -147 -168h111l-52 -248h-246z" />
    <glyph glyph-name="quoteright" unicode="&#x2019;" horiz-adv-x="598" 
d="M712 1365l-38 -181q-55 -309 -321 -354l25 119q112 27 146 168h-110l52 248h246z" />
    <glyph glyph-name="divide" unicode="&#xf7;" horiz-adv-x="1065" 
d="M867 1130l-46 -215h-186l45 215h187zM725 463l-46 -215h-187l46 215h187zM227 776h942l-37 -176h-942z" />
    <glyph glyph-name="lozenge" unicode="&#x25ca;" horiz-adv-x="1472" 
d="M1038 1419l376 -736l-689 -736l-375 736zM1000 1237l-522 -554l286 -555l521 555z" />
    <glyph glyph-name="ydieresis" unicode="&#xff;" horiz-adv-x="931" 
d="M36 -344l36 172q69 -13 108 -13q61 0 107 67q57 83 80 139l-145 921h232l74 -689l359 689h222l-520 -922q-125 -221 -186 -281q-95 -94 -227 -94q-56 0 -140 11zM1012 1311l-43 -201h-204l44 201h203zM656 1311l-44 -201h-192l44 201h192z" />
    <glyph glyph-name="Ydieresis" unicode="&#x178;" horiz-adv-x="1068" 
d="M423 0l116 545l-253 820h253l164 -597l414 597h246l-599 -822l-116 -543h-225zM1131 1675l-44 -201h-192l44 201h192zM805 1675l-43 -201h-192l44 201h191z" />
    <glyph glyph-name="fraction" unicode="&#x2044;" horiz-adv-x="532" 
d="M37 0h-161l913 1366h158z" />
    <glyph glyph-name="Euro" unicode="&#x20ac;" horiz-adv-x="1215" 
d="M298 490h-143l86 145h74q5 20 19 87l2 7h-130l86 145h90q54 148 140 259q104 137 227 202q112 59 257 59q112 0 198 -31.5t172 -103.5l-109 -173q-69 70 -130 98t-142 28q-269 0 -397 -338h536l-86 -145h-497q-10 -40 -20 -94h460l-86 -145h-389q-1 -11 -1 -27
q0 -310 248 -310q77 0 138.5 24t150.5 88l93 -122q-63 -52 -102 -77q-150 -95 -326 -95q-235 0 -340 169q-81 132 -81 307q0 25 2 43z" />
    <glyph glyph-name="guilsinglleft" unicode="&#x2039;" horiz-adv-x="530" 
d="M563 857l-44 -206l-181 -138l121 -142l-44 -209l-206 246l44 208z" />
    <glyph glyph-name="guilsinglright" unicode="&#x203a;" horiz-adv-x="529" 
d="M332 857l205 -244l-45 -211l-308 -240l43 205l182 140l-122 141z" />
    <glyph glyph-name="daggerdbl" unicode="&#x2021;" horiz-adv-x="1025" 
d="M1117 977l-40 -190h-298l-124 -574h299l-40 -190h-298l-83 -388h-200l82 388h-294l40 190h294l123 574h-294l40 190h294l83 388h200l-82 -388h298z" />
    <glyph glyph-name="periodcentered" unicode="&#xb7;" horiz-adv-x="598" 
d="M549 602l-52 -248h-246l52 248h246z" />
    <glyph glyph-name="quotesinglbase" unicode="&#x201a;" horiz-adv-x="598" 
d="M228 248h246l-38 -181q-38 -179 -124 -258q-91 -84 -197 -96l25 119q112 27 146 168h-110z" />
    <glyph glyph-name="quotedblbase" unicode="&#x201e;" horiz-adv-x="925" 
d="M474 248l-38 -181q-38 -179 -124 -258q-89 -82 -197 -96l25 119q112 27 146 168h-110l52 248h246zM802 248l-38 -181q-38 -179 -124 -258q-89 -82 -197 -96l25 119q112 27 146 168h-110l52 248h246z" />
    <glyph glyph-name="perthousand" unicode="&#x2030;" horiz-adv-x="2571" 
d="M673 1384q117 0 192 -78q83 -87 83 -241q0 -195 -106 -349q-129 -188 -327 -188q-140 0 -217 103q-63 85 -63 215q0 101 34.5 203.5t92.5 175.5q128 159 311 159zM651 1245q-104 0 -180 -126q-74 -121 -74 -280q0 -90 43 -134q38 -38 91 -38q107 0 182 124q75 125 75 283
q0 80 -36.5 125.5t-100.5 45.5zM673 0h-145l878 1365h142zM1566 838q117 0 192 -78q83 -87 83 -241q0 -195 -107 -349q-129 -188 -326 -188q-139 0 -217 103q-63 84 -63 214q0 102 34.5 204.5t92.5 175.5q128 159 311 159zM1544 699q-104 0 -180 -126q-74 -121 -74 -281
q0 -79 36.5 -125t98.5 -46q106 0 181 124q75 125 75 283q0 80 -36.5 125.5t-100.5 45.5zM2350 838q117 0 191 -78q84 -87 84 -241q0 -195 -107 -349q-129 -188 -326 -188q-139 0 -217 103q-63 84 -63 214q0 102 34.5 204.5t92.5 175.5q128 159 311 159zM2328 699
q-104 0 -180 -126q-74 -121 -74 -281q0 -79 36.5 -125t98.5 -46q106 0 181 124q75 125 75 283q0 80 -36.5 125.5t-100.5 45.5z" />
    <glyph glyph-name="Acircumflex" unicode="&#xc2;" 
d="M751 1365h235l149 -1365h-237l-29 367h-438l-186 -367h-231zM522 549h332l-43 550zM1170 1475h-180l-69 149l-132 -149h-180l238 260h194z" />
    <glyph glyph-name="Ecircumflex" unicode="&#xca;" horiz-adv-x="1118" 
d="M171 0l290 1365h823l-41 -190h-598l-79 -374h553l-41 -190h-553l-88 -421h608l-41 -190h-833zM1179 1475h-180l-69 149l-132 -149h-180l238 260h194z" />
    <glyph glyph-name="Aacute" unicode="&#xc1;" 
d="M751 1365h235l149 -1365h-237l-29 367h-438l-186 -367h-231zM522 549h332l-43 550zM1178 1735l-240 -260h-171l225 260h186z" />
    <glyph glyph-name="Edieresis" unicode="&#xcb;" horiz-adv-x="1118" 
d="M171 0l290 1365h823l-41 -190h-598l-79 -374h553l-41 -190h-553l-88 -421h608l-41 -190h-833zM1192 1675l-44 -201h-192l44 201h192zM866 1675l-43 -201h-192l44 201h191z" />
    <glyph glyph-name="Egrave" unicode="&#xc8;" horiz-adv-x="1118" 
d="M171 0l290 1365h823l-41 -190h-598l-79 -374h553l-41 -190h-553l-88 -421h608l-41 -190h-833zM688 1735h187l114 -260h-171z" />
    <glyph glyph-name="Iacute" unicode="&#xcd;" horiz-adv-x="566" 
d="M171 0l290 1365h225l-290 -1365h-225zM910 1735l-240 -260h-171l225 260h186z" />
    <glyph glyph-name="Icircumflex" unicode="&#xce;" horiz-adv-x="566" 
d="M171 0l290 1365h225l-290 -1365h-225zM878 1475h-180l-69 149l-132 -149h-180l238 260h194z" />
    <glyph glyph-name="Idieresis" unicode="&#xcf;" horiz-adv-x="566" 
d="M171 0l290 1365h225l-290 -1365h-225zM894 1675l-43 -201h-192l43 201h192zM583 1675l-43 -201h-192l43 201h192z" />
    <glyph glyph-name="Igrave" unicode="&#xcc;" horiz-adv-x="566" 
d="M171 0l290 1365h225l-290 -1365h-225zM395 1735h187l114 -260h-171z" />
    <glyph glyph-name="Oacute" unicode="&#xd3;" horiz-adv-x="1320" 
d="M944 1397q187 0 308 -126q70 -73 106 -194q28 -94 28 -198q0 -156 -47.5 -314t-131.5 -283q-102 -151 -236 -232q-140 -83 -297 -83q-227 0 -350 167q-101 137 -101 348q0 197 75 398q95 255 290 398q161 119 356 119zM909 1205q-89 0 -176.5 -62t-151.5 -170
q-59 -99 -94 -236t-35 -266q0 -158 77 -240q67 -72 165 -72q196 0 331 230q61 103 96.5 238.5t35.5 264.5q0 152 -73 239q-63 74 -175 74zM1277 1735l-240 -260h-171l225 260h186z" />
    <glyph glyph-name="Ocircumflex" unicode="&#xd4;" horiz-adv-x="1320" 
d="M944 1397q187 0 308 -126q70 -73 106 -194q28 -94 28 -198q0 -156 -47.5 -314t-131.5 -283q-102 -151 -236 -232q-140 -83 -297 -83q-227 0 -350 167q-101 137 -101 348q0 197 75 398q95 255 290 398q161 119 356 119zM909 1205q-89 0 -176.5 -62t-151.5 -170
q-59 -99 -94 -236t-35 -266q0 -158 77 -240q67 -72 165 -72q196 0 331 230q61 103 96.5 238.5t35.5 264.5q0 152 -73 239q-63 74 -175 74zM1254 1475h-180l-69 149l-132 -149h-180l238 260h194z" />
    <glyph glyph-name="_004" horiz-adv-x="531" 
 />
    <glyph glyph-name="Ograve" unicode="&#xd2;" horiz-adv-x="1320" 
d="M944 1397q187 0 308 -126q70 -73 106 -194q28 -94 28 -198q0 -156 -47.5 -314t-131.5 -283q-102 -151 -236 -232q-140 -83 -297 -83q-227 0 -350 167q-101 137 -101 348q0 197 75 398q95 255 290 398q161 119 356 119zM909 1205q-89 0 -176.5 -62t-151.5 -170
q-59 -99 -94 -236t-35 -266q0 -158 77 -240q67 -72 165 -72q196 0 331 230q61 103 96.5 238.5t35.5 264.5q0 152 -73 239q-63 74 -175 74zM755 1735h187l114 -260h-171z" />
    <glyph glyph-name="Uacute" unicode="&#xda;" horiz-adv-x="1258" 
d="M440 1365h224l-166 -781q-29 -138 -29 -218q0 -207 201 -207q139 0 213 93t125 332l166 781h225l-170 -797q-35 -165 -70 -247q-151 -354 -513 -354q-223 0 -322 124q-80 99 -80 255q0 99 37 275zM1229 1735l-240 -260h-171l225 260h186z" />
    <glyph glyph-name="Ucircumflex" unicode="&#xdb;" horiz-adv-x="1258" 
d="M440 1365h224l-166 -781q-29 -138 -29 -218q0 -207 201 -207q139 0 213 93t125 332l166 781h225l-170 -797q-35 -165 -70 -247q-151 -354 -513 -354q-223 0 -322 124q-80 99 -80 255q0 99 37 275zM1222 1475h-180l-69 149l-132 -149h-180l238 260h194z" />
    <glyph glyph-name="Ugrave" unicode="&#xd9;" horiz-adv-x="1258" 
d="M440 1365h224l-166 -781q-29 -138 -29 -218q0 -207 201 -207q139 0 213 93t125 332l166 781h225l-170 -797q-35 -165 -70 -247q-151 -354 -513 -354q-223 0 -322 124q-80 99 -80 255q0 99 37 275zM756 1735h187l114 -260h-171z" />
    <glyph glyph-name="dotlessi" unicode="&#x131;" horiz-adv-x="531" 
d="M165 0l200 942h201l-200 -942h-201z" />
    <glyph glyph-name="circumflex" unicode="&#x2c6;" horiz-adv-x="982" 
d="M991 1093h-179l-56 153l-125 -153h-166l226 272h189z" />
    <glyph glyph-name="tilde" unicode="&#x2dc;" horiz-adv-x="982" 
d="M1092 1365q-81 -247 -238 -247q-53 0 -149 51q-47 25 -70 25q-46 0 -80 -80l-4 -8h-127q20 67 52 119q78 130 189 130q40 0 64 -9.5t111 -60.5q21 -12 41 -12q47 0 82 92h129z" />
    <glyph glyph-name="uni02C9" unicode="&#x2c9;" horiz-adv-x="982" 
d="M1045 1268l-28 -131h-559l28 131h559z" />
    <glyph glyph-name="breve" unicode="&#x2d8;" horiz-adv-x="982" 
d="M515 1365h137q2 -62 18 -86q27 -41 94 -41q58 0 93.5 28t67.5 99h137q-30 -126 -111 -196t-197 -70q-115 0 -178 59.5t-63 167.5q0 17 2 39z" />
    <glyph glyph-name="dotaccent" unicode="&#x2d9;" horiz-adv-x="960" 
d="M863 1311l-44 -201h-203l44 201h203z" />
    <glyph glyph-name="ring" unicode="&#x2da;" horiz-adv-x="982" 
d="M765 1356q-43 0 -72.5 -29t-29.5 -72q0 -41 29 -70.5t70 -29.5q42 0 71.5 29.5t29.5 70.5q0 42 -29 71.5t-69 29.5zM766 1447q84 0 144 -56q61 -56 61 -136q0 -77 -60 -133q-61 -57 -148 -57t-147 56q-61 56 -61 134q0 81 61.5 136.5t149.5 55.5z" />
    <glyph glyph-name="cedilla" unicode="&#xb8;" horiz-adv-x="1259" 
d="M414 -201l117 201h96l-63 -108q27 12 53 12q59 0 99 -38.5t40 -95.5q0 -77 -62.5 -128.5t-154.5 -51.5q-74 0 -114 35q-36 30 -36 71v5h108q4 -31 50 -31q39 0 64.5 28.5t25.5 71.5q0 56 -58 56q-40 0 -57 -27h-108z" />
    <glyph glyph-name="hungarumlaut" unicode="&#x2dd;" horiz-adv-x="1036" 
d="M904 1365l-255 -273h-174l238 273h191zM1265 1365l-254 -273h-174l238 273h190z" />
    <glyph glyph-name="ogonek" unicode="&#x2db;" horiz-adv-x="1272" 
d="M818 2q-132 -94 -132 -180q0 -72 85 -72q24 0 74 15l-23 -111q-54 -23 -101 -23q-81 0 -129.5 43.5t-48.5 116.5q0 59 34.5 105.5t121.5 105.5h119z" />
    <glyph glyph-name="caron" unicode="&#x2c7;" horiz-adv-x="982" 
d="M523 1365h178l57 -153l125 153h166l-226 -272h-189z" />
    <glyph glyph-name="nonbreakingspace" unicode="&#xa0;" horiz-adv-x="531" 
 />
    <glyph glyph-name="currency" unicode="&#xa4;" horiz-adv-x="1428" 
d="M274 265l200 201q-97 133 -97 288q0 146 98 285l-204 202l111 112l203 -203q143 98 292 98q148 0 287 -96l202 200l110 -111l-200 -200q100 -143 100 -289t-97 -285l202 -202l-110 -111l-202 201q-138 -98 -290 -98q-145 0 -293 98l-202 -201zM881 1067q-135 0 -227 -92
t-92 -223q0 -130 92 -222q93 -92 222 -92q131 0 223 92t92 222q0 133 -92 223q-94 92 -218 92z" />
    <glyph glyph-name="brokenbar" unicode="&#xa6;" horiz-adv-x="1282" 
d="M822 1366h219l-148 -700h-220zM598 313h220l-139 -655h-220z" />
    <glyph glyph-name="uni00AD" unicode="&#xad;" horiz-adv-x="453" 
d="M566 615l-41 -201h-421l42 201h420z" />
    <glyph glyph-name="macron" unicode="&#xaf;" horiz-adv-x="1065" 
d="M412 1649h942l-37 -176h-942z" />
    <glyph glyph-name="twosuperior" unicode="&#xb2;" horiz-adv-x="583" 
d="M697 686l-30 -139h-537q14 141 88.5 230t266.5 193q157 85 157 194q0 81 -91 81q-108 0 -137 -139h-166q11 87 61 151q97 127 261 127q107 0 172.5 -56t65.5 -147q0 -129 -105 -222q-63 -55 -218 -139q-123 -67 -155 -134h367z" />
    <glyph glyph-name="threesuperior" unicode="&#xb3;" horiz-adv-x="586" 
d="M426 1126h-159q13 109 75 175q82 87 215 87q104 0 166.5 -53.5t62.5 -143.5q0 -128 -133 -193q84 -60 84 -167q0 -123 -93.5 -209t-228.5 -86q-110 0 -176.5 58t-66.5 155q0 25 11 68h163q-8 -37 -8 -61q0 -81 89 -81q65 0 107.5 44.5t42.5 112.5q0 48 -25.5 69.5
t-81.5 21.5q-13 0 -56 -1l26 126q63 0 86 4.5t42 19.5q52 39 52 108t-75 69q-93 0 -119 -123z" />
    <glyph glyph-name="onesuperior" unicode="&#xb9;" horiz-adv-x="510" 
d="M296 547l120 564q-52 -26 -126 -26q-9 0 -31 1l28 132q102 2 149 41q40 32 67 107h118l-174 -819h-151z" />
    <glyph glyph-name="onequarter" unicode="&#xbc;" horiz-adv-x="1366" 
d="M431 0h-161l914 1366h157zM1120 0l42 195h-296l30 139l407 485h132l-105 -493h100l-28 -131h-100l-41 -195h-141zM1190 326l55 261l-208 -261h153zM267 547l121 569q-56 -31 -131 -31q-7 0 -27 1l28 132q102 2 149 41q40 32 67 107h118l-174 -819h-151z" />
    <glyph glyph-name="onehalf" unicode="&#xbd;" horiz-adv-x="1438" 
d="M430 0h-161l913 1366h158zM267 547l120 564q-52 -26 -126 -26q-9 0 -31 1l28 132q102 2 149 41q40 32 67 107h118l-174 -819h-151zM1460 139l-30 -139h-537q18 143 91.5 230t263.5 191q157 87 157 197q0 81 -91 81q-108 0 -137 -140h-165q11 87 60 152q97 127 262 127
q106 0 171.5 -56t65.5 -147q0 -129 -105 -223q-64 -56 -218 -139q-123 -67 -155 -134h367z" />
    <glyph glyph-name="threequarters" unicode="&#xbe;" horiz-adv-x="1480" 
d="M547 0h-161l913 1366h158zM1236 0l41 195h-295l29 139l408 485h131l-105 -493h100l-28 -131h-100l-41 -195h-140zM1305 326l56 261l-208 -261h152zM405 1126h-159q13 109 75 175q82 87 215 87q104 0 166.5 -54t62.5 -143q0 -129 -133 -193q84 -60 84 -167
q0 -123 -93.5 -209t-228.5 -86q-110 0 -176.5 58t-66.5 155q0 25 11 68h163q-8 -37 -8 -61q0 -81 89 -81q65 0 107.5 44.5t42.5 112.5q0 92 -107 92q-10 0 -56 -2l26 126q63 0 86 4.5t42 19.5q52 39 52 108t-75 69q-93 0 -119 -123z" />
    <glyph glyph-name="Eth" unicode="&#xd0;" horiz-adv-x="1234" 
d="M304 801l120 564h389q203 0 315 -70q87 -56 130 -155q45 -104 45 -219q0 -196 -67 -389t-181 -326q-95 -111 -201 -158.5t-260 -47.5h-460l130 611h-126l41 190h125zM529 801h273l-41 -190h-273l-89 -421h174q136 0 209 40q123 69 201 243q91 205 91 411q0 145 -85 226
q-68 65 -203 65h-177z" />
    <glyph glyph-name="multiply" unicode="&#xd7;" horiz-adv-x="1111" 
d="M366 961l148 123l214 -272l330 272l96 -123l-329 -272l214 -271l-149 -123l-214 272l-329 -272l-97 123l330 272z" />
    <glyph glyph-name="Yacute" unicode="&#xdd;" horiz-adv-x="1068" 
d="M423 0l116 545l-253 820h253l164 -597l414 597h246l-599 -822l-116 -543h-225zM1140 1735l-240 -260h-171l225 260h186z" />
    <glyph glyph-name="Thorn" unicode="&#xde;" horiz-adv-x="1126" 
d="M633 1116h162q183 0 266 -57q58 -39 91 -111.5t33 -159.5q0 -105 -40 -204t-110 -169q-75 -75 -167 -108t-226 -33h-188l-58 -274h-225l290 1365h225zM591 915l-96 -451h157q151 0 222 77q82 90 82 215q0 84 -58 127q-43 32 -168 32h-139z" />
    <glyph glyph-name="eth" unicode="&#xf0;" horiz-adv-x="1028" 
d="M1017 1394l47 -116l-162 -79q86 -110 135 -258t49 -295q0 -163 -56 -310q-73 -196 -234 -294q-118 -71 -267 -71q-224 0 -321 152q-60 94 -60 229q0 235 139 415q77 99 185 152q103 52 213 52q75 0 152 -37q-53 116 -102 183l-181 -89l-47 117l139 68q-36 30 -84 64
l101 117q76 -37 148 -100zM682 801q-69 0 -133.5 -40.5t-109.5 -112.5q-80 -129 -80 -299q0 -118 69 -171q49 -37 120 -37q139 0 230 130q43 62 69 150.5t26 172.5q0 97 -51 152t-140 55z" />
    <glyph glyph-name="yacute" unicode="&#xfd;" horiz-adv-x="931" 
d="M36 -344l36 172q69 -13 108 -13q61 0 107 67q57 83 80 139l-145 921h232l74 -689l359 689h222l-520 -922q-125 -221 -186 -281q-95 -94 -227 -94q-56 0 -140 11zM1003 1365l-255 -273h-174l238 273h191z" />
    <glyph glyph-name="thorn" unicode="&#xfe;" horiz-adv-x="1075" 
d="M54 -354l366 1719h200l-112 -529q113 135 288 135q160 0 248 -105q85 -100 85 -267q0 -119 -40 -238.5t-109 -206.5q-72 -90 -170 -138q-93 -45 -191 -45q-192 0 -267 158l-97 -483h-201zM733 801q-69 0 -135 -42.5t-109 -115.5q-35 -58 -56 -139t-21 -156
q0 -112 63 -165q49 -42 121 -42q141 0 233 138q89 133 89 304q0 103 -48.5 160.5t-136.5 57.5z" />
    <glyph glyph-name="Amacron" unicode="&#x100;" 
d="M751 1365h235l149 -1365h-237l-29 367h-438l-186 -367h-231zM522 549h332l-43 550zM1198 1610l-28 -131h-580l28 131h580z" />
    <glyph glyph-name="amacron" unicode="&#x101;" horiz-adv-x="1000" 
d="M981 142l-30 -142q-65 -25 -139 -25q-61 0 -88 24t-33 84q-134 -112 -314 -112q-122 0 -194.5 59t-72.5 157q0 104 68.5 194.5t179.5 134.5q69 27 154 38t265 16l23 107q3 14 3 30q0 57 -36 82.5t-117 25.5q-91 0 -132.5 -24t-63.5 -89h-203q73 269 444 269
q124 0 206 -47q105 -60 105 -184q0 -56 -29 -194l-70 -327q-8 -38 -8 -52q0 -36 37 -36q19 0 45 11zM753 454q-160 -7 -246 -31q-77 -22 -127.5 -77t-50.5 -117q0 -102 133 -102q118 0 202 103q55 67 72 149zM1041 1268l-28 -131h-559l28 131h559z" />
    <glyph glyph-name="Abreve" unicode="&#x102;" 
d="M751 1365h235l149 -1365h-237l-29 367h-438l-186 -367h-231zM522 549h332l-43 550zM661 1735h137q2 -70 27 -98.5t85 -28.5q58 0 94 28t67 99h137q-30 -126 -111 -196t-197 -70q-115 0 -178 59.5t-63 167.5q0 17 2 39z" />
    <glyph glyph-name="abreve" unicode="&#x103;" horiz-adv-x="1001" 
d="M981 142l-30 -142q-65 -25 -139 -25q-61 0 -88 24t-33 84q-134 -112 -314 -112q-122 0 -194.5 59t-72.5 157q0 104 68.5 194.5t179.5 134.5q69 27 154 38t265 16l23 107q3 14 3 30q0 57 -36 82.5t-117 25.5q-91 0 -132.5 -24t-63.5 -89h-203q73 269 444 269
q124 0 206 -47q105 -60 105 -184q0 -56 -29 -194l-70 -327q-8 -38 -8 -52q0 -36 37 -36q19 0 45 11zM753 454q-160 -7 -246 -31q-77 -22 -127.5 -77t-50.5 -117q0 -102 133 -102q118 0 202 103q55 67 72 149zM500 1365h137q2 -62 18 -86q27 -41 94 -41q58 0 93.5 28t67.5 99
h137q-30 -126 -111 -196t-197 -70q-115 0 -178 59.5t-63 167.5q0 17 2 39z" />
    <glyph glyph-name="Aogonek" unicode="&#x104;" 
d="M1122 0q-6 -4 -12 -9q-118 -92 -118 -175q0 -72 85 -72q22 0 74 14l-23 -111q-56 -22 -101 -22q-81 0 -129.5 43t-48.5 116q0 109 154 216h-105l-29 367h-438l-186 -367h-231l737 1365h235l149 -1365h-13zM522 549h332l-43 550z" />
    <glyph glyph-name="aogonek" unicode="&#x105;" horiz-adv-x="997" 
d="M783 -23q-84 10 -92 106q-134 -112 -314 -112q-122 0 -194.5 59t-72.5 157q0 104 68.5 194.5t179.5 134.5q69 27 154 38t265 16l23 107q3 14 3 30q0 57 -36 82.5t-117 25.5q-91 0 -132.5 -24t-63.5 -89h-203q73 269 444 269q124 0 206 -47q105 -60 105 -184
q0 -56 -29 -194l-70 -327q-8 -38 -8 -52q0 -36 37 -36q19 0 45 11l-30 -142q-14 -5 -31 -10q-114 -84 -114 -168q0 -72 85 -72q23 0 74 15l-23 -111q-54 -23 -101 -23q-81 0 -129.5 43.5t-48.5 116.5q0 99 120 186zM753 454q-160 -7 -246 -31q-77 -22 -127.5 -77t-50.5 -117
q0 -102 133 -102q118 0 202 103q55 67 72 149z" />
    <glyph glyph-name="Cacute" unicode="&#x106;" horiz-adv-x="1237" 
d="M1041 522h222q-54 -209 -186 -358q-175 -197 -412 -197q-256 0 -366 192q-76 133 -76 317q0 166 50 328t141 291q214 301 523 301q254 0 361 -199q51 -94 51 -200q0 -23 -4 -69h-226q-2 120 -33 175q-56 101 -177 101q-194 0 -327 -235q-130 -227 -130 -494
q0 -159 64 -241q59 -75 169 -75q239 0 356 363zM1250 1735l-240 -260h-171l225 260h186z" />
    <glyph glyph-name="cacute" unicode="&#x107;" horiz-adv-x="960" 
d="M772 332h210q-59 -174 -180.5 -267.5t-289.5 -93.5q-170 0 -267 94t-97 260q0 122 41 241.5t113 209.5q74 91 175 142q106 53 226 53q153 0 247 -78q86 -72 89 -195v-51h-215q-6 64 -20 88q-38 66 -127 66q-141 0 -232 -143q-86 -138 -86 -316q0 -96 45 -148.5t128 -52.5
q81 0 143.5 49.5t96.5 141.5zM1026 1365l-255 -273h-174l238 273h191z" />
    <glyph glyph-name="Ccircumflex" unicode="&#x108;" horiz-adv-x="1236" 
d="M1041 522h222q-54 -209 -186 -358q-175 -197 -412 -197q-256 0 -366 192q-76 133 -76 317q0 166 50 328t141 291q214 301 523 301q254 0 361 -199q51 -94 51 -200q0 -23 -4 -69h-226q-2 120 -33 175q-56 101 -177 101q-194 0 -327 -235q-130 -227 -130 -494
q0 -159 64 -241q59 -75 169 -75q239 0 356 363zM1234 1475h-180l-69 149l-132 -149h-180l238 260h194z" />
    <glyph glyph-name="ccircumflex" unicode="&#x109;" horiz-adv-x="960" 
d="M772 332h210q-59 -174 -180.5 -267.5t-289.5 -93.5q-170 0 -267 94t-97 260q0 122 41 241.5t113 209.5q74 91 175 142q106 53 226 53q153 0 247 -78q86 -72 89 -195v-51h-215q-6 64 -20 88q-38 66 -127 66q-141 0 -232 -143q-86 -138 -86 -316q0 -96 45 -148.5t128 -52.5
q81 0 143.5 49.5t96.5 141.5zM995 1093h-179l-56 153l-125 -153h-166l226 272h189z" />
    <glyph glyph-name="Cdotaccent" unicode="&#x10a;" horiz-adv-x="1237" 
d="M1041 522h222q-54 -209 -186 -358q-175 -197 -412 -197q-256 0 -366 192q-76 133 -76 317q0 166 50 328t141 291q214 301 523 301q254 0 361 -199q51 -94 51 -200q0 -23 -4 -69h-226q-2 120 -33 175q-56 101 -177 101q-194 0 -327 -235q-130 -227 -130 -494
q0 -159 64 -241q59 -75 169 -75q239 0 356 363zM1092 1675l-43 -201h-192l44 201h191z" />
    <glyph glyph-name="cdotaccent" unicode="&#x10b;" horiz-adv-x="960" 
d="M772 332h210q-59 -174 -180.5 -267.5t-289.5 -93.5q-170 0 -267 94t-97 260q0 122 41 241.5t113 209.5q74 91 175 142q106 53 226 53q153 0 247 -78q86 -72 89 -195v-51h-215q-6 64 -20 88q-38 66 -127 66q-141 0 -232 -143q-86 -138 -86 -316q0 -96 45 -148.5t128 -52.5
q81 0 143.5 49.5t96.5 141.5zM877 1311l-44 -201h-203l44 201h203z" />
    <glyph glyph-name="Ccaron" unicode="&#x10c;" horiz-adv-x="1237" 
d="M1041 522h222q-54 -209 -186 -358q-175 -197 -412 -197q-256 0 -366 192q-76 133 -76 317q0 166 50 328t141 291q214 301 523 301q254 0 361 -199q51 -94 51 -200q0 -23 -4 -69h-226q-2 120 -33 175q-56 101 -177 101q-194 0 -327 -235q-130 -227 -130 -494
q0 -159 64 -241q59 -75 169 -75q239 0 356 363zM730 1735h180l69 -149l131 149h181l-238 -260h-195z" />
    <glyph glyph-name="ccaron" unicode="&#x10d;" horiz-adv-x="960" 
d="M772 332h210q-59 -174 -180.5 -267.5t-289.5 -93.5q-170 0 -267 94t-97 260q0 122 41 241.5t113 209.5q74 91 175 142q106 53 226 53q153 0 247 -78q86 -72 89 -195v-51h-215q-6 64 -20 88q-38 66 -127 66q-141 0 -232 -143q-86 -138 -86 -316q0 -96 45 -148.5t128 -52.5
q81 0 143.5 49.5t96.5 141.5zM531 1365h178l57 -153l125 153h166l-226 -272h-189z" />
    <glyph glyph-name="Dcaron" unicode="&#x10e;" horiz-adv-x="1272" 
d="M171 0l290 1365h389q203 0 315 -70q88 -56 130 -155q45 -104 45 -220q0 -196 -67 -388.5t-181 -325.5q-96 -112 -201.5 -159t-259.5 -47h-460zM436 190h174q136 0 209 40q123 69 201 242q91 205 91 411q0 146 -85 227q-68 65 -203 65h-177zM675 1735h180l69 -149l131 149
h181l-238 -260h-195z" />
    <glyph glyph-name="dcaron" unicode="&#x10f;" horiz-adv-x="1171" 
d="M946 0h-203l23 106q-122 -135 -305 -135q-154 0 -235 105q-77 100 -77 262q0 122 41 242t112 208q73 89 176 138q97 45 196 45q179 0 249 -133l113 527h200zM674 801q-135 0 -226 -138q-88 -134 -88 -303q0 -111 52 -169q46 -50 124 -50q72 0 136.5 41.5t108.5 116.5
q77 130 77 297q0 110 -62 163q-48 42 -122 42zM1525 1365l-30 -140q-46 -212 -224 -223l17 77q73 19 103 110h-80l38 176h176z" />
    <glyph glyph-name="Dcroat" unicode="&#x110;" horiz-adv-x="1234" 
d="M304 801l120 564h389q203 0 315 -70q87 -56 130 -155q45 -104 45 -219q0 -196 -67 -389t-181 -326q-95 -111 -201 -158.5t-260 -47.5h-460l130 611h-126l41 190h125zM529 801h273l-41 -190h-273l-89 -421h174q136 0 209 40q123 69 201 243q91 205 91 411q0 145 -85 226
q-68 65 -203 65h-177z" />
    <glyph glyph-name="dcroat" unicode="&#x111;" horiz-adv-x="1048" 
d="M1175 1079l-229 -1079h-203l23 106q-122 -135 -305 -135q-154 0 -235 105q-77 100 -77 262q0 122 41 242t112 208q73 89 176 138q97 45 196 45q179 0 249 -133l52 241h-274l28 131h273l34 155h200l-33 -155h95l-28 -131h-95zM674 801q-135 0 -226 -138q-88 -134 -88 -303
q0 -111 52 -169q46 -50 124 -50q72 0 136.5 41.5t108.5 116.5q77 130 77 297q0 110 -62 163q-48 42 -122 42z" />
    <glyph glyph-name="Emacron" unicode="&#x112;" horiz-adv-x="1118" 
d="M171 0l290 1365h823l-41 -190h-598l-79 -374h553l-41 -190h-553l-88 -421h608l-41 -190h-833zM1214 1610l-28 -131h-580l28 131h580z" />
    <glyph glyph-name="emacron" unicode="&#x113;" horiz-adv-x="986" 
d="M1011 420h-645q-5 -55 -5 -82q0 -96 50 -151.5t137 -55.5q143 0 198 117h203q-29 -75 -76 -127q-133 -150 -346 -150q-217 0 -310 157q-56 95 -56 233q0 112 37.5 224.5t102.5 196.5q147 189 374 189q171 0 267 -108q89 -100 89 -285q0 -77 -20 -158zM827 559q1 38 1 55
q0 91 -43 143q-46 56 -117 56q-88 0 -158 -66t-111 -188h428zM1038 1268l-28 -131h-559l28 131h559z" />
    <glyph glyph-name="Ebreve" unicode="&#x114;" horiz-adv-x="1118" 
d="M171 0l290 1365h823l-41 -190h-598l-79 -374h553l-41 -190h-553l-88 -421h608l-41 -190h-833zM653 1735h137q2 -70 27 -98.5t85 -28.5q58 0 94 28t67 99h137q-30 -126 -111 -196t-197 -70q-115 0 -178 59.5t-63 167.5q0 17 2 39z" />
    <glyph glyph-name="ebreve" unicode="&#x115;" horiz-adv-x="987" 
d="M1011 420h-645q-5 -55 -5 -82q0 -96 50 -151.5t137 -55.5q143 0 198 117h203q-29 -75 -76 -127q-133 -150 -346 -150q-217 0 -310 157q-56 95 -56 233q0 112 37.5 224.5t102.5 196.5q147 189 374 189q171 0 267 -108q89 -100 89 -285q0 -77 -20 -158zM827 559q1 38 1 55
q0 91 -43 143q-46 56 -117 56q-88 0 -158 -66t-111 -188h428zM501 1365h137q2 -62 18 -86q27 -41 94 -41q58 0 93.5 28t67.5 99h137q-30 -126 -111 -196t-197 -70q-115 0 -178 59.5t-63 167.5q0 17 2 39z" />
    <glyph glyph-name="Edotaccent" unicode="&#x116;" horiz-adv-x="1118" 
d="M171 0l290 1365h823l-41 -190h-598l-79 -374h553l-41 -190h-553l-88 -421h608l-41 -190h-833zM1031 1675l-43 -201h-192l44 201h191z" />
    <glyph glyph-name="edotaccent" unicode="&#x117;" horiz-adv-x="986" 
d="M1011 420h-645q-5 -55 -5 -82q0 -96 50 -151.5t137 -55.5q143 0 198 117h203q-29 -75 -76 -127q-133 -150 -346 -150q-217 0 -310 157q-56 95 -56 233q0 112 37.5 224.5t102.5 196.5q147 189 374 189q171 0 267 -108q89 -100 89 -285q0 -77 -20 -158zM827 559q1 38 1 55
q0 91 -43 143q-46 56 -117 56q-88 0 -158 -66t-111 -188h428zM866 1311l-44 -201h-203l44 201h203z" />
    <glyph glyph-name="Eogonek" unicode="&#x118;" horiz-adv-x="1118" 
d="M995 0q-130 -96 -130 -184q0 -72 85 -72q22 0 74 14l-23 -111q-56 -22 -100 -22q-82 0 -130.5 43t-48.5 116q0 59 35 108t119 108h-705l290 1365h823l-41 -190h-598l-79 -374h553l-41 -190h-553l-88 -421h608l-41 -190h-9z" />
    <glyph glyph-name="eogonek" unicode="&#x119;" horiz-adv-x="985" 
d="M625 -20q-101 -81 -101 -157q0 -73 85 -73q25 0 74 15l-24 -111q-53 -23 -100 -23q-82 0 -130 43.5t-48 116.5q0 97 112 181q-142 9 -228 95q-104 104 -104 294q0 112 37.5 224.5t102.5 196.5q147 189 374 189q171 0 267 -108q89 -100 89 -285q0 -77 -20 -158h-645
q-5 -55 -5 -82q0 -96 50 -151.5t137 -55.5q143 0 198 117h203q-41 -105 -127.5 -177t-196.5 -91zM827 559q1 38 1 55q0 91 -43 143q-46 56 -117 56q-88 0 -158 -66t-111 -188h428z" />
    <glyph glyph-name="Ecaron" unicode="&#x11a;" horiz-adv-x="1118" 
d="M171 0l290 1365h823l-41 -190h-598l-79 -374h553l-41 -190h-553l-88 -421h608l-41 -190h-833zM672 1735h180l69 -149l131 149h181l-238 -260h-195z" />
    <glyph glyph-name="ecaron" unicode="&#x11b;" horiz-adv-x="986" 
d="M1011 420h-645q-5 -55 -5 -82q0 -96 50 -151.5t137 -55.5q143 0 198 117h203q-29 -75 -76 -127q-133 -150 -346 -150q-217 0 -310 157q-56 95 -56 233q0 112 37.5 224.5t102.5 196.5q147 189 374 189q171 0 267 -108q89 -100 89 -285q0 -77 -20 -158zM827 559q1 38 1 55
q0 91 -43 143q-46 56 -117 56q-88 0 -158 -66t-111 -188h428zM525 1365h178l57 -153l125 153h166l-226 -272h-189z" />
    <glyph glyph-name="Gcircumflex" unicode="&#x11c;" horiz-adv-x="1326" 
d="M1177 0h-173l34 159q-72 -77 -127 -116q-109 -76 -252 -76q-226 0 -341 168q-95 140 -95 348t82 408q104 255 296 393q156 112 351 112q215 0 327 -137q89 -107 89 -248q0 -30 -5 -81h-218q4 34 4 54q0 99 -61.5 159.5t-160.5 60.5q-207 0 -346 -237q-59 -101 -94 -235.5
t-35 -260.5q0 -89 27.5 -158.5t76.5 -106.5q62 -46 151 -46q197 0 314 206q37 65 68 181h-301l39 182h505zM1265 1475h-180l-69 149l-132 -149h-180l238 260h194z" />
    <glyph glyph-name="gcircumflex" unicode="&#x11d;" horiz-adv-x="1055" 
d="M76 -106h208q0 -37 15 -53q38 -46 145 -46q118 0 189 73.5t105 229.5l10 49q-114 -139 -288 -139q-139 0 -221 86q-90 95 -90 261q0 117 39.5 232.5t108.5 200.5q150 183 372 183q177 0 244 -139l24 110h188l-162 -763q-31 -145 -64 -225t-89 -144q-142 -165 -390 -165
q-155 0 -253 51q-94 49 -94 150q0 19 3 48zM660 801q-131 0 -219 -140q-78 -125 -78 -277q0 -96 45 -151t123 -55q136 0 228 145q80 125 80 279q0 94 -47 146.5t-132 52.5zM1008 1093h-179l-56 153l-125 -153h-166l226 272h189z" />
    <glyph glyph-name="Gbreve" unicode="&#x11e;" horiz-adv-x="1325" 
d="M1177 0h-173l34 159q-72 -77 -127 -116q-109 -76 -252 -76q-226 0 -341 168q-95 140 -95 348t82 408q104 255 296 393q156 112 351 112q215 0 327 -137q89 -107 89 -248q0 -30 -5 -81h-218q4 34 4 54q0 99 -61.5 159.5t-160.5 60.5q-207 0 -346 -237q-59 -101 -94 -235.5
t-35 -260.5q0 -89 27.5 -158.5t76.5 -106.5q62 -46 151 -46q197 0 314 206q37 65 68 181h-301l39 182h505zM763 1735h137q2 -70 27 -98.5t85 -28.5q58 0 94 28t67 99h137q-30 -126 -111 -196t-197 -70q-115 0 -178 59.5t-63 167.5q0 17 2 39z" />
    <glyph glyph-name="gbreve" unicode="&#x11f;" horiz-adv-x="1054" 
d="M76 -106h208q0 -37 15 -53q38 -46 145 -46q118 0 189 73.5t105 229.5l10 49q-114 -139 -288 -139q-139 0 -221 86q-90 95 -90 261q0 117 39.5 232.5t108.5 200.5q150 183 372 183q177 0 244 -139l24 110h188l-162 -763q-31 -145 -64 -225t-89 -144q-142 -165 -390 -165
q-155 0 -253 51q-94 49 -94 150q0 19 3 48zM660 801q-131 0 -219 -140q-78 -125 -78 -277q0 -96 45 -151t123 -55q136 0 228 145q80 125 80 279q0 94 -47 146.5t-132 52.5zM549 1365h137q2 -62 18 -86q27 -41 94 -41q58 0 93.5 28t67.5 99h137q-30 -126 -111 -196t-197 -70
q-115 0 -178 59.5t-63 167.5q0 17 2 39z" />
    <glyph glyph-name="Gdotaccent" unicode="&#x120;" horiz-adv-x="1326" 
d="M1177 0h-173l34 159q-72 -77 -127 -116q-109 -76 -252 -76q-226 0 -341 168q-95 140 -95 348t82 408q104 255 296 393q156 112 351 112q215 0 327 -137q89 -107 89 -248q0 -30 -5 -81h-218q4 34 4 54q0 99 -61.5 159.5t-160.5 60.5q-207 0 -346 -237q-59 -101 -94 -235.5
t-35 -260.5q0 -89 27.5 -158.5t76.5 -106.5q62 -46 151 -46q197 0 314 206q37 65 68 181h-301l39 182h505zM1132 1675l-43 -201h-192l44 201h191z" />
    <glyph glyph-name="gdotaccent" unicode="&#x121;" horiz-adv-x="1055" 
d="M76 -106h208q0 -37 15 -53q38 -46 145 -46q118 0 189 73.5t105 229.5l10 49q-114 -139 -288 -139q-139 0 -221 86q-90 95 -90 261q0 117 39.5 232.5t108.5 200.5q150 183 372 183q177 0 244 -139l24 110h188l-162 -763q-31 -145 -64 -225t-89 -144q-142 -165 -390 -165
q-155 0 -253 51q-94 49 -94 150q0 19 3 48zM660 801q-131 0 -219 -140q-78 -125 -78 -277q0 -96 45 -151t123 -55q136 0 228 145q80 125 80 279q0 94 -47 146.5t-132 52.5zM886 1311l-44 -201h-203l44 201h203z" />
    <glyph glyph-name="Gcommaaccent" unicode="&#x122;" horiz-adv-x="1328" 
d="M1177 0h-173l34 159q-72 -77 -127 -116q-109 -76 -252 -76q-226 0 -341 168q-95 140 -95 348t82 408q104 255 296 393q156 112 351 112q215 0 327 -137q89 -107 89 -248q0 -30 -5 -81h-218q4 34 4 54q0 99 -61.5 159.5t-160.5 60.5q-207 0 -346 -237q-59 -101 -94 -235.5
t-35 -260.5q0 -89 27.5 -158.5t76.5 -106.5q62 -46 151 -46q197 0 314 206q37 65 68 181h-301l39 182h505zM747 -96l-30 -140q-46 -213 -214 -223l17 77q69 18 98 110h-75l38 176h166z" />
    <glyph glyph-name="gcommaaccent" unicode="&#x123;" horiz-adv-x="1055" 
d="M76 -106h208q0 -37 15 -53q38 -46 145 -46q118 0 189 73.5t105 229.5l10 49q-114 -139 -288 -139q-139 0 -221 86q-90 95 -90 261q0 117 39.5 232.5t108.5 200.5q150 183 372 183q177 0 244 -139l24 110h188l-162 -763q-31 -145 -64 -225t-89 -144q-142 -165 -390 -165
q-155 0 -253 51q-94 49 -94 150q0 19 3 48zM660 801q-131 0 -219 -140q-78 -125 -78 -277q0 -96 45 -151t123 -55q136 0 228 145q80 125 80 279q0 94 -47 146.5t-132 52.5zM623 1096l30 140q46 212 214 223l-16 -77q-70 -19 -99 -110h75l-38 -176h-166z" />
    <glyph glyph-name="Hcircumflex" unicode="&#x124;" horiz-adv-x="1302" 
d="M171 0l290 1365h225l-118 -552h511l118 552h225l-291 -1365h-224l131 623h-511l-131 -623h-225zM1245 1475h-180l-69 149l-132 -149h-180l238 260h194z" />
    <glyph glyph-name="hcircumflex" unicode="&#x125;" horiz-adv-x="1044" 
d="M131 0l290 1365h201l-114 -534q129 140 305 140q118 0 186 -58.5t68 -160.5q0 -55 -19 -146l-129 -606h-201l122 575q16 74 16 107q0 119 -137 119q-115 0 -195 -96q-33 -39 -53 -92t-43 -159l-96 -454h-201zM842 1475h-180l-69 149l-131 -149h-180l237 260h195z" />
    <glyph glyph-name="Hbar" unicode="&#x126;" horiz-adv-x="1248" 
d="M349 967h-109l28 131h109l57 267h225l-57 -267h511l57 267h225l-57 -267h109l-28 -131h-110l-205 -967h-224l131 623h-511l-131 -623h-225zM574 967l-33 -154h511l33 154h-511z" />
    <glyph glyph-name="hbar" unicode="&#x127;" horiz-adv-x="1044" 
d="M373 1137h-120l28 131h119l21 97h201l-21 -97h239l-27 -131h-239l-66 -306q121 140 285 140q125 0 197.5 -63t72.5 -171q0 -58 -21 -156l-123 -581h-201l122 575q16 75 16 105q0 121 -137 121q-115 0 -195 -96q-33 -39 -53.5 -92.5t-42.5 -158.5l-96 -454h-201z" />
    <glyph glyph-name="Itilde" unicode="&#x128;" horiz-adv-x="564" 
d="M171 0l290 1365h225l-290 -1365h-225zM838 1714h117q-84 -233 -232 -233q-59 0 -154 63q-48 31 -74 31q-53 0 -91 -94h-115q83 233 239 233q37 0 64.5 -11t80.5 -48q42 -29 70 -29q54 0 95 88z" />
    <glyph glyph-name="itilde" unicode="&#x129;" horiz-adv-x="532" 
d="M165 0l200 942h201l-200 -942h-201zM862 1365q-81 -247 -238 -247q-53 0 -149 51q-47 25 -70 25q-46 0 -80 -80l-4 -8h-127q20 67 52 119q78 130 189 130q40 0 64 -9.5t111 -60.5q21 -12 41 -12q47 0 82 92h129z" />
    <glyph glyph-name="Imacron" unicode="&#x12a;" horiz-adv-x="566" 
d="M171 0l290 1365h225l-290 -1365h-225zM910 1610l-28 -131h-580l28 131h580z" />
    <glyph glyph-name="imacron" unicode="&#x12b;" horiz-adv-x="531" 
d="M165 0l200 942h201l-200 -942h-201zM819 1268l-28 -131h-559l28 131h559z" />
    <glyph glyph-name="Ibreve" unicode="&#x12c;" horiz-adv-x="564" 
d="M171 0l290 1365h225l-290 -1365h-225zM363 1735h137q2 -70 27 -98.5t85 -28.5q58 0 94 28t67 99h137q-30 -126 -111 -196t-197 -70q-115 0 -178 59.5t-63 167.5q0 17 2 39z" />
    <glyph glyph-name="ibreve" unicode="&#x12d;" horiz-adv-x="532" 
d="M165 0l200 942h201l-200 -942h-201zM280 1365h138q2 -62 18 -86q27 -41 94 -41q58 0 93.5 28t66.5 99h137q-29 -126 -110 -196t-197 -70q-115 0 -178 59.5t-63 167.5q0 14 1 39z" />
    <glyph glyph-name="Iogonek" unicode="&#x12e;" horiz-adv-x="564" 
d="M389 0q-129 -91 -129 -177q0 -73 85 -73q24 0 74 15l-23 -111q-54 -23 -101 -23q-81 0 -129.5 43.5t-48.5 116.5q0 59 33.5 105t119.5 104h-99l290 1365h225l-291 -1365h-6z" />
    <glyph glyph-name="iogonek" unicode="&#x12f;" horiz-adv-x="525" 
d="M337 0q-129 -92 -129 -177q0 -73 85 -73q25 0 74 15l-23 -111q-55 -23 -101 -23q-81 0 -129.5 43.5t-48.5 116.5q0 59 33.5 104.5t119.5 104.5h-60l200 942h201l-200 -942h-22zM405 1164l43 201h213l-44 -201h-212z" />
    <glyph glyph-name="Idotaccent" unicode="&#x130;" horiz-adv-x="566" 
d="M171 0l290 1365h225l-290 -1365h-225zM737 1675l-43 -201h-192l44 201h191z" />
    <glyph glyph-name="IJ" unicode="&#x132;" horiz-adv-x="1104" 
d="M171 0l290 1365h225l-290 -1365h-225zM441 -19l42 199q63 -21 108 -21q122 0 182 124q20 41 31 79.5t42 181.5l174 821h225l-191 -898q-30 -143 -57.5 -215t-75.5 -133q-118 -152 -338 -152q-60 0 -142 14z" />
    <glyph glyph-name="ij" unicode="&#x133;" horiz-adv-x="962" 
d="M381 1164l43 201h213l-44 -201h-212zM140 0l200 942h201l-200 -942h-201zM389 -349l35 166q29 -6 50 -6q57 0 83 34t48 139l204 958h201l-202 -948q-37 -178 -79 -239q-74 -110 -231 -110q-35 0 -109 6zM849 1164l44 201h213l-44 -201h-213z" />
    <glyph glyph-name="Jcircumflex" unicode="&#x134;" horiz-adv-x="675" 
d="M12 -19l42 199q63 -21 108 -21q122 0 182 124q20 41 31 79.5t42 181.5l174 821h225l-191 -898q-30 -143 -57.5 -215t-75.5 -133q-118 -152 -338 -152q-60 0 -142 14zM1006 1475h-180l-69 149l-132 -149h-180l238 260h194z" />
    <glyph glyph-name="jcircumflex" unicode="&#x135;" horiz-adv-x="547" 
d="M-43 -349l35 166q32 -6 54 -6q62 0 89.5 34t49.5 139l204 958h201l-203 -956q-37 -174 -82 -234q-78 -107 -262 -107q-36 0 -86 6zM768 1093h-179l-56 153l-125 -153h-166l226 272h189z" />
    <glyph glyph-name="Kcommaaccent" unicode="&#x136;" horiz-adv-x="1165" 
d="M171 0l290 1365h224l-123 -580l596 580h262l-597 -564l336 -801h-258l-259 629l-142 -134l-105 -495h-224zM702 -96l-30 -140q-46 -213 -214 -223l17 77q69 18 98 110h-75l38 176h166z" />
    <glyph glyph-name="kcommaaccent" unicode="&#x137;" horiz-adv-x="982" 
d="M134 0l290 1365h201l-162 -762l413 339h252l-434 -348l268 -594h-254l-193 452l-102 -82l-78 -370h-201zM576 -96l-30 -140q-46 -213 -214 -223l17 77q69 18 98 110h-75l38 176h166z" />
    <glyph glyph-name="kgreenlandic" unicode="&#x138;" horiz-adv-x="959" 
d="M457 575l419 367h252l-438 -370l272 -572h-250l-189 432l-118 -100l-70 -332h-201l200 942h201z" />
    <glyph glyph-name="Lacute" unicode="&#x139;" horiz-adv-x="1035" 
d="M171 0l290 1365h225l-249 -1175h565l-41 -190h-790zM951 1735l-240 -260h-171l225 260h186z" />
    <glyph glyph-name="lacute" unicode="&#x13a;" horiz-adv-x="531" 
d="M165 0l290 1365h201l-290 -1365h-201zM897 1741l-255 -273h-174l238 273h191z" />
    <glyph glyph-name="Lcommaaccent" unicode="&#x13b;" horiz-adv-x="1035" 
d="M171 0l290 1365h225l-249 -1175h565l-41 -190h-790zM640 -96l-30 -140q-46 -213 -214 -223l17 77q69 18 98 110h-75l38 176h166z" />
    <glyph glyph-name="lcommaaccent" unicode="&#x13c;" horiz-adv-x="532" 
d="M166 0l290 1365h201l-290 -1365h-201zM329 -96l-30 -140q-46 -213 -214 -223l17 77q69 18 98 110h-75l38 176h166z" />
    <glyph glyph-name="Lcaron" unicode="&#x13d;" horiz-adv-x="1035" 
d="M171 0l290 1365h225l-249 -1175h565l-41 -190h-790zM1081 1365l-30 -140q-46 -212 -214 -223l17 77q69 19 98 110h-75l38 176h166z" />
    <glyph glyph-name="lcaron" unicode="&#x13e;" horiz-adv-x="570" 
d="M165 0l290 1365h201l-290 -1365h-201zM945 1365l-30 -140q-46 -212 -224 -223l17 77q73 19 103 110h-80l38 176h176z" />
    <glyph glyph-name="Ldot" unicode="&#x13f;" horiz-adv-x="1021" 
d="M143 0l290 1365h201l-249 -1175h636l-41 -190h-837zM881 784l-44 -201h-201l44 201h201z" />
    <glyph glyph-name="ldot" unicode="&#x140;" horiz-adv-x="647" 
d="M152 0l290 1365h201l-290 -1365h-201zM824 807l-44 -201h-200l43 201h201z" />
    <glyph glyph-name="Lslash" unicode="&#x141;" horiz-adv-x="998" 
d="M94 404l41 193l145 93l143 675h225l-112 -526l282 178l-41 -194l-282 -178l-97 -455h566l-41 -190h-790l106 496z" />
    <glyph glyph-name="lslash" unicode="&#x142;" horiz-adv-x="492" 
d="M108 453l38 179l157 108l133 625h201l-99 -462l157 108l-38 -179l-157 -107l-154 -725h-200l119 561z" />
    <glyph glyph-name="Nacute" unicode="&#x143;" horiz-adv-x="1289" 
d="M171 0l290 1365h231l293 -1012l216 1012h208l-290 -1365h-232l-293 1007l-214 -1007h-209zM1251 1735l-240 -260h-171l225 260h186z" />
    <glyph glyph-name="nacute" unicode="&#x144;" horiz-adv-x="1044" 
d="M131 0l200 942h196l-26 -119q131 148 310 148q119 0 187 -61t68 -168q0 -48 -21 -148l-126 -594h-201l117 549q19 91 19 134q0 37 -14 62q-31 56 -117 56q-66 0 -124.5 -33.5t-95.5 -91.5q-41 -65 -71 -203l-100 -473h-201zM1044 1365l-255 -273h-174l238 273h191z" />
    <glyph glyph-name="Ncommaaccent" unicode="&#x145;" horiz-adv-x="1290" 
d="M171 0l290 1365h231l293 -1012l216 1012h208l-290 -1365h-232l-293 1007l-214 -1007h-209zM725 -96l-30 -140q-46 -213 -214 -223l17 77q69 18 98 110h-75l38 176h166z" />
    <glyph glyph-name="ncommaaccent" unicode="&#x146;" horiz-adv-x="1044" 
d="M131 0l200 942h196l-26 -119q131 148 310 148q119 0 187 -61t68 -168q0 -48 -21 -148l-126 -594h-201l117 549q19 91 19 134q0 37 -14 62q-31 56 -117 56q-66 0 -124.5 -33.5t-95.5 -91.5q-41 -65 -71 -203l-100 -473h-201zM590 -96l-30 -140q-46 -213 -214 -223l17 77
q69 18 98 110h-75l38 176h166z" />
    <glyph glyph-name="Ncaron" unicode="&#x147;" horiz-adv-x="1289" 
d="M171 0l290 1365h231l293 -1012l216 1012h208l-290 -1365h-232l-293 1007l-214 -1007h-209zM729 1735h180l69 -149l131 149h181l-238 -260h-195z" />
    <glyph glyph-name="ncaron" unicode="&#x148;" horiz-adv-x="1044" 
d="M131 0l200 942h196l-26 -119q131 148 310 148q119 0 187 -61t68 -168q0 -48 -21 -148l-126 -594h-201l117 549q19 91 19 134q0 37 -14 62q-31 56 -117 56q-66 0 -124.5 -33.5t-95.5 -91.5q-41 -65 -71 -203l-100 -473h-201zM539 1365h178l57 -153l125 153h166l-226 -272
h-189z" />
    <glyph glyph-name="napostrophe" unicode="&#x149;" horiz-adv-x="1143" 
d="M234 0l200 942h196l-26 -119q131 148 310 148q119 0 187 -61t68 -168q0 -48 -21 -148l-126 -594h-201l117 549q19 91 19 134q0 37 -14 62q-31 56 -117 56q-66 0 -124.5 -33.5t-95.5 -91.5q-41 -65 -71 -203l-100 -473h-201zM393 1140l-30 -140q-46 -212 -224 -223l17 77
q73 19 103 110h-80l38 176h176z" />
    <glyph glyph-name="Eng" unicode="&#x14a;" horiz-adv-x="1282" 
d="M423 1365h225l-37 -175q74 79 126 115q120 83 264 83q179 0 278 -111q75 -84 75 -230q0 -90 -31 -235l-110 -518q-45 -213 -140 -306q-130 -129 -331 -129q-78 0 -175 28l42 194q66 -30 125 -30q113 0 176 67q53 56 93 247l107 501q18 85 18 155q0 76 -43 118
q-59 57 -172 57q-183 0 -283 -146q-71 -104 -115 -308l-157 -742h-225z" />
    <glyph glyph-name="eng" unicode="&#x14b;" horiz-adv-x="1044" 
d="M518 -205l35 167q32 -7 55 -7q61 0 88 34t49 139l90 421q19 91 19 134q0 37 -14 62q-31 56 -117 56q-66 0 -124.5 -33.5t-95.5 -91.5q-41 -65 -71 -203l-100 -473h-201l200 942h196l-26 -119q128 148 303 148q121 0 191 -61.5t70 -169.5q0 -50 -20 -146l-99 -464
q-37 -173 -80 -234q-76 -107 -237 -107q-39 0 -111 6z" />
    <glyph glyph-name="Omacron" unicode="&#x14c;" horiz-adv-x="1320" 
d="M944 1397q187 0 308 -126q70 -73 106 -194q28 -94 28 -198q0 -156 -47.5 -314t-131.5 -283q-102 -151 -236 -232q-140 -83 -297 -83q-227 0 -350 167q-101 137 -101 348q0 197 75 398q95 255 290 398q161 119 356 119zM909 1205q-89 0 -176.5 -62t-151.5 -170
q-59 -99 -94 -236t-35 -266q0 -158 77 -240q67 -72 165 -72q196 0 331 230q61 103 96.5 238.5t35.5 264.5q0 152 -73 239q-63 74 -175 74zM1292 1610l-28 -131h-580l28 131h580z" />
    <glyph glyph-name="omacron" unicode="&#x14d;" horiz-adv-x="1028" 
d="M708 971q162 0 262 -91q112 -103 112 -287q0 -122 -42.5 -241t-115.5 -204q-154 -177 -391 -177q-228 0 -325 155q-60 94 -60 228q0 238 139 415q160 202 421 202zM680 801q-70 0 -134.5 -40.5t-110.5 -112.5q-80 -129 -80 -298q0 -119 70 -172q49 -37 120 -37
q140 0 231 130q43 62 69 150.5t26 172.5q0 97 -51 152t-140 55zM1063 1268l-28 -131h-559l28 131h559z" />
    <glyph glyph-name="Obreve" unicode="&#x14e;" horiz-adv-x="1320" 
d="M944 1397q187 0 308 -126q70 -73 106 -194q28 -94 28 -198q0 -156 -47.5 -314t-131.5 -283q-102 -151 -236 -232q-140 -83 -297 -83q-227 0 -350 167q-101 137 -101 348q0 197 75 398q95 255 290 398q161 119 356 119zM909 1205q-89 0 -176.5 -62t-151.5 -170
q-59 -99 -94 -236t-35 -266q0 -158 77 -240q67 -72 165 -72q196 0 331 230q61 103 96.5 238.5t35.5 264.5q0 152 -73 239q-63 74 -175 74zM755 1735h137q2 -70 27 -98.5t85 -28.5q58 0 94 28t67 99h137q-30 -126 -111 -196t-197 -70q-115 0 -178 59.5t-63 167.5q0 17 2 39z
" />
    <glyph glyph-name="obreve" unicode="&#x14f;" horiz-adv-x="1028" 
d="M708 971q162 0 262 -91q112 -103 112 -287q0 -122 -42.5 -241t-115.5 -204q-154 -177 -391 -177q-228 0 -325 155q-60 94 -60 228q0 238 139 415q160 202 421 202zM680 801q-70 0 -134.5 -40.5t-110.5 -112.5q-80 -129 -80 -298q0 -119 70 -172q49 -37 120 -37
q140 0 231 130q43 62 69 150.5t26 172.5q0 97 -51 152t-140 55zM531 1365h137q2 -62 18 -86q27 -41 94 -41q58 0 93.5 28t67.5 99h137q-30 -126 -111 -196t-197 -70q-115 0 -178 59.5t-63 167.5q0 17 2 39z" />
    <glyph glyph-name="Ohungarumlaut" unicode="&#x150;" horiz-adv-x="1320" 
d="M944 1397q187 0 308 -126q70 -73 106 -194q28 -94 28 -198q0 -156 -47.5 -314t-131.5 -283q-102 -151 -236 -232q-140 -83 -297 -83q-227 0 -350 167q-101 137 -101 348q0 197 75 398q95 255 290 398q161 119 356 119zM909 1205q-89 0 -176.5 -62t-151.5 -170
q-59 -99 -94 -236t-35 -266q0 -158 77 -240q67 -72 165 -72q196 0 331 230q61 103 96.5 238.5t35.5 264.5q0 152 -73 239q-63 74 -175 74zM1127 1736l-254 -272h-174l238 272h190zM1447 1736l-254 -272h-174l238 272h190z" />
    <glyph glyph-name="ohungarumlaut" unicode="&#x151;" horiz-adv-x="1028" 
d="M895 1365l-254 -273h-174l238 273h190zM1215 1365l-254 -273h-174l238 273h190zM708 971q162 0 262 -91q112 -103 112 -287q0 -122 -42.5 -241t-115.5 -204q-154 -177 -391 -177q-228 0 -325 155q-60 94 -60 228q0 238 139 415q160 202 421 202zM680 801
q-70 0 -134.5 -40.5t-110.5 -112.5q-80 -129 -80 -298q0 -119 70 -172q49 -37 120 -37q140 0 231 130q43 62 69 150.5t26 172.5q0 97 -51 152t-140 55z" />
    <glyph glyph-name="Racute" unicode="&#x154;" horiz-adv-x="1288" 
d="M197 0l290 1365h505q107 0 171.5 -22.5t109.5 -75.5q71 -84 71 -209q0 -144 -80.5 -251.5t-223.5 -155.5q62 -19 90 -53q46 -57 46 -145q0 -54 -11 -130q-26 -181 -26 -236q0 -45 27 -87h-238q-8 32 -8 57q0 41 17 145q20 126 20 183q0 101 -47 139.5t-169 38.5h-200
l-119 -563h-225zM579 739h198q93 0 144.5 13t90.5 45q46 39 72.5 100t26.5 127q0 81 -50 116t-165 35h-224zM1227 1735l-240 -260h-171l225 260h186z" />
    <glyph glyph-name="racute" unicode="&#x155;" horiz-adv-x="660" 
d="M131 0l200 942h194l-33 -156q126 185 314 185q10 0 57 -2l-43 -205q-51 6 -77 6q-147 0 -241 -134q-51 -73 -89 -255l-81 -381h-201zM920 1365l-255 -273h-174l238 273h191z" />
    <glyph glyph-name="Rcommaaccent" unicode="&#x156;" horiz-adv-x="1288" 
d="M197 0l290 1365h505q107 0 171.5 -22.5t109.5 -75.5q71 -84 71 -209q0 -144 -80.5 -251.5t-223.5 -155.5q62 -19 90 -53q46 -57 46 -145q0 -54 -11 -130q-26 -181 -26 -236q0 -45 27 -87h-238q-8 32 -8 57q0 41 17 145q20 126 20 183q0 101 -47 139.5t-169 38.5h-200
l-119 -563h-225zM579 739h198q93 0 144.5 13t90.5 45q46 39 72.5 100t26.5 127q0 81 -50 116t-165 35h-224zM732 -96l-30 -140q-46 -213 -214 -223l17 77q69 18 98 110h-75l38 176h166z" />
    <glyph glyph-name="rcommaaccent" unicode="&#x157;" horiz-adv-x="660" 
d="M131 0l200 942h194l-33 -156q126 185 314 185q10 0 57 -2l-43 -205q-51 6 -77 6q-147 0 -241 -134q-51 -73 -89 -255l-81 -381h-201zM297 -96l-30 -140q-46 -213 -214 -223l17 77q69 18 98 110h-75l38 176h166z" />
    <glyph glyph-name="Rcaron" unicode="&#x158;" horiz-adv-x="1288" 
d="M197 0l290 1365h505q107 0 171.5 -22.5t109.5 -75.5q71 -84 71 -209q0 -144 -80.5 -251.5t-223.5 -155.5q62 -19 90 -53q46 -57 46 -145q0 -54 -11 -130q-26 -181 -26 -236q0 -45 27 -87h-238q-8 32 -8 57q0 41 17 145q20 126 20 183q0 101 -47 139.5t-169 38.5h-200
l-119 -563h-225zM579 739h198q93 0 144.5 13t90.5 45q46 39 72.5 100t26.5 127q0 81 -50 116t-165 35h-224zM667 1735h180l69 -149l131 149h181l-238 -260h-195z" />
    <glyph glyph-name="rcaron" unicode="&#x159;" horiz-adv-x="660" 
d="M131 0l200 942h194l-33 -156q126 185 314 185q10 0 57 -2l-43 -205q-51 6 -77 6q-147 0 -241 -134q-51 -73 -89 -255l-81 -381h-201zM414 1365h178l57 -153l125 153h166l-226 -272h-189z" />
    <glyph glyph-name="Sacute" unicode="&#x15a;" horiz-adv-x="1103" 
d="M186 418h234q-7 -49 -7 -80q0 -89 48 -139t133 -50q132 0 209 106q49 68 49 145q0 88 -72 142q-43 33 -200 108q-243 117 -243 323q0 172 129 294q137 129 342 129q182 0 285 -91q90 -80 90 -211q0 -33 -8 -90h-219q8 35 8 56q0 144 -174 144q-110 0 -175 -71
q-55 -62 -55 -142q0 -66 46 -112.5t164 -100.5q115 -53 163.5 -84t83.5 -73q73 -90 73 -206q0 -170 -127 -297q-151 -151 -392 -151q-187 0 -289 92q-49 44 -78 110t-29 134q0 43 11 115zM1153 1735l-240 -260h-171l225 260h186z" />
    <glyph glyph-name="sacute" unicode="&#x15b;" horiz-adv-x="889" 
d="M118 268h212q-2 -19 -2 -30q0 -52 41 -81.5t112 -29.5q88 0 144.5 45t56.5 116q0 62 -70 98q-32 16 -168 49q-109 27 -168 85.5t-59 140.5q0 135 110.5 222.5t282.5 87.5q178 0 271 -85q61 -55 61 -136q0 -21 -3 -50h-217q1 14 1 19q0 46 -36.5 74t-96.5 28
q-73 0 -121.5 -39.5t-48.5 -99.5q0 -44 31 -67t118 -44q157 -38 214 -72q110 -66 110 -186q0 -131 -110 -233q-118 -109 -318 -109q-188 0 -273 79q-34 31 -54.5 81t-20.5 101q0 14 1 36zM957 1365l-255 -273h-174l238 273h191z" />
    <glyph glyph-name="Scircumflex" unicode="&#x15c;" horiz-adv-x="1103" 
d="M186 418h234q-7 -49 -7 -80q0 -89 48 -139t133 -50q132 0 209 106q49 68 49 145q0 88 -72 142q-43 33 -200 108q-243 117 -243 323q0 172 129 294q137 129 342 129q182 0 285 -91q90 -80 90 -211q0 -33 -8 -90h-219q8 35 8 56q0 144 -174 144q-110 0 -175 -71
q-55 -62 -55 -142q0 -66 46 -112.5t164 -100.5q115 -53 163.5 -84t83.5 -73q73 -90 73 -206q0 -170 -127 -297q-151 -151 -392 -151q-187 0 -289 92q-49 44 -78 110t-29 134q0 43 11 115zM1146 1475h-180l-69 149l-132 -149h-180l238 260h194z" />
    <glyph glyph-name="scircumflex" unicode="&#x15d;" horiz-adv-x="889" 
d="M118 268h212q-2 -19 -2 -30q0 -52 41 -81.5t112 -29.5q88 0 144.5 45t56.5 116q0 62 -70 98q-32 16 -168 49q-109 27 -168 85.5t-59 140.5q0 135 110.5 222.5t282.5 87.5q178 0 271 -85q61 -55 61 -136q0 -21 -3 -50h-217q1 14 1 19q0 46 -36.5 74t-96.5 28
q-73 0 -121.5 -39.5t-48.5 -99.5q0 -44 31 -67t118 -44q157 -38 214 -72q110 -66 110 -186q0 -131 -110 -233q-118 -109 -318 -109q-188 0 -273 79q-34 31 -54.5 81t-20.5 101q0 14 1 36zM925 1093h-179l-56 153l-125 -153h-166l226 272h189z" />
    <glyph glyph-name="Scedilla" unicode="&#x15e;" horiz-adv-x="1103" 
d="M478 -26q-94 15 -154 53q-73 46 -113 127q-36 73 -36 149q0 43 11 115h234q-7 -49 -7 -80q0 -89 48 -139t133 -50q132 0 209 106q49 68 49 145q0 87 -72 142q-43 33 -200 108q-243 117 -243 323q0 172 129 294q137 129 342 129q182 0 285 -91q90 -80 90 -211
q0 -33 -8 -90h-219q8 35 8 56q0 144 -174 144q-110 0 -175 -71q-55 -62 -55 -142q0 -66 46 -112.5t164 -100.5q114 -53 163 -84t84 -73q73 -90 73 -206q0 -97 -46 -186t-129 -153q-141 -109 -345 -109l-44 -75q26 12 52 12q59 0 99 -38.5t40 -95.5q0 -77 -62.5 -128.5
t-154.5 -51.5q-74 0 -114 35q-36 31 -36 71q0 1 1 5h108q3 -31 49 -31q39 0 64.5 28.5t25.5 71.5q0 56 -58 56q-40 0 -57 -27h-108z" />
    <glyph glyph-name="scedilla" unicode="&#x15f;" horiz-adv-x="888" 
d="M388 -24q-49 6 -85 15q-102 28 -148 104q-38 64 -38 137q0 14 1 36h212q-2 -19 -2 -30q0 -52 41 -81.5t112 -29.5q88 0 144.5 45t56.5 116q0 62 -70 98q-32 16 -168 49q-109 27 -168 86t-59 140q0 135 110.5 222.5t282.5 87.5q178 0 271 -85q61 -55 61 -136q0 -21 -3 -50
h-217q1 14 1 19q0 46 -36.5 74t-96.5 28q-73 0 -121.5 -39.5t-48.5 -99.5q0 -44 31 -67t118 -44q157 -38 214 -72q110 -66 110 -186q0 -74 -40 -145t-109 -119q-106 -75 -263 -78l-46 -79q28 11 53 11q59 0 99 -38.5t40 -95.5q0 -76 -62.5 -127.5t-154.5 -51.5
q-74 0 -114 35q-36 31 -36 71v5h108q4 -31 50 -31q39 0 64.5 28.5t25.5 71.5q0 56 -58 56q-40 0 -57 -27h-108z" />
    <glyph glyph-name="Scaron" unicode="&#x160;" horiz-adv-x="1103" 
d="M186 418h234q-7 -49 -7 -80q0 -89 48 -139t133 -50q132 0 209 106q49 68 49 145q0 88 -72 142q-43 33 -200 108q-243 117 -243 323q0 172 129 294q137 129 342 129q182 0 285 -91q90 -80 90 -211q0 -33 -8 -90h-219q8 35 8 56q0 144 -174 144q-110 0 -175 -71
q-55 -62 -55 -142q0 -66 46 -112.5t164 -100.5q115 -53 163.5 -84t83.5 -73q73 -90 73 -206q0 -170 -127 -297q-151 -151 -392 -151q-187 0 -289 92q-49 44 -78 110t-29 134q0 43 11 115zM632 1735h180l69 -149l131 149h181l-238 -260h-195z" />
    <glyph glyph-name="scaron" unicode="&#x161;" horiz-adv-x="889" 
d="M118 268h212q-2 -19 -2 -30q0 -52 41 -81.5t112 -29.5q88 0 144.5 45t56.5 116q0 62 -70 98q-32 16 -168 49q-109 27 -168 85.5t-59 140.5q0 135 110.5 222.5t282.5 87.5q178 0 271 -85q61 -55 61 -136q0 -21 -3 -50h-217q1 14 1 19q0 46 -36.5 74t-96.5 28
q-73 0 -121.5 -39.5t-48.5 -99.5q0 -44 31 -67t118 -44q157 -38 214 -72q110 -66 110 -186q0 -131 -110 -233q-118 -109 -318 -109q-188 0 -273 79q-34 31 -54.5 81t-20.5 101q0 14 1 36zM462 1365h178l57 -153l125 153h166l-226 -272h-189z" />
    <glyph glyph-name="Tcommaaccent" unicode="&#x162;" horiz-adv-x="1053" 
d="M414 0l250 1175h-356l41 190h936l-41 -190h-355l-250 -1175h-225zM593 -96l-30 -140q-46 -213 -214 -223l17 77q69 18 98 110h-75l38 176h166z" />
    <glyph glyph-name="tcommaaccent" unicode="&#x163;" horiz-adv-x="588" 
d="M180 782l33 160h150l25 117l188 196h54l-67 -313h177l-34 -160h-175l-104 -490q-14 -64 -14 -86q0 -56 78 -56q36 0 83 14l-35 -164q-57 -20 -150 -20q-189 0 -189 142q0 48 22 151l109 509h-151zM361 -96l-30 -140q-46 -213 -214 -223l17 77q69 18 98 110h-75l38 176
h166z" />
    <glyph glyph-name="Tcaron" unicode="&#x164;" horiz-adv-x="1054" 
d="M414 0l250 1175h-356l41 190h936l-41 -190h-355l-250 -1175h-225zM615 1735h180l69 -149l131 149h181l-238 -260h-195z" />
    <glyph glyph-name="tcaron" unicode="&#x165;" horiz-adv-x="604" 
d="M179 782l33 160h150l25 117l188 196h54l-67 -313h177l-34 -160h-175l-104 -490q-14 -64 -14 -86q0 -56 78 -56q36 0 83 14l-35 -164q-57 -20 -150 -20q-189 0 -189 142q0 48 22 151l109 509h-151zM937 1380l-30 -140q-46 -212 -224 -223l17 77q73 19 103 110h-80l38 176
h176z" />
    <glyph glyph-name="Tbar" unicode="&#x166;" horiz-adv-x="1037" 
d="M772 660l-141 -660h-225l141 660h-221l28 131h221l81 384h-384l41 190h992l-41 -190h-383l-82 -384h221l-28 -131h-220z" />
    <glyph glyph-name="tbar" unicode="&#x167;" horiz-adv-x="568" 
d="M302 647l30 135h-152l33 160h148l25 117l188 196h57l-67 -313h175l-33 -160h-177l-30 -135h177l-29 -139h-177l-46 -215q-12 -58 -12 -86q0 -57 78 -57q35 0 84 14l-35 -164q-54 -20 -142 -20q-194 0 -194 149q0 49 24 160l47 219h-153l29 139h152z" />
    <glyph glyph-name="Utilde" unicode="&#x168;" horiz-adv-x="1257" 
d="M440 1365h224l-166 -781q-29 -138 -29 -218q0 -207 201 -207q139 0 213 93t125 332l166 781h225l-170 -797q-35 -165 -70 -247q-151 -354 -513 -354q-223 0 -322 124q-80 99 -80 255q0 99 37 275zM1185 1714h117q-84 -233 -232 -233q-59 0 -154 63q-48 31 -74 31
q-53 0 -91 -94h-115q83 233 239 233q37 0 64.5 -11t80.5 -48q42 -29 70 -29q54 0 95 88z" />
    <glyph glyph-name="utilde" unicode="&#x169;" horiz-adv-x="1045" 
d="M913 0h-189l26 119q-133 -148 -307 -148q-121 0 -188.5 61t-67.5 170q0 54 20 146l126 594h201l-117 -549q-19 -91 -19 -136q0 -35 14 -60q31 -56 114 -56q63 0 121 33.5t94 91.5q41 64 71 203l101 473h200zM1118 1365q-81 -247 -237 -247q-54 0 -150 51q-47 25 -70 25
q-46 0 -80 -80l-3 -8h-128q20 67 52 119q79 130 189 130q40 0 64 -9.5t111 -60.5q21 -12 41 -12q47 0 82 92h129z" />
    <glyph glyph-name="Umacron" unicode="&#x16a;" horiz-adv-x="1258" 
d="M440 1365h224l-166 -781q-29 -138 -29 -218q0 -207 201 -207q139 0 213 93t125 332l166 781h225l-170 -797q-35 -165 -70 -247q-151 -354 -513 -354q-223 0 -322 124q-80 99 -80 255q0 99 37 275zM1259 1610l-28 -131h-580l28 131h580z" />
    <glyph glyph-name="umacron" unicode="&#x16b;" horiz-adv-x="1044" 
d="M913 0h-189l26 119q-133 -148 -307 -148q-121 0 -188.5 61t-67.5 170q0 54 20 146l126 594h201l-117 -549q-19 -91 -19 -136q0 -35 14 -60q31 -56 114 -56q63 0 121 33.5t94 91.5q41 64 71 203l101 473h200zM1068 1268l-28 -131h-559l28 131h559z" />
    <glyph glyph-name="Ubreve" unicode="&#x16c;" horiz-adv-x="1257" 
d="M440 1365h224l-166 -781q-29 -138 -29 -218q0 -207 201 -207q139 0 213 93t125 332l166 781h225l-170 -797q-35 -165 -70 -247q-151 -354 -513 -354q-223 0 -322 124q-80 99 -80 255q0 99 37 275zM715 1735h137q2 -70 27 -98.5t85 -28.5q58 0 94 28t67 99h137
q-30 -126 -111 -196t-197 -70q-115 0 -178 59.5t-63 167.5q0 17 2 39z" />
    <glyph glyph-name="ubreve" unicode="&#x16d;" horiz-adv-x="1045" 
d="M913 0h-189l26 119q-133 -148 -307 -148q-121 0 -188.5 61t-67.5 170q0 54 20 146l126 594h201l-117 -549q-19 -91 -19 -136q0 -35 14 -60q31 -56 114 -56q63 0 121 33.5t94 91.5q41 64 71 203l101 473h200zM522 1365h137q2 -62 18 -86q27 -41 94 -41q58 0 93.5 28
t67.5 99h137q-30 -126 -111 -196t-197 -70q-115 0 -178 59.5t-63 167.5q0 17 2 39z" />
    <glyph glyph-name="Uring" unicode="&#x16e;" horiz-adv-x="1258" 
d="M440 1365h224l-166 -781q-29 -138 -29 -218q0 -207 201 -207q139 0 213 93t125 332l166 781h225l-170 -797q-35 -165 -70 -247q-151 -354 -513 -354q-223 0 -322 124q-80 99 -80 255q0 99 37 275zM970 1727q-40 0 -68 -29t-28 -71t27.5 -71t66.5 -29t67 29t28 71
q0 41 -27.5 70.5t-65.5 29.5zM971 1821q80 0 137.5 -57t57.5 -137q0 -79 -57 -135q-58 -58 -141 -58t-140 56q-58 58 -58 137q0 81 58.5 137.5t142.5 56.5z" />
    <glyph glyph-name="uring" unicode="&#x16f;" horiz-adv-x="1044" 
d="M913 0h-189l26 119q-133 -148 -307 -148q-121 0 -188.5 61t-67.5 170q0 54 20 146l126 594h201l-117 -549q-19 -91 -19 -136q0 -35 14 -60q31 -56 114 -56q63 0 121 33.5t94 91.5q41 64 71 203l101 473h200zM750 1356q-43 0 -72.5 -29t-29.5 -72q0 -41 29 -70.5t70 -29.5
q42 0 71.5 29.5t29.5 70.5q0 42 -29 71.5t-69 29.5zM751 1447q84 0 144 -56q61 -56 61 -136q0 -77 -60 -133q-61 -57 -148 -57t-147 56q-61 56 -61 134q0 81 61.5 136.5t149.5 55.5z" />
    <glyph glyph-name="Uhungarumlaut" unicode="&#x170;" horiz-adv-x="1258" 
d="M440 1365h224l-166 -781q-29 -138 -29 -218q0 -207 201 -207q139 0 213 93t125 332l166 781h225l-170 -797q-35 -165 -70 -247q-151 -354 -513 -354q-223 0 -322 124q-80 99 -80 255q0 99 37 275zM1084 1736l-254 -272h-174l238 272h190zM1404 1736l-254 -272h-174
l238 272h190z" />
    <glyph glyph-name="uhungarumlaut" unicode="&#x171;" horiz-adv-x="1044" 
d="M899 1365l-255 -273h-174l238 273h191zM1219 1365l-255 -273h-174l238 273h191zM913 0h-189l26 119q-133 -148 -307 -148q-121 0 -188.5 61t-67.5 170q0 54 20 146l126 594h201l-117 -549q-19 -91 -19 -136q0 -35 14 -60q31 -56 114 -56q63 0 121 33.5t94 91.5
q41 64 71 203l101 473h200z" />
    <glyph glyph-name="Uogonek" unicode="&#x172;" horiz-adv-x="1261" 
d="M808 -13q-8 -6 -20 -16q-40 -29 -67 -74t-27 -81q0 -72 85 -72q23 0 74 14l-23 -111q-56 -22 -100 -22q-82 0 -130.5 43t-48.5 116q0 97 108 183h-6h-10q-220 0 -319 124q-80 99 -80 255q0 99 37 275l159 744h224l-166 -781q-29 -138 -29 -219q0 -206 201 -206
q139 0 213 93t125 332l166 781h225l-170 -797q-89 -487 -421 -581z" />
    <glyph glyph-name="uogonek" unicode="&#x173;" horiz-adv-x="1043" 
d="M898 0q-128 -91 -128 -177q0 -73 85 -73q23 0 74 15l-24 -111q-53 -23 -100 -23q-82 0 -130 43.5t-48 116.5q0 59 33.5 105t118.5 104h-55l26 119q-133 -148 -307 -148q-121 0 -188.5 61t-67.5 170q0 54 20 146l126 594h201l-117 -549q-19 -91 -19 -136q0 -35 14 -60
q31 -56 114 -56q63 0 121 33.5t94 91.5q41 64 71 203l101 473h200l-200 -942h-15z" />
    <glyph glyph-name="Wcircumflex" unicode="&#x174;" horiz-adv-x="1561" 
d="M329 0l-12 1365h228l-28 -1055l442 1055h226l-10 -1057l425 1057h224l-598 -1365h-229l6 1055l-443 -1055h-231zM1375 1475h-180l-69 149l-132 -149h-180l238 260h194z" />
    <glyph glyph-name="wcircumflex" unicode="&#x175;" horiz-adv-x="1349" 
d="M303 0l-76 942h227l19 -688l295 688h214l11 -681l312 681h218l-475 -942h-218l-13 675l-294 -675h-220zM1161 1093h-179l-56 153l-125 -153h-166l226 272h189z" />
    <glyph glyph-name="Ycircumflex" unicode="&#x176;" horiz-adv-x="1068" 
d="M423 0l116 545l-253 820h253l164 -597l414 597h246l-599 -822l-116 -543h-225zM1128 1475h-180l-69 149l-132 -149h-180l238 260h194z" />
    <glyph glyph-name="ycircumflex" unicode="&#x177;" horiz-adv-x="931" 
d="M36 -344l36 172q69 -13 108 -13q61 0 107 67q57 83 80 139l-145 921h232l74 -689l359 689h222l-520 -922q-125 -221 -186 -281q-95 -94 -227 -94q-56 0 -140 11zM944 1093h-179l-56 153l-125 -153h-166l226 272h189z" />
    <glyph glyph-name="Zacute" unicode="&#x179;" horiz-adv-x="1098" 
d="M87 0l39 183l867 992h-606l41 190h875l-39 -178l-871 -997h677l-41 -190h-942zM1164 1735l-240 -260h-171l225 260h186z" />
    <glyph glyph-name="zacute" unicode="&#x17a;" horiz-adv-x="956" 
d="M89 0l34 157l632 619h-468l36 166h731l-31 -144l-636 -632h529l-36 -166h-791zM978 1365l-255 -273h-174l238 273h191z" />
    <glyph glyph-name="Zdotaccent" unicode="&#x17b;" horiz-adv-x="1098" 
d="M87 0l39 183l867 992h-606l41 190h875l-39 -178l-871 -997h677l-41 -190h-942zM1008 1675l-43 -201h-192l44 201h191z" />
    <glyph glyph-name="zdotaccent" unicode="&#x17c;" horiz-adv-x="956" 
d="M89 0l34 157l632 619h-468l36 166h731l-31 -144l-636 -632h529l-36 -166h-791zM816 1311l-44 -201h-203l44 201h203z" />
    <glyph glyph-name="Zcaron" unicode="&#x17d;" horiz-adv-x="1098" 
d="M87 0l39 183l867 992h-606l41 190h875l-39 -178l-871 -997h677l-41 -190h-942zM659 1735h180l69 -149l131 149h181l-238 -260h-195z" />
    <glyph glyph-name="zcaron" unicode="&#x17e;" horiz-adv-x="956" 
d="M89 0l34 157l632 619h-468l36 166h731l-31 -144l-636 -632h529l-36 -166h-791zM468 1365h178l57 -153l125 153h166l-226 -272h-189z" />
    <glyph glyph-name="longs" unicode="&#x17f;" horiz-adv-x="598" 
d="M198 0l231 1088q34 157 96 220q85 88 235 88q41 0 120 -12l-36 -168q-45 10 -78 10q-62 0 -91.5 -33.5t-48.5 -124.5l-227 -1068h-201z" />
    <glyph glyph-name="uni01CD" unicode="&#x1cd;" 
d="M751 1365h235l149 -1365h-237l-29 367h-438l-186 -367h-231zM522 549h332l-43 550zM662 1735h180l69 -149l131 149h181l-238 -260h-195z" />
    <glyph glyph-name="uni01CE" unicode="&#x1ce;" horiz-adv-x="1000" 
d="M981 142l-30 -142q-65 -25 -139 -25q-61 0 -88 24t-33 84q-134 -112 -314 -112q-122 0 -194.5 59t-72.5 157q0 104 68.5 194.5t179.5 134.5q69 27 154 38t265 16l23 107q3 14 3 30q0 57 -36 82.5t-117 25.5q-91 0 -132.5 -24t-63.5 -89h-203q73 269 444 269
q124 0 206 -47q105 -60 105 -184q0 -56 -29 -194l-70 -327q-8 -38 -8 -52q0 -36 37 -36q19 0 45 11zM753 454q-160 -7 -246 -31q-77 -22 -127.5 -77t-50.5 -117q0 -102 133 -102q118 0 202 103q55 67 72 149zM529 1365h178l57 -153l125 153h166l-226 -272h-189z" />
    <glyph glyph-name="uni01D3" unicode="&#x1d3;" horiz-adv-x="1258" 
d="M440 1365h224l-166 -781q-29 -138 -29 -218q0 -207 201 -207q139 0 213 93t125 332l166 781h225l-170 -797q-35 -165 -70 -247q-151 -354 -513 -354q-223 0 -322 124q-80 99 -80 255q0 99 37 275zM717 1735h180l69 -149l131 149h181l-238 -260h-195z" />
    <glyph glyph-name="uni01D4" unicode="&#x1d4;" horiz-adv-x="1044" 
d="M913 0h-189l26 119q-133 -148 -307 -148q-121 0 -188.5 61t-67.5 170q0 54 20 146l126 594h201l-117 -549q-19 -91 -19 -136q0 -35 14 -60q31 -56 114 -56q63 0 121 33.5t94 91.5q41 64 71 203l101 473h200zM547 1365h178l57 -153l125 153h166l-226 -272h-189z" />
    <glyph glyph-name="Gcaron" unicode="&#x1e6;" horiz-adv-x="1326" 
d="M1177 0h-173l34 159q-72 -77 -127 -116q-109 -76 -252 -76q-226 0 -341 168q-95 140 -95 348t82 408q104 255 296 393q156 112 351 112q215 0 327 -137q89 -107 89 -248q0 -30 -5 -81h-218q4 34 4 54q0 99 -61.5 159.5t-160.5 60.5q-207 0 -346 -237q-59 -101 -94 -235.5
t-35 -260.5q0 -89 27.5 -158.5t76.5 -106.5q62 -46 151 -46q197 0 314 206q37 65 68 181h-301l39 182h505zM759 1735h180l69 -149l131 149h181l-238 -260h-195z" />
    <glyph glyph-name="gcaron" unicode="&#x1e7;" horiz-adv-x="1055" 
d="M76 -106h208q0 -37 15 -53q38 -46 145 -46q118 0 189 73.5t105 229.5l10 49q-114 -139 -288 -139q-139 0 -221 86q-90 95 -90 261q0 117 39.5 232.5t108.5 200.5q150 183 372 183q177 0 244 -139l24 110h188l-162 -763q-31 -145 -64 -225t-89 -144q-142 -165 -390 -165
q-155 0 -253 51q-94 49 -94 150q0 19 3 48zM660 801q-131 0 -219 -140q-78 -125 -78 -277q0 -96 45 -151t123 -55q136 0 228 145q80 125 80 279q0 94 -47 146.5t-132 52.5zM543 1365h178l57 -153l125 153h166l-226 -272h-189z" />
    <glyph glyph-name="uni01F5" unicode="&#x1f5;" horiz-adv-x="1055" 
d="M76 -106h208q0 -37 15 -53q38 -46 145 -46q118 0 189 73.5t105 229.5l10 49q-114 -139 -288 -139q-139 0 -221 86q-90 95 -90 261q0 117 39.5 232.5t108.5 200.5q150 183 372 183q177 0 244 -139l24 110h188l-162 -763q-31 -145 -64 -225t-89 -144q-142 -165 -390 -165
q-155 0 -253 51q-94 49 -94 150q0 19 3 48zM660 801q-131 0 -219 -140q-78 -125 -78 -277q0 -96 45 -151t123 -55q136 0 228 145q80 125 80 279q0 94 -47 146.5t-132 52.5zM1044 1365l-255 -273h-174l238 273h191z" />
    <glyph glyph-name="Scommaaccent" unicode="&#x218;" horiz-adv-x="1102" 
d="M186 418h234q-7 -49 -7 -80q0 -89 48 -139t133 -50q132 0 209 106q49 68 49 145q0 88 -72 142q-43 33 -200 108q-243 117 -243 323q0 172 129 294q137 129 342 129q182 0 285 -91q90 -80 90 -211q0 -33 -8 -90h-219q8 35 8 56q0 144 -174 144q-110 0 -175 -71
q-55 -62 -55 -142q0 -66 46 -112.5t164 -100.5q115 -53 163.5 -84t83.5 -73q73 -90 73 -206q0 -170 -127 -297q-151 -151 -392 -151q-187 0 -289 92q-49 44 -78 110t-29 134q0 43 11 115zM625 -96l-30 -140q-46 -213 -214 -223l17 77q69 18 98 110h-75l38 176h166z" />
    <glyph glyph-name="scommaaccent" unicode="&#x219;" horiz-adv-x="890" 
d="M118 268h212q-2 -19 -2 -30q0 -52 41 -81.5t112 -29.5q88 0 144.5 45t56.5 116q0 62 -70 98q-32 16 -168 49q-109 27 -168 85.5t-59 140.5q0 135 110.5 222.5t282.5 87.5q178 0 271 -85q61 -55 61 -136q0 -21 -3 -50h-217q1 14 1 19q0 46 -36.5 74t-96.5 28
q-73 0 -121.5 -39.5t-48.5 -99.5q0 -44 31 -67t118 -44q157 -38 214 -72q110 -66 110 -186q0 -131 -110 -233q-118 -109 -318 -109q-188 0 -273 79q-34 31 -54.5 81t-20.5 101q0 14 1 36zM519 -96l-30 -140q-46 -213 -214 -223l17 77q69 18 98 110h-75l38 176h166z" />
    <glyph glyph-name="uni021A" unicode="&#x21a;" horiz-adv-x="1053" 
d="M414 0l250 1175h-356l41 190h936l-41 -190h-355l-250 -1175h-225zM593 -96l-30 -140q-46 -213 -214 -223l17 77q69 18 98 110h-75l38 176h166z" />
    <glyph glyph-name="uni021B" unicode="&#x21b;" horiz-adv-x="588" 
d="M180 782l33 160h150l25 117l188 196h54l-67 -313h177l-34 -160h-175l-104 -490q-14 -64 -14 -86q0 -56 78 -56q36 0 83 14l-35 -164q-57 -20 -150 -20q-189 0 -189 142q0 48 22 151l109 509h-151zM361 -96l-30 -140q-46 -213 -214 -223l17 77q69 18 98 110h-75l38 176
h166z" />
    <glyph glyph-name="dotlessj" unicode="&#x237;" horiz-adv-x="501" 
d="M-89 -349l35 166q32 -6 54 -6q62 0 89.5 34t49.5 139l204 958h201l-203 -956q-37 -174 -82 -234q-78 -107 -262 -107q-36 0 -86 6z" />
    <glyph glyph-name="afii57929" unicode="&#x2bc;" horiz-adv-x="598" 
d="M712 1365l-38 -181q-55 -310 -321 -354l25 119q112 27 146 168h-110l52 248h246z" />
    <glyph glyph-name="uni037E" unicode="&#x37e;" horiz-adv-x="598" 
d="M474 248l-38 -181q-38 -179 -124 -258q-89 -82 -197 -96l25 119q112 27 146 168h-110l52 248h246zM622 942l-52 -248h-246l52 248h246z" />
    <glyph glyph-name="anoteleia" unicode="&#x387;" horiz-adv-x="598" 
d="M549 602l-52 -248h-246l52 248h246z" />
    <glyph glyph-name="afii10023" unicode="&#x401;" horiz-adv-x="1118" 
d="M171 0l290 1365h823l-41 -190h-598l-79 -374h553l-41 -190h-553l-88 -421h608l-41 -190h-833zM1198 1653l-44 -201h-192l44 201h192zM872 1653l-43 -201h-192l44 201h191z" />
    <glyph glyph-name="afii10051" unicode="&#x402;" horiz-adv-x="1236" 
d="M610 -17q44 -16 78 -16q158 0 247 217q37 90 60 202t23 205q0 210 -147 210q-135 0 -206 -146q-34 -69 -60 -192l-98 -463h-225l249 1175h-256l41 190h936l-41 -190h-455l-72 -344q114 140 270 140q123 0 193 -81q82 -96 82 -285q0 -163 -47.5 -326t-125.5 -269
q-155 -209 -362 -209q-62 0 -119 15z" />
    <glyph glyph-name="afii10052" unicode="&#x403;" horiz-adv-x="1035" 
d="M461 1365h790l-41 -190h-565l-249 -1175h-225zM1172 1735l-240 -260h-171l225 260h186z" />
    <glyph glyph-name="afii10053" unicode="&#x404;" horiz-adv-x="1236" 
d="M506 801h441l-41 -190h-446q-8 -87 -8 -147q0 -146 65 -230q58 -75 168 -75q239 0 356 363h222q-54 -209 -186 -358q-175 -197 -412 -197q-256 0 -366 192q-76 133 -76 317q0 167 49.5 328t141.5 291q214 301 524 301q193 0 306 -123q105 -113 105 -272q0 -24 -5 -73
h-225q-2 120 -33 175q-56 101 -177 101q-258 0 -403 -403z" />
    <glyph glyph-name="afii10054" unicode="&#x405;" horiz-adv-x="1103" 
d="M186 418h234q-7 -49 -7 -80q0 -89 48 -139t133 -50q132 0 209 106q49 68 49 145q0 88 -72 142q-43 33 -200 108q-243 117 -243 323q0 172 129 294q137 129 342 129q182 0 285 -91q90 -80 90 -211q0 -33 -8 -90h-219q8 35 8 56q0 144 -174 144q-110 0 -175 -71
q-55 -62 -55 -142q0 -66 46 -112.5t164 -100.5q115 -53 163.5 -84t83.5 -73q73 -90 73 -206q0 -170 -127 -297q-151 -151 -392 -151q-187 0 -289 92q-49 44 -78 110t-29 134q0 43 11 115z" />
    <glyph glyph-name="afii10055" unicode="&#x406;" horiz-adv-x="566" 
d="M171 0l290 1365h225l-290 -1365h-225z" />
    <glyph glyph-name="afii10056" unicode="&#x407;" horiz-adv-x="566" 
d="M171 0l290 1365h225l-290 -1365h-225zM861 1653l-44 -201h-192l44 201h192zM600 1653l-43 -201h-192l44 201h191z" />
    <glyph glyph-name="afii10057" unicode="&#x408;" horiz-adv-x="675" 
d="M12 -19l42 199q63 -21 108 -21q122 0 182 124q20 41 31 79.5t42 181.5l174 821h225l-191 -898q-30 -143 -57.5 -215t-75.5 -133q-118 -152 -338 -152q-60 0 -142 14z" />
    <glyph glyph-name="afii10058" unicode="&#x409;" horiz-adv-x="1746" 
d="M1361 1365l-111 -523h159q190 0 277 -56q60 -38 94.5 -109t34.5 -157q0 -103 -37 -201t-102 -169q-77 -83 -169.5 -116.5t-243.5 -33.5h-417l250 1175h-339l-250 -764q-38 -118 -60.5 -167.5t-61.5 -100.5q-68 -85 -150.5 -124t-198.5 -39h-23l42 197q79 3 127 46t81 141
l331 1001h767zM1207 641l-94 -440h153q85 0 133 12.5t87 46.5q100 84 100 224q0 83 -58 125q-43 32 -168 32h-153z" />
    <glyph glyph-name="afii10059" unicode="&#x40a;" horiz-adv-x="1815" 
d="M1090 825l114 540h225l-114 -540h158q191 0 278 -54q61 -37 95.5 -106t34.5 -155q0 -101 -36.5 -197t-101.5 -166q-75 -81 -168 -114t-245 -33h-416l135 635h-484l-134 -635h-225l290 1365h225l-115 -540h484zM1274 635l-93 -434h153q85 0 132.5 12.5t86.5 45.5
q99 82 99 219q0 84 -58 126q-44 31 -168 31h-152z" />
    <glyph glyph-name="afii10060" unicode="&#x40b;" horiz-adv-x="1204" 
d="M756 1175l-72 -344q112 140 263 140q114 0 181 -61.5t67 -165.5q0 -60 -22 -163l-124 -581h-200l122 575q17 81 17 114q0 112 -118 112q-122 0 -197 -127q-36 -61 -68 -211l-98 -463h-225l249 1175h-256l41 190h936l-41 -190h-455z" />
    <glyph glyph-name="afii10061" unicode="&#x40c;" horiz-adv-x="1214" 
d="M163 0l290 1365h220l-121 -570h81l581 570h239l-632 -634l391 -731h-240l-372 656h-78l-139 -656h-220zM1271 1735l-240 -260h-171l225 260h186z" />
    <glyph glyph-name="afii10062" unicode="&#x40e;" horiz-adv-x="1065" 
d="M507 380l-213 985h250l127 -754l451 754h246l-723 -1128q-103 -164 -180 -217t-211 -53q-62 0 -134 14l42 199q63 -21 107 -21q58 0 108.5 42t104.5 137zM623 1735h137q2 -70 27 -98.5t85 -28.5q58 0 94 28t67 99h137q-30 -126 -111 -196t-197 -70q-115 0 -178 59.5
t-63 167.5q0 17 2 39z" />
    <glyph glyph-name="afii10145" unicode="&#x40f;" horiz-adv-x="1301" 
d="M539 0h-368l290 1365h225l-249 -1175h510l250 1175h225l-291 -1365h-367l-44 -205h-225z" />
    <glyph glyph-name="afii10017" unicode="&#x410;" 
d="M751 1365h235l149 -1365h-237l-29 367h-438l-186 -367h-231zM522 549h332l-43 550z" />
    <glyph glyph-name="afii10018" unicode="&#x411;" horiz-adv-x="1134" 
d="M1251 1365l-41 -190h-565l-71 -333h178q194 0 283 -57q61 -39 96 -111t35 -160q0 -101 -36.5 -198t-100.5 -167q-75 -82 -166 -115.5t-240 -33.5h-452l290 1365h790zM532 641l-94 -440h180q85 0 132.5 12.5t86.5 46.5q100 84 100 224q0 83 -58 125q-43 32 -167 32h-180z
" />
    <glyph glyph-name="afii10019" unicode="&#x412;" horiz-adv-x="1219" 
d="M171 0l290 1365h430q154 0 229 -27q171 -62 171 -256q0 -116 -70.5 -208t-195.5 -141q186 -64 186 -268q0 -99 -44.5 -192t-124.5 -161q-69 -60 -147 -86t-185 -26h-539zM565 797h189q80 0 125.5 9t75.5 32q98 71 98 204q0 87 -60 116q-35 17 -151 17h-196zM436 190h216
q96 0 147 13t90 47q42 38 67.5 97t25.5 120q0 100 -71 134q-43 20 -186 20h-197z" />
    <glyph glyph-name="afii10020" unicode="&#x413;" horiz-adv-x="1035" 
d="M461 1365h790l-41 -190h-565l-249 -1175h-225z" />
    <glyph glyph-name="afii10021" unicode="&#x414;" horiz-adv-x="1273" 
d="M1160 190h136l-84 -395h-225l44 205h-808l-43 -205h-225l85 395h39q77 0 126 44.5t82 144.5l328 986h794zM935 190l209 985h-367l-246 -748q-36 -110 -56 -151.5t-59 -85.5h519z" />
    <glyph glyph-name="afii10022" unicode="&#x415;" horiz-adv-x="1118" 
d="M171 0l290 1365h823l-41 -190h-598l-79 -374h553l-41 -190h-553l-88 -421h608l-41 -190h-833z" />
    <glyph glyph-name="afii10024" unicode="&#x416;" horiz-adv-x="1887" 
d="M1195 656l-139 -656h-220l139 656h-83l-651 -656h-239l701 731l-362 634h239l338 -570h87l121 570h220l-121 -570h81l581 570h239l-632 -634l391 -731h-240l-372 656h-78z" />
    <glyph glyph-name="afii10025" unicode="&#x417;" horiz-adv-x="1153" 
d="M590 611l41 190h138q145 0 228 91q65 70 65 159q0 70 -52.5 111.5t-140.5 41.5q-250 0 -357 -276h-221q51 215 229 350q160 120 378 120q224 0 322 -103q80 -82 80 -212q0 -138 -89.5 -240t-242.5 -138q197 -58 197 -260q0 -170 -126 -304q-163 -174 -419 -174
q-233 0 -338 139q-96 127 -96 306q0 43 9 110h224q-5 -65 -5 -102q0 -126 58 -193.5t166 -67.5q149 0 238 119q60 80 60 171q0 162 -209 162h-137z" />
    <glyph glyph-name="afii10026" unicode="&#x418;" horiz-adv-x="1289" 
d="M461 1365h209l-195 -917l703 809l23 108h208l-290 -1365h-209l194 913l-703 -813l-21 -100h-209z" />
    <glyph glyph-name="afii10027" unicode="&#x419;" horiz-adv-x="1289" 
d="M461 1365h209l-195 -917l703 809l23 108h208l-290 -1365h-209l194 913l-703 -813l-21 -100h-209zM739 1735h137q2 -70 27 -98.5t85 -28.5q58 0 94 28t67 99h137q-30 -126 -111 -196t-197 -70q-115 0 -178 59.5t-63 167.5q0 17 2 39z" />
    <glyph glyph-name="afii10028" unicode="&#x41a;" horiz-adv-x="1214" 
d="M163 0l290 1365h220l-121 -570h81l581 570h239l-632 -634l391 -731h-240l-372 656h-78l-139 -656h-220z" />
    <glyph glyph-name="afii10029" unicode="&#x41b;" horiz-adv-x="1269" 
d="M757 1175l-250 -763q-44 -135 -73.5 -194t-81.5 -113q-122 -126 -339 -125l42 195q80 3 127.5 46t80.5 143l331 1001h795l-291 -1365h-224l249 1175h-366z" />
    <glyph glyph-name="afii10030" unicode="&#x41c;" horiz-adv-x="1546" 
d="M171 0l290 1365h302l73 -1064l528 1064h302l-291 -1365h-208l229 1080l-528 -1080h-189l-72 1067l-227 -1067h-209z" />
    <glyph glyph-name="afii10031" unicode="&#x41d;" horiz-adv-x="1301" 
d="M171 0l290 1365h225l-118 -552h511l118 552h225l-291 -1365h-224l131 623h-511l-131 -623h-225z" />
    <glyph glyph-name="afii10032" unicode="&#x41e;" horiz-adv-x="1320" 
d="M944 1397q187 0 308 -126q70 -73 106 -194q28 -94 28 -198q0 -156 -47.5 -314t-131.5 -283q-102 -151 -236 -232q-140 -83 -297 -83q-227 0 -350 167q-101 137 -101 348q0 197 75 398q95 255 290 398q161 119 356 119zM909 1205q-89 0 -176.5 -62t-151.5 -170
q-59 -99 -94 -236t-35 -266q0 -158 77 -240q67 -72 165 -72q196 0 331 230q61 103 96.5 238.5t35.5 264.5q0 152 -73 239q-63 74 -175 74z" />
    <glyph glyph-name="afii10033" unicode="&#x41f;" horiz-adv-x="1301" 
d="M1422 1365l-291 -1365h-224l249 1175h-511l-249 -1175h-225l290 1365h961z" />
    <glyph glyph-name="afii10034" unicode="&#x420;" horiz-adv-x="1143" 
d="M171 0l290 1365h403q194 0 283 -56q62 -38 97 -109.5t35 -159.5q0 -102 -38.5 -201.5t-104.5 -169.5q-71 -75 -159 -108.5t-216 -33.5h-254l-111 -527h-225zM548 717h198q151 0 222 76q82 90 82 214q0 83 -58 125q-44 32 -168 32h-180z" />
    <glyph glyph-name="afii10035" unicode="&#x421;" horiz-adv-x="1236" 
d="M1041 522h222q-54 -209 -186 -358q-175 -197 -412 -197q-256 0 -366 192q-76 133 -76 317q0 166 50 328t141 291q214 301 524 301q254 0 361 -199q50 -93 50 -194q0 -28 -4 -75h-226q1 20 1 31q0 112 -57.5 178.5t-153.5 66.5q-194 0 -327 -235q-130 -227 -130 -494
q0 -159 64 -241q59 -75 169 -75q239 0 356 363z" />
    <glyph glyph-name="afii10036" unicode="&#x422;" horiz-adv-x="1053" 
d="M414 0l250 1175h-356l41 190h936l-41 -190h-355l-250 -1175h-225z" />
    <glyph glyph-name="afii10037" unicode="&#x423;" horiz-adv-x="1066" 
d="M507 380l-213 985h250l127 -754l451 754h246l-723 -1128q-103 -164 -180 -217t-211 -53q-62 0 -134 14l42 199q63 -21 107 -21q58 0 108.5 42t104.5 137z" />
    <glyph glyph-name="afii10038" unicode="&#x424;" horiz-adv-x="1647" 
d="M972 168l-36 -168h-225l36 168q-133 5 -232 33q-131 38 -209 142t-78 243q0 104 37.5 205t103.5 175q100 113 241 167t356 63l36 169h224l-36 -169q135 -6 233 -34q131 -37 209 -141.5t78 -242.5q0 -161 -80 -296q-89 -152 -268 -236q-147 -68 -383 -78h-7zM786 352
l140 659q-199 -8 -307 -85q-99 -71 -138 -192q-24 -74 -24 -143q0 -142 127 -201q68 -32 202 -38zM1151 1011l-140 -659q200 8 308 86q99 71 138 191q24 73 24 144q0 142 -127 201q-67 32 -203 37z" />
    <glyph glyph-name="afii10039" unicode="&#x425;" horiz-adv-x="1087" 
d="M11 0l557 709l-238 656h257l148 -480l359 480h245l-516 -656l254 -709h-263l-163 514l-390 -514h-250z" />
    <glyph glyph-name="afii10040" unicode="&#x426;" horiz-adv-x="1285" 
d="M1172 190h137l-85 -395h-225l44 205h-872l290 1365h225l-249 -1175h510l250 1175h225z" />
    <glyph glyph-name="afii10041" unicode="&#x427;" horiz-adv-x="1303" 
d="M1016 512q-113 -68 -288 -68q-211 0 -324 101q-94 83 -94 226q0 65 18 152l95 442h224l-96 -454q-14 -64 -14 -101q0 -174 245 -174q139 0 213.5 64.5t105.5 210.5l97 454h224l-5 -26l-285 -1339h-225z" />
    <glyph glyph-name="afii10042" unicode="&#x428;" horiz-adv-x="1818" 
d="M1648 0h-1477l290 1365h225l-249 -1175h401l250 1175h224l-249 -1175h402l249 1175h225z" />
    <glyph glyph-name="afii10043" unicode="&#x429;" horiz-adv-x="1802" 
d="M1689 190h137l-85 -395h-224l43 205h-1389l290 1365h225l-249 -1175h401l250 1175h224l-249 -1175h402l249 1175h225z" />
    <glyph glyph-name="afii10044" unicode="&#x42a;" horiz-adv-x="1253" 
d="M280 1365h525l-111 -523h177q195 0 284 -57q61 -39 96 -111t35 -159q0 -102 -36.5 -199t-100.5 -167q-76 -82 -167 -115.5t-240 -33.5h-452l249 1175h-300zM651 641l-94 -440h180q85 0 133 12.5t87 46.5q100 84 100 224q0 83 -58 125q-43 32 -168 32h-180z" />
    <glyph glyph-name="afii10045" unicode="&#x42b;" horiz-adv-x="1563" 
d="M1168 0l290 1365h225l-290 -1365h-225zM461 1365h225l-112 -523h178q194 0 283 -57q61 -39 96 -111t35 -160q0 -101 -36.5 -198t-100.5 -167q-75 -82 -166.5 -115.5t-239.5 -33.5h-452zM532 641l-94 -440h180q85 0 132.5 12.5t86.5 46.5q100 84 100 224q0 83 -58 125
q-43 32 -167 32h-180z" />
    <glyph glyph-name="afii10046" unicode="&#x42c;" horiz-adv-x="1134" 
d="M461 1365h225l-112 -523h178q194 0 283 -57q61 -39 96 -111t35 -160q0 -101 -36.5 -198t-100.5 -167q-75 -82 -166.5 -115.5t-239.5 -33.5h-452zM532 641l-94 -440h180q85 0 132.5 12.5t86.5 46.5q100 84 100 224q0 83 -58 125q-43 32 -167 32h-180z" />
    <glyph glyph-name="afii10047" unicode="&#x42d;" horiz-adv-x="1236" 
d="M1071 801q3 49 3 73q0 330 -238 330q-104 0 -188.5 -72t-135.5 -204h-224q51 180 174 300q171 168 389 168q233 0 349 -166q102 -144 102 -357q0 -199 -77 -401q-97 -253 -279 -390q-153 -115 -346 -115q-208 0 -317 139q-97 123 -97 317q0 47 9 99h225q-6 -66 -6 -104
q0 -121 55.5 -190t153.5 -69q181 0 310 209q63 102 102 243h-445l41 190h440z" />
    <glyph glyph-name="afii10048" unicode="&#x42e;" horiz-adv-x="1831" 
d="M795 813q58 181 154 308q209 275 501 275q194 0 313 -126q69 -73 106 -194q28 -93 28 -196q0 -155 -47.5 -313t-131.5 -284q-101 -152 -236 -232q-140 -84 -297 -84q-226 0 -349 168q-102 138 -102 335q0 69 14 153h-221l-131 -623h-225l290 1365h225l-118 -552h227z
M1420 1204q-89 0 -176 -61.5t-152 -169.5q-59 -100 -94 -235.5t-35 -263.5q0 -160 77 -242q67 -72 165 -72q196 0 331 231q61 102 96.5 237.5t35.5 263.5q0 152 -73 239q-62 73 -175 73z" />
    <glyph glyph-name="afii10049" unicode="&#x42f;" horiz-adv-x="1288" 
d="M1092 0h-225l120 563h-200q-89 0 -142 -18t-90 -61q-34 -41 -58.5 -100.5t-57.5 -181.5q-25 -94 -39.5 -130.5t-39.5 -71.5h-237q42 45 67 107.5t71 236.5q26 100 50 146.5t71 89.5q55 50 143 71q-79 43 -109 88q-51 76 -51 180q0 191 137 323q69 66 150 94.5t201 28.5
h529zM1024 739l93 436h-224q-140 0 -209 -54q-46 -37 -73 -98t-27 -128q0 -52 23.5 -89.5t64.5 -49.5q53 -17 154 -17h198z" />
    <glyph glyph-name="afii10065" unicode="&#x430;" horiz-adv-x="1000" 
d="M981 142l-30 -142q-65 -25 -139 -25q-61 0 -88 24t-33 84q-134 -112 -314 -112q-122 0 -194.5 59t-72.5 157q0 104 68.5 194.5t179.5 134.5q69 27 154 38t265 16l23 107q3 14 3 30q0 57 -36 82.5t-117 25.5q-91 0 -132.5 -24t-63.5 -89h-203q73 269 444 269
q124 0 206 -47q105 -60 105 -184q0 -56 -29 -194l-70 -327q-8 -38 -8 -52q0 -36 37 -36q19 0 45 11zM753 454q-160 -7 -246 -31q-77 -22 -127.5 -77t-50.5 -117q0 -102 133 -102q118 0 202 103q55 67 72 149z" />
    <glyph glyph-name="afii10066" unicode="&#x431;" horiz-adv-x="1035" 
d="M970 1421h167l-8 -39q-27 -138 -72 -188q-33 -38 -78 -58t-125 -33q-130 -23 -183 -52q-55 -30 -121 -119q85 41 176 41q167 0 268 -110q93 -102 93 -275q0 -112 -37 -222t-103 -195q-78 -101 -190 -153q-100 -47 -211 -47q-151 0 -244 76q-126 102 -126 308
q0 111 51 284q84 285 220 435q116 129 317 179q30 7 126 22q36 6 47.5 25t28.5 100zM699 811q-69 0 -134.5 -41t-113.5 -113q-87 -134 -87 -306q0 -115 63 -173q50 -47 131 -47q142 0 236 146q41 64 65.5 151t24.5 170q0 100 -49 156.5t-136 56.5z" />
    <glyph glyph-name="afii10067" unicode="&#x432;" horiz-adv-x="952" 
d="M134 0l200 942h429q128 0 196 -50t68 -143q0 -186 -215 -243q156 -49 156 -200q0 -150 -138 -241q-56 -38 -113 -51.5t-158 -13.5h-425zM422 410l-52 -244h186q89 0 138 33q63 42 63 116q0 95 -142 95h-193zM499 776l-41 -200h190q66 0 108 35.5t42 90.5q0 74 -103 74
h-196z" />
    <glyph glyph-name="afii10068" unicode="&#x433;" horiz-adv-x="772" 
d="M506 776l-164 -776h-201l200 942h633l-36 -166h-432z" />
    <glyph glyph-name="afii10069" unicode="&#x434;" horiz-adv-x="1028" 
d="M953 166h109l-79 -371h-201l43 205h-637l-43 -205h-201l79 371h24q63 0 102.5 36.5t66.5 118.5l206 621h696zM753 166l128 610h-303l-145 -419q-28 -81 -46 -113t-61 -78h427z" />
    <glyph glyph-name="afii10070" unicode="&#x435;" horiz-adv-x="986" 
d="M1011 420h-644q-7 -55 -7 -90q0 -203 186 -203q142 0 201 121h202q-28 -75 -75 -127q-134 -150 -349 -150q-220 0 -317 152q-59 93 -59 223q0 234 147 423q157 202 382 202q169 0 265 -108q89 -100 89 -285q0 -77 -21 -158zM827 559q2 39 2 55q0 93 -43 147t-120 54
q-88 0 -156.5 -66t-109.5 -190h427z" />
    <glyph glyph-name="afii10072" unicode="&#x436;" horiz-adv-x="1413" 
d="M702 432h-57l-454 -432h-214l514 500l-286 442h213l249 -385h61l82 385h197l-82 -385h60l415 387h213l-476 -444l300 -500h-213l-269 432h-57l-92 -432h-196z" />
    <glyph glyph-name="afii10073" unicode="&#x437;" horiz-adv-x="912" 
d="M487 569h93q89 0 144.5 38.5t55.5 101.5q0 92 -137 92q-168 0 -230 -154h-213q36 157 178 250q113 74 287 74q165 0 253 -67q81 -61 81 -164q0 -91 -65.5 -157t-174.5 -84q166 -52 166 -204q0 -140 -120.5 -232t-304.5 -92q-201 0 -297 98q-38 40 -61.5 99.5t-23.5 118.5
q0 14 3 45h210q-2 -29 -2 -38q0 -71 48 -112t130 -41q92 0 153.5 45.5t61.5 112.5q0 104 -173 104h-97z" />
    <glyph glyph-name="afii10074" unicode="&#x438;" horiz-adv-x="1050" 
d="M414 373l490 504l14 65h201l-200 -942h-201l121 569l-490 -504l-14 -65h-204l200 942h204z" />
    <glyph glyph-name="afii10075" unicode="&#x439;" horiz-adv-x="1050" 
d="M414 373l490 504l14 65h201l-200 -942h-201l121 569l-490 -504l-14 -65h-204l200 942h204zM540 1365h137q2 -62 18 -86q27 -41 94 -41q58 0 93.5 28t67.5 99h137q-30 -126 -111 -196t-197 -70q-115 0 -178 59.5t-63 167.5q0 17 2 39z" />
    <glyph glyph-name="afii10076" unicode="&#x43a;" horiz-adv-x="956" 
d="M125 0l200 942h197l-82 -385h75l403 387h216l-480 -444l304 -500h-215l-258 432h-72l-91 -432h-197z" />
    <glyph glyph-name="afii10077" unicode="&#x43b;" horiz-adv-x="1029" 
d="M567 776l-149 -444q-51 -155 -106 -220q-60 -69 -133 -100.5t-176 -31.5h-14l34 162q71 3 112 38t68 115l213 647h682l-200 -942h-201l165 776h-295z" />
    <glyph glyph-name="afii10078" unicode="&#x43c;" horiz-adv-x="1233" 
d="M124 0l200 942h295l50 -680l346 680h295l-201 -942h-196l147 690l-347 -690h-198l-50 680l-144 -680h-197z" />
    <glyph glyph-name="afii10079" unicode="&#x43d;" horiz-adv-x="1050" 
d="M419 410l-87 -410h-201l200 942h201l-77 -366h386l77 366h201l-200 -942h-201l87 410h-386z" />
    <glyph glyph-name="afii10080" unicode="&#x43e;" horiz-adv-x="1028" 
d="M708 971q162 0 262 -91q112 -103 112 -287q0 -122 -42.5 -241t-115.5 -204q-154 -177 -391 -177q-228 0 -325 155q-60 94 -60 228q0 238 139 415q160 202 421 202zM680 801q-70 0 -134.5 -40.5t-110.5 -112.5q-80 -129 -80 -298q0 -119 70 -172q49 -37 120 -37
q140 0 231 130q43 62 69 150.5t26 172.5q0 97 -51 152t-140 55z" />
    <glyph glyph-name="afii10081" unicode="&#x43f;" horiz-adv-x="1050" 
d="M496 776l-164 -776h-201l200 942h788l-200 -942h-202l165 776h-386z" />
    <glyph glyph-name="afii10082" unicode="&#x440;" horiz-adv-x="1075" 
d="M54 -354l276 1296h203l-22 -106q119 135 299 135q157 0 241 -107q80 -101 80 -266q0 -121 -40.5 -239.5t-112.5 -205.5q-72 -89 -172 -137q-95 -45 -196 -45q-185 0 -258 133l-97 -458h-201zM737 801q-68 0 -133.5 -42.5t-107.5 -115.5q-35 -58 -56 -140t-21 -156
q0 -110 62 -164q49 -42 119 -42q140 0 232 138q88 133 88 305q0 103 -48 160t-135 57z" />
    <glyph glyph-name="afii10083" unicode="&#x441;" horiz-adv-x="960" 
d="M772 332h210q-59 -174 -180.5 -267.5t-289.5 -93.5q-170 0 -267 94t-97 260q0 122 41 241.5t113 209.5q74 91 175 142q106 53 226 53q153 0 247 -78q86 -72 89 -195v-51h-215q-6 64 -20 88q-38 66 -127 66q-141 0 -232 -143q-86 -138 -86 -316q0 -96 45 -148.5t128 -52.5
q81 0 143.5 49.5t96.5 141.5z" />
    <glyph glyph-name="afii10084" unicode="&#x442;" horiz-adv-x="751" 
d="M643 782l-167 -782h-201l167 782h-259l33 160h719l-33 -160h-259z" />
    <glyph glyph-name="afii10085" unicode="&#x443;" horiz-adv-x="877" 
d="M10 -344l36 172q69 -13 108 -13q61 0 107 67q57 83 80 139l-145 921h232l74 -689l359 689h222l-520 -922q-125 -221 -186 -281q-95 -94 -227 -94q-56 0 -140 11z" />
    <glyph glyph-name="afii10086" unicode="&#x444;" horiz-adv-x="1344" 
d="M695 -354h-197l86 402q-39 -44 -77 -60.5t-99 -16.5q-133 0 -212 93q-81 96 -81 265q0 249 131 441q137 201 339 201q68 0 109 -18t69 -60l101 472h197l-101 -472q17 19 31 31q52 47 149 47q135 0 216 -104q74 -97 74 -256q0 -118 -36.5 -237.5t-99.5 -210.5
q-135 -192 -334 -192q-70 0 -109 16.5t-70 60.5zM572 801q-47 0 -94.5 -41t-83.5 -114q-34 -67 -55 -160.5t-21 -174.5q0 -77 32.5 -123.5t87.5 -46.5q96 0 167 131q37 68 62 172t25 189q0 78 -32 123t-88 45zM1104 801q-46 0 -92 -38.5t-81 -107.5t-57 -165.5t-22 -182.5
q0 -76 30.5 -121t82.5 -45q106 0 181 143q35 68 58 164.5t23 176.5q0 82 -33 129t-90 47z" />
    <glyph glyph-name="afii10087" unicode="&#x445;" horiz-adv-x="888" 
d="M-14 0l434 496l-207 446h253l116 -281l240 281h243l-393 -436l230 -506h-254l-136 339l-279 -339h-247z" />
    <glyph glyph-name="afii10088" unicode="&#x446;" horiz-adv-x="1030" 
d="M954 166h109l-79 -371h-201l43 205h-695l200 942h201l-165 -776h383l165 776h204z" />
    <glyph glyph-name="afii10089" unicode="&#x447;" horiz-adv-x="1045" 
d="M914 0h-201l77 362q-106 -43 -254 -43q-172 0 -258 60q-75 53 -75 143q0 43 14 109l66 311h201l-60 -283q-5 -23 -5 -67q0 -41 26 -63q48 -40 145 -40q149 0 220 94q37 48 59 152l44 207h201z" />
    <glyph glyph-name="afii10090" unicode="&#x448;" horiz-adv-x="1368" 
d="M820 166h263l165 776h201l-200 -942h-1131l200 942h201l-165 -776h265l164 776h201z" />
    <glyph glyph-name="afii10091" unicode="&#x449;" horiz-adv-x="1354" 
d="M1157 0h-1039l200 942h201l-165 -774h264l165 774h201l-165 -774h263l165 774h201l-165 -774h110l-79 -373h-201z" />
    <glyph glyph-name="afii10092" unicode="&#x44a;" horiz-adv-x="1027" 
d="M195 942h468l-74 -350h171q321 0 321 -234q0 -170 -127 -272q-59 -47 -126 -66.5t-170 -19.5h-396l164 776h-267zM553 426l-55 -260h141q118 0 177 48q54 44 54 112q0 55 -36 77.5t-126 22.5h-155z" />
    <glyph glyph-name="afii10093" unicode="&#x44b;" horiz-adv-x="1286" 
d="M449 592h171q319 0 319 -233q0 -171 -127 -273q-59 -47 -125.5 -66.5t-169.5 -19.5h-395l200 942h201zM413 426l-55 -260h140q107 0 162 48q50 45 50 115q0 54 -31.5 75.5t-110.5 21.5h-155zM962 0l200 942h203l-200 -942h-203z" />
    <glyph glyph-name="afii10094" unicode="&#x44c;" horiz-adv-x="907" 
d="M464 592h173q323 0 323 -234q0 -170 -128 -272q-59 -47 -126.5 -66.5t-171.5 -19.5h-397l200 942h201zM428 426l-55 -260h142q109 0 165 48q51 45 51 115q0 54 -33 75.5t-114 21.5h-156z" />
    <glyph glyph-name="afii10095" unicode="&#x44d;" horiz-adv-x="960" 
d="M791 569v7v17q0 65 -20 113q-40 95 -152 95q-70 0 -124 -40t-83 -114h-214q36 138 132 219q125 105 302 105q222 0 321 -162q57 -93 57 -226q0 -125 -43 -242.5t-121 -203.5q-149 -166 -377 -166q-174 0 -266 98q-86 92 -86 223q0 15 1 40h212q-2 -26 -2 -39
q0 -70 42 -111t114 -41q93 0 164.5 67.5t111.5 194.5h-309l35 166h305z" />
    <glyph glyph-name="afii10096" unicode="&#x44e;" horiz-adv-x="1393" 
d="M563 576q39 106 95 182q160 213 419 213q169 0 269 -91q114 -104 114 -290q0 -121 -42.5 -239.5t-116.5 -202.5q-156 -177 -397 -177q-231 0 -326 154q-62 100 -62 227q0 30 6 58h-117l-87 -410h-201l200 942h201l-77 -366h122zM1059 801q-70 0 -134 -40.5t-109 -114.5
q-81 -129 -81 -297q0 -118 69 -171q49 -37 120 -37q139 0 229 130q44 63 70 151t26 172q0 97 -50.5 152t-139.5 55z" />
    <glyph glyph-name="afii10097" unicode="&#x44f;" horiz-adv-x="976" 
d="M716 348h-123q-113 0 -157.5 -38t-80.5 -166q-32 -117 -57 -144h-231q30 23 46 60t58 176q20 68 39 98t55 53q43 27 141 40q-179 38 -179 201q0 147 122 236q59 43 125.5 60.5t171.5 17.5h397l-200 -942h-201zM752 514l54 262h-141q-111 0 -167 -48q-52 -45 -52 -116
q0 -54 33.5 -76t116.5 -22h156z" />
    <glyph glyph-name="afii10071" unicode="&#x451;" horiz-adv-x="986" 
d="M1023 420h-644q-7 -55 -7 -90q0 -203 186 -203q142 0 201 121h202q-28 -75 -75 -127q-134 -150 -349 -150q-220 0 -317 152q-59 93 -59 223q0 234 147 423q157 202 382 202q169 0 265 -108q89 -100 89 -285q0 -77 -21 -158zM839 559q2 39 2 55q0 93 -43 147t-120 54
q-88 0 -156.5 -66t-109.5 -190h427zM1046 1311l-44 -201h-203l43 201h204zM689 1311l-43 -201h-192l44 201h191z" />
    <glyph glyph-name="afii10099" unicode="&#x452;" horiz-adv-x="998" 
d="M316 0h-201l242 1137h-122l28 131h121l21 97h201l-21 -97h237l-28 -131h-236l-66 -306q116 140 268 140q111 0 184 -65q103 -92 103 -289q0 -169 -54.5 -340t-144.5 -282q-159 -198 -371 -198q-54 0 -128 16l35 167q49 -13 88 -13q129 0 224 140q61 89 100.5 226
t39.5 257q0 211 -146 211q-62 0 -117 -33.5t-90 -93.5q-37 -61 -69 -211z" />
    <glyph glyph-name="afii10100" unicode="&#x453;" horiz-adv-x="786" 
d="M506 776l-164 -776h-201l200 942h633l-36 -166h-432zM1014 1365l-255 -273h-174l238 273h191z" />
    <glyph glyph-name="afii10101" unicode="&#x454;" horiz-adv-x="960" 
d="M413 569h304l-35 -166h-310q-5 -35 -5 -62q0 -96 43.5 -148t124.5 -52q80 0 142 50t95 141h211q-45 -147 -143 -237q-135 -124 -323 -124q-198 0 -295 127q-74 97 -74 242q0 119 40.5 236.5t112.5 204.5q158 190 397 190q158 0 251 -83q92 -82 92 -214q0 -8 -1 -27h-218
q0 154 -141 154q-88 0 -157.5 -60t-110.5 -172z" />
    <glyph glyph-name="afii10102" unicode="&#x455;" horiz-adv-x="890" 
d="M118 268h212q-2 -19 -2 -30q0 -52 41 -81.5t112 -29.5q88 0 144.5 45t56.5 116q0 62 -70 98q-32 16 -168 49q-109 27 -168 85.5t-59 140.5q0 135 110.5 222.5t282.5 87.5q178 0 271 -85q61 -55 61 -136q0 -21 -3 -50h-217q1 14 1 19q0 46 -36.5 74t-96.5 28
q-73 0 -121.5 -39.5t-48.5 -99.5q0 -44 31 -67t118 -44q157 -38 214 -72q110 -66 110 -186q0 -131 -110 -233q-118 -109 -318 -109q-188 0 -273 79q-34 31 -54.5 81t-20.5 101q0 14 1 36z" />
    <glyph glyph-name="afii10103" unicode="&#x456;" horiz-adv-x="528" 
d="M404 1164l43 201h213l-44 -201h-212zM157 0l200 942h201l-200 -942h-201z" />
    <glyph glyph-name="afii10104" unicode="&#x457;" horiz-adv-x="531" 
d="M165 0l200 942h201l-200 -942h-201zM766 1311l-44 -201h-174l44 201h174zM486 1311l-43 -201h-165l44 201h164z" />
    <glyph glyph-name="afii10105" unicode="&#x458;" horiz-adv-x="501" 
d="M377 1164l44 201h213l-44 -201h-213zM-89 -349l35 166q29 -6 50 -6q57 0 83 34t48 139l204 958h201l-202 -948q-37 -178 -79 -239q-74 -110 -231 -110q-35 0 -109 6z" />
    <glyph glyph-name="afii10106" unicode="&#x459;" horiz-adv-x="1395" 
d="M993 592h141q320 0 320 -233q0 -171 -127 -273q-59 -47 -125.5 -66.5t-169.5 -19.5h-366l165 776h-264l-149 -445q-49 -156 -103 -220q-110 -131 -301 -131h-22l34 160q71 2 111.5 37.5t67.5 116.5l213 648h649zM957 426l-54 -260h110q118 0 176 48q54 44 54 113
q0 55 -36 77t-125 22h-125z" />
    <glyph glyph-name="afii10107" unicode="&#x45a;" horiz-adv-x="1410" 
d="M760 418h-352l-88 -418h-201l200 942h201l-76 -358h352l75 358h201l-76 -358h142q320 0 320 -231q0 -168 -126 -268q-59 -47 -125.5 -66t-169.5 -19h-366zM961 418l-54 -252h111q117 0 176 46q53 42 53 109q0 53 -36.5 75t-124.5 22h-125z" />
    <glyph glyph-name="afii10108" unicode="&#x45b;" horiz-adv-x="1022" 
d="M359 1137h-123l27 131h123l21 97h202l-21 -97h238l-28 -131h-238l-65 -306q122 140 287 140q120 0 189.5 -61.5t69.5 -167.5q0 -65 -20 -161l-124 -581h-202l122 575q17 79 17 107q0 119 -130 119q-112 0 -190 -96q-32 -39 -51.5 -92t-42.5 -159l-96 -454h-207z" />
    <glyph glyph-name="afii10109" unicode="&#x45c;" horiz-adv-x="956" 
d="M125 0l200 942h197l-82 -385h75l403 387h216l-480 -444l304 -500h-215l-258 432h-72l-91 -432h-197zM1079 1365l-255 -273h-174l238 273h191z" />
    <glyph glyph-name="afii10110" unicode="&#x45e;" horiz-adv-x="879" 
d="M10 -344l36 172q69 -13 108 -13q61 0 107 67q57 83 80 139l-145 921h232l74 -689l359 689h222l-520 -922q-125 -221 -186 -281q-95 -94 -227 -94q-56 0 -140 11zM455 1365h137q2 -62 18 -86q27 -41 94 -41q58 0 93.5 28t67.5 99h137q-30 -126 -111 -196t-197 -70
q-115 0 -178 59.5t-63 167.5q0 17 2 39z" />
    <glyph glyph-name="afii10193" unicode="&#x45f;" horiz-adv-x="1050" 
d="M633 0l-43 -205h-217l43 205h-285l200 942h201l-165 -776h386l164 776h202l-200 -942h-286z" />
    <glyph glyph-name="afii10050" unicode="&#x490;" horiz-adv-x="1035" 
d="M1281 1507l-71 -332h-565l-249 -1175h-225l290 1365h566l30 142h224z" />
    <glyph glyph-name="afii10098" unicode="&#x491;" horiz-adv-x="786" 
d="M1003 1070l-65 -294h-432l-164 -776h-201l200 942h420l29 128h213z" />
    <glyph glyph-name="uni04C0" unicode="&#x4c0;" horiz-adv-x="566" 
d="M171 0l290 1365h225l-290 -1365h-225z" />
    <glyph glyph-name="Wgrave" unicode="&#x1e80;" horiz-adv-x="1561" 
d="M329 0l-12 1365h228l-28 -1055l442 1055h226l-10 -1057l425 1057h224l-598 -1365h-229l6 1055l-443 -1055h-231zM911 1735h187l114 -260h-171z" />
    <glyph glyph-name="wgrave" unicode="&#x1e81;" horiz-adv-x="1349" 
d="M303 0l-76 942h227l19 -688l295 688h214l11 -681l312 681h218l-475 -942h-218l-13 675l-294 -675h-220zM697 1365h190l122 -272h-174z" />
    <glyph glyph-name="Wacute" unicode="&#x1e82;" horiz-adv-x="1561" 
d="M329 0l-12 1365h228l-28 -1055l442 1055h226l-10 -1057l425 1057h224l-598 -1365h-229l6 1055l-443 -1055h-231zM1386 1735l-240 -260h-171l225 260h186z" />
    <glyph glyph-name="wacute" unicode="&#x1e83;" horiz-adv-x="1349" 
d="M303 0l-76 942h227l19 -688l295 688h214l11 -681l312 681h218l-475 -942h-218l-13 675l-294 -675h-220zM1222 1365l-255 -273h-174l238 273h191z" />
    <glyph glyph-name="Wdieresis" unicode="&#x1e84;" horiz-adv-x="1561" 
d="M329 0l-12 1365h228l-28 -1055l442 1055h226l-10 -1057l425 1057h224l-598 -1365h-229l6 1055l-443 -1055h-231zM1400 1675l-44 -201h-192l44 201h192zM1074 1675l-43 -201h-192l44 201h191z" />
    <glyph glyph-name="wdieresis" unicode="&#x1e85;" horiz-adv-x="1349" 
d="M303 0l-76 942h227l19 -688l295 688h214l11 -681l312 681h218l-475 -942h-218l-13 675l-294 -675h-220zM1218 1311l-44 -201h-203l43 201h204zM861 1311l-43 -201h-192l44 201h191z" />
    <glyph glyph-name="uni1E9E" unicode="&#x1e9e;" horiz-adv-x="1162" 
d="M885 805q122 -8 186 -67q88 -80 88 -218q0 -112 -50 -223t-131 -180q-139 -117 -345 -117q-107 0 -187 35l112 171q50 -24 96 -24q59 0 116 29.5t95 79.5q65 86 65 202q0 85 -56 124.5t-178 39.5h-55l34 164l299 350l-156 2q-89 1 -156 -66t-92 -182l-196 -925h-225
l208 976q34 163 153 268q138 122 315 122h423l-38 -175z" />
    <glyph glyph-name="Ygrave" unicode="&#x1ef2;" horiz-adv-x="1068" 
d="M423 0l116 545l-253 820h253l164 -597l414 597h246l-599 -822l-116 -543h-225zM657 1735h187l114 -260h-171z" />
    <glyph glyph-name="ygrave" unicode="&#x1ef3;" horiz-adv-x="931" 
d="M36 -344l36 172q69 -13 108 -13q61 0 107 67q57 83 80 139l-145 921h232l74 -689l359 689h222l-520 -922q-125 -221 -186 -281q-95 -94 -227 -94q-56 0 -140 11zM500 1365h190l122 -272h-174z" />
    <glyph glyph-name="uni2000" unicode="&#x2000;" horiz-adv-x="1348" 
 />
    <glyph glyph-name="uni2001" unicode="&#x2001;" horiz-adv-x="2679" 
 />
    <glyph glyph-name="uni2002" unicode="&#x2002;" horiz-adv-x="1348" 
 />
    <glyph glyph-name="uni2003" unicode="&#x2003;" horiz-adv-x="2679" 
 />
    <glyph glyph-name="uni2004" unicode="&#x2004;" horiz-adv-x="904" 
 />
    <glyph glyph-name="uni2005" unicode="&#x2005;" horiz-adv-x="682" 
 />
    <glyph glyph-name="uni2006" unicode="&#x2006;" horiz-adv-x="460" 
 />
    <glyph glyph-name="uni2007" unicode="&#x2007;" horiz-adv-x="1483" 
 />
    <glyph glyph-name="uni2008" unicode="&#x2008;" horiz-adv-x="730" 
 />
    <glyph glyph-name="uni2009" unicode="&#x2009;" horiz-adv-x="549" 
 />
    <glyph glyph-name="uni200A" unicode="&#x200a;" horiz-adv-x="283" 
 />
    <glyph glyph-name="uni200B" unicode="&#x200b;" horiz-adv-x="16" 
 />
    <glyph glyph-name="uni2010" unicode="&#x2010;" horiz-adv-x="453" 
d="M566 615l-41 -201h-421l42 201h420z" />
    <glyph glyph-name="uni2011" unicode="&#x2011;" horiz-adv-x="453" 
d="M566 615l-41 -201h-421l42 201h420z" />
    <glyph glyph-name="figuredash" unicode="&#x2012;" horiz-adv-x="1043" 
d="M1020 615l-41 -201h-739l42 201h738z" />
    <glyph glyph-name="afii00208" unicode="&#x2015;" horiz-adv-x="1529" 
d="M1504 615l-42 -201h-1214l42 201h1214z" />
    <glyph glyph-name="quotereversed" unicode="&#x201b;" horiz-adv-x="531" 
 />
    <glyph glyph-name="uni203E" unicode="&#x203e;" horiz-adv-x="1065" 
d="M412 1649h942l-37 -176h-942z" />
    <glyph glyph-name="zerosuperior" unicode="&#x2070;" horiz-adv-x="640" 
d="M594 1382q103 0 157.5 -68t54.5 -197q0 -86 -25 -198t-62 -190q-94 -199 -264 -199q-105 0 -160.5 68.5t-55.5 197.5q0 86 25.5 197.5t62.5 190.5q93 198 267 198zM582 1243q-80 0 -129 -147q-62 -184 -62 -326q0 -101 73 -101q80 0 130 148q60 178 60 321q0 105 -72 105
z" />
    <glyph glyph-name="foursuperior" unicode="&#x2074;" horiz-adv-x="577" 
d="M430 547l42 196h-290l30 138l402 485h135l-104 -492h94l-29 -131h-94l-41 -196h-145zM500 874l51 239l-192 -239h141z" />
    <glyph glyph-name="fivesuperior" unicode="&#x2075;" horiz-adv-x="629" 
d="M203 776h159q-3 -20 -3 -30q0 -35 22.5 -56t60.5 -21q75 0 116 73q34 60 34 136q0 44 -23 69.5t-63 25.5q-62 0 -117 -68l-136 5l166 456h395l-30 -139h-272l-54 -148q41 25 90 25q92 0 148 -61t56 -163q0 -134 -87 -238q-94 -112 -235 -112q-109 0 -172 62
q-59 57 -59 138q0 16 4 46z" />
    <glyph glyph-name="sixsuperior" unicode="&#x2076;" horiz-adv-x="641" 
d="M814 1155h-157q1 15 1 22q0 74 -60 74q-47 0 -82 -45.5t-74 -157.5q60 50 128 50q85 0 140 -60q54 -59 54 -162q0 -136 -83 -236q-90 -110 -219 -110q-109 0 -168 76q-54 70 -54 183q0 109 31 228t81 199q104 166 262 166q89 0 146 -54t57 -139q0 -11 -3 -34zM526 967
q-55 0 -97 -59.5t-42 -138.5q0 -100 79 -100q56 0 97 59.5t41 141.5q0 97 -78 97z" />
    <glyph glyph-name="sevensuperior" unicode="&#x2077;" horiz-adv-x="554" 
d="M398 547h-167q37 163 141.5 345.5t245.5 328.5h-333l31 145h503l-27 -126q-120 -103 -231.5 -299.5t-162.5 -393.5z" />
    <glyph glyph-name="eightsuperior" unicode="&#x2078;" horiz-adv-x="646" 
d="M380 988q-52 55 -52 144q0 103 76 173q82 77 207 77q90 0 145 -51t55 -134q0 -135 -127 -208q74 -53 74 -164q0 -113 -74 -194q-93 -101 -239 -101q-127 0 -187 81q-39 53 -39 126q0 82 42.5 148t118.5 103zM590 1251q-47 0 -78.5 -38t-31.5 -93q0 -78 69 -78q46 0 78 41
t32 99q0 69 -69 69zM519 917q-57 0 -98.5 -49.5t-41.5 -118.5q0 -88 88 -88q61 0 100 46.5t39 119.5q0 90 -87 90z" />
    <glyph glyph-name="ninesuperior" unicode="&#x2079;" horiz-adv-x="641" 
d="M233 760h159q-1 -15 -1 -20q0 -80 60 -80q87 0 154 204q-55 -51 -120 -51q-86 0 -144 61q-58 60 -58 163q0 135 83 235q90 110 219 110q109 0 168 -76q54 -70 54 -184q0 -109 -31 -228t-81 -198q-103 -167 -260 -167q-91 0 -147 57t-56 149q0 8 1 25zM581 1243
q-55 0 -96.5 -60t-41.5 -140q0 -99 77 -99q59 0 101.5 60t42.5 141q0 98 -83 98z" />
    <glyph glyph-name="parenleftsuperior" unicode="&#x207d;" horiz-adv-x="460" 
d="M529 1366h134q-76 -100 -119 -173t-80 -167q-74 -191 -74 -381q0 -108 25 -206l31 -97l-136 -1l-4 13q-37 114 -48 173.5t-11 144.5q0 171 78.5 363.5t203.5 330.5z" />
    <glyph glyph-name="parenrightsuperior" unicode="&#x207e;" horiz-adv-x="461" 
d="M378 1366h134q65 -138 65 -328q0 -167 -65 -335q-35 -92 -75 -159.5t-132 -189.5l-9 -13l-137 1q266 348 266 742q0 132 -40 260z" />
    <glyph glyph-name="nsuperior" unicode="&#x207f;" horiz-adv-x="610" 
d="M177 547l122 573h145l-8 -40q69 56 147 56q76 0 121.5 -41t45.5 -109q0 -35 -12 -93l-74 -346h-146l71 331q10 49 10 75q0 58 -64 58q-60 0 -95.5 -41t-55.5 -135l-61 -288h-146z" />
    <glyph glyph-name="zeroinferior" unicode="&#x2080;" horiz-adv-x="640" 
d="M478 836q103 0 157.5 -68t54.5 -197q0 -86 -25 -198t-62 -190q-94 -199 -264 -199q-105 0 -160.5 68.5t-55.5 197.5q0 86 25.5 197.5t62.5 190.5q93 198 267 198zM466 697q-80 0 -129 -147q-62 -184 -62 -326q0 -101 73 -101q80 0 130 148q60 178 60 321q0 105 -72 105z
" />
    <glyph glyph-name="oneinferior" unicode="&#x2081;" horiz-adv-x="510" 
d="M180 0l120 564q-53 -26 -126 -26q-8 0 -31 1l28 132q102 2 149 41q39 32 67 107h118l-174 -819h-151z" />
    <glyph glyph-name="twoinferior" unicode="&#x2082;" horiz-adv-x="583" 
d="M581 139l-30 -139h-537q14 141 88.5 230t266.5 193q157 86 157 195q0 81 -91 81q-109 0 -137 -140h-166q11 87 61 152q97 127 261 127q139 0 203 -87q35 -49 35 -116q0 -129 -105 -223q-63 -55 -218 -139q-123 -67 -155 -134h367z" />
    <glyph glyph-name="threeinferior" unicode="&#x2083;" horiz-adv-x="586" 
d="M310 580h-159q13 109 75 175q82 87 215 87q104 0 166.5 -53.5t62.5 -143.5q0 -128 -133 -194q84 -60 84 -166q0 -123 -93.5 -209t-228.5 -86q-110 0 -176.5 58t-66.5 154q0 25 11 68h163q-8 -37 -8 -60q0 -81 89 -81q65 0 107.5 44.5t42.5 112.5q0 48 -25.5 69.5
t-81.5 21.5q-21 0 -56 -2l26 127q63 0 86 4t42 19q52 40 52 109t-75 69q-93 0 -119 -123z" />
    <glyph glyph-name="fourinferior" unicode="&#x2084;" horiz-adv-x="591" 
d="M317 0l42 195h-296l30 139l407 485h131l-104 -493h99l-28 -131h-99l-42 -195h-140zM387 326l55 261l-208 -261h153z" />
    <glyph glyph-name="fiveinferior" unicode="&#x2085;" horiz-adv-x="629" 
d="M87 229h159q-3 -20 -3 -30q0 -35 22.5 -55.5t60.5 -20.5q75 0 116 72q34 60 34 136q0 44 -23 69.5t-63 25.5q-62 0 -117 -67l-136 4l166 456h395l-30 -139h-272l-54 -148q40 25 90 25q92 0 148 -61t56 -163q0 -134 -87 -237q-94 -112 -235 -112q-108 0 -172 61
q-59 57 -59 138q0 16 4 46z" />
    <glyph glyph-name="sixinferior" unicode="&#x2086;" horiz-adv-x="641" 
d="M696 608h-157q1 15 1 22q0 74 -60 74q-47 0 -82 -46t-74 -157q60 50 128 50q85 0 140 -60q54 -59 54 -162q0 -136 -83 -236q-90 -109 -219 -109q-108 0 -168 76q-54 70 -54 182q0 110 31 228.5t81 198.5q104 166 262 166q89 0 146 -54t57 -139q0 -11 -3 -34zM408 420
q-55 0 -97 -59.5t-42 -137.5q0 -100 79 -100q56 0 97 59.5t41 140.5q0 97 -78 97z" />
    <glyph glyph-name="seveninferior" unicode="&#x2087;" horiz-adv-x="554" 
d="M282 0h-167q2 11 6 27q30 140 138 324t243 323h-333l31 145h503l-27 -126q-122 -107 -232.5 -301t-161.5 -392z" />
    <glyph glyph-name="eightinferior" unicode="&#x2088;" horiz-adv-x="646" 
d="M264 441q-52 56 -52 145q0 102 76 173q82 77 207 77q90 0 145 -51t55 -135q0 -135 -127 -208q74 -53 74 -164q0 -113 -74 -193q-93 -101 -239 -101q-127 0 -187 81q-39 53 -39 126q0 81 42.5 147t118.5 103zM474 705q-47 0 -78.5 -38t-31.5 -93q0 -78 69 -78q46 0 78 41
t32 99q0 69 -69 69zM403 371q-57 0 -98.5 -49.5t-41.5 -118.5q0 -88 88 -88q61 0 100 46.5t39 119.5q0 90 -87 90z" />
    <glyph glyph-name="nineinferior" unicode="&#x2089;" horiz-adv-x="641" 
d="M117 215h159q-1 -15 -1 -20q0 -80 60 -80q87 0 154 204q-55 -51 -120 -51q-86 0 -144 61q-58 60 -58 163q0 136 83 236q90 110 219 110q109 0 168 -76q54 -71 54 -184q0 -109 -31 -228.5t-81 -198.5q-103 -167 -260 -167q-91 0 -147 57t-56 149q0 8 1 25zM465 699
q-55 0 -96.5 -60.5t-41.5 -140.5q0 -99 77 -99q59 0 101.5 60t42.5 142q0 98 -83 98z" />
    <glyph glyph-name="franc" unicode="&#x20a3;" horiz-adv-x="1439" 
d="M171 0l290 1365h781l-39 -182h-572l-69 -325h432l-38 -182h-433l-144 -676h-208zM921 0l182 858h189l-33 -156q121 185 299 185q9 0 47 -2l-43 -205q-51 6 -68 6q-136 0 -223 -135q-48 -72 -86 -254l-63 -297h-201z" />
    <glyph glyph-name="lira" unicode="&#x20a4;" horiz-adv-x="928" 
d="M271 324h-164l36 166h197q6 28 8 67h-192l36 166h126q-7 19 -11 29q-48 126 -48 211q0 169 127 295q135 134 338 134q174 0 268 -83t94 -236q0 -21 -2 -59h-213q4 31 4 50q0 158 -167 158q-121 0 -190 -106q-48 -75 -48 -156q0 -60 41 -159q20 -49 31 -78h296l-36 -166
h-236q-4 -41 -11 -67h234l-36 -166h-287q-52 -61 -172 -157q127 73 196 73q36 0 86 -36q32 -22 60 -22q82 0 123 142h200q-46 -166 -110 -247q-83 -106 -205 -106q-68 0 -166 44q-79 36 -131 36q-85 0 -233 -78l-66 124q139 98 223 227z" />
    <glyph glyph-name="peseta" unicode="&#x20a7;" horiz-adv-x="2176" 
d="M1560 209h161q-2 -17 -2 -25q0 -88 109 -88q64 0 105.5 37t41.5 94q0 49 -50 78q-23 14 -122 41q-78 21 -121 68.5t-43 112.5q0 107 83 177t210 70q124 0 190.5 -56.5t65.5 -160.5h-166q0 92 -96 92q-55 0 -91 -31.5t-36 -79.5q0 -36 22.5 -54.5t86.5 -35.5
q117 -31 159 -58q80 -53 80 -149q0 -103 -84 -184q-90 -86 -240 -86q-180 0 -236 104q-28 52 -28 114q0 6 1 20zM171 0l290 1365h378q206 0 301 -56q65 -39 102 -112t37 -163q0 -100 -36.5 -198.5t-99.5 -167.5q-68 -75 -152 -108t-206 -33h-278l-111 -527h-225zM548 717
h198q151 0 222 76q82 90 82 214q0 83 -58 125q-44 32 -168 32h-180zM1217 625l26 125h108l20 94l151 158h45l-53 -252h128l-27 -125h-129l-84 -395q-11 -49 -11 -71q0 -43 56 -43q27 0 62 10l-28 -132q-33 -17 -96 -17q-160 0 -160 126q0 39 21 136l82 386h-111z" />
    <glyph glyph-name="uni2101" unicode="&#x2101;" horiz-adv-x="1616" 
d="M562 1365h158l89 -818h-169l-17 215h-226l-108 -215h-165zM465 893h148l-20 250zM1053 270h169q-8 -39 -8 -58q0 -43 26 -67.5t70 -24.5q54 0 91.5 37t37.5 89q0 61 -80 101l-71 35q-146 72 -146 201q0 108 83 181.5t203 73.5q114 0 176 -63q56 -58 56 -139q0 -21 -5 -56
h-158q3 34 3 43q0 76 -87 76q-48 0 -79.5 -30t-31.5 -76q0 -61 92 -105l70 -33q143 -68 143 -203q0 -103 -78 -180q-93 -90 -236 -90q-117 0 -179 63q-66 66 -66 166q0 21 5 59zM671 0h-152l878 1365h149z" />
    <glyph glyph-name="estimated" unicode="&#x212e;" horiz-adv-x="986" 
d="M1011 420h-645q-5 -55 -5 -82q0 -96 50 -151.5t137 -55.5q143 0 198 117h203q-29 -75 -76 -127q-133 -150 -346 -150q-217 0 -310 157q-56 95 -56 233q0 112 37.5 224.5t102.5 196.5q147 189 374 189q171 0 267 -108q89 -100 89 -285q0 -77 -20 -158zM827 559q1 38 1 55
q0 91 -43 143q-46 56 -117 56q-88 0 -158 -66t-111 -188h428z" />
    <glyph glyph-name="onethird" unicode="&#x2153;" horiz-adv-x="1437" 
d="M267 547l121 569q-56 -31 -131 -31q-7 0 -27 1l28 132q102 2 149 41q40 32 67 107h118l-174 -819h-151zM430 0h-161l913 1366h158zM1164 580h-160q13 109 75 175q83 87 216 87q104 0 166.5 -54t62.5 -143q0 -129 -133 -194q84 -60 84 -166q0 -123 -94 -209t-228 -86
q-111 0 -177.5 58t-66.5 154q0 26 11 68h163q-8 -37 -8 -60q0 -81 89 -81q65 0 108 44.5t43 112.5q0 48 -25.5 69.5t-82.5 21.5q-20 0 -56 -2l27 127q63 0 85.5 4t42.5 19q52 40 52 109t-75 69q-94 0 -119 -123z" />
    <glyph glyph-name="twothirds" unicode="&#x2154;" horiz-adv-x="1584" 
d="M582 0h-161l914 1366h157zM1316 580h-160q14 109 76 175q82 87 215 87q104 0 166.5 -53.5t62.5 -143.5q0 -129 -133 -194q84 -60 84 -166q0 -123 -93.5 -209t-228.5 -86q-110 0 -176.5 58t-66.5 154q0 25 10 68h164q-8 -38 -8 -60q0 -81 89 -81q65 0 107.5 44.5
t42.5 112.5q0 48 -25.5 69.5t-81.5 21.5q-21 0 -57 -2l27 127q63 0 86 4t42 19q52 40 52 109t-75 69q-93 0 -119 -123zM705 686l-30 -139h-537q18 143 91 229.5t264 191.5q157 86 157 196q0 81 -91 81q-108 0 -137 -139h-166q11 87 61 151q97 127 261 127q107 0 172.5 -56
t65.5 -147q0 -129 -105 -222q-63 -55 -218 -139q-123 -67 -155 -134h367z" />
    <glyph glyph-name="oneeighth" unicode="&#x215b;" horiz-adv-x="1438" 
d="M267 547l121 569q-56 -31 -131 -31q-7 0 -27 1l28 132q102 2 149 41q40 32 67 107h118l-174 -819h-151zM430 0h-161l913 1366h158zM1069 441q-53 56 -53 145q0 102 76 173q82 77 208 77q90 0 145 -51t55 -135q0 -134 -127 -208q73 -52 73 -164q0 -113 -74 -193
q-93 -101 -238 -101q-128 0 -187 81q-39 53 -39 126q0 81 42.5 147t118.5 103zM1278 705q-46 0 -78 -38t-32 -93q0 -78 69 -78q46 0 78.5 41t32.5 99q0 69 -70 69zM1208 371q-58 0 -99 -49.5t-41 -118.5q0 -88 87 -88q61 0 100 46.5t39 119.5q0 90 -86 90z" />
    <glyph glyph-name="threeeighths" unicode="&#x215c;" horiz-adv-x="1532" 
d="M528 0h-161l913 1366h158zM1167 441q-53 55 -53 145q0 102 76 173q82 77 208 77q90 0 145 -51t55 -135q0 -134 -127 -208q73 -53 73 -164q0 -113 -74 -193q-93 -101 -238 -101q-127 0 -187 81q-39 53 -39 126q0 81 42.5 147t118.5 103zM1376 705q-46 0 -78 -38t-32 -93
q0 -78 69 -78q46 0 78.5 41t32.5 99q0 69 -70 69zM1306 371q-58 0 -99 -49.5t-41 -118.5q0 -88 87 -88q61 0 100 46.5t39 119.5q0 90 -86 90zM436 1126h-159q13 109 75 175q82 87 215 87q104 0 166.5 -54t62.5 -143q0 -129 -133 -193q84 -60 84 -167q0 -123 -93.5 -209
t-228.5 -86q-110 0 -176.5 58t-66.5 155q0 25 11 68h163q-8 -37 -8 -61q0 -81 89 -81q65 0 107.5 44.5t42.5 112.5q0 92 -107 92q-10 0 -56 -2l26 126q63 0 86 4.5t42 19.5q52 39 52 108t-75 69q-93 0 -119 -123z" />
    <glyph glyph-name="fiveeighths" unicode="&#x215d;" horiz-adv-x="1487" 
d="M481 0h-161l914 1366h157zM167 774h159q-3 -20 -3 -30q0 -35 22.5 -56t60.5 -21q75 0 116 73q34 60 34 136q0 44 -23 69.5t-63 25.5q-62 0 -117 -68l-136 5l166 456h395l-30 -139h-272l-54 -148q40 25 90 25q92 0 148 -61.5t56 -162.5q0 -134 -87 -238
q-94 -112 -235 -112q-109 0 -172 62q-59 57 -59 138q0 16 4 46zM1120 441q-52 56 -52 145q0 102 76 173q82 77 207 77q90 0 145 -51t55 -135q0 -135 -127 -208q74 -53 74 -164q0 -113 -74 -193q-93 -101 -239 -101q-127 0 -187 81q-39 53 -39 126q0 81 42.5 147t118.5 103z
M1330 705q-47 0 -78.5 -38t-31.5 -93q0 -78 69 -78q46 0 78 41t32 99q0 69 -69 69zM1259 371q-57 0 -98.5 -49.5t-41.5 -118.5q0 -88 88 -88q61 0 100 46.5t39 119.5q0 90 -87 90z" />
    <glyph glyph-name="seveneighths" unicode="&#x215e;" horiz-adv-x="1383" 
d="M373 0h-161l913 1366h158zM1012 442q-52 52 -52 144q0 102 73 173q80 77 203 77q93 0 150 -51t57 -135q0 -63 -33.5 -118t-93.5 -89q74 -52 74 -164q0 -113 -73 -194q-91 -101 -236 -101q-106 0 -169 56.5t-63 151.5q0 81 43 147t120 103zM1218 705q-49 0 -82 -37
t-33 -91q0 -79 74 -79q47 0 80.5 40t33.5 97q0 70 -73 70zM1146 373q-53 0 -92 -51t-39 -120q0 -87 79 -87q56 0 93 48.5t37 122.5q0 87 -78 87zM417 547h-167q36 163 141 345.5t245 328.5h-333l31 145h504l-27 -126q-120 -103 -232 -299.5t-162 -393.5z" />
    <glyph glyph-name="minus" unicode="&#x2212;" horiz-adv-x="1065" 
d="M227 776h942l-37 -176h-942z" />
    <glyph glyph-name="fraction005" unicode="&#x2215;" horiz-adv-x="532" 
d="M37 0h-161l913 1366h158z" />
    <glyph glyph-name="periodcentered" unicode="&#x2219;" horiz-adv-x="598" 
d="M549 602l-52 -248h-246l52 248h246z" />
    <glyph glyph-name="uni2236" unicode="&#x2236;" horiz-adv-x="1467" 
d="M941 1059q41 0 69 -28t28 -68t-28 -68.5t-68 -28.5q-41 0 -69 28.5t-28 69.5q0 39 28.5 67t67.5 28zM826 528q40 0 68 -28t28 -68t-28 -68.5t-68 -28.5q-41 0 -69 28.5t-28 69.5q0 39 28.5 67t68.5 28z" />
    <glyph glyph-name="dotmath" unicode="&#x22c5;" horiz-adv-x="598" 
d="M549 602l-52 -248h-246l52 248h246z" />
    <glyph glyph-name="one.fitted" unicode="&#xe001;" horiz-adv-x="969" 
d="M438 0l213 998q-53 -34 -99.5 -45t-141.5 -11l36 169q133 4 203.5 58t129.5 196h158l-290 -1365h-209z" />
    <glyph glyph-name="two.fitted" unicode="&#xe002;" horiz-adv-x="1012" 
d="M936 182l-39 -182h-812q30 238 167 400q60 71 139 129.5t252 160.5q272 160 272 370q0 71 -42 111q-43 43 -118 43q-89 0 -156 -67t-92 -182h-208q22 131 90 226q148 205 386 205q161 0 260 -88t99 -231q0 -219 -168 -377q-102 -96 -353 -241q-128 -75 -188 -134
t-92 -143h603z" />
    <glyph glyph-name="three.fitted" unicode="&#xe003;" horiz-adv-x="1002" 
d="M521 999h-197q26 143 113 251q125 157 328 157q85 0 154.5 -30.5t108.5 -85.5q54 -74 54 -182q0 -123 -62.5 -216.5t-177.5 -141.5q51 -20 81 -53q73 -79 73 -207q0 -94 -36.5 -187t-101.5 -163q-144 -157 -359 -157q-195 0 -279 118q-64 89 -64 211q0 47 16 107h202
q-8 -60 -8 -90q0 -164 156 -164q118 0 191 106q64 95 64 216q0 165 -168 165q-29 0 -68 -3l36 167q83 0 123.5 9.5t74.5 38.5q43 35 69.5 96t26.5 123q0 67 -35 104t-98 37q-79 0 -134.5 -58t-82.5 -168z" />
    <glyph glyph-name="four.fitted" unicode="&#xe004;" horiz-adv-x="999" 
d="M557 0l71 336h-473l45 212l652 817h193l-181 -847h139l-38 -182h-139l-71 -336h-198zM666 518l115 538l-415 -538h300z" />
    <glyph glyph-name="five.fitted" unicode="&#xe005;" horiz-adv-x="1006" 
d="M158 342h204q-2 -24 -2 -40q0 -67 41 -108t108 -41q137 0 214 146q27 51 44 123t17 134q0 86 -41 134.5t-113 48.5q-110 0 -202 -120l-177 6l262 740h595l-40 -190h-442l-123 -348q86 84 203 84q137 0 217 -93t80 -250q0 -111 -38 -219t-106 -192q-150 -186 -371 -186
q-162 0 -255 95q-84 86 -84 213q0 29 9 63z" />
    <glyph glyph-name="six.fitted" unicode="&#xe006;" horiz-adv-x="1001" 
d="M1102 1053h-200q2 19 2 27q0 132 -118 132q-195 0 -317 -452q117 143 258 143q129 0 209 -92q78 -90 78 -246q0 -111 -37 -219t-103 -190q-147 -185 -349 -185q-158 0 -241 119q-75 107 -75 277q0 239 87 505q81 252 218 388q136 134 305 134q128 0 206.5 -80.5
t78.5 -213.5q0 -17 -2 -47zM661 727q-54 0 -104.5 -40t-86.5 -110q-58 -116 -58 -242q0 -85 35 -133q35 -49 98 -49q112 0 187 141q63 117 63 255q0 85 -35 131.5t-99 46.5z" />
    <glyph glyph-name="seven.fitted" unicode="&#xe007;" horiz-adv-x="993" 
d="M485 0h-221q36 164 146 397t237 415q162 233 289 352h-571l43 201h770l-39 -185q-206 -196 -388.5 -525.5t-265.5 -654.5z" />
    <glyph glyph-name="eight.fitted" unicode="&#xe008;" horiz-adv-x="1002" 
d="M464 736q-61 46 -86 100t-25 143q0 170 115 288q58 60 140 93.5t171 33.5q141 0 226.5 -78.5t85.5 -208.5q0 -121 -65.5 -223.5t-174.5 -153.5q60 -32 90 -70q55 -73 55 -195q0 -189 -115 -326q-141 -168 -367 -168q-195 0 -289 127q-60 81 -60 195q0 152 81.5 272.5
t217.5 170.5zM760 1212q-101 0 -161 -93q-49 -75 -49 -164q0 -69 33 -107.5t94 -38.5q95 0 158 94q53 79 53 178q0 62 -34 96.5t-94 34.5zM636 653q-110 0 -187 -114q-65 -97 -65 -218q0 -80 39 -124t110 -44q124 0 195 117q57 96 57 217q0 77 -40 121.5t-109 44.5z" />
    <glyph glyph-name="nine.fitted" unicode="&#xe009;" horiz-adv-x="1001" 
d="M194 319h200q-2 -21 -2 -32q0 -134 118 -134q192 0 316 454q-116 -143 -258 -143q-129 0 -209 92q-78 90 -78 246q0 111 36 218.5t101 189.5q146 184 345 184q161 0 246 -118q77 -107 77 -279q0 -186 -54 -397t-138 -350q-167 -279 -414 -279q-132 0 -211.5 77.5
t-79.5 207.5q0 25 5 63zM744 1212q-107 0 -182 -138q-62 -116 -62 -250q0 -84 34 -131t96 -47q119 0 195 148q58 114 58 242q0 83 -36.5 129.5t-102.5 46.5z" />
    <glyph glyph-name="zero.fitted" unicode="&#xe00a;" horiz-adv-x="998" 
d="M778 1394q150 0 228 -102.5t78 -299.5q0 -152 -43.5 -350t-107.5 -338q-152 -333 -414 -333q-154 0 -234 103.5t-80 302.5q0 150 44 347.5t109 339.5q151 330 420 330zM753 1212q-144 0 -234 -281q-47 -150 -79 -320t-32 -274q0 -184 128 -184q76 0 132 67t104 216
q47 146 78 314.5t31 278.5q0 183 -128 183z" />
    <glyph glyph-name="uniEA31" unicode="&#xea31;" horiz-adv-x="1021" 
d="M823 1102h98q-55 -205 -205 -205q-74 0 -116.5 50.5t-42.5 137.5q0 121 70 209t165 88q67 0 109.5 -45t42.5 -114q0 -7 -1 -19h-99q2 13 2 22q0 68 -58 68q-53 0 -93 -66t-40 -152q0 -91 64 -91q69 0 104 117zM823 1554q169 0 271 -121q80 -95 80 -228q0 -173 -117 -308
q-69 -81 -165 -126q-97 -45 -201 -45q-168 0 -268 119q-83 100 -83 240q0 164 117 301q67 79 164.5 123.5t201.5 44.5zM816 1491q-200 0 -325 -166q-82 -110 -82 -233q0 -117 66 -200q83 -103 226 -103q90 0 176 45t145 122q84 110 84 251q0 115 -58 183q-84 101 -232 101z
" />
    <glyph glyph-name="uniEA32" unicode="&#xea32;" horiz-adv-x="1021" 
d="M550 907l99 465h167q131 0 131 -115q0 -85 -78 -127q25 -25 25 -65q0 -19 -4 -43q-8 -58 -8 -69q0 -13 19 -46h-111q-6 19 -6 30q0 15 6 48q6 40 6 56q0 28 -12 38t-46 10h-51l-38 -182h-99zM705 1169h50q49 0 67 15q27 22 27 64q0 38 -62 38h-58zM827 1554
q169 0 271 -121q80 -95 80 -228q0 -173 -117 -308q-69 -81 -165 -126q-97 -45 -201 -45q-168 0 -268 119q-83 100 -83 240q0 164 117 301q67 79 164.5 123.5t201.5 44.5zM820 1491q-200 0 -325 -166q-82 -110 -82 -233q0 -117 66 -200q83 -103 226 -103q90 0 176 45t145 122
q84 110 84 251q0 115 -58 183q-84 101 -232 101z" />
    <glyph glyph-name="uniEA3F" unicode="&#xea3f;" horiz-adv-x="555" 
d="M980 1365l-30 -140q-46 -212 -224 -223l17 77q73 19 103 110h-80l38 176h176z" />
    <glyph glyph-name="uniEA4F" unicode="&#xea4f;" horiz-adv-x="1055" 
d="M673 1096l30 140q46 212 214 223l-16 -77q-70 -19 -99 -110h75l-38 -176h-166z" />
    <glyph glyph-name="uniEA66" unicode="&#xea66;" horiz-adv-x="1053" 
d="M593 -96l-30 -140q-46 -213 -214 -223l17 77q69 18 98 110h-75l38 176h166z" />
    <glyph glyph-name="uniEA67" unicode="&#xea67;" horiz-adv-x="1035" 
d="M1098 1365l-30 -140q-46 -212 -214 -223l17 77q69 19 98 110h-75l38 176h166z" />
    <glyph glyph-name="uniEA68" unicode="&#xea68;" horiz-adv-x="504" 
d="M830 1653l-44 -201h-192l44 201h192zM569 1653l-43 -201h-192l44 201h191z" />
    <glyph glyph-name="uniEA69" unicode="&#xea69;" horiz-adv-x="890" 
d="M509 -96l-30 -140q-46 -213 -214 -223l17 77q69 18 98 110h-75l38 176h166z" />
    <glyph glyph-name="uniEA6A" unicode="&#xea6a;" horiz-adv-x="464" 
d="M733 1311l-44 -201h-174l43 201h175zM453 1311l-43 -201h-165l44 201h164z" />
    <glyph glyph-name="uniEA71" unicode="&#xea71;" horiz-adv-x="1117" 
d="M331 878h-101l27 131h101l76 356h403q153 0 232 -29q85 -31 133 -105t48 -172q0 -20 -3 -50h75l-27 -131h-74q-55 -175 -177 -263t-310 -88h-254l-111 -527h-225zM556 878l-35 -161h204q110 0 172.5 37.5t97.5 123.5h-439zM583 1009h434q-1 83 -52.5 119t-170.5 36h-177z
" />
    <glyph glyph-name="uniEA72" unicode="&#xea72;" horiz-adv-x="589" 
d="M426 805l81 380q-35 -13 -77 -13h-12l-18 1l22 103q68 1 96 19.5t52 80.5h93l-121 -571h-116zM506 109l-24 -109h-379q19 108 67 166t179 130q102 57 102 128q0 49 -56 49q-64 0 -81 -77q-2 -8 -3 -15h-128q10 87 74.5 145t153.5 58q76 0 122.5 -41t46.5 -107
q0 -90 -75 -155q-43 -38 -149 -95q-75 -40 -98 -77h248zM178 723h541l-16 -80h-542z" />
    <glyph glyph-name="uniEA73" unicode="&#xea73;" horiz-adv-x="589" 
d="M433 805l80 380q-35 -13 -76 -13h-12l-18 1l22 103q68 1 95.5 19.5t52.5 80.5h93l-121 -571h-116zM303 0l29 133h-208l22 100l288 338h99l-71 -338h62l-22 -100h-62l-28 -133h-109zM354 233l30 145l-118 -145h88zM178 723h541l-16 -80h-542z" />
    <glyph glyph-name="uniEA74" unicode="&#xea74;" horiz-adv-x="589" 
d="M488 1200h-125q8 58 32 97q57 95 175 95q75 0 120 -40t45 -107q0 -81 -85 -125q51 -41 51 -118q0 -86 -65 -144.5t-160 -58.5q-78 0 -125.5 40.5t-47.5 107.5q0 21 6 57h128q-6 -26 -6 -39q0 -55 56 -55q36 0 60.5 28.5t24.5 71.5q0 53 -63 53q-8 0 -44 -2l21 100h20h11
q52 0 73 20q26 25 26 60q0 41 -49 41q-32 0 -49 -17t-30 -65zM297 0l28 133h-208l22 100l288 338h100l-72 -338h62l-22 -100h-62l-28 -133h-108zM347 233l30 145l-117 -145h87zM178 723h541l-17 -80h-541z" />
    <glyph glyph-name="Dotaccent" unicode="&#xefed;" 
d="M1025 1653l-43 -201h-192l44 201h191z" />
    <glyph glyph-name="Breve" unicode="&#xefee;" 
d="M674 1735h137q2 -70 27 -98.5t85 -28.5q58 0 94 28t67 99h137q-30 -126 -111 -196t-197 -70q-115 0 -178 59.5t-63 167.5q0 17 2 39z" />
    <glyph glyph-name="Ogonek" unicode="&#xeff1;" horiz-adv-x="1174" 
d="M1014 0h120q-6 -4 -12 -9q-118 -92 -118 -175q0 -72 85 -72q22 0 74 14l-23 -111q-56 -22 -101 -22q-81 0 -129.5 43t-48.5 116q0 109 153 216z" />
    <glyph glyph-name="Cedilla" unicode="&#xeff2;" horiz-adv-x="1236" 
d="M473 -201l124 213l95 -4l-69 -116q27 12 53 12q59 0 99 -38.5t40 -95.5q0 -77 -62.5 -128.5t-154.5 -51.5q-74 0 -114 35q-36 30 -36 71v5h108q4 -31 50 -31q39 0 64.5 28.5t25.5 71.5q0 56 -58 56q-40 0 -57 -27h-108z" />
    <glyph glyph-name="Ring" unicode="&#xeff3;" 
d="M927 1727q-40 0 -68 -29t-28 -71t27.5 -71t66.5 -29t67 29t28 71q0 41 -27.5 70.5t-65.5 29.5zM928 1821q80 0 137.5 -57t57.5 -137q0 -79 -57 -135q-58 -58 -141 -58t-140 56q-58 58 -58 137q0 81 58.5 137.5t142.5 56.5z" />
    <glyph glyph-name="Tilde" unicode="&#xeff5;" 
d="M1134 1714h117q-84 -233 -232 -233q-59 0 -154 63q-48 31 -74 31q-53 0 -91 -94h-115q83 233 239 233q37 0 64.5 -11t80.5 -48q42 -29 70 -29q54 0 95 88z" />
    <glyph glyph-name="Circumflex" unicode="&#xeff7;" 
d="M1173 1475h-180l-69 149l-132 -149h-180l238 260h194z" />
    <glyph glyph-name="Acute" unicode="&#xf6c9;" 
d="M1194 1735l-240 -260h-171l225 260h186z" />
    <glyph glyph-name="Caron" unicode="&#xf6ca;" horiz-adv-x="1103" 
d="M640 1735h180l69 -149l131 149h181l-238 -260h-195z" />
    <glyph glyph-name="Dieresis" unicode="&#xf6cb;" 
d="M1188 1653l-44 -201h-192l44 201h192zM862 1653l-43 -201h-192l44 201h191z" />
    <glyph glyph-name="Grave" unicode="&#xf6ce;" 
d="M699 1735h187l114 -260h-171z" />
    <glyph glyph-name="Hungarumlaut" unicode="&#xf6cf;" horiz-adv-x="1258" 
d="M1062 1745l-254 -272h-174l238 272h190zM1382 1745l-254 -272h-174l238 272h190z" />
    <glyph glyph-name="Macron" unicode="&#xf6d0;" 
d="M1211 1610l-28 -131h-580l28 131h580z" />
    <glyph glyph-name="uniFEFF" unicode="&#xfeff;" horiz-adv-x="16" 
 />
    <glyph glyph-name="uniFFFC" unicode="&#xfffc;" horiz-adv-x="2064" 
d="M2300 1151h-100l48 222h-223l21 100h323zM1773 1373h-323l21 100h323zM2178 573h-100l69 324h100zM1201 1387h-323l21 100h323zM2056 0h-323l21 100h223l48 224h100zM623 1373h-223l-48 -222h-100l69 322h323zM1481 0h-323l21 100h323zM230 573h-100l69 324h100zM906 0
h-323l21 100h323zM331 0h-323l69 324h100l-48 -224h223zM799 1096q102 0 163 -68q64 -70 64 -192q0 -185 -98 -334q-117 -178 -300 -178q-118 0 -180 86q-49 69 -49 172q0 98 32 197.5t86 168.5q117 148 282 148zM773 1016q-53 0 -106 -35.5t-92 -96.5q-35 -56 -56.5 -136
t-21.5 -155q0 -93 47 -143q42 -46 103 -46q120 0 203 134q78 128 78 288q0 89 -41 139.5t-114 50.5zM1046 356l157 738h233q100 0 139 -30q51 -39 51 -108q0 -138 -139 -204q96 -30 96 -128q0 -117 -75 -192.5t-190 -75.5h-272zM1226 780h124q54 0 80 6.5t48 25.5
q50 43 50 119q0 49 -24.5 66t-95.5 17h-132zM1153 436h140q61 0 90 6.5t51 25.5q61 51 61 143q0 57 -45 80q-25 13 -114 13h-126zM1575 346l17 80q23 -8 47 -8q74 0 114 66q20 33 43 140l100 470h90l-103 -485q-29 -138 -73 -189q-68 -82 -180 -82q-27 0 -55 8z" />
    <glyph glyph-name="uniFFFD" unicode="&#xfffd;" horiz-adv-x="2115" 
d="M1386 1556l741 -938l-1139 -937l-739 937zM886 780h214q2 7 4 17q46 182 170 182q85 0 85 -89q0 -54 -27 -100t-87 -94q-112 -89 -143 -132q-44 -64 -72 -205q-1 -7 -3 -15h198q18 78 44 117t88 80q122 82 176.5 167.5t54.5 197.5q0 126 -79 200t-213 74
q-193 0 -312 -155q-43 -55 -61 -99t-37 -146zM1231 244h-254l-53 -250h254z" />
    </font>
</defs>
</svg>
