<?xml version="1.0" standalone="no"?>
<!DOCTYPE svg PUBLIC "-//W3C//DTD SVG 1.1//EN" "http://www.w3.org/Graphics/SVG/1.1/DTD/svg11.dtd" >
<svg xmlns="http://www.w3.org/2000/svg" xmlns:xlink="http://www.w3.org/1999/xlink" version="1.1">
<metadata>
Created by FontForge 20161004 at Thu Apr 20 15:18:21 2017
 By mb
(URW)++,Copyright 2016 by (URW)++ Design &#38; Development
</metadata>
<defs>
<font id="TeleGroteskNext-Ultra" horiz-adv-x="1059" >
  <font-face 
    font-family="TeleGrotesk Next Ultra"
    font-weight="800"
    font-stretch="normal"
    units-per-em="2048"
    panose-1="0 0 0 0 0 0 0 0 0 0"
    ascent="1679"
    descent="-369"
    x-height="942"
    cap-height="1365"
    bbox="-131 -512 2606 1816"
    underline-thickness="187"
    underline-position="-296"
    unicode-range="U+0020-FFFD"
  />
<missing-glyph horiz-adv-x="410" 
d="M41 0v1365h328v-1365h-328zM328 41v1283h-246v-1283h246z" />
    <glyph glyph-name="fi" unicode="fi" horiz-adv-x="1095" 
d="M129 0v758h-128v184h128v84q0 110 15 170t54 104q85 97 275 97q7 0 124 -7v-204q-50 6 -84 6q-62 0 -82.5 -28t-20.5 -114v-108h175v-184h-175v-758h-281zM690 1092v273h298v-273h-298zM699 0v942h281v-942h-281z" />
    <glyph glyph-name="fl" unicode="fl" horiz-adv-x="1095" 
d="M129 0v758h-128v184h128v84q0 110 15 170t54 104q85 97 275 97q7 0 124 -7v-204q-50 6 -84 6q-62 0 -82.5 -28t-20.5 -114v-108h175v-184h-175v-758h-281zM716 0v1365h281v-1365h-281z" />
    <glyph glyph-name="afii61352" unicode="Nr&#x2e;" horiz-adv-x="1838" 
d="M148 0v1365l296 1l428 -879v878h281v-1365h-293l-431 877v-877h-281zM1525 979q127 0 205 -84q80 -85 80 -236q0 -147 -85 -234q-77 -79 -200 -79q-130 0 -209 88q-77 87 -77 229q0 138 75 224q80 92 211 92zM1524 792q-33 0 -52.5 -35t-19.5 -94q0 -61 19.5 -95.5
t53.5 -34.5q33 0 52.5 35t19.5 94q0 61 -19.5 95.5t-53.5 34.5zM1239 278h571v-211h-571v211z" />
    <glyph glyph-name=".notdef" horiz-adv-x="410" 
d="M41 0v1365h328v-1365h-328zM328 41v1283h-246v-1283h246z" />
    <glyph glyph-name="_" horiz-adv-x="0" 
 />
    <glyph glyph-name="_001" horiz-adv-x="410" 
 />
    <glyph glyph-name="space" unicode=" " horiz-adv-x="410" 
 />
    <glyph glyph-name="exclam" unicode="!" horiz-adv-x="639" 
d="M454 1365v-364l-67 -585h-135l-66 581v368h268zM469 294v-294h-300v294h300z" />
    <glyph glyph-name="quotedbl" unicode="&#x22;" horiz-adv-x="855" 
d="M338 845h-201l-56 520h313zM719 845h-201l-56 520h313z" />
    <glyph glyph-name="numbersign" unicode="#" horiz-adv-x="1225" 
d="M108 430v160h200l30 208h-178v160h200l48 339h195l-48 -339h187l48 339h195l-47 -339h180v-160h-203l-29 -208h180v-160h-203l-50 -362h-196l51 362h-187l-51 -362h-195l51 362h-178zM720 798h-187l-29 -208h187z" />
    <glyph glyph-name="dollar" unicode="$" horiz-adv-x="1147" 
d="M491 1447h160v-98q329 -51 377 -344h-259q-15 98 -118 132v-321q410 -132 410 -424q0 -229 -218 -330q-81 -38 -192 -50v-94h-160v95q-165 24 -264 118q-117 111 -140 281h268q23 -132 136 -179v362q-105 39 -158 67q-207 112 -207 333q0 122 66 210q49 66 118.5 100.5
t180.5 47.5v94zM651 225q57 16 89 45q54 49 54 119q0 102 -143 167v-331zM491 1145q-123 -35 -123 -142q0 -49 27 -81.5t96 -65.5v289z" />
    <glyph glyph-name="percent" unicode="%" horiz-adv-x="1832" 
d="M395 1383q149 0 246 -106q109 -120 109 -321q0 -174 -82 -290q-99 -139 -273 -139q-179 0 -279 142q-80 114 -80 292q0 195 104 311q100 111 255 111zM394 1211q-73 0 -113 -67q-45 -76 -45 -184q0 -119 45 -194q40 -67 114 -67q69 0 107 62q48 78 48 197
q0 114 -43 183.5t-113 69.5zM713 0h-179l588 1365h176zM1442 837q148 0 246 -106q109 -118 109 -321q0 -174 -82 -290q-99 -139 -273 -139q-178 0 -279 142q-80 114 -80 292q0 195 104 311q100 111 255 111zM1441 665q-73 0 -113 -67q-45 -76 -45 -184q0 -119 45 -194
q40 -67 114 -67q69 0 107 62q48 78 48 197q0 114 -43 183.5t-113 69.5z" />
    <glyph glyph-name="ampersand" unicode="&#x26;" horiz-adv-x="1163" 
d="M1135 0h-275l-37 51q-127 -80 -304 -80q-198 0 -321 103q-136 113 -136 292q0 82 33.5 161.5t92.5 138.5q40 41 119 100q-49 70 -67 101q-59 100 -59 209q0 139 97 228.5t249 89.5q151 0 246 -86q92 -84 92 -207q0 -100 -54 -180.5t-199 -195.5l227 -314q22 70 25 156
h234q-22 -210 -116 -355zM436 588q-97 -86 -97 -204q0 -100 60 -160q56 -56 146 -56q81 0 158 49zM489 898q132 102 132 208q0 46 -27.5 76.5t-69.5 30.5q-46 0 -74 -36t-28 -96q0 -85 67 -183z" />
    <glyph glyph-name="quotesingle" unicode="'" horiz-adv-x="474" 
d="M338 845h-201l-56 520h313z" />
    <glyph glyph-name="parenleft" unicode="(" horiz-adv-x="623" 
d="M508 -355h-209q-107 191 -163.5 411t-56.5 443q0 305 102 603q56 165 116 263h208q-9 -23 -48 -118q-61 -147 -95 -343t-34 -397q0 -471 180 -862z" />
    <glyph glyph-name="parenright" unicode=")" horiz-adv-x="623" 
d="M116 -355q180 392 180 862q0 333 -93 639q-2 6 -84 219h207q98 -159 158.5 -398.5t60.5 -467.5q0 -223 -56.5 -442.5t-164.5 -411.5h-208z" />
    <glyph glyph-name="asterisk" unicode="*" horiz-adv-x="874" 
d="M787 1055l-233 -73l147 -196l-123 -93l-145 202l-144 -200l-124 93l154 194l-233 73l48 146l228 -83l-4 247h157l-8 -247l229 83z" />
    <glyph glyph-name="plus" unicode="+" horiz-adv-x="1068" 
d="M63 783h374v348h195v-348h373v-187h-373v-348h-195v348h-374v187z" />
    <glyph glyph-name="comma" unicode="," horiz-adv-x="639" 
d="M469 294v-228q0 -122 -29 -194t-98 -123q-72 -54 -173 -68v143q120 32 127 176h-127v294h300z" />
    <glyph glyph-name="hyphen" unicode="-" horiz-adv-x="472" 
d="M463 633v-246h-453v246h453z" />
    <glyph glyph-name="period" unicode="." horiz-adv-x="639" 
d="M469 294v-294h-300v294h300z" />
    <glyph glyph-name="slash" unicode="/" horiz-adv-x="821" 
d="M203 -355h-227l530 1720h221z" />
    <glyph glyph-name="zero" unicode="0" horiz-adv-x="1034" 
d="M519 1394q132 0 233 -84q197 -162 197 -634q0 -326 -108 -506q-118 -199 -320 -199q-229 0 -346 231q-90 176 -90 483q0 333 109 513q120 196 325 196zM515 1169q-161 0 -161 -486q0 -249 40.5 -368t124.5 -119q161 0 161 482q0 253 -40 372t-125 119z" />
    <glyph glyph-name="one" unicode="1" horiz-adv-x="1034" 
d="M398 0v960q-41 -36 -83 -48.5t-127 -13.5v206q129 4 187 59.5t86 201.5h206v-1365h-269z" />
    <glyph glyph-name="two" unicode="2" horiz-adv-x="1034" 
d="M921 241v-241h-845q4 221 71 357q43 89 108.5 154t234.5 186q98 71 141 138.5t43 150.5q0 76 -42.5 122.5t-112.5 46.5q-65 0 -105 -50t-47 -140h-266q11 171 105 288q116 143 314 143q193 0 307 -117q105 -107 105 -277q0 -149 -72.5 -253t-275.5 -243
q-127 -88 -171.5 -140.5t-53.5 -124.5h562z" />
    <glyph glyph-name="three" unicode="3" horiz-adv-x="1034" 
d="M363 996h-261q5 154 81 253q111 145 329 145q181 0 289 -105q105 -103 105 -267q0 -108 -44 -184t-128 -112q80 -27 129 -84q83 -97 83 -247q0 -181 -120 -301q-123 -123 -327 -123q-193 0 -308 106q-117 108 -117 304h263q1 -84 42 -130t117 -46q79 0 123 56
q46 58 46 152q0 100 -50.5 148.5t-154.5 48.5h-40v197h63q71 0 116 54t45 140q0 78 -39.5 123t-106.5 45q-130 0 -135 -173z" />
    <glyph glyph-name="four" unicode="4" horiz-adv-x="1034" 
d="M812 0h-261v294h-475v250l486 821h250v-850h141v-221h-141v-294zM551 515v473l-252 -473h252z" />
    <glyph glyph-name="five" unicode="5" horiz-adv-x="1034" 
d="M196 1365h661v-238h-450l-42 -281q83 69 196 69q159 0 262 -105q117 -119 117 -335q0 -232 -141 -377q-123 -127 -311 -127q-185 0 -299.5 100.5t-122.5 270.5h269q8 -70 47.5 -108t103.5 -38q81 0 129 69.5t48 187.5q0 104 -37 177q-42 85 -134 85q-50 0 -84 -25.5
t-67 -86.5h-240z" />
    <glyph glyph-name="six" unicode="6" horiz-adv-x="1034" 
d="M926 1056h-261q-27 129 -122 129q-166 0 -192 -386q93 117 232 117q162 0 266 -123q110 -129 110 -336q0 -228 -135 -365q-119 -121 -288 -121q-215 0 -334 178t-119 499q0 383 144 580q122 166 320 166q157 0 257 -89t122 -249zM527 711q-76 0 -120 -87
q-39 -77 -39 -171q0 -112 46 -185.5t117 -73.5q68 0 113.5 73.5t45.5 182.5q0 107 -44 181q-46 80 -119 80z" />
    <glyph glyph-name="seven" unicode="7" horiz-adv-x="1034" 
d="M125 1365h783v-225q-97 -140 -149 -240t-97 -234q-92 -274 -111 -666h-280q6 322 156 702q110 282 220 413h-522v250z" />
    <glyph glyph-name="eight" unicode="8" horiz-adv-x="1034" 
d="M298 732q-179 80 -179 301q0 173 126 272q115 89 274 89q171 0 288 -103q108 -94 108 -255q0 -107 -46 -185t-133 -119q224 -84 224 -345q0 -188 -122 -301q-122 -115 -322 -115q-196 0 -319 108t-123 298q0 132 59 225t165 130zM516 1189q-62 0 -98 -41
q-46 -52 -46 -139q0 -90 40 -142.5t108 -52.5q58 0 93 40q49 56 49 154q0 85 -38.5 133t-107.5 48zM515 630q-74 0 -121.5 -62.5t-47.5 -160.5q0 -103 47.5 -165t126.5 -62q82 0 126 70q42 66 42 152q0 95 -43 159q-46 69 -130 69z" />
    <glyph glyph-name="nine" unicode="9" horiz-adv-x="1034" 
d="M108 309h261q27 -128 123 -128q103 0 151 153q32 101 40 233q-92 -117 -232 -117q-162 0 -267 123q-109 129 -109 337q0 227 133 363q117 121 284 121q217 0 338 -182t121 -508q0 -377 -144 -570q-121 -163 -319 -163q-158 0 -258 89t-122 249zM504 1171
q-68 0 -114 -72.5t-46 -178.5q0 -108 44 -185q45 -80 119 -80q77 0 120 88q39 77 39 173q0 109 -46.5 182t-115.5 73z" />
    <glyph glyph-name="colon" unicode=":" horiz-adv-x="639" 
d="M469 942v-294h-300v294h300zM469 294v-294h-300v294h300z" />
    <glyph glyph-name="semicolon" unicode=";" horiz-adv-x="639" 
d="M469 294v-228q0 -122 -29 -194t-98 -123q-72 -54 -173 -68v143q120 32 127 176h-127v294h300zM469 942v-294h-300v294h300z" />
    <glyph glyph-name="less" unicode="&#x3c;" horiz-adv-x="1084" 
d="M985 1277v-304l-564 -290l564 -291v-303l-887 467v256z" />
    <glyph glyph-name="equal" unicode="=" horiz-adv-x="1068" 
d="M63 954h942v-187h-942v187zM63 612h942v-187h-942v187z" />
    <glyph glyph-name="greater" unicode="&#x3e;" horiz-adv-x="1084" 
d="M99 1277l887 -466v-255l-887 -467v303l564 291l-564 290v304z" />
    <glyph glyph-name="question" unicode="?" horiz-adv-x="1022" 
d="M122 927l1 15q7 171 76 280q111 176 335 176q178 0 283 -110q106 -111 106 -282q0 -104 -43.5 -184t-144.5 -164q-49 -40 -69 -71.5t-30 -83.5q-4 -26 -5 -89h-234q1 9 1 16q2 164 35 235q24 52 134 159q51 50 70.5 90t19.5 96q0 69 -34.5 110.5t-91.5 41.5
q-147 0 -156 -235h-253zM664 294v-294h-300v294h300z" />
    <glyph glyph-name="at" unicode="@" horiz-adv-x="1556" 
d="M991 982h183l-80 -403q-6 -28 -6 -79q0 -25 22 -25q56 0 126 74q110 116 110 294q0 187 -130 303t-330 116q-253 0 -430 -187q-181 -192 -181 -480q0 -216 118 -348q130 -146 382 -146q194 0 360 73q18 8 105 50l53 -136q-62 -30 -82 -38q-194 -83 -444 -83
q-316 0 -491 167q-181 173 -181 458q0 231 123 435q114 189 315 286q168 83 351 83q251 0 425 -139q199 -159 199 -414q0 -174 -97 -317q-62 -90 -146.5 -140t-174.5 -50q-91 0 -147 66q-93 -76 -197 -76q-119 0 -193 84q-69 80 -69 208q0 163 102 280q92 106 234 106
q95 0 164 -61zM846 864q-79 0 -128 -83q-43 -70 -43 -156q0 -70 28.5 -112.5t74.5 -42.5q80 0 128 90q38 71 38 161q0 66 -26.5 104.5t-71.5 38.5z" />
    <glyph glyph-name="A" unicode="A" horiz-adv-x="1179" 
d="M440 1365h300l432 -1365h-305l-85 305h-389l-86 -305h-300zM456 526h265l-132 471z" />
    <glyph glyph-name="B" unicode="B" horiz-adv-x="1214" 
d="M148 0v1365h487q122 0 198 -19.5t132 -65.5q112 -91 112 -248q0 -201 -196 -292q249 -84 249 -338q0 -222 -168 -333q-105 -69 -281 -69h-533zM441 813h131q108 0 154 33q62 46 62 130q0 94 -75 134q-40 22 -141 22h-131v-319zM441 233h158q123 0 174 41q64 51 64 148
q0 113 -85 159q-50 27 -165 27h-146v-375z" />
    <glyph glyph-name="C" unicode="C" horiz-adv-x="1249" 
d="M893 529h293q-16 -217 -122 -363q-145 -199 -408 -199q-249 0 -395 171q-177 209 -177 541q0 326 171 530q157 187 408 187q269 0 419 -216q85 -123 96 -274l-290 -1q-13 80 -43 130q-64 111 -186 111q-136 0 -208 -129q-74 -134 -74 -335q0 -204 77 -340
q70 -125 202 -125q103 0 161 76.5t76 235.5z" />
    <glyph glyph-name="D" unicode="D" horiz-adv-x="1285" 
d="M148 0v1365h421q278 0 437 -148q195 -180 195 -530q0 -342 -184 -530q-100 -103 -231 -134q-93 -23 -218 -23h-420zM441 250h131q156 0 227 74q109 115 109 364q0 206 -92 323q-81 104 -252 104h-123v-865z" />
    <glyph glyph-name="E" unicode="E" horiz-adv-x="1139" 
d="M148 0v1365h871v-250h-578v-292h528v-238h-528v-335h590v-250h-883z" />
    <glyph glyph-name="F" unicode="F" horiz-adv-x="1039" 
d="M148 0v1365h826v-250h-537v-318h465v-238h-465v-559h-289z" />
    <glyph glyph-name="G" unicode="G" horiz-adv-x="1314" 
d="M1187 0h-215v154q-81 -105 -155.5 -146t-182.5 -41q-257 0 -406 207q-144 200 -144 501q0 302 151 504q162 218 431 218q229 0 377 -170q59 -69 88 -139.5t41 -173.5l-285 -1q-15 85 -48 135q-63 99 -177 99q-138 0 -212 -131q-73 -127 -73 -337q0 -224 82 -351
q75 -115 210 -115q111 0 176.5 79t76.5 224h-245v221h510v-737z" />
    <glyph glyph-name="H" unicode="H" horiz-adv-x="1317" 
d="M148 0v1365h293v-519h435v519h293v-1365h-293v596h-435v-596h-293z" />
    <glyph glyph-name="I" unicode="I" horiz-adv-x="589" 
d="M148 0v1365h293v-1365h-293z" />
    <glyph glyph-name="J" unicode="J" horiz-adv-x="680" 
d="M10 -19v233q60 -15 100 -15q103 0 136 112q15 54 15 236v818h293v-846q0 -146 -16 -232t-55 -150q-103 -170 -344 -170q-58 0 -129 14z" />
    <glyph glyph-name="K" unicode="K" horiz-adv-x="1235" 
d="M148 0v1365h293v-516l406 516h327l-465 -563l503 -802h-328l-360 576l-83 -100v-476h-293z" />
    <glyph glyph-name="L" unicode="L" horiz-adv-x="1053" 
d="M148 0v1365h293v-1111h536v-254h-829z" />
    <glyph glyph-name="M" unicode="M" horiz-adv-x="1567" 
d="M148 0v1365h397l243 -935l237 935h394v-1365h-281v949l-233 -949h-238l-238 937v-937h-281z" />
    <glyph glyph-name="N" unicode="N" horiz-adv-x="1301" 
d="M148 0v1365l296 1l428 -879v878h281v-1365h-293l-431 877v-877h-281z" />
    <glyph glyph-name="O" unicode="O" horiz-adv-x="1332" 
d="M669 1396q243 0 400 -176q179 -199 179 -538q0 -290 -135 -485q-80 -115 -202 -176q-109 -54 -242 -54q-290 0 -453 235q-132 190 -132 490q0 326 171 520q162 184 414 184zM667 1146q-136 0 -210 -127q-80 -138 -80 -329q0 -210 79 -346q33 -57 92 -92t122 -35
q60 0 113.5 31.5t86.5 86.5q85 141 85 351q0 198 -78 333q-74 127 -210 127z" />
    <glyph glyph-name="P" unicode="P" horiz-adv-x="1144" 
d="M148 0v1365h433q162 0 247 -30q125 -46 194 -159q59 -98 59 -238q0 -235 -167 -360q-116 -88 -328 -88h-145v-490h-293zM441 728h142q117 0 162 55q43 53 43 141q0 100 -61 151q-47 40 -158 40h-128v-387z" />
    <glyph glyph-name="Q" unicode="Q" horiz-adv-x="1332" 
d="M1222 15l-140 -138l-159 168q-130 -78 -270 -78q-179 0 -324 115q-245 193 -245 601q0 332 171 529q160 184 413 184q245 0 401 -176q179 -201 179 -537q0 -159 -42 -279.5t-135 -231.5zM734 525l156 -163q65 145 65 321q0 199 -78 336q-72 127 -210 127
q-136 0 -210 -127q-80 -137 -80 -335q0 -209 79 -350q33 -59 92 -95t123 -36q39 0 86 19l-159 169z" />
    <glyph glyph-name="R" unicode="R" horiz-adv-x="1268" 
d="M148 0v1365h525q206 0 319 -90q129 -103 129 -291q0 -117 -50.5 -204.5t-145.5 -134.5q86 -30 129 -104q27 -45 38 -108.5t23 -238.5q6 -80 15 -117.5t32 -76.5h-302q-15 36 -19 64.5t-15 189.5q-8 101 -23.5 154.5t-45.5 84.5q-43 43 -148 43h-168v-536h-293zM441 757
h161q133 0 183 56q43 49 43 136q0 95 -53 139t-167 44h-167v-375z" />
    <glyph glyph-name="S" unicode="S" horiz-adv-x="1086" 
d="M63 399h295q12 -80 37 -119q52 -80 150 -80q79 0 128 47t49 123q0 79 -67 134q-28 23 -57.5 36.5t-124.5 47.5q-168 59 -243 118q-149 118 -149 309q0 164 104 267q116 114 321 114q197 0 317 -101t146 -290h-286q-10 79 -50 115q-48 42 -129 42q-72 0 -112.5 -36.5
t-40.5 -101.5q0 -72 53.5 -114t212.5 -94q173 -56 268 -131q138 -110 138 -296t-128 -302q-133 -120 -355 -120q-265 0 -395 199q-66 102 -82 233z" />
    <glyph glyph-name="T" unicode="T" horiz-adv-x="1066" 
d="M386 0v1115h-331v250h957v-250h-333v-1115h-293z" />
    <glyph glyph-name="U" unicode="U" horiz-adv-x="1269" 
d="M127 1365h281v-795q0 -195 54 -272q58 -81 178 -81q130 0 177 111q33 76 33 243v794h293v-779q0 -184 -26 -279q-45 -163 -162 -252q-116 -88 -321 -88q-294 0 -421 198q-47 74 -66.5 170t-19.5 255v775z" />
    <glyph glyph-name="V" unicode="V" horiz-adv-x="1090" 
d="M706 0h-326l-373 1365h308l235 -984l235 984h299z" />
    <glyph glyph-name="W" unicode="W" horiz-adv-x="1561" 
d="M10 1365h294l162 -936l176 936h279l174 -938l165 938h292l-308 -1365h-293l-172 927l-169 -927h-296z" />
    <glyph glyph-name="X" unicode="X" horiz-adv-x="1120" 
d="M29 1365h332l204 -415l207 415h316l-365 -651l399 -714h-339l-227 450l-233 -450h-325l402 714z" />
    <glyph glyph-name="Y" unicode="Y" horiz-adv-x="1153" 
d="M7 1365h326l246 -540l246 540h321l-423 -837v-528h-293v532z" />
    <glyph glyph-name="Z" unicode="Z" horiz-adv-x="1096" 
d="M52 0v238l613 877h-569v250h924v-222l-620 -889h638v-254h-986z" />
    <glyph glyph-name="bracketleft" unicode="[" horiz-adv-x="644" 
d="M555 1365v-197h-203v-1326h203v-197h-433v1720h433z" />
    <glyph glyph-name="backslash" unicode="\" horiz-adv-x="821" 
d="M619 -355l-525 1720h222l529 -1720h-226z" />
    <glyph glyph-name="bracketright" unicode="]" horiz-adv-x="644" 
d="M89 1365h433v-1720h-433v197h203v1326h-203v197z" />
    <glyph glyph-name="asciicircum" unicode="^" horiz-adv-x="1062" 
d="M320 718h-270l311 655h339l311 -655h-270l-210 449z" />
    <glyph glyph-name="underscore" unicode="_" horiz-adv-x="1068" 
d="M63 -109h942v-187h-942v187z" />
    <glyph glyph-name="grave" unicode="`" horiz-adv-x="1013" 
d="M223 1365h234l194 -273h-217z" />
    <glyph glyph-name="a" unicode="a" horiz-adv-x="1033" 
d="M1010 189v-177q-56 -24 -120 -24q-129 0 -195 102q-49 -48 -90 -71q-87 -48 -214 -48q-145 0 -231 64q-104 77 -104 212q0 149 117 233q69 50 163.5 68t308.5 24v76q0 147 -134 147q-122 0 -134 -127h-284q9 144 110 222q105 81 287 81q261 0 371 -108q45 -44 59 -98.5
t14 -189.5v-315q0 -46 9.5 -63.5t34.5 -17.5q10 0 32 10zM645 429q-111 -5 -171 -19q-65 -16 -101 -53t-36 -89q0 -49 28.5 -76.5t78.5 -27.5q105 0 163 87q38 57 38 128v50z" />
    <glyph glyph-name="b" unicode="b" horiz-adv-x="1077" 
d="M94 0v1365h281v-502q104 108 258 108q84 0 162 -35.5t133 -98.5q112 -130 112 -356q0 -209 -97 -347q-113 -163 -308 -163q-155 0 -249 108v-79h-292zM565 758q-81 0 -130 -77t-49 -204q0 -119 38 -196q48 -97 143 -97q78 0 126.5 80t48.5 209q0 131 -50 210
q-47 75 -127 75z" />
    <glyph glyph-name="c" unicode="c" horiz-adv-x="976" 
d="M952 611l-292 -1q-28 164 -153 164q-90 0 -139 -82q-50 -84 -50 -224t49 -220t135 -80q68 0 110.5 50.5t54.5 143.5h286q-18 -143 -95 -238q-124 -153 -350 -153q-205 0 -332 125q-139 138 -139 369q0 246 150 386q127 120 327 120q187 0 304.5 -96.5t133.5 -263.5z" />
    <glyph glyph-name="d" unicode="d" horiz-adv-x="1077" 
d="M983 0h-292v79q-94 -108 -249 -108q-195 0 -309 163q-96 138 -96 347q0 226 112 356q54 62 131 98q79 36 164 36q154 0 258 -108v502h281v-1365zM504 758q-85 0 -133 -75q-53 -80 -53 -205q0 -114 41 -196q48 -98 144 -98q86 0 137 78.5t51 210.5q0 128 -49 205
q-52 80 -138 80z" />
    <glyph glyph-name="e" unicode="e" horiz-adv-x="994" 
d="M960 403h-626q12 -243 177 -243q101 0 143 100h282q-20 -75 -74 -140q-122 -149 -347 -149q-215 0 -343 129q-135 137 -135 366q0 212 123 353q132 152 343 152q168 0 285 -101q85 -74 126 -184.5t46 -282.5zM663 571q-6 65 -25 110q-43 102 -137 102q-68 0 -112 -56.5
t-54 -155.5h328z" />
    <glyph glyph-name="f" unicode="f" horiz-adv-x="607" 
d="M149 0v758h-137v184h137v84q0 110 14.5 170t52.5 104q83 97 271 97q6 0 121 -7v-204q-48 6 -80 6q-59 0 -78.5 -28t-19.5 -114v-108h166v-184h-166v-758h-281z" />
    <glyph glyph-name="g" unicode="g" horiz-adv-x="1054" 
d="M62 -110h298q8 -41 38 -58.5t92 -17.5q106 0 149.5 60.5t43.5 209.5v42q-93 -110 -246 -110q-179 0 -288 121q-113 126 -113 350q0 223 113 353q114 131 295 131q150 0 239 -113v84h276v-807q0 -131 -17.5 -208.5t-60.5 -136.5q-117 -159 -378 -159q-196 0 -307.5 65.5
t-133.5 193.5zM499 766q-84 0 -131 -71q-51 -76 -51 -196q0 -130 49 -208t131 -78q86 0 138 77t52 205q0 124 -50 195q-52 76 -138 76z" />
    <glyph glyph-name="h" unicode="h" 
d="M95 0v1365h281v-510q105 116 265 116q188 0 275 -126q54 -78 54 -244v-601h-281v557q0 99 -22 138q-35 63 -115 63q-105 0 -152 -101q-24 -52 -24 -193v-464h-281z" />
    <glyph glyph-name="i" unicode="i" horiz-adv-x="540" 
d="M113 1092v273h298v-273h-298zM121 0v942h281v-942h-281z" />
    <glyph glyph-name="j" unicode="j" horiz-adv-x="529" 
d="M-26 -347v213q47 -4 61 -4q58 0 75 28t17 124v928h281v-965q0 -187 -84 -264q-75 -68 -233 -68q-48 0 -117 8zM118 1092v273h298v-273h-298z" />
    <glyph glyph-name="k" unicode="k" horiz-adv-x="1011" 
d="M97 0v1365h281v-703l274 280h326l-368 -367l399 -575h-323l-262 390l-46 -45v-345h-281z" />
    <glyph glyph-name="l" unicode="l" horiz-adv-x="545" 
d="M132 0v1365h281v-1365h-281z" />
    <glyph glyph-name="m" unicode="m" horiz-adv-x="1535" 
d="M76 0v942h281v-88q96 117 253 117q86 0 150 -35t97 -99q100 134 286 134q154 0 238 -87t84 -247v-637h-281v565q0 85 -15 123q-27 70 -107 70q-98 0 -136 -98q-16 -42 -16 -146v-514h-281v577q0 77 -15 116q-25 65 -100 65q-157 0 -157 -244v-514h-281z" />
    <glyph glyph-name="n" unicode="n" 
d="M95 0v942h283v-87q99 116 262 116q189 0 276 -126q54 -78 54 -244v-601h-281v557q0 98 -22 138q-35 63 -115 63q-104 0 -151 -101q-25 -52 -25 -193v-464h-281z" />
    <glyph glyph-name="o" unicode="o" horiz-adv-x="1022" 
d="M513 971q212 0 342 -133q134 -135 134 -373q0 -231 -142 -369q-129 -125 -335 -125q-219 0 -350 140q-129 137 -129 361q0 219 125 353q136 146 355 146zM501 774q-86 0 -136.5 -81.5t-50.5 -220.5q0 -141 49 -221q50 -83 141 -83q86 0 134 76q53 84 53 224t-47 219
q-51 87 -143 87z" />
    <glyph glyph-name="p" unicode="p" horiz-adv-x="1077" 
d="M94 942h292v-79q95 108 249 108q195 0 308 -163q97 -138 97 -347q0 -226 -112 -356q-54 -62 -131 -97q-79 -37 -164 -37q-154 0 -258 108v-434h-281v1297zM566 758q-82 0 -131 -78t-49 -208q0 -129 47 -208q48 -80 132 -80q81 0 127 75q50 81 50 210q0 110 -39 191
q-48 98 -137 98z" />
    <glyph glyph-name="q" unicode="q" horiz-adv-x="1077" 
d="M702 -355v434q-104 -108 -258 -108q-84 0 -162 35.5t-133 98.5q-112 130 -112 357q0 208 96 346q114 163 309 163q154 0 249 -108v79h292v-1297h-281zM503 758q-95 0 -144 -98q-41 -82 -41 -189q0 -132 53 -212q48 -75 133 -75t136 77.5t51 207.5q0 116 -40 192
q-51 97 -148 97z" />
    <glyph glyph-name="r" unicode="r" horiz-adv-x="711" 
d="M95 0v942h281v-120q99 149 252 149q36 0 74 -9v-244q-59 15 -100 15q-138 0 -195 -121q-31 -66 -31 -216v-396h-281z" />
    <glyph glyph-name="s" unicode="s" horiz-adv-x="941" 
d="M59 284h275q18 -131 147 -131q56 0 89 26.5t33 71.5q0 63 -74 101q-30 17 -130 49q-168 54 -222 93q-109 77 -109 196q0 62 28.5 119t77.5 91q100 71 267 71q224 0 334 -131q50 -60 66 -144h-277q-27 91 -114 91q-44 0 -69.5 -22.5t-25.5 -60.5q0 -56 68 -90
q29 -15 161 -54q123 -37 192 -86q106 -75 106 -206q0 -136 -106.5 -216.5t-286.5 -80.5q-130 0 -217.5 35.5t-145.5 112.5q-55 73 -67 165z" />
    <glyph glyph-name="t" unicode="t" horiz-adv-x="639" 
d="M11 766v176h149v61l189 252h92v-313h181v-176h-181v-446q0 -86 18.5 -113t77.5 -27q33 0 75 14v-201q-87 -18 -169 -18q-175 0 -239 91q-27 38 -35.5 88t-8.5 176v436h-149z" />
    <glyph glyph-name="u" unicode="u" 
d="M964 942v-942h-284v87q-98 -116 -261 -116q-190 0 -276 126q-54 78 -54 244v601h281v-557q0 -98 22 -138q35 -63 114 -63q104 0 151 101q24 53 24 193v464h283z" />
    <glyph glyph-name="v" unicode="v" horiz-adv-x="999" 
d="M665 1l-326 -1l-302 942h310l159 -600l158 600h298z" />
    <glyph glyph-name="w" unicode="w" horiz-adv-x="1510" 
d="M636 1l-306 -1l-279 942h312l133 -592l119 592h290l122 -588l133 588h300l-271 -941l-305 -1l-127 582z" />
    <glyph glyph-name="x" unicode="x" horiz-adv-x="1072" 
d="M79 942h330l128 -221l126 221h323l-288 -439l324 -503l-332 -1l-156 274l-155 -273h-328l318 497z" />
    <glyph glyph-name="y" unicode="y" 
d="M51 942h316l171 -606l165 606l306 -1l-321 -956q-41 -121 -78.5 -184t-87.5 -97q-88 -59 -243 -59q-64 0 -127 10v215q52 -12 92 -12q128 0 128 112q0 41 -18 93z" />
    <glyph glyph-name="z" unicode="z" horiz-adv-x="883" 
d="M23 0v194l453 545h-418v203h778v-187l-465 -552h496v-203h-844z" />
    <glyph glyph-name="braceleft" unicode="{" horiz-adv-x="609" 
d="M558 1365v-197h-54q-92 0 -121 -30t-29 -126v-269q0 -96 -25.5 -146.5t-94.5 -92.5q68 -40 94 -92.5t26 -149.5v-262q0 -68 9.5 -97t35.5 -43q35 -19 105 -18h54v-197h-83q-186 -2 -256 49q-50 36 -72.5 92t-22.5 148v318q0 83 -25.5 123.5t-88.5 54.5v162q61 14 87.5 52
t26.5 112v331q0 166 97 231q72 49 254 47h83z" />
    <glyph glyph-name="bar" unicode="|" horiz-adv-x="1258" 
d="M476 1365h307v-1706h-307v1706z" />
    <glyph glyph-name="braceright" unicode="}" horiz-adv-x="609" 
d="M52 -355v197h53q92 -1 121 29.5t29 128.5v262q0 97 26.5 150t93.5 92q-69 42 -94.5 92.5t-25.5 146.5v269q0 62 -7.5 88.5t-28.5 43.5q-31 24 -114 24h-53v197h83q181 2 253 -47q97 -64 97 -231v-331q0 -74 26.5 -112t88.5 -52v-162q-63 -14 -89 -54.5t-26 -123.5v-318
q0 -92 -22.5 -148t-72.5 -92q-70 -51 -255 -49h-83z" />
    <glyph glyph-name="asciitilde" unicode="~" horiz-adv-x="1497" 
d="M405 1131l-149 124q40 98 87 161q89 118 216 118q47 0 95 -16t196 -80q59 -26 102 -26q76 0 145 127l149 -124q-48 -112 -94 -169q-88 -112 -211 -112q-38 0 -75.5 12.5t-200.5 81.5q-73 30 -116 30q-41 0 -72.5 -27.5t-71.5 -99.5z" />
    <glyph glyph-name="Adieresis" unicode="&#xc4;" horiz-adv-x="1179" 
d="M440 1365h300l432 -1365h-305l-85 305h-389l-86 -305h-300zM456 526h265l-132 471zM879 1712v-246h-238v246h238zM537 1712v-246h-237v246h237z" />
    <glyph glyph-name="Aring" unicode="&#xc5;" horiz-adv-x="1179" 
d="M440 1365h300l432 -1365h-305l-85 305h-389l-86 -305h-300zM456 526h265l-132 471zM591 1710q-37 0 -62 -26t-25 -63t24.5 -63t59.5 -26q36 0 61 26t25 63q0 36 -24.5 62.5t-58.5 26.5zM592 1816q81 0 140 -57t59 -138q0 -80 -59 -137t-143 -57q-85 0 -143 57
q-59 57 -59 137q0 81 59.5 138t145.5 57z" />
    <glyph glyph-name="Ccedilla" unicode="&#xc7;" horiz-adv-x="1249" 
d="M627 -32l-27 -72q24 10 53 10q87 0 140 -41.5t53 -108.5q0 -75 -57.5 -120.5t-152.5 -45.5q-77 0 -128.5 30.5t-59.5 80.5h130q8 -31 52 -31q66 0 66 79q0 78 -67 78q-37 0 -47 -27h-127l67 182q-112 25 -199 96q-115 93 -179 259q-60 154 -60 342q0 326 171 530
q157 187 408 187q269 0 419 -216q85 -123 96 -274l-290 -1q-13 80 -43 130q-64 111 -186 111q-136 0 -208 -129q-74 -134 -74 -335q0 -204 77 -340q70 -125 202 -125q103 0 161 76.5t76 235.5h293q-16 -217 -122 -363q-145 -199 -407 -199q-15 0 -30 1z" />
    <glyph glyph-name="Eacute" unicode="&#xc9;" horiz-adv-x="1139" 
d="M148 0v1365h871v-250h-578v-292h528v-238h-528v-335h590v-250h-883zM849 1720l-198 -246h-233l184 246h247z" />
    <glyph glyph-name="Ntilde" unicode="&#xd1;" horiz-adv-x="1301" 
d="M148 0v1365l296 1l428 -879v878h281v-1365h-293l-431 877v-877h-281zM959 1734q-38 -253 -204 -253q-26 0 -40 4.5t-74 31.5q-92 40 -107 40q-43 0 -59 -82h-134q1 10 2 15q15 103 70 169.5t125 66.5q44 0 118 -35q76 -35 106 -35q22 0 35.5 16t28.5 62h133z" />
    <glyph glyph-name="Odieresis" unicode="&#xd6;" horiz-adv-x="1332" 
d="M669 1396q243 0 400 -176q179 -199 179 -538q0 -290 -135 -485q-80 -115 -202 -176q-109 -54 -242 -54q-290 0 -453 235q-132 190 -132 490q0 326 171 520q162 184 414 184zM667 1146q-136 0 -210 -127q-80 -138 -80 -329q0 -210 79 -346q33 -57 92 -92t122 -35
q60 0 113.5 31.5t86.5 86.5q85 141 85 351q0 198 -78 333q-74 127 -210 127zM956 1712v-246h-238v246h238zM614 1712v-246h-237v246h237z" />
    <glyph glyph-name="Udieresis" unicode="&#xdc;" horiz-adv-x="1269" 
d="M127 1365h281v-795q0 -195 54 -272q58 -81 178 -81q130 0 177 111q33 76 33 243v794h293v-779q0 -184 -26 -279q-45 -163 -162 -252q-116 -88 -321 -88q-294 0 -421 198q-47 74 -66.5 170t-19.5 255v775zM919 1712v-246h-238v246h238zM577 1712v-246h-237v246h237z" />
    <glyph glyph-name="aacute" unicode="&#xe1;" horiz-adv-x="1033" 
d="M1010 189v-177q-56 -24 -120 -24q-129 0 -195 102q-49 -48 -90 -71q-87 -48 -214 -48q-145 0 -231 64q-104 77 -104 212q0 149 117 233q69 50 163.5 68t308.5 24v76q0 147 -134 147q-122 0 -134 -127h-284q9 144 110 222q105 81 287 81q261 0 371 -108q45 -44 59 -98.5
t14 -189.5v-315q0 -46 9.5 -63.5t34.5 -17.5q10 0 32 10zM645 429q-111 -5 -171 -19q-65 -16 -101 -53t-36 -89q0 -49 28.5 -76.5t78.5 -27.5q105 0 163 87q38 57 38 128v50zM818 1365l-211 -273h-217l194 273h234z" />
    <glyph glyph-name="agrave" unicode="&#xe0;" horiz-adv-x="1033" 
d="M1010 189v-177q-56 -24 -120 -24q-129 0 -195 102q-49 -48 -90 -71q-87 -48 -214 -48q-145 0 -231 64q-104 77 -104 212q0 149 117 233q69 50 163.5 68t308.5 24v76q0 147 -134 147q-122 0 -134 -127h-284q9 144 110 222q105 81 287 81q261 0 371 -108q45 -44 59 -98.5
t14 -189.5v-315q0 -46 9.5 -63.5t34.5 -17.5q10 0 32 10zM645 429q-111 -5 -171 -19q-65 -16 -101 -53t-36 -89q0 -49 28.5 -76.5t78.5 -27.5q105 0 163 87q38 57 38 128v50zM245 1365h234l194 -273h-217z" />
    <glyph glyph-name="acircumflex" unicode="&#xe2;" horiz-adv-x="1033" 
d="M1010 189v-177q-56 -24 -120 -24q-129 0 -195 102q-49 -48 -90 -71q-87 -48 -214 -48q-145 0 -231 64q-104 77 -104 212q0 149 117 233q69 50 163.5 68t308.5 24v76q0 147 -134 147q-122 0 -134 -127h-284q9 144 110 222q105 81 287 81q261 0 371 -108q45 -44 59 -98.5
t14 -189.5v-315q0 -46 9.5 -63.5t34.5 -17.5q10 0 32 10zM645 429q-111 -5 -171 -19q-65 -16 -101 -53t-36 -89q0 -49 28.5 -76.5t78.5 -27.5q105 0 163 87q38 57 38 128v50zM840 1092h-218l-100 147l-102 -147h-208l193 273h241z" />
    <glyph glyph-name="adieresis" unicode="&#xe4;" horiz-adv-x="1033" 
d="M1010 189v-177q-56 -24 -120 -24q-129 0 -195 102q-49 -48 -90 -71q-87 -48 -214 -48q-145 0 -231 64q-104 77 -104 212q0 149 117 233q69 50 163.5 68t308.5 24v76q0 147 -134 147q-122 0 -134 -127h-284q9 144 110 222q105 81 287 81q261 0 371 -108q45 -44 59 -98.5
t14 -189.5v-315q0 -46 9.5 -63.5t34.5 -17.5q10 0 32 10zM645 429q-111 -5 -171 -19q-65 -16 -101 -53t-36 -89q0 -49 28.5 -76.5t78.5 -27.5q105 0 163 87q38 57 38 128v50zM835 1324v-246h-253v246h253zM472 1324v-246h-251v246h251z" />
    <glyph glyph-name="atilde" unicode="&#xe3;" horiz-adv-x="1033" 
d="M1010 189v-177q-56 -24 -120 -24q-129 0 -195 102q-49 -48 -90 -71q-87 -48 -214 -48q-145 0 -231 64q-104 77 -104 212q0 149 117 233q69 50 163.5 68t308.5 24v76q0 147 -134 147q-122 0 -134 -127h-284q9 144 110 222q105 81 287 81q261 0 371 -108q45 -44 59 -98.5
t14 -189.5v-315q0 -46 9.5 -63.5t34.5 -17.5q10 0 32 10zM645 429q-111 -5 -171 -19q-65 -16 -101 -53t-36 -89q0 -49 28.5 -76.5t78.5 -27.5q105 0 163 87q38 57 38 128v50zM832 1359q-35 -254 -198 -254q-39 0 -69 11t-108 53q-27 15 -47 15q-42 0 -57 -85h-134
q16 120 68.5 188t130.5 68q46 0 117 -35q77 -39 105 -39q21 0 33 16.5t27 61.5h132z" />
    <glyph glyph-name="aring" unicode="&#xe5;" horiz-adv-x="1033" 
d="M1010 189v-177q-56 -24 -120 -24q-129 0 -195 102q-49 -48 -90 -71q-87 -48 -214 -48q-145 0 -231 64q-104 77 -104 212q0 149 117 233q69 50 163.5 68t308.5 24v76q0 147 -134 147q-122 0 -134 -127h-284q9 144 110 222q105 81 287 81q261 0 371 -108q45 -44 59 -98.5
t14 -189.5v-315q0 -46 9.5 -63.5t34.5 -17.5q10 0 32 10zM645 429q-111 -5 -171 -19q-65 -16 -101 -53t-36 -89q0 -49 28.5 -76.5t78.5 -27.5q105 0 163 87q38 57 38 128v50zM520 1349q-39 0 -65.5 -26t-26.5 -65q0 -38 26 -64t64 -26q37 0 63.5 26.5t26.5 63.5t-26 64
t-62 27zM522 1460q88 0 151 -58q64 -59 64 -144q0 -81 -63 -140q-64 -60 -155 -60q-92 0 -155 59q-64 59 -64 141q0 85 64.5 143.5t157.5 58.5z" />
    <glyph glyph-name="ccedilla" unicode="&#xe7;" horiz-adv-x="976" 
d="M503 -29l-30 -79q24 12 60 12q82 0 132.5 -41t50.5 -107q0 -75 -56.5 -120.5t-149.5 -45.5q-77 0 -128.5 30.5t-59.5 80.5h129q8 -31 52 -31q68 0 68 77q0 37 -18.5 58.5t-49.5 21.5q-38 0 -48 -27h-130l65 183q-88 18 -159 68q-194 136 -194 414q0 246 150 386
q127 120 327 120q187 0 304.5 -96.5t133.5 -263.5l-292 -1q-28 164 -153 164q-90 0 -139 -82q-50 -84 -50 -224t49 -220t135 -80q68 0 110.5 50.5t54.5 143.5h286q-23 -178 -137 -282q-118 -109 -313 -109z" />
    <glyph glyph-name="eacute" unicode="&#xe9;" horiz-adv-x="994" 
d="M960 403h-626q12 -243 177 -243q101 0 143 100h282q-20 -75 -74 -140q-122 -149 -347 -149q-215 0 -343 129q-135 137 -135 366q0 212 123 353q132 152 343 152q168 0 285 -101q85 -74 126 -184.5t46 -282.5zM663 571q-6 65 -25 110q-43 102 -137 102q-68 0 -112 -56.5
t-54 -155.5h328zM784 1365l-211 -273h-217l194 273h234z" />
    <glyph glyph-name="egrave" unicode="&#xe8;" horiz-adv-x="994" 
d="M960 403h-626q12 -243 177 -243q101 0 143 100h282q-20 -75 -74 -140q-122 -149 -347 -149q-215 0 -343 129q-135 137 -135 366q0 212 123 353q132 152 343 152q168 0 285 -101q85 -74 126 -184.5t46 -282.5zM663 571q-6 65 -25 110q-43 102 -137 102q-68 0 -112 -56.5
t-54 -155.5h328zM202 1365h234l194 -273h-217z" />
    <glyph glyph-name="ecircumflex" unicode="&#xea;" horiz-adv-x="994" 
d="M960 403h-626q12 -243 177 -243q101 0 143 100h282q-20 -75 -74 -140q-122 -149 -347 -149q-215 0 -343 129q-135 137 -135 366q0 212 123 353q132 152 343 152q168 0 285 -101q85 -74 126 -184.5t46 -282.5zM663 571q-6 65 -25 110q-43 102 -137 102q-68 0 -112 -56.5
t-54 -155.5h328zM813 1092h-218l-100 147l-102 -147h-208l193 273h241z" />
    <glyph glyph-name="edieresis" unicode="&#xeb;" horiz-adv-x="994" 
d="M960 403h-626q12 -243 177 -243q101 0 143 100h282q-20 -75 -74 -140q-122 -149 -347 -149q-215 0 -343 129q-135 137 -135 366q0 212 123 353q132 152 343 152q168 0 285 -101q85 -74 126 -184.5t46 -282.5zM663 571q-6 65 -25 110q-43 102 -137 102q-68 0 -112 -56.5
t-54 -155.5h328zM798 1324v-246h-253v246h253zM435 1324v-246h-251v246h251z" />
    <glyph glyph-name="iacute" unicode="&#xed;" horiz-adv-x="545" 
d="M132 0v942h281v-942h-281zM558 1365l-211 -273h-217l194 273h234z" />
    <glyph glyph-name="igrave" unicode="&#xec;" horiz-adv-x="545" 
d="M132 0v942h281v-942h-281zM-13 1365h234l194 -273h-217z" />
    <glyph glyph-name="icircumflex" unicode="&#xee;" horiz-adv-x="545" 
d="M132 0v942h281v-942h-281zM587 1092h-218l-100 147l-102 -147h-208l193 273h241z" />
    <glyph glyph-name="idieresis" unicode="&#xef;" horiz-adv-x="545" 
d="M132 0v942h281v-942h-281zM525 1324v-246h-198v246h198zM217 1324v-246h-196v246h196z" />
    <glyph glyph-name="ntilde" unicode="&#xf1;" 
d="M95 0v942h283v-87q99 116 262 116q189 0 276 -126q54 -78 54 -244v-601h-281v557q0 98 -22 138q-35 63 -115 63q-104 0 -151 -101q-25 -52 -25 -193v-464h-281zM839 1359q-35 -254 -198 -254q-39 0 -69 11t-108 53q-27 15 -47 15q-42 0 -57 -85h-134q16 120 68.5 188
t130.5 68q46 0 117 -35q77 -39 105 -39q21 0 33 16.5t27 61.5h132z" />
    <glyph glyph-name="oacute" unicode="&#xf3;" horiz-adv-x="1022" 
d="M513 971q212 0 342 -133q134 -135 134 -373q0 -231 -142 -369q-129 -125 -335 -125q-219 0 -350 140q-129 137 -129 361q0 219 125 353q136 146 355 146zM501 774q-86 0 -136.5 -81.5t-50.5 -220.5q0 -141 49 -221q50 -83 141 -83q86 0 134 76q53 84 53 224t-47 219
q-51 87 -143 87zM796 1365l-211 -273h-217l194 273h234z" />
    <glyph glyph-name="ograve" unicode="&#xf2;" horiz-adv-x="1022" 
d="M513 971q212 0 342 -133q134 -135 134 -373q0 -231 -142 -369q-129 -125 -335 -125q-219 0 -350 140q-129 137 -129 361q0 219 125 353q136 146 355 146zM501 774q-86 0 -136.5 -81.5t-50.5 -220.5q0 -141 49 -221q50 -83 141 -83q86 0 134 76q53 84 53 224t-47 219
q-51 87 -143 87zM226 1365h234l194 -273h-217z" />
    <glyph glyph-name="ocircumflex" unicode="&#xf4;" horiz-adv-x="1022" 
d="M513 971q212 0 342 -133q134 -135 134 -373q0 -231 -142 -369q-129 -125 -335 -125q-219 0 -350 140q-129 137 -129 361q0 219 125 353q136 146 355 146zM501 774q-86 0 -136.5 -81.5t-50.5 -220.5q0 -141 49 -221q50 -83 141 -83q86 0 134 76q53 84 53 224t-47 219
q-51 87 -143 87zM825 1092h-218l-100 147l-102 -147h-208l193 273h241z" />
    <glyph glyph-name="odieresis" unicode="&#xf6;" horiz-adv-x="1022" 
d="M513 971q212 0 342 -133q134 -135 134 -373q0 -231 -142 -369q-129 -125 -335 -125q-219 0 -350 140q-129 137 -129 361q0 219 125 353q136 146 355 146zM501 774q-86 0 -136.5 -81.5t-50.5 -220.5q0 -141 49 -221q50 -83 141 -83q86 0 134 76q53 84 53 224t-47 219
q-51 87 -143 87zM818 1324v-246h-253v246h253zM455 1324v-246h-251v246h251z" />
    <glyph glyph-name="otilde" unicode="&#xf5;" horiz-adv-x="1022" 
d="M513 971q212 0 342 -133q134 -135 134 -373q0 -231 -142 -369q-129 -125 -335 -125q-219 0 -350 140q-129 137 -129 361q0 219 125 353q136 146 355 146zM501 774q-86 0 -136.5 -81.5t-50.5 -220.5q0 -141 49 -221q50 -83 141 -83q86 0 134 76q53 84 53 224t-47 219
q-51 87 -143 87zM817 1359q-35 -254 -198 -254q-39 0 -69 11t-108 53q-27 15 -47 15q-42 0 -57 -85h-134q16 120 68.5 188t130.5 68q46 0 117 -35q77 -39 105 -39q21 0 33 16.5t27 61.5h132z" />
    <glyph glyph-name="uacute" unicode="&#xfa;" 
d="M964 942v-942h-284v87q-98 -116 -261 -116q-190 0 -276 126q-54 78 -54 244v601h281v-557q0 -98 22 -138q35 -63 114 -63q104 0 151 101q24 53 24 193v464h283zM812 1365l-211 -273h-217l194 273h234z" />
    <glyph glyph-name="ugrave" unicode="&#xf9;" 
d="M964 942v-942h-284v87q-98 -116 -261 -116q-190 0 -276 126q-54 78 -54 244v601h281v-557q0 -98 22 -138q35 -63 114 -63q104 0 151 101q24 53 24 193v464h283zM241 1365h234l194 -273h-217z" />
    <glyph glyph-name="ucircumflex" unicode="&#xfb;" 
d="M964 942v-942h-284v87q-98 -116 -261 -116q-190 0 -276 126q-54 78 -54 244v601h281v-557q0 -98 22 -138q35 -63 114 -63q104 0 151 101q24 53 24 193v464h283zM841 1092h-218l-100 147l-102 -147h-208l193 273h241z" />
    <glyph glyph-name="udieresis" unicode="&#xfc;" 
d="M964 942v-942h-284v87q-98 -116 -261 -116q-190 0 -276 126q-54 78 -54 244v601h281v-557q0 -98 22 -138q35 -63 114 -63q104 0 151 101q24 53 24 193v464h283zM834 1324v-246h-253v246h253zM471 1324v-246h-251v246h251z" />
    <glyph glyph-name="dagger" unicode="&#x2020;" horiz-adv-x="1060" 
d="M946 992v-236h-298v-1106h-240v1106h-294v236h294v373h240v-373h298z" />
    <glyph glyph-name="degree" unicode="&#xb0;" horiz-adv-x="1158" 
d="M581 1375q136 0 232 -101q87 -91 87 -224q0 -132 -96 -226q-93 -92 -223 -92q-143 0 -239 105q-83 91 -83 216q0 151 109 243q94 79 213 79zM578 1229q-64 0 -111 -46q-56 -55 -56 -129q0 -73 49.5 -124.5t119.5 -51.5q68 0 118.5 51t50.5 120q0 76 -49.5 128t-121.5 52z
" />
    <glyph glyph-name="cent" unicode="&#xa2;" horiz-adv-x="1012" 
d="M587 997v-614q98 44 116 198h257q-23 -178 -134 -283q-91 -86 -239 -105v-152h-132v153q-116 16 -199 75q-188 137 -188 416q0 209 104 343.5t283 156.5v139h132v-139q164 -21 260.5 -113.5t110.5 -241.5l-262 -1q-21 131 -109 168zM455 988q-133 -73 -133 -300
q0 -115 32 -187.5t101 -111.5v599z" />
    <glyph glyph-name="sterling" unicode="&#xa3;" horiz-adv-x="953" 
d="M33 533v199h147q-11 17 -33 48q-89 131 -89 261q0 161 125 262q109 89 278 89q262 0 360 -181q46 -86 49 -198h-253q-5 146 -155 146q-70 0 -107 -39q-39 -43 -39 -104q0 -75 77 -189q43 -64 62 -95h285v-199h-237q-8 -89 -38.5 -146.5t-140.5 -189.5q91 63 138 63
q29 0 81 -40q30 -23 58 -23q80 0 91 120h216q-9 -153 -64 -239q-68 -107 -197 -107q-68 0 -156 43q-69 33 -132 33q-55 0 -92.5 -13t-117.5 -61l-107 172q212 144 212 333q0 22 -4 55h-217z" />
    <glyph glyph-name="section" unicode="&#xa7;" horiz-adv-x="1067" 
d="M888 1047h-225q-8 151 -119 151q-51 0 -82 -33.5t-31 -88.5q0 -51 27.5 -82.5t121.5 -86.5q242 -142 311 -210q84 -81 84 -213q0 -101 -43.5 -175.5t-128.5 -118.5q89 -96 89 -218q0 -151 -105 -248q-101 -93 -262 -93q-167 0 -261 98t-93 271h224q1 -5 2 -13
q13 -150 122 -150q53 0 85.5 38t32.5 101q0 52 -34 95q-41 50 -228 161q-182 109 -231 186q-53 84 -53 187q0 99 46 171t129 104q-70 83 -70 193q0 131 85 220q99 103 263 103q154 0 247.5 -95t96.5 -254zM386 753q-73 -30 -73 -123q0 -40 15.5 -66.5t57.5 -58.5
q61 -47 170 -116q46 -29 60 -40q40 -29 61 -39q32 15 53 54t21 84q0 43 -18 70t-69 60q-16 10 -59 40q-50 34 -150 94q-53 33 -69 41z" />
    <glyph glyph-name="bullet" unicode="&#x2022;" horiz-adv-x="740" 
d="M173 521v394h395v-394h-395z" />
    <glyph glyph-name="paragraph" unicode="&#xb6;" horiz-adv-x="1244" 
d="M399 -197v848q-91 1 -141 19q-97 35 -154 130q-49 84 -49 206q0 209 155 304q89 54 263 54h571v-154h-117v-1407h-203v1407h-122v-1407h-203z" />
    <glyph glyph-name="germandbls" unicode="&#xdf;" horiz-adv-x="1080" 
d="M405 0h-281v758h-132v184h132q2 149 28 218q48 131 186 192q102 45 218 45q158 0 274 -86q110 -81 110 -209q0 -90 -73 -182q-38 -47 -51 -74t-13 -57q0 -38 20 -69t78 -84q139 -128 139 -278q0 -118 -79 -220q-123 -158 -368 -158q-51 0 -105 8v221q37 -10 69 -10
q95 0 150 48.5t55 131.5q0 60 -24 103.5t-92 104.5q-70 64 -94 102t-24 86q0 73 71 167q61 82 61 143q0 50 -33 82t-84 32q-77 0 -116 -78q-22 -45 -22 -184v-937z" />
    <glyph glyph-name="registered" unicode="&#xae;" horiz-adv-x="1472" 
d="M743 1254q-212 0 -358 -164q-68 -75 -107 -178q-43 -112 -43 -231q0 -111 38.5 -217t107.5 -186q145 -167 353 -167q212 0 359 171q143 166 143 399q0 238 -146 406q-64 73 -143 114q-99 53 -204 53zM745 1386q181 0 338 -113q144 -104 222 -273q68 -151 68 -319
q0 -285 -183 -491q-186 -210 -456 -210q-265 0 -449 205q-85 94 -134 218q-53 135 -53 277q0 204 99 379q92 162 249 250q138 77 299 77zM432 273v819h323q126 0 197 -55q81 -64 81 -180q0 -126 -97 -195q50 -30 67 -78t27 -184q3 -52 8.5 -69.5t29.5 -57.5h-211
q-13 30 -16 47t-8 112q-5 88 -29 119.5t-87 31.5h-85v-310h-200zM632 739h81q63 0 91.5 23.5t28.5 74.5q0 49 -27 70.5t-89 21.5h-85v-190z" />
    <glyph glyph-name="copyright" unicode="&#xa9;" horiz-adv-x="1472" 
d="M869 607h199q-7 -99 -35 -162q-85 -191 -293 -191q-152 0 -243 104q-108 125 -108 323q0 194 104 317q97 113 252 113q134 0 222 -86.5t96 -225.5l-197 -1q-24 141 -124 141q-73 0 -111 -68q-42 -75 -42 -188q0 -117 41 -187t109 -70q58 0 88.5 43t41.5 138zM743 1254
q-212 0 -358 -164q-68 -75 -107 -178q-43 -112 -43 -231q0 -112 38.5 -217.5t107.5 -185.5q145 -167 353 -167q212 0 359 171q143 166 143 399q0 238 -146 406q-63 73 -143 114q-100 53 -204 53zM745 1386q181 0 338 -113q144 -104 222 -273q68 -151 68 -319
q0 -285 -183 -491q-186 -210 -456 -210q-265 0 -449 205q-85 94 -134 218q-53 135 -53 277q0 204 99 379q92 162 249 250q138 77 299 77z" />
    <glyph glyph-name="trademark" unicode="&#x2122;" horiz-adv-x="1517" 
d="M213 546v647h-195v172h592v-172h-197v-647h-200zM666 546v819h258l133 -502l129 502h257v-819h-193v453l-113 -453h-162l-116 450v-450h-193z" />
    <glyph glyph-name="acute" unicode="&#xb4;" horiz-adv-x="1013" 
d="M798 1365l-211 -273h-217l194 273h234z" />
    <glyph glyph-name="dieresis" unicode="&#xa8;" horiz-adv-x="1013" 
d="M818 1324v-246h-253v246h253zM455 1324v-246h-251v246h251z" />
    <glyph glyph-name="notequal" unicode="&#x2260;" horiz-adv-x="1068" 
d="M379 235l-161 93l56 97h-211v187h319l89 155h-408v187h516l110 190l162 -93l-56 -97h210v-187h-318l-89 -155h407v-187h-515z" />
    <glyph glyph-name="AE" unicode="&#xc6;" horiz-adv-x="1656" 
d="M733 305h-331l-114 -305h-287l545 1365h990v-250h-537v-292h487v-238h-487v-335h549v-250h-815v305zM733 526v596h-24l-224 -596h248z" />
    <glyph glyph-name="Oslash" unicode="&#xd8;" horiz-adv-x="1332" 
d="M340 -33h-206l115 192q-165 198 -165 523q0 334 171 531q160 184 412 184q154 0 282 -76l46 76h203l-115 -192q165 -201 165 -523q0 -290 -135 -485q-80 -115 -202 -175q-109 -55 -243 -55q-153 0 -283 75zM806 1101q-64 46 -138 46q-137 0 -211 -127q-80 -138 -80 -335
q0 -136 42 -259zM529 265q71 -48 140 -48q60 0 114 31.5t87 86.5q85 140 85 352q0 135 -41 250z" />
    <glyph glyph-name="infinity" unicode="&#x221e;" horiz-adv-x="1406" 
d="M707 564q-48 -59 -88 -96q-105 -96 -243 -96q-144 0 -236 98q-84 89 -84 228q0 142 91 231q91 90 228 90q177 0 323 -191q146 190 331 190q153 0 245 -106q75 -87 75 -217q0 -141 -88 -230q-91 -92 -231 -92q-93 0 -168 44.5t-155 146.5zM802 696q97 -144 199 -144
q60 0 100.5 41t40.5 102t-41 102t-101 41q-101 0 -198 -142zM603 695q-53 79 -99 112t-102 33q-61 0 -100 -40.5t-39 -104.5q0 -62 40 -102.5t101 -40.5q55 0 101 33t98 110z" />
    <glyph glyph-name="plusminus" unicode="&#xb1;" horiz-adv-x="1068" 
d="M63 870h374v347h195v-347h373v-187h-373v-348h-195v348h-374v187zM63 187h942v-187h-942v187z" />
    <glyph glyph-name="lessequal" unicode="&#x2264;" horiz-adv-x="1084" 
d="M985 1250v-285l-554 -180l554 -178v-285l-887 337v256zM985 267v-267h-887v267h887z" />
    <glyph glyph-name="greaterequal" unicode="&#x2265;" horiz-adv-x="1084" 
d="M98 1251l887 -336v-256l-887 -337v285l554 179l-554 180v285zM98 267h887v-267h-887v267z" />
    <glyph glyph-name="yen" unicode="&#xa5;" horiz-adv-x="1199" 
d="M734 0h-268v227h-292v177h292v96h-292v177h292l-350 688h307l180 -396l180 396h301l-348 -688h289v-177h-291v-96h291v-177h-291v-227z" />
    <glyph glyph-name="mu" unicode="&#xb5;" horiz-adv-x="1074" 
d="M402 -28v-327h-281v1297h281v-557q0 -98 19 -138q29 -63 96 -63q89 0 128 101q21 53 21 193v464h281v-942h-271v87q-93 -116 -244 -116q-8 0 -30 1z" />
    <glyph glyph-name="partialdiff" unicode="&#x2202;" horiz-adv-x="1038" 
d="M316 1297l132 97q138 -81 263 -229q112 -132 182 -311q77 -197 77 -386q0 -235 -134 -372q-122 -125 -316 -125q-206 0 -330 140q-122 136 -122 361q0 217 118 353q126 146 332 146q26 0 52 -9q-96 203 -254 335zM518 774q-78 0 -123.5 -81.5t-45.5 -220.5
q0 -140 44 -221q45 -83 127 -83q78 0 123.5 81t45.5 219q0 140 -43 219q-46 87 -128 87z" />
    <glyph glyph-name="summation" unicode="&#x2211;" horiz-adv-x="1428" 
d="M1300 1536v-520h-261l-31 254h-585l496 -726l-494 -790h602l17 263h275v-529h-1220v306l478 750l-478 686v306h1201z" />
    <glyph glyph-name="product" unicode="&#x220f;" horiz-adv-x="1408" 
d="M61 1536h1287v-232h-148v-1584h148v-232h-541v232h134v1584h-473v-1584h131v-232h-538v232h150v1584h-150v232z" />
    <glyph glyph-name="_002" horiz-adv-x="410" 
 />
    <glyph glyph-name="integral" unicode="&#x222b;" horiz-adv-x="1103" 
d="M138 -491l49 273q50 -20 86 -20q39 0 69.5 18t41.5 48q8 22 10 57.5t2 165.5v869q0 178 4 248t17 122q29 114 129.5 180t244.5 66q61 0 173 -21l-49 -273q-51 20 -89 20q-73 0 -102 -54q-18 -33 -18 -141v-1044q0 -205 -19 -283q-27 -107 -130 -179q-100 -71 -288 -71
q-55 0 -108 14q-13 3 -23 5z" />
    <glyph glyph-name="ordfeminine" unicode="&#xaa;" horiz-adv-x="605" 
d="M597 692v-127q-41 -26 -82 -26q-67 0 -109 52q-67 -61 -167 -61q-85 0 -137 40q-63 49 -63 133q0 62 37 109t101 65q59 17 190 22v37q0 72 -62 72q-58 0 -63 -60h-185q8 189 248 189q141 0 205 -67q28 -28 36.5 -61.5t8.5 -115.5v-182q0 -33 14 -33q10 0 28 14zM367 795
q-76 -6 -105.5 -23.5t-29.5 -56.5q0 -46 43 -46q38 0 65 32.5t27 78.5v15z" />
    <glyph glyph-name="ordmasculine" unicode="&#xba;" horiz-adv-x="612" 
d="M307 1137q124 0 201 -81q78 -83 78 -227q0 -139 -83 -223q-76 -77 -196 -77q-128 0 -206 86q-75 83 -75 218q0 133 73 215q80 89 208 89zM305 996q-39 0 -62.5 -44t-23.5 -119q0 -76 23.5 -119.5t64.5 -43.5q39 0 62.5 43.5t23.5 118.5q0 77 -23.5 120.5t-64.5 43.5z" />
    <glyph glyph-name="Omega" unicode="&#x2126;" horiz-adv-x="1332" 
d="M94 0v251h207q-217 181 -217 496q0 281 176 471q165 178 403 178q245 0 412 -181q172 -186 172 -468q0 -316 -217 -496h207v-251h-496v232q88 57 137 148q76 141 76 320q0 186 -82 317q-79 127 -203 127q-129 0 -211 -127q-81 -127 -81 -318q0 -163 54.5 -282t158.5 -185
v-232h-496z" />
    <glyph glyph-name="ae" unicode="&#xe6;" horiz-adv-x="1531" 
d="M1518 409h-626q11 -249 178 -249q100 0 143 100h281q-22 -77 -74 -140q-123 -149 -340 -149q-237 0 -353 199q-37 -54 -72 -89q-111 -110 -291 -110q-138 0 -224 64q-104 77 -104 213q0 147 117 232q69 49 163.5 67.5t308.5 24.5v76q0 147 -134 147q-123 0 -135 -126
h-283q9 145 117 223.5t297 78.5q105 0 176 -28.5t128 -93.5q114 122 279 122q157 0 275 -100q86 -73 126.5 -181.5t46.5 -280.5zM625 429q-110 -5 -171 -19q-137 -33 -137 -142q0 -48 28.5 -76t78.5 -28q105 0 163 88q38 57 38 127v50zM1220 570q-6 65 -25 110
q-19 48 -56 75t-81 27q-68 0 -112 -56.5t-53 -155.5h327z" />
    <glyph glyph-name="oslash" unicode="&#xf8;" horiz-adv-x="1022" 
d="M228 -29h-193l114 154q-116 139 -116 348q0 216 125 352q134 146 356 146q131 0 240 -57l44 57h189l-113 -153q115 -136 115 -346q0 -238 -142 -375q-129 -126 -334 -126q-133 0 -242 57zM417 204q47 -36 95 -36q83 0 131 81t48 223q0 52 -8 108zM608 736q-50 38 -103 38
q-92 0 -141 -85q-50 -86 -50 -201q0 -70 26 -128z" />
    <glyph glyph-name="questiondown" unicode="&#xbf;" horiz-adv-x="1021" 
d="M899 15q0 -7 -1 -22q-8 -157 -105 -252q-112 -110 -305 -110q-177 0 -283 98q-106 99 -106 255q0 95 43 168t146 151q44 34 61.5 56.5t29.5 61.5q10 32 12 96v11h233v-14q-3 -147 -36 -211q-15 -29 -32.5 -48t-100.5 -94q-54 -49 -67 -75q-23 -45 -23 -91q0 -57 34.5 -92
t91.5 -35q147 0 155 147h253zM654 942v-294h-300v294h300z" />
    <glyph glyph-name="exclamdown" unicode="&#xa1;" horiz-adv-x="639" 
d="M185 -355v409l67 472h135l66 -467v-414h-268zM469 942v-294h-300v294h300z" />
    <glyph glyph-name="logicalnot" unicode="&#xac;" horiz-adv-x="1084" 
d="M687 197v328h-589v267h887v-595h-298z" />
    <glyph glyph-name="radical" unicode="&#x221a;" horiz-adv-x="1384" 
d="M1375 1693v-239h-347l-376 -1454h-336l-126 528h-180v239h345l59 -222q14 -55 44 -289h16q27 174 54.5 306t83.5 347l204 784h559z" />
    <glyph glyph-name="florin" unicode="&#x192;" horiz-adv-x="682" 
d="M182 758h-132v184h158l12 84q15 109 38 170t65 104q94 97 274 97q4 0 116 -7l-29 -204q-43 6 -72 6q-53 0 -74 -28t-33 -114l-16 -108h153v-184h-179l-137 -976h-281z" />
    <glyph glyph-name="approxequal" unicode="&#x2248;" horiz-adv-x="1053" 
d="M181 713l-149 104q43 102 86 160q90 119 217 119q67 0 219 -67q130 -57 174 -57q43 0 75.5 25t69.5 85l149 -105q-50 -116 -97 -173q-86 -107 -205 -107q-40 0 -79.5 13t-195.5 79q-76 32 -121 32q-74 0 -143 -108zM181 271l-149 105q43 102 86 159q90 119 218 119
q67 0 218 -65q129 -56 176 -56q41 0 73.5 24.5t69.5 82.5l149 -104q-51 -117 -97 -174q-86 -107 -204 -107q-41 0 -79.5 12.5t-196.5 78.5q-76 32 -121 32q-74 0 -143 -107z" />
    <glyph glyph-name="Delta" unicode="&#x2206;" horiz-adv-x="1179" 
d="M440 1365h300l432 -1365h-1165zM589 997l-220 -776h437z" />
    <glyph glyph-name="guillemotleft" unicode="&#xab;" horiz-adv-x="844" 
d="M389 893v-249l-147 -140l147 -134v-243l-273 255v249zM702 890v-248l-145 -136l145 -134v-241l-272 254v248z" />
    <glyph glyph-name="guillemotright" unicode="&#xbb;" horiz-adv-x="844" 
d="M455 893l274 -261v-249l-274 -256v242l147 135l-147 139v250zM143 890l270 -257v-248l-270 -254v240l144 135l-144 135v249z" />
    <glyph glyph-name="ellipsis" unicode="&#x2026;" horiz-adv-x="1723" 
d="M469 294v-294h-300v294h300zM1011 294v-294h-300v294h300zM1553 294v-294h-300v294h300z" />
    <glyph glyph-name="_003" horiz-adv-x="1034" 
 />
    <glyph glyph-name="Agrave" unicode="&#xc0;" horiz-adv-x="1179" 
d="M440 1365h300l432 -1365h-305l-85 305h-389l-86 -305h-300zM456 526h265l-132 471zM302 1720h248l183 -246h-232z" />
    <glyph glyph-name="Atilde" unicode="&#xc3;" horiz-adv-x="1179" 
d="M440 1365h300l432 -1365h-305l-85 305h-389l-86 -305h-300zM456 526h265l-132 471zM898 1734q-38 -253 -204 -253q-26 0 -40 4.5t-74 31.5q-92 40 -107 40q-43 0 -59 -82h-134q1 10 2 15q15 103 70 169.5t125 66.5q44 0 118 -35q76 -35 106 -35q22 0 35.5 16t28.5 62h133
z" />
    <glyph glyph-name="Otilde" unicode="&#xd5;" horiz-adv-x="1332" 
d="M669 1396q243 0 400 -176q179 -199 179 -538q0 -290 -135 -485q-80 -115 -202 -176q-109 -54 -242 -54q-290 0 -453 235q-132 190 -132 490q0 326 171 520q162 184 414 184zM667 1146q-136 0 -210 -127q-80 -138 -80 -329q0 -210 79 -346q33 -57 92 -92t122 -35
q60 0 113.5 31.5t86.5 86.5q85 141 85 351q0 198 -78 333q-74 127 -210 127zM975 1734q-38 -253 -204 -253q-26 0 -40 4.5t-74 31.5q-92 40 -107 40q-43 0 -59 -82h-134q1 10 2 15q15 103 70 169.5t125 66.5q44 0 118 -35q76 -35 106 -35q22 0 35.5 16t28.5 62h133z" />
    <glyph glyph-name="OE" unicode="&#x152;" horiz-adv-x="1840" 
d="M1720 1365v-250h-551v-292h501v-238h-501v-335h562v-250h-814v111q-119 -144 -295 -144q-166 0 -305 115q-233 194 -233 601q0 334 163 530q78 93 191 143q92 41 190 41q168 0 289 -145v113h803zM653 1147q-129 0 -200 -127q-76 -138 -76 -329q0 -210 75 -347
q32 -57 88 -92t116 -35q57 0 108 31.5t82 86.5q81 141 81 351q0 199 -74 333q-70 128 -200 128z" />
    <glyph glyph-name="oe" unicode="&#x153;" horiz-adv-x="1564" 
d="M1552 403h-625q4 -92 26 -145q41 -99 151 -99q102 0 143 101h281q-20 -75 -74 -140q-122 -149 -339 -149q-206 0 -320 158q-112 -158 -314 -158q-209 0 -340 140q-129 136 -129 361q0 217 125 354q134 145 346 145q202 0 316 -162q112 162 306 162q157 0 275 -101
q86 -74 126.5 -183.5t45.5 -283.5zM480 775q-86 0 -136.5 -81.5t-50.5 -220.5q0 -141 49 -222q50 -83 141 -83q86 0 134 76q53 84 53 225q0 140 -47 220q-51 86 -143 86zM1255 571q-6 65 -25 110q-43 102 -136 102q-69 0 -113 -56.5t-53 -155.5h327z" />
    <glyph glyph-name="endash" unicode="&#x2013;" horiz-adv-x="1076" 
d="M935 633v-246h-793v246h793z" />
    <glyph glyph-name="emdash" unicode="&#x2014;" horiz-adv-x="1559" 
d="M1437 633v-246h-1310v246h1310z" />
    <glyph glyph-name="quotedblleft" unicode="&#x201c;" horiz-adv-x="1035" 
d="M169 772v229q0 121 29 193t98 124q72 54 173 68v-144q-120 -33 -127 -176h127v-294h-300zM565 772v229q0 121 29 193t98 124q72 53 173 68v-144q-120 -32 -127 -176h127v-294h-300z" />
    <glyph glyph-name="quotedblright" unicode="&#x201d;" horiz-adv-x="1035" 
d="M469 1365v-228q0 -122 -29 -194t-98 -124q-72 -53 -173 -68v144q120 32 127 176h-127v294h300zM865 1365v-228q0 -122 -28.5 -194t-98.5 -124q-72 -53 -173 -68v144q120 32 127 176h-127v294h300z" />
    <glyph glyph-name="quoteleft" unicode="&#x2018;" horiz-adv-x="639" 
d="M169 772v229q0 121 29 193t98 124q72 54 173 68v-144q-120 -33 -127 -176h127v-294h-300z" />
    <glyph glyph-name="quoteright" unicode="&#x2019;" horiz-adv-x="639" 
d="M469 1365v-228q0 -122 -29 -194t-98 -124q-72 -53 -173 -68v144q120 32 127 176h-127v294h300z" />
    <glyph glyph-name="divide" unicode="&#xf7;" horiz-adv-x="1068" 
d="M634 1131v-229h-200v229h200zM634 477v-229h-200v229h200zM63 783h942v-187h-942v187z" />
    <glyph glyph-name="lozenge" unicode="&#x25ca;" horiz-adv-x="1475" 
d="M738 1419l532 -736l-532 -736l-532 736zM738 1237l-404 -554l404 -555l403 555z" />
    <glyph glyph-name="ydieresis" unicode="&#xff;" 
d="M51 942h316l171 -606l165 606l306 -1l-321 -956q-41 -121 -78.5 -184t-87.5 -97q-88 -59 -243 -59q-64 0 -127 10v215q52 -12 92 -12q128 0 128 112q0 41 -18 93zM837 1324v-246h-253v246h253zM474 1324v-246h-251v246h251z" />
    <glyph glyph-name="Ydieresis" unicode="&#x178;" horiz-adv-x="1153" 
d="M7 1365h326l246 -540l246 540h321l-423 -837v-528h-293v532zM878 1712v-246h-238v246h238zM536 1712v-246h-237v246h237z" />
    <glyph glyph-name="fraction" unicode="&#x2044;" horiz-adv-x="541" 
d="M51 0h-182l623 1365h179z" />
    <glyph glyph-name="Euro" unicode="&#x20ac;" horiz-adv-x="1255" 
d="M207 460h-177l78 171h78q-1 34 -1 46l1 37v7h-144l78 171h85q11 55 30 109q71 201 223 307q124 86 302 86q213 0 393 -128l-94 -222q-92 71 -155.5 98t-141.5 27q-117 0 -181.5 -63t-101.5 -214h506l-72 -171h-458q-1 -31 -1 -42q0 -19 2 -48h419l-72 -171h-320
q21 -78 49 -133q65 -131 227 -131q69 0 122 22.5t130 84.5l159 -155q-53 -45 -86 -69q-147 -108 -344 -108q-339 0 -486 336q-31 71 -47 153z" />
    <glyph glyph-name="guilsinglleft" unicode="&#x2039;" horiz-adv-x="530" 
d="M387 891v-248l-144 -136l144 -136v-242l-271 252v252z" />
    <glyph glyph-name="guilsinglright" unicode="&#x203a;" horiz-adv-x="530" 
d="M143 891l271 -257v-252l-271 -253v241l144 137l-144 136v248z" />
    <glyph glyph-name="daggerdbl" unicode="&#x2021;" horiz-adv-x="1060" 
d="M946 987v-230h-298v-494h298v-230h-298v-383h-240v383h-294v230h294v494h-294v230h294v378h240v-378h298z" />
    <glyph glyph-name="periodcentered" unicode="&#xb7;" horiz-adv-x="639" 
d="M469 625v-294h-300v294h300z" />
    <glyph glyph-name="quotesinglbase" unicode="&#x201a;" horiz-adv-x="493" 
d="M397 294v-228q0 -122 -29 -194t-98 -123q-72 -54 -173 -68v143q120 32 127 176h-127v294h300z" />
    <glyph glyph-name="quotedblbase" unicode="&#x201e;" horiz-adv-x="889" 
d="M397 294v-228q0 -122 -29 -194t-98 -123q-72 -54 -173 -68v143q120 32 127 176h-127v294h300zM793 294v-228q0 -122 -28.5 -194t-98.5 -123q-72 -54 -173 -68v143q120 32 127 176h-127v294h300z" />
    <glyph glyph-name="perthousand" unicode="&#x2030;" horiz-adv-x="2641" 
d="M395 1383q149 0 246 -106q109 -120 109 -321q0 -174 -82 -290q-99 -139 -273 -139q-179 0 -279 142q-80 114 -80 292q0 195 104 311q100 111 255 111zM394 1211q-73 0 -113 -67q-45 -76 -45 -184q0 -119 45 -194q40 -67 114 -67q69 0 107 62q48 78 48 197
q0 114 -43 183.5t-113 69.5zM713 0h-179l588 1365h176zM1442 837q148 0 246 -106q109 -118 109 -321q0 -174 -82 -290q-99 -139 -273 -139q-178 0 -279 142q-80 114 -80 292q0 195 104 311q100 111 255 111zM1441 665q-73 0 -113 -67q-45 -76 -45 -184q0 -119 45 -194
q40 -67 114 -67q69 0 107 62q48 78 48 197q0 114 -43 183.5t-113 69.5zM2251 837q149 0 246 -106q109 -120 109 -321q0 -174 -82 -290q-99 -139 -273 -139q-178 0 -279 142q-80 114 -80 292q0 195 104 311q100 111 255 111zM2250 665q-73 0 -113 -67q-45 -76 -45 -184
q0 -119 45 -194q40 -67 114 -67q69 0 107 62q48 78 48 197q0 114 -43 183.5t-113 69.5z" />
    <glyph glyph-name="Acircumflex" unicode="&#xc2;" horiz-adv-x="1179" 
d="M440 1365h300l432 -1365h-305l-85 305h-389l-86 -305h-300zM456 526h265l-132 471zM897 1475h-225l-86 121l-88 -121h-216l191 259h233z" />
    <glyph glyph-name="Ecircumflex" unicode="&#xca;" horiz-adv-x="1139" 
d="M148 0v1365h871v-250h-578v-292h528v-238h-528v-335h590v-250h-883zM879 1475h-225l-86 121l-88 -121h-216l191 259h233z" />
    <glyph glyph-name="Aacute" unicode="&#xc1;" horiz-adv-x="1179" 
d="M440 1365h300l432 -1365h-305l-85 305h-389l-86 -305h-300zM456 526h265l-132 471zM877 1720l-198 -246h-233l184 246h247z" />
    <glyph glyph-name="Edieresis" unicode="&#xcb;" horiz-adv-x="1139" 
d="M148 0v1365h871v-250h-578v-292h528v-238h-528v-335h590v-250h-883zM880 1712v-246h-238v246h238zM538 1712v-246h-237v246h237z" />
    <glyph glyph-name="Egrave" unicode="&#xc8;" horiz-adv-x="1139" 
d="M148 0v1365h871v-250h-578v-292h528v-238h-528v-335h590v-250h-883zM302 1720h248l183 -246h-232z" />
    <glyph glyph-name="Iacute" unicode="&#xcd;" horiz-adv-x="589" 
d="M148 0v1365h293v-1365h-293zM582 1720l-198 -246h-233l184 246h247z" />
    <glyph glyph-name="Icircumflex" unicode="&#xce;" horiz-adv-x="589" 
d="M148 0v1365h293v-1365h-293zM602 1475h-225l-86 121l-88 -121h-216l191 259h233z" />
    <glyph glyph-name="Idieresis" unicode="&#xcf;" horiz-adv-x="589" 
d="M148 0v1365h293v-1365h-293zM589 1712v-246h-238v246h238zM247 1712v-246h-237v246h237z" />
    <glyph glyph-name="Igrave" unicode="&#xcc;" horiz-adv-x="589" 
d="M148 0v1365h293v-1365h-293zM7 1720h248l183 -246h-232z" />
    <glyph glyph-name="Oacute" unicode="&#xd3;" horiz-adv-x="1332" 
d="M669 1396q243 0 400 -176q179 -199 179 -538q0 -290 -135 -485q-80 -115 -202 -176q-109 -54 -242 -54q-290 0 -453 235q-132 190 -132 490q0 326 171 520q162 184 414 184zM667 1146q-136 0 -210 -127q-80 -138 -80 -329q0 -210 79 -346q33 -57 92 -92t122 -35
q60 0 113.5 31.5t86.5 86.5q85 141 85 351q0 198 -78 333q-74 127 -210 127zM953 1720l-198 -246h-233l184 246h247z" />
    <glyph glyph-name="Ocircumflex" unicode="&#xd4;" horiz-adv-x="1332" 
d="M669 1396q243 0 400 -176q179 -199 179 -538q0 -290 -135 -485q-80 -115 -202 -176q-109 -54 -242 -54q-290 0 -453 235q-132 190 -132 490q0 326 171 520q162 184 414 184zM667 1146q-136 0 -210 -127q-80 -138 -80 -329q0 -210 79 -346q33 -57 92 -92t122 -35
q60 0 113.5 31.5t86.5 86.5q85 141 85 351q0 198 -78 333q-74 127 -210 127zM973 1475h-225l-86 121l-88 -121h-216l191 259h233z" />
    <glyph glyph-name="_004" horiz-adv-x="410" 
 />
    <glyph glyph-name="Ograve" unicode="&#xd2;" horiz-adv-x="1332" 
d="M669 1396q243 0 400 -176q179 -199 179 -538q0 -290 -135 -485q-80 -115 -202 -176q-109 -54 -242 -54q-290 0 -453 235q-132 190 -132 490q0 326 171 520q162 184 414 184zM667 1146q-136 0 -210 -127q-80 -138 -80 -329q0 -210 79 -346q33 -57 92 -92t122 -35
q60 0 113.5 31.5t86.5 86.5q85 141 85 351q0 198 -78 333q-74 127 -210 127zM378 1720h248l183 -246h-232z" />
    <glyph glyph-name="Uacute" unicode="&#xda;" horiz-adv-x="1269" 
d="M127 1365h281v-795q0 -195 54 -272q58 -81 178 -81q130 0 177 111q33 76 33 243v794h293v-779q0 -184 -26 -279q-45 -163 -162 -252q-116 -88 -321 -88q-294 0 -421 198q-47 74 -66.5 170t-19.5 255v775zM893 1720l-198 -246h-233l184 246h247z" />
    <glyph glyph-name="Ucircumflex" unicode="&#xdb;" horiz-adv-x="1269" 
d="M127 1365h281v-795q0 -195 54 -272q58 -81 178 -81q130 0 177 111q33 76 33 243v794h293v-779q0 -184 -26 -279q-45 -163 -162 -252q-116 -88 -321 -88q-294 0 -421 198q-47 74 -66.5 170t-19.5 255v775zM937 1475h-225l-86 121l-88 -121h-216l191 259h233z" />
    <glyph glyph-name="Ugrave" unicode="&#xd9;" horiz-adv-x="1269" 
d="M127 1365h281v-795q0 -195 54 -272q58 -81 178 -81q130 0 177 111q33 76 33 243v794h293v-779q0 -184 -26 -279q-45 -163 -162 -252q-116 -88 -321 -88q-294 0 -421 198q-47 74 -66.5 170t-19.5 255v775zM324 1720h248l183 -246h-232z" />
    <glyph glyph-name="dotlessi" unicode="&#x131;" horiz-adv-x="545" 
d="M132 0v942h281v-942h-281z" />
    <glyph glyph-name="circumflex" unicode="&#x2c6;" horiz-adv-x="1013" 
d="M825 1092h-218l-100 147l-102 -147h-208l193 273h241z" />
    <glyph glyph-name="tilde" unicode="&#x2dc;" horiz-adv-x="1013" 
d="M817 1359q-35 -254 -198 -254q-39 0 -69 11t-108 53q-27 15 -47 15q-42 0 -57 -85h-134q16 120 68.5 188t130.5 68q46 0 117 -35q77 -39 105 -39q21 0 33 16.5t27 61.5h132z" />
    <glyph glyph-name="uni02C9" unicode="&#x2c9;" horiz-adv-x="1013" 
d="M803 1277v-146h-585v146h585z" />
    <glyph glyph-name="breve" unicode="&#x2d8;" horiz-adv-x="1013" 
d="M228 1365h141q28 -120 142 -120q115 0 142 120h142q-3 -73 -24 -121q-65 -152 -260 -152q-213 0 -269 178q-12 37 -14 95z" />
    <glyph glyph-name="dotaccent" unicode="&#x2d9;" horiz-adv-x="969" 
d="M612 1324v-246h-251v246h251z" />
    <glyph glyph-name="ring" unicode="&#x2da;" horiz-adv-x="1013" 
d="M513 1349q-39 0 -65.5 -26t-26.5 -65q0 -38 26 -64t64 -26q37 0 63.5 26.5t26.5 63.5t-26 64t-62 27zM515 1460q88 0 151 -58q64 -59 64 -144q0 -81 -63 -140q-64 -60 -155 -60q-92 0 -155 59q-64 59 -64 141q0 85 64.5 143.5t157.5 58.5z" />
    <glyph glyph-name="cedilla" unicode="&#xb8;" horiz-adv-x="1232" 
d="M477 0h117l-40 -108q24 12 59 12q82 0 132.5 -41t50.5 -107q0 -75 -56.5 -120.5t-149.5 -45.5q-76 0 -127.5 30.5t-59.5 80.5h129q7 -31 51 -31q68 0 68 77q0 37 -18.5 58.5t-49.5 21.5q-37 0 -48 -27h-129z" />
    <glyph glyph-name="hungarumlaut" unicode="&#x2dd;" horiz-adv-x="1026" 
d="M581 1365l-211 -273h-217l194 273h234zM1015 1365l-210 -273h-218l194 273h234z" />
    <glyph glyph-name="ogonek" unicode="&#x2db;" horiz-adv-x="1254" 
d="M808 3q-94 -86 -94 -168q0 -91 94 -91q20 0 71 16v-119l-10 -3q-58 -19 -106 -19q-93 0 -151 50t-58 130q0 98 120 204h134z" />
    <glyph glyph-name="caron" unicode="&#x2c7;" horiz-adv-x="1013" 
d="M197 1365h218l100 -147l101 147h209l-194 -273h-241z" />
    <glyph glyph-name="nonbreakingspace" unicode="&#xa0;" horiz-adv-x="410" 
 />
    <glyph glyph-name="currency" unicode="&#xa4;" horiz-adv-x="1533" 
d="M127 221l204 205q-78 129 -78 270q0 125 84 273l-211 208l158 158l213 -212q86 45 143.5 62t127.5 17q69 0 123.5 -16t141.5 -62l212 209l156 -156l-206 -205q86 -141 86 -279q0 -120 -78 -266l205 -205l-156 -158l-204 204q-135 -86 -270 -86q-137 0 -290 86l-205 -203z
M771 946q-105 0 -178 -73q-73 -72 -73 -177q0 -103 73 -177q72 -73 175 -73t175 73q73 73 73 177q0 106 -73 177q-75 73 -172 73z" />
    <glyph glyph-name="brokenbar" unicode="&#xa6;" horiz-adv-x="1258" 
d="M476 1365h307v-719h-307v719zM476 314h307v-655h-307v655z" />
    <glyph glyph-name="uni00AD" unicode="&#xad;" horiz-adv-x="472" 
d="M463 633v-246h-453v246h453z" />
    <glyph glyph-name="macron" unicode="&#xaf;" horiz-adv-x="1068" 
d="M63 1662h942v-187h-942v187z" />
    <glyph glyph-name="twosuperior" unicode="&#xb2;" horiz-adv-x="591" 
d="M562 713v-167h-557q0 140 47 227q28 53 72 92t154 110q60 40 86 76t26 81q0 38 -24 61t-64 23q-80 0 -87 -110h-196q7 117 71 190q77 87 207 87q127 0 202 -72q70 -66 70 -170q0 -90 -47 -153.5t-177 -145.5q-116 -72 -132 -129h349z" />
    <glyph glyph-name="threesuperior" unicode="&#xb3;" horiz-adv-x="607" 
d="M221 1124h-192q2 107 55 169q74 89 216 89q119 0 191 -65q70 -63 70 -165q0 -112 -87 -170q112 -60 112 -193q0 -111 -79 -184q-82 -76 -215 -76q-171 0 -244 112q-37 55 -37 133q0 5 1 20h193q0 -54 21.5 -78t69.5 -24q45 0 71 28.5t26 77.5q0 53 -30 77t-96 24h-39v143
h54q43 0 70 27t27 71q0 84 -82 84q-74 0 -76 -100z" />
    <glyph glyph-name="onesuperior" unicode="&#xb9;" horiz-adv-x="488" 
d="M150 546v550q-41 -30 -119 -30q-8 0 -23 1v146q92 3 131 35.5t51 116.5h146v-819h-186z" />
    <glyph glyph-name="onequarter" unicode="&#xbc;" horiz-adv-x="1412" 
d="M130 546v550q-41 -30 -119 -30q-8 0 -23 1v146q92 3 131 36t51 116h146v-819h-186zM433 0h-183l624 1365h179zM1330 0h-181v171h-308v163l321 485h168v-492h88v-156h-88v-171zM1149 327v206l-123 -206h123z" />
    <glyph glyph-name="onehalf" unicode="&#xbd;" horiz-adv-x="1438" 
d="M129 546v550q-41 -30 -119 -30q-8 0 -23 1v146q92 3 131 36t51 116h146v-819h-186zM432 0h-183l624 1365h179zM1432 167v-167h-558q3 145 48 227q29 53 72 92t154 111q60 40 86 76t26 81q0 38 -24 61t-64 23q-79 0 -87 -111h-196q7 118 71 190q77 88 207 88
q127 0 202 -72q70 -66 70 -170q0 -91 -47 -154t-177 -146q-71 -45 -96 -70t-36 -59h349z" />
    <glyph glyph-name="threequarters" unicode="&#xbe;" horiz-adv-x="1618" 
d="M644 0h-183l623 1365h179zM1541 0h-181v171h-308v163l320 485h169v-492h88v-156h-88v-171zM1360 327v206l-123 -206h123zM199 1124h-192q2 107 55 169q74 89 216 89q119 0 191 -65q70 -63 70 -165q0 -112 -87 -170q112 -60 112 -193q0 -111 -79 -184q-82 -76 -215 -76
q-171 0 -244 112q-37 55 -37 133q0 5 1 20h193q0 -54 21.5 -78t69.5 -24q45 0 71 28.5t26 77.5q0 53 -30 77t-96 24h-39v143h54q43 0 70 27t27 71q0 84 -82 84q-74 0 -76 -100z" />
    <glyph glyph-name="Eth" unicode="&#xd0;" horiz-adv-x="1253" 
d="M9 585v238h107v542h421q277 0 437 -148q195 -180 195 -530q0 -342 -184 -530q-100 -103 -231 -134q-93 -23 -219 -23h-419v585h-107zM409 250h131q156 0 227 74q109 114 109 364q0 206 -92 323q-82 104 -253 104h-122v-292h223v-238h-223v-335z" />
    <glyph glyph-name="multiply" unicode="&#xd7;" horiz-adv-x="1111" 
d="M822 1089l132 -133l-267 -267l267 -267l-132 -132l-267 267l-267 -267l-132 132l267 267l-267 267l132 133l267 -267z" />
    <glyph glyph-name="Yacute" unicode="&#xdd;" horiz-adv-x="1153" 
d="M7 1365h326l246 -540l246 540h321l-423 -837v-528h-293v532zM864 1720l-198 -246h-233l184 246h247z" />
    <glyph glyph-name="Thorn" unicode="&#xde;" horiz-adv-x="1138" 
d="M148 0v1365h293v-232h113q162 0 246 -30q126 -46 195 -159q59 -98 59 -238q0 -235 -167 -360q-116 -88 -328 -88h-118v-258h-293zM441 496h115q117 0 162 55q43 53 43 141q0 100 -61 151q-47 40 -158 40h-101v-387z" />
    <glyph glyph-name="eth" unicode="&#xf0;" horiz-adv-x="1022" 
d="M295 1297l141 97q70 -39 137 -94l142 94l82 -111l-119 -78q92 -97 153 -199q158 -265 158 -538q0 -234 -142 -372q-129 -125 -335 -125q-219 0 -350 140q-129 137 -129 361q0 217 125 353q134 146 352 146q27 0 55 -9q-36 71 -70 122l-130 -86l-82 110l127 84
q-47 50 -115 105zM510 774q-90 0 -143 -81.5t-53 -220.5q0 -141 51 -221q53 -83 148 -83q89 0 139 76q56 84 56 224t-49 219q-54 87 -149 87z" />
    <glyph glyph-name="yacute" unicode="&#xfd;" 
d="M51 942h316l171 -606l165 606l306 -1l-321 -956q-41 -121 -78.5 -184t-87.5 -97q-88 -59 -243 -59q-64 0 -127 10v215q52 -12 92 -12q128 0 128 112q0 41 -18 93zM815 1365l-211 -273h-217l194 273h234z" />
    <glyph glyph-name="thorn" unicode="&#xfe;" horiz-adv-x="1072" 
d="M94 1365h281v-502q93 108 248 108q200 0 317 -163q100 -138 100 -348q0 -225 -112 -355q-54 -62 -131 -97q-79 -37 -164 -37q-153 0 -258 108v-434h-281v1720zM554 758q-85 0 -137 -78t-52 -207q0 -130 50 -209q50 -80 139 -80q85 0 133 75q53 81 53 210q0 110 -41 191
q-50 98 -145 98z" />
    <glyph glyph-name="Amacron" unicode="&#x100;" horiz-adv-x="1179" 
d="M440 1365h300l432 -1365h-305l-85 305h-389l-86 -305h-300zM456 526h265l-132 471zM883 1658v-157h-587v157h587z" />
    <glyph glyph-name="amacron" unicode="&#x101;" horiz-adv-x="1033" 
d="M1010 189v-177q-56 -24 -120 -24q-129 0 -195 102q-49 -48 -90 -71q-87 -48 -214 -48q-145 0 -231 64q-104 77 -104 212q0 149 117 233q69 50 163.5 68t308.5 24v76q0 147 -134 147q-122 0 -134 -127h-284q9 144 110 222q105 81 287 81q261 0 371 -108q45 -44 59 -98.5
t14 -189.5v-315q0 -46 9.5 -63.5t34.5 -17.5q10 0 32 10zM645 429q-111 -5 -171 -19q-65 -16 -101 -53t-36 -89q0 -49 28.5 -76.5t78.5 -27.5q105 0 163 87q38 57 38 128v50zM820 1277v-146h-585v146h585z" />
    <glyph glyph-name="Abreve" unicode="&#x102;" horiz-adv-x="1179" 
d="M440 1365h300l432 -1365h-305l-85 305h-389l-86 -305h-300zM456 526h265l-132 471zM297 1720h139q28 -107 154 -107t153 107h139q-2 -68 -24 -112q-68 -141 -268 -141q-220 0 -278 164q-12 34 -15 89z" />
    <glyph glyph-name="abreve" unicode="&#x103;" horiz-adv-x="1033" 
d="M1010 189v-177q-56 -24 -120 -24q-129 0 -195 102q-49 -48 -90 -71q-87 -48 -214 -48q-145 0 -231 64q-104 77 -104 212q0 149 117 233q69 50 163.5 68t308.5 24v76q0 147 -134 147q-122 0 -134 -127h-284q9 144 110 222q105 81 287 81q261 0 371 -108q45 -44 59 -98.5
t14 -189.5v-315q0 -46 9.5 -63.5t34.5 -17.5q10 0 32 10zM645 429q-111 -5 -171 -19q-65 -16 -101 -53t-36 -89q0 -49 28.5 -76.5t78.5 -27.5q105 0 163 87q38 57 38 128v50zM249 1365h141q28 -120 142 -120q115 0 142 120h142q-3 -73 -24 -121q-65 -152 -260 -152
q-213 0 -269 178q-12 37 -14 95z" />
    <glyph glyph-name="Aogonek" unicode="&#x104;" horiz-adv-x="1179" 
d="M1162 0q-91 -80 -91 -165q0 -91 94 -91q20 0 71 16v-119l-10 -3q-58 -19 -106 -19q-93 0 -151 50t-58 130q0 53 26.5 98.5t90.5 102.5h-161l-85 305h-389l-86 -305h-300l433 1365h300l432 -1365h-10zM456 526h265l-132 471z" />
    <glyph glyph-name="aogonek" unicode="&#x105;" horiz-adv-x="1033" 
d="M963 -4q-86 -78 -86 -161q0 -91 94 -91q20 0 71 16v-119l-10 -3q-57 -19 -107 -19q-92 0 -150 50t-58 130q0 97 110 195q-83 20 -132 96q-49 -48 -90 -71q-87 -48 -214 -48q-145 0 -231 64q-104 77 -104 212q0 149 117 233q69 50 163.5 68t308.5 24v76q0 147 -134 147
q-122 0 -134 -127h-284q9 144 110 222q105 81 287 81q261 0 371 -108q45 -44 59 -98.5t14 -189.5v-315q0 -46 9.5 -63.5t34.5 -17.5q10 0 32 10v-177q-26 -11 -47 -16zM645 429q-111 -5 -171 -19q-65 -16 -101 -53t-36 -89q0 -49 28.5 -76.5t78.5 -27.5q105 0 163 87
q38 57 38 128v50z" />
    <glyph glyph-name="Cacute" unicode="&#x106;" horiz-adv-x="1249" 
d="M893 529h293q-16 -217 -122 -363q-145 -199 -408 -199q-249 0 -395 171q-177 209 -177 541q0 326 171 530q157 187 408 187q269 0 419 -216q85 -123 96 -274l-290 -1q-13 80 -43 130q-64 111 -186 111q-136 0 -208 -129q-74 -134 -74 -335q0 -204 77 -340
q70 -125 202 -125q103 0 161 76.5t76 235.5zM932 1720l-198 -246h-233l184 246h247z" />
    <glyph glyph-name="cacute" unicode="&#x107;" horiz-adv-x="976" 
d="M952 611l-292 -1q-28 164 -153 164q-90 0 -139 -82q-50 -84 -50 -224t49 -220t135 -80q68 0 110.5 50.5t54.5 143.5h286q-18 -143 -95 -238q-124 -153 -350 -153q-205 0 -332 125q-139 138 -139 369q0 246 150 386q127 120 327 120q187 0 304.5 -96.5t133.5 -263.5z
M788 1365l-211 -273h-217l194 273h234z" />
    <glyph glyph-name="Ccircumflex" unicode="&#x108;" horiz-adv-x="1249" 
d="M893 529h293q-16 -217 -122 -363q-145 -199 -408 -199q-249 0 -395 171q-177 209 -177 541q0 326 171 530q157 187 408 187q269 0 419 -216q85 -123 96 -274l-290 -1q-13 80 -43 130q-64 111 -186 111q-136 0 -208 -129q-74 -134 -74 -335q0 -204 77 -340
q70 -125 202 -125q103 0 161 76.5t76 235.5zM952 1475h-225l-86 121l-88 -121h-216l191 259h233z" />
    <glyph glyph-name="ccircumflex" unicode="&#x109;" horiz-adv-x="976" 
d="M952 611l-292 -1q-28 164 -153 164q-90 0 -139 -82q-50 -84 -50 -224t49 -220t135 -80q68 0 110.5 50.5t54.5 143.5h286q-18 -143 -95 -238q-124 -153 -350 -153q-205 0 -332 125q-139 138 -139 369q0 246 150 386q127 120 327 120q187 0 304.5 -96.5t133.5 -263.5z
M823 1092h-218l-100 147l-102 -147h-208l193 273h241z" />
    <glyph glyph-name="Cdotaccent" unicode="&#x10a;" horiz-adv-x="1249" 
d="M893 529h293q-16 -217 -122 -363q-145 -199 -408 -199q-249 0 -395 171q-177 209 -177 541q0 326 171 530q157 187 408 187q269 0 419 -216q85 -123 96 -274l-290 -1q-13 80 -43 130q-64 111 -186 111q-136 0 -208 -129q-74 -134 -74 -335q0 -204 77 -340
q70 -125 202 -125q103 0 161 76.5t76 235.5zM773 1712v-246h-237v246h237z" />
    <glyph glyph-name="cdotaccent" unicode="&#x10b;" horiz-adv-x="976" 
d="M952 611l-292 -1q-28 164 -153 164q-90 0 -139 -82q-50 -84 -50 -224t49 -220t135 -80q68 0 110.5 50.5t54.5 143.5h286q-18 -143 -95 -238q-124 -153 -350 -153q-205 0 -332 125q-139 138 -139 369q0 246 150 386q127 120 327 120q187 0 304.5 -96.5t133.5 -263.5z
M625 1324v-246h-251v246h251z" />
    <glyph glyph-name="Ccaron" unicode="&#x10c;" horiz-adv-x="1249" 
d="M893 529h293q-16 -217 -122 -363q-145 -199 -408 -199q-249 0 -395 171q-177 209 -177 541q0 326 171 530q157 187 408 187q269 0 419 -216q85 -123 96 -274l-290 -1q-13 80 -43 130q-64 111 -186 111q-136 0 -208 -129q-74 -134 -74 -335q0 -204 77 -340
q70 -125 202 -125q103 0 161 76.5t76 235.5zM952 1734l-190 -259h-234l-191 259h215l89 -121l86 121h225z" />
    <glyph glyph-name="ccaron" unicode="&#x10d;" horiz-adv-x="976" 
d="M952 611l-292 -1q-28 164 -153 164q-90 0 -139 -82q-50 -84 -50 -224t49 -220t135 -80q68 0 110.5 50.5t54.5 143.5h286q-18 -143 -95 -238q-124 -153 -350 -153q-205 0 -332 125q-139 138 -139 369q0 246 150 386q127 120 327 120q187 0 304.5 -96.5t133.5 -263.5z
M186 1365h218l100 -147l101 147h209l-194 -273h-241z" />
    <glyph glyph-name="Dcaron" unicode="&#x10e;" horiz-adv-x="1285" 
d="M148 0v1365h421q278 0 437 -148q195 -180 195 -530q0 -342 -184 -530q-100 -103 -231 -134q-93 -23 -218 -23h-420zM441 250h131q156 0 227 74q109 115 109 364q0 206 -92 323q-81 104 -252 104h-123v-865zM898 1734l-190 -259h-234l-191 259h215l89 -121l86 121h225z
" />
    <glyph glyph-name="dcaron" unicode="&#x10f;" horiz-adv-x="1268" 
d="M983 0h-292v79q-94 -108 -249 -108q-195 0 -309 163q-96 138 -96 347q0 226 112 356q54 62 131 98q79 36 164 36q154 0 258 -108v502h281v-1365zM504 758q-85 0 -133 -75q-53 -80 -53 -205q0 -114 41 -196q48 -98 144 -98q86 0 137 78.5t51 210.5q0 128 -49 205
q-52 80 -138 80zM1313 1365v-147q0 -110 -34 -155q-53 -72 -203 -78v89q69 7 92 26t29 73h-121v192h237z" />
    <glyph glyph-name="Dcroat" unicode="&#x110;" horiz-adv-x="1253" 
d="M9 585v238h107v542h421q277 0 437 -148q195 -180 195 -530q0 -342 -184 -530q-100 -103 -231 -134q-93 -23 -219 -23h-419v585h-107zM409 250h131q156 0 227 74q109 114 109 364q0 206 -92 323q-82 104 -253 104h-122v-292h223v-238h-223v-335z" />
    <glyph glyph-name="dcroat" unicode="&#x111;" horiz-adv-x="1057" 
d="M978 0h-287v79q-95 -108 -251 -108q-197 0 -311 163q-97 138 -97 347q0 226 112 356q54 62 131 97q79 37 164 37q154 0 258 -108v205h-250v146h250v151h281v-151h81v-146h-81v-1068zM501 758q-86 0 -135 -75q-53 -80 -53 -205q0 -114 41 -196q50 -98 147 -98
q87 0 138.5 78.5t51.5 210.5q0 128 -50 205q-52 80 -140 80z" />
    <glyph glyph-name="Emacron" unicode="&#x112;" horiz-adv-x="1139" 
d="M148 0v1365h871v-250h-578v-292h528v-238h-528v-335h590v-250h-883zM867 1658v-157h-587v157h587z" />
    <glyph glyph-name="emacron" unicode="&#x113;" horiz-adv-x="994" 
d="M960 403h-626q12 -243 177 -243q101 0 143 100h282q-20 -75 -74 -140q-122 -149 -347 -149q-215 0 -343 129q-135 137 -135 366q0 212 123 353q132 152 343 152q168 0 285 -101q85 -74 126 -184.5t46 -282.5zM663 571q-6 65 -25 110q-43 102 -137 102q-68 0 -112 -56.5
t-54 -155.5h328zM778 1277v-146h-585v146h585z" />
    <glyph glyph-name="Ebreve" unicode="&#x114;" horiz-adv-x="1139" 
d="M148 0v1365h871v-250h-578v-292h528v-238h-528v-335h590v-250h-883zM297 1720h139q28 -107 154 -107t153 107h139q-2 -68 -24 -112q-68 -141 -268 -141q-220 0 -278 164q-12 34 -15 89z" />
    <glyph glyph-name="ebreve" unicode="&#x115;" horiz-adv-x="994" 
d="M960 403h-626q12 -243 177 -243q101 0 143 100h282q-20 -75 -74 -140q-122 -149 -347 -149q-215 0 -343 129q-135 137 -135 366q0 212 123 353q132 152 343 152q168 0 285 -101q85 -74 126 -184.5t46 -282.5zM663 571q-6 65 -25 110q-43 102 -137 102q-68 0 -112 -56.5
t-54 -155.5h328zM204 1365h141q28 -120 142 -120q115 0 142 120h142q-3 -73 -24 -121q-65 -152 -260 -152q-213 0 -269 178q-12 37 -14 95z" />
    <glyph glyph-name="Edotaccent" unicode="&#x116;" horiz-adv-x="1139" 
d="M148 0v1365h871v-250h-578v-292h528v-238h-528v-335h590v-250h-883zM714 1712v-246h-237v246h237z" />
    <glyph glyph-name="edotaccent" unicode="&#x117;" horiz-adv-x="994" 
d="M960 403h-626q12 -243 177 -243q101 0 143 100h282q-20 -75 -74 -140q-122 -149 -347 -149q-215 0 -343 129q-135 137 -135 366q0 212 123 353q132 152 343 152q168 0 285 -101q85 -74 126 -184.5t46 -282.5zM663 571q-6 65 -25 110q-43 102 -137 102q-68 0 -112 -56.5
t-54 -155.5h328zM622 1324v-246h-251v246h251z" />
    <glyph glyph-name="Eogonek" unicode="&#x118;" horiz-adv-x="1139" 
d="M1017 0q-91 -80 -91 -165q0 -91 94 -91q20 0 71 16v-119l-10 -3q-57 -19 -106 -19q-93 0 -151 50t-58 130q0 97 117 201h-735v1365h871v-250h-578v-292h528v-238h-528v-335h590v-250h-14z" />
    <glyph glyph-name="eogonek" unicode="&#x119;" horiz-adv-x="994" 
d="M653 -12q-77 -72 -77 -152q0 -92 94 -92q20 0 70 16v-119l-10 -3q-57 -19 -106 -19q-92 0 -150 50t-58 130q0 91 85 173q-154 2 -266 77q-96 64 -148 176q-50 110 -50 242q0 211 123 352q132 152 343 152q168 0 285 -101q85 -74 126 -184.5t46 -282.5h-626
q12 -243 177 -243q101 0 143 100h282q-26 -98 -104 -172.5t-179 -99.5zM663 571q-6 65 -25 110q-43 102 -137 102q-68 0 -112 -56.5t-54 -155.5h328z" />
    <glyph glyph-name="Ecaron" unicode="&#x11a;" horiz-adv-x="1139" 
d="M148 0v1365h871v-250h-578v-292h528v-238h-528v-335h590v-250h-883zM880 1734l-190 -259h-234l-191 259h215l89 -121l86 121h225z" />
    <glyph glyph-name="ecaron" unicode="&#x11b;" horiz-adv-x="994" 
d="M960 403h-626q12 -243 177 -243q101 0 143 100h282q-20 -75 -74 -140q-122 -149 -347 -149q-215 0 -343 129q-135 137 -135 366q0 212 123 353q132 152 343 152q168 0 285 -101q85 -74 126 -184.5t46 -282.5zM663 571q-6 65 -25 110q-43 102 -137 102q-68 0 -112 -56.5
t-54 -155.5h328zM185 1365h218l100 -147l101 147h209l-194 -273h-241z" />
    <glyph glyph-name="Gcircumflex" unicode="&#x11c;" horiz-adv-x="1314" 
d="M1187 0h-215v154q-81 -105 -155.5 -146t-182.5 -41q-257 0 -406 207q-144 200 -144 501q0 302 151 504q162 218 431 218q229 0 377 -170q59 -69 88 -139.5t41 -173.5l-285 -1q-15 85 -48 135q-63 99 -177 99q-138 0 -212 -131q-73 -127 -73 -337q0 -224 82 -351
q75 -115 210 -115q111 0 176.5 79t76.5 224h-245v221h510v-737zM958 1475h-225l-86 121l-88 -121h-216l191 259h233z" />
    <glyph glyph-name="gcircumflex" unicode="&#x11d;" horiz-adv-x="1054" 
d="M62 -110h298q8 -41 38 -58.5t92 -17.5q106 0 149.5 60.5t43.5 209.5v42q-93 -110 -246 -110q-179 0 -288 121q-113 126 -113 350q0 223 113 353q114 131 295 131q150 0 239 -113v84h276v-807q0 -131 -17.5 -208.5t-60.5 -136.5q-117 -159 -378 -159q-196 0 -307.5 65.5
t-133.5 193.5zM499 766q-84 0 -131 -71q-51 -76 -51 -196q0 -130 49 -208t131 -78q86 0 138 77t52 205q0 124 -50 195q-52 76 -138 76zM844 1092h-218l-100 147l-102 -147h-208l193 273h241z" />
    <glyph glyph-name="Gbreve" unicode="&#x11e;" horiz-adv-x="1314" 
d="M1187 0h-215v154q-81 -105 -155.5 -146t-182.5 -41q-257 0 -406 207q-144 200 -144 501q0 302 151 504q162 218 431 218q229 0 377 -170q59 -69 88 -139.5t41 -173.5l-285 -1q-15 85 -48 135q-63 99 -177 99q-138 0 -212 -131q-73 -127 -73 -337q0 -224 82 -351
q75 -115 210 -115q111 0 176.5 79t76.5 224h-245v221h510v-737zM365 1720h139q28 -107 154 -107t153 107h139q-2 -68 -24 -112q-68 -141 -268 -141q-220 0 -278 164q-12 34 -15 89z" />
    <glyph glyph-name="gbreve" unicode="&#x11f;" horiz-adv-x="1054" 
d="M62 -110h298q8 -41 38 -58.5t92 -17.5q106 0 149.5 60.5t43.5 209.5v42q-93 -110 -246 -110q-179 0 -288 121q-113 126 -113 350q0 223 113 353q114 131 295 131q150 0 239 -113v84h276v-807q0 -131 -17.5 -208.5t-60.5 -136.5q-117 -159 -378 -159q-196 0 -307.5 65.5
t-133.5 193.5zM499 766q-84 0 -131 -71q-51 -76 -51 -196q0 -130 49 -208t131 -78q86 0 138 77t52 205q0 124 -50 195q-52 76 -138 76zM252 1365h141q28 -120 142 -120q115 0 142 120h142q-3 -73 -24 -121q-65 -152 -260 -152q-213 0 -269 178q-12 37 -14 95z" />
    <glyph glyph-name="Gdotaccent" unicode="&#x120;" horiz-adv-x="1314" 
d="M1187 0h-215v154q-81 -105 -155.5 -146t-182.5 -41q-257 0 -406 207q-144 200 -144 501q0 302 151 504q162 218 431 218q229 0 377 -170q59 -69 88 -139.5t41 -173.5l-285 -1q-15 85 -48 135q-63 99 -177 99q-138 0 -212 -131q-73 -127 -73 -337q0 -224 82 -351
q75 -115 210 -115q111 0 176.5 79t76.5 224h-245v221h510v-737zM784 1712v-246h-237v246h237z" />
    <glyph glyph-name="gdotaccent" unicode="&#x121;" horiz-adv-x="1054" 
d="M62 -110h298q8 -41 38 -58.5t92 -17.5q106 0 149.5 60.5t43.5 209.5v42q-93 -110 -246 -110q-179 0 -288 121q-113 126 -113 350q0 223 113 353q114 131 295 131q150 0 239 -113v84h276v-807q0 -131 -17.5 -208.5t-60.5 -136.5q-117 -159 -378 -159q-196 0 -307.5 65.5
t-133.5 193.5zM499 766q-84 0 -131 -71q-51 -76 -51 -196q0 -130 49 -208t131 -78q86 0 138 77t52 205q0 124 -50 195q-52 76 -138 76zM644 1324v-246h-251v246h251z" />
    <glyph glyph-name="Gcommaaccent" unicode="&#x122;" horiz-adv-x="1314" 
d="M1187 0h-215v154q-81 -105 -155.5 -146t-182.5 -41q-257 0 -406 207q-144 200 -144 501q0 302 151 504q162 218 431 218q229 0 377 -170q59 -69 88 -139.5t41 -173.5l-285 -1q-15 85 -48 135q-63 99 -177 99q-138 0 -212 -131q-73 -127 -73 -337q0 -224 82 -351
q75 -115 210 -115q111 0 176.5 79t76.5 224h-245v221h510v-737zM778 -95v-147q0 -110 -32 -155q-51 -72 -192 -78v89q65 7 87 26t28 73h-115v192h224z" />
    <glyph glyph-name="gcommaaccent" unicode="&#x123;" horiz-adv-x="1054" 
d="M62 -110h298q8 -41 38 -58.5t92 -17.5q106 0 149.5 60.5t43.5 209.5v42q-93 -110 -246 -110q-179 0 -288 121q-113 126 -113 350q0 223 113 353q114 131 295 131q150 0 239 -113v84h276v-807q0 -131 -17.5 -208.5t-60.5 -136.5q-117 -159 -378 -159q-196 0 -307.5 65.5
t-133.5 193.5zM499 766q-84 0 -131 -71q-51 -76 -51 -196q0 -130 49 -208t131 -78q86 0 138 77t52 205q0 124 -50 195q-52 76 -138 76zM411 1079v147q0 110 34 155q55 72 207 78v-89q-70 -7 -93.5 -26t-29.5 -73h123v-192h-241z" />
    <glyph glyph-name="Hcircumflex" unicode="&#x124;" horiz-adv-x="1317" 
d="M148 0v1365h293v-519h435v519h293v-1365h-293v596h-435v-596h-293zM966 1475h-225l-86 121l-88 -121h-216l191 259h233z" />
    <glyph glyph-name="hcircumflex" unicode="&#x125;" 
d="M94 0v1365h281v-510q105 116 265 116q188 0 275 -126q54 -78 54 -244v-601h-281v557q0 99 -22 138q-35 63 -115 63q-105 0 -152 -101q-24 -52 -24 -193v-464h-281zM573 1475h-225l-86 121l-88 -121h-216l191 259h233z" />
    <glyph glyph-name="Hbar" unicode="&#x126;" horiz-adv-x="1294" 
d="M136 986h-109v157h109v222h293v-222h435v222h293v-222h109v-157h-109v-986h-293v596h-435v-596h-293v986zM429 986v-140h435v140h-435z" />
    <glyph glyph-name="hbar" unicode="&#x127;" 
d="M94 1131h-98v146h98v88h281v-88h269v-146h-269v-276q105 116 266 116q188 0 275 -126q54 -78 54 -244v-601h-281v557q0 99 -22 138q-35 63 -116 63q-105 0 -152 -101q-24 -52 -24 -193v-464h-281v1131z" />
    <glyph glyph-name="Itilde" unicode="&#x128;" horiz-adv-x="589" 
d="M148 0v1365h293v-1365h-293zM603 1734q-38 -253 -204 -253q-26 0 -40 4.5t-74 31.5q-92 40 -107 40q-43 0 -59 -82h-134q1 10 2 15q15 103 70 169.5t125 66.5q44 0 118 -35q76 -35 106 -35q22 0 35.5 16t28.5 62h133z" />
    <glyph glyph-name="itilde" unicode="&#x129;" horiz-adv-x="545" 
d="M132 0v942h281v-942h-281zM579 1359q-35 -254 -198 -254q-39 0 -69 11t-108 53q-27 15 -47 15q-42 0 -57 -85h-134q16 120 68.5 188t130.5 68q46 0 117 -35q77 -39 105 -39q21 0 33 16.5t27 61.5h132z" />
    <glyph glyph-name="Imacron" unicode="&#x12a;" horiz-adv-x="589" 
d="M148 0v1365h293v-1365h-293zM588 1658v-157h-587v157h587z" />
    <glyph glyph-name="imacron" unicode="&#x12b;" horiz-adv-x="545" 
d="M132 0v942h281v-942h-281zM565 1277v-146h-585v146h585z" />
    <glyph glyph-name="Ibreve" unicode="&#x12c;" horiz-adv-x="589" 
d="M148 0v1365h293v-1365h-293zM2 1720h139q28 -107 154 -107t153 107h139q-2 -68 -24 -112q-68 -141 -268 -141q-220 0 -278 164q-12 34 -15 89z" />
    <glyph glyph-name="ibreve" unicode="&#x12d;" horiz-adv-x="545" 
d="M132 0v942h281v-942h-281zM-11 1365h141q28 -120 142 -120q115 0 142 120h142q-3 -73 -24 -121q-65 -152 -260 -152q-213 0 -269 178q-12 37 -14 95z" />
    <glyph glyph-name="Iogonek" unicode="&#x12e;" horiz-adv-x="589" 
d="M430 0q-90 -78 -90 -165q0 -91 93 -91q20 0 71 16v-119l-10 -3q-58 -19 -106 -19q-92 0 -150 50t-58 130q0 98 116 201h-148v1365h293v-1365h-11z" />
    <glyph glyph-name="iogonek" unicode="&#x12f;" horiz-adv-x="540" 
d="M386 0q-90 -79 -90 -165q0 -91 94 -91q19 0 70 16v-119l-10 -3q-57 -19 -106 -19q-92 0 -150 50t-58 130q0 97 116 201h-131v942h281v-942h-16zM121 1092v273h298v-273h-298z" />
    <glyph glyph-name="Idotaccent" unicode="&#x130;" horiz-adv-x="589" 
d="M148 0v1365h293v-1365h-293zM411 1712v-246h-237v246h237z" />
    <glyph glyph-name="IJ" unicode="&#x132;" horiz-adv-x="1163" 
d="M148 0v1365h293v-1365h-293zM492 -19v233q60 -15 100 -15q103 0 136 112q15 54 15 236v818h293v-846q0 -146 -16 -232t-55 -150q-103 -170 -344 -170q-58 0 -129 14z" />
    <glyph glyph-name="ij" unicode="&#x133;" horiz-adv-x="1001" 
d="M103 1092v273h298v-273h-298zM111 0v942h281v-942h-281zM464 -347v213q47 -4 61 -4q58 0 75 28t17 124v928h281v-965q0 -187 -84 -264q-75 -68 -233 -68q-48 0 -117 8zM608 1092v273h298v-273h-298z" />
    <glyph glyph-name="Jcircumflex" unicode="&#x134;" horiz-adv-x="680" 
d="M10 -19v233q60 -15 100 -15q103 0 136 112q15 54 15 236v818h293v-846q0 -146 -16 -232t-55 -150q-103 -170 -344 -170q-58 0 -129 14zM720 1475h-225l-86 121l-88 -121h-216l191 259h233z" />
    <glyph glyph-name="jcircumflex" unicode="&#x135;" horiz-adv-x="529" 
d="M-26 -347v213q47 -4 61 -4q58 0 75 28t17 124v928h281v-965q0 -187 -84 -264q-75 -68 -233 -68q-48 0 -117 8zM585 1092h-218l-100 147l-102 -147h-208l193 273h241z" />
    <glyph glyph-name="Kcommaaccent" unicode="&#x136;" horiz-adv-x="1235" 
d="M148 0v1365h293v-516l406 516h327l-465 -563l503 -802h-328l-360 576l-83 -100v-476h-293zM740 -95v-147q0 -110 -32 -155q-51 -72 -192 -78v89q65 7 87 26t28 73h-115v192h224z" />
    <glyph glyph-name="kcommaaccent" unicode="&#x137;" horiz-adv-x="1011" 
d="M97 0v1365h281v-703l274 280h326l-368 -367l399 -575h-323l-262 390l-46 -45v-345h-281zM621 -95v-147q0 -110 -34 -155q-53 -72 -203 -78v89q69 7 92.5 26t28.5 73h-121v192h237z" />
    <glyph glyph-name="kgreenlandic" unicode="&#x138;" horiz-adv-x="997" 
d="M378 619l277 323h320l-355 -386l389 -556h-323l-241 365l-67 -73v-292h-281v942h281v-323z" />
    <glyph glyph-name="Lacute" unicode="&#x139;" horiz-adv-x="1053" 
d="M148 0v1365h293v-1111h536v-254h-829zM663 1720l-198 -246h-233l184 246h247z" />
    <glyph glyph-name="lacute" unicode="&#x13a;" horiz-adv-x="545" 
d="M132 0v1365h281v-1365h-281zM574 1729l-211 -273h-217l194 273h234z" />
    <glyph glyph-name="Lcommaaccent" unicode="&#x13b;" horiz-adv-x="1053" 
d="M148 0v1365h293v-1111h536v-254h-829zM675 -95v-147q0 -110 -32 -155q-51 -72 -192 -78v89q65 7 87 26t28 73h-115v192h224z" />
    <glyph glyph-name="lcommaaccent" unicode="&#x13c;" horiz-adv-x="545" 
d="M132 0v1365h281v-1365h-281zM390 -95v-147q0 -110 -34 -155q-53 -72 -203 -78v89q69 7 92.5 26t28.5 73h-121v192h237z" />
    <glyph glyph-name="Lcaron" unicode="&#x13d;" horiz-adv-x="1053" 
d="M148 0v1365h293v-1111h536v-254h-829zM879 1365v-147q0 -110 -32 -155q-51 -72 -192 -78v89q65 7 87 26t28 73h-115v192h224z" />
    <glyph glyph-name="lcaron" unicode="&#x13e;" horiz-adv-x="696" 
d="M132 0v1365h281v-1365h-281zM741 1365v-147q0 -110 -34 -155q-53 -72 -203 -78v89q69 7 92 26t29 73h-121v192h237z" />
    <glyph glyph-name="Ldot" unicode="&#x13f;" horiz-adv-x="1038" 
d="M118 0v1365h293v-1111h586v-254h-879zM775 825v-246h-251v246h251z" />
    <glyph glyph-name="ldot" unicode="&#x140;" horiz-adv-x="729" 
d="M113 0v1365h281v-1365h-281zM734 825v-246h-251v246h251z" />
    <glyph glyph-name="Lslash" unicode="&#x141;" horiz-adv-x="1021" 
d="M10 385v234l106 79v667h293v-468l195 141v-234l-195 -141v-409h537v-254h-830v464z" />
    <glyph glyph-name="lslash" unicode="&#x142;" horiz-adv-x="548" 
d="M17 425v224l117 92v624h281v-390l117 91v-224l-117 -91v-751h-281v517z" />
    <glyph glyph-name="Nacute" unicode="&#x143;" horiz-adv-x="1301" 
d="M148 0v1365l296 1l428 -879v878h281v-1365h-293l-431 877v-877h-281zM938 1720l-198 -246h-233l184 246h247z" />
    <glyph glyph-name="nacute" unicode="&#x144;" 
d="M95 0v942h283v-87q99 116 262 116q189 0 276 -126q54 -78 54 -244v-601h-281v557q0 98 -22 138q-35 63 -115 63q-104 0 -151 -101q-25 -52 -25 -193v-464h-281zM789 1365l-211 -273h-217l194 273h234z" />
    <glyph glyph-name="Ncommaaccent" unicode="&#x145;" horiz-adv-x="1301" 
d="M148 0v1365l296 1l428 -879v878h281v-1365h-293l-431 877v-877h-281zM763 -95v-147q0 -110 -32 -155q-51 -72 -192 -78v89q65 7 87 26t28 73h-115v192h224z" />
    <glyph glyph-name="ncommaaccent" unicode="&#x146;" 
d="M95 0v942h283v-87q99 116 262 116q189 0 276 -126q54 -78 54 -244v-601h-281v557q0 98 -22 138q-35 63 -115 63q-104 0 -151 -101q-25 -52 -25 -193v-464h-281zM648 -95v-147q0 -110 -34 -155q-53 -72 -203 -78v89q69 7 92.5 26t28.5 73h-121v192h237z" />
    <glyph glyph-name="Ncaron" unicode="&#x147;" horiz-adv-x="1301" 
d="M148 0v1365l296 1l428 -879v878h281v-1365h-293l-431 877v-877h-281zM958 1734l-190 -259h-234l-191 259h215l89 -121l86 121h225z" />
    <glyph glyph-name="ncaron" unicode="&#x148;" 
d="M95 0v942h283v-87q99 116 262 116q189 0 276 -126q54 -78 54 -244v-601h-281v557q0 98 -22 138q-35 63 -115 63q-104 0 -151 -101q-25 -52 -25 -193v-464h-281zM204 1365h218l100 -147l101 147h209l-194 -273h-241z" />
    <glyph glyph-name="napostrophe" unicode="&#x149;" horiz-adv-x="1235" 
d="M278 0v942h283v-87q99 116 262 116q189 0 276 -126q54 -78 54 -244v-601h-281v557q0 98 -22 138q-35 63 -115 63q-104 0 -151 -101q-25 -52 -25 -193v-464h-281zM222 1144v-147q0 -110 -34 -155q-53 -72 -203 -78v89q69 7 92 26t29 73h-121v192h237z" />
    <glyph glyph-name="Eng" unicode="&#x14a;" horiz-adv-x="1292" 
d="M109 1365h293v-175q60 79 107 116q107 82 255 82q156 0 271 -90q84 -66 120 -172t36 -289v-518q0 -226 -80 -325q-111 -136 -324 -136q-78 0 -175 29v251q61 -30 111 -30q95 0 136 67q34 56 34 247v444q0 79 -7.5 120t-28.5 71q-55 81 -190 81q-140 0 -202.5 -93.5
t-62.5 -302.5v-742h-293v1365z" />
    <glyph glyph-name="eng" unicode="&#x14b;" 
d="M536 -228v213q46 -4 61 -4q58 0 75 28t17 123v425q0 98 -22 138q-35 63 -115 63q-104 0 -152 -101q-24 -52 -24 -193v-464h-281v942h283v-87q99 116 262 116q189 0 276 -126q54 -78 54 -244v-505q0 -187 -84 -264q-75 -68 -233 -68q-45 0 -117 8z" />
    <glyph glyph-name="Omacron" unicode="&#x14c;" horiz-adv-x="1332" 
d="M669 1396q243 0 400 -176q179 -199 179 -538q0 -290 -135 -485q-80 -115 -202 -176q-109 -54 -242 -54q-290 0 -453 235q-132 190 -132 490q0 326 171 520q162 184 414 184zM667 1146q-136 0 -210 -127q-80 -138 -80 -329q0 -210 79 -346q33 -57 92 -92t122 -35
q60 0 113.5 31.5t86.5 86.5q85 141 85 351q0 198 -78 333q-74 127 -210 127zM959 1658v-157h-587v157h587z" />
    <glyph glyph-name="omacron" unicode="&#x14d;" horiz-adv-x="1022" 
d="M513 971q212 0 342 -133q134 -135 134 -373q0 -231 -142 -369q-129 -125 -335 -125q-219 0 -350 140q-129 137 -129 361q0 219 125 353q136 146 355 146zM501 774q-86 0 -136.5 -81.5t-50.5 -220.5q0 -141 49 -221q50 -83 141 -83q86 0 134 76q53 84 53 224t-47 219
q-51 87 -143 87zM803 1277v-146h-585v146h585z" />
    <glyph glyph-name="Obreve" unicode="&#x14e;" horiz-adv-x="1332" 
d="M669 1396q243 0 400 -176q179 -199 179 -538q0 -290 -135 -485q-80 -115 -202 -176q-109 -54 -242 -54q-290 0 -453 235q-132 190 -132 490q0 326 171 520q162 184 414 184zM667 1146q-136 0 -210 -127q-80 -138 -80 -329q0 -210 79 -346q33 -57 92 -92t122 -35
q60 0 113.5 31.5t86.5 86.5q85 141 85 351q0 198 -78 333q-74 127 -210 127zM373 1720h139q28 -107 154 -107t153 107h139q-2 -68 -24 -112q-68 -141 -268 -141q-220 0 -278 164q-12 34 -15 89z" />
    <glyph glyph-name="obreve" unicode="&#x14f;" horiz-adv-x="1022" 
d="M513 971q212 0 342 -133q134 -135 134 -373q0 -231 -142 -369q-129 -125 -335 -125q-219 0 -350 140q-129 137 -129 361q0 219 125 353q136 146 355 146zM501 774q-86 0 -136.5 -81.5t-50.5 -220.5q0 -141 49 -221q50 -83 141 -83q86 0 134 76q53 84 53 224t-47 219
q-51 87 -143 87zM228 1365h141q28 -120 142 -120q115 0 142 120h142q-3 -73 -24 -121q-65 -152 -260 -152q-213 0 -269 178q-12 37 -14 95z" />
    <glyph glyph-name="Ohungarumlaut" unicode="&#x150;" horiz-adv-x="1332" 
d="M669 1396q243 0 400 -176q179 -199 179 -538q0 -290 -135 -485q-80 -115 -202 -176q-109 -54 -242 -54q-290 0 -453 235q-132 190 -132 490q0 326 171 520q162 184 414 184zM667 1146q-136 0 -210 -127q-80 -138 -80 -329q0 -210 79 -346q33 -57 92 -92t122 -35
q60 0 113.5 31.5t86.5 86.5q85 141 85 351q0 198 -78 333q-74 127 -210 127zM772 1714l-204 -241h-217l188 241h233zM1120 1714l-204 -241h-218l188 241h234z" />
    <glyph glyph-name="ohungarumlaut" unicode="&#x151;" horiz-adv-x="1022" 
d="M513 971q212 0 342 -133q134 -135 134 -373q0 -231 -142 -369q-129 -125 -335 -125q-219 0 -350 140q-129 137 -129 361q0 219 125 353q136 146 355 146zM501 774q-86 0 -136.5 -81.5t-50.5 -220.5q0 -141 49 -221q50 -83 141 -83q86 0 134 76q53 84 53 224t-47 219
q-51 87 -143 87zM611 1365l-211 -273h-217l194 273h234zM958 1365l-211 -273h-217l194 273h234z" />
    <glyph glyph-name="Racute" unicode="&#x154;" horiz-adv-x="1268" 
d="M148 0v1365h525q206 0 319 -90q129 -103 129 -291q0 -117 -50.5 -204.5t-145.5 -134.5q86 -30 129 -104q27 -45 38 -108.5t23 -238.5q6 -80 15 -117.5t32 -76.5h-302q-15 36 -19 64.5t-15 189.5q-8 101 -23.5 154.5t-45.5 84.5q-43 43 -148 43h-168v-536h-293zM441 757
h161q133 0 183 56q43 49 43 136q0 95 -53 139t-167 44h-167v-375zM866 1720l-198 -246h-233l184 246h247z" />
    <glyph glyph-name="racute" unicode="&#x155;" horiz-adv-x="711" 
d="M95 0v942h281v-120q99 149 252 149q36 0 74 -9v-244q-59 15 -100 15q-138 0 -195 -121q-31 -66 -31 -216v-396h-281zM667 1365l-211 -273h-217l194 273h234z" />
    <glyph glyph-name="Rcommaaccent" unicode="&#x156;" horiz-adv-x="1268" 
d="M148 0v1365h525q206 0 319 -90q129 -103 129 -291q0 -117 -50.5 -204.5t-145.5 -134.5q86 -30 129 -104q27 -45 38 -108.5t23 -238.5q6 -80 15 -117.5t32 -76.5h-302q-15 36 -19 64.5t-15 189.5q-8 101 -23.5 154.5t-45.5 84.5q-43 43 -148 43h-168v-536h-293zM441 757
h161q133 0 183 56q43 49 43 136q0 95 -53 139t-167 44h-167v-375zM758 -95v-147q0 -110 -32 -155q-51 -72 -192 -78v89q65 7 87 26t28 73h-115v192h224z" />
    <glyph glyph-name="rcommaaccent" unicode="&#x157;" horiz-adv-x="711" 
d="M95 0v942h281v-120q99 149 252 149q36 0 74 -9v-244q-59 15 -100 15q-138 0 -195 -121q-31 -66 -31 -216v-396h-281zM357 -95v-147q0 -110 -34 -155q-53 -72 -203 -78v89q69 7 92.5 26t28.5 73h-121v192h237z" />
    <glyph glyph-name="Rcaron" unicode="&#x158;" horiz-adv-x="1268" 
d="M148 0v1365h525q206 0 319 -90q129 -103 129 -291q0 -117 -50.5 -204.5t-145.5 -134.5q86 -30 129 -104q27 -45 38 -108.5t23 -238.5q6 -80 15 -117.5t32 -76.5h-302q-15 36 -19 64.5t-15 189.5q-8 101 -23.5 154.5t-45.5 84.5q-43 43 -148 43h-168v-536h-293zM441 757
h161q133 0 183 56q43 49 43 136q0 95 -53 139t-167 44h-167v-375zM899 1734l-190 -259h-234l-191 259h215l89 -121l86 121h225z" />
    <glyph glyph-name="rcaron" unicode="&#x159;" horiz-adv-x="711" 
d="M95 0v942h281v-120q99 149 252 149q36 0 74 -9v-244q-59 15 -100 15q-138 0 -195 -121q-31 -66 -31 -216v-396h-281zM105 1365h218l100 -147l101 147h209l-194 -273h-241z" />
    <glyph glyph-name="Sacute" unicode="&#x15a;" horiz-adv-x="1086" 
d="M63 399h295q12 -80 37 -119q52 -80 150 -80q79 0 128 47t49 123q0 79 -67 134q-28 23 -57.5 36.5t-124.5 47.5q-168 59 -243 118q-149 118 -149 309q0 164 104 267q116 114 321 114q197 0 317 -101t146 -290h-286q-10 79 -50 115q-48 42 -129 42q-72 0 -112.5 -36.5
t-40.5 -101.5q0 -72 53.5 -114t212.5 -94q173 -56 268 -131q138 -110 138 -296t-128 -302q-133 -120 -355 -120q-265 0 -395 199q-66 102 -82 233zM802 1720l-198 -246h-233l184 246h247z" />
    <glyph glyph-name="sacute" unicode="&#x15b;" horiz-adv-x="941" 
d="M59 284h275q18 -131 147 -131q56 0 89 26.5t33 71.5q0 63 -74 101q-30 17 -130 49q-168 54 -222 93q-109 77 -109 196q0 62 28.5 119t77.5 91q100 71 267 71q224 0 334 -131q50 -60 66 -144h-277q-27 91 -114 91q-44 0 -69.5 -22.5t-25.5 -60.5q0 -56 68 -90
q29 -15 161 -54q123 -37 192 -86q106 -75 106 -206q0 -136 -106.5 -216.5t-286.5 -80.5q-130 0 -217.5 35.5t-145.5 112.5q-55 73 -67 165zM756 1365l-211 -273h-217l194 273h234z" />
    <glyph glyph-name="Scircumflex" unicode="&#x15c;" horiz-adv-x="1086" 
d="M63 399h295q12 -80 37 -119q52 -80 150 -80q79 0 128 47t49 123q0 79 -67 134q-28 23 -57.5 36.5t-124.5 47.5q-168 59 -243 118q-149 118 -149 309q0 164 104 267q116 114 321 114q197 0 317 -101t146 -290h-286q-10 79 -50 115q-48 42 -129 42q-72 0 -112.5 -36.5
t-40.5 -101.5q0 -72 53.5 -114t212.5 -94q173 -56 268 -131q138 -110 138 -296t-128 -302q-133 -120 -355 -120q-265 0 -395 199q-66 102 -82 233zM834 1475h-225l-86 121l-88 -121h-216l191 259h233z" />
    <glyph glyph-name="scircumflex" unicode="&#x15d;" horiz-adv-x="941" 
d="M59 284h275q18 -131 147 -131q56 0 89 26.5t33 71.5q0 63 -74 101q-30 17 -130 49q-168 54 -222 93q-109 77 -109 196q0 62 28.5 119t77.5 91q100 71 267 71q224 0 334 -131q50 -60 66 -144h-277q-27 91 -114 91q-44 0 -69.5 -22.5t-25.5 -60.5q0 -56 68 -90
q29 -15 161 -54q123 -37 192 -86q106 -75 106 -206q0 -136 -106.5 -216.5t-286.5 -80.5q-130 0 -217.5 35.5t-145.5 112.5q-55 73 -67 165zM778 1092h-218l-100 147l-102 -147h-208l193 273h241z" />
    <glyph glyph-name="Scedilla" unicode="&#x15e;" horiz-adv-x="1086" 
d="M530 -33l-27 -71q24 10 53 10q87 0 140 -41.5t53 -108.5q0 -75 -57.5 -120.5t-152.5 -45.5q-77 0 -128.5 30.5t-59.5 80.5h130q8 -31 52 -31q66 0 66 79q0 78 -67 78q-37 0 -47 -27h-127l65 178q-146 28 -243 141t-117 280h295q12 -80 37 -119q52 -80 150 -80
q79 0 128 47t49 123q0 79 -67 134q-28 23 -57.5 36.5t-124.5 47.5q-168 59 -243 118q-149 118 -149 309q0 164 104 267q116 114 321 114q197 0 317 -101t146 -290h-286q-10 79 -50 115q-48 42 -129 42q-72 0 -112.5 -36.5t-40.5 -101.5q0 -73 53.5 -114.5t212.5 -93.5
q172 -56 268 -131q138 -110 138 -296t-128 -302q-63 -57 -155 -88.5t-193 -31.5h-17z" />
    <glyph glyph-name="scedilla" unicode="&#x15f;" horiz-adv-x="941" 
d="M471 -29l-30 -79q24 12 60 12q82 0 132.5 -41t50.5 -107q0 -75 -56.5 -120.5t-149.5 -45.5q-77 0 -128.5 30.5t-59.5 80.5h129q8 -31 52 -31q68 0 68 77q0 37 -18.5 58.5t-49.5 21.5q-38 0 -49 -27h-129l65 182q-123 23 -203 103.5t-96 198.5h275q18 -131 147 -131
q56 0 89 26.5t33 71.5q0 63 -74 101q-30 17 -130 49q-168 54 -222 93q-109 77 -109 196q0 62 28.5 119t77.5 91q100 71 267 71q224 0 334 -131q50 -60 66 -144h-277q-27 91 -114 91q-44 0 -69.5 -22.5t-25.5 -60.5q0 -56 68 -90q29 -15 161 -54q123 -37 192 -86
q106 -75 106 -206q0 -135 -106.5 -216t-284.5 -81h-20z" />
    <glyph glyph-name="Scaron" unicode="&#x160;" horiz-adv-x="1086" 
d="M63 399h295q12 -80 37 -119q52 -80 150 -80q79 0 128 47t49 123q0 79 -67 134q-28 23 -57.5 36.5t-124.5 47.5q-168 59 -243 118q-149 118 -149 309q0 164 104 267q116 114 321 114q197 0 317 -101t146 -290h-286q-10 79 -50 115q-48 42 -129 42q-72 0 -112.5 -36.5
t-40.5 -101.5q0 -72 53.5 -114t212.5 -94q173 -56 268 -131q138 -110 138 -296t-128 -302q-133 -120 -355 -120q-265 0 -395 199q-66 102 -82 233zM841 1734l-190 -259h-234l-191 259h215l89 -121l86 121h225z" />
    <glyph glyph-name="scaron" unicode="&#x161;" horiz-adv-x="941" 
d="M59 284h275q18 -131 147 -131q56 0 89 26.5t33 71.5q0 63 -74 101q-30 17 -130 49q-168 54 -222 93q-109 77 -109 196q0 62 28.5 119t77.5 91q100 71 267 71q224 0 334 -131q50 -60 66 -144h-277q-27 91 -114 91q-44 0 -69.5 -22.5t-25.5 -60.5q0 -56 68 -90
q29 -15 161 -54q123 -37 192 -86q106 -75 106 -206q0 -136 -106.5 -216.5t-286.5 -80.5q-130 0 -217.5 35.5t-145.5 112.5q-55 73 -67 165zM151 1365h218l100 -147l101 147h209l-194 -273h-241z" />
    <glyph glyph-name="Tcommaaccent" unicode="&#x162;" horiz-adv-x="1066" 
d="M386 0v1115h-331v250h957v-250h-333v-1115h-293zM646 -95v-147q0 -110 -32 -155q-51 -72 -192 -78v89q65 7 87 26t28 73h-115v192h224z" />
    <glyph glyph-name="tcommaaccent" unicode="&#x163;" horiz-adv-x="639" 
d="M11 766v176h149v61l189 252h92v-313h181v-176h-181v-446q0 -86 18.5 -113t77.5 -27q33 0 75 14v-201q-87 -18 -169 -18q-175 0 -239 91q-27 38 -35.5 88t-8.5 176v436h-149zM493 -95v-147q0 -110 -34 -155q-53 -72 -203 -78v89q69 7 92.5 26t28.5 73h-121v192h237z" />
    <glyph glyph-name="Tcaron" unicode="&#x164;" horiz-adv-x="1066" 
d="M386 0v1115h-331v250h957v-250h-333v-1115h-293zM841 1734l-190 -259h-234l-191 259h215l89 -121l86 121h225z" />
    <glyph glyph-name="tcaron" unicode="&#x165;" horiz-adv-x="764" 
d="M11 766v176h149v61l189 252h92v-313h181v-176h-181v-446q0 -86 18.5 -113t77.5 -27q33 0 75 14v-201q-87 -18 -169 -18q-175 0 -239 91q-27 38 -35.5 88t-8.5 176v436h-149zM809 1389v-147q0 -110 -34 -155q-53 -72 -203 -78v89q69 7 92 26t29 73h-121v192h237z" />
    <glyph glyph-name="Tbar" unicode="&#x166;" horiz-adv-x="1049" 
d="M670 627v-627h-293v627h-186v173h186v315h-359v250h1014v-250h-362v-315h188v-173h-188z" />
    <glyph glyph-name="tbar" unicode="&#x167;" horiz-adv-x="615" 
d="M146 653v113h-149v176h149v61l189 252h92v-313h181v-176h-181v-113h181v-167h-181v-166q0 -86 18.5 -113t77.5 -27q33 0 75 14v-201q-87 -18 -169 -18q-175 0 -239 91q-27 38 -35.5 88t-8.5 176v156h-149v167h149z" />
    <glyph glyph-name="Utilde" unicode="&#x168;" horiz-adv-x="1269" 
d="M127 1365h281v-795q0 -195 54 -272q58 -81 178 -81q130 0 177 111q33 76 33 243v794h293v-779q0 -184 -26 -279q-45 -163 -162 -252q-116 -88 -321 -88q-294 0 -421 198q-47 74 -66.5 170t-19.5 255v775zM944 1734q-38 -253 -204 -253q-26 0 -40 4.5t-74 31.5
q-92 40 -107 40q-43 0 -59 -82h-134q1 10 2 15q15 103 70 169.5t125 66.5q44 0 118 -35q76 -35 106 -35q22 0 35.5 16t28.5 62h133z" />
    <glyph glyph-name="utilde" unicode="&#x169;" 
d="M964 942v-942h-284v87q-98 -116 -261 -116q-190 0 -276 126q-54 78 -54 244v601h281v-557q0 -98 22 -138q35 -63 114 -63q104 0 151 101q24 53 24 193v464h283zM833 1359q-35 -254 -198 -254q-39 0 -69 11t-108 53q-27 15 -47 15q-42 0 -57 -85h-134q16 120 68.5 188
t130.5 68q46 0 117 -35q77 -39 105 -39q21 0 33 16.5t27 61.5h132z" />
    <glyph glyph-name="Umacron" unicode="&#x16a;" horiz-adv-x="1269" 
d="M127 1365h281v-795q0 -195 54 -272q58 -81 178 -81q130 0 177 111q33 76 33 243v794h293v-779q0 -184 -26 -279q-45 -163 -162 -252q-116 -88 -321 -88q-294 0 -421 198q-47 74 -66.5 170t-19.5 255v775zM928 1658v-157h-587v157h587z" />
    <glyph glyph-name="umacron" unicode="&#x16b;" 
d="M964 942v-942h-284v87q-98 -116 -261 -116q-190 0 -276 126q-54 78 -54 244v601h281v-557q0 -98 22 -138q35 -63 114 -63q104 0 151 101q24 53 24 193v464h283zM814 1277v-146h-585v146h585z" />
    <glyph glyph-name="Ubreve" unicode="&#x16c;" horiz-adv-x="1269" 
d="M127 1365h281v-795q0 -195 54 -272q58 -81 178 -81q130 0 177 111q33 76 33 243v794h293v-779q0 -184 -26 -279q-45 -163 -162 -252q-116 -88 -321 -88q-294 0 -421 198q-47 74 -66.5 170t-19.5 255v775zM342 1720h139q28 -107 154 -107t153 107h139q-2 -68 -24 -112
q-68 -141 -268 -141q-220 0 -278 164q-12 34 -15 89z" />
    <glyph glyph-name="ubreve" unicode="&#x16d;" 
d="M964 942v-942h-284v87q-98 -116 -261 -116q-190 0 -276 126q-54 78 -54 244v601h281v-557q0 -98 22 -138q35 -63 114 -63q104 0 151 101q24 53 24 193v464h283zM243 1365h141q28 -120 142 -120q115 0 142 120h142q-3 -73 -24 -121q-65 -152 -260 -152q-213 0 -269 178
q-12 37 -14 95z" />
    <glyph glyph-name="Uring" unicode="&#x16e;" horiz-adv-x="1269" 
d="M127 1365h281v-795q0 -195 54 -272q58 -81 178 -81q130 0 177 111q33 76 33 243v794h293v-779q0 -184 -26 -279q-45 -163 -162 -252q-116 -88 -321 -88q-294 0 -421 198q-47 74 -66.5 170t-19.5 255v775zM637 1710q-37 0 -62 -26t-25 -63t24.5 -63t59.5 -26q36 0 61 26
t25 63q0 36 -24.5 62.5t-58.5 26.5zM638 1816q81 0 140 -57t59 -138q0 -80 -59 -137t-143 -57q-85 0 -143 57q-59 57 -59 137q0 81 59.5 138t145.5 57z" />
    <glyph glyph-name="uring" unicode="&#x16f;" 
d="M964 942v-942h-284v87q-98 -116 -261 -116q-190 0 -276 126q-54 78 -54 244v601h281v-557q0 -98 22 -138q35 -63 114 -63q104 0 151 101q24 53 24 193v464h283zM528 1349q-39 0 -65.5 -26t-26.5 -65q0 -38 26 -64t64 -26q37 0 63.5 26.5t26.5 63.5t-26 64t-62 27z
M530 1460q88 0 151 -58q64 -59 64 -144q0 -81 -63 -140q-64 -60 -155 -60q-92 0 -155 59q-64 59 -64 141q0 85 64.5 143.5t157.5 58.5z" />
    <glyph glyph-name="Uhungarumlaut" unicode="&#x170;" horiz-adv-x="1269" 
d="M127 1365h281v-795q0 -195 54 -272q58 -81 178 -81q130 0 177 111q33 76 33 243v794h293v-779q0 -184 -26 -279q-45 -163 -162 -252q-116 -88 -321 -88q-294 0 -421 198q-47 74 -66.5 170t-19.5 255v775zM729 1714l-204 -241h-217l188 241h233zM1077 1714l-204 -241h-218
l188 241h234z" />
    <glyph glyph-name="uhungarumlaut" unicode="&#x171;" 
d="M964 942v-942h-284v87q-98 -116 -261 -116q-190 0 -276 126q-54 78 -54 244v601h281v-557q0 -98 22 -138q35 -63 114 -63q104 0 151 101q24 53 24 193v464h283zM626 1365l-211 -273h-217l194 273h234zM974 1365l-211 -273h-218l195 273h234z" />
    <glyph glyph-name="Uogonek" unicode="&#x172;" horiz-adv-x="1269" 
d="M834 -6l-5 -5q-78 -70 -78 -153q0 -92 94 -92q19 0 70 16v-119l-10 -3q-57 -19 -106 -19q-92 0 -150 49.5t-58 128.5q0 94 81 171q-17 -1 -37 -1q-295 0 -422 198q-47 74 -66.5 170t-19.5 255v775h281v-795q0 -195 54 -272q58 -81 178 -81q130 0 177 111q33 76 33 243
v794h293v-779q12 -484 -309 -592z" />
    <glyph glyph-name="uogonek" unicode="&#x173;" 
d="M952 0q-91 -80 -91 -165q0 -91 94 -91q20 0 70 16l1 -119l-10 -3q-58 -19 -106 -19q-93 0 -151 50t-58 130q0 97 116 201h-137v87q-99 -116 -261 -116q-190 0 -276 126q-54 78 -54 244v601h281v-557q0 -98 22 -138q35 -63 114 -63q104 0 151 101q24 53 24 193v464h283
v-942h-12z" />
    <glyph glyph-name="Wcircumflex" unicode="&#x174;" horiz-adv-x="1561" 
d="M10 1365h294l162 -936l176 936h279l174 -938l165 938h292l-308 -1365h-293l-172 927l-169 -927h-296zM1089 1475h-225l-86 121l-88 -121h-216l191 259h233z" />
    <glyph glyph-name="wcircumflex" unicode="&#x175;" horiz-adv-x="1510" 
d="M636 1l-306 -1l-279 942h312l133 -592l119 592h290l122 -588l133 588h300l-271 -941l-305 -1l-127 582zM1070 1092h-218l-100 147l-102 -147h-208l193 273h241z" />
    <glyph glyph-name="Ycircumflex" unicode="&#x176;" horiz-adv-x="1153" 
d="M7 1365h326l246 -540l246 540h321l-423 -837v-528h-293v532zM884 1475h-225l-86 121l-88 -121h-216l191 259h233z" />
    <glyph glyph-name="ycircumflex" unicode="&#x177;" 
d="M51 942h316l171 -606l165 606l306 -1l-321 -956q-41 -121 -78.5 -184t-87.5 -97q-88 -59 -243 -59q-64 0 -127 10v215q52 -12 92 -12q128 0 128 112q0 41 -18 93zM844 1092h-218l-100 147l-102 -147h-208l193 273h241z" />
    <glyph glyph-name="Zacute" unicode="&#x179;" horiz-adv-x="1096" 
d="M52 0v238l613 877h-569v250h924v-222l-620 -889h638v-254h-986zM832 1720l-198 -246h-233l184 246h247z" />
    <glyph glyph-name="zacute" unicode="&#x17a;" horiz-adv-x="883" 
d="M23 0v194l453 545h-418v203h778v-187l-465 -552h496v-203h-844zM730 1365l-211 -273h-217l194 273h234z" />
    <glyph glyph-name="Zdotaccent" unicode="&#x17b;" horiz-adv-x="1096" 
d="M52 0v238l613 877h-569v250h924v-222l-620 -889h638v-254h-986zM667 1712v-246h-237v246h237z" />
    <glyph glyph-name="zdotaccent" unicode="&#x17c;" horiz-adv-x="883" 
d="M23 0v194l453 545h-418v203h778v-187l-465 -552h496v-203h-844zM570 1324v-246h-251v246h251z" />
    <glyph glyph-name="Zcaron" unicode="&#x17d;" horiz-adv-x="1096" 
d="M52 0v238l613 877h-569v250h924v-222l-620 -889h638v-254h-986zM864 1734l-190 -259h-234l-191 259h215l89 -121l86 121h225z" />
    <glyph glyph-name="zcaron" unicode="&#x17e;" horiz-adv-x="883" 
d="M23 0v194l453 545h-418v203h778v-187l-465 -552h496v-203h-844zM131 1365h218l100 -147l101 147h209l-194 -273h-241z" />
    <glyph glyph-name="longs" unicode="&#x17f;" horiz-adv-x="646" 
d="M179 0v1026q0 111 15 170.5t54 103.5q85 97 275 97q5 0 123 -7v-204q-51 6 -84 6q-62 0 -82 -28t-20 -114v-1050h-281z" />
    <glyph glyph-name="uni01CD" unicode="&#x1cd;" horiz-adv-x="1179" 
d="M440 1365h300l432 -1365h-305l-85 305h-389l-86 -305h-300zM456 526h265l-132 471zM897 1734l-190 -259h-234l-191 259h215l89 -121l86 121h225z" />
    <glyph glyph-name="uni01CE" unicode="&#x1ce;" horiz-adv-x="1033" 
d="M1010 189v-177q-56 -24 -120 -24q-129 0 -195 102q-49 -48 -90 -71q-87 -48 -214 -48q-145 0 -231 64q-104 77 -104 212q0 149 117 233q69 50 163.5 68t308.5 24v76q0 147 -134 147q-122 0 -134 -127h-284q9 144 110 222q105 81 287 81q261 0 371 -108q45 -44 59 -98.5
t14 -189.5v-315q0 -46 9.5 -63.5t34.5 -17.5q10 0 32 10zM645 429q-111 -5 -171 -19q-65 -16 -101 -53t-36 -89q0 -49 28.5 -76.5t78.5 -27.5q105 0 163 87q38 57 38 128v50zM209 1365h218l100 -147l101 147h209l-194 -273h-241z" />
    <glyph glyph-name="uni01D3" unicode="&#x1d3;" horiz-adv-x="1269" 
d="M127 1365h281v-795q0 -195 54 -272q58 -81 178 -81q130 0 177 111q33 76 33 243v794h293v-779q0 -184 -26 -279q-45 -163 -162 -252q-116 -88 -321 -88q-294 0 -421 198q-47 74 -66.5 170t-19.5 255v775zM943 1734l-190 -259h-234l-191 259h215l89 -121l86 121h225z" />
    <glyph glyph-name="uni01D4" unicode="&#x1d4;" 
d="M964 942v-942h-284v87q-98 -116 -261 -116q-190 0 -276 126q-54 78 -54 244v601h281v-557q0 -98 22 -138q35 -63 114 -63q104 0 151 101q24 53 24 193v464h283zM213 1365h218l100 -147l101 147h209l-194 -273h-241z" />
    <glyph glyph-name="Gcaron" unicode="&#x1e6;" horiz-adv-x="1314" 
d="M1187 0h-215v154q-81 -105 -155.5 -146t-182.5 -41q-257 0 -406 207q-144 200 -144 501q0 302 151 504q162 218 431 218q229 0 377 -170q59 -69 88 -139.5t41 -173.5l-285 -1q-15 85 -48 135q-63 99 -177 99q-138 0 -212 -131q-73 -127 -73 -337q0 -224 82 -351
q75 -115 210 -115q111 0 176.5 79t76.5 224h-245v221h510v-737zM967 1734l-190 -259h-234l-191 259h215l89 -121l86 121h225z" />
    <glyph glyph-name="gcaron" unicode="&#x1e7;" horiz-adv-x="1054" 
d="M62 -110h298q8 -41 38 -58.5t92 -17.5q106 0 149.5 60.5t43.5 209.5v42q-93 -110 -246 -110q-179 0 -288 121q-113 126 -113 350q0 223 113 353q114 131 295 131q150 0 239 -113v84h276v-807q0 -131 -17.5 -208.5t-60.5 -136.5q-117 -159 -378 -159q-196 0 -307.5 65.5
t-133.5 193.5zM499 766q-84 0 -131 -71q-51 -76 -51 -196q0 -130 49 -208t131 -78q86 0 138 77t52 205q0 124 -50 195q-52 76 -138 76zM206 1365h218l100 -147l101 147h209l-194 -273h-241z" />
    <glyph glyph-name="uni01F5" unicode="&#x1f5;" horiz-adv-x="1054" 
d="M62 -110h298q8 -41 38 -58.5t92 -17.5q106 0 149.5 60.5t43.5 209.5v42q-93 -110 -246 -110q-179 0 -288 121q-113 126 -113 350q0 223 113 353q114 131 295 131q150 0 239 -113v84h276v-807q0 -131 -17.5 -208.5t-60.5 -136.5q-117 -159 -378 -159q-196 0 -307.5 65.5
t-133.5 193.5zM499 766q-84 0 -131 -71q-51 -76 -51 -196q0 -130 49 -208t131 -78q86 0 138 77t52 205q0 124 -50 195q-52 76 -138 76zM793 1365l-211 -273h-217l194 273h234z" />
    <glyph glyph-name="Scommaaccent" unicode="&#x218;" horiz-adv-x="1086" 
d="M63 399h295q12 -80 37 -119q52 -80 150 -80q79 0 128 47t49 123q0 79 -67 134q-28 23 -57.5 36.5t-124.5 47.5q-168 59 -243 118q-149 118 -149 309q0 164 104 267q116 114 321 114q197 0 317 -101t146 -290h-286q-10 79 -50 115q-48 42 -129 42q-72 0 -112.5 -36.5
t-40.5 -101.5q0 -72 53.5 -114t212.5 -94q173 -56 268 -131q138 -110 138 -296t-128 -302q-133 -120 -355 -120q-265 0 -395 199q-66 102 -82 233zM655 -95v-147q0 -110 -32 -155q-51 -72 -192 -78v89q65 7 87 26t28 73h-115v192h224z" />
    <glyph glyph-name="scommaaccent" unicode="&#x219;" horiz-adv-x="941" 
d="M59 284h275q18 -131 147 -131q56 0 89 26.5t33 71.5q0 63 -74 101q-30 17 -130 49q-168 54 -222 93q-109 77 -109 196q0 62 28.5 119t77.5 91q100 71 267 71q224 0 334 -131q50 -60 66 -144h-277q-27 91 -114 91q-44 0 -69.5 -22.5t-25.5 -60.5q0 -56 68 -90
q29 -15 161 -54q123 -37 192 -86q106 -75 106 -206q0 -136 -106.5 -216.5t-286.5 -80.5q-130 0 -217.5 35.5t-145.5 112.5q-55 73 -67 165zM589 -95v-147q0 -110 -34 -155q-53 -72 -203 -78v89q69 7 92.5 26t28.5 73h-121v192h237z" />
    <glyph glyph-name="uni021A" unicode="&#x21a;" horiz-adv-x="1066" 
d="M386 0v1115h-331v250h957v-250h-333v-1115h-293zM646 -95v-147q0 -110 -32 -155q-51 -72 -192 -78v89q65 7 87 26t28 73h-115v192h224z" />
    <glyph glyph-name="uni021B" unicode="&#x21b;" horiz-adv-x="639" 
d="M11 766v176h149v61l189 252h92v-313h181v-176h-181v-446q0 -86 18.5 -113t77.5 -27q33 0 75 14v-201q-87 -18 -169 -18q-175 0 -239 91q-27 38 -35.5 88t-8.5 176v436h-149zM493 -95v-147q0 -110 -34 -155q-53 -72 -203 -78v89q69 7 92.5 26t28.5 73h-121v192h237z" />
    <glyph glyph-name="dotlessj" unicode="&#x237;" horiz-adv-x="529" 
d="M-26 -347v213q47 -4 61 -4q58 0 75 28t17 124v928h281v-965q0 -187 -84 -264q-75 -68 -233 -68q-48 0 -117 8z" />
    <glyph glyph-name="afii57929" unicode="&#x2bc;" horiz-adv-x="639" 
d="M469 1365v-228q0 -122 -29 -194t-98 -124q-72 -53 -173 -68v144q120 32 127 176h-127v294h300z" />
    <glyph glyph-name="uni037E" unicode="&#x37e;" horiz-adv-x="639" 
d="M469 294v-228q0 -122 -29 -194t-98 -123q-72 -54 -173 -68v143q120 32 127 176h-127v294h300zM469 942v-294h-300v294h300z" />
    <glyph glyph-name="anoteleia" unicode="&#x387;" horiz-adv-x="639" 
d="M469 625v-294h-300v294h300z" />
    <glyph glyph-name="afii10023" unicode="&#x401;" horiz-adv-x="1139" 
d="M148 0v1365h871v-250h-578v-292h528v-238h-528v-335h590v-250h-883zM879 1693v-246h-238v246h238zM537 1693v-246h-237v246h237z" />
    <glyph glyph-name="afii10051" unicode="&#x402;" horiz-adv-x="1310" 
d="M583 855q95 116 248 116q171 0 266 -126q116 -155 116 -421q0 -138 -31.5 -258t-86.5 -197q-107 -147 -290 -147q-53 0 -125 18v213q47 -14 75 -14q81 0 129 98t48 264q0 172 -48 266.5t-135 94.5q-166 0 -166 -256v-506h-293v1115h-235v250h957v-250h-429v-260z" />
    <glyph glyph-name="afii10052" unicode="&#x403;" horiz-adv-x="1040" 
d="M148 1365h829v-254h-536v-1111h-293v1365zM850 1720l-198 -246h-233l184 246h247z" />
    <glyph glyph-name="afii10053" unicode="&#x404;" horiz-adv-x="1249" 
d="M388 823h423v-238h-429q9 -98 44 -184q74 -184 231 -184q102 0 160 76.5t77 235.5h292q-16 -217 -122 -363q-145 -199 -408 -199q-249 0 -395 171q-177 209 -177 541q0 325 171 530q157 187 408 187q270 0 419 -216q86 -124 96 -274l-289 -1q-14 80 -43 130
q-65 111 -187 111q-106 0 -175.5 -83t-95.5 -240z" />
    <glyph glyph-name="afii10054" unicode="&#x405;" horiz-adv-x="1086" 
d="M63 399h295q12 -80 37 -119q52 -80 150 -80q79 0 128 47t49 123q0 79 -67 134q-28 23 -57.5 36.5t-124.5 47.5q-168 59 -243 118q-149 118 -149 309q0 164 104 267q116 114 321 114q197 0 317 -101t146 -290h-286q-10 79 -50 115q-48 42 -129 42q-72 0 -112.5 -36.5
t-40.5 -101.5q0 -72 53.5 -114t212.5 -94q173 -56 268 -131q138 -110 138 -296t-128 -302q-133 -120 -355 -120q-265 0 -395 199q-66 102 -82 233z" />
    <glyph glyph-name="afii10055" unicode="&#x406;" horiz-adv-x="589" 
d="M148 0v1365h293v-1365h-293z" />
    <glyph glyph-name="afii10056" unicode="&#x407;" horiz-adv-x="589" 
d="M148 0v1365h293v-1365h-293zM551 1693v-246h-205v246h205zM243 1693v-246h-204v246h204z" />
    <glyph glyph-name="afii10057" unicode="&#x408;" horiz-adv-x="680" 
d="M10 -19v233q60 -15 100 -15q103 0 136 112q15 54 15 236v818h293v-846q0 -146 -16 -232t-55 -150q-103 -170 -344 -170q-58 0 -129 14z" />
    <glyph glyph-name="afii10058" unicode="&#x409;" horiz-adv-x="1729" 
d="M1089 1365v-490h118q121 0 205 -25.5t149 -83.5q141 -125 141 -339q0 -222 -148 -339q-61 -48 -140.5 -68t-211.5 -20h-406v1115h-279l-78 -711q-16 -151 -45 -222q-48 -117 -132.5 -162.5t-251.5 -45.5v232q70 4 100 46.5t43 156.5l104 956h832zM1089 637v-387h101
q66 0 104 11t64 38q51 52 51 142q0 100 -50.5 148t-154.5 48h-115z" />
    <glyph glyph-name="afii10059" unicode="&#x40a;" horiz-adv-x="1782" 
d="M849 861v504h293v-504h118q121 0 205 -25t148 -81q142 -124 142 -335q0 -218 -148 -334q-61 -47 -140.5 -66.5t-211.5 -19.5h-406v617h-408v-617h-293v1365h293v-504h408zM1142 617v-367h101q66 0 104 10.5t64 36.5q51 50 51 137q0 94 -50 138.5t-155 44.5h-115z" />
    <glyph glyph-name="afii10060" unicode="&#x40b;" horiz-adv-x="1244" 
d="M583 855q95 116 244 116q172 0 252 -126q49 -78 49 -244v-601h-281v557q0 99 -18 138q-30 63 -97 63q-50 0 -87.5 -35.5t-50.5 -95.5q-11 -51 -11 -159v-468h-293v1115h-235v250h957v-250h-429v-260z" />
    <glyph glyph-name="afii10061" unicode="&#x40c;" horiz-adv-x="1242" 
d="M146 0v1365h286v-571h46l397 571h306l-456 -662l505 -703h-306l-440 601h-52v-601h-286zM951 1720l-198 -246h-233l184 246h247z" />
    <glyph glyph-name="afii10062" unicode="&#x40e;" horiz-adv-x="1133" 
d="M160 -19v233q60 -15 100 -15q57 0 91 31.5t77 124.5l-418 1010h326l240 -713l240 713h320l-439 -1089q-70 -173 -160 -241t-249 -68q-57 0 -128 14zM281 1720h139q28 -107 154 -107t153 107h139q-2 -68 -24 -112q-68 -141 -268 -141q-220 0 -278 164q-12 34 -15 89z" />
    <glyph glyph-name="afii10145" unicode="&#x40f;" horiz-adv-x="1317" 
d="M512 0h-364v1365h293v-1115h435v1115h293v-1365h-364v-205h-293v205z" />
    <glyph glyph-name="afii10017" unicode="&#x410;" horiz-adv-x="1179" 
d="M440 1365h300l432 -1365h-305l-85 305h-389l-86 -305h-300zM456 526h265l-132 471z" />
    <glyph glyph-name="afii10018" unicode="&#x411;" horiz-adv-x="1144" 
d="M441 1111v-236h145q122 0 205.5 -25.5t148.5 -83.5q141 -125 141 -339q0 -222 -148 -339q-61 -48 -140.5 -68t-211.5 -20h-433v1365h829v-254h-536zM441 637v-387h128q66 0 104 11t65 38q50 52 50 142q0 100 -50 148t-155 48h-142z" />
    <glyph glyph-name="afii10019" unicode="&#x412;" horiz-adv-x="1214" 
d="M148 0v1365h487q122 0 198 -19.5t132 -65.5q112 -91 112 -248q0 -201 -196 -292q249 -84 249 -338q0 -222 -168 -333q-105 -69 -281 -69h-533zM441 813h131q108 0 154 33q62 46 62 130q0 94 -75 134q-40 22 -141 22h-131v-319zM441 233h158q123 0 174 41q64 51 64 148
q0 113 -85 159q-50 27 -165 27h-146v-375z" />
    <glyph glyph-name="afii10020" unicode="&#x413;" horiz-adv-x="1040" 
d="M148 1365h829v-254h-536v-1111h-293v1365z" />
    <glyph glyph-name="afii10021" unicode="&#x414;" horiz-adv-x="1283" 
d="M1156 250h109v-455h-293v205h-679v-205h-293v455h49q67 0 98.5 44.5t44.5 158.5l104 912h860v-1115zM863 250v865h-306l-78 -666q-16 -134 -56 -199h440z" />
    <glyph glyph-name="afii10022" unicode="&#x415;" horiz-adv-x="1139" 
d="M148 0v1365h871v-250h-578v-292h528v-238h-528v-335h590v-250h-883z" />
    <glyph glyph-name="afii10024" unicode="&#x416;" horiz-adv-x="1882" 
d="M798 0v601h-52l-440 -601h-306l505 703l-456 662h305l397 -571h47v571h286v-571h46l397 571h306l-456 -662l504 -703h-305l-441 601h-51v-601h-286z" />
    <glyph glyph-name="afii10025" unicode="&#x417;" horiz-adv-x="1197" 
d="M438 585v238h154q98 0 155.5 45t57.5 121q0 72 -52 114.5t-141 42.5q-210 0 -252 -241l-289 1q12 172 120 307q146 183 444 183q201 0 327 -93q136 -101 136 -286q0 -120 -69.5 -204.5t-184.5 -105.5q255 -69 255 -312q0 -174 -128 -296q-138 -132 -361 -132
q-305 0 -450 236q-83 136 -97 326h292q21 -181 94 -253q61 -59 150 -59q95 0 151 54t56 139q0 175 -226 175h-142z" />
    <glyph glyph-name="afii10026" unicode="&#x418;" horiz-adv-x="1301" 
d="M148 1365h281v-809l443 716v93h281v-1365h-281v810l-443 -723v-88l-281 1v1365z" />
    <glyph glyph-name="afii10027" unicode="&#x419;" horiz-adv-x="1301" 
d="M148 1365h281v-809l443 716v93h281v-1365h-281v810l-443 -723v-88l-281 1v1365zM358 1720h139q28 -107 154 -107t153 107h139q-2 -68 -24 -112q-68 -141 -268 -141q-220 0 -278 164q-12 34 -15 89z" />
    <glyph glyph-name="afii10028" unicode="&#x41a;" horiz-adv-x="1242" 
d="M146 0v1365h286v-571h46l397 571h306l-456 -662l505 -703h-306l-440 601h-52v-601h-286z" />
    <glyph glyph-name="afii10029" unicode="&#x41b;" horiz-adv-x="1264" 
d="M518 1115l-78 -711q-17 -152 -46 -222q-48 -117 -132.5 -162.5t-251.5 -45.5v231q70 4 100.5 47t42.5 157l104 956h860v-1365h-293v1115h-306z" />
    <glyph glyph-name="afii10030" unicode="&#x41c;" horiz-adv-x="1567" 
d="M148 0v1365h397l243 -935l237 935h394v-1365h-281v949l-233 -949h-238l-238 937v-937h-281z" />
    <glyph glyph-name="afii10031" unicode="&#x41d;" horiz-adv-x="1317" 
d="M148 0v1365h293v-519h435v519h293v-1365h-293v596h-435v-596h-293z" />
    <glyph glyph-name="afii10032" unicode="&#x41e;" horiz-adv-x="1332" 
d="M669 1396q243 0 400 -176q179 -199 179 -538q0 -290 -135 -485q-80 -115 -202 -176q-109 -54 -242 -54q-290 0 -453 235q-132 190 -132 490q0 326 171 520q162 184 414 184zM667 1146q-136 0 -210 -127q-80 -138 -80 -329q0 -210 79 -346q33 -57 92 -92t122 -35
q60 0 113.5 31.5t86.5 86.5q85 141 85 351q0 198 -78 333q-74 127 -210 127z" />
    <glyph glyph-name="afii10033" unicode="&#x41f;" horiz-adv-x="1317" 
d="M1169 1365v-1365h-293v1115h-435v-1115h-293v1365h1021z" />
    <glyph glyph-name="afii10034" unicode="&#x420;" horiz-adv-x="1144" 
d="M148 0v1365h433q162 0 247 -30q125 -46 194 -159q59 -98 59 -238q0 -235 -167 -360q-116 -88 -328 -88h-145v-490h-293zM441 728h142q117 0 162 55q43 53 43 141q0 100 -61 151q-47 40 -158 40h-128v-387z" />
    <glyph glyph-name="afii10035" unicode="&#x421;" horiz-adv-x="1249" 
d="M893 529h293q-16 -217 -122 -363q-145 -199 -408 -199q-249 0 -395 171q-177 209 -177 541q0 326 171 530q157 187 408 187q269 0 419 -216q85 -123 96 -274l-290 -1q-13 80 -43 130q-64 111 -186 111q-136 0 -208 -129q-74 -134 -74 -335q0 -204 77 -340
q70 -125 202 -125q103 0 161 76.5t76 235.5z" />
    <glyph glyph-name="afii10036" unicode="&#x422;" horiz-adv-x="1066" 
d="M386 0v1115h-331v250h957v-250h-333v-1115h-293z" />
    <glyph glyph-name="afii10037" unicode="&#x423;" horiz-adv-x="1133" 
d="M160 -19v233q60 -15 100 -15q57 0 91 31.5t77 124.5l-418 1010h326l240 -713l240 713h320l-439 -1089q-70 -173 -160 -241t-249 -68q-57 0 -128 14z" />
    <glyph glyph-name="afii10038" unicode="&#x424;" horiz-adv-x="1701" 
d="M996 1365v-149q209 -12 339 -78q140 -71 211 -196q64 -113 64 -260q0 -202 -120 -338q-155 -177 -494 -197v-147h-293v147q-209 13 -339 79q-140 71 -211 196q-64 113 -64 260q0 202 120 338q155 176 494 196v149h293zM703 398v568q-321 -25 -321 -284t321 -284zM996 398
q321 25 321 284t-321 284v-568z" />
    <glyph glyph-name="afii10039" unicode="&#x425;" horiz-adv-x="1120" 
d="M29 1365h332l204 -415l207 415h316l-365 -651l399 -714h-339l-227 450l-233 -450h-325l402 714z" />
    <glyph glyph-name="afii10040" unicode="&#x426;" horiz-adv-x="1297" 
d="M1169 250h109v-455h-293v205h-837v1365h293v-1115h435v1115h293v-1115z" />
    <glyph glyph-name="afii10041" unicode="&#x427;" horiz-adv-x="1332" 
d="M891 467q-104 -58 -256 -58q-206 0 -345 101q-129 94 -155 269q-8 51 -8 136v450h281v-484q0 -111 60 -163q70 -59 203 -59q157 0 200 110q20 50 20 143v453h293v-1365h-293v467z" />
    <glyph glyph-name="afii10042" unicode="&#x428;" horiz-adv-x="1827" 
d="M1679 0h-1531v1365h293v-1115h326v1115h293v-1115h326v1115h293v-1365z" />
    <glyph glyph-name="afii10043" unicode="&#x429;" horiz-adv-x="1806" 
d="M1679 250h109v-455h-293v205h-1347v1365h293v-1115h326v1115h293v-1115h326v1115h293v-1115z" />
    <glyph glyph-name="afii10044" unicode="&#x42a;" horiz-adv-x="1273" 
d="M277 1111h-250v254h543v-490h145q122 0 206 -25.5t148 -83.5q141 -125 141 -339q0 -222 -148 -339q-60 -48 -140 -68t-212 -20h-433v1111zM570 637v-387h128q66 0 104 11t65 38q50 52 50 142q0 100 -50 148t-155 48h-142z" />
    <glyph glyph-name="afii10045" unicode="&#x42b;" horiz-adv-x="1601" 
d="M148 1365h293v-490h145q122 0 206 -25.5t148 -83.5q141 -125 141 -339q0 -222 -148 -339q-61 -48 -140.5 -68t-211.5 -20h-433v1365zM441 637v-387h128q66 0 104 11t65 38q50 52 50 142q0 100 -50 148t-155 48h-142zM1160 0v1365h293v-1365h-293z" />
    <glyph glyph-name="afii10046" unicode="&#x42c;" horiz-adv-x="1144" 
d="M148 1365h293v-490h145q122 0 206 -25.5t148 -83.5q141 -125 141 -339q0 -222 -148 -339q-61 -48 -140.5 -68t-211.5 -20h-433v1365zM441 637v-387h128q66 0 104 11t65 38q50 52 50 142q0 100 -50 148t-155 48h-142z" />
    <glyph glyph-name="afii10047" unicode="&#x42d;" horiz-adv-x="1249" 
d="M861 823q-14 83 -41 147q-74 176 -230 176q-92 0 -150.5 -61.5t-79.5 -179.5l-289 1q12 172 120 307q148 183 395 183q251 0 408 -187q171 -205 171 -530q0 -332 -178 -541q-145 -171 -394 -171q-287 0 -433 236q-83 136 -97 326h292q16 -137 63 -213q61 -99 174 -99
q111 0 185 99t90 269h-429v238h423z" />
    <glyph glyph-name="afii10048" unicode="&#x42e;" horiz-adv-x="1823" 
d="M587 846q27 168 93 277q84 140 221 212q117 61 258 61q245 0 401 -176q179 -200 179 -537q0 -291 -135 -486q-80 -115 -202 -176q-109 -54 -243 -54q-225 0 -381 151q-175 170 -200 478h-137v-596h-293v1365h293v-519h146zM1158 1146q-136 0 -210 -127q-80 -138 -80 -328
q0 -210 79 -347q33 -57 92 -92t122 -35q60 0 113.5 31.5t86.5 86.5q85 141 85 351q0 199 -78 333q-74 127 -210 127z" />
    <glyph glyph-name="afii10049" unicode="&#x42f;" horiz-adv-x="1268" 
d="M1119 0h-293v536h-168q-77 0 -117.5 -20.5t-63.5 -72.5q-17 -36 -24.5 -91t-21.5 -236q-5 -69 -24 -116h-302q23 39 32 77t15 117q13 184 25.5 250t45.5 113q42 61 119 88q-74 37 -119 96q-77 102 -77 243q0 181 117.5 281t330.5 100h525v-1365zM826 757v375h-167
q-112 0 -157 -36q-63 -50 -63 -147q0 -100 54 -146t172 -46h161z" />
    <glyph glyph-name="afii10065" unicode="&#x430;" horiz-adv-x="1033" 
d="M1010 189v-177q-56 -24 -120 -24q-129 0 -195 102q-49 -48 -90 -71q-87 -48 -214 -48q-145 0 -231 64q-104 77 -104 212q0 149 117 233q69 50 163.5 68t308.5 24v76q0 147 -134 147q-122 0 -134 -127h-284q9 144 110 222q105 81 287 81q261 0 371 -108q45 -44 59 -98.5
t14 -189.5v-315q0 -46 9.5 -63.5t34.5 -17.5q10 0 32 10zM645 429q-111 -5 -171 -19q-65 -16 -101 -53t-36 -89q0 -49 28.5 -76.5t78.5 -27.5q105 0 163 87q38 57 38 128v50z" />
    <glyph glyph-name="afii10066" unicode="&#x431;" horiz-adv-x="1028" 
d="M635 1403h216l1 -58q2 -136 -24 -189q-19 -38 -64 -59t-142 -38q-119 -20 -157 -37t-80 -69q70 19 139 19q227 0 360 -161q111 -134 111 -340q0 -214 -117 -347q-133 -153 -359 -153q-237 0 -366 162q-107 134 -107 367q0 332 125 530q113 179 372 218q65 10 78 25
q13 16 13 83zM509 774q-82 0 -130 -72q-59 -87 -59 -226q0 -140 51 -227q47 -81 138 -81q83 0 131 71q59 86 59 233q0 146 -60 231q-50 71 -130 71z" />
    <glyph glyph-name="afii10067" unicode="&#x432;" horiz-adv-x="973" 
d="M98 0v942h519q107 0 179 -36q113 -57 113 -192q0 -153 -167 -204q201 -55 201 -236q0 -152 -131 -228q-80 -46 -232 -46h-482zM375 399v-202h130q148 0 148 101t-148 101h-130zM375 745v-156h130q58 0 91.5 21.5t33.5 57.5q0 77 -125 77h-130z" />
    <glyph glyph-name="afii10068" unicode="&#x433;" horiz-adv-x="777" 
d="M386 739v-739h-281v942h668v-203h-387z" />
    <glyph glyph-name="afii10069" unicode="&#x434;" horiz-adv-x="1087" 
d="M994 203h101v-408h-281v205h-550v-205h-281v408h35q99 0 113 130l67 609h796v-739zM713 203v536h-239l-57 -420q-8 -65 -36 -116h332z" />
    <glyph glyph-name="afii10070" unicode="&#x435;" horiz-adv-x="994" 
d="M960 403h-626q12 -243 177 -243q101 0 143 100h282q-20 -75 -74 -140q-122 -149 -347 -149q-215 0 -343 129q-135 137 -135 366q0 212 123 353q132 152 343 152q168 0 285 -101q85 -74 126 -184.5t46 -282.5zM663 571q-6 65 -25 110q-43 102 -137 102q-68 0 -112 -56.5
t-54 -155.5h328z" />
    <glyph glyph-name="afii10072" unicode="&#x436;" horiz-adv-x="1527" 
d="M630 404h-47l-334 -404h-273l409 500l-381 442h273l302 -358h51v358h274v-358h46l304 359h273l-383 -443l408 -500h-273l-333 404h-42v-404h-274v404z" />
    <glyph glyph-name="afii10073" unicode="&#x437;" horiz-adv-x="928" 
d="M423 582h65q61 0 95.5 24.5t34.5 67.5q0 47 -35.5 73.5t-97.5 26.5q-143 0 -171 -164l-292 1q16 179 150 277q115 83 310 83q149 0 246 -44q78 -37 119 -99q38 -59 38 -125q0 -78 -47 -134t-131 -77q201 -57 201 -227q0 -132 -110 -214q-107 -80 -299 -80q-189 0 -294 71
q-157 106 -185 320h287q23 -195 186 -195q68 0 108 30t40 82q0 47 -42 73.5t-118 26.5h-58v203z" />
    <glyph glyph-name="afii10074" unicode="&#x438;" horiz-adv-x="1064" 
d="M377 0h-282v942h282v-449l311 366v83h282v-942h-282v449l-311 -364v-85z" />
    <glyph glyph-name="afii10075" unicode="&#x439;" horiz-adv-x="1065" 
d="M377 0h-282v942h282v-449l311 366v83h282v-942h-282v449l-311 -364v-85zM249 1365h141q28 -120 142 -120q115 0 142 120h142q-3 -73 -24 -121q-65 -152 -260 -152q-213 0 -269 178q-12 37 -14 95z" />
    <glyph glyph-name="afii10076" unicode="&#x43a;" horiz-adv-x="1007" 
d="M91 0v942h274v-358h47l308 359h276l-387 -443l413 -500h-277l-337 404h-43v-404h-274z" />
    <glyph glyph-name="afii10077" unicode="&#x43b;" horiz-adv-x="1062" 
d="M448 739l-52 -429q-27 -213 -169 -287q-79 -41 -234 -40v212q111 -1 123 149l69 598h782v-942h-298v739h-221z" />
    <glyph glyph-name="afii10078" unicode="&#x43c;" horiz-adv-x="1279" 
d="M742 0h-206l-181 570v-570h-269v942h364l189 -620l189 620h364v-942h-269v570z" />
    <glyph glyph-name="afii10079" unicode="&#x43d;" horiz-adv-x="1064" 
d="M376 393v-393h-281v942h281v-346h313v346h281v-942h-281v393h-313z" />
    <glyph glyph-name="afii10080" unicode="&#x43e;" horiz-adv-x="1022" 
d="M513 971q212 0 342 -133q134 -135 134 -373q0 -231 -142 -369q-129 -125 -335 -125q-219 0 -350 140q-129 137 -129 361q0 219 125 353q136 146 355 146zM501 774q-86 0 -136.5 -81.5t-50.5 -220.5q0 -141 49 -221q50 -83 141 -83q86 0 134 76q53 84 53 224t-47 219
q-51 87 -143 87z" />
    <glyph glyph-name="afii10081" unicode="&#x43f;" horiz-adv-x="1064" 
d="M970 942v-942h-282v739h-312v-739h-281v942h875z" />
    <glyph glyph-name="afii10082" unicode="&#x440;" horiz-adv-x="1072" 
d="M94 942h292v-79q95 108 249 108q195 0 308 -163q97 -138 97 -347q0 -226 -112 -356q-54 -62 -131 -97q-79 -37 -164 -37q-154 0 -258 108v-434h-281v1297zM566 758q-82 0 -131 -78t-49 -208q0 -129 47 -208q48 -80 132 -80q81 0 127 75q50 81 50 210q0 110 -39 191
q-48 98 -137 98z" />
    <glyph glyph-name="afii10083" unicode="&#x441;" horiz-adv-x="969" 
d="M950 611l-292 -1q-28 164 -153 164q-90 0 -139 -82q-50 -84 -50 -224t49 -220t135 -80q68 0 110.5 50.5t54.5 143.5h286q-18 -143 -95 -238q-124 -153 -350 -153q-205 0 -332 125q-139 138 -139 369q0 246 150 386q127 120 327 120q187 0 304.5 -96.5t133.5 -263.5z" />
    <glyph glyph-name="afii10084" unicode="&#x442;" horiz-adv-x="722" 
d="M502 766v-766h-281v766h-226v176h732v-176h-225z" />
    <glyph glyph-name="afii10085" unicode="&#x443;" horiz-adv-x="917" 
d="M-21 942h316l171 -606l165 606l306 -1l-321 -956q-41 -121 -78.5 -184t-87.5 -97q-88 -59 -243 -59q-64 0 -127 10v215q52 -12 92 -12q128 0 128 112q0 41 -18 93z" />
    <glyph glyph-name="afii10086" unicode="&#x444;" horiz-adv-x="1360" 
d="M826 1365v-469q64 75 175 75q157 0 252 -143q94 -142 94 -356q0 -221 -97 -365q-93 -137 -250 -137q-108 0 -174 77v-402h-291v402q-66 -77 -176 -77q-155 0 -248 137q-97 144 -97 365q0 214 94 356q95 143 253 143q110 0 174 -75v469h291zM413 774q-46 0 -77 -52
q-45 -77 -45 -251q0 -303 125 -303q119 0 119 301q0 305 -122 305zM939 774q-113 0 -113 -305q0 -145 28.5 -223t80.5 -78q119 0 119 302q0 146 -30 225t-85 79z" />
    <glyph glyph-name="afii10087" unicode="&#x445;" horiz-adv-x="911" 
d="M-2 942h330l128 -221l126 221h323l-288 -439l324 -503l-332 -1l-156 274l-155 -273h-328l318 497z" />
    <glyph glyph-name="afii10088" unicode="&#x446;" horiz-adv-x="1064" 
d="M975 203h96v-408h-281v205h-696v942h281v-739h302v739h298v-739z" />
    <glyph glyph-name="afii10089" unicode="&#x447;" horiz-adv-x="1076" 
d="M347 942v-288q0 -72 31 -102q45 -44 143 -44q132 0 168 105q13 39 13 126v203h281v-942h-281v344q-93 -49 -251 -49q-225 0 -324 106q-34 37 -48.5 84.5t-14.5 124.5v332h283z" />
    <glyph glyph-name="afii10090" unicode="&#x448;" horiz-adv-x="1412" 
d="M1331 0h-1250v942h281v-739h193v739h302v-739h193v739h281v-942z" />
    <glyph glyph-name="afii10091" unicode="&#x449;" horiz-adv-x="1418" 
d="M1329 203h102v-408h-281v205h-1070v942h281v-739h194v739h298v-739h194v739h282v-739z" />
    <glyph glyph-name="afii10092" unicode="&#x44a;" horiz-adv-x="1045" 
d="M-7 942h519v-334h134q391 0 391 -297q0 -155 -115 -239q-55 -41 -117 -56.5t-168 -15.5h-402v739h-242v203zM512 411v-214h75q159 0 159 107t-159 107h-75z" />
    <glyph glyph-name="afii10093" unicode="&#x44b;" horiz-adv-x="1327" 
d="M84 0v942h277v-335h134q389 0 389 -297q0 -154 -114 -238q-55 -41 -117 -56.5t-167 -15.5h-402zM966 0v942h277v-942h-277zM383 411v-214h75q153 0 153 107t-153 107h-75z" />
    <glyph glyph-name="afii10094" unicode="&#x44c;" horiz-adv-x="920" 
d="M100 0v942h277v-334h136q394 0 394 -297q0 -155 -116 -239q-55 -41 -118 -56.5t-169 -15.5h-404zM377 411v-214h76q181 0 181 107t-181 107h-76z" />
    <glyph glyph-name="afii10095" unicode="&#x44d;" horiz-adv-x="969" 
d="M627 582q-39 192 -170 192q-119 0 -145 -164l-292 1q13 142 104 237q120 123 334 123q199 0 327 -120q150 -140 150 -386q0 -231 -139 -369q-127 -125 -333 -125q-186 0 -303.5 103t-141.5 288h287q23 -194 157 -194q67 0 112.5 56.5t56.5 154.5h-210v203h206z" />
    <glyph glyph-name="afii10096" unicode="&#x44e;" horiz-adv-x="1440" 
d="M456 393h-96v-393h-281v942h281v-346h104q19 95 67 169q134 206 409 206q215 0 347 -133q136 -136 136 -365q0 -239 -144 -377q-131 -125 -341 -125q-173 0 -293 86q-158 112 -189 336zM946 774q-88 0 -140 -81.5t-52 -220.5q0 -141 50 -221q52 -83 145 -83q88 0 137 76
q55 84 55 224t-48 219q-53 87 -147 87z" />
    <glyph glyph-name="afii10097" unicode="&#x44f;" horiz-adv-x="956" 
d="M264 442q-90 20 -135 57q-77 64 -77 173q0 135 116 208q56 35 117.5 48.5t169.5 13.5h403v-942h-277v335h-51q-103 0 -138 -37.5t-44 -158.5q-5 -74 -10 -98t-17 -41h-309q25 25 33.5 61.5t20.5 168.5q7 80 26 120t61 64q40 22 111 28zM581 532v213h-76q-178 0 -178 -106
q0 -107 178 -107h76z" />
    <glyph glyph-name="afii10071" unicode="&#x451;" horiz-adv-x="994" 
d="M960 403h-626q12 -243 177 -243q101 0 143 100h282q-20 -75 -74 -140q-122 -149 -347 -149q-215 0 -343 129q-135 137 -135 366q0 212 123 353q132 152 343 152q168 0 285 -101q85 -74 126 -184.5t46 -282.5zM663 571q-6 65 -25 110q-43 102 -137 102q-68 0 -112 -56.5
t-54 -155.5h328zM803 1324v-246h-253v246h253zM440 1324v-246h-251v246h251z" />
    <glyph glyph-name="afii10099" unicode="&#x452;" horiz-adv-x="1052" 
d="M387 0h-289v1131h-124v146h124v88h281v-88h180v-146h-180v-276q85 116 239 116q168 0 263 -126q116 -155 116 -422q0 -136 -31 -256.5t-85 -197.5q-105 -147 -289 -147q-54 0 -130 18v213q53 -14 83 -14q91 0 136 122q35 97 35 240q0 172 -45 266t-128 94
q-77 0 -116.5 -64.5t-39.5 -190.5v-506z" />
    <glyph glyph-name="afii10100" unicode="&#x453;" horiz-adv-x="777" 
d="M386 739v-739h-281v942h668v-203h-387zM724 1365l-211 -273h-217l194 273h234z" />
    <glyph glyph-name="afii10101" unicode="&#x454;" horiz-adv-x="969" 
d="M343 582h206v-203h-210q14 -102 57.5 -156.5t111.5 -54.5q65 0 105.5 50.5t51.5 143.5h287q-19 -143 -96 -238q-123 -153 -350 -153q-205 0 -332 125q-139 138 -139 369q0 246 150 386q127 120 327 120q187 0 304.5 -96.5t133.5 -263.5l-292 -1q-26 164 -146 164
q-135 0 -169 -192z" />
    <glyph glyph-name="afii10102" unicode="&#x455;" horiz-adv-x="932" 
d="M59 284h275q18 -131 147 -131q56 0 89 26.5t33 71.5q0 63 -74 101q-30 17 -130 49q-168 54 -222 93q-109 77 -109 196q0 62 28.5 119t77.5 91q100 71 267 71q224 0 334 -131q50 -60 66 -144h-277q-27 91 -114 91q-44 0 -69.5 -22.5t-25.5 -60.5q0 -56 68 -90
q29 -15 161 -54q123 -37 192 -86q106 -75 106 -206q0 -136 -106.5 -216.5t-286.5 -80.5q-130 0 -217.5 35.5t-145.5 112.5q-55 73 -67 165z" />
    <glyph glyph-name="afii10103" unicode="&#x456;" horiz-adv-x="540" 
d="M121 1092v273h298v-273h-298zM121 0v942h281v-942h-281z" />
    <glyph glyph-name="afii10104" unicode="&#x457;" horiz-adv-x="545" 
d="M132 0v942h281v-942h-281zM525 1324v-246h-198v246h198zM217 1324v-246h-196v246h196z" />
    <glyph glyph-name="afii10105" unicode="&#x458;" horiz-adv-x="529" 
d="M-26 -347v213q42 -4 54 -4q52 0 67 28t15 124v928h298v-965q0 -187 -84 -264q-75 -68 -233 -68q-48 0 -117 8zM110 1092v273h298v-273h-298z" />
    <glyph glyph-name="afii10106" unicode="&#x459;" horiz-adv-x="1393" 
d="M643 0v739h-195l-53 -429q-27 -213 -171 -287q-80 -41 -238 -40v212q113 0 125 149l69 598h740v-335h104q388 0 388 -297q0 -154 -114 -238q-55 -41 -116.5 -56.5t-166.5 -15.5h-372zM920 410v-213h45q174 0 174 106q0 107 -174 107h-45z" />
    <glyph glyph-name="afii10107" unicode="&#x45a;" horiz-adv-x="1389" 
d="M639 411h-276v-411h-281v942h281v-340h276v340h277v-340h104q388 0 388 -294q0 -153 -114 -237q-55 -40 -116.5 -55.5t-166.5 -15.5h-372v411zM916 411v-214h45q174 0 174 106q0 108 -174 108h-45z" />
    <glyph glyph-name="afii10108" unicode="&#x45b;" horiz-adv-x="1055" 
d="M101 1131h-127v146h127v88h281v-88h183v-146h-183v-276q107 116 260 116q185 0 270 -126q53 -78 53 -244v-601h-281v557q0 99 -20 138q-33 63 -108 63q-98 0 -141 -101q-23 -52 -23 -193v-464h-291v1131z" />
    <glyph glyph-name="afii10109" unicode="&#x45c;" horiz-adv-x="1006" 
d="M91 0v942h274v-358h47l308 359h276l-387 -443l413 -500h-277l-337 404h-43v-404h-274zM842 1365l-211 -273h-217l194 273h234z" />
    <glyph glyph-name="afii10110" unicode="&#x45e;" horiz-adv-x="917" 
d="M-21 942h316l171 -606l165 606l306 -1l-321 -956q-41 -121 -78.5 -184t-87.5 -97q-88 -59 -243 -59q-64 0 -127 10v215q52 -12 92 -12q128 0 128 112q0 41 -18 93zM175 1365h141q28 -120 142 -120q115 0 142 120h142q-3 -73 -24 -121q-65 -152 -260 -152q-213 0 -269 178
q-12 37 -14 95z" />
    <glyph glyph-name="afii10193" unicode="&#x45f;" horiz-adv-x="1065" 
d="M377 0h-282v942h281v-739h293v739h301v-942h-292v-205h-301v205z" />
    <glyph glyph-name="afii10050" unicode="&#x490;" horiz-adv-x="1040" 
d="M977 1488v-377h-536v-1111h-293v1365h536v123h293z" />
    <glyph glyph-name="afii10098" unicode="&#x491;" horiz-adv-x="777" 
d="M773 1051v-312h-387v-739h-281v942h379v109h289z" />
    <glyph glyph-name="uni04C0" unicode="&#x4c0;" horiz-adv-x="589" 
d="M148 0v1365h293v-1365h-293z" />
    <glyph glyph-name="Wgrave" unicode="&#x1e80;" horiz-adv-x="1561" 
d="M10 1365h294l162 -936l176 936h279l174 -938l165 938h292l-308 -1365h-293l-172 927l-169 -927h-296zM488 1720h248l183 -246h-232z" />
    <glyph glyph-name="wgrave" unicode="&#x1e81;" horiz-adv-x="1510" 
d="M636 1l-306 -1l-279 942h312l133 -592l119 592h290l122 -588l133 588h300l-271 -941l-305 -1l-127 582zM470 1365h234l194 -273h-217z" />
    <glyph glyph-name="Wacute" unicode="&#x1e82;" horiz-adv-x="1561" 
d="M10 1365h294l162 -936l176 936h279l174 -938l165 938h292l-308 -1365h-293l-172 927l-169 -927h-296zM1068 1720l-198 -246h-233l184 246h247z" />
    <glyph glyph-name="wacute" unicode="&#x1e83;" horiz-adv-x="1510" 
d="M636 1l-306 -1l-279 942h312l133 -592l119 592h290l122 -588l133 588h300l-271 -941l-305 -1l-127 582zM1041 1365l-211 -273h-217l194 273h234z" />
    <glyph glyph-name="Wdieresis" unicode="&#x1e84;" horiz-adv-x="1561" 
d="M10 1365h294l162 -936l176 936h279l174 -938l165 938h292l-308 -1365h-293l-172 927l-169 -927h-296zM1072 1712v-246h-238v246h238zM730 1712v-246h-237v246h237z" />
    <glyph glyph-name="wdieresis" unicode="&#x1e85;" horiz-adv-x="1510" 
d="M636 1l-306 -1l-279 942h312l133 -592l119 592h290l122 -588l133 588h300l-271 -941l-305 -1l-127 582zM1062 1324v-246h-253v246h253zM700 1324v-246h-251v246h251z" />
    <glyph glyph-name="uni1E9E" unicode="&#x1e9e;" horiz-adv-x="1234" 
d="M1087 1157l-271 -325q97 -10 168 -54q90 -55 138.5 -147.5t48.5 -208.5q0 -232 -172 -344q-54 -35 -139 -56.5t-168 -21.5q-116 0 -209 41l110 225q66 -15 111 -15q72 0 123.5 60t51.5 144q0 105 -69.5 154t-218.5 49h-45v199l225 274l-157 -1q-91 -1 -143 -56t-52 -151
v-923h-292v978q0 226 212 332q110 55 240 55h508v-208z" />
    <glyph glyph-name="Ygrave" unicode="&#x1ef2;" horiz-adv-x="1153" 
d="M7 1365h326l246 -540l246 540h321l-423 -837v-528h-293v532zM279 1720h248l183 -246h-232z" />
    <glyph glyph-name="ygrave" unicode="&#x1ef3;" 
d="M51 942h316l171 -606l165 606l306 -1l-321 -956q-41 -121 -78.5 -184t-87.5 -97q-88 -59 -243 -59q-64 0 -127 10v215q52 -12 92 -12q128 0 128 112q0 41 -18 93zM245 1365h234l194 -273h-217z" />
    <glyph glyph-name="uni2000" unicode="&#x2000;" horiz-adv-x="1350" 
 />
    <glyph glyph-name="uni2001" unicode="&#x2001;" horiz-adv-x="2682" 
 />
    <glyph glyph-name="uni2002" unicode="&#x2002;" horiz-adv-x="1350" 
 />
    <glyph glyph-name="uni2003" unicode="&#x2003;" horiz-adv-x="2682" 
 />
    <glyph glyph-name="uni2004" unicode="&#x2004;" horiz-adv-x="907" 
 />
    <glyph glyph-name="uni2005" unicode="&#x2005;" horiz-adv-x="685" 
 />
    <glyph glyph-name="uni2006" unicode="&#x2006;" horiz-adv-x="462" 
 />
    <glyph glyph-name="uni2007" unicode="&#x2007;" horiz-adv-x="1486" 
 />
    <glyph glyph-name="uni2008" unicode="&#x2008;" horiz-adv-x="733" 
 />
    <glyph glyph-name="uni2009" unicode="&#x2009;" horiz-adv-x="552" 
 />
    <glyph glyph-name="uni200A" unicode="&#x200a;" horiz-adv-x="285" 
 />
    <glyph glyph-name="uni200B" unicode="&#x200b;" horiz-adv-x="19" 
 />
    <glyph glyph-name="uni2010" unicode="&#x2010;" horiz-adv-x="472" 
d="M463 633v-246h-453v246h453z" />
    <glyph glyph-name="uni2011" unicode="&#x2011;" horiz-adv-x="472" 
d="M463 633v-246h-453v246h453z" />
    <glyph glyph-name="figuredash" unicode="&#x2012;" horiz-adv-x="1076" 
d="M935 633v-246h-793v246h793z" />
    <glyph glyph-name="afii00208" unicode="&#x2015;" horiz-adv-x="1559" 
d="M1437 633v-246h-1310v246h1310z" />
    <glyph glyph-name="quotereversed" unicode="&#x201b;" horiz-adv-x="410" 
 />
    <glyph glyph-name="uni203E" unicode="&#x203e;" horiz-adv-x="1068" 
d="M63 1662h942v-187h-942v187z" />
    <glyph glyph-name="zerosuperior" unicode="&#x2070;" horiz-adv-x="645" 
d="M324 1382q134 0 206.5 -112t72.5 -319q0 -191 -68 -300q-77 -122 -210 -122q-134 0 -208.5 112.5t-74.5 316.5q0 196 70 304q78 120 212 120zM323 1222q-95 0 -95 -266q0 -267 94 -267q95 0 95 264q0 269 -94 269z" />
    <glyph glyph-name="foursuperior" unicode="&#x2074;" horiz-adv-x="600" 
d="M497 546h-181v170h-302v164l315 485h168v-491h86v-158h-86v-170zM316 874v198l-116 -198h116z" />
    <glyph glyph-name="fivesuperior" unicode="&#x2075;" horiz-adv-x="634" 
d="M106 1365h435v-167h-278l-18 -115q47 22 100 22q103 0 171 -65q76 -74 76 -205q0 -139 -91 -227q-80 -78 -201 -78q-84 0 -150 33.5t-99 92.5q-24 44 -27 118h195q2 -11 3 -17q9 -67 82 -67q45 0 71.5 36t26.5 97q0 63 -25.5 99.5t-69.5 36.5q-30 0 -47.5 -13t-40.5 -52
h-175z" />
    <glyph glyph-name="sixsuperior" unicode="&#x2076;" horiz-adv-x="652" 
d="M593 1157h-191q-2 10 -4 15q-13 59 -58 59q-74 0 -98 -166q56 41 123 41q105 0 175 -77q71 -77 71 -204q0 -138 -87 -221q-78 -75 -188 -75q-139 0 -216.5 107t-77.5 299q0 228 92 345q79 102 208 102q158 0 223 -124q18 -35 28 -101zM330 957q-39 0 -66 -39t-27 -95
q0 -58 27 -96.5t68 -38.5q39 0 66 38.5t27 95.5t-27.5 96t-67.5 39z" />
    <glyph glyph-name="sevensuperior" unicode="&#x2077;" horiz-adv-x="564" 
d="M26 1365h511v-149q-6 -8 -12 -17q-134 -183 -178 -401q-22 -107 -29 -252h-203q3 155 61 331t153 314h-303v174z" />
    <glyph glyph-name="eightsuperior" unicode="&#x2078;" horiz-adv-x="658" 
d="M157 986q-87 56 -87 172q0 108 83 169q76 55 178 55q114 0 186 -62t72 -160q0 -111 -89 -174q116 -62 116 -201q0 -115 -80 -185q-79 -70 -207 -70q-126 0 -206 66q-81 67 -81 184q0 140 115 206zM334 1234q-35 0 -56 -24t-21 -65q0 -46 21.5 -72t58.5 -26q35 0 55.5 26
t20.5 71q0 90 -79 90zM327 910q-43 0 -70.5 -31.5t-27.5 -81.5q0 -53 27.5 -84.5t74.5 -31.5q43 0 70.5 31t27.5 81q0 53 -28 85t-74 32z" />
    <glyph glyph-name="ninesuperior" unicode="&#x2079;" horiz-adv-x="652" 
d="M60 754h191l3 -15q13 -59 59 -59q72 0 98 166q-56 -40 -124 -40q-104 0 -174 77q-71 78 -71 204q0 138 86 221q77 74 186 74q140 0 218.5 -109.5t78.5 -304.5q0 -224 -92 -339q-79 -100 -208 -100q-159 0 -223 124q-18 35 -28 101zM321 1223q-39 0 -66 -38t-27 -93
q0 -58 27 -97.5t68 -39.5q39 0 66 39.5t27 96.5q0 56 -27.5 94t-67.5 38z" />
    <glyph glyph-name="parenleftsuperior" unicode="&#x207d;" horiz-adv-x="425" 
d="M364 341h-163q-141 240 -141 509q0 137 39 279t102 236h159q-15 -33 -42 -89q-39 -82 -61.5 -195t-22.5 -227q0 -276 130 -513z" />
    <glyph glyph-name="parenrightsuperior" unicode="&#x207e;" horiz-adv-x="424" 
d="M60 341q129 244 129 512q0 135 -24.5 241.5t-85.5 234.5q-1 3 -16 36h159q63 -94 102 -236t39 -280q0 -272 -141 -508h-162z" />
    <glyph glyph-name="nsuperior" unicode="&#x207f;" horiz-adv-x="624" 
d="M43 546v575h196v-28q63 45 136 45q206 0 206 -229v-363h-194v337q0 57 -14 79.5t-50 22.5q-50 0 -74 -49q-13 -27 -13 -107v-283h-193z" />
    <glyph glyph-name="zeroinferior" unicode="&#x2080;" horiz-adv-x="645" 
d="M324 836q134 0 206.5 -112t72.5 -319q0 -191 -68 -300q-77 -122 -210 -122q-134 0 -208.5 112.5t-74.5 316.5q0 196 70 304q78 120 212 120zM323 676q-95 0 -95 -266q0 -267 94 -267q95 0 95 264q0 269 -94 269z" />
    <glyph glyph-name="oneinferior" unicode="&#x2081;" horiz-adv-x="488" 
d="M150 0v550q-41 -30 -119 -30q-8 0 -23 1v146q91 3 130.5 36t51.5 116h146v-819h-186z" />
    <glyph glyph-name="twoinferior" unicode="&#x2082;" horiz-adv-x="591" 
d="M562 167v-167h-557q0 140 47 227q28 53 71.5 92t154.5 111q60 39 86 75.5t26 81.5q0 38 -24 61t-64 23q-80 0 -87 -111h-196q7 117 71 190q77 88 207 88q127 0 202 -72q70 -66 70 -170q0 -91 -47 -154t-177 -146q-71 -45 -96.5 -70t-35.5 -59h349z" />
    <glyph glyph-name="threeinferior" unicode="&#x2083;" horiz-adv-x="607" 
d="M221 577h-192q2 107 55 169q73 89 216 89q119 0 191 -65q70 -63 70 -165q0 -113 -87 -169q112 -61 112 -193q0 -111 -79 -184q-82 -76 -215 -76q-170 0 -244 112q-37 55 -37 133q0 5 1 20h193q0 -54 21.5 -78t69.5 -24q45 0 71 28.5t26 77.5q0 53 -30 77t-96 24h-39v142
h54q44 0 70.5 27t26.5 71q0 84 -82 84q-74 0 -76 -100z" />
    <glyph glyph-name="fourinferior" unicode="&#x2084;" horiz-adv-x="598" 
d="M498 0h-181v171h-308v163l321 485h168v-492h88v-156h-88v-171zM317 327v206l-123 -206h123z" />
    <glyph glyph-name="fiveinferior" unicode="&#x2085;" horiz-adv-x="634" 
d="M106 819h435v-167h-278l-18 -115q47 22 100 22q103 0 171 -66q76 -73 76 -204q0 -140 -91 -228q-80 -78 -201 -78q-84 0 -150 34t-99 93q-24 44 -27 118h195q2 -11 3 -17q9 -68 82 -68q45 0 71.5 36t26.5 98q0 63 -25.5 99.5t-69.5 36.5q-29 0 -47.5 -13.5t-40.5 -51.5
h-175z" />
    <glyph glyph-name="sixinferior" unicode="&#x2086;" horiz-adv-x="652" 
d="M593 610h-191q-2 10 -4 15q-13 59 -58 59q-74 0 -98 -166q55 41 123 41q105 0 175 -76q71 -78 71 -204q0 -138 -87 -221q-78 -75 -188 -75q-139 0 -216.5 107t-77.5 299q0 226 92 344q79 102 208 102q158 0 223 -124q18 -35 28 -101zM330 411q-39 0 -66 -39t-27 -95
q0 -58 27 -96.5t68 -38.5q39 0 66 38.5t27 95.5t-27.5 96t-67.5 39z" />
    <glyph glyph-name="seveninferior" unicode="&#x2087;" horiz-adv-x="573" 
d="M45 819h483v-149l-7 -10q-100 -142 -151 -313q-39 -141 -49 -347h-192q3 156 58 331.5t144 313.5h-286v174z" />
    <glyph glyph-name="eightinferior" unicode="&#x2088;" horiz-adv-x="658" 
d="M157 440q-87 56 -87 172q0 108 83 169q76 55 178 55q114 0 186 -62t72 -160q0 -111 -89 -174q116 -62 116 -202q0 -114 -80 -184q-80 -71 -207 -71q-126 0 -206 66q-81 67 -81 184q0 141 115 207zM329 688q-38 0 -60.5 -24t-22.5 -65q0 -46 23 -72t63 -26q37 0 59 26
t22 71q0 90 -84 90zM327 364q-43 0 -70.5 -32t-27.5 -82q0 -53 28 -84.5t74 -31.5q43 0 70.5 31.5t27.5 81.5q0 52 -28 84.5t-74 32.5z" />
    <glyph glyph-name="nineinferior" unicode="&#x2089;" horiz-adv-x="652" 
d="M60 208h191l3 -15q13 -59 59 -59q72 0 98 166q-57 -40 -124 -40q-105 0 -174 76q-71 78 -71 205q0 138 86 221q77 74 186 74q140 0 218.5 -109.5t78.5 -305.5q0 -223 -92 -338q-78 -100 -208 -100q-159 0 -223 124q-18 35 -28 101zM321 677q-39 0 -66 -38t-27 -93
q0 -59 27 -98t68 -39q39 0 66 39.5t27 96.5q0 56 -27 94t-68 38z" />
    <glyph glyph-name="franc" unicode="&#x20a3;" horiz-adv-x="1467" 
d="M148 0v1365h819v-236h-537v-264h343v-224h-343v-641h-282zM882 0v865h271v-119q93 148 233 148q34 0 68 -9v-244q-53 15 -89 15q-123 0 -174 -122q-28 -66 -28 -214v-320h-281z" />
    <glyph glyph-name="lira" unicode="&#x20a4;" horiz-adv-x="953" 
d="M400 816h340v-199h-243q5 -26 6 -53h237v-199h-287q-23 -41 -129 -168q91 63 138 63q29 0 81 -40q30 -23 58 -23q80 0 91 120h216q-9 -153 -64 -239q-68 -107 -197 -107q-68 0 -156 43q-69 33 -132 33q-55 0 -92.5 -13t-117.5 -61l-107 172q138 94 191 220h-200v199h212
q-5 23 -14 53h-198v199h91q-66 113 -66 225q0 161 125 262q109 89 278 89q262 0 360 -181q46 -86 49 -198h-253q-5 146 -155 146q-70 0 -107 -39q-39 -43 -39 -104q0 -77 84 -200z" />
    <glyph glyph-name="peseta" unicode="&#x20a7;" horiz-adv-x="2257" 
d="M148 0v1365h433q162 0 247 -30q125 -46 194 -159q59 -98 59 -238q0 -235 -167 -360q-116 -88 -328 -88h-145v-490h-293zM441 728h142q117 0 162 55q43 53 43 141q0 100 -61 151q-47 40 -158 40h-128v-387zM1092 610v142h107v49l152 202h74v-251h131v-142h-131v-358
q2 -60 6 -77q10 -35 63 -35q22 0 54 10v-161q-69 -14 -130 -14q-136 0 -185 73q-21 30 -27.5 70.5t-6.5 140.5v351h-107zM1587 223h210q13 -105 111 -105q42 0 67 21t25 58q0 41 -30 64.5t-125 55.5q-127 44 -168 74q-83 62 -83 158q0 104 76 165t207 61q171 0 254 -105
q38 -48 50 -116h-210q-20 73 -87 73q-72 0 -72 -67q0 -45 51 -72q24 -12 123 -44q94 -30 145 -68q81 -61 81 -166q0 -109 -80.5 -174t-217.5 -65q-191 0 -276 119q-41 59 -51 133z" />
    <glyph glyph-name="uni2101" unicode="&#x2101;" horiz-adv-x="1705" 
d="M270 1365h195l259 -819h-207l-50 177h-202l-50 -177h-205zM310 881h113l-56 201zM1056 260h200l3 -18q16 -97 92 -97q40 0 64 22.5t24 60.5q0 39 -26.5 61t-107.5 51q-99 35 -144 71q-92 73 -92 190q0 102 65 166q71 70 195 70q181 0 253 -137q21 -40 32 -119h-196
q-5 42 -14 56q-22 35 -76 35q-73 0 -73 -65q0 -36 28.5 -57t114.5 -49q102 -33 160 -79q85 -68 85 -183q0 -113 -79 -185q-82 -73 -216 -73q-126 0 -200.5 71t-91.5 208zM732 0h-172l588 1365h169z" />
    <glyph glyph-name="estimated" unicode="&#x212e;" horiz-adv-x="994" 
d="M960 403h-626q12 -243 177 -243q101 0 143 100h282q-20 -75 -74 -140q-122 -149 -347 -149q-215 0 -343 129q-135 137 -135 366q0 212 123 353q132 152 343 152q168 0 285 -101q85 -74 126 -184.5t46 -282.5zM663 571q-6 65 -25 110q-43 102 -137 102q-68 0 -112 -56.5
t-54 -155.5h328z" />
    <glyph glyph-name="onethird" unicode="&#x2153;" horiz-adv-x="1434" 
d="M129 546v550q-41 -30 -119 -30q-8 0 -23 1v146q92 3 131 36t51 116h146v-819h-186zM432 0h-183l624 1365h179zM1057 577h-192q2 106 55 169q73 89 216 89q119 0 191 -65q70 -63 70 -165q0 -112 -87 -169q112 -61 112 -194q0 -110 -79 -183q-82 -76 -216 -76
q-169 0 -243 112q-37 55 -37 133q0 5 1 20h193q0 -102 85 -102q42 0 66.5 28.5t24.5 77.5q0 101 -114 101h-39v142h54q43 0 70 27t27 71q0 84 -82 84q-74 0 -76 -100z" />
    <glyph glyph-name="twothirds" unicode="&#x2154;" horiz-adv-x="1543" 
d="M545 0h-183l623 1365h180zM1170 577h-192q2 107 55 169q73 89 216 89q119 0 191 -65q70 -63 70 -165q0 -113 -87 -169q112 -61 112 -193q0 -111 -79 -184q-82 -76 -215 -76q-170 0 -244 112q-37 55 -37 133q0 5 1 20h193q0 -102 85 -102q42 0 66.5 28.5t24.5 77.5
q0 101 -114 101h-39v142h54q44 0 70.5 27t26.5 71q0 84 -82 84q-74 0 -76 -100zM558 713v-167h-557q0 140 47 227q28 53 72 92t154 110q60 40 86 76t26 81q0 38 -24 61t-64 23q-80 0 -87 -110h-196q7 117 71 190q77 87 207 87q127 0 202 -72q70 -66 70 -170
q0 -90 -47 -153.5t-177 -145.5q-116 -72 -132 -129h349z" />
    <glyph glyph-name="oneeighth" unicode="&#x215b;" horiz-adv-x="1434" 
d="M129 546v550q-41 -30 -119 -30q-8 0 -23 1v146q92 3 131 36t51 116h146v-819h-186zM432 0h-183l624 1365h179zM963 440q-88 57 -88 172q0 108 84 169q75 55 177 55q114 0 186.5 -62t72.5 -160q0 -112 -89 -174q116 -62 116 -202q0 -114 -79 -184q-80 -71 -208 -71
q-130 0 -208.5 68.5t-78.5 181.5q0 141 115 207zM1129 688q-36 0 -57 -24t-21 -65q0 -46 21.5 -72t59.5 -26q35 0 55.5 26t20.5 71q0 90 -79 90zM1133 364q-43 0 -70.5 -32t-27.5 -82q0 -53 28 -84.5t74 -31.5q43 0 70.5 31.5t27.5 81.5q0 52 -28 84.5t-74 32.5z" />
    <glyph glyph-name="threeeighths" unicode="&#x215c;" horiz-adv-x="1525" 
d="M527 0h-182l623 1365h179zM1058 440q-87 57 -87 172q0 109 83 169q75 55 178 55q114 0 186 -62t72 -160q0 -112 -89 -174q116 -62 116 -201q0 -115 -79 -185q-80 -71 -208 -71q-126 0 -206 66q-81 67 -81 184q0 141 115 207zM1230 688q-38 0 -60.5 -24t-22.5 -65
q0 -45 23 -71.5t63 -26.5q37 0 59 26t22 71q0 90 -84 90zM1228 364q-43 0 -70.5 -32t-27.5 -82q0 -52 28 -84t74 -32q43 0 70.5 31t27.5 81q0 53 -28 85.5t-74 32.5zM214 1124h-192q2 107 55 169q74 89 216 89q119 0 191 -65q70 -63 70 -165q0 -112 -87 -170
q112 -60 112 -193q0 -111 -79 -184q-82 -76 -215 -76q-171 0 -244 112q-37 55 -37 133q0 5 1 20h193q0 -54 21.5 -78t69.5 -24q45 0 71 28.5t26 77.5q0 53 -30 77t-96 24h-39v143h54q43 0 70 27t27 71q0 84 -82 84q-74 0 -76 -100z" />
    <glyph glyph-name="fiveeighths" unicode="&#x215d;" horiz-adv-x="1515" 
d="M517 0h-183l623 1365h179zM1048 440q-88 57 -88 171q0 109 83 170q75 55 178 55q114 0 186 -62t72 -160q0 -111 -89 -174q117 -62 117 -201q0 -115 -80 -185q-80 -71 -208 -71q-126 0 -206 66q-81 67 -81 184q0 142 116 207zM1219 688q-38 0 -60.5 -24t-22.5 -65
q0 -46 23 -72t62 -26q38 0 60 26t22 71q0 90 -84 90zM1218 364q-44 0 -71.5 -31.5t-27.5 -81.5q0 -53 27.5 -85t74.5 -32q44 0 71.5 31.5t27.5 81.5q0 52 -28 84.5t-74 32.5zM90 1365h435v-167h-278l-18 -115q47 22 100 22q103 0 171 -65q76 -74 76 -205q0 -139 -91 -227
q-80 -78 -201 -78q-84 0 -150 33.5t-99 92.5q-24 44 -27 118h195q2 -11 3 -17q9 -67 82 -67q45 0 71.5 36t26.5 97q0 63 -25.5 99.5t-69.5 36.5q-30 0 -47.5 -13t-40.5 -52h-175z" />
    <glyph glyph-name="seveneighths" unicode="&#x215e;" horiz-adv-x="1393" 
d="M392 0h-183l623 1365h179zM922 440q-87 57 -87 172q0 109 83 169q75 55 178 55q114 0 186 -62t72 -160q0 -112 -89 -174q116 -62 116 -202q0 -114 -80 -184q-80 -71 -207 -71q-126 0 -206 66q-81 67 -81 184q0 141 115 207zM1088 688q-35 0 -56 -24t-21 -65
q0 -46 21.5 -72t58.5 -26q35 0 55.5 26t20.5 71q0 90 -79 90zM1092 364q-43 0 -70.5 -32t-27.5 -82q0 -53 28 -84.5t74 -31.5q43 0 70.5 31.5t27.5 81.5q0 52 -28 84.5t-74 32.5zM11 1365h511v-149q-6 -8 -12 -17q-134 -183 -178 -401q-22 -107 -29 -252h-203q3 155 61 331
t153 314h-303v174z" />
    <glyph glyph-name="minus" unicode="&#x2212;" horiz-adv-x="1068" 
d="M63 783h942v-187h-942v187z" />
    <glyph glyph-name="fraction005" unicode="&#x2215;" horiz-adv-x="541" 
d="M51 0h-182l623 1365h179z" />
    <glyph glyph-name="periodcentered" unicode="&#x2219;" horiz-adv-x="639" 
d="M469 625v-294h-300v294h300z" />
    <glyph glyph-name="uni2236" unicode="&#x2236;" horiz-adv-x="1470" 
d="M736 528q40 0 68 -28t28 -68t-28 -68.5t-68 -28.5q-41 0 -69 28.5t-28 69.5q0 39 28.5 67t68.5 28zM736 1059q40 0 68 -28t28 -68t-28 -68.5t-68 -28.5q-41 0 -69 28.5t-28 69.5q0 39 28.5 67t68.5 28z" />
    <glyph glyph-name="dotmath" unicode="&#x22c5;" horiz-adv-x="639" 
d="M469 625v-294h-300v294h300z" />
    <glyph glyph-name="one.fitted" unicode="&#xe001;" horiz-adv-x="997" 
d="M418 0v960q-41 -36 -83 -48.5t-127 -13.5v206q129 4 187 59.5t86 201.5h206v-1365h-269z" />
    <glyph glyph-name="two.fitted" unicode="&#xe002;" horiz-adv-x="1039" 
d="M920 241v-241h-845q4 222 71 357q43 89 108.5 154t234.5 187q98 71 141 138t43 151q0 75 -42.5 121.5t-112.5 46.5q-65 0 -105 -50t-47 -140h-266q11 171 105 288q116 143 314 143q193 0 307 -117q105 -107 105 -277q0 -149 -72.5 -252.5t-275.5 -243.5
q-127 -88 -171.5 -140.5t-53.5 -124.5h562z" />
    <glyph glyph-name="three.fitted" unicode="&#xe003;" horiz-adv-x="1030" 
d="M360 996h-261q5 154 81 253q111 145 329 145q181 0 289 -105q105 -103 105 -267q0 -108 -44 -184t-128 -112q80 -27 129 -84q83 -97 83 -247q0 -181 -120 -301q-123 -123 -329 -123q-191 0 -306 106q-117 108 -117 304h263q1 -84 42 -130t117 -46q79 0 123 56
q46 58 46 152q0 100 -50.5 148.5t-154.5 48.5h-40v197h63q71 0 116 54t45 140q0 78 -39.5 123t-106.5 45q-130 0 -135 -173z" />
    <glyph glyph-name="four.fitted" unicode="&#xe004;" horiz-adv-x="1027" 
d="M808 0h-261v294h-475v250l486 821h250v-850h141v-221h-141v-294zM547 515v473l-252 -473h252z" />
    <glyph glyph-name="five.fitted" unicode="&#xe005;" horiz-adv-x="1033" 
d="M191 1365h661v-238h-450l-42 -281q82 69 197 69q158 0 261 -105q117 -119 117 -335q0 -232 -141 -377q-123 -127 -311 -127q-185 0 -299.5 100.5t-122.5 270.5h269q8 -70 47.5 -108t103.5 -38q81 0 129 69.5t48 187.5q0 104 -37 177q-42 85 -134 85q-50 0 -84 -25.5
t-67 -86.5h-240z" />
    <glyph glyph-name="six.fitted" unicode="&#xe006;" horiz-adv-x="1028" 
d="M924 1056h-261q-27 129 -123 129q-165 0 -191 -386q93 117 232 117q162 0 266 -123q110 -129 110 -336q0 -228 -135 -365q-119 -121 -288 -121q-215 0 -334 178t-119 499q0 383 144 580q122 166 320 166q157 0 257 -89t122 -249zM523 711q-66 0 -111.5 -75.5
t-45.5 -185.5q0 -109 46.5 -182.5t115.5 -73.5q68 0 114 73t46 181q0 114 -46.5 188.5t-118.5 74.5z" />
    <glyph glyph-name="seven.fitted" unicode="&#xe007;" horiz-adv-x="1021" 
d="M119 1365h783v-225q-97 -140 -149 -240t-97 -234q-92 -274 -111 -666h-280q6 322 156 702q110 282 220 413h-522v250z" />
    <glyph glyph-name="eight.fitted" unicode="&#xe008;" horiz-adv-x="1029" 
d="M296 732q-179 80 -179 301q0 173 126 272q115 89 274 89q171 0 288 -103q108 -94 108 -255q0 -107 -45.5 -185t-133.5 -119q224 -84 224 -345q0 -188 -122 -301q-122 -115 -322 -115q-196 0 -319 108t-123 298q0 132 59 225t165 130zM512 1189q-64 0 -103 -50t-39 -132
q0 -88 40 -140.5t108 -52.5q58 0 93 40q49 56 49 153q0 87 -38.5 134.5t-109.5 47.5zM511 630q-74 0 -120.5 -63.5t-46.5 -162.5q0 -100 48 -162t126 -62q82 0 126 70q42 66 42 151q0 103 -48 166t-127 63z" />
    <glyph glyph-name="nine.fitted" unicode="&#xe009;" horiz-adv-x="1028" 
d="M103 309h261q27 -128 123 -128q103 0 151 153q32 101 40 233q-92 -117 -232 -117q-162 0 -267 123q-109 129 -109 337q0 227 133 363q117 121 284 121q217 0 338 -182t121 -509q0 -376 -144 -569q-121 -163 -319 -163q-158 0 -258 89t-122 249zM497 1171
q-67 0 -112.5 -73.5t-45.5 -180.5q0 -105 44 -182q45 -80 119 -80q77 0 120 88q39 77 39 172q0 111 -46.5 183.5t-117.5 72.5z" />
    <glyph glyph-name="zero.fitted" unicode="&#xe00a;" horiz-adv-x="1025" 
d="M519 1394q127 0 228 -84q95 -78 146 -240.5t51 -386.5q0 -333 -108 -513q-118 -199 -320 -199q-229 0 -346 231q-90 176 -90 484q0 332 109 512q120 196 330 196zM509 1169q-160 0 -160 -486q0 -487 164 -487q162 0 162 488q0 248 -40.5 366.5t-125.5 118.5z" />
    <glyph glyph-name="uniEA31" unicode="&#xea31;" horiz-adv-x="1024" 
d="M571 1103h120q-4 -62 -20 -98q-47 -109 -165 -109q-86 0 -137 60q-60 71 -60 182q0 108 56 175.5t145 67.5q77 0 125 -49.5t54 -134.5h-119q-2 9 -3 14q-11 62 -60 62q-35 0 -56 -36.5t-21 -98.5q0 -61 21 -98t55 -37q53 0 65 100zM511 1554q172 0 293 -121t121 -293
q0 -171 -121 -293q-121 -121 -292 -121q-173 0 -293 121q-121 123 -121 298q0 77 33 155t88 133q123 121 292 121zM511 1487q-144 0 -245 -102t-101 -241q0 -146 101 -249q101 -102 246 -102q143 0 245 102q101 102 101 245q0 146 -101 245q-105 102 -246 102z" />
    <glyph glyph-name="uniEA32" unicode="&#xea32;" horiz-adv-x="1024" 
d="M354 907v465h182q72 0 114.5 -36.5t42.5 -99.5q0 -67 -48 -108q24 -18 33 -46t13 -99q2 -29 5 -38t20 -38h-129q-11 25 -16 94q-3 48 -13.5 62.5t-42.5 14.5h-40v-171h-121zM475 1176h38q59 0 59 48q0 45 -57 45h-40v-93zM511 1554q172 0 293 -121t121 -293
q0 -171 -121 -293q-121 -121 -292 -121q-173 0 -293 121q-121 123 -121 298q0 77 33 155t88 133q123 121 292 121zM511 1487q-144 0 -245 -102t-101 -241q0 -146 101 -249q101 -102 246 -102q143 0 245 102q101 102 101 245q0 146 -101 245q-105 102 -246 102z" />
    <glyph glyph-name="uniEA3F" unicode="&#xea3f;" horiz-adv-x="595" 
d="M773 1365v-147q0 -110 -34 -155q-53 -72 -203 -78v89q69 7 92 26t29 73h-121v192h237z" />
    <glyph glyph-name="uniEA4F" unicode="&#xea4f;" horiz-adv-x="1050" 
d="M328 1079v147q0 110 34 155q55 72 207 78v-89q-70 -7 -93.5 -26t-29.5 -73h123v-192h-241z" />
    <glyph glyph-name="uniEA66" unicode="&#xea66;" horiz-adv-x="1066" 
d="M647 -95v-147q0 -110 -32 -155q-51 -72 -192 -78v89q65 7 87 26t28 73h-115v192h224z" />
    <glyph glyph-name="uniEA67" unicode="&#xea67;" horiz-adv-x="1053" 
d="M870 1365v-147q0 -110 -32 -155q-51 -72 -192 -78v89q65 7 87 26t28 73h-115v192h224z" />
    <glyph glyph-name="uniEA68" unicode="&#xea68;" horiz-adv-x="531" 
d="M522 1693v-246h-205v246h205zM214 1693v-246h-204v246h204z" />
    <glyph glyph-name="uniEA69" unicode="&#xea69;" horiz-adv-x="932" 
d="M589 -95v-147q0 -110 -34 -155q-53 -72 -203 -78v89q69 7 92.5 26t28.5 73h-121v192h237z" />
    <glyph glyph-name="uniEA6A" unicode="&#xea6a;" horiz-adv-x="503" 
d="M504 1324v-246h-198v246h198zM196 1324v-246h-196v246h196z" />
    <glyph glyph-name="uniEA71" unicode="&#xea71;" horiz-adv-x="1131" 
d="M1054 850q-27 -175 -152.5 -267.5t-335.5 -92.5h-145v-490h-293v850h-95v146h95v369h433q451 15 497 -369h71v-146h-75zM758 850h-337v-122h142q135 0 177 79q11 20 18 43zM421 996h337q-21 66 -68 92.5t-141 26.5h-128v-119z" />
    <glyph glyph-name="uniEA72" unicode="&#xea72;" horiz-adv-x="592" 
d="M243 806v367q-33 -14 -71 -14q-8 0 -26 1v113q73 1 95 26t30 77h112v-570h-140zM483 127v-127h-394v12v4q0 100 37.5 157t152.5 132q73 47 73 101q0 50 -52 50q-47 0 -54 -75h-147q5 66 25 103q53 99 172 99q86 0 139 -47.5t53 -124.5q0 -63 -32.5 -107t-123.5 -102
q-69 -45 -84 -75h235zM25 724h541v-78h-541v78z" />
    <glyph glyph-name="uniEA73" unicode="&#xea73;" horiz-adv-x="592" 
d="M245 806v367q-30 -14 -65 -14q-8 0 -24 1v113q62 1 86 21.5t32 81.5h119v-570h-148zM423 0h-137v116h-210v120l222 335h125v-335h60v-120h-60v-116zM286 236v107l-64 -107h64zM25 724h541v-78h-541v78z" />
    <glyph glyph-name="uniEA74" unicode="&#xea74;" horiz-adv-x="592" 
d="M252 1198h-145q2 60 18 93q47 96 174 96q82 0 133.5 -45t51.5 -118t-53 -115q70 -43 70 -131q0 -82 -57.5 -133t-149.5 -51q-143 0 -186 106q-12 29 -12 88h146q0 -40 10.5 -55t39.5 -15q55 0 55 66q0 62 -70 62h-34v110h44q60 0 60 60q0 50 -50 50q-25 0 -34.5 -14.5
t-10.5 -53.5zM426 0h-137v116h-210v120l222 335h125v-335h60v-120h-60v-116zM289 236v107l-64 -107h64zM25 724h541v-78h-541v78z" />
    <glyph glyph-name="Dotaccent" unicode="&#xefed;" horiz-adv-x="1179" 
d="M708 1693v-246h-237v246h237z" />
    <glyph glyph-name="Breve" unicode="&#xefee;" horiz-adv-x="1179" 
d="M297 1720h139q28 -107 154 -107t153 107h139q-2 -68 -24 -112q-68 -141 -268 -141q-220 0 -278 164q-12 34 -15 89z" />
    <glyph glyph-name="Ogonek" unicode="&#xeff1;" horiz-adv-x="1199" 
d="M1034 0h134q-91 -80 -91 -165q0 -91 94 -91q20 0 71 16v-119l-10 -3q-58 -19 -106 -19q-93 0 -151 50t-58 130q0 97 117 201z" />
    <glyph glyph-name="Cedilla" unicode="&#xeff2;" horiz-adv-x="1249" 
d="M458 -200l81 221l106 -14l-42 -111q24 10 53 10q87 0 140 -41.5t53 -108.5q0 -75 -57.5 -120.5t-152.5 -45.5q-77 0 -128.5 30.5t-59.5 80.5h130q8 -31 51 -31q67 0 67 79q0 78 -67 78q-37 0 -48 -27h-126z" />
    <glyph glyph-name="Ring" unicode="&#xeff3;" horiz-adv-x="1179" 
d="M591 1710q-37 0 -62 -26t-25 -63t24.5 -63t59.5 -26q36 0 61 26t25 63q0 36 -24.5 62.5t-58.5 26.5zM592 1816q81 0 140 -57t59 -138q0 -80 -59 -137t-143 -57q-85 0 -143 57q-59 57 -59 137q0 81 59.5 138t145.5 57z" />
    <glyph glyph-name="Tilde" unicode="&#xeff5;" horiz-adv-x="1179" 
d="M898 1734q-38 -253 -204 -253q-26 0 -40 4.5t-74 31.5q-92 40 -107 40q-43 0 -59 -82h-134q1 10 2 15q15 103 70 169.5t125 66.5q44 0 118 -35q76 -35 106 -35q22 0 35.5 16t28.5 62h133z" />
    <glyph glyph-name="Circumflex" unicode="&#xeff7;" horiz-adv-x="1179" 
d="M897 1475h-225l-86 121l-88 -121h-216l191 259h233z" />
    <glyph glyph-name="Acute" unicode="&#xf6c9;" horiz-adv-x="1179" 
d="M874 1720l-198 -246h-233l184 246h247z" />
    <glyph glyph-name="Caron" unicode="&#xf6ca;" horiz-adv-x="1106" 
d="M861 1734l-190 -259h-234l-191 259h215l89 -121l86 121h225z" />
    <glyph glyph-name="Dieresis" unicode="&#xf6cb;" horiz-adv-x="1179" 
d="M879 1693v-246h-238v246h238zM537 1693v-246h-237v246h237z" />
    <glyph glyph-name="Grave" unicode="&#xf6ce;" horiz-adv-x="1179" 
d="M304 1720h248l183 -246h-232z" />
    <glyph glyph-name="Hungarumlaut" unicode="&#xf6cf;" horiz-adv-x="1269" 
d="M738 1714l-204 -241h-217l188 241h233zM1086 1714l-204 -241h-218l188 241h234z" />
    <glyph glyph-name="Macron" unicode="&#xf6d0;" horiz-adv-x="1179" 
d="M883 1658v-157h-587v157h587z" />
    <glyph glyph-name="uniFEFF" unicode="&#xfeff;" horiz-adv-x="19" 
 />
    <glyph glyph-name="uniFFFC" unicode="&#xfffc;" horiz-adv-x="2067" 
d="M2058 1150h-100v223h-223v100h323v-323zM1483 1373h-323v100h323v-100zM2058 575h-100v323h100v-323zM908 1388h-323v100h323v-100zM2058 0h-323v100h223v223h100v-323zM333 1373h-223v-223h-100v323h323v-100zM1483 0h-323v100h323v-100zM110 575h-100v323h100v-323z
M908 0h-323v100h323v-100zM333 0h-323v323h100v-223h223v-100zM565 1096q134 0 215 -105q84 -109 84 -279q0 -152 -65 -257q-81 -131 -234 -131q-138 0 -219 106.5t-81 285.5q0 172 83 275q85 105 217 105zM564 1017q-91 0 -148 -81q-58 -83 -58 -219q0 -135 49 -220
q26 -44 69 -70t90 -26q87 0 140 71q65 90 65 239q0 136 -57 222q-55 84 -150 84zM973 357v737h233q101 0 147 -29q78 -51 78 -153q0 -109 -101 -160q128 -37 128 -184q0 -100 -56 -155.5t-157 -55.5h-272zM1063 780h124q82 0 109 20q44 30 44 96q0 83 -55 108q-22 11 -91 11
h-131v-235zM1063 436h140q87 0 116 19q48 32 48 114q0 92 -65 123q-27 13 -113 13h-126v-269zM1503 346v80q25 -10 51 -10q72 0 98 67q13 33 13 141v470h90v-485q0 -79 -7 -119t-25 -69q-52 -82 -163 -82q-26 0 -57 7z" />
    <glyph glyph-name="uniFFFD" unicode="&#xfffd;" horiz-adv-x="2118" 
d="M1056 1556l940 -938l-940 -937l-937 937zM721 779h214q9 199 132 199q49 0 78 -35t29 -93q0 -52 -24 -96q-10 -20 -97 -107q-60 -61 -78 -112.5t-21 -175.5v-6v-8h198v10q-1 132 88 197q86 71 122.5 138.5t36.5 155.5q0 158 -104 254q-87 79 -226 79q-160 0 -251 -104.5
t-97 -295.5zM1180 243h-254v-248h254v248z" />
    </font>
</defs>
</svg>
