<?xml version="1.0" standalone="no"?>
<!DOCTYPE svg PUBLIC "-//W3C//DTD SVG 1.1//EN" "http://www.w3.org/Graphics/SVG/1.1/DTD/svg11.dtd" >
<svg xmlns="http://www.w3.org/2000/svg" xmlns:xlink="http://www.w3.org/1999/xlink" version="1.1">
<metadata>
Created by FontForge 20161004 at Thu Apr 20 15:18:55 2017
 By mb
(URW)++,Copyright 2016 by (URW)++ Design &#38; Development
</metadata>
<defs>
<font id="TeleGroteskNext-RegularItalic" horiz-adv-x="1027" >
  <font-face 
    font-family="TeleGrotesk Next"
    font-weight="400"
    font-style="italic"
    font-stretch="normal"
    units-per-em="2048"
    panose-1="0 0 0 0 0 0 0 0 0 0"
    ascent="1679"
    descent="-369"
    x-height="942"
    cap-height="1365"
    bbox="-109 -512 2525 1803"
    underline-thickness="105"
    underline-position="-214"
    slope="-12"
    unicode-range="U+0020-FFFD"
  />
<missing-glyph horiz-adv-x="523" 
d="M52 0v1365h419v-1365h-419zM419 52v1261h-315v-1261h315z" />
    <glyph glyph-name="fi" unicode="fi" horiz-adv-x="943" 
d="M914 1174l41 191h113l-41 -191h-113zM665 0l200 942h113l-201 -942h-112zM191 0l180 848h-149l20 94h149l32 150q22 104 35 141t38 72q68 92 192 92q48 0 107 -21l-21 -100q-47 20 -91 20q-63 0 -91.5 -38t-53.5 -152l-34 -164h177l-20 -94h-177l-180 -848h-113z" />
    <glyph glyph-name="fl" unicode="fl" horiz-adv-x="944" 
d="M666 0l290 1365h112l-290 -1365h-112zM191 0l180 848h-149l20 94h149l32 150q22 104 35 141t38 72q68 92 192 92q48 0 107 -21l-21 -100q-47 20 -91 20q-63 0 -91.5 -38t-53.5 -152l-34 -164h177l-20 -94h-177l-180 -848h-113z" />
    <glyph glyph-name="afii61352" unicode="Nr&#x2e;" horiz-adv-x="1796" 
d="M196 0l290 1365h132l413 -1169l249 1169h116l-290 -1365h-132l-414 1163l-248 -1163h-116zM1653 939q100 0 157 -68q50 -59 50 -162q0 -159 -87 -281q-91 -127 -232 -127q-98 0 -153 61q-54 60 -54 165q0 159 84 280q92 132 235 132zM1646 845q-97 0 -160 -107
q-54 -89 -54 -202q0 -66 31 -103.5t85 -37.5q95 0 158 101q56 92 56 207q0 65 -31.5 103.5t-84.5 38.5zM1243 133l20 94h508l-20 -94h-508z" />
    <glyph glyph-name=".notdef" horiz-adv-x="523" 
d="M52 0v1365h419v-1365h-419zM419 52v1261h-315v-1261h315z" />
    <glyph glyph-name="_" horiz-adv-x="0" 
 />
    <glyph glyph-name="_001" horiz-adv-x="523" 
 />
    <glyph glyph-name="space" unicode=" " horiz-adv-x="523" 
 />
    <glyph glyph-name="exclam" unicode="!" horiz-adv-x="563" 
d="M633 1365l-85 -400l-160 -623h-67l105 623l85 400h122zM395 205l-44 -205h-139l44 205h139z" />
    <glyph glyph-name="quotedbl" unicode="&#x22;" horiz-adv-x="592" 
d="M389 846h-83l94 519h116zM645 846h-83l94 519h115z" />
    <glyph glyph-name="numbersign" unicode="#" horiz-adv-x="1319" 
d="M772 1297h106l-131 -373h275l132 373h106l-131 -373h202l-20 -92h-214l-98 -276h202l-20 -92h-215l-139 -396h-107l140 396h-276l-140 -396h-106l139 396h-199l20 92h212l98 276h-200l20 92h212zM990 832h-276l-98 -276h276z" />
    <glyph glyph-name="dollar" unicode="$" horiz-adv-x="1117" 
d="M878 1346q268 -49 268 -294q0 -14 -1 -40h-119v36q0 158 -170 195l-107 -501l70 -25q240 -90 240 -314q0 -169 -132 -280t-333 -111l-20 -94h-99l21 102q-76 13 -135 46q-72 41 -112 112t-40 158q0 27 3 67h110q-2 -29 -2 -48q0 -94 51 -154.5t147 -79.5l116 546l-33 12
q-249 93 -249 318q0 232 218 321q91 36 210 36l20 93h99zM726 633l-110 -519q112 4 193 59q126 84 126 231q0 81 -40 130.5t-134 85.5zM657 777l101 476q-81 -1 -144 -28q-145 -63 -145 -221q0 -160 188 -227z" />
    <glyph glyph-name="percent" unicode="%" horiz-adv-x="1730" 
d="M671 1384q158 0 229 -118q46 -76 46 -197q0 -201 -105 -358q-123 -185 -307 -185q-148 0 -222 103q-62 86 -62 210q0 108 32 211.5t88 175.5q123 158 301 158zM663 1293q-135 0 -229 -149q-84 -131 -84 -308q0 -111 55 -169q47 -50 124 -50q144 0 237 158q80 134 80 297
q0 103 -49 162t-134 59zM622 0h-99l879 1365h95zM1494 838q157 0 229 -118q46 -76 46 -197q0 -201 -105 -358q-123 -185 -307 -185q-148 0 -222 103q-62 86 -62 210q0 108 32 211.5t88 175.5q123 158 301 158zM1486 747q-135 0 -229 -149q-84 -131 -84 -308q0 -111 55 -169
q47 -50 124 -50q143 0 237 158q80 134 80 297q0 103 -49 162t-134 59z" />
    <glyph glyph-name="ampersand" unicode="&#x26;" horiz-adv-x="1082" 
d="M996 0h-132l-51 112q-78 -77 -151 -109t-174 -32q-171 0 -252 102q-65 81 -65 200q0 170 134 306q54 54 223 169q-7 21 -26 69q-58 150 -58 264q0 151 90 234q86 81 219 81q137 0 210 -89q51 -63 51 -150q0 -112 -78 -207t-271 -217l192 -425q67 108 105 259h112
q-64 -215 -174 -358zM566 665q-126 -83 -182 -146q-95 -108 -95 -229q0 -103 55.5 -163.5t150.5 -60.5q150 0 278 136zM626 817q130 88 185 147q83 91 83 185q0 146 -145 146q-85 0 -137 -58t-52 -152q0 -60 11 -105t55 -163z" />
    <glyph glyph-name="quotesingle" unicode="'" horiz-adv-x="336" 
d="M389 846h-83l94 519h116z" />
    <glyph glyph-name="parenleft" unicode="(" horiz-adv-x="571" 
d="M717 1365q-207 -279 -318 -599t-111 -637q0 -254 63 -484h-86q-82 301 -82 530q0 364 166 731q113 248 282 459h86z" />
    <glyph glyph-name="parenright" unicode=")" horiz-adv-x="571" 
d="M69 -355q207 280 318 599.5t111 636.5q0 253 -63 484h85q83 -299 83 -530q0 -363 -166 -731q-112 -247 -282 -459h-86z" />
    <glyph glyph-name="asterisk" unicode="*" horiz-adv-x="854" 
d="M978 1133l-240 -75l124 -192l-60 -43l-124 194l-171 -194l-52 43l171 192l-222 75l30 67l219 -78l25 243h74l-28 -243l238 78z" />
    <glyph glyph-name="plus" unicode="+" horiz-adv-x="1073" 
d="M250 742h388l77 361h112l-77 -361h388l-23 -105h-387l-77 -361h-112l76 361h-387z" />
    <glyph glyph-name="comma" unicode="," horiz-adv-x="495" 
d="M359 205l-32 -148q-31 -147 -80 -219t-140 -104l17 82q80 41 106 161l5 23h-59l43 205h140z" />
    <glyph glyph-name="hyphen" unicode="-" horiz-adv-x="416" 
d="M520 560l-22 -106h-387l23 106h386z" />
    <glyph glyph-name="period" unicode="." horiz-adv-x="499" 
d="M363 205l-44 -205h-139l44 205h139z" />
    <glyph glyph-name="slash" unicode="/" horiz-adv-x="748" 
d="M-12 -355h-97l954 1720h94z" />
    <glyph glyph-name="zero" unicode="0" horiz-adv-x="988" 
d="M783 1392q158 0 238 -118q71 -104 71 -282q0 -148 -41 -338.5t-104 -334.5q-74 -172 -180.5 -260t-238.5 -88q-188 0 -264 149q-51 101 -51 247q0 141 41 330.5t101 331.5q156 363 428 363zM772 1290q-153 0 -255 -182q-75 -133 -129.5 -355.5t-54.5 -396.5
q0 -143 60 -217q53 -66 145 -66q98 0 179 80.5t138 235.5q53 141 85.5 307.5t32.5 294.5q0 144 -52 221.5t-149 77.5z" />
    <glyph glyph-name="one" unicode="1" horiz-adv-x="988" 
d="M482 0l234 1100q-52 -44 -95 -58t-132 -17l19 93q126 5 196 75q47 47 96 172h91l-290 -1365h-119z" />
    <glyph glyph-name="two" unicode="2" horiz-adv-x="988" 
d="M869 106l-22 -106h-732q44 211 150 345q62 79 134 133.5t284 183.5q128 78 203.5 190.5t75.5 224.5q0 118 -82 175q-60 41 -155 41q-144 0 -223 -109q-39 -54 -56 -168h-118q16 102 40 160t69 105q110 115 298 115q177 0 272 -100q76 -82 76 -209q0 -187 -155 -351
q-57 -61 -108.5 -98t-249.5 -160q-131 -81 -201.5 -168t-98.5 -204h599z" />
    <glyph glyph-name="three" unicode="3" horiz-adv-x="988" 
d="M169 389h109q-11 -60 -11 -96q0 -101 63.5 -160.5t171.5 -59.5q163 0 255 126q78 106 78 234q0 123 -71 188q-62 58 -162 58q-22 0 -56 -3l22 102q26 -1 39 -1q159 0 246 89q82 83 82 213q0 99 -60 155t-167 56q-115 0 -185 -69t-85 -197h-107q21 161 94 246
q104 122 293 122q167 0 263 -99q76 -80 76 -212q0 -160 -110 -264q-56 -52 -170 -88q180 -77 180 -292q0 -197 -118 -323q-133 -143 -345 -143q-166 0 -259 94q-83 84 -83 214q0 49 17 110z" />
    <glyph glyph-name="four" unicode="4" horiz-adv-x="988" 
d="M605 0l78 369h-515l24 113l712 883h95l-190 -895h168l-21 -101h-169l-78 -369h-104zM705 470l145 682l-556 -682h411z" />
    <glyph glyph-name="five" unicode="5" horiz-adv-x="988" 
d="M539 1365h568l-23 -106h-483l-177 -469q115 121 266 121q132 0 208 -80q40 -43 63.5 -114t23.5 -150q0 -118 -43 -233.5t-119 -203.5q-73 -83 -152.5 -121t-179.5 -38q-154 0 -240 82q-84 80 -84 203q0 30 10 76h111q-6 -35 -6 -58q0 -85 47 -137q57 -64 161 -64
q163 0 278 174q95 145 95 320q0 129 -69 192q-55 50 -148 50q-151 0 -272 -159l-92 15z" />
    <glyph glyph-name="six" unicode="6" horiz-adv-x="988" 
d="M1098 1081h-112v30q0 74 -36 120q-47 59 -134 59q-283 0 -440 -619q125 220 335 220q148 0 232 -106q73 -91 73 -240q0 -213 -123 -381q-142 -193 -345 -193q-150 0 -238 96q-88 95 -88 259q0 179 61 413.5t146 381.5q157 271 395 271q133 0 207 -76q69 -70 69 -185
q0 -19 -2 -50zM687 790q-78 0 -150 -48t-124 -135q-77 -130 -77 -279q0 -126 65 -195q55 -59 148 -59q160 0 265 180q80 137 80 290q0 119 -62 188q-54 58 -145 58z" />
    <glyph glyph-name="seven" unicode="7" horiz-adv-x="988" 
d="M417 0h-120q154 715 709 1254h-599l24 111h727l-23 -108q-289 -282 -450 -563q-185 -325 -268 -694z" />
    <glyph glyph-name="eight" unicode="8" horiz-adv-x="988" 
d="M517 760q-148 74 -148 256q0 156 103 265q106 111 282 111q161 0 251 -96q72 -77 72 -191q0 -137 -67 -228.5t-192 -127.5q77 -46 114 -109q47 -81 47 -187q0 -189 -120 -334q-122 -148 -333 -148q-193 0 -282 119q-66 86 -66 212q0 193 126 329q46 50 92 78t121 51z
M750 1290q-129 0 -203 -93q-66 -83 -66 -195q0 -92 57.5 -147t152.5 -55q133 0 209 106q60 82 60 188q0 69 -33 115q-56 81 -177 81zM637 699q-160 0 -258 -133q-81 -111 -81 -248q0 -105 52 -173q60 -78 178 -78q166 0 262 145q71 108 71 248q0 128 -72 189q-59 50 -152 50
z" />
    <glyph glyph-name="nine" unicode="9" horiz-adv-x="988" 
d="M195 283h113q-1 -17 -1 -30q0 -74 36 -121q47 -59 134 -59q283 0 440 619q-125 -219 -334 -219q-149 0 -233 106q-73 91 -73 240q0 212 123 381q142 193 345 193q151 0 239 -96q88 -95 88 -259q0 -180 -61 -414t-147 -382q-156 -271 -395 -271q-133 0 -207 76
q-69 71 -69 186q0 18 2 50zM745 1290q-161 0 -266 -180q-80 -137 -80 -290q0 -120 62 -188q54 -58 145 -58q79 0 150.5 48t124.5 135q77 130 77 279q0 126 -65 195q-56 59 -148 59z" />
    <glyph glyph-name="colon" unicode=":" horiz-adv-x="499" 
d="M520 942l-44 -205h-139l43 205h140zM363 205l-44 -205h-139l44 205h139z" />
    <glyph glyph-name="semicolon" unicode=";" horiz-adv-x="495" 
d="M359 205l-32 -148q-31 -147 -80 -219t-140 -104l17 82q80 41 106 161l5 23h-59l43 205h140zM515 942l-43 -205h-139l43 205h139z" />
    <glyph glyph-name="less" unicode="&#x3c;" horiz-adv-x="1073" 
d="M1224 1143l-26 -121l-829 -339l685 -339l-26 -122l-801 408l23 106z" />
    <glyph glyph-name="equal" unicode="=" horiz-adv-x="1073" 
d="M279 879h888l-23 -105h-887zM221 606h888l-23 -105h-887z" />
    <glyph glyph-name="greater" unicode="&#x3e;" horiz-adv-x="1073" 
d="M337 1143l800 -407l-23 -107l-973 -407l26 122l828 339l-684 339z" />
    <glyph glyph-name="question" unicode="?" horiz-adv-x="887" 
d="M272 1017q19 144 90 236q109 141 300 141q151 0 244 -78q104 -87 104 -232q0 -109 -58.5 -205t-193.5 -211q-80 -67 -110 -102.5t-52 -86.5q-18 -42 -36 -139h-112q12 129 70 221q26 41 54 71t118 111q110 100 154 174.5t44 159.5q0 95 -60 152q-61 59 -166 59
q-114 0 -190 -73.5t-89 -197.5h-111zM543 205l-43 -205h-140l44 205h139z" />
    <glyph glyph-name="at" unicode="@" horiz-adv-x="1577" 
d="M1220 966h100l-156 -384q-30 -88 -30 -103q0 -45 46 -45q64 0 135.5 39t124.5 102q129 153 129 338q0 159 -97 264q-124 135 -381 135q-206 0 -375 -92q-227 -123 -328 -353q-65 -148 -65 -317q0 -212 120 -342q145 -156 396 -156q236 0 445 99l8 -85q-203 -99 -449 -99
q-317 0 -488 197q-131 150 -131 377q0 181 74 349q110 249 362 391q207 116 443 116q192 0 332 -77q145 -81 198 -238q24 -71 24 -153q0 -139 -65 -269q-89 -176 -242 -258q-97 -52 -189 -52q-51 0 -84 25.5t-33 64.5q0 12 3 30q-103 -131 -230 -131q-86 0 -136 58
q-48 55 -48 147q0 153 111 293q120 152 276 152q135 0 148 -150zM1010 899q-55 0 -108.5 -32t-94.5 -89q-75 -106 -75 -221q0 -62 28.5 -96.5t79.5 -34.5q57 0 113.5 37.5t93.5 100.5q71 118 71 221q0 50 -30 82t-78 32z" />
    <glyph glyph-name="A" unicode="A" horiz-adv-x="1107" 
d="M780 1365h133l164 -1365h-129l-44 430h-511l-230 -430h-132zM449 535h444l-73 695z" />
    <glyph glyph-name="B" unicode="B" horiz-adv-x="1196" 
d="M196 0l290 1365h393q385 0 385 -293q0 -141 -81.5 -233t-238.5 -129q228 -61 228 -271q0 -96 -38.5 -181t-108.5 -143q-139 -115 -415 -115h-414zM480 760h225q183 0 283 57q149 86 149 249q0 100 -68 146.5t-213 46.5h-270zM341 106h298q189 0 292 78q115 85 115 251
q0 125 -98 183q-67 40 -232 40h-258z" />
    <glyph glyph-name="C" unicode="C" horiz-adv-x="1237" 
d="M1111 451h124q-47 -164 -141 -278q-170 -206 -419 -206q-200 0 -314 132q-127 146 -127 377q0 199 79 409q94 250 275 390q158 122 351 122t301 -116q97 -103 97 -268v-16h-125q-4 105 -44 172q-71 121 -236 121q-248 0 -423 -286q-69 -112 -108.5 -257.5t-39.5 -287.5
q0 -92 27.5 -173t74.5 -129q83 -84 214 -84q167 0 301 145q86 93 133 233z" />
    <glyph glyph-name="D" unicode="D" horiz-adv-x="1249" 
d="M196 0l290 1365h344q110 0 186 -21t135 -67q69 -54 104 -135q50 -115 50 -248q0 -259 -119 -505q-188 -389 -639 -389h-351zM341 106h230q281 0 427 197q91 123 139 294q44 156 44 295q0 138 -62 233q-87 134 -293 134h-240z" />
    <glyph glyph-name="E" unicode="E" horiz-adv-x="1092" 
d="M196 0l290 1365h787l-22 -106h-665l-106 -499h622l-23 -106h-622l-116 -548h672l-23 -106h-794z" />
    <glyph glyph-name="F" unicode="F" horiz-adv-x="984" 
d="M196 0l290 1365h732l-23 -106h-609l-106 -498h541l-23 -106h-541l-139 -655h-122z" />
    <glyph glyph-name="G" unicode="G" horiz-adv-x="1323" 
d="M1159 0h-102l48 228q-71 -95 -132 -147q-132 -114 -299 -114q-198 0 -313 132q-127 146 -127 377q0 199 79 409q94 250 275 390q159 122 356 122q152 0 255 -72q77 -54 111 -127t40 -194h-124q-8 135 -83.5 210.5t-202.5 75.5q-256 0 -431 -286q-69 -112 -108.5 -257.5
t-39.5 -287.5q0 -92 27.5 -173t74.5 -129q83 -84 218 -84q137 0 257 102q90 76 141.5 167.5t92.5 245.5h-384l23 106h496z" />
    <glyph glyph-name="H" unicode="H" horiz-adv-x="1303" 
d="M196 0l290 1365h123l-127 -596h667l127 596h122l-290 -1365h-123l141 663h-667l-141 -663h-122z" />
    <glyph glyph-name="I" unicode="I" horiz-adv-x="514" 
d="M196 0l290 1365h123l-291 -1365h-122z" />
    <glyph glyph-name="J" unicode="J" horiz-adv-x="636" 
d="M630 1365h123l-191 -898q-34 -161 -56.5 -223.5t-65.5 -122.5q-58 -80 -136.5 -117t-188.5 -37q-48 0 -102 13l23 109q50 -16 100 -16q150 0 223 136q42 77 86 286z" />
    <glyph glyph-name="K" unicode="K" horiz-adv-x="1143" 
d="M486 1365h123l-147 -691l792 691h140l-665 -580l397 -785h-137l-356 701l-203 -177l-112 -524h-122z" />
    <glyph glyph-name="L" unicode="L" horiz-adv-x="1003" 
d="M196 0l290 1365h123l-268 -1259h631l-23 -106h-753z" />
    <glyph glyph-name="M" unicode="M" horiz-adv-x="1512" 
d="M196 0l290 1365h159l152 -1191l650 1191h160l-290 -1365h-117l249 1170l-635 -1170h-108l-146 1162l-248 -1162h-116z" />
    <glyph glyph-name="N" unicode="N" horiz-adv-x="1302" 
d="M196 0l290 1365h132l413 -1169l249 1169h116l-290 -1365h-132l-414 1163l-248 -1163h-116z" />
    <glyph glyph-name="O" unicode="O" horiz-adv-x="1319" 
d="M933 1396q198 0 318 -136q57 -64 89.5 -164t32.5 -210q0 -157 -46 -316t-127 -284q-100 -153 -234 -235q-136 -84 -292 -84q-222 0 -340 164q-99 136 -99 335q0 211 77 418q91 245 274 388q159 124 347 124zM935 1290q-144 0 -277 -108q-148 -120 -227 -338
q-70 -192 -70 -386q0 -187 97 -293q83 -92 215 -92q148 0 278 106q155 126 237 368q59 175 59 349q0 200 -101 308q-81 86 -211 86z" />
    <glyph glyph-name="P" unicode="P" horiz-adv-x="1126" 
d="M196 0l290 1365h344q222 0 319 -96q85 -84 85 -215q0 -103 -41 -195.5t-113 -155.5q-141 -121 -426 -121h-212l-124 -582h-122zM465 688h222q111 0 181.5 20t123.5 67q52 47 83 117.5t31 142.5q0 118 -75 171t-241 53h-204z" />
    <glyph glyph-name="Q" unicode="Q" horiz-adv-x="1319" 
d="M1058 120l111 -151l-83 -69l-114 155q-142 -88 -297 -88q-223 0 -341 164q-99 136 -99 338q0 178 55.5 353t152.5 303q205 271 490 271q200 0 318 -135q57 -65 89.5 -165t32.5 -210q0 -223 -85.5 -430.5t-229.5 -335.5zM989 214q67 69 114 148q68 114 106 255.5t38 279.5
q0 94 -27 175.5t-74 131.5q-82 86 -212 86q-144 0 -276 -108q-148 -121 -227 -338q-70 -192 -70 -384q0 -189 97 -295q83 -92 214 -92q124 0 233 74l-120 164l84 68z" />
    <glyph glyph-name="R" unicode="R" horiz-adv-x="1228" 
d="M196 0l290 1365h437q169 0 265 -82t96 -226q0 -163 -88 -268.5t-251 -137.5q56 -19 86 -41q85 -59 85 -169q0 -51 -21 -190q-19 -122 -19 -176q0 -40 15 -75h-138q-12 36 -12 69q0 43 26 208q14 92 14 150q0 95 -75.5 139.5t-234.5 44.5h-223l-130 -611h-122zM470 714
h280q108 0 173.5 17.5t115.5 59.5q54 45 86 115.5t32 143.5q0 209 -254 209h-317z" />
    <glyph glyph-name="S" unicode="S" horiz-adv-x="1084" 
d="M174 383h117q-2 -32 -2 -49q0 -104 60 -173q76 -86 233 -86q176 0 279 104q84 85 84 205q0 86 -43 139.5t-143 90.5l-171 63q-265 99 -265 339q0 192 145 294q122 87 308 87q187 0 290 -84.5t103 -237.5q0 -15 -1 -43h-127q1 108 -32 158q-67 100 -246 100
q-118 0 -200 -51q-116 -72 -116 -215q0 -87 49 -145.5t155 -98.5l169 -63q257 -95 257 -334q0 -163 -125 -282q-139 -134 -368 -134q-191 0 -300 91q-113 96 -113 254q0 28 3 71z" />
    <glyph glyph-name="T" unicode="T" horiz-adv-x="1014" 
d="M569 0h-122l267 1259h-397l23 106h915l-22 -106h-396z" />
    <glyph glyph-name="U" unicode="U" horiz-adv-x="1249" 
d="M465 1365h123l-174 -814q-29 -139 -29 -208q0 -109 54 -175q77 -95 240 -95q202 0 295 149q28 45 43.5 97.5t52.5 232.5l173 813h122l-173 -814q-38 -205 -59 -263q-60 -171 -177 -247q-112 -74 -281 -74q-208 0 -321 107q-93 90 -93 248q0 83 32 233z" />
    <glyph glyph-name="V" unicode="V" horiz-adv-x="1048" 
d="M595 0h-138l-136 1365h131l107 -1209l621 1209h128z" />
    <glyph glyph-name="W" unicode="W" horiz-adv-x="1527" 
d="M350 0l-24 1365h124l10 -1172l525 1172h135l30 -1172l509 1172h121l-605 -1365h-129l-32 1183l-535 -1183h-129z" />
    <glyph glyph-name="X" unicode="X" horiz-adv-x="1026" 
d="M31 0l564 702l-249 663h135l199 -564l448 564h134l-532 -663l264 -702h-137l-214 598l-474 -598h-138z" />
    <glyph glyph-name="Y" unicode="Y" 
d="M453 0l120 565l-280 800h137l228 -682l517 682h139l-619 -800l-120 -565h-122z" />
    <glyph glyph-name="Z" unicode="Z" horiz-adv-x="1042" 
d="M79 0l25 115l987 1144h-690l23 106h824l-24 -112l-988 -1147h758l-22 -106h-893z" />
    <glyph glyph-name="bracketleft" unicode="[" horiz-adv-x="586" 
d="M741 1365l-20 -94h-164l-325 -1532h163l-20 -94h-266l366 1720h266z" />
    <glyph glyph-name="backslash" unicode="\" horiz-adv-x="636" 
d="M497 -355l-219 1720h94l222 -1720h-97z" />
    <glyph glyph-name="bracketright" unicode="]" horiz-adv-x="586" 
d="M60 -355l20 94h164l325 1532h-163l20 94h266l-366 -1720h-266z" />
    <glyph glyph-name="asciicircum" unicode="^" horiz-adv-x="1076" 
d="M384 779h-119l494 589h140l244 -589h-120l-214 504z" />
    <glyph glyph-name="underscore" unicode="_" horiz-adv-x="1073" 
d="M69 -109h888l-23 -105h-887z" />
    <glyph glyph-name="grave" unicode="`" horiz-adv-x="1255" 
d="M678 1365h118l105 -273h-103z" />
    <glyph glyph-name="a" unicode="a" horiz-adv-x="939" 
d="M920 88l-19 -89q-32 -9 -58 -9q-56 0 -91 30.5t-35 79.5q0 21 9 66q-147 -195 -344 -195q-119 0 -190 70q-63 63 -63 169q0 211 247 297q75 27 160 37t272 15l27 137q5 22 5 43q0 138 -207 138q-96 0 -162.5 -43t-91.5 -122h-114q22 118 124 188.5t252 70.5t230.5 -59.5
t80.5 -170.5q0 -33 -10 -82l-94 -440q-15 -66 -15 -82q0 -51 55 -51q12 0 32 2zM790 477q-216 -9 -326 -35q-103 -24 -161.5 -83.5t-58.5 -139.5q0 -71 42.5 -112.5t115.5 -41.5q68 0 139.5 40t129.5 111q36 44 67 103t40 101z" />
    <glyph glyph-name="b" unicode="b" horiz-adv-x="1050" 
d="M155 0l290 1365h113l-123 -579q55 85 143.5 135t184.5 50q141 0 229 -89q93 -94 93 -255q0 -126 -41 -254t-108 -213q-150 -189 -359 -189q-107 0 -178.5 53t-94.5 149l-36 -173h-113zM751 877q-87 0 -163 -46t-130 -130q-106 -167 -106 -377q0 -142 80 -209
q59 -50 145 -50q175 0 291 182q47 74 74.5 174.5t27.5 198.5q0 127 -65 196q-58 61 -154 61z" />
    <glyph glyph-name="c" unicode="c" horiz-adv-x="919" 
d="M795 302h120q-31 -105 -105 -188q-129 -143 -317 -143q-158 0 -244 94q-86 93 -86 260q0 116 35.5 232t99.5 205q149 209 385 209q138 0 218 -73q47 -44 66 -93t19 -126h-121q-3 74 -30 117q-50 81 -164 81q-180 0 -297 -191q-97 -159 -97 -363q0 -142 77 -209
q56 -49 144 -49q98 0 176.5 62.5t120.5 174.5z" />
    <glyph glyph-name="d" unicode="d" horiz-adv-x="1050" 
d="M895 0h-108l36 173q-49 -65 -84 -98q-107 -104 -258 -104q-135 0 -222 87q-94 95 -94 256q0 126 41 255.5t108 212.5q151 189 365 189q100 0 175 -51t96 -134l123 579h112zM675 877q-111 0 -205 -80q-93 -79 -144 -222q-46 -129 -46 -255q0 -130 71 -199q58 -56 148 -56
q180 0 297 183q102 162 102 368q0 146 -78 211q-60 50 -145 50z" />
    <glyph glyph-name="e" unicode="e" horiz-adv-x="951" 
d="M967 445h-674q-15 -72 -15 -120q0 -127 73 -199q61 -61 160 -61q82 0 152 43t111 118h124q-32 -66 -78 -116q-130 -139 -318 -139q-159 0 -251 101q-89 97 -89 266q0 126 40 245.5t112 207.5q145 180 347 180q161 0 246 -95q83 -93 83 -249q0 -80 -23 -182zM865 535
q10 62 10 98q0 109 -57 178q-55 68 -148 68q-120 0 -213.5 -90t-144.5 -254h553z" />
    <glyph glyph-name="f" unicode="f" horiz-adv-x="504" 
d="M191 0l180 848h-149l20 94h149l32 150q22 104 35 141t38 72q68 92 192 92q48 0 107 -21l-21 -100q-47 20 -91 20q-63 0 -91.5 -38t-53.5 -152l-34 -164h177l-20 -94h-177l-180 -848h-113z" />
    <glyph glyph-name="g" unicode="g" horiz-adv-x="1046" 
d="M979 942h112l-172 -809q-29 -150 -48 -201q-54 -147 -164 -217t-286 -70q-211 0 -292 121q-31 46 -33 116h120q15 -143 208 -143q155 0 241.5 83t125.5 270l23 109q-52 -89 -134 -139t-178 -50q-141 0 -228 88q-92 91 -92 259q0 123 38.5 240.5t105.5 197.5
q146 174 349 174q211 0 270 -187zM679 877q-175 0 -284 -165q-45 -66 -71 -161.5t-26 -190.5q0 -126 60 -193q56 -61 147 -61q85 0 159.5 45.5t128.5 128.5q47 74 75 169.5t28 183.5q0 136 -80 199q-57 45 -137 45z" />
    <glyph glyph-name="h" unicode="h" 
d="M156 0l290 1365h113l-122 -571q134 177 327 177q135 0 205 -75q55 -58 55 -151q0 -65 -18 -152l-127 -593h-112l118 555q21 100 21 161q0 60 -23 95q-43 66 -145 66q-81 0 -155 -41t-122 -113q-57 -84 -92 -251l-100 -472h-113z" />
    <glyph glyph-name="i" unicode="i" horiz-adv-x="449" 
d="M404 1174l40 191h113l-41 -191h-112zM154 0l200 942h113l-200 -942h-113z" />
    <glyph glyph-name="j" unicode="j" horiz-adv-x="475" 
d="M379 942h113l-210 -986q-34 -163 -79 -222q-67 -89 -197 -89q-32 0 -62 8l21 97q24 -6 48 -6q71 0 99.5 38t56.5 170zM428 1174l41 191h113l-41 -191h-113z" />
    <glyph glyph-name="k" unicode="k" horiz-adv-x="933" 
d="M621 584l300 -584h-128l-264 515l-180 -134l-80 -381h-113l290 1365h113l-180 -846l564 423h156z" />
    <glyph glyph-name="l" unicode="l" horiz-adv-x="425" 
d="M156 0l290 1365h113l-290 -1365h-113z" />
    <glyph glyph-name="m" unicode="m" horiz-adv-x="1502" 
d="M154 0l200 942h107l-34 -159q39 58 72 91q99 97 231 97q197 0 229 -198q134 198 319 198q124 0 190 -75q50 -57 50 -146q0 -65 -19 -157l-127 -593h-112l118 555q23 108 23 168q0 54 -19 88q-18 30 -53.5 48t-76.5 18q-72 0 -137 -41t-109 -113q-51 -84 -86 -251
l-101 -472h-112l118 555q23 109 23 167q0 55 -20 89q-17 30 -52.5 48t-76.5 18q-72 0 -137 -41t-109 -113q-51 -84 -86 -251l-101 -472h-112z" />
    <glyph glyph-name="n" unicode="n" 
d="M156 0l200 942h107l-34 -159q139 188 336 188q134 0 204 -75q55 -59 55 -151q0 -65 -18 -152l-127 -593h-112l118 555q21 99 21 161q0 60 -23 95q-42 66 -145 66q-81 0 -155 -41t-122 -113q-56 -84 -92 -251l-100 -472h-113z" />
    <glyph glyph-name="o" unicode="o" horiz-adv-x="992" 
d="M690 971q165 0 257 -102q84 -94 84 -257q0 -117 -37.5 -233.5t-104.5 -206.5q-151 -201 -387 -201q-160 0 -250 93q-91 95 -91 263q0 117 36 232t100 203q153 209 393 209zM683 877q-91 0 -171 -50t-138 -141q-99 -157 -99 -357q0 -146 85 -215q60 -49 150 -49
q185 0 303 182q48 74 76 171.5t28 190.5q0 143 -82 215q-61 53 -152 53z" />
    <glyph glyph-name="p" unicode="p" horiz-adv-x="1047" 
d="M79 -355l276 1297h104l-35 -166q55 94 144 144.5t199 50.5q151 0 236 -94q87 -96 87 -253q0 -125 -39.5 -250.5t-107.5 -212.5q-146 -190 -364 -190q-108 0 -182 49t-97 136l-108 -511h-113zM751 877q-88 0 -166.5 -48t-133.5 -135q-48 -75 -76 -174.5t-28 -195.5
q0 -141 82 -209q60 -50 148 -50q184 0 301 190q97 159 97 355q0 140 -73 211q-58 56 -151 56z" />
    <glyph glyph-name="q" unicode="q" horiz-adv-x="1049" 
d="M707 -355l109 511q-55 -87 -143 -136t-189 -49q-143 0 -229 87q-90 92 -90 255q0 127 40.5 254.5t109.5 215.5q146 188 360 188q111 0 182.5 -51.5t89.5 -143.5l36 166h112l-275 -1297h-113zM674 877q-175 0 -290 -183q-103 -163 -103 -372q0 -128 65 -196
q59 -61 155 -61q177 0 292 176q48 75 76.5 176t28.5 199q0 143 -80 211q-58 50 -144 50z" />
    <glyph glyph-name="r" unicode="r" horiz-adv-x="597" 
d="M156 0l200 942h113l-43 -204q68 122 155 177.5t210 55.5h14l-24 -118h-23q-144 0 -253 -109q-57 -57 -90 -134t-64 -224l-82 -386h-113z" />
    <glyph glyph-name="s" unicode="s" horiz-adv-x="864" 
d="M133 265h118q-1 -18 -1 -31q0 -79 57.5 -124t157.5 -45q105 0 171 51q72 55 72 141q0 55 -28.5 88t-99.5 61l-144 58q-102 41 -149.5 98t-47.5 140q0 130 104 204q90 65 229 65q165 0 255 -82q58 -53 58 -141q0 -12 -2 -35h-118v24q0 66 -51 104t-140 38q-85 0 -145 -37
q-75 -47 -75 -139q0 -95 110 -137l170 -65q189 -72 189 -238q0 -122 -85 -202q-97 -90 -277 -90q-142 0 -231 59q-47 30 -73.5 80.5t-26.5 107.5q0 17 3 47z" />
    <glyph glyph-name="t" unicode="t" horiz-adv-x="544" 
d="M205 848l20 94h153l38 177l118 123h20l-64 -300h182l-20 -94h-182l-128 -604q-16 -75 -16 -102q0 -72 85 -72q35 0 79 17l-20 -95q-50 -17 -88 -17q-77 0 -123.5 42t-46.5 111q0 34 20 127l126 593h-153z" />
    <glyph glyph-name="u" unicode="u" 
d="M1072 942l-201 -942h-106l34 159q-72 -100 -150 -144t-183 -44q-134 0 -204 77q-57 62 -57 163q0 57 17 138l126 593h113l-118 -555q-22 -102 -22 -164q0 -58 25 -94q44 -64 145 -64q82 0 155 41t121 113q56 84 92 251l100 472h113z" />
    <glyph glyph-name="v" unicode="v" horiz-adv-x="847" 
d="M368 0l-136 942h124l108 -791l429 791h123l-521 -942h-127z" />
    <glyph glyph-name="w" unicode="w" horiz-adv-x="1332" 
d="M329 0l-84 942h128l57 -782l373 782h130l43 -780l388 780h122l-483 -942h-127l-46 770l-371 -770h-130z" />
    <glyph glyph-name="x" unicode="x" horiz-adv-x="855" 
d="M18 0l442 495l-216 447h141l162 -350l318 350h138l-403 -439l238 -503h-141l-185 404l-355 -404h-139z" />
    <glyph glyph-name="y" unicode="y" horiz-adv-x="828" 
d="M33 -340l20 96q10 -2 15 -4q32 -9 59 -9q55 0 92 29.5t81 108.5l70 126l-152 935h125l116 -782l428 782h124l-613 -1087q-63 -111 -112 -153q-67 -57 -167 -57q-44 0 -86 15z" />
    <glyph glyph-name="z" unicode="z" horiz-adv-x="792" 
d="M960 942l-17 -80l-740 -768h599l-20 -94h-740l20 92l731 756h-530l20 94h677z" />
    <glyph glyph-name="braceleft" unicode="{" horiz-adv-x="625" 
d="M780 1365l-20 -94h-21q-76 0 -118 -42.5t-63 -139.5l-77 -362q-20 -93 -55 -142t-106 -82q41 -24 58.5 -54.5t17.5 -79.5q0 -42 -11 -95l-80 -373q-9 -44 -9 -81q0 -42 29 -61.5t92 -19.5h17l-20 -94h-29q-194 0 -194 154q0 46 14 114l77 361q10 47 10 78q0 85 -87 112
l18 84q68 19 103.5 60.5t52.5 123.5l78 364q30 141 100 205t195 64h28z" />
    <glyph glyph-name="bar" unicode="|" horiz-adv-x="1303" 
d="M882 1365h121l-363 -1706h-121z" />
    <glyph glyph-name="braceright" unicode="}" horiz-adv-x="540" 
d="M-50 -355l20 94h18q80 0 120.5 36.5t59.5 125.5l79 373q20 94 56.5 145t105.5 84q-44 25 -60 52.5t-16 76.5q0 44 11 95l77 362q11 54 11 87q0 95 -115 95h-21l20 94h28q194 0 194 -163q0 -43 -13 -106l-78 -364q-9 -44 -9 -77q0 -81 88 -107l-18 -84q-70 -19 -105 -61
t-53 -129l-77 -361q-30 -143 -95 -204q-68 -64 -199 -64h-29z" />
    <glyph glyph-name="asciitilde" unicode="~" horiz-adv-x="1490" 
d="M581 1203l-58 53q83 114 157.5 165t156.5 51q81 0 221 -82q79 -46 114.5 -60t73.5 -14q58 0 111.5 37t121.5 124l58 -53q-58 -81 -108 -127q-100 -91 -208 -91q-43 0 -88 17.5t-135 69.5q-73 42 -110 56t-77 14q-57 0 -109.5 -36t-120.5 -124z" />
    <glyph glyph-name="Adieresis" unicode="&#xc4;" horiz-adv-x="1107" 
d="M780 1365h133l164 -1365h-129l-44 430h-511l-230 -430h-132zM449 535h444l-73 695zM960 1488l41 191h118l-40 -191h-119zM642 1488l41 191h118l-40 -191h-119z" />
    <glyph glyph-name="Aring" unicode="&#xc5;" horiz-adv-x="1107" 
d="M780 1365h133l164 -1365h-129l-44 430h-511l-230 -430h-132zM449 535h444l-73 695zM877 1727q-45 0 -76 -32t-31 -78q0 -44 31 -76t74 -32q44 0 74.5 31.5t30.5 77.5q0 45 -30.5 77t-72.5 32zM877 1803q76 0 130.5 -54.5t54.5 -130.5q0 -77 -55 -130.5t-133 -53.5
q-77 0 -132 54t-55 129q0 78 55 132t135 54z" />
    <glyph glyph-name="Ccedilla" unicode="&#xc7;" horiz-adv-x="1237" 
d="M658 -32l-49 -76q23 8 48 8q58 0 94 -33t36 -87q0 -73 -54.5 -121.5t-136.5 -48.5q-64 0 -104.5 26.5t-40.5 68.5v9h93q1 -41 52 -41q38 0 65 30.5t27 74.5q0 59 -59 59q-40 0 -62 -31h-89l104 170q-99 20 -170 75q-84 65 -131 177t-47 248q0 199 79 409q94 250 275 390
q158 122 351 122t301 -116q97 -103 97 -268v-16h-125q-4 105 -44 172q-71 121 -236 121q-248 0 -423 -286q-69 -112 -108.5 -257.5t-39.5 -287.5q0 -92 27.5 -173t74.5 -129q83 -84 214 -84q167 0 301 145q86 93 133 233h124q-47 -165 -141 -278q-170 -206 -416 -206
q-10 0 -20 1z" />
    <glyph glyph-name="Eacute" unicode="&#xc9;" horiz-adv-x="1092" 
d="M196 0l290 1365h787l-22 -106h-665l-106 -499h622l-23 -106h-622l-116 -548h672l-23 -106h-794zM1164 1737l-257 -258h-105l235 258h127z" />
    <glyph glyph-name="Ntilde" unicode="&#xd1;" horiz-adv-x="1302" 
d="M196 0l290 1365h132l413 -1169l249 1169h116l-290 -1365h-132l-414 1163l-248 -1163h-116zM1289 1703q-36 -103 -78 -148t-104 -45q-37 0 -63.5 11.5t-67.5 44.5q-52 42 -87 42q-63 0 -105 -99h-80q29 94 78.5 144t113.5 50q57 0 119 -50q58 -48 87 -48q62 0 105 98h82z
" />
    <glyph glyph-name="Odieresis" unicode="&#xd6;" horiz-adv-x="1319" 
d="M933 1396q198 0 318 -136q57 -64 89.5 -164t32.5 -210q0 -157 -46 -316t-127 -284q-100 -153 -234 -235q-136 -84 -292 -84q-222 0 -340 164q-99 136 -99 335q0 211 77 418q91 245 274 388q159 124 347 124zM935 1290q-144 0 -277 -108q-148 -120 -227 -338
q-70 -192 -70 -386q0 -187 97 -293q83 -92 215 -92q148 0 278 106q155 126 237 368q59 175 59 349q0 200 -101 308q-81 86 -211 86zM1089 1488l41 191h118l-40 -191h-119zM771 1488l41 191h118l-40 -191h-119z" />
    <glyph glyph-name="Udieresis" unicode="&#xdc;" horiz-adv-x="1249" 
d="M465 1365h123l-174 -814q-29 -139 -29 -208q0 -109 54 -175q77 -95 240 -95q202 0 295 149q28 45 43.5 97.5t52.5 232.5l173 813h122l-173 -814q-38 -205 -59 -263q-60 -171 -177 -247q-112 -74 -281 -74q-208 0 -321 107q-93 90 -93 248q0 83 32 233zM1040 1488l41 191
h118l-40 -191h-119zM722 1488l41 191h118l-40 -191h-119z" />
    <glyph glyph-name="aacute" unicode="&#xe1;" horiz-adv-x="939" 
d="M920 88l-19 -89q-32 -9 -58 -9q-56 0 -91 30.5t-35 79.5q0 21 9 66q-147 -195 -344 -195q-119 0 -190 70q-63 63 -63 169q0 211 247 297q75 27 160 37t272 15l27 137q5 22 5 43q0 138 -207 138q-96 0 -162.5 -43t-91.5 -122h-114q22 118 124 188.5t252 70.5t230.5 -59.5
t80.5 -170.5q0 -33 -10 -82l-94 -440q-15 -66 -15 -82q0 -51 55 -51q12 0 32 2zM790 477q-216 -9 -326 -35q-103 -24 -161.5 -83.5t-58.5 -139.5q0 -71 42.5 -112.5t115.5 -41.5q68 0 139.5 40t129.5 111q36 44 67 103t40 101zM956 1365l-236 -273h-103l221 273h118z" />
    <glyph glyph-name="agrave" unicode="&#xe0;" horiz-adv-x="939" 
d="M920 88l-19 -89q-32 -9 -58 -9q-56 0 -91 30.5t-35 79.5q0 21 9 66q-147 -195 -344 -195q-119 0 -190 70q-63 63 -63 169q0 211 247 297q75 27 160 37t272 15l27 137q5 22 5 43q0 138 -207 138q-96 0 -162.5 -43t-91.5 -122h-114q22 118 124 188.5t252 70.5t230.5 -59.5
t80.5 -170.5q0 -33 -10 -82l-94 -440q-15 -66 -15 -82q0 -51 55 -51q12 0 32 2zM790 477q-216 -9 -326 -35q-103 -24 -161.5 -83.5t-58.5 -139.5q0 -71 42.5 -112.5t115.5 -41.5q68 0 139.5 40t129.5 111q36 44 67 103t40 101zM547 1365h118l105 -273h-103z" />
    <glyph glyph-name="acircumflex" unicode="&#xe2;" horiz-adv-x="939" 
d="M920 88l-19 -89q-32 -9 -58 -9q-56 0 -91 30.5t-35 79.5q0 21 9 66q-147 -195 -344 -195q-119 0 -190 70q-63 63 -63 169q0 211 247 297q75 27 160 37t272 15l27 137q5 22 5 43q0 138 -207 138q-96 0 -162.5 -43t-91.5 -122h-114q22 118 124 188.5t252 70.5t230.5 -59.5
t80.5 -170.5q0 -33 -10 -82l-94 -440q-15 -66 -15 -82q0 -51 55 -51q12 0 32 2zM790 477q-216 -9 -326 -35q-103 -24 -161.5 -83.5t-58.5 -139.5q0 -71 42.5 -112.5t115.5 -41.5q68 0 139.5 40t129.5 111q36 44 67 103t40 101zM914 1092h-103l-81 197l-168 -197h-104
l231 273h109z" />
    <glyph glyph-name="adieresis" unicode="&#xe4;" horiz-adv-x="939" 
d="M798 1106l41 191h115l-41 -191h-115zM504 1106l40 191h115l-41 -191h-114zM920 88l-19 -89q-32 -9 -58 -9q-56 0 -91 30.5t-35 79.5q0 21 9 66q-147 -195 -344 -195q-119 0 -190 70q-63 63 -63 169q0 211 247 297q75 27 160 37t272 15l27 137q5 22 5 43q0 138 -207 138
q-96 0 -162.5 -43t-91.5 -122h-114q22 118 124 188.5t252 70.5t230.5 -59.5t80.5 -170.5q0 -33 -10 -82l-94 -440q-15 -66 -15 -82q0 -51 55 -51q12 0 32 2zM790 477q-216 -9 -326 -35q-103 -24 -161.5 -83.5t-58.5 -139.5q0 -71 42.5 -112.5t115.5 -41.5q68 0 139.5 40
t129.5 111q36 44 67 103t40 101z" />
    <glyph glyph-name="atilde" unicode="&#xe3;" horiz-adv-x="939" 
d="M920 88l-19 -89q-32 -9 -58 -9q-56 0 -91 30.5t-35 79.5q0 21 9 66q-147 -195 -344 -195q-119 0 -190 70q-63 63 -63 169q0 211 247 297q75 27 160 37t272 15l27 137q5 22 5 43q0 138 -207 138q-96 0 -162.5 -43t-91.5 -122h-114q22 118 124 188.5t252 70.5t230.5 -59.5
t80.5 -170.5q0 -33 -10 -82l-94 -440q-15 -66 -15 -82q0 -51 55 -51q12 0 32 2zM790 477q-216 -9 -326 -35q-103 -24 -161.5 -83.5t-58.5 -139.5q0 -71 42.5 -112.5t115.5 -41.5q68 0 139.5 40t129.5 111q36 44 67 103t40 101zM1008 1318q-35 -111 -75.5 -158.5t-99.5 -47.5
q-37 0 -62 11.5t-65 47.5q-50 45 -83 45q-62 0 -102 -105h-77q27 99 75 153t110 54q55 0 114 -53q57 -51 85 -51q60 0 101 104h79z" />
    <glyph glyph-name="aring" unicode="&#xe5;" horiz-adv-x="939" 
d="M920 88l-19 -89q-32 -9 -58 -9q-56 0 -91 30.5t-35 79.5q0 21 9 66q-147 -195 -344 -195q-119 0 -190 70q-63 63 -63 169q0 211 247 297q75 27 160 37t272 15l27 137q5 22 5 43q0 138 -207 138q-96 0 -162.5 -43t-91.5 -122h-114q22 118 124 188.5t252 70.5t230.5 -59.5
t80.5 -170.5q0 -33 -10 -82l-94 -440q-15 -66 -15 -82q0 -51 55 -51q12 0 32 2zM790 477q-216 -9 -326 -35q-103 -24 -161.5 -83.5t-58.5 -139.5q0 -71 42.5 -112.5t115.5 -41.5q68 0 139.5 40t129.5 111q36 44 67 103t40 101zM730 1358q-44 0 -74 -31.5t-30 -77.5
q0 -45 30 -77t72 -32t72 31.5t30 76.5t-29.5 77.5t-70.5 32.5zM731 1434q75 0 128.5 -54.5t53.5 -130.5t-54 -130t-131 -54t-131 54t-54 130q0 78 54.5 131.5t133.5 53.5z" />
    <glyph glyph-name="ccedilla" unicode="&#xe7;" horiz-adv-x="919" 
d="M508 -28l-47 -80q23 8 46 8q52 0 83.5 -31t31.5 -83q0 -74 -54 -125t-133 -51q-58 0 -95 26.5t-37 68.5v9h86q0 -41 57 -41q38 0 63 31t25 76q0 57 -54 57q-45 0 -68 -31h-82l101 170q-56 9 -96 27q-85 39 -126 120q-46 90 -46 202q0 116 36 232t99 205q149 209 385 209
q138 0 218 -73q47 -44 66 -93t19 -126h-121q-3 74 -30 117q-50 81 -164 81q-180 0 -297 -191q-97 -159 -97 -362q0 -142 77 -209q56 -49 144 -49q98 0 177 62.5t120 173.5h120q-43 -143 -156 -236q-109 -89 -251 -94z" />
    <glyph glyph-name="eacute" unicode="&#xe9;" horiz-adv-x="951" 
d="M967 445h-674q-15 -72 -15 -120q0 -127 73 -199q61 -61 160 -61q82 0 152 43t111 118h124q-32 -66 -78 -116q-130 -139 -318 -139q-159 0 -251 101q-89 97 -89 266q0 126 40 245.5t112 207.5q145 180 347 180q161 0 246 -95q83 -93 83 -249q0 -80 -23 -182zM865 535
q10 62 10 98q0 109 -57 178q-55 68 -148 68q-120 0 -213.5 -90t-144.5 -254h553zM958 1365l-236 -273h-103l221 273h118z" />
    <glyph glyph-name="egrave" unicode="&#xe8;" horiz-adv-x="951" 
d="M967 445h-674q-15 -72 -15 -120q0 -127 73 -199q61 -61 160 -61q82 0 152 43t111 118h124q-32 -66 -78 -116q-130 -139 -318 -139q-159 0 -251 101q-89 97 -89 266q0 126 40 245.5t112 207.5q145 180 347 180q161 0 246 -95q83 -93 83 -249q0 -80 -23 -182zM865 535
q10 62 10 98q0 109 -57 178q-55 68 -148 68q-120 0 -213.5 -90t-144.5 -254h553zM504 1365h118l105 -273h-103z" />
    <glyph glyph-name="ecircumflex" unicode="&#xea;" horiz-adv-x="951" 
d="M967 445h-674q-15 -72 -15 -120q0 -127 73 -199q61 -61 160 -61q82 0 152 43t111 118h124q-32 -66 -78 -116q-130 -139 -318 -139q-159 0 -251 101q-89 97 -89 266q0 126 40 245.5t112 207.5q145 180 347 180q161 0 246 -95q83 -93 83 -249q0 -80 -23 -182zM865 535
q10 62 10 98q0 109 -57 178q-55 68 -148 68q-120 0 -213.5 -90t-144.5 -254h553zM919 1092h-103l-81 197l-168 -197h-104l231 273h109z" />
    <glyph glyph-name="edieresis" unicode="&#xeb;" horiz-adv-x="951" 
d="M796 1106l41 191h114l-40 -191h-115zM502 1106l40 191h115l-41 -191h-114zM967 445h-674q-15 -72 -15 -120q0 -127 73 -199q61 -61 160 -61q82 0 152 43t111 118h124q-32 -66 -78 -116q-130 -139 -318 -139q-159 0 -251 101q-89 97 -89 266q0 126 40 245.5t112 207.5
q145 180 347 180q161 0 246 -95q83 -93 83 -249q0 -80 -23 -182zM865 535q10 62 10 98q0 109 -57 178q-55 68 -148 68q-120 0 -213.5 -90t-144.5 -254h553z" />
    <glyph glyph-name="iacute" unicode="&#xed;" horiz-adv-x="455" 
d="M154 0l200 942h113l-200 -942h-113zM714 1365l-236 -273h-103l221 273h118z" />
    <glyph glyph-name="igrave" unicode="&#xec;" horiz-adv-x="455" 
d="M154 0l200 942h113l-200 -942h-113zM287 1365h118l105 -273h-103z" />
    <glyph glyph-name="icircumflex" unicode="&#xee;" horiz-adv-x="455" 
d="M154 0l200 942h113l-200 -942h-113zM668 1092h-103l-81 197l-168 -197h-104l231 273h109z" />
    <glyph glyph-name="idieresis" unicode="&#xef;" horiz-adv-x="455" 
d="M154 0l200 942h113l-200 -942h-113zM507 1106l40 191h115l-41 -191h-114zM259 1106l41 191h114l-40 -191h-115z" />
    <glyph glyph-name="ntilde" unicode="&#xf1;" 
d="M156 0l200 942h107l-34 -159q139 188 336 188q134 0 204 -75q55 -59 55 -151q0 -65 -18 -152l-127 -593h-112l118 555q21 99 21 161q0 60 -23 95q-42 66 -145 66q-81 0 -155 -41t-122 -113q-56 -84 -92 -251l-100 -472h-113zM1054 1318q-35 -111 -75.5 -158.5
t-99.5 -47.5q-37 0 -62 11.5t-65 47.5q-50 45 -83 45q-62 0 -102 -105h-77q27 99 75 153t110 54q55 0 114 -53q57 -51 85 -51q60 0 101 104h79z" />
    <glyph glyph-name="oacute" unicode="&#xf3;" horiz-adv-x="992" 
d="M690 971q165 0 257 -102q84 -94 84 -257q0 -117 -37.5 -233.5t-104.5 -206.5q-151 -201 -387 -201q-160 0 -250 93q-91 95 -91 263q0 117 36 232t100 203q153 209 393 209zM683 877q-91 0 -171 -50t-138 -141q-99 -157 -99 -357q0 -146 85 -215q60 -49 150 -49
q185 0 303 182q48 74 76 171.5t28 190.5q0 143 -82 215q-61 53 -152 53zM1016 1365l-236 -273h-103l221 273h118z" />
    <glyph glyph-name="ograve" unicode="&#xf2;" horiz-adv-x="992" 
d="M690 971q165 0 257 -102q84 -94 84 -257q0 -117 -37.5 -233.5t-104.5 -206.5q-151 -201 -387 -201q-160 0 -250 93q-91 95 -91 263q0 117 36 232t100 203q153 209 393 209zM683 877q-91 0 -171 -50t-138 -141q-99 -157 -99 -357q0 -146 85 -215q60 -49 150 -49
q185 0 303 182q48 74 76 171.5t28 190.5q0 143 -82 215q-61 53 -152 53zM585 1365h118l105 -273h-103z" />
    <glyph glyph-name="ocircumflex" unicode="&#xf4;" horiz-adv-x="992" 
d="M690 971q165 0 257 -102q84 -94 84 -257q0 -117 -37.5 -233.5t-104.5 -206.5q-151 -201 -387 -201q-160 0 -250 93q-91 95 -91 263q0 117 36 232t100 203q153 209 393 209zM683 877q-91 0 -171 -50t-138 -141q-99 -157 -99 -357q0 -146 85 -215q60 -49 150 -49
q185 0 303 182q48 74 76 171.5t28 190.5q0 143 -82 215q-61 53 -152 53zM969 1092h-103l-81 197l-168 -197h-104l231 273h109z" />
    <glyph glyph-name="odieresis" unicode="&#xf6;" horiz-adv-x="992" 
d="M690 971q165 0 257 -102q84 -94 84 -257q0 -117 -37.5 -233.5t-104.5 -206.5q-151 -201 -387 -201q-160 0 -250 93q-91 95 -91 263q0 117 36 232t100 203q153 209 393 209zM683 877q-91 0 -171 -50t-138 -141q-99 -157 -99 -357q0 -146 85 -215q60 -49 150 -49
q185 0 303 182q48 74 76 171.5t28 190.5q0 143 -82 215q-61 53 -152 53zM815 1106l41 191h115l-41 -191h-115zM521 1106l40 191h115l-40 -191h-115z" />
    <glyph glyph-name="otilde" unicode="&#xf5;" horiz-adv-x="992" 
d="M690 971q165 0 257 -102q84 -94 84 -257q0 -117 -37.5 -233.5t-104.5 -206.5q-151 -201 -387 -201q-160 0 -250 93q-91 95 -91 263q0 117 36 232t100 203q153 209 393 209zM683 877q-91 0 -171 -50t-138 -141q-99 -157 -99 -357q0 -146 85 -215q60 -49 150 -49
q185 0 303 182q48 74 76 171.5t28 190.5q0 143 -82 215q-61 53 -152 53zM1029 1318q-35 -111 -75.5 -158.5t-99.5 -47.5q-37 0 -62 11.5t-65 47.5q-50 45 -83 45q-62 0 -102 -105h-77q27 99 75 153t110 54q55 0 114 -53q57 -51 85 -51q60 0 101 104h79z" />
    <glyph glyph-name="uacute" unicode="&#xfa;" 
d="M1072 942l-201 -942h-106l34 159q-72 -100 -150 -144t-183 -44q-134 0 -204 77q-57 62 -57 163q0 57 17 138l126 593h113l-118 -555q-22 -102 -22 -164q0 -58 25 -94q44 -64 145 -64q82 0 155 41t121 113q56 84 92 251l100 472h113zM1014 1365l-236 -273h-103l221 273
h118z" />
    <glyph glyph-name="ugrave" unicode="&#xf9;" 
d="M1072 942l-201 -942h-106l34 159q-72 -100 -150 -144t-183 -44q-134 0 -204 77q-57 62 -57 163q0 57 17 138l126 593h113l-118 -555q-22 -102 -22 -164q0 -58 25 -94q44 -64 145 -64q82 0 155 41t121 113q56 84 92 251l100 472h113zM567 1365h118l105 -273h-103z" />
    <glyph glyph-name="ucircumflex" unicode="&#xfb;" 
d="M1072 942l-201 -942h-106l34 159q-72 -100 -150 -144t-183 -44q-134 0 -204 77q-57 62 -57 163q0 57 17 138l126 593h113l-118 -555q-22 -102 -22 -164q0 -58 25 -94q44 -64 145 -64q82 0 155 41t121 113q56 84 92 251l100 472h113zM954 1092h-103l-81 197l-168 -197
h-104l231 273h109z" />
    <glyph glyph-name="udieresis" unicode="&#xfc;" 
d="M1072 942l-201 -942h-106l34 159q-72 -100 -150 -144t-183 -44q-134 0 -204 77q-57 62 -57 163q0 57 17 138l126 593h113l-118 -555q-22 -102 -22 -164q0 -58 25 -94q44 -64 145 -64q82 0 155 41t121 113q56 84 92 251l100 472h113zM823 1106l41 191h114l-40 -191h-115z
M528 1106l41 191h115l-41 -191h-115z" />
    <glyph glyph-name="dagger" unicode="&#x2020;" horiz-adv-x="1040" 
d="M1092 943l-22 -102h-323l-254 -1196h-103l254 1196h-318l22 102h318l90 422h102l-89 -422h323z" />
    <glyph glyph-name="degree" unicode="&#xb0;" horiz-adv-x="956" 
d="M672 1365q74 0 137.5 -35t102.5 -96q42 -66 42 -143q0 -114 -82 -195q-83 -81 -200 -81q-118 0 -200 81t-82 197q0 113 82 192q85 80 200 80zM672 1286q-81 0 -138 -58q-57 -57 -57 -135q0 -67 37 -118q59 -81 158 -81q81 0 138 58q57 57 57 138q0 64 -37 115
q-58 81 -158 81z" />
    <glyph glyph-name="cent" unicode="&#xa2;" horiz-adv-x="924" 
d="M481 190q-53 9 -90 28q-77 40 -113 120q-41 91 -41 202q0 137 45 268t125 226q112 133 285 149l30 141h100l-31 -144q113 -19 174 -93.5t61 -193.5h-121q-6 157 -135 191l-169 -797q77 18 138.5 79t95.5 151h120q-40 -135 -143.5 -225.5t-231.5 -103.5l-31 -147h-100z
M501 284l171 803q-101 -18 -174 -104q-69 -81 -108 -199.5t-39 -246.5q0 -107 39 -173t111 -80z" />
    <glyph glyph-name="sterling" unicode="&#xa3;" horiz-adv-x="867" 
d="M803 655l-21 -100h-271q-22 -225 -244 -413q84 52 141 52q33 0 56.5 -12.5t76.5 -57.5q47 -40 91 -40q95 0 139 151h107q-34 -129 -101 -196.5t-161 -67.5q-44 0 -73.5 12t-78.5 49q-64 48 -115 48q-46 0 -94 -20t-134 -74l-36 77q137 103 215.5 231.5t83.5 260.5h-180
l21 100h148q-8 31 -43 137q-32 98 -32 194q0 181 113 294q112 112 297 112q154 0 245 -76.5t91 -205.5q0 -39 -11 -97h-117q9 47 9 79q0 203 -221 203q-158 0 -235 -118q-46 -71 -46 -182q0 -67 37 -179q40 -122 47 -161h296z" />
    <glyph glyph-name="section" unicode="&#xa7;" horiz-adv-x="1031" 
d="M1039 1079h-107q6 34 6 66q0 152 -174 152q-67 0 -114 -29q-81 -52 -81 -159q0 -60 30.5 -112t100.5 -111l162 -136q140 -117 140 -248q0 -106 -67 -202.5t-185 -160.5q59 -89 59 -180q0 -135 -73 -221q-91 -107 -252 -107q-125 0 -201 61q-92 73 -92 200q0 32 10 79h109
q-6 -34 -6 -63q0 -83 47.5 -129.5t132.5 -46.5q92 0 151.5 56t59.5 143q0 119 -114 214l-177 148q-151 127 -151 287q0 126 85 216q44 45 165 120q-46 90 -46 187q0 141 94 221q85 72 221 72q127 0 203 -67q75 -67 75 -178q0 -35 -11 -72zM551 856q-185 -89 -185 -255
q0 -108 116 -208l165 -143q19 -17 51 -51q65 28 112 78q78 83 78 187q0 99 -122 204l-156 133q-46 40 -59 55z" />
    <glyph glyph-name="bullet" unicode="&#x2022;" horiz-adv-x="740" 
d="M316 521v394h395v-394h-395z" />
    <glyph glyph-name="paragraph" unicode="&#xb6;" horiz-adv-x="1129" 
d="M423 -206l179 846q-131 2 -203.5 77t-72.5 208q0 109 39.5 203.5t108.5 148.5q111 88 317 88h439l-19 -90h-114l-315 -1481h-100l315 1481h-160l-315 -1481h-99z" />
    <glyph glyph-name="germandbls" unicode="&#xdf;" horiz-adv-x="988" 
d="M299 0h-113l180 848h-137l20 94h137q29 156 54.5 224.5t71.5 118.5q103 111 263 111q142 0 225 -81q66 -64 66 -157q0 -69 -34 -127.5t-129 -153.5q-78 -79 -78 -141q0 -61 62 -146q54 -74 76 -130t22 -118q0 -156 -117 -261q-112 -101 -296 -101q-83 0 -151 20l22 101
q59 -27 130 -27q140 0 227 95q70 75 70 177q0 49 -17 89.5t-69 116.5q-75 109 -75 176q0 50 26.5 95.5t97.5 120.5q116 121 116 212q0 69 -47 107.5t-131 38.5q-130 0 -195 -104q-23 -37 -36 -81.5t-41 -172.5z" />
    <glyph glyph-name="registered" unicode="&#xae;" horiz-adv-x="1483" 
d="M528 266l177 836h281q111 0 168.5 -46t57.5 -135q0 -86 -45.5 -150.5t-132.5 -101.5q76 -25 76 -120q0 -38 -10 -104q-14 -92 -14 -122q0 -28 15 -57h-108q-10 27 -10 45q0 43 13 112q10 56 10 102q0 56 -43 80t-141 24h-121l-78 -363h-95zM718 711h160q116 0 168 43
q67 57 67 149q0 114 -147 114h-183zM980 1313q-186 0 -352 -120q-181 -130 -264 -356q-47 -126 -47 -252q0 -150 63 -275q63 -126 177 -195q106 -63 238 -63q190 0 355 126q181 138 258 357q43 120 43 244q0 149 -60 272q-58 116 -157 184q-115 78 -254 78zM993 1396
q236 0 391.5 -172.5t155.5 -435.5q0 -288 -187 -523q-109 -138 -252 -215q-154 -83 -318 -83q-210 0 -359 132q-147 132 -185 347q-11 64 -11 129q0 141 53 282q96 255 305 404q190 135 407 135z" />
    <glyph glyph-name="copyright" unicode="&#xa9;" horiz-adv-x="1483" 
d="M1055 550h96q-35 -109 -102 -183q-112 -124 -268 -124q-119 0 -189 77q-75 84 -75 223q0 107 37 217t99 191q132 170 317 170q116 0 183 -72q58 -63 58 -155q0 -10 -1 -30h-97q-10 172 -163 172q-145 0 -247 -165q-87 -140 -87 -319q0 -116 60 -176q48 -48 125 -48
q84 0 151.5 59.5t102.5 162.5zM963 1313q-186 0 -352 -120q-181 -130 -264 -355q-47 -126 -47 -253q0 -150 63 -275q63 -126 177 -195q106 -63 238 -63q190 0 355 126q181 138 258 357q43 120 43 245q0 149 -60 271q-58 116 -157 184q-115 78 -254 78zM976 1396
q236 0 391.5 -172.5t155.5 -435.5q0 -288 -187 -523q-109 -138 -252 -215q-154 -83 -318 -83q-210 0 -359 132q-147 132 -185 347q-11 64 -11 129q0 141 53 282q96 255 305 404q190 135 407 135z" />
    <glyph glyph-name="trademark" unicode="&#x2122;" horiz-adv-x="1574" 
d="M467 546h-94l157 736h-235l18 83h563l-18 -83h-234zM790 546l175 819h120l87 -679l371 679h121l-174 -819h-90l139 655l-356 -655h-81l-83 652l-138 -652h-91z" />
    <glyph glyph-name="acute" unicode="&#xb4;" horiz-adv-x="1255" 
d="M1157 1365l-236 -273h-103l221 273h118z" />
    <glyph glyph-name="dieresis" unicode="&#xa8;" horiz-adv-x="1217" 
d="M934 1106l40 191h115l-41 -191h-114zM639 1106l41 191h114l-40 -191h-115z" />
    <glyph glyph-name="notequal" unicode="&#x2260;" horiz-adv-x="1073" 
d="M419 279l-80 53l134 169h-274l22 105h335l133 168h-432l22 105h493l175 221l79 -52l-133 -169h274l-23 -105h-334l-133 -168h432l-23 -105h-492z" />
    <glyph glyph-name="AE" unicode="&#xc6;" horiz-adv-x="1530" 
d="M1449 106l-22 -106h-712l91 430h-405l-274 -430h-133l884 1365h832l-22 -106h-583l-106 -499h539l-22 -106h-540l-116 -548h589zM828 535l154 724h-55l-460 -724h361z" />
    <glyph glyph-name="Oslash" unicode="&#xd8;" horiz-adv-x="1380" 
d="M379 153q-83 131 -83 320q0 175 55.5 350t151.5 302q100 132 230 204q124 68 258 68q184 0 299 -113l90 113h121l-151 -188q84 -137 84 -326q0 -155 -46 -314t-127 -283q-99 -152 -234 -235q-137 -84 -291 -84q-180 0 -295 109l-88 -109h-124zM461 256l755 937
q-83 97 -221 97q-144 0 -276 -108q-148 -121 -227 -338q-70 -192 -70 -382q0 -112 39 -206zM1268 1106l-753 -937q84 -95 219 -95q146 0 277 106q156 125 238 368q59 176 59 345q0 112 -40 213z" />
    <glyph glyph-name="infinity" unicode="&#x221e;" horiz-adv-x="1397" 
d="M841 634q-55 -78 -98 -125q-107 -117 -253 -117q-130 0 -212 86.5t-82 224.5q0 126 77 208q85 91 218 91q100 0 180.5 -56.5t166.5 -185.5q52 77 96 124q110 117 254 117q142 0 225 -100q69 -84 69 -207q0 -133 -82 -216q-84 -85 -213 -85q-100 0 -180 56t-166 185z
M890 697q76 -119 142 -169t148 -50q90 0 147.5 61.5t57.5 156.5q0 83 -42 138q-61 82 -165 82q-81 0 -144 -48t-144 -171zM789 696q-77 121 -143.5 171t-149.5 50q-89 0 -146.5 -61.5t-57.5 -157.5q0 -87 44 -143q61 -78 164 -78q81 0 143.5 47t145.5 172z" />
    <glyph glyph-name="plusminus" unicode="&#xb1;" horiz-adv-x="1073" 
d="M224 664h388l76 361h113l-77 -361h388l-23 -105h-387l-77 -362h-113l77 362h-387zM105 105h888l-23 -105h-887z" />
    <glyph glyph-name="lessequal" unicode="&#x2264;" horiz-adv-x="1073" 
d="M1228 1008l-25 -115l-819 -306l690 -305l-25 -115l-809 367l22 107zM1036 107l-23 -107h-887l23 107h887z" />
    <glyph glyph-name="greaterequal" unicode="&#x2265;" horiz-adv-x="1073" 
d="M331 1008l810 -367l-23 -107l-966 -367l25 115l819 305l-689 306zM140 107h887l-23 -107h-887z" />
    <glyph glyph-name="yen" unicode="&#xa5;" horiz-adv-x="1056" 
d="M566 0h-118l64 304h-270l22 104h270l30 142h-270l22 104h268l-249 711h134l201 -600l454 600h134l-550 -711h267l-23 -104h-269l-30 -142h269l-22 -104h-269z" />
    <glyph glyph-name="mu" unicode="&#xb5;" horiz-adv-x="1034" 
d="M276 41l-84 -396h-113l276 1297h112l-118 -555q-22 -105 -22 -164q0 -58 25 -94q45 -64 145 -64q82 0 155.5 41t121.5 113q56 84 91 251l101 472h112l-200 -942h-107l34 159q-72 -100 -149.5 -144t-183.5 -44q-124 0 -196 70z" />
    <glyph glyph-name="partialdiff" unicode="&#x2202;" horiz-adv-x="1011" 
d="M883 922q-49 123 -90 186q-80 124 -210 223l60 63q113 -57 207 -166q82 -94 129 -214q73 -186 73 -379q0 -271 -144 -463q-150 -201 -386 -201q-160 0 -250 93q-91 95 -91 265q0 116 36 230t100 203q74 101 177 155q100 54 212 54q105 0 177 -49zM703 877q-91 0 -171 -50
t-138 -141q-99 -157 -99 -357q0 -146 85 -215q60 -49 150 -49q185 0 303 182q48 74 76 171.5t28 190.5q0 143 -82 215q-61 53 -152 53z" />
    <glyph glyph-name="summation" unicode="&#x2211;" horiz-adv-x="1436" 
d="M1561 1536l-96 -454h-107l64 346h-895l329 -874l-718 -960h913l79 347h111l-96 -453h-1158l26 124l707 942l-323 862l25 120h1139z" />
    <glyph glyph-name="product" unicode="&#x220f;" horiz-adv-x="1381" 
d="M384 1536h1266l-24 -117h-153l-385 -1814h152l-25 -117h-441l25 117h162l386 1814h-708l-386 -1814h159l-24 -117h-439l25 117h153l385 1814h-152z" />
    <glyph glyph-name="_002" horiz-adv-x="523" 
 />
    <glyph glyph-name="integral" unicode="&#x222b;" horiz-adv-x="1170" 
d="M199 -490l51 107q37 -21 81 -21q79 0 113 56q15 23 22 48t31 140l282 1325q37 187 60 237q29 63 86.5 98.5t132.5 35.5q47 0 132 -23l-51 -107q-40 21 -82 21q-74 0 -109 -53q-24 -35 -51 -162l-293 -1378q-27 -143 -38.5 -180t-41.5 -76q-68 -90 -206 -90q-59 0 -119 22
z" />
    <glyph glyph-name="ordfeminine" unicode="&#xaa;" horiz-adv-x="563" 
d="M671 623l-16 -73q-33 -13 -60 -13q-58 0 -58 57q0 14 5 40q-86 -108 -192 -108q-67 0 -109 42.5t-42 111.5q0 62 39.5 111.5t109.5 73.5q68 24 236 28l9 43q4 17 4 35q0 89 -104 89q-128 0 -141 -112h-83q11 91 69 139.5t157 48.5t146 -49q43 -43 43 -112q0 -27 -12 -82
l-45 -211q-9 -44 -9 -54q0 -14 14 -14q9 0 39 9zM570 824q-159 -7 -214 -38q-67 -39 -67 -111q0 -33 21.5 -53t58.5 -20q63 0 120.5 58t75.5 141z" />
    <glyph glyph-name="ordmasculine" unicode="&#xba;" horiz-adv-x="601" 
d="M525 1136q104 0 159 -65q50 -58 50 -158q0 -148 -79 -263q-85 -124 -230 -124q-98 0 -153 59q-53 58 -53 167q0 148 76 259q86 125 230 125zM520 1060q-102 0 -161 -103q-51 -89 -51 -212q0 -68 33 -105.5t93 -37.5q97 0 156 101q55 93 55 211q0 69 -33 107.5t-92 38.5z
" />
    <glyph glyph-name="Omega" unicode="&#x2126;" horiz-adv-x="1320" 
d="M130 0l22 102h291q-191 180 -191 493q0 354 196 587q97 117 235 173q105 42 219 42q160 0 280 -80q197 -132 197 -437q0 -278 -154 -508q-106 -159 -291 -270h277l-21 -102h-432l20 96q180 103 280 226q91 110 142 255.5t51 290.5q0 171 -62 278q-40 68 -112 108
q-78 42 -173 42q-127 0 -240 -71q-133 -84 -211 -253t-78 -374q0 -168 48.5 -285t159.5 -217l-21 -96h-432z" />
    <glyph glyph-name="ae" unicode="&#xe6;" horiz-adv-x="1532" 
d="M777 231q-167 -260 -410 -260q-121 0 -191 70q-63 64 -63 167q0 199 244 279q74 25 158 34t270 14l34 161q5 21 5 41q0 140 -208 140q-96 0 -159 -42t-86 -123h-115q18 116 119.5 187.5t249.5 71.5q126 0 204 -43t100 -123q17 21 33 37q127 129 293 129q159 0 244 -95
q83 -93 83 -250q0 -78 -23 -181h-674q-14 -73 -14 -120q0 -127 73 -199q61 -61 161 -61q83 0 152 42.5t110 118.5h125q-28 -58 -79 -115q-125 -140 -314 -140q-130 0 -213 67t-109 193zM766 448q-180 0 -321 -30q-102 -23 -159 -75.5t-57 -125.5q0 -70 43 -111t115 -41
q127 0 238 112t141 271zM1458 535q9 61 9 98q0 108 -57 178q-55 68 -148 68q-119 0 -213 -90t-145 -254h554z" />
    <glyph glyph-name="oslash" unicode="&#xf8;" horiz-adv-x="1053" 
d="M263 94q-66 98 -66 239q0 112 36.5 226.5t99.5 201.5q74 101 177 156q101 54 215 54q126 0 213 -62l52 62h113l-102 -124q66 -93 66 -240q0 -113 -38 -229.5t-104 -204.5q-151 -202 -385 -202q-124 0 -213 60l-49 -60h-117zM340 188l529 637q-60 51 -151 51
q-89 0 -170 -50t-138 -141q-46 -72 -72.5 -166.5t-26.5 -183.5q0 -77 29 -147zM923 753l-527 -639q61 -48 151 -48q184 0 302 182q48 73 76 170.5t28 188.5q0 78 -30 146z" />
    <glyph glyph-name="questiondown" unicode="&#xbf;" horiz-adv-x="936" 
d="M842 14q-20 -147 -92 -240q-110 -143 -306 -143q-146 0 -242 72q-49 36 -76.5 93.5t-27.5 120.5q0 100 58.5 189t193.5 194q80 62 110 94.5t52 79.5q18 38 35 128h113q-12 -114 -57.5 -184.5t-184.5 -186.5q-110 -92 -154 -160t-44 -147q0 -86 60 -134q63 -52 164 -52
q118 0 196 75t91 201h111zM564 737l44 205h139l-43 -205h-140z" />
    <glyph glyph-name="exclamdown" unicode="&#xa1;" horiz-adv-x="563" 
d="M145 -355l92 434l139 520h67l-83 -520l-93 -434h-122zM552 942l-44 -205h-139l43 205h140z" />
    <glyph glyph-name="logicalnot" unicode="&#xac;" horiz-adv-x="1006" 
d="M843 187l97 454h-770l23 107h887l-119 -561h-118z" />
    <glyph glyph-name="radical" unicode="&#x221a;" horiz-adv-x="1374" 
d="M1730 1693l-22 -98h-408l-828 -1595h-120l-57 625h-158l21 98h230l48 -576l799 1546h495z" />
    <glyph glyph-name="florin" unicode="&#x192;" horiz-adv-x="591" 
d="M296 848l20 94h147l53 150q36 107 52.5 143t45.5 70q75 92 198 92q47 0 101 -21l-22 -103q-37 23 -79 23q-84 0 -126 -67q-21 -34 -53 -123l-58 -164h155l-20 -94h-168l-376 -1066h-113l377 1066h-134z" />
    <glyph glyph-name="approxequal" unicode="&#x2248;" horiz-adv-x="1046" 
d="M254 712l-59 47q157 216 315 216q78 0 219 -82q78 -46 114.5 -60t75.5 -14q58 0 111 35.5t120 119.5l59 -47q-59 -81 -110 -127q-97 -90 -203 -90q-45 0 -90 17t-134 69q-73 41 -111.5 55.5t-78.5 14.5q-105 0 -228 -154zM185 388l-59 47q156 216 315 216q79 0 219 -81
q78 -46 114.5 -60t75.5 -14q58 0 110.5 34.5t120.5 119.5l59 -47q-155 -217 -313 -217q-45 0 -91 17.5t-133 68.5q-74 42 -111.5 56t-78.5 14q-56 0 -108 -35t-120 -119z" />
    <glyph glyph-name="Delta" unicode="&#x2206;" horiz-adv-x="1107" 
d="M31 0l749 1365h133l164 -1365h-1046zM820 1230l-602 -1125h719z" />
    <glyph glyph-name="guillemotleft" unicode="&#xab;" horiz-adv-x="775" 
d="M385 198l-168 251l24 115l275 249l-28 -133l-188 -174l115 -170zM643 199l-168 248l24 115l274 250l-28 -132l-188 -175l114 -172z" />
    <glyph glyph-name="guillemotright" unicode="&#xbb;" horiz-adv-x="775" 
d="M603 813l170 -252l-24 -114l-276 -249l28 132l189 174l-116 171zM347 811l168 -247l-24 -115l-274 -250l28 131l188 175l-114 173z" />
    <glyph glyph-name="ellipsis" unicode="&#x2026;" horiz-adv-x="1310" 
d="M363 205l-44 -205h-139l44 205h139zM768 205l-43 -205h-139l43 205h139zM1174 205l-44 -205h-139l44 205h139z" />
    <glyph glyph-name="_003" horiz-adv-x="988" 
 />
    <glyph glyph-name="Agrave" unicode="&#xc0;" horiz-adv-x="1107" 
d="M780 1365h133l164 -1365h-129l-44 430h-511l-230 -430h-132zM449 535h444l-73 695zM673 1737h126l126 -258h-105z" />
    <glyph glyph-name="Atilde" unicode="&#xc3;" horiz-adv-x="1107" 
d="M780 1365h133l164 -1365h-129l-44 430h-511l-230 -430h-132zM449 535h444l-73 695zM1185 1703q-36 -103 -78 -148t-104 -45q-37 0 -63.5 11.5t-67.5 44.5q-52 42 -87 42q-63 0 -105 -99h-80q29 94 78.5 144t113.5 50q57 0 119 -50q58 -48 87 -48q62 0 105 98h82z" />
    <glyph glyph-name="Otilde" unicode="&#xd5;" horiz-adv-x="1319" 
d="M933 1396q198 0 318 -136q57 -64 89.5 -164t32.5 -210q0 -157 -46 -316t-127 -284q-100 -153 -234 -235q-136 -84 -292 -84q-222 0 -340 164q-99 136 -99 335q0 211 77 418q91 245 274 388q159 124 347 124zM935 1290q-144 0 -277 -108q-148 -120 -227 -338
q-70 -192 -70 -386q0 -187 97 -293q83 -92 215 -92q148 0 278 106q155 126 237 368q59 175 59 349q0 200 -101 308q-81 86 -211 86zM1316 1703q-36 -103 -78 -148t-104 -45q-37 0 -63.5 11.5t-67.5 44.5q-52 42 -87 42q-63 0 -105 -99h-80q29 94 78.5 144t113.5 50
q57 0 119 -50q58 -48 87 -48q62 0 105 98h82z" />
    <glyph glyph-name="OE" unicode="&#x152;" horiz-adv-x="1843" 
d="M2023 1365l-22 -106h-638l-106 -499h594l-22 -106h-594l-117 -548h644l-22 -106h-767l21 94q-33 -30 -56 -47q-106 -80 -262 -80q-224 0 -342 163q-99 137 -99 339q0 177 55.5 352.5t151.5 303.5q205 271 490 271q106 0 177.5 -36t127.5 -118l26 123h760zM1208 1105
q-77 185 -274 185q-145 0 -276 -108q-148 -121 -227 -338q-70 -192 -70 -384q0 -189 97 -295q83 -92 214 -92q199 0 355 182z" />
    <glyph glyph-name="oe" unicode="&#x153;" horiz-adv-x="1560" 
d="M853 198q-136 -227 -368 -227q-149 0 -236 94q-88 94 -88 265q0 115 35 229t96 202q148 210 379 210q189 0 266 -142q13 -25 23 -59q142 201 341 201q152 0 231 -95q78 -93 78 -250q0 -78 -21 -181h-633q-13 -71 -13 -120q0 -127 68 -198q58 -62 149 -62q70 0 135 43.5
t102 115.5h122q-28 -58 -75 -113q-121 -140 -292 -140q-228 0 -299 227zM1484 535q9 61 9 99q0 107 -52 176q-51 69 -136 69q-111 0 -197.5 -90t-133.5 -254h510zM654 877q-84 0 -158.5 -49.5t-128.5 -142.5q-92 -155 -92 -356q0 -146 79 -215q56 -49 139 -49q173 0 283 183
q96 160 96 361q0 143 -76 215q-57 53 -142 53z" />
    <glyph glyph-name="endash" unicode="&#x2013;" horiz-adv-x="1046" 
d="M1004 560l-22 -106h-725l23 106h724z" />
    <glyph glyph-name="emdash" unicode="&#x2014;" horiz-adv-x="1520" 
d="M1459 560l-23 -106h-1152l23 106h1152z" />
    <glyph glyph-name="quotedblleft" unicode="&#x201c;" horiz-adv-x="747" 
d="M374 915l32 148q31 146 80 218t140 105l-18 -82q-80 -41 -105 -161l-5 -24h59l-44 -204h-139zM626 915l31 148q31 146 80 218t140 105l-17 -82q-80 -41 -105 -161l-5 -24h58l-43 -204h-139z" />
    <glyph glyph-name="quotedblright" unicode="&#x201d;" horiz-adv-x="747" 
d="M606 1365l-32 -148q-31 -147 -80 -219t-140 -104l17 82q80 41 106 161l5 23h-59l44 205h139zM857 1365l-31 -148q-31 -147 -80.5 -219t-139.5 -104l17 82q79 41 105 161l5 23h-58l43 205h139z" />
    <glyph glyph-name="quoteleft" unicode="&#x2018;" horiz-adv-x="495" 
d="M374 915l32 148q31 146 80 218t140 105l-18 -82q-80 -41 -105 -161l-5 -24h59l-44 -204h-139z" />
    <glyph glyph-name="quoteright" unicode="&#x2019;" horiz-adv-x="495" 
d="M606 1365l-32 -148q-31 -147 -80 -219t-140 -104l17 82q80 41 106 161l5 23h-59l44 205h139z" />
    <glyph glyph-name="divide" unicode="&#xf7;" horiz-adv-x="1073" 
d="M250 742h888l-23 -105h-887zM827 1090l-37 -174h-118l37 174h118zM694 462l-37 -174h-119l37 174h119z" />
    <glyph glyph-name="lozenge" unicode="&#x25ca;" horiz-adv-x="1464" 
d="M1033 1419l376 -736l-689 -736l-375 736zM995 1237l-522 -554l286 -555l521 555z" />
    <glyph glyph-name="ydieresis" unicode="&#xff;" horiz-adv-x="828" 
d="M33 -340l20 96q10 -2 15 -4q32 -9 59 -9q55 0 92 29.5t81 108.5l70 126l-152 935h125l116 -782l428 782h124l-613 -1087q-63 -111 -112 -153q-67 -57 -167 -57q-44 0 -86 15zM728 1106l41 191h115l-41 -191h-115zM434 1106l40 191h115l-40 -191h-115z" />
    <glyph glyph-name="Ydieresis" unicode="&#x178;" 
d="M453 0l120 565l-280 800h137l228 -682l517 682h139l-619 -800l-120 -565h-122zM931 1488l41 191h119l-41 -191h-119zM613 1488l41 191h119l-41 -191h-119z" />
    <glyph glyph-name="fraction" unicode="&#x2044;" horiz-adv-x="645" 
d="M107 0h-103l913 1365h100z" />
    <glyph glyph-name="Euro" unicode="&#x20ac;" horiz-adv-x="1185" 
d="M299 512h-136l58 100h91q12 64 32 139h-130l58 100h103q48 150 132 267q199 274 490 274q220 0 347 -136l-60 -105q-67 73 -125 101q-77 38 -169 38q-255 0 -427 -285q-43 -71 -72 -154h618l-59 -100h-589q-18 -69 -30 -139h539l-58 -100h-492q-3 -32 -3 -62
q0 -87 26.5 -165.5t72.5 -126.5q80 -85 216 -85q100 0 175 39t173 140l72 -65q-81 -92 -141 -132q-125 -84 -287 -84q-193 0 -306 124q-122 134 -122 345q0 31 3 72z" />
    <glyph glyph-name="guilsinglleft" unicode="&#x2039;" horiz-adv-x="516" 
d="M384 199l-168 247l24 115l274 250l-28 -131l-188 -175l114 -173z" />
    <glyph glyph-name="guilsinglright" unicode="&#x203a;" horiz-adv-x="516" 
d="M347 811l168 -247l-24 -115l-274 -250l28 131l188 175l-114 173z" />
    <glyph glyph-name="daggerdbl" unicode="&#x2021;" horiz-adv-x="1040" 
d="M1096 960l-22 -102h-322l-146 -690h321l-21 -102h-322l-90 -421h-102l89 421h-318l22 102h318l147 690h-319l22 102h318l87 405h102l-86 -405h322z" />
    <glyph glyph-name="periodcentered" unicode="&#xb7;" horiz-adv-x="484" 
d="M439 608l-44 -205h-135l44 205h135z" />
    <glyph glyph-name="quotesinglbase" unicode="&#x201a;" horiz-adv-x="495" 
d="M359 205l-32 -148q-31 -147 -80 -219t-140 -104l17 82q80 41 106 161l5 23h-59l43 205h140z" />
    <glyph glyph-name="quotedblbase" unicode="&#x201e;" horiz-adv-x="747" 
d="M359 205l-32 -148q-31 -147 -80 -219t-140 -104l17 82q80 41 106 161l5 23h-59l43 205h140zM610 205l-31 -148q-32 -147 -80.5 -219t-139.5 -104l17 82q80 41 105 161l5 23h-59l44 205h139z" />
    <glyph glyph-name="perthousand" unicode="&#x2030;" horiz-adv-x="2486" 
d="M671 1384q158 0 229 -118q46 -76 46 -197q0 -201 -105 -358q-123 -185 -307 -185q-148 0 -222 103q-62 86 -62 210q0 108 32 211.5t88 175.5q123 158 301 158zM663 1293q-135 0 -229 -149q-84 -131 -84 -308q0 -111 55 -169q47 -50 124 -50q144 0 237 158q80 134 80 297
q0 103 -49 162t-134 59zM622 0h-99l879 1365h95zM1494 838q157 0 229 -118q46 -76 46 -197q0 -201 -105 -358q-123 -185 -307 -185q-148 0 -222 103q-62 86 -62 210q0 108 32 211.5t88 175.5q123 158 301 158zM1486 747q-135 0 -229 -149q-84 -131 -84 -308q0 -111 55 -169
q47 -50 124 -50q143 0 237 158q80 134 80 297q0 103 -49 162t-134 59zM2250 838q158 0 229 -118q46 -76 46 -197q0 -201 -105 -358q-123 -185 -307 -185q-148 0 -222 103q-62 86 -62 210q0 108 32 211.5t88 175.5q123 158 301 158zM2242 747q-135 0 -229 -149
q-84 -131 -84 -308q0 -111 55 -169q47 -50 124 -50q143 0 237 158q80 134 80 297q0 103 -49 162t-134 59z" />
    <glyph glyph-name="Acircumflex" unicode="&#xc2;" horiz-adv-x="1107" 
d="M780 1365h133l164 -1365h-129l-44 430h-511l-230 -430h-132zM449 535h444l-73 695zM1115 1475h-108l-107 189l-191 -189h-109l255 259h113z" />
    <glyph glyph-name="Ecircumflex" unicode="&#xca;" horiz-adv-x="1092" 
d="M196 0l290 1365h787l-22 -106h-665l-106 -499h622l-23 -106h-622l-116 -548h672l-23 -106h-794zM1155 1475h-108l-107 189l-191 -189h-109l255 259h113z" />
    <glyph glyph-name="Aacute" unicode="&#xc1;" horiz-adv-x="1107" 
d="M780 1365h133l164 -1365h-129l-44 430h-511l-230 -430h-132zM449 535h444l-73 695zM1132 1737l-257 -258h-105l235 258h127z" />
    <glyph glyph-name="Edieresis" unicode="&#xcb;" horiz-adv-x="1092" 
d="M196 0l290 1365h787l-22 -106h-665l-106 -499h622l-23 -106h-622l-116 -548h672l-23 -106h-794zM991 1488l41 191h118l-40 -191h-119zM673 1488l41 191h118l-40 -191h-119z" />
    <glyph glyph-name="Egrave" unicode="&#xc8;" horiz-adv-x="1092" 
d="M196 0l290 1365h787l-22 -106h-665l-106 -499h622l-23 -106h-622l-116 -548h672l-23 -106h-794zM735 1737h126l126 -258h-105z" />
    <glyph glyph-name="Iacute" unicode="&#xcd;" horiz-adv-x="514" 
d="M196 0l290 1365h123l-291 -1365h-122zM859 1737l-257 -258h-105l235 258h127z" />
    <glyph glyph-name="Icircumflex" unicode="&#xce;" horiz-adv-x="514" 
d="M196 0l290 1365h123l-291 -1365h-122zM816 1475h-108l-107 189l-191 -189h-109l255 259h113z" />
    <glyph glyph-name="Idieresis" unicode="&#xcf;" horiz-adv-x="514" 
d="M196 0l290 1365h123l-291 -1365h-122zM631 1488l40 191h119l-41 -191h-118zM387 1488l41 191h118l-40 -191h-119z" />
    <glyph glyph-name="Igrave" unicode="&#xcc;" horiz-adv-x="514" 
d="M196 0l290 1365h123l-291 -1365h-122zM386 1737h126l126 -258h-105z" />
    <glyph glyph-name="Oacute" unicode="&#xd3;" horiz-adv-x="1319" 
d="M933 1396q198 0 318 -136q57 -64 89.5 -164t32.5 -210q0 -157 -46 -316t-127 -284q-100 -153 -234 -235q-136 -84 -292 -84q-222 0 -340 164q-99 136 -99 335q0 211 77 418q91 245 274 388q159 124 347 124zM935 1290q-144 0 -277 -108q-148 -120 -227 -338
q-70 -192 -70 -386q0 -187 97 -293q83 -92 215 -92q148 0 278 106q155 126 237 368q59 175 59 349q0 200 -101 308q-81 86 -211 86zM1261 1737l-257 -258h-105l235 258h127z" />
    <glyph glyph-name="Ocircumflex" unicode="&#xd4;" horiz-adv-x="1319" 
d="M933 1396q198 0 318 -136q57 -64 89.5 -164t32.5 -210q0 -157 -46 -316t-127 -284q-100 -153 -234 -235q-136 -84 -292 -84q-222 0 -340 164q-99 136 -99 335q0 211 77 418q91 245 274 388q159 124 347 124zM935 1290q-144 0 -277 -108q-148 -120 -227 -338
q-70 -192 -70 -386q0 -187 97 -293q83 -92 215 -92q148 0 278 106q155 126 237 368q59 175 59 349q0 200 -101 308q-81 86 -211 86zM1229 1475h-108l-107 189l-191 -189h-109l255 259h113z" />
    <glyph glyph-name="_004" horiz-adv-x="523" 
 />
    <glyph glyph-name="Ograve" unicode="&#xd2;" horiz-adv-x="1319" 
d="M933 1396q198 0 318 -136q57 -64 89.5 -164t32.5 -210q0 -157 -46 -316t-127 -284q-100 -153 -234 -235q-136 -84 -292 -84q-222 0 -340 164q-99 136 -99 335q0 211 77 418q91 245 274 388q159 124 347 124zM935 1290q-144 0 -277 -108q-148 -120 -227 -338
q-70 -192 -70 -386q0 -187 97 -293q83 -92 215 -92q148 0 278 106q155 126 237 368q59 175 59 349q0 200 -101 308q-81 86 -211 86zM799 1737h126l126 -258h-105z" />
    <glyph glyph-name="Uacute" unicode="&#xda;" horiz-adv-x="1249" 
d="M465 1365h123l-174 -814q-29 -139 -29 -208q0 -109 54 -175q77 -95 240 -95q202 0 295 149q28 45 43.5 97.5t52.5 232.5l173 813h122l-173 -814q-38 -205 -59 -263q-60 -171 -177 -247q-112 -74 -281 -74q-208 0 -321 107q-93 90 -93 248q0 83 32 233zM1207 1737
l-257 -258h-105l235 258h127z" />
    <glyph glyph-name="Ucircumflex" unicode="&#xdb;" horiz-adv-x="1249" 
d="M465 1365h123l-174 -814q-29 -139 -29 -208q0 -109 54 -175q77 -95 240 -95q202 0 295 149q28 45 43.5 97.5t52.5 232.5l173 813h122l-173 -814q-38 -205 -59 -263q-60 -171 -177 -247q-112 -74 -281 -74q-208 0 -321 107q-93 90 -93 248q0 83 32 233zM1169 1475h-108
l-107 189l-191 -189h-109l255 259h113z" />
    <glyph glyph-name="Ugrave" unicode="&#xd9;" horiz-adv-x="1249" 
d="M465 1365h123l-174 -814q-29 -139 -29 -208q0 -109 54 -175q77 -95 240 -95q202 0 295 149q28 45 43.5 97.5t52.5 232.5l173 813h122l-173 -814q-38 -205 -59 -263q-60 -171 -177 -247q-112 -74 -281 -74q-208 0 -321 107q-93 90 -93 248q0 83 32 233zM753 1737h126
l126 -258h-105z" />
    <glyph glyph-name="dotlessi" unicode="&#x131;" horiz-adv-x="455" 
d="M154 0l200 942h113l-200 -942h-113z" />
    <glyph glyph-name="circumflex" unicode="&#x2c6;" horiz-adv-x="1203" 
d="M1061 1092h-103l-81 197l-168 -197h-104l231 273h109z" />
    <glyph glyph-name="tilde" unicode="&#x2dc;" horiz-adv-x="1199" 
d="M1141 1318q-35 -111 -75.5 -158.5t-99.5 -47.5q-37 0 -62 11.5t-65 47.5q-50 45 -83 45q-62 0 -102 -105h-77q27 99 75 153t110 54q55 0 114 -53q57 -51 85 -51q60 0 101 104h79z" />
    <glyph glyph-name="uni02C9" unicode="&#x2c9;" horiz-adv-x="1200" 
d="M1095 1237l-19 -90h-464l19 90h464z" />
    <glyph glyph-name="breve" unicode="&#x2d8;" horiz-adv-x="1219" 
d="M1119 1365q-8 -84 -36 -139q-66 -134 -215 -134q-96 0 -148 52.5t-52 149.5q0 28 5 71h78q-2 -25 -2 -39q0 -140 127 -140q67 0 104.5 40.5t61.5 138.5h77z" />
    <glyph glyph-name="dotaccent" unicode="&#x2d9;" horiz-adv-x="1305" 
d="M830 1106l41 191h114l-40 -191h-115z" />
    <glyph glyph-name="ring" unicode="&#x2da;" horiz-adv-x="1229" 
d="M878 1358q-44 0 -74 -31.5t-30 -77.5q0 -45 30 -77t72 -32t72 31.5t30 76.5t-29.5 77.5t-70.5 32.5zM879 1434q75 0 128.5 -54.5t53.5 -130.5t-54 -130t-131 -54t-131 54t-54 130q0 78 54.5 131.5t133.5 53.5z" />
    <glyph glyph-name="cedilla" unicode="&#xb8;" horiz-adv-x="1249" 
d="M578 0h80l-64 -108q23 8 47 8q51 0 82.5 -31t31.5 -83q0 -74 -54 -125t-133 -51q-58 0 -95 26.5t-37 68.5v9h87q0 -41 56 -41q38 0 63 31t25 76q0 57 -54 57q-44 0 -68 -31h-82z" />
    <glyph glyph-name="hungarumlaut" unicode="&#x2dd;" horiz-adv-x="1188" 
d="M1008 1365l-236 -273h-99l221 273h114zM1236 1365l-236 -273h-99l221 273h114z" />
    <glyph glyph-name="ogonek" unicode="&#x2db;" horiz-adv-x="1273" 
d="M840 0q-78 -65 -109.5 -111t-31.5 -94q0 -70 83 -70q30 0 80 18l-15 -72q-60 -22 -110 -22q-137 0 -137 122q0 131 164 229h76z" />
    <glyph glyph-name="caron" unicode="&#x2c7;" horiz-adv-x="1203" 
d="M663 1365h103l82 -197l168 197h103l-230 -273h-110z" />
    <glyph glyph-name="nonbreakingspace" unicode="&#xa0;" horiz-adv-x="523" 
 />
    <glyph glyph-name="currency" unicode="&#xa4;" horiz-adv-x="1399" 
d="M271 243l185 189q-107 134 -107 294q0 151 107 291l-191 189l66 66l188 -188q141 110 299 110q159 0 296 -110l190 188l65 -66l-189 -187q107 -140 107 -294q0 -155 -106 -293l190 -189l-65 -66l-190 189q-137 -107 -295 -107q-152 0 -297 107l-189 -189zM823 1092
q-155 0 -263 -108q-105 -107 -105 -259q0 -118 70 -214q51 -71 129 -110q77 -40 164 -40q150 0 257 107q106 106 106 257q0 120 -68 215q-50 70 -128.5 111t-161.5 41z" />
    <glyph glyph-name="brokenbar" unicode="&#xa6;" horiz-adv-x="1303" 
d="M882 1365h121l-144 -675h-121zM658 314h121l-139 -655h-121z" />
    <glyph glyph-name="uni00AD" unicode="&#xad;" horiz-adv-x="416" 
d="M520 560l-22 -106h-387l23 106h386z" />
    <glyph glyph-name="macron" unicode="&#xaf;" horiz-adv-x="1073" 
d="M428 1580h888l-23 -105h-887z" />
    <glyph glyph-name="twosuperior" unicode="&#xb2;" horiz-adv-x="602" 
d="M677 628l-19 -82h-493q26 115 75 184q41 59 94.5 99t203.5 123q80 43 127.5 107t47.5 126q0 118 -142 118q-108 0 -149 -82q-13 -26 -22 -80h-97q15 85 37 123q68 119 238 119q118 0 182 -62q52 -50 52 -129q0 -113 -103 -212q-37 -36 -71.5 -58.5t-160.5 -93.5
q-150 -84 -186 -200h386z" />
    <glyph glyph-name="threesuperior" unicode="&#xb3;" horiz-adv-x="608" 
d="M209 793h91q-10 -44 -10 -67q0 -54 38 -86t103 -32q99 0 156 70q48 59 48 131q0 63 -37.5 99t-104.5 36q-11 0 -47 -3l19 80h17h16q93 0 147.5 45t54.5 122q0 54 -36 84t-100 30q-143 0 -165 -156h-90q32 235 261 235q105 0 167 -52t62 -139q0 -153 -162 -209
q98 -54 98 -170q0 -119 -79 -196q-89 -86 -230 -86q-111 0 -175 58q-56 51 -56 131q0 32 14 75z" />
    <glyph glyph-name="onesuperior" unicode="&#xb9;" horiz-adv-x="454" 
d="M290 546l135 633q-32 -21 -57.5 -27t-89.5 -8l16 75q142 -1 189 146h74l-175 -819h-92z" />
    <glyph glyph-name="onequarter" unicode="&#xbc;" horiz-adv-x="1313" 
d="M311 546l135 633q-32 -21 -58.5 -27t-89.5 -8l16 75q143 -1 189 146h74l-174 -819h-92zM328 0h-103l913 1365h100zM1031 0l50 216h-332l19 80l463 523h80l-123 -525h109l-18 -78h-109l-50 -216h-89zM1099 294l83 354l-317 -354h234z" />
    <glyph glyph-name="onehalf" unicode="&#xbd;" horiz-adv-x="1450" 
d="M326 546l135 633q-32 -21 -58 -27t-89 -8l16 75q142 -1 188 146h74l-174 -819h-92zM376 0h-103l913 1365h100zM1373 82l-19 -82h-493q25 115 74 184q42 59 95.5 99t203.5 123q80 44 127.5 107.5t47.5 125.5q0 118 -142 118q-108 0 -149 -82q-13 -26 -22 -80h-97
q15 85 37 123q68 119 238 119q117 0 182 -62q52 -50 52 -129q0 -113 -103 -212q-37 -36 -71 -58.5t-161 -93.5q-150 -84 -186 -200h386z" />
    <glyph glyph-name="threequarters" unicode="&#xbe;" horiz-adv-x="1459" 
d="M536 0h-103l913 1365h100zM224 793h91q-10 -44 -10 -67q0 -54 38 -86t103 -32q99 0 156 70q48 59 48 131q0 63 -37.5 99t-104.5 36q-11 0 -47 -3l19 80h17h16q93 0 147.5 45t54.5 122q0 54 -36 84t-100 30q-143 0 -165 -156h-90q32 235 261 235q105 0 167 -52t62 -139
q0 -153 -162 -209q98 -54 98 -170q0 -119 -79 -196q-89 -86 -230 -86q-111 0 -175 58q-56 51 -56 131q0 32 14 75zM1226 0l50 216h-332l19 80l464 523h79l-123 -525h109l-18 -78h-109l-50 -216h-89zM1294 294l83 354l-316 -354h233z" />
    <glyph glyph-name="Eth" unicode="&#xd0;" horiz-adv-x="1257" 
d="M365 760l129 605h343q110 0 186 -21t136 -67q69 -54 104 -135q50 -115 50 -249q0 -258 -119 -504q-189 -389 -639 -389h-352l139 654h-147l23 106h147zM488 760h321l-22 -106h-322l-116 -548h230q187 0 308 81q132 89 215 287q87 206 87 418q0 138 -62 233
q-87 134 -293 134h-240z" />
    <glyph glyph-name="multiply" unicode="&#xd7;" horiz-adv-x="1129" 
d="M428 973l74 63l218 -277l342 281l58 -74l-341 -282l218 -276l-75 -63l-218 277l-345 -283l-58 74l344 284z" />
    <glyph glyph-name="Yacute" unicode="&#xdd;" 
d="M453 0l120 565l-280 800h137l228 -682l517 682h139l-619 -800l-120 -565h-122zM1094 1737l-257 -258h-105l235 258h127z" />
    <glyph glyph-name="Thorn" unicode="&#xde;" horiz-adv-x="1090" 
d="M551 1092h221q223 0 319 -96q85 -84 85 -215q0 -103 -41 -195.5t-113 -155.5q-142 -121 -426 -121h-212l-66 -309h-122l290 1365h123zM407 415h222q111 0 181.5 20.5t123.5 66.5q52 47 83 117.5t31 142.5q0 118 -75 171t-242 53h-203z" />
    <glyph glyph-name="eth" unicode="&#xf0;" horiz-adv-x="1028" 
d="M883 922q-69 170 -150 269l-199 -97l-29 73l173 85q-39 36 -95 79l60 63q71 -36 136 -93l189 93l30 -74l-160 -78q54 -61 87 -117q58 -98 92.5 -230t34.5 -259q0 -272 -144 -464q-150 -201 -386 -201q-160 0 -250 93q-91 95 -91 266q0 115 36 229t100 203q74 101 177 155
q100 54 212 54q105 0 177 -49zM703 877q-91 0 -171 -50t-138 -141q-99 -157 -99 -357q0 -146 85 -215q60 -49 150 -49q185 0 303 182q48 74 76 171.5t28 190.5q0 143 -82 215q-61 53 -152 53z" />
    <glyph glyph-name="yacute" unicode="&#xfd;" horiz-adv-x="828" 
d="M33 -340l20 96q10 -2 15 -4q32 -9 59 -9q55 0 92 29.5t81 108.5l70 126l-152 935h125l116 -782l428 782h124l-613 -1087q-63 -111 -112 -153q-67 -57 -167 -57q-44 0 -86 15zM895 1365l-236 -273h-103l221 273h118z" />
    <glyph glyph-name="thorn" unicode="&#xfe;" horiz-adv-x="1047" 
d="M436 797q52 81 140.5 127.5t190.5 46.5q151 0 236 -94q87 -96 87 -253q0 -125 -39.5 -250.5t-107.5 -212.5q-146 -190 -364 -190q-108 0 -176 44.5t-103 137.5l-108 -508h-113l366 1720h112zM751 877q-88 0 -166.5 -48t-133.5 -135q-48 -75 -76 -174.5t-28 -195.5
q0 -141 82 -209q60 -50 148 -50q184 0 301 190q97 159 97 355q0 140 -73 211q-58 56 -151 56z" />
    <glyph glyph-name="Amacron" unicode="&#x100;" horiz-adv-x="1107" 
d="M780 1365h133l164 -1365h-129l-44 430h-511l-230 -430h-132zM449 535h444l-73 695zM1149 1588l-18 -86h-535l18 86h535z" />
    <glyph glyph-name="amacron" unicode="&#x101;" horiz-adv-x="939" 
d="M920 88l-19 -89q-32 -9 -58 -9q-56 0 -91 30.5t-35 79.5q0 21 9 66q-147 -195 -344 -195q-119 0 -190 70q-63 63 -63 169q0 211 247 297q75 27 160 37t272 15l27 137q5 22 5 43q0 138 -207 138q-96 0 -162.5 -43t-91.5 -122h-114q22 118 124 188.5t252 70.5t230.5 -59.5
t80.5 -170.5q0 -33 -10 -82l-94 -440q-15 -66 -15 -82q0 -51 55 -51q12 0 32 2zM790 477q-216 -9 -326 -35q-103 -24 -161.5 -83.5t-58.5 -139.5q0 -71 42.5 -112.5t115.5 -41.5q68 0 139.5 40t129.5 111q36 44 67 103t40 101zM971 1237l-19 -90h-464l19 90h464z" />
    <glyph glyph-name="Abreve" unicode="&#x102;" horiz-adv-x="1107" 
d="M780 1365h133l164 -1365h-129l-44 430h-511l-230 -430h-132zM449 535h444l-73 695zM1140 1734q-8 -79 -38 -133q-69 -126 -229 -126q-104 0 -160 50t-56 142q0 24 5 67h84q-2 -25 -2 -36q0 -129 136 -129q73 0 112.5 36.5t64.5 128.5h83z" />
    <glyph glyph-name="abreve" unicode="&#x103;" horiz-adv-x="939" 
d="M920 88l-19 -89q-32 -9 -58 -9q-56 0 -91 30.5t-35 79.5q0 21 9 66q-147 -195 -344 -195q-119 0 -190 70q-63 63 -63 169q0 211 247 297q75 27 160 37t272 15l27 137q5 22 5 43q0 138 -207 138q-96 0 -162.5 -43t-91.5 -122h-114q22 118 124 188.5t252 70.5t230.5 -59.5
t80.5 -170.5q0 -33 -10 -82l-94 -440q-15 -66 -15 -82q0 -51 55 -51q12 0 32 2zM790 477q-216 -9 -326 -35q-103 -24 -161.5 -83.5t-58.5 -139.5q0 -71 42.5 -112.5t115.5 -41.5q68 0 139.5 40t129.5 111q36 44 67 103t40 101zM958 1365q-8 -84 -36 -139q-66 -134 -215 -134
q-96 0 -148 52.5t-52 149.5q0 28 5 71h78q-2 -25 -2 -39q0 -140 127 -140q67 0 104.5 40.5t61.5 138.5h77z" />
    <glyph glyph-name="Aogonek" unicode="&#x104;" horiz-adv-x="1108" 
d="M1077 0l-6 -5q-141 -113 -141 -200q0 -32 23.5 -51t63.5 -19q32 0 83 18l-15 -72q-63 -22 -115 -22q-143 0 -143 122q0 130 171 229h-50l-44 430h-511l-230 -430h-132l749 1365h133zM449 535h444l-73 695z" />
    <glyph glyph-name="aogonek" unicode="&#x105;" horiz-adv-x="939" 
d="M876 -8q-132 -102 -132 -197q0 -32 22.5 -51t60.5 -19q30 0 80 18l-15 -72q-60 -22 -110 -22q-137 0 -137 122q0 124 156 224q-84 25 -84 105q0 20 9 66q-147 -195 -344 -195q-119 0 -190 70q-63 63 -63 169q0 211 247 297q75 27 160 37t272 15l27 137q5 22 5 42
q0 139 -207 139q-96 0 -162.5 -43t-91.5 -122h-114q22 118 124 188.5t252 70.5t230.5 -59.5t80.5 -169.5q0 -34 -10 -83l-94 -440q-15 -67 -15 -82q0 -52 54 -52q13 0 33 3l-19 -89q-16 -4 -25 -7zM790 477q-216 -9 -326 -35q-103 -24 -161.5 -83.5t-58.5 -139.5
q0 -71 42.5 -112.5t115.5 -41.5q68 0 139.5 40t129.5 111q36 44 67 103t40 101z" />
    <glyph glyph-name="Cacute" unicode="&#x106;" horiz-adv-x="1237" 
d="M1111 451h124q-47 -164 -141 -278q-170 -206 -419 -206q-200 0 -314 132q-127 146 -127 377q0 199 79 409q94 250 275 390q158 122 351 122t301 -116q97 -103 97 -268v-16h-125q-4 105 -44 172q-71 121 -236 121q-248 0 -423 -286q-69 -112 -108.5 -257.5t-39.5 -287.5
q0 -92 27.5 -173t74.5 -129q83 -84 214 -84q167 0 301 145q86 93 133 233zM1259 1737l-257 -258h-105l235 258h127z" />
    <glyph glyph-name="cacute" unicode="&#x107;" horiz-adv-x="919" 
d="M795 302h120q-31 -105 -105 -188q-129 -143 -317 -143q-158 0 -244 94q-86 93 -86 260q0 116 35.5 232t99.5 205q149 209 385 209q138 0 218 -73q47 -44 66 -93t19 -126h-121q-3 74 -30 117q-50 81 -164 81q-180 0 -297 -191q-97 -159 -97 -363q0 -142 77 -209
q56 -49 144 -49q98 0 176.5 62.5t120.5 174.5zM963 1365l-236 -273h-103l221 273h118z" />
    <glyph glyph-name="Ccircumflex" unicode="&#x108;" horiz-adv-x="1237" 
d="M1111 451h124q-47 -164 -141 -278q-170 -206 -419 -206q-200 0 -314 132q-127 146 -127 377q0 199 79 409q94 250 275 390q158 122 351 122t301 -116q97 -103 97 -268v-16h-125q-4 105 -44 172q-71 121 -236 121q-248 0 -423 -286q-69 -112 -108.5 -257.5t-39.5 -287.5
q0 -92 27.5 -173t74.5 -129q83 -84 214 -84q167 0 301 145q86 93 133 233zM1215 1475h-108l-107 189l-191 -189h-109l255 259h113z" />
    <glyph glyph-name="ccircumflex" unicode="&#x109;" horiz-adv-x="919" 
d="M795 302h120q-31 -105 -105 -188q-129 -143 -317 -143q-158 0 -244 94q-86 93 -86 260q0 116 35.5 232t99.5 205q149 209 385 209q138 0 218 -73q47 -44 66 -93t19 -126h-121q-3 74 -30 117q-50 81 -164 81q-180 0 -297 -191q-97 -159 -97 -363q0 -142 77 -209
q56 -49 144 -49q98 0 176.5 62.5t120.5 174.5zM944 1092h-103l-81 197l-168 -197h-104l231 273h109z" />
    <glyph glyph-name="Cdotaccent" unicode="&#x10a;" horiz-adv-x="1237" 
d="M1111 451h124q-47 -164 -141 -278q-170 -206 -419 -206q-200 0 -314 132q-127 146 -127 377q0 199 79 409q94 250 275 390q158 122 351 122t301 -116q97 -103 97 -268v-16h-125q-4 105 -44 172q-71 121 -236 121q-248 0 -423 -286q-69 -112 -108.5 -257.5t-39.5 -287.5
q0 -92 27.5 -173t74.5 -129q83 -84 214 -84q167 0 301 145q86 93 133 233zM907 1488l41 191h118l-40 -191h-119z" />
    <glyph glyph-name="cdotaccent" unicode="&#x10b;" horiz-adv-x="919" 
d="M795 302h120q-31 -105 -105 -188q-129 -143 -317 -143q-158 0 -244 94q-86 93 -86 260q0 116 35.5 232t99.5 205q149 209 385 209q138 0 218 -73q47 -44 66 -93t19 -126h-121q-3 74 -30 117q-50 81 -164 81q-180 0 -297 -191q-97 -159 -97 -363q0 -142 77 -209
q56 -49 144 -49q98 0 176.5 62.5t120.5 174.5zM653 1106l41 191h114l-40 -191h-115z" />
    <glyph glyph-name="Ccaron" unicode="&#x10c;" horiz-adv-x="1237" 
d="M1111 451h124q-47 -164 -141 -278q-170 -206 -419 -206q-200 0 -314 132q-127 146 -127 377q0 199 79 409q94 250 275 390q158 122 351 122t301 -116q97 -103 97 -268v-16h-125q-4 105 -44 172q-71 121 -236 121q-248 0 -423 -286q-69 -112 -108.5 -257.5t-39.5 -287.5
q0 -92 27.5 -173t74.5 -129q83 -84 214 -84q167 0 301 145q86 93 133 233zM754 1734h108l108 -190l190 190h109l-255 -259h-113z" />
    <glyph glyph-name="ccaron" unicode="&#x10d;" horiz-adv-x="919" 
d="M795 302h120q-31 -105 -105 -188q-129 -143 -317 -143q-158 0 -244 94q-86 93 -86 260q0 116 35.5 232t99.5 205q149 209 385 209q138 0 218 -73q47 -44 66 -93t19 -126h-121q-3 74 -30 117q-50 81 -164 81q-180 0 -297 -191q-97 -159 -97 -363q0 -142 77 -209
q56 -49 144 -49q98 0 176.5 62.5t120.5 174.5zM534 1365h103l82 -197l168 197h103l-230 -273h-110z" />
    <glyph glyph-name="Dcaron" unicode="&#x10e;" horiz-adv-x="1249" 
d="M196 0l290 1365h344q110 0 186 -21t135 -67q69 -54 104 -135q50 -115 50 -248q0 -259 -119 -505q-188 -389 -639 -389h-351zM341 106h230q281 0 427 197q91 123 139 294q44 156 44 295q0 138 -62 233q-87 134 -293 134h-240zM676 1734h108l108 -190l190 190h109
l-255 -259h-113z" />
    <glyph glyph-name="dcaron" unicode="&#x10f;" horiz-adv-x="1138" 
d="M895 0h-108l36 173q-49 -65 -84 -98q-107 -104 -258 -104q-135 0 -222 87q-94 95 -94 256q0 126 41 255.5t108 212.5q151 189 365 189q100 0 175 -51t96 -134l123 579h112zM675 877q-111 0 -205 -80q-93 -79 -144 -222q-46 -129 -46 -255q0 -130 71 -199q58 -56 148 -56
q180 0 297 183q102 162 102 368q0 146 -78 211q-60 50 -145 50zM1434 1365l-23 -110q-20 -90 -63 -134.5t-131 -64.5l13 61q75 20 88 79l3 17h-58l32 152h139z" />
    <glyph glyph-name="Dcroat" unicode="&#x110;" horiz-adv-x="1257" 
d="M365 760l129 605h343q110 0 186 -21t136 -67q69 -54 104 -135q50 -115 50 -249q0 -258 -119 -504q-189 -389 -639 -389h-352l139 654h-147l23 106h147zM488 760h321l-22 -106h-322l-116 -548h230q187 0 308 81q132 89 215 287q87 206 87 418q0 138 -62 233
q-87 134 -293 134h-240z" />
    <glyph glyph-name="dcroat" unicode="&#x111;" horiz-adv-x="1022" 
d="M1036 1192l37 173h112l-37 -173h144l-19 -90h-144l-234 -1102h-108l36 173q-49 -65 -84 -98q-107 -104 -258 -104q-135 0 -222 87q-94 95 -94 256q0 126 41 255.5t108 212.5q151 189 365 189q100 0 175 -51.5t96 -133.5l67 316h-299l19 90h299zM675 877q-111 0 -205 -80
q-93 -79 -144 -222q-46 -129 -46 -255q0 -130 71 -199q58 -56 148 -56q180 0 297 183q102 162 102 368q0 146 -78 211q-60 50 -145 50z" />
    <glyph glyph-name="Emacron" unicode="&#x112;" horiz-adv-x="1092" 
d="M196 0l290 1365h787l-22 -106h-665l-106 -499h622l-23 -106h-622l-116 -548h672l-23 -106h-794zM1179 1588l-18 -86h-535l18 86h535z" />
    <glyph glyph-name="emacron" unicode="&#x113;" horiz-adv-x="951" 
d="M967 445h-674q-15 -72 -15 -120q0 -127 73 -199q61 -61 160 -61q82 0 152 43t111 118h124q-32 -66 -78 -116q-130 -139 -318 -139q-159 0 -251 101q-89 97 -89 266q0 126 40 245.5t112 207.5q145 180 347 180q161 0 246 -95q83 -93 83 -249q0 -80 -23 -182zM865 535
q10 62 10 98q0 109 -57 178q-55 68 -148 68q-120 0 -213.5 -90t-144.5 -254h553zM961 1237l-19 -90h-464l19 90h464z" />
    <glyph glyph-name="Ebreve" unicode="&#x114;" horiz-adv-x="1092" 
d="M196 0l290 1365h787l-22 -106h-665l-106 -499h622l-23 -106h-622l-116 -548h672l-23 -106h-794zM1171 1734q-8 -79 -38 -133q-69 -126 -229 -126q-104 0 -160 50t-56 142q0 24 5 67h84q-2 -25 -2 -36q0 -129 136 -129q73 0 112.5 36.5t64.5 128.5h83z" />
    <glyph glyph-name="ebreve" unicode="&#x115;" horiz-adv-x="951" 
d="M967 445h-674q-15 -72 -15 -120q0 -127 73 -199q61 -61 160 -61q82 0 152 43t111 118h124q-32 -66 -78 -116q-130 -139 -318 -139q-159 0 -251 101q-89 97 -89 266q0 126 40 245.5t112 207.5q145 180 347 180q161 0 246 -95q83 -93 83 -249q0 -80 -23 -182zM865 535
q10 62 10 98q0 109 -57 178q-55 68 -148 68q-120 0 -213.5 -90t-144.5 -254h553zM965 1365q-8 -84 -36 -139q-66 -134 -215 -134q-96 0 -148 52.5t-52 149.5q0 28 5 71h78q-2 -25 -2 -39q0 -140 127 -140q67 0 104.5 40.5t61.5 138.5h77z" />
    <glyph glyph-name="Edotaccent" unicode="&#x116;" horiz-adv-x="1092" 
d="M196 0l290 1365h787l-22 -106h-665l-106 -499h622l-23 -106h-622l-116 -548h672l-23 -106h-794zM848 1488l41 191h118l-40 -191h-119z" />
    <glyph glyph-name="edotaccent" unicode="&#x117;" horiz-adv-x="951" 
d="M967 445h-674q-15 -72 -15 -120q0 -127 73 -199q61 -61 160 -61q82 0 152 43t111 118h124q-32 -66 -78 -116q-130 -139 -318 -139q-159 0 -251 101q-89 97 -89 266q0 126 40 245.5t112 207.5q145 180 347 180q161 0 246 -95q83 -93 83 -249q0 -80 -23 -182zM865 535
q10 62 10 98q0 109 -57 178q-55 68 -148 68q-120 0 -213.5 -90t-144.5 -254h553zM648 1106l41 191h114l-40 -191h-115z" />
    <glyph glyph-name="Eogonek" unicode="&#x118;" horiz-adv-x="1092" 
d="M990 0l-6 -5q-141 -113 -141 -200q0 -32 23.5 -51t63.5 -19q32 0 83 18l-15 -72q-63 -22 -115 -22q-143 0 -143 122q0 130 171 229h-715l290 1365h787l-22 -106h-665l-106 -499h622l-23 -106h-622l-116 -548h672z" />
    <glyph glyph-name="eogonek" unicode="&#x119;" horiz-adv-x="951" 
d="M682 10l-5 -5q-79 -82 -91 -96q-47 -57 -47 -114q0 -32 22.5 -51t60.5 -19q30 0 80 18l-15 -72q-60 -22 -110 -22q-137 0 -137 122q0 56 33.5 111t89.5 93q-35 -4 -63 -4q-156 0 -249 101q-89 97 -89 266q0 126 40 245.5t112 207.5q145 180 347 180q161 0 246 -95
q83 -93 83 -249q0 -80 -23 -182h-674q-15 -72 -15 -120q0 -127 73 -199q61 -61 160 -61q82 0 152 43t111 118h124q-72 -149 -216 -216zM865 535q10 62 10 98q0 109 -57 178q-55 68 -148 68q-120 0 -213.5 -90t-144.5 -254h553z" />
    <glyph glyph-name="Ecaron" unicode="&#x11a;" horiz-adv-x="1092" 
d="M196 0l290 1365h787l-22 -106h-665l-106 -499h622l-23 -106h-622l-116 -548h672l-23 -106h-794zM682 1734h108l108 -190l190 190h109l-255 -259h-113z" />
    <glyph glyph-name="ecaron" unicode="&#x11b;" horiz-adv-x="951" 
d="M967 445h-674q-15 -72 -15 -120q0 -127 73 -199q61 -61 160 -61q82 0 152 43t111 118h124q-32 -66 -78 -116q-130 -139 -318 -139q-159 0 -251 101q-89 97 -89 266q0 126 40 245.5t112 207.5q145 180 347 180q161 0 246 -95q83 -93 83 -249q0 -80 -23 -182zM865 535
q10 62 10 98q0 109 -57 178q-55 68 -148 68q-120 0 -213.5 -90t-144.5 -254h553zM512 1365h103l82 -197l168 197h103l-230 -273h-110z" />
    <glyph glyph-name="Gcircumflex" unicode="&#x11c;" horiz-adv-x="1323" 
d="M1159 0h-102l48 228q-71 -95 -132 -147q-132 -114 -299 -114q-198 0 -313 132q-127 146 -127 377q0 199 79 409q94 250 275 390q159 122 356 122q152 0 255 -72q77 -54 111 -127t40 -194h-124q-8 135 -83.5 210.5t-202.5 75.5q-256 0 -431 -286q-69 -112 -108.5 -257.5
t-39.5 -287.5q0 -92 27.5 -173t74.5 -129q83 -84 218 -84q137 0 257 102q90 76 141.5 167.5t92.5 245.5h-384l23 106h496zM1226 1475h-108l-107 189l-191 -189h-109l255 259h113z" />
    <glyph glyph-name="gcircumflex" unicode="&#x11d;" horiz-adv-x="1046" 
d="M979 942h112l-172 -809q-29 -150 -48 -201q-54 -147 -164 -217t-286 -70q-211 0 -292 121q-31 46 -33 116h120q15 -143 208 -143q155 0 241.5 83t125.5 270l23 109q-52 -89 -134 -139t-178 -50q-141 0 -228 88q-92 91 -92 259q0 123 38.5 240.5t105.5 197.5
q146 174 349 174q211 0 270 -187zM679 877q-175 0 -284 -165q-45 -66 -71 -161.5t-26 -190.5q0 -126 60 -193q56 -61 147 -61q85 0 159.5 45.5t128.5 128.5q47 74 75 169.5t28 183.5q0 136 -80 199q-57 45 -137 45zM962 1092h-103l-81 197l-168 -197h-104l231 273h109z" />
    <glyph glyph-name="Gbreve" unicode="&#x11e;" horiz-adv-x="1323" 
d="M1159 0h-102l48 228q-71 -95 -132 -147q-132 -114 -299 -114q-198 0 -313 132q-127 146 -127 377q0 199 79 409q94 250 275 390q159 122 356 122q152 0 255 -72q77 -54 111 -127t40 -194h-124q-8 135 -83.5 210.5t-202.5 75.5q-256 0 -431 -286q-69 -112 -108.5 -257.5
t-39.5 -287.5q0 -92 27.5 -173t74.5 -129q83 -84 218 -84q137 0 257 102q90 76 141.5 167.5t92.5 245.5h-384l23 106h496zM1255 1734q-8 -79 -38 -133q-69 -126 -229 -126q-104 0 -160 50t-56 142q0 24 5 67h84q-2 -25 -2 -36q0 -129 136 -129q73 0 112.5 36.5t64.5 128.5
h83z" />
    <glyph glyph-name="gbreve" unicode="&#x11f;" horiz-adv-x="1046" 
d="M979 942h112l-172 -809q-29 -150 -48 -201q-54 -147 -164 -217t-286 -70q-211 0 -292 121q-31 46 -33 116h120q15 -143 208 -143q155 0 241.5 83t125.5 270l23 109q-52 -89 -134 -139t-178 -50q-141 0 -228 88q-92 91 -92 259q0 123 38.5 240.5t105.5 197.5
q146 174 349 174q211 0 270 -187zM679 877q-175 0 -284 -165q-45 -66 -71 -161.5t-26 -190.5q0 -126 60 -193q56 -61 147 -61q85 0 159.5 45.5t128.5 128.5q47 74 75 169.5t28 183.5q0 136 -80 199q-57 45 -137 45zM1012 1365q-8 -84 -36 -139q-66 -134 -215 -134
q-96 0 -148 52.5t-52 149.5q0 28 5 71h78q-2 -25 -2 -39q0 -140 127 -140q67 0 104.5 40.5t61.5 138.5h77z" />
    <glyph glyph-name="Gdotaccent" unicode="&#x120;" horiz-adv-x="1323" 
d="M1159 0h-102l48 228q-71 -95 -132 -147q-132 -114 -299 -114q-198 0 -313 132q-127 146 -127 377q0 199 79 409q94 250 275 390q159 122 356 122q152 0 255 -72q77 -54 111 -127t40 -194h-124q-8 135 -83.5 210.5t-202.5 75.5q-256 0 -431 -286q-69 -112 -108.5 -257.5
t-39.5 -287.5q0 -92 27.5 -173t74.5 -129q83 -84 218 -84q137 0 257 102q90 76 141.5 167.5t92.5 245.5h-384l23 106h496zM921 1488l41 191h118l-40 -191h-119z" />
    <glyph glyph-name="gdotaccent" unicode="&#x121;" horiz-adv-x="1046" 
d="M979 942h112l-172 -809q-29 -150 -48 -201q-54 -147 -164 -217t-286 -70q-211 0 -292 121q-31 46 -33 116h120q15 -143 208 -143q155 0 241.5 83t125.5 270l23 109q-52 -89 -134 -139t-178 -50q-141 0 -228 88q-92 91 -92 259q0 123 38.5 240.5t105.5 197.5
q146 174 349 174q211 0 270 -187zM679 877q-175 0 -284 -165q-45 -66 -71 -161.5t-26 -190.5q0 -126 60 -193q56 -61 147 -61q85 0 159.5 45.5t128.5 128.5q47 74 75 169.5t28 183.5q0 136 -80 199q-57 45 -137 45zM670 1106l41 191h114l-40 -191h-115z" />
    <glyph glyph-name="Gcommaaccent" unicode="&#x122;" horiz-adv-x="1323" 
d="M1159 0h-102l48 228q-71 -95 -132 -147q-132 -114 -299 -114q-198 0 -313 132q-127 146 -127 377q0 199 79 409q94 250 275 390q159 122 356 122q152 0 255 -72q77 -54 111 -127t40 -194h-124q-8 135 -83.5 210.5t-202.5 75.5q-256 0 -431 -286q-69 -112 -108.5 -257.5
t-39.5 -287.5q0 -92 27.5 -173t74.5 -129q83 -84 218 -84q137 0 257 102q90 76 141.5 167.5t92.5 245.5h-384l23 106h496zM739 -95l-23 -110q-19 -91 -62.5 -135.5t-131.5 -63.5l13 61q75 19 88 78l3 18h-58l32 152h139z" />
    <glyph glyph-name="gcommaaccent" unicode="&#x123;" horiz-adv-x="1046" 
d="M979 942h112l-172 -809q-29 -150 -48 -201q-54 -147 -164 -217t-286 -70q-211 0 -292 121q-31 46 -33 116h120q15 -143 208 -143q155 0 241.5 83t125.5 270l23 109q-52 -89 -134 -139t-178 -50q-141 0 -228 88q-92 91 -92 259q0 123 38.5 240.5t105.5 197.5
q146 174 349 174q211 0 270 -187zM679 877q-175 0 -284 -165q-45 -66 -71 -161.5t-26 -190.5q0 -126 60 -193q56 -61 147 -61q85 0 159.5 45.5t128.5 128.5q47 74 75 169.5t28 183.5q0 136 -80 199q-57 45 -137 45zM668 1057l23 110q19 90 62.5 134.5t131.5 64.5l-13 -61
q-75 -20 -88 -79l-3 -17h58l-32 -152h-139z" />
    <glyph glyph-name="Hcircumflex" unicode="&#x124;" horiz-adv-x="1303" 
d="M196 0l290 1365h123l-127 -596h667l127 596h122l-290 -1365h-123l141 663h-667l-141 -663h-122zM1209 1475h-108l-107 189l-191 -189h-109l255 259h113z" />
    <glyph glyph-name="hcircumflex" unicode="&#x125;" 
d="M156 0l290 1365h113l-122 -571q134 177 327 177q135 0 205 -75q55 -58 55 -151q0 -65 -18 -152l-127 -593h-112l118 555q21 100 21 161q0 60 -23 95q-43 66 -145 66q-81 0 -155 -41t-122 -113q-57 -84 -92 -251l-100 -472h-113zM799 1475h-108l-108 189l-190 -189h-109
l255 259h113z" />
    <glyph glyph-name="Hbar" unicode="&#x126;" horiz-adv-x="1289" 
d="M410 980h-109l23 106h109l59 279h123l-60 -279h667l60 279h122l-59 -279h109l-23 -106h-109l-208 -980h-123l141 663h-667l-141 -663h-122zM533 980l-45 -211h667l44 211h-666z" />
    <glyph glyph-name="hbar" unicode="&#x127;" horiz-adv-x="1025" 
d="M417 1237l27 128h113l-28 -128h266l-19 -90h-266l-75 -353q134 177 327 177q134 0 205 -75q55 -58 55 -151q0 -65 -18 -152l-127 -593h-112l118 555q21 100 21 161q0 60 -23 95q-43 66 -145 66q-81 0 -155 -41t-122 -113q-57 -84 -92 -251l-100 -472h-113l244 1147h-116
l19 90h116z" />
    <glyph glyph-name="Itilde" unicode="&#x128;" horiz-adv-x="514" 
d="M196 0l290 1365h123l-291 -1365h-122zM895 1703q-36 -103 -78 -148t-104 -45q-37 0 -63.5 11.5t-67.5 44.5q-52 42 -87 42q-63 0 -105 -99h-80q29 94 78.5 144t113.5 50q57 0 119 -50q58 -48 87 -48q62 0 105 98h82z" />
    <glyph glyph-name="itilde" unicode="&#x129;" horiz-adv-x="455" 
d="M154 0l200 942h113l-200 -942h-113zM755 1318q-35 -111 -75.5 -158.5t-99.5 -47.5q-37 0 -62 11.5t-65 47.5q-50 45 -83 45q-62 0 -102 -105h-77q27 99 75 153t110 54q55 0 114 -53q57 -51 85 -51q60 0 101 104h79z" />
    <glyph glyph-name="Imacron" unicode="&#x12a;" horiz-adv-x="514" 
d="M196 0l290 1365h123l-291 -1365h-122zM844 1588l-18 -86h-503l18 86h503z" />
    <glyph glyph-name="imacron" unicode="&#x12b;" horiz-adv-x="455" 
d="M154 0l200 942h113l-200 -942h-113zM665 1237l-20 -90h-400l19 90h401z" />
    <glyph glyph-name="Ibreve" unicode="&#x12c;" horiz-adv-x="514" 
d="M196 0l290 1365h123l-291 -1365h-122zM847 1734q-8 -79 -38 -133q-69 -126 -229 -126q-104 0 -160 50t-56 142q0 24 5 67h84q-2 -25 -2 -36q0 -129 136 -129q73 0 112.5 36.5t64.5 128.5h83z" />
    <glyph glyph-name="ibreve" unicode="&#x12d;" horiz-adv-x="455" 
d="M154 0l200 942h113l-200 -942h-113zM708 1365q-8 -84 -36 -139q-66 -134 -215 -134q-96 0 -148 52.5t-52 149.5q0 27 5 71h78q-2 -24 -2 -39q0 -140 127 -140q68 0 105.5 40.5t60.5 138.5h77z" />
    <glyph glyph-name="Iogonek" unicode="&#x12e;" horiz-adv-x="514" 
d="M318 0q-5 -4 -12 -10q-135 -105 -135 -195q0 -32 23.5 -51t63.5 -19q32 0 83 18l-15 -72q-64 -22 -115 -22q-143 0 -143 122q0 129 171 229h-43l290 1365h122z" />
    <glyph glyph-name="iogonek" unicode="&#x12f;" horiz-adv-x="449" 
d="M267 0l-6 -5q-135 -113 -135 -200q0 -70 83 -70q32 0 80 18l-15 -72q-61 -22 -110 -22q-137 0 -137 122q0 130 164 229h-37l201 942h112zM404 1174l41 191h112l-41 -191h-112z" />
    <glyph glyph-name="Idotaccent" unicode="&#x130;" horiz-adv-x="514" 
d="M196 0l290 1365h123l-291 -1365h-122zM517 1488l41 191h118l-40 -191h-119z" />
    <glyph glyph-name="IJ" unicode="&#x132;" horiz-adv-x="1033" 
d="M196 0l290 1365h123l-291 -1365h-122zM1027 1365h123l-191 -898q-34 -161 -56.5 -223.5t-65.5 -122.5q-58 -80 -136.5 -117t-188.5 -37q-48 0 -102 13l23 109q50 -16 100 -16q150 0 223 136q42 77 86 286z" />
    <glyph glyph-name="ij" unicode="&#x133;" horiz-adv-x="878" 
d="M404 1174l40 191h113l-41 -191h-112zM154 0l200 942h113l-200 -942h-113zM782 942h113l-210 -986q-34 -163 -79 -222q-67 -89 -197 -89q-32 0 -62 8l21 97q24 -6 48 -6q71 0 99.5 38t56.5 170zM831 1174l41 191h113l-41 -191h-113z" />
    <glyph glyph-name="Jcircumflex" unicode="&#x134;" horiz-adv-x="636" 
d="M630 1365h123l-191 -898q-34 -161 -56.5 -223.5t-65.5 -122.5q-58 -80 -136.5 -117t-188.5 -37q-48 0 -102 13l23 109q50 -16 100 -16q150 0 223 136q42 77 86 286zM972 1475h-108l-107 189l-191 -189h-109l255 259h113z" />
    <glyph glyph-name="jcircumflex" unicode="&#x135;" horiz-adv-x="475" 
d="M379 942h113l-210 -986q-34 -163 -79 -222q-67 -89 -197 -89q-32 0 -62 8l21 97q24 -6 48 -6q71 0 99.5 38t56.5 170zM692 1092h-103l-81 197l-168 -197h-104l231 273h109z" />
    <glyph glyph-name="Kcommaaccent" unicode="&#x136;" horiz-adv-x="1143" 
d="M486 1365h123l-147 -691l792 691h140l-665 -580l397 -785h-137l-356 701l-203 -177l-112 -524h-122zM683 -95l-23 -110q-19 -91 -62.5 -135.5t-131.5 -63.5l13 61q75 19 88 78l3 18h-58l32 152h139z" />
    <glyph glyph-name="kcommaaccent" unicode="&#x137;" horiz-adv-x="933" 
d="M621 584l300 -584h-128l-264 515l-180 -134l-80 -381h-113l290 1365h113l-180 -846l564 423h156zM556 -95l-23 -110q-19 -91 -62.5 -135.5t-131.5 -63.5l13 61q75 19 88 78l3 18h-58l32 152h139z" />
    <glyph glyph-name="kgreenlandic" unicode="&#x138;" horiz-adv-x="935" 
d="M367 451l592 491h143l-490 -406l312 -536h-131l-270 463l-186 -154l-66 -309h-112l200 942h113z" />
    <glyph glyph-name="Lacute" unicode="&#x139;" horiz-adv-x="1003" 
d="M196 0l290 1365h123l-268 -1259h631l-23 -106h-753zM870 1737l-257 -258h-105l235 258h127z" />
    <glyph glyph-name="lacute" unicode="&#x13a;" horiz-adv-x="425" 
d="M156 0l290 1365h113l-290 -1365h-113zM806 1737l-257 -258h-105l235 258h127z" />
    <glyph glyph-name="Lcommaaccent" unicode="&#x13b;" horiz-adv-x="1003" 
d="M196 0l290 1365h123l-268 -1259h631l-23 -106h-753zM618 -95l-23 -110q-19 -91 -62.5 -135.5t-131.5 -63.5l13 61q75 19 88 78l3 18h-58l32 152h139z" />
    <glyph glyph-name="lcommaaccent" unicode="&#x13c;" horiz-adv-x="425" 
d="M156 0l290 1365h113l-290 -1365h-113zM263 -95l-23 -110q-19 -91 -62.5 -135.5t-131.5 -63.5l13 61q75 19 88 78l3 18h-58l32 152h139z" />
    <glyph glyph-name="Lcaron" unicode="&#x13d;" horiz-adv-x="1003" 
d="M196 0l290 1365h123l-268 -1259h631l-23 -106h-753zM1054 1365l-23 -110q-20 -90 -63 -134.5t-131 -64.5l13 61q75 20 88 79l3 17h-58l32 152h139z" />
    <glyph glyph-name="lcaron" unicode="&#x13e;" horiz-adv-x="535" 
d="M156 0l290 1365h113l-290 -1365h-113zM831 1365l-23 -110q-20 -90 -63 -134.5t-131 -64.5l13 61q75 20 88 79l3 17h-58l32 152h139z" />
    <glyph glyph-name="Ldot" unicode="&#x13f;" horiz-adv-x="1003" 
d="M196 0l290 1365h123l-268 -1259h631l-23 -106h-753zM694 587l41 191h114l-40 -191h-115z" />
    <glyph glyph-name="ldot" unicode="&#x140;" horiz-adv-x="526" 
d="M156 0l290 1365h113l-290 -1365h-113zM537 567l40 191h115l-41 -191h-114z" />
    <glyph glyph-name="Lslash" unicode="&#x141;" horiz-adv-x="1019" 
d="M182 473l27 127l152 98l142 667h122l-126 -591l279 176l-27 -127l-279 -176l-115 -541h631l-23 -106h-753l122 571z" />
    <glyph glyph-name="lslash" unicode="&#x142;" horiz-adv-x="464" 
d="M134 501l27 127l180 125l130 612h112l-112 -526l180 124l-27 -126l-180 -125l-151 -712h-112l133 626z" />
    <glyph glyph-name="Nacute" unicode="&#x143;" horiz-adv-x="1302" 
d="M196 0l290 1365h132l413 -1169l249 1169h116l-290 -1365h-132l-414 1163l-248 -1163h-116zM1240 1737l-257 -258h-105l235 258h127z" />
    <glyph glyph-name="nacute" unicode="&#x144;" 
d="M156 0l200 942h107l-34 -159q139 188 336 188q134 0 204 -75q55 -59 55 -151q0 -65 -18 -152l-127 -593h-112l118 555q21 99 21 161q0 60 -23 95q-42 66 -145 66q-81 0 -155 -41t-122 -113q-56 -84 -92 -251l-100 -472h-113zM1013 1365l-236 -273h-103l221 273h118z" />
    <glyph glyph-name="Ncommaaccent" unicode="&#x145;" horiz-adv-x="1302" 
d="M196 0l290 1365h132l413 -1169l249 1169h116l-290 -1365h-132l-414 1163l-248 -1163h-116zM706 -95l-23 -110q-19 -91 -62.5 -135.5t-131.5 -63.5l13 61q75 19 88 78l3 18h-58l32 152h139z" />
    <glyph glyph-name="ncommaaccent" unicode="&#x146;" 
d="M156 0l200 942h107l-34 -159q139 188 336 188q134 0 204 -75q55 -59 55 -151q0 -65 -18 -152l-127 -593h-112l118 555q21 99 21 161q0 60 -23 95q-42 66 -145 66q-81 0 -155 -41t-122 -113q-56 -84 -92 -251l-100 -472h-113zM555 -95l-23 -110q-19 -91 -62.5 -135.5
t-131.5 -63.5l13 61q75 19 88 78l3 18h-58l32 152h139z" />
    <glyph glyph-name="Ncaron" unicode="&#x147;" horiz-adv-x="1302" 
d="M196 0l290 1365h132l413 -1169l249 1169h116l-290 -1365h-132l-414 1163l-248 -1163h-116zM751 1734h108l108 -190l190 190h109l-255 -259h-113z" />
    <glyph glyph-name="ncaron" unicode="&#x148;" 
d="M156 0l200 942h107l-34 -159q139 188 336 188q134 0 204 -75q55 -59 55 -151q0 -65 -18 -152l-127 -593h-112l118 555q21 99 21 161q0 60 -23 95q-42 66 -145 66q-81 0 -155 -41t-122 -113q-56 -84 -92 -251l-100 -472h-113zM557 1365h103l82 -197l168 197h103l-230 -273
h-110z" />
    <glyph glyph-name="napostrophe" unicode="&#x149;" horiz-adv-x="1101" 
d="M230 0l200 942h107l-34 -159q139 188 336 188q134 0 204 -75q55 -59 55 -151q0 -65 -18 -152l-127 -593h-112l118 555q21 99 21 161q0 60 -23 95q-42 66 -145 66q-81 0 -155 -41t-122 -113q-56 -84 -92 -251l-100 -472h-113zM414 1138l-23 -110q-20 -90 -63 -134.5
t-131 -64.5l13 61q75 20 88 79l3 17h-58l32 152h139z" />
    <glyph glyph-name="Eng" unicode="&#x14a;" horiz-adv-x="1327" 
d="M486 1365h123l-40 -189q69 86 123 124q117 82 279 82q163 0 256 -88q92 -87 92 -228q0 -73 -18 -157l-117 -551q-31 -144 -57.5 -216t-71.5 -131q-116 -153 -319 -153q-47 0 -101 12l23 110q51 -16 100 -16q150 0 223 136q42 77 86 286l112 523q16 77 16 138
q0 96 -50 156q-66 79 -194 79q-125 0 -233 -78q-91 -65 -147 -173t-95 -289l-158 -742h-122z" />
    <glyph glyph-name="eng" unicode="&#x14b;" 
d="M568 -180l21 97q26 -6 48 -6q70 0 98.5 38.5t56.5 169.5l93 436q21 99 21 161q0 61 -23 95q-44 66 -145 66q-81 0 -155 -41t-122 -113q-56 -84 -92 -251l-100 -472h-113l200 942h107l-34 -159q41 58 78 91q106 97 255 97q133 0 204 -73q58 -59 58 -153q0 -65 -18 -152
l-101 -470q-34 -164 -79 -222q-67 -89 -196 -89q-32 0 -62 8z" />
    <glyph glyph-name="Omacron" unicode="&#x14c;" horiz-adv-x="1319" 
d="M933 1396q198 0 318 -136q57 -64 89.5 -164t32.5 -210q0 -157 -46 -316t-127 -284q-100 -153 -234 -235q-136 -84 -292 -84q-222 0 -340 164q-99 136 -99 335q0 211 77 418q91 245 274 388q159 124 347 124zM935 1290q-144 0 -277 -108q-148 -120 -227 -338
q-70 -192 -70 -386q0 -187 97 -293q83 -92 215 -92q148 0 278 106q155 126 237 368q59 175 59 349q0 200 -101 308q-81 86 -211 86zM1268 1588l-18 -86h-535l18 86h535z" />
    <glyph glyph-name="omacron" unicode="&#x14d;" horiz-adv-x="992" 
d="M690 971q165 0 257 -102q84 -94 84 -257q0 -117 -37.5 -233.5t-104.5 -206.5q-151 -201 -387 -201q-160 0 -250 93q-91 95 -91 263q0 117 36 232t100 203q153 209 393 209zM683 877q-91 0 -171 -50t-138 -141q-99 -157 -99 -357q0 -146 85 -215q60 -49 150 -49
q185 0 303 182q48 74 76 171.5t28 190.5q0 143 -82 215q-61 53 -152 53zM991 1237l-19 -90h-464l19 90h464z" />
    <glyph glyph-name="Obreve" unicode="&#x14e;" horiz-adv-x="1319" 
d="M933 1396q198 0 318 -136q57 -64 89.5 -164t32.5 -210q0 -157 -46 -316t-127 -284q-100 -153 -234 -235q-136 -84 -292 -84q-222 0 -340 164q-99 136 -99 335q0 211 77 418q91 245 274 388q159 124 347 124zM935 1290q-144 0 -277 -108q-148 -120 -227 -338
q-70 -192 -70 -386q0 -187 97 -293q83 -92 215 -92q148 0 278 106q155 126 237 368q59 175 59 349q0 200 -101 308q-81 86 -211 86zM1265 1734q-8 -79 -38 -133q-69 -126 -229 -126q-104 0 -160 50t-56 142q0 24 5 67h84q-2 -25 -2 -36q0 -129 136 -129q73 0 112.5 36.5
t64.5 128.5h83z" />
    <glyph glyph-name="obreve" unicode="&#x14f;" horiz-adv-x="992" 
d="M690 971q165 0 257 -102q84 -94 84 -257q0 -117 -37.5 -233.5t-104.5 -206.5q-151 -201 -387 -201q-160 0 -250 93q-91 95 -91 263q0 117 36 232t100 203q153 209 393 209zM683 877q-91 0 -171 -50t-138 -141q-99 -157 -99 -357q0 -146 85 -215q60 -49 150 -49
q185 0 303 182q48 74 76 171.5t28 190.5q0 143 -82 215q-61 53 -152 53zM1003 1365q-8 -84 -36 -139q-66 -134 -215 -134q-96 0 -148 52.5t-52 149.5q0 28 5 71h78q-2 -25 -2 -39q0 -140 127 -140q67 0 104.5 40.5t61.5 138.5h77z" />
    <glyph glyph-name="Ohungarumlaut" unicode="&#x150;" horiz-adv-x="1319" 
d="M933 1396q198 0 318 -136q57 -64 89.5 -164t32.5 -210q0 -157 -46 -316t-127 -284q-100 -153 -234 -235q-136 -84 -292 -84q-222 0 -340 164q-99 136 -99 335q0 211 77 418q91 245 274 388q159 124 347 124zM935 1290q-144 0 -277 -108q-148 -120 -227 -338
q-70 -192 -70 -386q0 -187 97 -293q83 -92 215 -92q148 0 278 106q155 126 237 368q59 175 59 349q0 200 -101 308q-81 86 -211 86zM1139 1737l-257 -258h-105l235 258h127zM1384 1737l-256 -258h-105l235 258h126z" />
    <glyph glyph-name="ohungarumlaut" unicode="&#x151;" horiz-adv-x="992" 
d="M690 971q165 0 257 -102q84 -94 84 -257q0 -117 -37.5 -233.5t-104.5 -206.5q-151 -201 -387 -201q-160 0 -250 93q-91 95 -91 263q0 117 36 232t100 203q153 209 393 209zM683 877q-91 0 -171 -50t-138 -141q-99 -157 -99 -357q0 -146 85 -215q60 -49 150 -49
q185 0 303 182q48 74 76 171.5t28 190.5q0 143 -82 215q-61 53 -152 53zM898 1365l-236 -273h-99l221 273h114zM1126 1365l-236 -273h-99l221 273h114z" />
    <glyph glyph-name="Racute" unicode="&#x154;" horiz-adv-x="1228" 
d="M196 0l290 1365h437q169 0 265 -82t96 -226q0 -163 -88 -268.5t-251 -137.5q56 -19 86 -41q85 -59 85 -169q0 -51 -21 -190q-19 -122 -19 -176q0 -40 15 -75h-138q-12 36 -12 69q0 43 26 208q14 92 14 150q0 95 -75.5 139.5t-234.5 44.5h-223l-130 -611h-122zM470 714
h280q108 0 173.5 17.5t115.5 59.5q54 45 86 115.5t32 143.5q0 209 -254 209h-317zM1146 1737l-257 -258h-105l235 258h127z" />
    <glyph glyph-name="racute" unicode="&#x155;" horiz-adv-x="597" 
d="M156 0l200 942h113l-43 -204q68 122 155 177.5t210 55.5h14l-24 -118h-23q-144 0 -253 -109q-57 -57 -90 -134t-64 -224l-82 -386h-113zM853 1365l-236 -273h-103l221 273h118z" />
    <glyph glyph-name="Rcommaaccent" unicode="&#x156;" horiz-adv-x="1228" 
d="M196 0l290 1365h437q169 0 265 -82t96 -226q0 -163 -88 -268.5t-251 -137.5q56 -19 86 -41q85 -59 85 -169q0 -51 -21 -190q-19 -122 -19 -176q0 -40 15 -75h-138q-12 36 -12 69q0 43 26 208q14 92 14 150q0 95 -75.5 139.5t-234.5 44.5h-223l-130 -611h-122zM470 714
h280q108 0 173.5 17.5t115.5 59.5q54 45 86 115.5t32 143.5q0 209 -254 209h-317zM663 -95l-23 -110q-19 -91 -62.5 -135.5t-131.5 -63.5l13 61q75 19 88 78l3 18h-58l32 152h139z" />
    <glyph glyph-name="rcommaaccent" unicode="&#x157;" horiz-adv-x="597" 
d="M156 0l200 942h113l-43 -204q68 122 155 177.5t210 55.5h14l-24 -118h-23q-144 0 -253 -109q-57 -57 -90 -134t-64 -224l-82 -386h-113zM275 -95l-23 -110q-19 -91 -62.5 -135.5t-131.5 -63.5l13 61q75 19 88 78l3 18h-58l32 152h139z" />
    <glyph glyph-name="Rcaron" unicode="&#x158;" horiz-adv-x="1228" 
d="M196 0l290 1365h437q169 0 265 -82t96 -226q0 -163 -88 -268.5t-251 -137.5q56 -19 86 -41q85 -59 85 -169q0 -51 -21 -190q-19 -122 -19 -176q0 -40 15 -75h-138q-12 36 -12 69q0 43 26 208q14 92 14 150q0 95 -75.5 139.5t-234.5 44.5h-223l-130 -611h-122zM470 714
h280q108 0 173.5 17.5t115.5 59.5q54 45 86 115.5t32 143.5q0 209 -254 209h-317zM662 1734h108l108 -190l190 190h109l-255 -259h-113z" />
    <glyph glyph-name="rcaron" unicode="&#x159;" horiz-adv-x="597" 
d="M156 0l200 942h113l-43 -204q68 122 155 177.5t210 55.5h14l-24 -118h-23q-144 0 -253 -109q-57 -57 -90 -134t-64 -224l-82 -386h-113zM438 1365h103l82 -197l168 197h103l-230 -273h-110z" />
    <glyph glyph-name="Sacute" unicode="&#x15a;" horiz-adv-x="1084" 
d="M174 383h117q-2 -32 -2 -49q0 -104 60 -173q76 -86 233 -86q176 0 279 104q84 85 84 205q0 86 -43 139.5t-143 90.5l-171 63q-265 99 -265 339q0 192 145 294q122 87 308 87q187 0 290 -84.5t103 -237.5q0 -15 -1 -43h-127q1 108 -32 158q-67 100 -246 100
q-118 0 -200 -51q-116 -72 -116 -215q0 -87 49 -145.5t155 -98.5l169 -63q257 -95 257 -334q0 -163 -125 -282q-139 -134 -368 -134q-191 0 -300 91q-113 96 -113 254q0 28 3 71zM1102 1737l-257 -258h-105l235 258h127z" />
    <glyph glyph-name="sacute" unicode="&#x15b;" horiz-adv-x="864" 
d="M133 265h118q-1 -18 -1 -31q0 -79 57.5 -124t157.5 -45q105 0 171 51q72 55 72 141q0 55 -28.5 88t-99.5 61l-144 58q-102 41 -149.5 98t-47.5 140q0 130 104 204q90 65 229 65q165 0 255 -82q58 -53 58 -141q0 -12 -2 -35h-118v24q0 66 -51 104t-140 38q-85 0 -145 -37
q-75 -47 -75 -139q0 -95 110 -137l170 -65q189 -72 189 -238q0 -122 -85 -202q-97 -90 -277 -90q-142 0 -231 59q-47 30 -73.5 80.5t-26.5 107.5q0 17 3 47zM887 1365l-236 -273h-103l221 273h118z" />
    <glyph glyph-name="Scircumflex" unicode="&#x15c;" horiz-adv-x="1084" 
d="M174 383h117q-2 -32 -2 -49q0 -104 60 -173q76 -86 233 -86q176 0 279 104q84 85 84 205q0 86 -43 139.5t-143 90.5l-171 63q-265 99 -265 339q0 192 145 294q122 87 308 87q187 0 290 -84.5t103 -237.5q0 -15 -1 -43h-127q1 108 -32 158q-67 100 -246 100
q-118 0 -200 -51q-116 -72 -116 -215q0 -87 49 -145.5t155 -98.5l169 -63q257 -95 257 -334q0 -163 -125 -282q-139 -134 -368 -134q-191 0 -300 91q-113 96 -113 254q0 28 3 71zM1064 1475h-108l-107 189l-191 -189h-109l255 259h113z" />
    <glyph glyph-name="scircumflex" unicode="&#x15d;" horiz-adv-x="864" 
d="M133 265h118q-1 -18 -1 -31q0 -79 57.5 -124t157.5 -45q105 0 171 51q72 55 72 141q0 55 -28.5 88t-99.5 61l-144 58q-102 41 -149.5 98t-47.5 140q0 130 104 204q90 65 229 65q165 0 255 -82q58 -53 58 -141q0 -12 -2 -35h-118v24q0 66 -51 104t-140 38q-85 0 -145 -37
q-75 -47 -75 -139q0 -95 110 -137l170 -65q189 -72 189 -238q0 -122 -85 -202q-97 -90 -277 -90q-142 0 -231 59q-47 30 -73.5 80.5t-26.5 107.5q0 17 3 47zM858 1092h-103l-81 197l-168 -197h-104l231 273h109z" />
    <glyph glyph-name="Scedilla" unicode="&#x15e;" horiz-adv-x="1084" 
d="M596 -32l-47 -76q22 8 47 8q58 0 94 -33t36 -87q0 -73 -54.5 -121.5t-136.5 -48.5q-64 0 -104.5 26.5t-40.5 68.5q0 3 1 9h93q0 -41 51 -41q38 0 65 30.5t27 74.5q0 59 -59 59q-40 0 -62 -31h-89l101 165q-116 14 -185 54q-77 44 -119.5 119.5t-42.5 167.5q0 28 3 71h117
q-2 -32 -2 -49q0 -104 60 -172q76 -86 233 -86q176 0 279 103q84 86 84 205q0 87 -43 140t-143 90l-171 63q-265 99 -265 339q0 192 145 294q122 87 308 87q187 0 290 -84.5t103 -237.5q0 -15 -1 -43h-127q1 108 -32 158q-67 100 -246 100q-118 0 -200 -51
q-116 -72 -116 -215q0 -87 49 -145.5t155 -98.5l169 -63q257 -95 257 -334q0 -176 -136.5 -294t-344.5 -121z" />
    <glyph glyph-name="scedilla" unicode="&#x15f;" horiz-adv-x="864" 
d="M463 -29l-47 -79q23 8 46 8q52 0 83.5 -31t31.5 -83q0 -74 -54 -125t-133 -51q-58 0 -95 26.5t-37 68.5v9h86q0 -41 57 -41q38 0 63 31t25 76q0 57 -54 57q-44 0 -68 -31h-82l101 170q-59 7 -110 29q-70 31 -108 86.5t-38 126.5q0 17 3 47h118q-1 -18 -1 -31
q0 -78 57.5 -123t157.5 -45q105 0 171 51q72 55 72 140q0 55 -28 88t-100 61l-144 58q-102 41 -149.5 98t-47.5 140q0 130 104 204q90 65 229 65q165 0 255 -82q58 -53 58 -141q0 -12 -2 -35h-118v24q0 66 -51 104t-140 38q-85 0 -145 -37q-75 -47 -75 -139q0 -95 110 -137
l170 -65q189 -72 189 -238q0 -132 -95 -210.5t-258 -81.5h-7z" />
    <glyph glyph-name="Scaron" unicode="&#x160;" horiz-adv-x="1084" 
d="M174 383h117q-2 -32 -2 -49q0 -104 60 -173q76 -86 233 -86q176 0 279 104q84 85 84 205q0 86 -43 139.5t-143 90.5l-171 63q-265 99 -265 339q0 192 145 294q122 87 308 87q187 0 290 -84.5t103 -237.5q0 -15 -1 -43h-127q1 108 -32 158q-67 100 -246 100
q-118 0 -200 -51q-116 -72 -116 -215q0 -87 49 -145.5t155 -98.5l169 -63q257 -95 257 -334q0 -163 -125 -282q-139 -134 -368 -134q-191 0 -300 91q-113 96 -113 254q0 28 3 71zM605 1734h108l108 -190l190 190h109l-255 -259h-113z" />
    <glyph glyph-name="scaron" unicode="&#x161;" horiz-adv-x="864" 
d="M133 265h118q-1 -18 -1 -31q0 -79 57.5 -124t157.5 -45q105 0 171 51q72 55 72 141q0 55 -28.5 88t-99.5 61l-144 58q-102 41 -149.5 98t-47.5 140q0 130 104 204q90 65 229 65q165 0 255 -82q58 -53 58 -141q0 -12 -2 -35h-118v24q0 66 -51 104t-140 38q-85 0 -145 -37
q-75 -47 -75 -139q0 -95 110 -137l170 -65q189 -72 189 -238q0 -122 -85 -202q-97 -90 -277 -90q-142 0 -231 59q-47 30 -73.5 80.5t-26.5 107.5q0 17 3 47zM448 1365h103l82 -197l168 197h103l-230 -273h-110z" />
    <glyph glyph-name="Tcommaaccent" unicode="&#x162;" horiz-adv-x="1014" 
d="M569 0h-122l267 1259h-397l23 106h915l-22 -106h-396zM558 -95l-23 -110q-19 -91 -62.5 -135.5t-131.5 -63.5l13 61q75 19 88 78l3 18h-58l32 152h139z" />
    <glyph glyph-name="tcommaaccent" unicode="&#x163;" horiz-adv-x="544" 
d="M205 848l20 94h153l38 177l118 123h20l-64 -300h182l-20 -94h-182l-128 -604q-16 -75 -16 -102q0 -72 85 -72q35 0 79 17l-20 -95q-50 -17 -88 -17q-77 0 -123.5 42t-46.5 111q0 34 20 127l126 593h-153zM362 -95l-23 -110q-19 -91 -62.5 -135.5t-131.5 -63.5l13 61
q75 19 88 78l3 18h-58l32 152h139z" />
    <glyph glyph-name="Tcaron" unicode="&#x164;" horiz-adv-x="1014" 
d="M569 0h-122l267 1259h-397l23 106h915l-22 -106h-396zM612 1734h108l108 -190l190 190h109l-255 -259h-113z" />
    <glyph glyph-name="tcaron" unicode="&#x165;" horiz-adv-x="569" 
d="M205 848l20 94h153l38 177l118 123h20l-64 -300h182l-20 -94h-182l-128 -604q-16 -75 -16 -102q0 -72 85 -72q35 0 79 17l-20 -95q-50 -17 -88 -17q-77 0 -123.5 42t-46.5 111q0 34 20 127l126 593h-153zM838 1371l-23 -110q-20 -90 -63 -134.5t-131 -64.5l13 61
q75 20 88 79l3 17h-58l32 152h139z" />
    <glyph glyph-name="Tbar" unicode="&#x166;" horiz-adv-x="1014" 
d="M716 690l-147 -690h-122l146 690h-235l19 90h235l102 479h-397l23 106h915l-22 -106h-396l-102 -479h238l-19 -90h-238z" />
    <glyph glyph-name="tbar" unicode="&#x167;" horiz-adv-x="568" 
d="M427 637h186l-20 -94h-186l-64 -299q-15 -72 -15 -103q0 -71 85 -71q35 0 79 17l-20 -95q-51 -17 -88 -17q-77 0 -123.5 42t-46.5 111q0 36 19 126l62 289h-149l20 94h149l44 211h-153l21 94h152l38 177l118 123h20l-63 -300h182l-20 -94h-182z" />
    <glyph glyph-name="Utilde" unicode="&#x168;" horiz-adv-x="1249" 
d="M465 1365h123l-174 -814q-29 -139 -29 -208q0 -109 54 -175q77 -95 240 -95q202 0 295 149q28 45 43.5 97.5t52.5 232.5l173 813h122l-173 -814q-38 -205 -59 -263q-60 -171 -177 -247q-112 -74 -281 -74q-208 0 -321 107q-93 90 -93 248q0 83 32 233zM1261 1703
q-36 -103 -78 -148t-104 -45q-37 0 -63.5 11.5t-67.5 44.5q-52 42 -87 42q-63 0 -105 -99h-80q29 94 78.5 144t113.5 50q57 0 119 -50q58 -48 87 -48q62 0 105 98h82z" />
    <glyph glyph-name="utilde" unicode="&#x169;" 
d="M1072 942l-201 -942h-106l34 159q-72 -100 -150 -144t-183 -44q-134 0 -204 77q-57 62 -57 163q0 57 17 138l126 593h113l-118 -555q-22 -102 -22 -164q0 -58 25 -94q44 -64 145 -64q82 0 155 41t121 113q56 84 92 251l100 472h113zM1035 1318q-35 -111 -75.5 -158.5
t-99.5 -47.5q-37 0 -62 11.5t-65 47.5q-50 45 -84 45q-61 0 -101 -105h-77q26 99 74.5 153t110.5 54q55 0 114 -53q57 -51 84 -51q60 0 101 104h80z" />
    <glyph glyph-name="Umacron" unicode="&#x16a;" horiz-adv-x="1249" 
d="M465 1365h123l-174 -814q-29 -139 -29 -208q0 -109 54 -175q77 -95 240 -95q202 0 295 149q28 45 43.5 97.5t52.5 232.5l173 813h122l-173 -814q-38 -205 -59 -263q-60 -171 -177 -247q-112 -74 -281 -74q-208 0 -321 107q-93 90 -93 248q0 83 32 233zM1216 1588l-18 -86
h-535l18 86h535z" />
    <glyph glyph-name="umacron" unicode="&#x16b;" 
d="M1072 942l-201 -942h-106l34 159q-72 -100 -150 -144t-183 -44q-134 0 -204 77q-57 62 -57 163q0 57 17 138l126 593h113l-118 -555q-22 -102 -22 -164q0 -58 25 -94q44 -64 145 -64q82 0 155 41t121 113q56 84 92 251l100 472h113zM996 1237l-19 -90h-464l19 90h464z
" />
    <glyph glyph-name="Ubreve" unicode="&#x16c;" horiz-adv-x="1249" 
d="M465 1365h123l-174 -814q-29 -139 -29 -208q0 -109 54 -175q77 -95 240 -95q202 0 295 149q28 45 43.5 97.5t52.5 232.5l173 813h122l-173 -814q-38 -205 -59 -263q-60 -171 -177 -247q-112 -74 -281 -74q-208 0 -321 107q-93 90 -93 248q0 83 32 233zM1207 1734
q-8 -79 -38 -133q-69 -126 -229 -126q-104 0 -160 50t-56 142q0 24 5 67h84q-2 -25 -2 -36q0 -129 136 -129q73 0 112.5 36.5t64.5 128.5h83z" />
    <glyph glyph-name="ubreve" unicode="&#x16d;" 
d="M1072 942l-201 -942h-106l34 159q-72 -100 -150 -144t-183 -44q-134 0 -204 77q-57 62 -57 163q0 57 17 138l126 593h113l-118 -555q-22 -102 -22 -164q0 -58 25 -94q44 -64 145 -64q82 0 155 41t121 113q56 84 92 251l100 472h113zM994 1365q-8 -84 -36 -139
q-66 -134 -215 -134q-96 0 -148 52.5t-52 149.5q0 28 5 71h78q-2 -25 -2 -39q0 -140 127 -140q67 0 104.5 40.5t61.5 138.5h77z" />
    <glyph glyph-name="Uring" unicode="&#x16e;" horiz-adv-x="1249" 
d="M465 1365h123l-174 -814q-29 -139 -29 -208q0 -109 54 -175q77 -95 240 -95q202 0 295 149q28 45 43.5 97.5t52.5 232.5l173 813h122l-173 -814q-38 -205 -59 -263q-60 -171 -177 -247q-112 -74 -281 -74q-208 0 -321 107q-93 90 -93 248q0 83 32 233zM953 1727
q-45 0 -76 -32t-31 -78q0 -44 31 -76t74 -32q44 0 74.5 31.5t30.5 77.5q0 45 -30.5 77t-72.5 32zM953 1803q76 0 130.5 -54.5t54.5 -130.5q0 -77 -55 -130.5t-133 -53.5q-77 0 -132 54t-55 129q0 78 55 132t135 54z" />
    <glyph glyph-name="uring" unicode="&#x16f;" 
d="M1072 942l-201 -942h-106l34 159q-72 -100 -150 -144t-183 -44q-134 0 -204 77q-57 62 -57 163q0 57 17 138l126 593h113l-118 -555q-22 -102 -22 -164q0 -58 25 -94q44 -64 145 -64q82 0 155 41t121 113q56 84 92 251l100 472h113zM746 1358q-44 0 -74 -31.5t-30 -77.5
q0 -45 30 -77t72 -32t72 31.5t30 76.5t-29.5 77.5t-70.5 32.5zM747 1434q75 0 128.5 -54.5t53.5 -130.5t-54 -130t-131 -54t-131 54t-54 130q0 78 54.5 131.5t133.5 53.5z" />
    <glyph glyph-name="Uhungarumlaut" unicode="&#x170;" horiz-adv-x="1249" 
d="M465 1365h123l-174 -814q-29 -139 -29 -208q0 -109 54 -175q77 -95 240 -95q202 0 295 149q28 45 43.5 97.5t52.5 232.5l173 813h122l-173 -814q-38 -205 -59 -263q-60 -171 -177 -247q-112 -74 -281 -74q-208 0 -321 107q-93 90 -93 248q0 83 32 233zM1073 1737
l-257 -258h-105l235 258h127zM1318 1737l-256 -258h-105l235 258h126z" />
    <glyph glyph-name="uhungarumlaut" unicode="&#x171;" 
d="M1072 942l-201 -942h-106l34 159q-72 -100 -150 -144t-183 -44q-134 0 -204 77q-57 62 -57 163q0 57 17 138l126 593h113l-118 -555q-22 -102 -22 -164q0 -58 25 -94q44 -64 145 -64q82 0 155 41t121 113q56 84 92 251l100 472h113zM881 1365l-236 -273h-99l221 273h114z
M1109 1365l-236 -273h-99l221 273h114z" />
    <glyph glyph-name="Uogonek" unicode="&#x172;" horiz-adv-x="1249" 
d="M860 -5q-79 -64 -110 -108.5t-31 -91.5q0 -32 23.5 -51t63.5 -19q32 0 83 18l-15 -72q-62 -22 -115 -22q-143 0 -143 122q0 112 123 199q-42 -3 -69 -3q-201 0 -316 107q-93 88 -93 248q0 83 32 233l172 810h123l-174 -814q-29 -139 -29 -207q0 -110 54 -176
q77 -94 240 -94q202 0 295 149q28 45 43.5 97t52.5 232l173 813h122l-173 -814q-37 -199 -61 -272.5t-74 -140.5q-76 -103 -197 -143z" />
    <glyph glyph-name="uogonek" unicode="&#x173;" 
d="M871 0l-6 -5q-134 -113 -134 -200q0 -70 83 -70q30 0 80 18l-15 -72q-60 -22 -110 -22q-137 0 -137 122q0 130 163 229h-30l34 159q-72 -100 -150 -144t-183 -44q-134 0 -204 77q-57 62 -57 163q0 57 17 138l126 593h113l-118 -555q-22 -102 -22 -164q0 -58 25 -94
q44 -64 145 -64q82 0 155 41t121 113q56 84 92 251l100 472h113z" />
    <glyph glyph-name="Wcircumflex" unicode="&#x174;" horiz-adv-x="1527" 
d="M350 0l-24 1365h124l10 -1172l525 1172h135l30 -1172l509 1172h121l-605 -1365h-129l-32 1183l-535 -1183h-129zM1313 1475h-108l-107 189l-191 -189h-109l255 259h113z" />
    <glyph glyph-name="wcircumflex" unicode="&#x175;" horiz-adv-x="1332" 
d="M329 0l-84 942h128l57 -782l373 782h130l43 -780l388 780h122l-483 -942h-127l-46 770l-371 -770h-130zM1109 1092h-103l-81 197l-168 -197h-104l231 273h109z" />
    <glyph glyph-name="Ycircumflex" unicode="&#x176;" 
d="M453 0l120 565l-280 800h137l228 -682l517 682h139l-619 -800l-120 -565h-122zM1065 1475h-108l-107 189l-191 -189h-109l255 259h113z" />
    <glyph glyph-name="ycircumflex" unicode="&#x177;" horiz-adv-x="828" 
d="M33 -340l20 96q10 -2 15 -4q32 -9 59 -9q55 0 92 29.5t81 108.5l70 126l-152 935h125l116 -782l428 782h124l-613 -1087q-63 -111 -112 -153q-67 -57 -167 -57q-44 0 -86 15zM867 1092h-103l-81 197l-168 -197h-104l231 273h109z" />
    <glyph glyph-name="Zacute" unicode="&#x179;" horiz-adv-x="1042" 
d="M79 0l25 115l987 1144h-690l23 106h824l-24 -112l-988 -1147h758l-22 -106h-893zM1126 1737l-257 -258h-105l235 258h127z" />
    <glyph glyph-name="zacute" unicode="&#x17a;" horiz-adv-x="792" 
d="M960 942l-17 -80l-740 -768h599l-20 -94h-740l20 92l731 756h-530l20 94h677zM906 1365l-236 -273h-103l221 273h118z" />
    <glyph glyph-name="Zdotaccent" unicode="&#x17b;" horiz-adv-x="1042" 
d="M79 0l25 115l987 1144h-690l23 106h824l-24 -112l-988 -1147h758l-22 -106h-893zM797 1488l41 191h118l-40 -191h-119z" />
    <glyph glyph-name="zdotaccent" unicode="&#x17c;" horiz-adv-x="792" 
d="M960 942l-17 -80l-740 -768h599l-20 -94h-740l20 92l731 756h-530l20 94h677zM596 1106l41 191h114l-40 -191h-115z" />
    <glyph glyph-name="Zcaron" unicode="&#x17d;" horiz-adv-x="1042" 
d="M79 0l25 115l987 1144h-690l23 106h824l-24 -112l-988 -1147h758l-22 -106h-893zM627 1734h108l108 -190l190 190h109l-255 -259h-113z" />
    <glyph glyph-name="zcaron" unicode="&#x17e;" horiz-adv-x="792" 
d="M960 942l-17 -80l-740 -768h599l-20 -94h-740l20 92l731 756h-530l20 94h677zM468 1365h103l82 -197l168 197h103l-230 -273h-110z" />
    <glyph glyph-name="longs" unicode="&#x17f;" horiz-adv-x="471" 
d="M154 0l232 1092q23 106 35.5 142t37.5 71q68 92 192 92q48 0 107 -21l-21 -100q-47 20 -91 20q-63 0 -91.5 -38t-53.5 -153l-234 -1105h-113z" />
    <glyph glyph-name="uni01CD" unicode="&#x1cd;" horiz-adv-x="1107" 
d="M780 1365h133l164 -1365h-129l-44 430h-511l-230 -430h-132zM449 535h444l-73 695zM655 1734h108l108 -190l190 190h109l-255 -259h-113z" />
    <glyph glyph-name="uni01CE" unicode="&#x1ce;" horiz-adv-x="939" 
d="M920 88l-19 -89q-32 -9 -58 -9q-56 0 -91 30.5t-35 79.5q0 21 9 66q-147 -195 -344 -195q-119 0 -190 70q-63 63 -63 169q0 211 247 297q75 27 160 37t272 15l27 137q5 22 5 43q0 138 -207 138q-96 0 -162.5 -43t-91.5 -122h-114q22 118 124 188.5t252 70.5t230.5 -59.5
t80.5 -170.5q0 -33 -10 -82l-94 -440q-15 -66 -15 -82q0 -51 55 -51q12 0 32 2zM790 477q-216 -9 -326 -35q-103 -24 -161.5 -83.5t-58.5 -139.5q0 -71 42.5 -112.5t115.5 -41.5q68 0 139.5 40t129.5 111q36 44 67 103t40 101zM532 1365h103l82 -197l168 197h103l-230 -273
h-110z" />
    <glyph glyph-name="uni01D2" unicode="&#x1d2;" horiz-adv-x="992" 
d="M690 971q165 0 257 -102q84 -94 84 -257q0 -117 -37.5 -233.5t-104.5 -206.5q-151 -201 -387 -201q-160 0 -250 93q-91 95 -91 263q0 117 36 232t100 203q153 209 393 209zM683 877q-91 0 -171 -50t-138 -141q-99 -157 -99 -357q0 -146 85 -215q60 -49 150 -49
q185 0 303 182q48 74 76 171.5t28 190.5q0 143 -82 215q-61 53 -152 53zM562 1365h103l82 -197l168 197h103l-230 -273h-110z" />
    <glyph glyph-name="uni01D3" unicode="&#x1d3;" horiz-adv-x="1249" 
d="M465 1365h123l-174 -814q-29 -139 -29 -208q0 -109 54 -175q77 -95 240 -95q202 0 295 149q28 45 43.5 97.5t52.5 232.5l173 813h122l-173 -814q-38 -205 -59 -263q-60 -171 -177 -247q-112 -74 -281 -74q-208 0 -321 107q-93 90 -93 248q0 83 32 233zM716 1734h108
l108 -190l190 190h109l-255 -259h-113z" />
    <glyph glyph-name="uni01D4" unicode="&#x1d4;" 
d="M1072 942l-201 -942h-106l34 159q-72 -100 -150 -144t-183 -44q-134 0 -204 77q-57 62 -57 163q0 57 17 138l126 593h113l-118 -555q-22 -102 -22 -164q0 -58 25 -94q44 -64 145 -64q82 0 155 41t121 113q56 84 92 251l100 472h113zM560 1365h103l82 -197l168 197h103
l-230 -273h-110z" />
    <glyph glyph-name="Gcaron" unicode="&#x1e6;" horiz-adv-x="1323" 
d="M1159 0h-102l48 228q-71 -95 -132 -147q-132 -114 -299 -114q-198 0 -313 132q-127 146 -127 377q0 199 79 409q94 250 275 390q159 122 356 122q152 0 255 -72q77 -54 111 -127t40 -194h-124q-8 135 -83.5 210.5t-202.5 75.5q-256 0 -431 -286q-69 -112 -108.5 -257.5
t-39.5 -287.5q0 -92 27.5 -173t74.5 -129q83 -84 218 -84q137 0 257 102q90 76 141.5 167.5t92.5 245.5h-384l23 106h496zM767 1734h108l108 -190l190 190h109l-255 -259h-113z" />
    <glyph glyph-name="gcaron" unicode="&#x1e7;" horiz-adv-x="1046" 
d="M979 942h112l-172 -809q-29 -150 -48 -201q-54 -147 -164 -217t-286 -70q-211 0 -292 121q-31 46 -33 116h120q15 -143 208 -143q155 0 241.5 83t125.5 270l23 109q-52 -89 -134 -139t-178 -50q-141 0 -228 88q-92 91 -92 259q0 123 38.5 240.5t105.5 197.5
q146 174 349 174q211 0 270 -187zM679 877q-175 0 -284 -165q-45 -66 -71 -161.5t-26 -190.5q0 -126 60 -193q56 -61 147 -61q85 0 159.5 45.5t128.5 128.5q47 74 75 169.5t28 183.5q0 136 -80 199q-57 45 -137 45zM542 1365h103l82 -197l168 197h103l-230 -273h-110z" />
    <glyph glyph-name="uni01F5" unicode="&#x1f5;" horiz-adv-x="1046" 
d="M979 942h112l-172 -809q-29 -150 -48 -201q-54 -147 -164 -217t-286 -70q-211 0 -292 121q-31 46 -33 116h120q15 -143 208 -143q155 0 241.5 83t125.5 270l23 109q-52 -89 -134 -139t-178 -50q-141 0 -228 88q-92 91 -92 259q0 123 38.5 240.5t105.5 197.5
q146 174 349 174q211 0 270 -187zM679 877q-175 0 -284 -165q-45 -66 -71 -161.5t-26 -190.5q0 -126 60 -193q56 -61 147 -61q85 0 159.5 45.5t128.5 128.5q47 74 75 169.5t28 183.5q0 136 -80 199q-57 45 -137 45zM989 1365l-236 -273h-103l221 273h118z" />
    <glyph glyph-name="Scommaaccent" unicode="&#x218;" horiz-adv-x="1084" 
d="M174 383h117q-2 -32 -2 -49q0 -104 60 -173q76 -86 233 -86q176 0 279 104q84 85 84 205q0 86 -43 139.5t-143 90.5l-171 63q-265 99 -265 339q0 192 145 294q122 87 308 87q187 0 290 -84.5t103 -237.5q0 -15 -1 -43h-127q1 108 -32 158q-67 100 -246 100
q-118 0 -200 -51q-116 -72 -116 -215q0 -87 49 -145.5t155 -98.5l169 -63q257 -95 257 -334q0 -163 -125 -282q-139 -134 -368 -134q-191 0 -300 91q-113 96 -113 254q0 28 3 71zM618 -95l-23 -110q-19 -91 -62.5 -135.5t-131.5 -63.5l13 61q75 19 88 78l3 18h-58l32 152
h139z" />
    <glyph glyph-name="scommaaccent" unicode="&#x219;" horiz-adv-x="864" 
d="M133 265h118q-1 -18 -1 -31q0 -79 57.5 -124t157.5 -45q105 0 171 51q72 55 72 141q0 55 -28.5 88t-99.5 61l-144 58q-102 41 -149.5 98t-47.5 140q0 130 104 204q90 65 229 65q165 0 255 -82q58 -53 58 -141q0 -12 -2 -35h-118v24q0 66 -51 104t-140 38q-85 0 -145 -37
q-75 -47 -75 -139q0 -95 110 -137l170 -65q189 -72 189 -238q0 -122 -85 -202q-97 -90 -277 -90q-142 0 -231 59q-47 30 -73.5 80.5t-26.5 107.5q0 17 3 47zM489 -95l-23 -110q-19 -91 -62.5 -135.5t-131.5 -63.5l13 61q75 19 88 78l3 18h-58l32 152h139z" />
    <glyph glyph-name="uni021A" unicode="&#x21a;" horiz-adv-x="1014" 
d="M569 0h-122l267 1259h-397l23 106h915l-22 -106h-396zM558 -95l-23 -110q-19 -91 -62.5 -135.5t-131.5 -63.5l13 61q75 19 88 78l3 18h-58l32 152h139z" />
    <glyph glyph-name="uni021B" unicode="&#x21b;" horiz-adv-x="544" 
d="M205 848l20 94h153l38 177l118 123h20l-64 -300h182l-20 -94h-182l-128 -604q-16 -75 -16 -102q0 -72 85 -72q35 0 79 17l-20 -95q-50 -17 -88 -17q-77 0 -123.5 42t-46.5 111q0 34 20 127l126 593h-153zM362 -95l-23 -110q-19 -91 -62.5 -135.5t-131.5 -63.5l13 61
q75 19 88 78l3 18h-58l32 152h139z" />
    <glyph glyph-name="dotlessj" unicode="&#x237;" horiz-adv-x="475" 
d="M379 942h113l-210 -986q-34 -163 -79 -222q-67 -89 -197 -89q-32 0 -62 8l21 97q24 -6 48 -6q71 0 99.5 38t56.5 170z" />
    <glyph glyph-name="afii57929" unicode="&#x2bc;" horiz-adv-x="495" 
d="M606 1365l-32 -148q-31 -147 -80 -219t-140 -104l17 82q80 41 106 161l5 23h-59l44 205h139z" />
    <glyph glyph-name="uni037E" unicode="&#x37e;" horiz-adv-x="495" 
d="M359 205l-32 -148q-31 -147 -80 -219t-140 -104l17 82q80 41 106 161l5 23h-59l43 205h140zM515 942l-43 -205h-139l43 205h139z" />
    <glyph glyph-name="anoteleia" unicode="&#x387;" horiz-adv-x="484" 
d="M439 608l-44 -205h-135l44 205h135z" />
    <glyph glyph-name="afii10023" unicode="&#x401;" horiz-adv-x="1092" 
d="M196 0l290 1365h787l-22 -106h-665l-106 -499h622l-23 -106h-622l-116 -548h672l-23 -106h-794zM1003 1488l41 191h118l-40 -191h-119zM685 1488l41 191h118l-40 -191h-119z" />
    <glyph glyph-name="afii10051" unicode="&#x402;" horiz-adv-x="1124" 
d="M580 -56q29 -14 56 -14q116 0 211 141q75 113 121 268t46 295q0 243 -171 243q-124 0 -211 -104t-129 -301l-100 -472h-123l268 1259h-298l23 106h915l-22 -106h-496l-99 -465q122 177 294 177q118 0 185 -73q82 -89 82 -249q0 -168 -54 -345t-142 -298
q-122 -166 -299 -166q-35 0 -76 15z" />
    <glyph glyph-name="afii10052" unicode="&#x403;" horiz-adv-x="1003" 
d="M486 1365h753l-23 -106h-630l-268 -1259h-122zM1170 1737l-257 -258h-105l235 258h127z" />
    <glyph glyph-name="afii10053" unicode="&#x404;" horiz-adv-x="1237" 
d="M404 760h506l-23 -106h-508q-18 -100 -18 -194q0 -93 27.5 -174t74.5 -129q83 -84 214 -84q167 0 301 145q86 93 133 233h124q-47 -164 -141 -278q-170 -206 -419 -206q-200 0 -314 132q-127 146 -127 377q0 199 79 408q94 251 275 391q158 122 351 122t301 -116
q97 -103 97 -268v-16h-125q-4 105 -44 172q-71 121 -236 121q-172 0 -315 -143.5t-213 -386.5z" />
    <glyph glyph-name="afii10054" unicode="&#x405;" horiz-adv-x="1084" 
d="M174 383h117q-2 -32 -2 -49q0 -104 60 -173q76 -86 233 -86q176 0 279 104q84 85 84 205q0 86 -43 139.5t-143 90.5l-171 63q-265 99 -265 339q0 192 145 294q122 87 308 87q187 0 290 -84.5t103 -237.5q0 -15 -1 -43h-127q1 108 -32 158q-67 100 -246 100
q-118 0 -200 -51q-116 -72 -116 -215q0 -87 49 -145.5t155 -98.5l169 -63q257 -95 257 -334q0 -163 -125 -282q-139 -134 -368 -134q-191 0 -300 91q-113 96 -113 254q0 28 3 71z" />
    <glyph glyph-name="afii10055" unicode="&#x406;" horiz-adv-x="514" 
d="M196 0l290 1365h123l-291 -1365h-122z" />
    <glyph glyph-name="afii10056" unicode="&#x407;" horiz-adv-x="479" 
d="M195 0l290 1365h123l-291 -1365h-122zM635 1488l40 191h119l-41 -191h-118zM391 1488l41 191h118l-40 -191h-119z" />
    <glyph glyph-name="afii10057" unicode="&#x408;" horiz-adv-x="636" 
d="M630 1365h123l-191 -898q-34 -161 -56.5 -223.5t-65.5 -122.5q-58 -80 -136.5 -117t-188.5 -37q-48 0 -102 13l23 109q50 -16 100 -16q150 0 223 136q42 77 86 286z" />
    <glyph glyph-name="afii10058" unicode="&#x409;" horiz-adv-x="1669" 
d="M1116 784h186q223 0 319 -96q85 -84 85 -215q0 -103 -41 -196t-113 -156q-141 -121 -426 -121h-299l268 1259h-394l-298 -914q-42 -130 -83 -195t-107 -107q-83 -52 -202 -53l23 106q170 -1 241 216l339 1053h626zM972 106h187q111 0 181.5 20.5t123.5 67.5q52 46 83 117
t31 143q0 118 -75 171t-241 53h-168z" />
    <glyph glyph-name="afii10059" unicode="&#x40a;" horiz-adv-x="1799" 
d="M1246 777h185q223 0 320 -95q85 -84 85 -214q0 -102 -40.5 -194t-113.5 -154q-141 -120 -425 -120h-299l143 671h-640l-143 -671h-122l290 1365h123l-125 -588h639l125 588h123zM1103 106h187q206 0 304 87q52 46 83 115.5t31 140.5q0 117 -75 169.5t-242 52.5h-168z" />
    <glyph glyph-name="afii10060" unicode="&#x40b;" horiz-adv-x="1147" 
d="M403 0h-123l268 1259h-298l23 106h915l-22 -106h-496l-99 -465q133 177 318 177q122 0 184 -75q46 -57 46 -145q0 -63 -20 -158l-126 -593h-113l118 555q24 112 24 167q0 56 -19 89q-18 30 -54 48t-79 18q-75 0 -143.5 -41t-114.5 -113q-54 -84 -89 -251z" />
    <glyph glyph-name="afii10061" unicode="&#x40c;" horiz-adv-x="1137" 
d="M485 1365h119l-126 -592h154l598 592h139l-656 -642l414 -723h-138l-382 675h-150l-144 -675h-118zM1207 1737l-257 -258h-105l235 258h127z" />
    <glyph glyph-name="afii10062" unicode="&#x40e;" horiz-adv-x="1007" 
d="M626 492l553 873h128l-773 -1210q-65 -102 -127.5 -145t-145.5 -43q-39 0 -86 13l23 109q40 -16 77 -16q48 0 83.5 26.5t77.5 92.5l100 157l-240 1016h137zM1105 1734q-8 -79 -38 -133q-69 -126 -229 -126q-104 0 -160 50t-56 142q0 24 5 67h84q-2 -25 -2 -36
q0 -129 136 -129q73 0 112.5 36.5t64.5 128.5h83z" />
    <glyph glyph-name="afii10145" unicode="&#x40f;" horiz-adv-x="1303" 
d="M591 0h-395l290 1365h123l-268 -1259h667l268 1259h122l-290 -1365h-395l-44 -205h-122z" />
    <glyph glyph-name="afii10017" unicode="&#x410;" horiz-adv-x="1107" 
d="M780 1365h133l164 -1365h-129l-44 430h-511l-230 -430h-132zM449 535h444l-73 695z" />
    <glyph glyph-name="afii10018" unicode="&#x411;" horiz-adv-x="1108" 
d="M485 784h221q223 0 319 -96q85 -84 85 -215q0 -103 -41 -196t-113 -156q-141 -121 -425 -121h-335l290 1365h753l-23 -106h-630zM341 106h222q111 0 181.5 20.5t123.5 67.5q52 46 83 117t31 143q0 118 -75 171t-241 53h-203z" />
    <glyph glyph-name="afii10019" unicode="&#x412;" horiz-adv-x="1196" 
d="M196 0l290 1365h393q385 0 385 -293q0 -141 -81.5 -233t-238.5 -129q228 -61 228 -271q0 -96 -38.5 -181t-108.5 -143q-139 -115 -415 -115h-414zM480 760h225q183 0 283 57q149 86 149 249q0 100 -68 146.5t-213 46.5h-270zM341 106h298q189 0 292 78q115 85 115 251
q0 125 -98 183q-67 40 -232 40h-258z" />
    <glyph glyph-name="afii10020" unicode="&#x413;" horiz-adv-x="1003" 
d="M486 1365h753l-23 -106h-630l-268 -1259h-122z" />
    <glyph glyph-name="afii10021" unicode="&#x414;" horiz-adv-x="1181" 
d="M620 1365h653l-268 -1259h123l-66 -311h-123l44 205h-857l-44 -205h-122l66 311h17q171 0 237 206zM272 106h611l245 1153h-421l-298 -914q-30 -93 -60.5 -146t-76.5 -93z" />
    <glyph glyph-name="afii10022" unicode="&#x415;" horiz-adv-x="1092" 
d="M196 0l290 1365h787l-22 -106h-665l-106 -499h622l-23 -106h-622l-116 -548h672l-23 -106h-794z" />
    <glyph glyph-name="afii10024" unicode="&#x416;" horiz-adv-x="1732" 
d="M1842 1365h138l-645 -636l404 -729h-138l-375 675h-157l-144 -675h-118l144 675h-151l-662 -675h-145l715 729l-376 636h138l344 -592h157l126 592h118l-126 -592h155z" />
    <glyph glyph-name="afii10025" unicode="&#x417;" horiz-adv-x="1133" 
d="M650 760h69q104 0 167 15t120 52q124 83 124 238q0 83 -45 137q-74 89 -229 89q-137 0 -236.5 -71.5t-171.5 -222.5h-124q65 187 211.5 293.5t337.5 106.5q198 0 306 -114q80 -84 80 -206q0 -146 -100 -246t-272 -126q103 -32 156 -88q76 -82 76 -211q0 -167 -112 -287
q-143 -152 -392 -152q-241 0 -352 153q-74 103 -74 255q0 25 5 76h123q-4 -48 -4 -73q0 -138 86 -226q78 -79 213 -79q91 0 171.5 32.5t129.5 89.5q81 93 81 220q0 116 -77 177.5t-221 61.5h-68z" />
    <glyph glyph-name="afii10026" unicode="&#x418;" horiz-adv-x="1302" 
d="M486 1365h117l-222 -1040l870 904l29 136h116l-290 -1365h-116l222 1046l-869 -901l-31 -145h-116z" />
    <glyph glyph-name="afii10027" unicode="&#x419;" horiz-adv-x="1302" 
d="M486 1365h117l-222 -1040l870 904l29 136h116l-290 -1365h-116l222 1046l-869 -901l-31 -145h-116zM1245 1734q-8 -79 -38 -133q-69 -126 -229 -126q-104 0 -160 50t-56 142q0 24 5 67h84q-2 -25 -2 -36q0 -129 136 -129q73 0 112.5 36.5t64.5 128.5h83z" />
    <glyph glyph-name="afii10028" unicode="&#x41a;" horiz-adv-x="1137" 
d="M485 1365h119l-126 -592h154l598 592h139l-656 -642l414 -723h-138l-382 675h-150l-144 -675h-118z" />
    <glyph glyph-name="afii10029" unicode="&#x41b;" horiz-adv-x="1173" 
d="M1267 1365l-290 -1365h-122l267 1259h-421l-298 -914q-42 -129 -83 -194t-107 -108q-82 -52 -202 -53l23 106q170 -1 241 216l339 1053h653z" />
    <glyph glyph-name="afii10030" unicode="&#x41c;" horiz-adv-x="1512" 
d="M196 0l290 1365h159l152 -1191l650 1191h160l-290 -1365h-117l249 1170l-635 -1170h-108l-146 1162l-248 -1162h-116z" />
    <glyph glyph-name="afii10031" unicode="&#x41d;" horiz-adv-x="1303" 
d="M196 0l290 1365h123l-127 -596h667l127 596h122l-290 -1365h-123l141 663h-667l-141 -663h-122z" />
    <glyph glyph-name="afii10032" unicode="&#x41e;" horiz-adv-x="1319" 
d="M933 1396q198 0 318 -136q57 -64 89.5 -164t32.5 -210q0 -157 -46 -316t-127 -284q-100 -153 -234 -235q-136 -84 -292 -84q-222 0 -340 164q-99 136 -99 335q0 211 77 418q91 245 274 388q159 124 347 124zM935 1290q-144 0 -277 -108q-148 -120 -227 -338
q-70 -192 -70 -386q0 -187 97 -293q83 -92 215 -92q148 0 278 106q155 126 237 368q59 175 59 349q0 200 -101 308q-81 86 -211 86z" />
    <glyph glyph-name="afii10033" unicode="&#x41f;" horiz-adv-x="1303" 
d="M1398 1365l-290 -1365h-123l268 1259h-667l-268 -1259h-122l290 1365h912z" />
    <glyph glyph-name="afii10034" unicode="&#x420;" horiz-adv-x="1126" 
d="M196 0l290 1365h344q222 0 319 -96q85 -84 85 -215q0 -103 -41 -195.5t-113 -155.5q-141 -121 -426 -121h-212l-124 -582h-122zM465 688h222q111 0 181.5 20t123.5 67q52 47 83 117.5t31 142.5q0 118 -75 171t-241 53h-204z" />
    <glyph glyph-name="afii10035" unicode="&#x421;" horiz-adv-x="1237" 
d="M1111 451h124q-47 -164 -141 -278q-170 -206 -419 -206q-200 0 -314 132q-127 146 -127 377q0 199 79 409q94 250 275 390q158 122 351 122t301 -116q97 -103 97 -268v-16h-125q-4 105 -44 172q-71 121 -236 121q-248 0 -423 -286q-69 -112 -108.5 -257.5t-39.5 -287.5
q0 -92 27.5 -173t74.5 -129q83 -84 214 -84q167 0 301 145q86 93 133 233z" />
    <glyph glyph-name="afii10036" unicode="&#x422;" horiz-adv-x="1014" 
d="M569 0h-122l267 1259h-397l23 106h915l-22 -106h-396z" />
    <glyph glyph-name="afii10037" unicode="&#x423;" horiz-adv-x="1007" 
d="M626 492l553 873h128l-773 -1210q-65 -102 -127.5 -145t-145.5 -43q-39 0 -86 13l23 109q40 -16 77 -16q48 0 83.5 26.5t77.5 92.5l100 157l-240 1016h137z" />
    <glyph glyph-name="afii10038" unicode="&#x424;" horiz-adv-x="1533" 
d="M1082 1205q138 -4 271 -63q133 -58 196 -177q50 -93 50 -215q0 -156 -81 -286q-178 -284 -658 -303l-34 -161h-119l34 160q-213 9 -346 101q-85 60 -130 159q-41 91 -41 198q0 161 89 294q126 188 384 257q120 32 266 36l34 160h119zM881 263q145 9 228.5 31t164.5 73
q94 60 148 160.5t54 215.5q0 163 -106.5 256t-308.5 106zM763 263l179 843q-237 -5 -392 -105q-116 -75 -168 -201q-36 -89 -36 -184q0 -327 417 -353z" />
    <glyph glyph-name="afii10039" unicode="&#x425;" horiz-adv-x="1026" 
d="M31 0l564 702l-249 663h135l199 -564l448 564h134l-532 -663l264 -702h-137l-214 598l-474 -598h-138z" />
    <glyph glyph-name="afii10040" unicode="&#x426;" horiz-adv-x="1306" 
d="M1130 106h123l-66 -311h-123l44 205h-912l290 1365h123l-268 -1259h667l268 1259h122z" />
    <glyph glyph-name="afii10041" unicode="&#x427;" horiz-adv-x="1256" 
d="M1071 628q-62 -62 -156 -97.5t-198 -35.5q-177 0 -287 93q-98 82 -98 214q0 72 21 172l83 391h123l-84 -396q-20 -92 -20 -146q0 -90 59 -148q75 -74 216 -74q110 0 198 46t140 131q54 87 85 236l75 351h122l-290 -1365h-122z" />
    <glyph glyph-name="afii10042" unicode="&#x428;" horiz-adv-x="1738" 
d="M1542 0h-1346l290 1365h123l-268 -1259h489l268 1259h123l-268 -1259h489l268 1259h122z" />
    <glyph glyph-name="afii10043" unicode="&#x429;" horiz-adv-x="1741" 
d="M1565 106h122l-66 -311h-122l43 205h-1346l290 1365h123l-268 -1259h489l268 1259h123l-268 -1259h489l268 1259h122z" />
    <glyph glyph-name="afii10044" unicode="&#x42a;" horiz-adv-x="1293" 
d="M648 1259h-359l23 106h482l-124 -581h221q223 0 319 -96q85 -84 85 -215q0 -104 -41 -196.5t-113 -155.5q-141 -121 -425 -121h-335zM526 106h222q111 0 181.5 20.5t123.5 67.5q52 46 83 117t31 143q0 118 -75 171t-241 53h-204z" />
    <glyph glyph-name="afii10045" unicode="&#x42b;" horiz-adv-x="1494" 
d="M1176 0l291 1365h122l-290 -1365h-123zM486 1365h123l-124 -581h221q223 0 319 -96q85 -84 85 -215q0 -103 -41 -196t-113 -156q-141 -121 -425 -121h-335zM341 106h222q111 0 181.5 20.5t123.5 67.5q52 46 83 117t31 143q0 118 -75 171t-241 53h-203z" />
    <glyph glyph-name="afii10046" unicode="&#x42c;" horiz-adv-x="1108" 
d="M486 1365h123l-124 -581h221q223 0 319 -96q85 -84 85 -215q0 -103 -41 -196t-113 -156q-141 -121 -425 -121h-335zM341 106h222q111 0 181.5 20.5t123.5 67.5q52 46 83 117t31 143q0 118 -75 171t-241 53h-203z" />
    <glyph glyph-name="afii10047" unicode="&#x42d;" horiz-adv-x="1237" 
d="M1156 760q9 69 9 132q0 101 -31 189t-83 138q-76 71 -204 71q-138 0 -233.5 -70.5t-165.5 -222.5h-124q46 132 143 232q162 167 385 167q194 0 314 -124q68 -69 100 -183q24 -85 24 -178q0 -168 -49 -336.5t-136 -297.5q-112 -168 -265 -249q-115 -61 -247 -61
q-223 0 -330 154q-74 106 -74 254q0 25 5 76h123q-4 -46 -4 -71q0 -137 84 -229q71 -78 192 -78q187 0 334.5 157t211.5 424h-507l22 106h506z" />
    <glyph glyph-name="afii10048" unicode="&#x42e;" horiz-adv-x="1822" 
d="M755 663h-296l-141 -663h-122l290 1365h123l-127 -596h297q57 211 167 356q205 271 490 271q200 0 318 -135q57 -65 89.5 -165t32.5 -210q0 -157 -46 -316t-127 -284q-100 -152 -234 -235q-136 -84 -292 -84q-222 0 -340 164q-99 137 -99 336q0 91 17 196zM1438 1290
q-144 0 -277 -108q-148 -120 -227 -337q-70 -192 -70 -386q0 -187 97 -293q83 -92 215 -92q147 0 277 106q156 126 238 368q59 176 59 349q0 199 -101 307q-81 86 -211 86z" />
    <glyph glyph-name="afii10049" unicode="&#x42f;" horiz-adv-x="1228" 
d="M1032 0h-122l130 611h-223q-193 0 -288 -61q-53 -35 -85 -93.5t-64 -179.5q-38 -142 -56 -189t-49 -88h-138q33 38 53 89t61 197q54 197 114.5 272.5t183.5 100.5q-56 18 -89 49q-89 83 -89 225q0 90 36 173t101 141q70 62 157.5 90t213.5 28h443zM1061 714l116 545h-317
q-93 0 -152.5 -17t-106.5 -57q-105 -89 -105 -246q0 -69 27 -121.5t74 -74.5q62 -29 185 -29h279z" />
    <glyph glyph-name="afii10065" unicode="&#x430;" horiz-adv-x="939" 
d="M920 88l-19 -89q-32 -9 -58 -9q-56 0 -91 30.5t-35 79.5q0 21 9 66q-147 -195 -344 -195q-119 0 -190 70q-63 63 -63 169q0 211 247 297q75 27 160 37t272 15l27 137q5 22 5 43q0 138 -207 138q-96 0 -162.5 -43t-91.5 -122h-114q22 118 124 188.5t252 70.5t230.5 -59.5
t80.5 -170.5q0 -33 -10 -82l-94 -440q-15 -66 -15 -82q0 -51 55 -51q12 0 32 2zM790 477q-216 -9 -326 -35q-103 -24 -161.5 -83.5t-58.5 -139.5q0 -71 42.5 -112.5t115.5 -41.5q68 0 139.5 40t129.5 111q36 44 67 103t40 101z" />
    <glyph glyph-name="afii10066" unicode="&#x431;" horiz-adv-x="1025" 
d="M1037 1458h89q-11 -138 -89 -200q-33 -26 -74 -40t-175 -47q-118 -27 -198.5 -101.5t-161.5 -229.5q51 61 131.5 96t169.5 35q159 0 251 -102q84 -94 84 -257q0 -117 -37.5 -233.5t-104.5 -206.5q-151 -201 -387 -201q-159 0 -250 93q-91 95 -91 264q0 121 49.5 294.5
t125.5 316.5q93 176 246 264q47 27 86.5 40.5t137.5 37.5q133 31 167 79q16 23 31 98zM716 877q-91 0 -171 -50t-138 -141q-99 -157 -99 -357q0 -146 85 -215q60 -49 150 -49q185 0 303 182q48 74 76 171.5t28 190.5q0 143 -82 215q-61 53 -152 53z" />
    <glyph glyph-name="afii10067" unicode="&#x432;" horiz-adv-x="865" 
d="M354 942h277q162 0 232 -51q74 -52 74 -152t-55.5 -159t-171.5 -84q169 -40 169 -201q0 -75 -38.5 -138t-107.5 -102q-100 -55 -296 -55h-283zM447 848l-66 -307h144q295 0 295 179q0 79 -71 110q-41 18 -139 18h-163zM362 447l-76 -353h197q123 0 192 41q92 55 92 164
q0 106 -114 137q-39 11 -148 11h-143z" />
    <glyph glyph-name="afii10068" unicode="&#x433;" horiz-adv-x="749" 
d="M447 848l-181 -848h-112l200 942h590l-20 -94h-477z" />
    <glyph glyph-name="afii10069" unicode="&#x434;" horiz-adv-x="978" 
d="M451 942h570l-180 -848h120l-64 -299h-112l43 205h-731l-44 -205h-112l64 299h37q122 0 179 166zM238 94h491l160 754h-346l-209 -609q-31 -90 -96 -145z" />
    <glyph glyph-name="afii10070" unicode="&#x435;" horiz-adv-x="951" 
d="M967 445h-674q-15 -72 -15 -120q0 -127 73 -199q61 -61 160 -61q82 0 152 43t111 118h124q-32 -66 -78 -116q-130 -139 -318 -139q-159 0 -251 101q-89 97 -89 266q0 126 40 245.5t112 207.5q145 180 347 180q161 0 246 -95q83 -93 83 -249q0 -80 -23 -182zM865 535
q10 62 10 98q0 109 -57 178q-55 68 -148 68q-120 0 -213.5 -90t-144.5 -254h553z" />
    <glyph glyph-name="afii10072" unicode="&#x436;" horiz-adv-x="1256" 
d="M682 0h-108l96 453h-90l-468 -453h-128l512 501l-284 441h118l258 -405h100l86 405h108l-86 -405h100l429 406h121l-474 -442l299 -501h-119l-274 453h-100z" />
    <glyph glyph-name="afii10073" unicode="&#x437;" horiz-adv-x="866" 
d="M469 541h96q109 0 177 40q93 56 93 153q0 69 -48.5 106t-138.5 37q-112 0 -183 -46.5t-120 -151.5h-122q62 151 183 226q105 66 243 66q139 0 220 -60q82 -59 82 -168q0 -92 -62 -155.5t-180 -94.5q73 -22 108 -57q54 -55 54 -143q0 -106 -74 -193q-108 -129 -320 -129
q-188 0 -277 96q-69 76 -69 190q0 18 3 45h120q-1 -20 -1 -28q0 -91 49 -147q55 -62 171 -62q121 0 202.5 65.5t81.5 163.5q0 153 -206 153h-102z" />
    <glyph glyph-name="afii10074" unicode="&#x438;" horiz-adv-x="1034" 
d="M965 942h113l-201 -942h-112l148 696l-627 -603l-19 -93h-113l200 942h113l-148 -696l625 599z" />
    <glyph glyph-name="afii10075" unicode="&#x439;" horiz-adv-x="1034" 
d="M965 942h113l-201 -942h-112l148 696l-627 -603l-19 -93h-113l200 942h113l-148 -696l625 599zM1007 1365q-8 -84 -36 -139q-66 -134 -215 -134q-96 0 -148 52.5t-52 149.5q0 28 5 71h78q-2 -25 -2 -39q0 -140 127 -140q67 0 104.5 40.5t61.5 138.5h77z" />
    <glyph glyph-name="afii10076" unicode="&#x43a;" horiz-adv-x="928" 
d="M154 0l200 942h113l-87 -405h149l431 406h135l-483 -446l307 -497h-125l-280 453h-151l-97 -453h-112z" />
    <glyph glyph-name="afii10077" unicode="&#x43b;" horiz-adv-x="952" 
d="M520 848l-209 -609q-85 -250 -323 -249l20 94q132 0 192 176l229 682h565l-200 -942h-112l180 848h-342z" />
    <glyph glyph-name="afii10078" unicode="&#x43c;" horiz-adv-x="1224" 
d="M635 136l479 806h161l-200 -942h-106l169 795l-478 -795h-106l-125 795l-169 -795h-106l200 942h155z" />
    <glyph glyph-name="afii10079" unicode="&#x43d;" horiz-adv-x="1034" 
d="M362 447l-96 -447h-112l200 942h113l-86 -401h499l85 401h113l-201 -942h-112l95 447h-498z" />
    <glyph glyph-name="afii10080" unicode="&#x43e;" horiz-adv-x="992" 
d="M690 971q165 0 257 -102q84 -94 84 -257q0 -117 -37.5 -233.5t-104.5 -206.5q-151 -201 -387 -201q-160 0 -250 93q-91 95 -91 263q0 117 36 232t100 203q153 209 393 209zM683 877q-91 0 -171 -50t-138 -141q-99 -157 -99 -357q0 -146 85 -215q60 -49 150 -49
q185 0 303 182q48 74 76 171.5t28 190.5q0 143 -82 215q-61 53 -152 53z" />
    <glyph glyph-name="afii10081" unicode="&#x43f;" horiz-adv-x="1034" 
d="M447 848l-181 -848h-112l200 942h724l-201 -942h-112l180 848h-498z" />
    <glyph glyph-name="afii10082" unicode="&#x440;" horiz-adv-x="1047" 
d="M79 -355l276 1297h104l-35 -166q55 94 144 144.5t199 50.5q151 0 236 -94q87 -96 87 -253q0 -125 -39.5 -250.5t-107.5 -212.5q-146 -190 -364 -190q-108 0 -182 49t-97 136l-108 -511h-113zM751 877q-88 0 -166.5 -48t-133.5 -135q-48 -75 -76 -174.5t-28 -195.5
q0 -141 82 -209q60 -50 148 -50q184 0 301 190q97 159 97 355q0 140 -73 211q-58 56 -151 56z" />
    <glyph glyph-name="afii10083" unicode="&#x441;" horiz-adv-x="919" 
d="M795 302h120q-31 -105 -105 -188q-129 -143 -317 -143q-158 0 -244 94q-86 93 -86 260q0 116 35.5 232t99.5 205q149 209 385 209q138 0 218 -73q47 -44 66 -93t19 -126h-121q-3 74 -30 117q-50 81 -164 81q-180 0 -297 -191q-97 -159 -97 -363q0 -142 77 -209
q56 -49 144 -49q98 0 176.5 62.5t120.5 174.5z" />
    <glyph glyph-name="afii10084" unicode="&#x442;" horiz-adv-x="660" 
d="M567 848l-180 -848h-113l180 848h-278l20 94h669l-20 -94h-278z" />
    <glyph glyph-name="afii10085" unicode="&#x443;" horiz-adv-x="828" 
d="M33 -340l20 96q10 -2 15 -4q32 -9 59 -9q55 0 92 29.5t81 108.5l70 126l-152 935h125l116 -782l428 782h124l-613 -1087q-63 -111 -112 -153q-67 -57 -167 -57q-44 0 -86 15z" />
    <glyph glyph-name="afii10086" unicode="&#x444;" horiz-adv-x="1384" 
d="M935 815q94 156 245 156q94 0 161 -61q93 -86 93 -254q0 -142 -45.5 -289t-118.5 -241q-122 -155 -278 -155q-157 0 -205 156l-104 -482h-103l106 485q-96 -159 -251 -159q-95 0 -162 61q-93 86 -93 254q0 143 45.5 289.5t119.5 240.5q122 155 280 155t199 -165l122 559
h103zM617 883q-111 0 -199 -131q-58 -86 -94.5 -215.5t-36.5 -247.5q0 -106 42 -168t115 -62q106 0 187 109q64 86 104.5 221t40.5 264q0 107 -42.5 168.5t-116.5 61.5zM1170 884q-107 0 -187 -109q-70 -95 -110 -239q-35 -131 -35 -243q0 -110 42 -172t117 -62
q111 0 199 131q58 86 94.5 216t36.5 248t-53 182q-40 48 -104 48z" />
    <glyph glyph-name="afii10087" unicode="&#x445;" horiz-adv-x="855" 
d="M18 0l442 495l-216 447h141l162 -350l318 350h138l-403 -439l238 -503h-141l-185 404l-355 -404h-139z" />
    <glyph glyph-name="afii10088" unicode="&#x446;" horiz-adv-x="1035" 
d="M1078 942l-180 -848h120l-64 -299h-112l43 205h-729l200 942h113l-181 -848h498l180 848h112z" />
    <glyph glyph-name="afii10089" unicode="&#x447;" horiz-adv-x="967" 
d="M792 438q-105 -87 -265 -87q-119 0 -199 49q-105 65 -105 193q0 44 9 85l56 264h119l-54 -256q-10 -47 -10 -80q0 -87 66 -129q50 -32 130 -32q145 0 229 94q60 66 80 159l51 244h113l-201 -942h-112z" />
    <glyph glyph-name="afii10090" unicode="&#x448;" horiz-adv-x="1393" 
d="M778 94h380l180 848h112l-200 -942h-1096l200 942h113l-181 -848h380l180 848h113z" />
    <glyph glyph-name="afii10091" unicode="&#x449;" horiz-adv-x="1413" 
d="M1456 942l-180 -848h119l-63 -299h-113l44 205h-1109l200 942h113l-181 -848h379l180 848h113l-180 -848h379l180 848h119z" />
    <glyph glyph-name="afii10092" unicode="&#x44a;" horiz-adv-x="946" 
d="M268 0l180 848h-291l20 94h403l-81 -381h186q308 0 308 -236q0 -70 -28.5 -133.5t-78.5 -104.5q-105 -87 -290 -87h-328zM479 467l-79 -373h164q138 0 206 42q101 63 101 178q0 82 -50 117.5t-166 35.5h-176z" />
    <glyph glyph-name="afii10093" unicode="&#x44b;" horiz-adv-x="1224" 
d="M962 0l201 942h113l-201 -942h-113zM156 0l200 942h113l-81 -381h171q308 0 308 -236q0 -70 -28.5 -133.5t-78.5 -104.5q-104 -87 -289 -87h-315zM368 467l-80 -373h151q137 0 206 42q100 63 100 178q0 82 -50 117.5t-165 35.5h-162z" />
    <glyph glyph-name="afii10094" unicode="&#x44c;" horiz-adv-x="834" 
d="M156 0l200 942h113l-81 -381h185q308 0 308 -236q0 -70 -28.5 -133.5t-78.5 -104.5q-105 -87 -290 -87h-328zM368 467l-80 -373h165q137 0 205 42q101 63 101 178q0 82 -50 117.5t-165 35.5h-176z" />
    <glyph glyph-name="afii10095" unicode="&#x44d;" horiz-adv-x="919" 
d="M832 541q4 42 4 73q0 140 -73 210q-56 53 -145 53q-184 0 -275 -198h-122q44 108 119 178q122 114 285 114q165 0 252 -102q79 -93 79 -251q0 -121 -36 -240t-99 -206q-146 -201 -384 -201q-160 0 -241 95q-67 79 -67 191q0 18 3 45h120q-1 -20 -1 -29q0 -95 53 -151.5
t142 -56.5q129 0 225 100t144 282h-368l20 94h365z" />
    <glyph glyph-name="afii10096" unicode="&#x44e;" horiz-adv-x="1420" 
d="M599 447h-235l-96 -447h-112l200 942h113l-86 -401h237q35 123 106 220q152 210 392 210q166 0 257 -102q84 -95 84 -258q0 -117 -38 -233.5t-104 -205.5q-151 -201 -387 -201q-160 0 -250 93q-91 94 -91 268q0 57 10 115zM1111 877q-91 0 -171 -50t-138 -142
q-99 -156 -99 -356q0 -147 85 -215q60 -49 150 -49q185 0 303 182q48 74 76 171t28 191q0 143 -82 215q-61 53 -152 53z" />
    <glyph glyph-name="afii10097" unicode="&#x44f;" horiz-adv-x="928" 
d="M406 426q-163 37 -163 202q0 142 105 228q104 86 292 86h328l-200 -942h-112l81 381h-186q-123 0 -179 -43.5t-89 -164.5q-24 -90 -35.5 -119t-31.5 -54h-123q36 38 74 180q35 125 86.5 178t152.5 68zM757 475l79 373h-180q-118 0 -190 -42q-46 -27 -73.5 -75.5
t-27.5 -102.5q0 -82 50 -117.5t165 -35.5h177z" />
    <glyph glyph-name="afii10071" unicode="&#x451;" horiz-adv-x="951" 
d="M806 1106l40 191h122l-40 -191h-122zM494 1106l40 191h115l-41 -191h-114zM967 445h-674q-15 -72 -15 -120q0 -127 73 -199q61 -61 160 -61q82 0 152 43t111 118h124q-32 -66 -78 -116q-130 -139 -318 -139q-159 0 -251 101q-89 97 -89 266q0 126 40 245.5t112 207.5
q145 180 347 180q161 0 246 -95q83 -93 83 -249q0 -80 -23 -182zM865 535q10 62 10 98q0 109 -57 178q-55 68 -148 68q-120 0 -213.5 -90t-144.5 -254h553z" />
    <glyph glyph-name="afii10099" unicode="&#x452;" horiz-adv-x="969" 
d="M266 0h-112l244 1147h-119l19 90h119l27 128h113l-28 -128h261l-20 -90h-260l-75 -353q123 177 296 177q116 0 182 -73q79 -88 79 -247q0 -162 -57 -338.5t-149 -299.5q-129 -173 -310 -173q-36 0 -80 15l19 89q32 -14 61 -14q60 0 121 37.5t107 103.5q77 109 124 265.5
t47 302.5q0 237 -164 237q-125 0 -214 -104t-130 -300z" />
    <glyph glyph-name="afii10100" unicode="&#x453;" horiz-adv-x="749" 
d="M447 848l-181 -848h-112l200 942h590l-20 -94h-477zM942 1365l-236 -273h-103l221 273h118z" />
    <glyph glyph-name="afii10101" unicode="&#x454;" horiz-adv-x="919" 
d="M311 541h371l-20 -94h-374q-11 -66 -11 -126q0 -140 77 -207q56 -49 144 -49q98 0 176.5 62.5t120.5 174.5h120q-31 -105 -105 -188q-129 -143 -317 -143q-158 0 -244 94q-86 93 -86 260q0 116 36 232t99 205q149 209 385 209q138 0 218 -73q47 -44 66 -93t19 -126h-121
q-3 74 -30 117q-50 81 -164 81q-180 0 -297 -192q-39 -63 -63 -144z" />
    <glyph glyph-name="afii10102" unicode="&#x455;" horiz-adv-x="887" 
d="M156 265h118q-1 -18 -1 -31q0 -79 57.5 -124t157.5 -45q105 0 171 51q72 55 72 141q0 55 -28.5 88t-99.5 61l-144 58q-102 41 -149.5 98t-47.5 140q0 130 104 204q90 65 229 65q165 0 255 -82q58 -53 58 -141q0 -12 -2 -35h-118v24q0 66 -51 104t-140 38q-85 0 -145 -37
q-75 -47 -75 -139q0 -95 110 -137l170 -65q189 -72 189 -238q0 -122 -85 -202q-97 -90 -277 -90q-142 0 -231 59q-47 30 -73.5 80.5t-26.5 107.5q0 17 3 47z" />
    <glyph glyph-name="afii10103" unicode="&#x456;" horiz-adv-x="455" 
d="M404 1174l40 191h113l-41 -191h-112zM154 0l200 942h113l-201 -942h-112z" />
    <glyph glyph-name="afii10104" unicode="&#x457;" horiz-adv-x="455" 
d="M154 0l200 942h113l-200 -942h-113zM506 1106l41 191h115l-41 -191h-115zM259 1106l40 191h115l-41 -191h-114z" />
    <glyph glyph-name="afii10105" unicode="&#x458;" horiz-adv-x="475" 
d="M379 942h113l-210 -986q-34 -163 -79 -222q-67 -89 -197 -89q-32 0 -62 8l21 97q24 -6 48 -6q71 0 99.5 38t56.5 170zM428 1174l41 191h113l-41 -191h-113z" />
    <glyph glyph-name="afii10106" unicode="&#x459;" horiz-adv-x="1286" 
d="M846 848h-312l-208 -609q-85 -250 -322 -249l20 94q132 -1 191 176l229 682h534l-81 -381h158q308 0 308 -236q0 -70 -28.5 -133.5t-78.5 -104.5q-104 -87 -289 -87h-301zM877 467l-79 -373h137q137 0 206 42q100 63 100 178q0 82 -50 117.5t-165 35.5h-149z" />
    <glyph glyph-name="afii10107" unicode="&#x45a;" horiz-adv-x="1352" 
d="M850 551l83 391h113l-84 -391h159q308 0 308 -233q0 -68 -28.5 -130t-77.5 -103q-104 -85 -289 -85h-301l97 457h-467l-97 -457h-112l200 942h113l-83 -391h466zM942 457l-77 -363h137q137 0 206 41q99 60 99 172q0 80 -50 115t-166 35h-149z" />
    <glyph glyph-name="afii10108" unicode="&#x45b;" horiz-adv-x="1025" 
d="M417 1237l27 128h113l-28 -128h266l-19 -90h-266l-75 -353q134 177 327 177q134 0 205 -75q55 -58 55 -151q0 -65 -18 -152l-127 -593h-112l118 555q21 100 21 161q0 60 -23 95q-43 66 -145 66q-81 0 -155 -41t-122 -113q-57 -84 -92 -251l-100 -472h-113l244 1147h-116
l19 90h116z" />
    <glyph glyph-name="afii10109" unicode="&#x45c;" horiz-adv-x="928" 
d="M1042 1365l-249 -273h-110l232 273h127zM154 0l200 942h113l-87 -405h149l431 406h135l-483 -446l307 -497h-125l-280 453h-151l-97 -453h-112z" />
    <glyph glyph-name="afii10110" unicode="&#x45e;" horiz-adv-x="828" 
d="M33 -340l20 96q10 -2 15 -4q32 -9 59 -9q55 0 92 29.5t81 108.5l70 126l-152 935h125l116 -782l428 782h124l-613 -1087q-63 -111 -112 -153q-67 -57 -167 -57q-44 0 -86 15zM895 1365q-8 -84 -36 -139q-66 -134 -215 -134q-96 0 -148 52.5t-52 149.5q0 28 5 71h78
q-2 -25 -2 -39q0 -140 127 -140q67 0 104.5 40.5t61.5 138.5h77z" />
    <glyph glyph-name="afii10193" unicode="&#x45f;" horiz-adv-x="1034" 
d="M572 0l-44 -205h-112l44 205h-306l200 942h113l-180 -848h498l180 848h113l-201 -942h-305z" />
    <glyph glyph-name="afii10050" unicode="&#x490;" horiz-adv-x="1003" 
d="M1265 1488l-49 -229h-630l-268 -1259h-122l290 1365h631l26 123h122z" />
    <glyph glyph-name="afii10098" unicode="&#x491;" horiz-adv-x="749" 
d="M967 1051l-43 -203h-477l-181 -848h-112l200 942h478l23 109h112z" />
    <glyph glyph-name="uni0492" unicode="&#x492;" horiz-adv-x="1030" 
d="M385 760l128 605h753l-23 -106h-630l-106 -499h371l-21 -100h-371l-141 -660h-122l140 660h-128l21 100h129z" />
    <glyph glyph-name="uni0493" unicode="&#x493;" horiz-adv-x="749" 
d="M270 546l84 396h590l-20 -94h-477l-64 -302h290l-20 -94h-290l-96 -452h-113l96 452h-123l20 94h123z" />
    <glyph glyph-name="uni0496" unicode="&#x496;" horiz-adv-x="1739" 
d="M1655 0h-54l-375 675h-157l-144 -675h-118l144 675h-151l-662 -675h-145l715 729l-376 636h138l344 -592h157l126 592h118l-126 -592h155l598 592h138l-645 -636l345 -623h120l-66 -311h-122z" />
    <glyph glyph-name="uni0497" unicode="&#x497;" horiz-adv-x="1273" 
d="M1215 94h130l-63 -299h-113l44 205h-61l-274 453h-100l-96 -453h-108l96 453h-90l-468 -453h-128l512 501l-284 441h118l258 -405h100l86 405h108l-86 -405h100l429 405h121l-474 -441z" />
    <glyph glyph-name="uni049A" unicode="&#x49a;" horiz-adv-x="1153" 
d="M1072 106h117l-66 -311h-122l43 205h-55l-356 700l-203 -177l-112 -523h-122l290 1365h123l-147 -691l792 691h140l-665 -580z" />
    <glyph glyph-name="uni049B" unicode="&#x49b;" horiz-adv-x="949" 
d="M862 94h120l-63 -299h-113l44 205h-56l-280 453h-151l-97 -453h-112l200 942h113l-87 -405h149l431 405h135l-483 -445z" />
    <glyph glyph-name="uni049C" unicode="&#x49c;" horiz-adv-x="1288" 
d="M724 773h75l599 592h138l-646 -636l405 -729h-139l-375 675h-77l-71 -333h-109l70 333h-136l-144 -675h-118l290 1365h119l-126 -592h136l71 334h109z" />
    <glyph glyph-name="uni049D" unicode="&#x49d;" horiz-adv-x="997" 
d="M485 537l51 237h95l-50 -237h56l429 406h121l-474 -442l298 -501h-118l-274 453h-56l-51 -242h-96l52 242h-110l-96 -453h-108l200 942h108l-86 -405h109z" />
    <glyph glyph-name="uni04A2" unicode="&#x4a2;" horiz-adv-x="1306" 
d="M196 0l290 1365h123l-127 -596h667l127 596h122l-268 -1259h123l-66 -311h-123l44 205h-123l141 663h-667l-141 -663h-122z" />
    <glyph glyph-name="uni04A3" unicode="&#x4a3;" horiz-adv-x="1034" 
d="M362 447l-96 -447h-112l200 942h113l-86 -401h499l85 401h113l-181 -848h120l-64 -299h-112l43 205h-119l95 447h-498z" />
    <glyph glyph-name="uni04AE" unicode="&#x4ae;" 
d="M453 0l120 565l-280 800h137l228 -682l517 682h139l-619 -800l-120 -565h-122z" />
    <glyph glyph-name="uni04AF" unicode="&#x4af;" horiz-adv-x="828" 
d="M482 5l-76 -360h-113l77 361l-152 936h125l109 -809l435 809h124z" />
    <glyph glyph-name="uni04B0" unicode="&#x4b0;" 
d="M552 466h-241l21 100h241l-280 799h137l228 -681l517 681h139l-619 -799h259l-21 -100h-259l-99 -466h-122z" />
    <glyph glyph-name="uni04B1" unicode="&#x4b1;" horiz-adv-x="828" 
d="M462 -89l-56 -266h-113l57 266h-249l20 94h249l-152 937h125l109 -809l435 809h124l-529 -937h261l-20 -94h-261z" />
    <glyph glyph-name="uni04B2" unicode="&#x4b2;" horiz-adv-x="1034" 
d="M954 106h118l-67 -311h-122l43 205h-69l-214 598l-474 -598h-138l564 702l-249 663h135l199 -565l448 565h134l-532 -663z" />
    <glyph glyph-name="uni04B3" unicode="&#x4b3;" horiz-adv-x="871" 
d="M793 94h114l-64 -299h-112l43 205h-77l-185 404l-355 -404h-139l442 495l-216 447h141l162 -350l318 350h138l-403 -440z" />
    <glyph glyph-name="uni04B8" unicode="&#x4b8;" horiz-adv-x="1256" 
d="M768 497l-60 -281h-109l60 282q-108 13 -180 55q-147 86 -147 248q0 73 21 173l83 391h123l-84 -396q-20 -92 -20 -146q0 -126 108 -184q50 -27 118 -35l58 272h109l-57 -271q147 18 234 115.5t128 293.5l75 351h122l-290 -1365h-122l133 628q-53 -54 -134.5 -89
t-168.5 -42z" />
    <glyph glyph-name="uni04B9" unicode="&#x4b9;" horiz-adv-x="967" 
d="M572 353l-43 -204h-96l44 205q-62 5 -115 29q-139 61 -139 210q0 44 9 85l56 264h119l-54 -257q-10 -46 -10 -80q0 -136 154 -157l44 210h96l-45 -209q99 13 166 79t90 170l51 244h113l-201 -942h-112l93 438q-86 -72 -220 -85z" />
    <glyph glyph-name="uni04BA" unicode="&#x4ba;" horiz-adv-x="1218" 
d="M475 737q62 63 156 98t198 35q178 0 288 -93q98 -82 98 -214q0 -69 -22 -172l-83 -391h-123l85 396q20 95 20 146q0 90 -59 148q-75 74 -217 74q-109 0 -197 -46t-141 -131q-53 -87 -85 -236l-75 -351h-122l290 1365h123z" />
    <glyph glyph-name="uni04BB" unicode="&#x4bb;" 
d="M156 0l290 1365h113l-122 -571q134 177 327 177q135 0 205 -75q55 -58 55 -151q0 -65 -18 -152l-127 -593h-112l118 555q21 100 21 161q0 60 -23 95q-43 66 -145 66q-81 0 -155 -41t-122 -113q-57 -84 -92 -251l-100 -472h-113z" />
    <glyph glyph-name="uni04C0" unicode="&#x4c0;" horiz-adv-x="514" 
d="M196 0l290 1365h123l-291 -1365h-122z" />
    <glyph glyph-name="uni04D8" unicode="&#x4d8;" horiz-adv-x="1319" 
d="M440 1121q177 275 480 275q214 0 332 -135q56 -65 88.5 -165.5t32.5 -209.5q0 -157 -46 -316t-127 -284q-100 -152 -234 -235q-136 -84 -292 -84q-222 0 -340 164q-99 136 -99 346q0 119 32 258h967q13 80 13 156q0 98 -27 181.5t-75 132.5q-84 85 -236 85
q-217 0 -315 -169h-154zM1212 629h-837q-14 -99 -14 -173q0 -183 97 -290q84 -92 214 -92q180 0 328.5 152.5t211.5 402.5z" />
    <glyph glyph-name="afii10846" unicode="&#x4d9;" horiz-adv-x="951" 
d="M185 497h675q14 72 14 120q0 126 -73 199q-61 61 -165 61q-65 0 -128.5 -28t-100.5 -72h-125q56 89 154.5 141.5t210.5 52.5q162 0 254 -101q89 -98 89 -267q0 -125 -40 -244.5t-111 -207.5q-146 -180 -348 -180q-161 0 -246 95q-83 93 -83 249q0 79 23 182zM287 407
q-10 -61 -10 -98q0 -109 57 -178q55 -68 148 -68q120 0 213.5 90t144.5 254h-553z" />
    <glyph glyph-name="uni04E8" unicode="&#x4e8;" horiz-adv-x="1319" 
d="M397 735h837q13 80 13 155q0 98 -26.5 181t-74.5 133q-82 86 -212 86q-144 0 -276 -108q-179 -147 -261 -447zM1212 629h-837q-14 -99 -14 -173q0 -183 97 -290q84 -92 214 -92q180 0 328.5 152.5t211.5 402.5zM933 1396q198 0 318 -136q57 -64 89.5 -164t32.5 -210
q0 -157 -46 -316t-127 -284q-100 -153 -234 -235q-136 -84 -292 -84q-222 0 -340 164q-99 136 -99 335q0 211 77 418q91 245 274 388q159 124 347 124z" />
    <glyph glyph-name="uni04E9" unicode="&#x4e9;" horiz-adv-x="992" 
d="M300 518h612q8 44 8 87q0 149 -83 221q-62 53 -154 53q-130 0 -232 -96t-151 -265zM892 424h-612q-8 -58 -8 -99q0 -143 87 -213q60 -49 150 -49q132 0 232.5 94.5t150.5 266.5zM690 971q165 0 257 -102q84 -94 84 -257q0 -117 -37.5 -233.5t-104.5 -206.5
q-151 -201 -387 -201q-160 0 -250 93q-91 95 -91 263q0 117 36 232t100 203q153 209 393 209z" />
    <glyph glyph-name="Wgrave" unicode="&#x1e80;" horiz-adv-x="1527" 
d="M350 0l-24 1365h124l10 -1172l525 1172h135l30 -1172l509 1172h121l-605 -1365h-129l-32 1183l-535 -1183h-129zM904 1737h126l126 -258h-105z" />
    <glyph glyph-name="wgrave" unicode="&#x1e81;" horiz-adv-x="1332" 
d="M695 1365h125l115 -273h-109zM329 0l-84 942h128l57 -782l373 782h130l43 -780l388 780h122l-483 -942h-127l-46 770l-371 -770h-130z" />
    <glyph glyph-name="Wacute" unicode="&#x1e82;" horiz-adv-x="1527" 
d="M350 0l-24 1365h124l10 -1172l525 1172h135l30 -1172l509 1172h121l-605 -1365h-129l-32 1183l-535 -1183h-129zM1338 1737l-257 -258h-105l235 258h127z" />
    <glyph glyph-name="wacute" unicode="&#x1e83;" horiz-adv-x="1332" 
d="M329 0l-84 942h128l57 -782l373 782h130l43 -780l388 780h122l-483 -942h-127l-46 770l-371 -770h-130zM1117 1365l-236 -273h-103l221 273h118z" />
    <glyph glyph-name="Wdieresis" unicode="&#x1e84;" horiz-adv-x="1527" 
d="M350 0l-24 1365h124l10 -1172l525 1172h135l30 -1172l509 1172h121l-605 -1365h-129l-32 1183l-535 -1183h-129zM1165 1488l41 191h118l-40 -191h-119zM847 1488l41 191h118l-40 -191h-119z" />
    <glyph glyph-name="wdieresis" unicode="&#x1e85;" horiz-adv-x="1332" 
d="M329 0l-84 942h128l57 -782l373 782h130l43 -780l388 780h122l-483 -942h-127l-46 770l-371 -770h-130zM986 1106l40 191h115l-41 -191h-114zM691 1106l41 191h114l-40 -191h-115z" />
    <glyph glyph-name="uni1E9E" unicode="&#x1e9e;" horiz-adv-x="1161" 
d="M821 763q146 -6 218 -45q131 -71 131 -237q0 -207 -157 -347q-151 -134 -395 -134q-129 0 -229 39l89 92q75 -25 147 -25q190 0 293 84q58 46 91 117t33 149q0 107 -89 161q-69 41 -240 41h-77l14 70l460 531h-260q-135 0 -228 -70t-119 -191l-212 -998h-123l213 1002
q32 151 151 250q138 113 317 113h418l-24 -112z" />
    <glyph glyph-name="Ygrave" unicode="&#x1ef2;" 
d="M453 0l120 565l-280 800h137l228 -682l517 682h139l-619 -800l-120 -565h-122zM626 1737h126l126 -258h-105z" />
    <glyph glyph-name="ygrave" unicode="&#x1ef3;" horiz-adv-x="828" 
d="M445 1365h126l114 -273h-109zM33 -340l20 96q10 -2 15 -4q32 -9 59 -9q55 0 92 29.5t81 108.5l70 126l-152 935h125l116 -782l428 782h124l-613 -1087q-63 -111 -112 -153q-67 -57 -167 -57q-44 0 -86 15z" />
    <glyph glyph-name="uni2000" unicode="&#x2000;" horiz-adv-x="1339" 
 />
    <glyph glyph-name="uni2001" unicode="&#x2001;" horiz-adv-x="2671" 
 />
    <glyph glyph-name="uni2002" unicode="&#x2002;" horiz-adv-x="1339" 
 />
    <glyph glyph-name="uni2003" unicode="&#x2003;" horiz-adv-x="2671" 
 />
    <glyph glyph-name="uni2004" unicode="&#x2004;" horiz-adv-x="896" 
 />
    <glyph glyph-name="uni2005" unicode="&#x2005;" horiz-adv-x="674" 
 />
    <glyph glyph-name="uni2006" unicode="&#x2006;" horiz-adv-x="452" 
 />
    <glyph glyph-name="uni2007" unicode="&#x2007;" horiz-adv-x="1475" 
 />
    <glyph glyph-name="uni2008" unicode="&#x2008;" horiz-adv-x="722" 
 />
    <glyph glyph-name="uni2009" unicode="&#x2009;" horiz-adv-x="541" 
 />
    <glyph glyph-name="uni200A" unicode="&#x200a;" horiz-adv-x="275" 
 />
    <glyph glyph-name="uni200B" unicode="&#x200b;" horiz-adv-x="8" 
 />
    <glyph glyph-name="uni2010" unicode="&#x2010;" horiz-adv-x="416" 
d="M520 560l-22 -106h-387l23 106h386z" />
    <glyph glyph-name="uni2011" unicode="&#x2011;" horiz-adv-x="416" 
d="M520 560l-22 -106h-387l23 106h386z" />
    <glyph glyph-name="figuredash" unicode="&#x2012;" horiz-adv-x="1046" 
d="M1004 560l-22 -106h-725l23 106h724z" />
    <glyph glyph-name="afii00208" unicode="&#x2015;" horiz-adv-x="1520" 
d="M1459 560l-23 -106h-1152l23 106h1152z" />
    <glyph glyph-name="quotereversed" unicode="&#x201b;" horiz-adv-x="523" 
 />
    <glyph glyph-name="uni203E" unicode="&#x203e;" horiz-adv-x="1073" 
d="M428 1580h888l-23 -105h-887z" />
    <glyph glyph-name="zerosuperior" unicode="&#x2070;" horiz-adv-x="663" 
d="M632 1381q98 0 152.5 -64.5t54.5 -179.5q0 -88 -26.5 -200.5t-67.5 -198.5q-100 -209 -280 -209q-102 0 -157.5 63t-55.5 179q0 83 26.5 195t66.5 197q102 218 287 218zM626 1302q-66 0 -113 -43.5t-87 -141.5q-76 -186 -76 -353q0 -156 123 -156q120 0 193 179
q75 184 75 350q0 78 -30 121.5t-85 43.5z" />
    <glyph glyph-name="foursuperior" unicode="&#x2074;" horiz-adv-x="561" 
d="M460 546l50 216h-332l19 80l463 523h80l-123 -525h109l-18 -78h-109l-50 -216h-89zM528 840l83 354l-317 -354h234z" />
    <glyph glyph-name="fivesuperior" unicode="&#x2075;" horiz-adv-x="621" 
d="M444 1365h387l-19 -82h-313l-96 -230q73 46 147 46q88 0 139 -49q60 -58 60 -163q0 -150 -107 -261q-93 -96 -221 -96q-104 0 -162 50q-57 51 -57 127q0 15 8 53h91q-4 -33 -4 -45q0 -48 33.5 -77t89.5 -29q99 0 169 97q60 83 60 183q0 131 -129 131q-90 0 -170 -94
l-78 12z" />
    <glyph glyph-name="sixsuperior" unicode="&#x2076;" horiz-adv-x="657" 
d="M835 1180h-93q1 17 1 26q0 96 -99 96q-158 0 -258 -299q87 85 190 85q94 0 150.5 -58t56.5 -155q0 -140 -93 -243t-219 -103q-102 0 -162 60q-59 58 -59 157q0 107 40 246.5t95 225.5q105 163 264 163q86 0 137 -44.5t51 -119.5q0 -12 -2 -37zM563 1010q-103 0 -170 -103
q-49 -74 -49 -159q0 -65 34 -102.5t93 -37.5q98 0 163 101q50 78 50 166q0 62 -33 98.5t-88 36.5z" />
    <glyph glyph-name="sevensuperior" unicode="&#x2077;" horiz-adv-x="554" 
d="M351 546h-98q94 418 444 735h-373l20 84h490l-18 -78l-14 -12q-178 -158 -286 -333t-165 -396z" />
    <glyph glyph-name="eightsuperior" unicode="&#x2078;" horiz-adv-x="654" 
d="M435 1004q-79 47 -79 147t73 165t185 65q98 0 158.5 -49t60.5 -129q0 -76 -40.5 -132.5t-111.5 -78.5q89 -56 89 -171q0 -114 -80 -202q-81 -90 -223 -90q-109 0 -171.5 54.5t-62.5 149.5q0 93 55 166.5t147 104.5zM614 1302q-80 0 -125 -51q-40 -46 -40 -106
q0 -51 33.5 -80.5t91.5 -29.5q70 0 116.5 46t46.5 116q0 48 -33 76.5t-90 28.5zM541 956q-98 0 -159 -74q-50 -62 -50 -140q0 -64 36.5 -101t100.5 -37q87 0 145.5 63.5t58.5 157.5q0 62 -35 96.5t-97 34.5z" />
    <glyph glyph-name="ninesuperior" unicode="&#x2079;" horiz-adv-x="657" 
d="M249 731h93q-1 -24 -1 -28q0 -44 26.5 -69.5t72.5 -25.5q158 0 258 300q-87 -85 -190 -85q-94 0 -150.5 57.5t-56.5 154.5q0 140 93 243t219 103q102 0 162 -59q59 -59 59 -158q0 -106 -40 -245.5t-95 -225.5q-105 -164 -264 -164q-86 0 -137 44.5t-51 120.5q0 11 2 37z
M612 1302q-97 0 -162 -101q-50 -78 -50 -166q0 -61 32.5 -97.5t88.5 -36.5q102 0 170 103q49 74 49 158q0 65 -34 102.5t-94 37.5z" />
    <glyph glyph-name="parenleftsuperior" unicode="&#x207d;" horiz-adv-x="430" 
d="M620 1377q-10 -13 -31 -40q-109 -137 -174 -319.5t-65 -351.5q0 -155 52 -315h-81q-57 182 -57 325q0 175 69 354t196 334l11 13h80z" />
    <glyph glyph-name="parenrightsuperior" unicode="&#x207e;" horiz-adv-x="430" 
d="M177 351q9 12 31 39q110 140 174.5 321.5t64.5 350.5q0 145 -52 315h80q58 -186 58 -325q0 -179 -71.5 -360t-204.5 -341h-80z" />
    <glyph glyph-name="nsuperior" unicode="&#x207f;" horiz-adv-x="706" 
d="M246 546l122 573h88l-13 -62q80 79 183 79q71 0 112.5 -38t41.5 -103q0 -37 -12 -91l-76 -358h-88l71 335q13 62 13 94q0 83 -90 83q-94 0 -150 -83q-32 -46 -52 -142l-61 -287h-89z" />
    <glyph glyph-name="zeroinferior" unicode="&#x2080;" horiz-adv-x="688" 
d="M529 835q98 0 152.5 -64.5t54.5 -179.5q0 -88 -26.5 -200.5t-67.5 -198.5q-100 -209 -280 -209q-102 0 -157.5 63t-55.5 179q0 83 26.5 195t66.5 197q102 218 287 218zM523 756q-66 0 -113 -43.5t-87 -141.5q-76 -186 -76 -353q0 -156 123 -156q120 0 193 179
q75 184 75 350q0 78 -30 121.5t-85 43.5z" />
    <glyph glyph-name="oneinferior" unicode="&#x2081;" horiz-adv-x="480" 
d="M200 0l135 633q-32 -21 -57.5 -27t-89.5 -8l16 75q143 -1 188 146h74l-174 -819h-92z" />
    <glyph glyph-name="twoinferior" unicode="&#x2082;" horiz-adv-x="651" 
d="M578 82l-19 -82h-493q18 80 42 129q63 129 243 227q102 57 135.5 80t67.5 61q60 68 60 142q0 118 -142 118q-108 0 -149 -82q-13 -26 -21 -80h-98q15 85 37 123q68 119 238 119q118 0 182 -62q52 -50 52 -129q0 -113 -103 -212q-37 -36 -71 -58t-161 -94
q-150 -84 -186 -200h386z" />
    <glyph glyph-name="threeinferior" unicode="&#x2083;" horiz-adv-x="628" 
d="M98 247h91q-10 -44 -10 -67q0 -54 38 -86t103 -32q99 0 156 70q48 59 48 131q0 63 -37.5 98.5t-104.5 35.5q-8 0 -47 -2l19 80q23 -1 33 -1q93 0 147.5 45t54.5 123q0 54 -36 84t-100 30q-143 0 -165 -156h-90q32 235 261 235q105 0 167 -52t62 -140q0 -151 -162 -208
q98 -54 98 -170q0 -119 -79 -196q-89 -86 -230 -86q-111 0 -175 58q-56 51 -56 131q0 32 14 75z" />
    <glyph glyph-name="fourinferior" unicode="&#x2084;" horiz-adv-x="561" 
d="M335 0l50 216h-332l19 80l463 523h80l-123 -525h109l-18 -78h-109l-50 -216h-89zM403 294l83 354l-317 -354h234z" />
    <glyph glyph-name="fiveinferior" unicode="&#x2085;" horiz-adv-x="639" 
d="M329 819h387l-19 -82h-313l-96 -230q73 46 147 46q89 0 140 -50q60 -57 60 -162q0 -150 -107 -261q-94 -97 -222 -97q-103 0 -161 51q-58 50 -58 126q0 16 8 54h91q-4 -33 -4 -45q0 -49 33.5 -78t89.5 -29q100 0 170 97q60 83 60 183q0 132 -129 132q-91 0 -171 -94
l-78 12z" />
    <glyph glyph-name="sixinferior" unicode="&#x2086;" horiz-adv-x="657" 
d="M704 634h-93q1 18 1 26q0 97 -99 97q-158 0 -258 -300q88 85 190 85q94 0 150.5 -58t56.5 -155q0 -140 -93 -243t-219 -103q-102 0 -162 60q-59 59 -59 158q0 106 40 245.5t95 225.5q104 164 264 164q86 0 137 -44.5t51 -120.5q0 -10 -2 -37zM432 464q-103 0 -170 -103
q-49 -74 -49 -159q0 -65 34 -102.5t93 -37.5q98 0 163 101q50 78 50 166q0 62 -32.5 98.5t-88.5 36.5z" />
    <glyph glyph-name="seveninferior" unicode="&#x2087;" horiz-adv-x="554" 
d="M232 0h-98q94 417 444 735h-373l20 84h490l-18 -78l-14 -12q-178 -158 -286 -333t-165 -396z" />
    <glyph glyph-name="eightinferior" unicode="&#x2088;" horiz-adv-x="666" 
d="M316 458q-79 47 -79 147t73 165t185 65q98 0 158.5 -49t60.5 -129q0 -76 -40.5 -132.5t-111.5 -78.5q89 -56 89 -171q0 -114 -80 -202q-81 -90 -223 -90q-109 0 -171.5 54.5t-62.5 149.5q0 93 55 166.5t147 104.5zM495 756q-80 0 -125 -51q-40 -46 -40 -106
q0 -51 33.5 -80.5t91.5 -29.5q70 0 116.5 46t46.5 116q0 49 -33 77t-90 28zM422 410q-98 0 -159 -74q-50 -62 -50 -140q0 -64 36.5 -101t100.5 -37q87 0 145.5 63.5t58.5 157.5q0 62 -35 96.5t-97 34.5z" />
    <glyph glyph-name="nineinferior" unicode="&#x2089;" horiz-adv-x="671" 
d="M138 185h93q-1 -24 -1 -28q0 -44 26.5 -69.5t72.5 -25.5q158 0 258 300q-87 -85 -190 -85q-94 0 -150.5 57.5t-56.5 154.5q0 141 92.5 244t219.5 103q102 0 162 -60q59 -59 59 -157q0 -107 -40 -246.5t-95 -225.5q-105 -164 -264 -164q-86 0 -137 44.5t-51 120.5
q0 11 2 37zM501 757q-97 0 -162 -101q-50 -78 -50 -166q0 -62 32.5 -98.5t88.5 -36.5q102 0 170 103q49 74 49 159q0 65 -34 102.5t-94 37.5z" />
    <glyph glyph-name="franc" unicode="&#x20a3;" horiz-adv-x="1235" 
d="M173 0l290 1365h728l-22 -101h-609l-92 -435h404l-22 -101h-404l-155 -728h-118zM832 0l176 829h107l-44 -204q132 233 362 233l-26 -118h-21q-137 0 -238 -109q-53 -58 -83 -132.5t-63 -225.5l-58 -273h-112z" />
    <glyph glyph-name="lira" unicode="&#x20a4;" horiz-adv-x="867" 
d="M482 364q-64 -118 -187 -222q84 52 141 52q33 0 56.5 -12.5t76.5 -57.5q47 -40 91 -40q95 0 139 151h107q-34 -129 -101 -196.5t-161 -67.5q-44 0 -73.5 12t-78.5 49q-64 48 -115 48q-46 0 -94 -20t-134 -74l-36 77q173 129 253 301h-175l22 100h187q10 43 12 91h-180
l21 100h148q-8 31 -43 137q-32 98 -32 194q0 181 113 294q112 112 297 112q154 0 245 -76.5t91 -205.5q0 -39 -11 -97h-117q9 47 9 79q0 203 -221 203q-158 0 -235 -118q-46 -71 -46 -182q0 -67 37 -179q40 -122 47 -161h296l-21 -100h-271q-5 -47 -17 -91h268l-21 -100
h-287z" />
    <glyph glyph-name="peseta" unicode="&#x20a7;" horiz-adv-x="1977" 
d="M1151 682l16 76h114l31 144l96 99h16l-52 -243h137l-17 -76h-136l-104 -490q-14 -65 -14 -88q0 -49 61 -49q25 0 62 9l-16 -76q-37 -13 -71 -13q-62 0 -96 26.5t-34 74.5q0 36 19 125l102 481h-114zM194 0l290 1365h344q222 0 319 -96q85 -84 85 -215q0 -103 -41 -195.5
t-113 -155.5q-141 -121 -426 -121h-212l-124 -582h-122zM463 688h222q111 0 181.5 20t123.5 67q52 47 83 117.5t31 142.5q0 118 -75 171t-241 53h-204zM1421 209h96q-1 -14 -1 -25q0 -64 46 -100.5t128 -36.5q85 0 138 41q58 45 58 115q0 44 -23 71t-80 49l-116 47
q-160 64 -160 192q0 98 74.5 158t194.5 60q115 0 184 -49t69 -130q0 -13 -1 -30h-96q1 58 -22 86q-39 48 -133 48q-80 0 -128.5 -38.5t-48.5 -103.5q0 -77 89 -111l137 -52q153 -59 153 -193q0 -108 -79.5 -172t-212.5 -64q-115 0 -187 48q-81 53 -81 152q0 14 2 38z" />
    <glyph glyph-name="uni2101" unicode="&#x2101;" horiz-adv-x="1643" 
d="M594 1365h94l98 -819h-102l-26 250h-281l-134 -250h-99zM422 881h227l-37 355zM613 0h-97l878 1365h94zM1028 232h101v-26q0 -67 49 -105.5t135 -38.5q90 0 146 43q62 48 62 121q0 47 -24 75t-86 52l-123 50q-87 35 -127.5 83.5t-40.5 119.5q0 104 78.5 167.5t205.5 63.5
q122 0 195 -52t73 -139q0 -11 -1 -30h-102v20q0 57 -43.5 89.5t-119.5 32.5q-85 0 -136.5 -41t-51.5 -109q0 -82 94 -118l145 -56q162 -62 162 -204q0 -114 -84 -181.5t-226 -67.5q-121 0 -198 50q-85 56 -85 161q0 15 2 40z" />
    <glyph glyph-name="estimated" unicode="&#x212e;" horiz-adv-x="951" 
d="M967 445h-674q-15 -72 -15 -120q0 -127 73 -199q61 -61 160 -61q82 0 152 43t111 118h124q-32 -66 -78 -116q-130 -139 -318 -139q-159 0 -251 101q-89 97 -89 266q0 126 40 245.5t112 207.5q145 180 347 180q161 0 246 -95q83 -93 83 -249q0 -80 -23 -182zM865 535
q10 62 10 98q0 109 -57 178q-55 68 -148 68q-120 0 -213.5 -90t-144.5 -254h553z" />
    <glyph glyph-name="onethird" unicode="&#x2153;" horiz-adv-x="1338" 
d="M303 546l134 633q-32 -21 -58 -27t-89 -8l16 75q142 -1 189 146h74l-175 -819h-91zM314 0h-103l913 1365h100zM799 247h91q-10 -44 -10 -67q0 -54 38 -86t103 -32q99 0 156 70q48 59 48 131q0 63 -37.5 98.5t-104.5 35.5q-8 0 -47 -2l19 80q22 -1 33 -1q93 0 147.5 45
t54.5 123q0 54 -36 84t-100 30q-144 0 -165 -156h-91q33 235 262 235q105 0 167 -52t62 -140q0 -151 -162 -208q98 -54 98 -170q0 -119 -79 -196q-89 -86 -230 -86q-111 0 -175 58q-56 51 -56 131q0 31 14 75z" />
    <glyph glyph-name="twothirds" unicode="&#x2154;" horiz-adv-x="1456" 
d="M471 0h-102l913 1365h99zM956 247h91q-10 -43 -10 -67q0 -54 38 -86t103 -32q99 0 156 70q48 59 48 131q0 63 -37.5 98.5t-103.5 35.5q-9 0 -47 -2l18 80q23 -1 34 -1q93 0 147 45t54 123q0 54 -36 84t-100 30q-143 0 -165 -156h-90q32 235 262 235q104 0 166 -52
t62 -140q0 -152 -161 -208q97 -54 97 -170q0 -119 -79 -196q-89 -86 -230 -86q-111 0 -175 58q-56 51 -56 131q0 33 14 75zM671 628l-19 -82h-493q18 81 42 129q63 129 243 227q102 57 135.5 80t67.5 61q60 68 60 142q0 118 -142 118q-108 0 -149 -82q-13 -26 -21 -80h-98
q15 85 37 123q68 119 238 119q118 0 182 -62q52 -50 52 -129q0 -113 -103 -212q-37 -36 -71 -58.5t-161 -93.5q-150 -84 -186 -200h386z" />
    <glyph glyph-name="oneeighth" unicode="&#x215b;" horiz-adv-x="1310" 
d="M302 546l135 633q-32 -21 -58.5 -27t-89.5 -8l16 75q143 -1 189 146h74l-174 -819h-92zM319 0h-103l913 1365h100zM972 458q-80 47 -80 147t73 165t186 65q98 0 158.5 -49t60.5 -129q0 -77 -40.5 -133t-112.5 -78q90 -56 90 -171q0 -114 -80 -202q-81 -90 -223 -90
q-109 0 -171.5 54.5t-62.5 149.5q0 93 55 166.5t147 104.5zM1151 756q-81 0 -126 -51q-40 -46 -40 -106q0 -51 33.5 -80.5t91.5 -29.5q71 0 117.5 46t46.5 116q0 48 -33 76.5t-90 28.5zM1078 410q-99 0 -159 -74q-50 -62 -50 -140q0 -64 36.5 -101t100.5 -37
q87 0 145.5 63.5t58.5 157.5q0 62 -35 96.5t-97 34.5z" />
    <glyph glyph-name="threeeighths" unicode="&#x215c;" horiz-adv-x="1396" 
d="M438 0h-103l914 1365h99zM1069 458q-80 47 -80 147t73 165t186 65q98 0 158.5 -49t60.5 -129q0 -77 -40.5 -133t-112.5 -78q90 -56 90 -171q0 -114 -80 -202q-81 -90 -224 -90q-109 0 -171.5 54.5t-62.5 149.5q0 93 55 166.5t148 104.5zM1248 756q-81 0 -126 -51
q-40 -46 -40 -106q0 -51 33.5 -80.5t91.5 -29.5q71 0 117.5 46t46.5 116q0 48 -33 76.5t-90 28.5zM1175 410q-99 0 -159 -74q-51 -62 -51 -140q0 -64 36.5 -101t101.5 -37q87 0 145.5 63.5t58.5 157.5q0 62 -35 96.5t-97 34.5zM215 793h91q-10 -44 -10 -67q0 -54 38 -86
t103 -32q99 0 156 70q48 59 48 131q0 63 -37.5 99t-104.5 36q-11 0 -47 -3l19 80h17h16q93 0 147.5 45t54.5 122q0 54 -36 84t-100 30q-143 0 -165 -156h-90q32 235 261 235q105 0 167 -52t62 -139q0 -153 -162 -209q98 -54 98 -170q0 -119 -79 -196q-89 -86 -230 -86
q-111 0 -175 58q-56 51 -56 131q0 32 14 75z" />
    <glyph glyph-name="fiveeighths" unicode="&#x215d;" horiz-adv-x="1371" 
d="M412 0h-103l914 1365h99zM1046 458q-80 47 -80 147t73 165t186 65q98 0 158.5 -49t60.5 -129q0 -77 -40.5 -133t-112.5 -78q90 -56 90 -171q0 -114 -80 -202q-81 -90 -223 -90q-109 0 -171.5 54.5t-62.5 149.5q0 92 55 166t147 105zM1225 756q-81 0 -126 -51
q-40 -46 -40 -106q0 -51 33.5 -80.5t91.5 -29.5q71 0 117.5 46t46.5 116q0 48 -33 76.5t-90 28.5zM1152 410q-98 0 -159 -74q-50 -62 -50 -140q0 -64 36.5 -101t100.5 -37q87 0 145.5 63.5t58.5 157.5q0 62 -35 96.5t-97 34.5zM443 1365h387l-19 -82h-313l-96 -230
q73 46 147 46q89 0 140 -49q60 -58 60 -163q0 -150 -107 -261q-93 -96 -222 -96q-104 0 -161 50q-58 51 -58 127q0 15 8 53h91q-4 -33 -4 -45q0 -48 33.5 -77t89.5 -29q100 0 170 97q60 83 60 183q0 131 -129 131q-91 0 -171 -94l-78 12z" />
    <glyph glyph-name="seveneighths" unicode="&#x215e;" horiz-adv-x="1248" 
d="M241 0h-103l913 1365h100zM920 458q-79 47 -79 147t73 165t185 65q98 0 158.5 -49t60.5 -129q0 -76 -40.5 -132.5t-111.5 -78.5q90 -56 90 -171q0 -114 -80 -202q-81 -90 -224 -90q-109 0 -171.5 54.5t-62.5 149.5q0 93 55 166.5t147 104.5zM1099 756q-80 0 -125 -51
q-40 -46 -40 -106q0 -51 33.5 -80.5t91.5 -29.5q70 0 116.5 46t46.5 116q0 49 -33 77t-90 28zM1027 410q-99 0 -159 -74q-51 -62 -51 -140q0 -64 36.5 -101t101.5 -37q87 0 145.5 63.5t58.5 157.5q0 62 -35 96.5t-97 34.5zM333 546h-98q94 418 444 735h-373l19 84h491
l-19 -78l-13 -12q-178 -158 -286 -333t-165 -396z" />
    <glyph glyph-name="minus" unicode="&#x2212;" horiz-adv-x="1073" 
d="M250 742h888l-23 -105h-887z" />
    <glyph glyph-name="fraction005" unicode="&#x2215;" horiz-adv-x="645" 
d="M107 0h-103l913 1365h100z" />
    <glyph glyph-name="periodcentered" unicode="&#x2219;" horiz-adv-x="484" 
d="M439 608l-44 -205h-135l44 205h135z" />
    <glyph glyph-name="uni2236" unicode="&#x2236;" horiz-adv-x="866" 
d="M455 528q40 0 68 -28t28 -68t-28 -68.5t-68 -28.5q-41 0 -69 28.5t-28 69.5q0 39 28.5 67t68.5 28zM567 1059q41 0 69 -28t28 -68t-28 -68.5t-69 -28.5q-40 0 -68 28.5t-28 69.5q0 39 28.5 67t67.5 28z" />
    <glyph glyph-name="dotmath" unicode="&#x22c5;" horiz-adv-x="484" 
d="M439 608l-44 -205h-135l44 205h135z" />
    <glyph glyph-name="one.fitted" unicode="&#xe001;" horiz-adv-x="942" 
d="M459 0l234 1100q-52 -44 -95 -58t-132 -17l19 93q126 5 196 75q47 47 96 172h91l-290 -1365h-119z" />
    <glyph glyph-name="two.fitted" unicode="&#xe002;" horiz-adv-x="985" 
d="M867 106l-22 -106h-732q44 211 150 345q62 79 134 133.5t284 183.5q128 78 203.5 190.5t75.5 224.5q0 118 -82 175q-60 41 -155 41q-144 0 -223 -109q-39 -54 -56 -168h-118q16 102 40 160t69 105q110 115 298 115q177 0 272 -100q76 -82 76 -209q0 -187 -155 -351
q-57 -61 -108.5 -98t-249.5 -160q-131 -81 -201.5 -168t-98.5 -204h599z" />
    <glyph glyph-name="three.fitted" unicode="&#xe003;" horiz-adv-x="975" 
d="M163 389h109q-11 -60 -11 -96q0 -101 63.5 -160.5t171.5 -59.5q163 0 255 126q78 106 78 234q0 123 -71 188q-62 58 -162 58q-22 0 -56 -3l22 102q26 -1 39 -1q159 0 246 89q82 83 82 213q0 99 -60 155t-167 56q-115 0 -185 -69t-85 -197h-107q21 161 94 246
q104 122 293 122q167 0 263 -99q76 -80 76 -212q0 -160 -110 -264q-56 -52 -170 -88q180 -77 180 -292q0 -197 -118 -323q-133 -143 -345 -143q-166 0 -259 94q-83 84 -83 214q0 49 17 110z" />
    <glyph glyph-name="four.fitted" unicode="&#xe004;" horiz-adv-x="972" 
d="M597 0l78 369h-515l24 113l712 883h95l-190 -895h168l-21 -101h-169l-78 -369h-104zM697 470l145 682l-556 -682h411z" />
    <glyph glyph-name="five.fitted" unicode="&#xe005;" horiz-adv-x="978" 
d="M534 1365h568l-23 -106h-483l-177 -469q115 121 266 121q132 0 208 -80q40 -43 63.5 -114t23.5 -150q0 -118 -43 -233.5t-119 -203.5q-73 -83 -152.5 -121t-179.5 -38q-154 0 -240 82q-84 80 -84 203q0 30 10 76h111q-6 -35 -6 -58q0 -85 47 -137q57 -64 161 -64
q163 0 278 174q95 145 95 320q0 129 -69 192q-55 50 -148 50q-151 0 -272 -159l-92 15z" />
    <glyph glyph-name="six.fitted" unicode="&#xe006;" horiz-adv-x="973" 
d="M1090 1081h-112v30q0 74 -36 120q-47 59 -134 59q-283 0 -440 -619q125 220 335 220q148 0 232 -106q73 -91 73 -240q0 -213 -123 -381q-142 -193 -345 -193q-150 0 -238 96q-88 95 -88 259q0 179 61 413.5t146 381.5q157 271 395 271q133 0 207 -76q69 -70 69 -185
q0 -19 -2 -50zM679 790q-78 0 -150 -48t-124 -135q-77 -130 -77 -279q0 -126 65 -195q55 -59 148 -59q160 0 265 180q80 137 80 290q0 119 -62 188q-54 58 -145 58z" />
    <glyph glyph-name="seven.fitted" unicode="&#xe007;" horiz-adv-x="958" 
d="M402 0h-120q154 715 709 1254h-599l24 111h727l-23 -108q-289 -282 -450 -563q-185 -325 -268 -694z" />
    <glyph glyph-name="eight.fitted" unicode="&#xe008;" horiz-adv-x="975" 
d="M511 760q-148 74 -148 256q0 156 103 265q106 111 282 111q161 0 251 -96q72 -77 72 -191q0 -137 -67 -228.5t-192 -127.5q77 -46 114 -109q47 -81 47 -187q0 -189 -120 -334q-122 -148 -333 -148q-193 0 -282 119q-66 86 -66 212q0 193 126 329q46 50 92 78t121 51z
M744 1290q-129 0 -203 -93q-66 -83 -66 -195q0 -92 57.5 -147t152.5 -55q133 0 209 106q60 82 60 188q0 69 -33 115q-56 81 -177 81zM631 699q-160 0 -258 -133q-81 -111 -81 -248q0 -105 52 -173q60 -78 178 -78q166 0 262 145q71 108 71 248q0 128 -72 189q-59 50 -152 50
z" />
    <glyph glyph-name="nine.fitted" unicode="&#xe009;" horiz-adv-x="973" 
d="M187 283h113q-1 -17 -1 -30q0 -74 36 -121q47 -59 134 -59q283 0 440 619q-125 -219 -334 -219q-149 0 -233 106q-73 91 -73 240q0 212 123 381q142 193 345 193q151 0 239 -96q88 -95 88 -259q0 -180 -61 -414t-147 -382q-156 -271 -395 -271q-133 0 -207 76
q-69 71 -69 186q0 18 2 50zM737 1290q-161 0 -266 -180q-80 -137 -80 -290q0 -120 62 -188q54 -58 145 -58q79 0 150.5 48t124.5 135q77 130 77 279q0 126 -65 195q-56 59 -148 59z" />
    <glyph glyph-name="zero.fitted" unicode="&#xe00a;" horiz-adv-x="970" 
d="M774 1392q158 0 238 -118q71 -104 71 -282q0 -148 -41 -338.5t-104 -334.5q-74 -172 -180.5 -260t-238.5 -88q-188 0 -264 149q-51 101 -51 247q0 141 41 330.5t101 331.5q156 363 428 363zM763 1290q-153 0 -255 -182q-75 -133 -129.5 -355.5t-54.5 -396.5
q0 -143 60 -217q53 -66 145 -66q98 0 179 80.5t138 235.5q53 141 85.5 307.5t32.5 294.5q0 144 -52 221.5t-149 77.5z" />
    <glyph glyph-name="uniEA31" unicode="&#xea31;" horiz-adv-x="1013" 
d="M831 1075h64q-62 -183 -210 -183q-67 0 -106.5 45.5t-39.5 122.5q0 131 75 229q74 97 177 97q59 0 97 -35.5t38 -90.5q0 -4 -2 -29h-63q-3 97 -83 97q-75 0 -128 -87q-46 -76 -46 -173q0 -55 25.5 -86.5t68.5 -31.5q92 0 133 125zM800 1554q174 0 276 -121
q80 -95 80 -228q0 -171 -122 -311q-68 -79 -165 -123.5t-200 -44.5q-170 0 -270 122q-80 98 -80 227q0 81 31.5 164t85.5 147q68 78 165.5 123t198.5 45zM804 1494q-211 0 -337 -168q-83 -111 -83 -241q0 -123 62 -198q82 -98 232 -98q197 0 322 159q41 54 68.5 129.5
t27.5 136.5q0 98 -57 178q-73 102 -235 102z" />
    <glyph glyph-name="uniEA32" unicode="&#xea32;" horiz-adv-x="1013" 
d="M539 903l100 473h158q126 0 126 -96t-85 -147q29 -22 29 -66q0 -21 -6 -58q-7 -50 -7 -67q0 -10 12 -39h-73q-2 7 -3 11q-4 10 -4 21q0 17 9 70q4 27 4 48q0 51 -92 51h-62l-43 -201h-63zM657 1161h81q60 0 85 23q34 32 34 83t-74 51h-93zM804 1554q174 0 276 -121
q80 -95 80 -228q0 -171 -122 -311q-68 -79 -165 -123.5t-200 -44.5q-170 0 -270 122q-80 98 -80 227q0 81 31.5 164t85.5 147q68 78 165.5 123t198.5 45zM808 1494q-211 0 -337 -168q-83 -111 -83 -241q0 -123 62 -198q82 -98 232 -98q197 0 322 159q41 54 68.5 129.5
t27.5 136.5q0 98 -57 178q-73 102 -235 102z" />
    <glyph glyph-name="uniEA3F" unicode="&#xea3f;" horiz-adv-x="1294" 
d="M1005 1365l-23 -110q-20 -90 -63 -134.5t-131 -64.5l13 61q75 20 88 79l3 17h-58l32 152h139z" />
    <glyph glyph-name="uniEA4F" unicode="&#xea4f;" horiz-adv-x="1294" 
d="M788 1058l23 110q19 90 62.5 134.5t131.5 64.5l-13 -61q-75 -20 -88 -79l-3 -17h58l-32 -152h-139z" />
    <glyph glyph-name="uniEA66" unicode="&#xea66;" horiz-adv-x="1294" 
d="M694 -95l-23 -110q-19 -91 -62.5 -135.5t-131.5 -63.5l13 61q75 19 88 78l3 18h-58l32 152h139z" />
    <glyph glyph-name="uniEA67" unicode="&#xea67;" horiz-adv-x="1294" 
d="M1005 1365l-23 -110q-20 -90 -63 -134.5t-131 -64.5l13 61q75 20 88 79l3 17h-58l32 152h139z" />
    <glyph glyph-name="uniEA68" unicode="&#xea68;" horiz-adv-x="1231" 
d="M995 1488l40 191h119l-41 -191h-118zM751 1488l41 191h118l-40 -191h-119z" />
    <glyph glyph-name="uniEA69" unicode="&#xea69;" horiz-adv-x="1294" 
d="M694 -95l-23 -110q-19 -91 -62.5 -135.5t-131.5 -63.5l13 61q75 19 88 78l3 18h-58l32 152h139z" />
    <glyph glyph-name="uniEA6A" unicode="&#xea6a;" horiz-adv-x="1231" 
d="M917 1106l40 191h115l-41 -191h-114zM669 1106l41 191h114l-40 -191h-115z" />
    <glyph glyph-name="uniEA71" unicode="&#xea71;" horiz-adv-x="1063" 
d="M402 1022l73 343h344q223 0 319 -96q85 -84 85 -215q0 -14 -1 -32h66l-20 -90h-61q-98 -355 -564 -350h-212l-124 -582h-122l198 932h-82l19 90h82zM525 1022h569q1 11 1 14q0 117 -75 170t-241 53h-204zM1078 932h-572l-52 -244h222q207 0 304 87q69 62 98 157z" />
    <glyph glyph-name="uniEA72" unicode="&#xea72;" horiz-adv-x="627" 
d="M497 69l-16 -69h-349q21 95 63.5 149t135.5 106q103 57 136 94q39 44 39 92q0 73 -89 73q-93 0 -109 -99l-2 -11h-80l4 22q29 156 191 156q77 0 121.5 -37t44.5 -100q0 -79 -72 -148q-36 -35 -159 -105q-96 -54 -120 -123h261zM443 806l90 423q-33 -15 -82 -17h-17l13 65
h14h6q78 0 110 99h63l-121 -570h-76zM230 720h436l-15 -71h-437z" />
    <glyph glyph-name="uniEA73" unicode="&#xea73;" horiz-adv-x="630" 
d="M443 806l90 423q-33 -15 -82 -17h-17l13 65h14h6q78 0 110 99h63l-121 -570h-76zM328 0l32 148h-223l13 60l308 362h60l-77 -359h75l-14 -63h-74l-31 -148h-69zM373 211l47 221l-193 -221h146zM230 720h436l-15 -71h-437z" />
    <glyph glyph-name="uniEA74" unicode="&#xea74;" horiz-adv-x="625" 
d="M328 0l32 148h-223l13 60l308 362h60l-77 -359h75l-14 -63h-74l-31 -148h-69zM373 211l47 221l-193 -221h146zM230 720h436l-15 -71h-437zM337 987h75q-3 -18 -4 -20q-4 -18 -4 -31q0 -75 89 -75q56 0 94 37.5t38 92.5q0 84 -89 84h-16q-15 -1 -25 -2l16 69q17 -1 27 -1
q60 0 95 28.5t35 78.5q0 71 -85 71q-93 0 -104 -90l-2 -16h-75q20 173 185 173q74 0 118 -37.5t44 -99.5q0 -103 -100 -142q57 -38 57 -113q0 -86 -56 -139q-63 -61 -160 -61q-74 0 -119 37.5t-45 98.5q0 25 11 57z" />
    <glyph glyph-name="Dotaccent" unicode="&#xefed;" horiz-adv-x="1304" 
d="M909 1488l41 191h118l-40 -191h-119z" />
    <glyph glyph-name="Breve" unicode="&#xefee;" horiz-adv-x="1316" 
d="M1273 1734q-8 -79 -38 -133q-69 -126 -229 -126q-104 0 -160 50t-56 142q0 24 5 67h84q-2 -25 -2 -36q0 -129 136 -129q73 0 112.5 36.5t64.5 128.5h83z" />
    <glyph glyph-name="Ogonek" unicode="&#xeff1;" horiz-adv-x="1271" 
d="M1137 0q-81 -65 -114 -111t-33 -94q0 -32 23.5 -51t63.5 -19q32 0 83 18l-15 -72q-63 -22 -115 -22q-143 0 -143 122q0 131 171 229h79z" />
    <glyph glyph-name="Cedilla" unicode="&#xeff2;" horiz-adv-x="1259" 
d="M555 0h82l-69 -108q23 8 48 8q58 0 94 -33t36 -87q0 -73 -54.5 -121.5t-136.5 -48.5q-64 0 -104.5 26.5t-40.5 68.5v9h93q0 -41 52 -41q38 0 65 30.5t27 74.5q0 59 -59 59q-40 0 -62 -31h-89z" />
    <glyph glyph-name="Ring" unicode="&#xeff3;" horiz-adv-x="1243" 
d="M964 1727q-45 0 -76 -32t-31 -78q0 -44 31 -76t74 -32q44 0 74.5 31.5t30.5 77.5q0 45 -30.5 77t-72.5 32zM964 1803q76 0 130.5 -54.5t54.5 -130.5q0 -77 -55 -130.5t-133 -53.5q-77 0 -132 54t-55 129q0 78 55 132t135 54z" />
    <glyph glyph-name="Tilde" unicode="&#xeff5;" horiz-adv-x="1192" 
d="M1230 1703q-36 -103 -78 -148t-104 -45q-37 0 -63.5 11.5t-67.5 44.5q-52 42 -87 42q-63 0 -105 -99h-80q29 94 78.5 144t113.5 50q57 0 119 -50q58 -48 87 -48q62 0 105 98h82z" />
    <glyph glyph-name="Circumflex" unicode="&#xeff7;" horiz-adv-x="1201" 
d="M1171 1475h-108l-107 189l-191 -189h-109l255 259h113z" />
    <glyph glyph-name="Acute" unicode="&#xf6c9;" horiz-adv-x="1247" 
d="M1243 1737l-257 -258h-105l235 258h127z" />
    <glyph glyph-name="Caron" unicode="&#xf6ca;" horiz-adv-x="1201" 
d="M711 1734h108l108 -190l190 190h109l-255 -259h-113z" />
    <glyph glyph-name="Dieresis" unicode="&#xf6cb;" horiz-adv-x="1208" 
d="M1020 1488l41 191h118l-40 -191h-119zM702 1488l41 191h118l-40 -191h-119z" />
    <glyph glyph-name="Grave" unicode="&#xf6ce;" horiz-adv-x="1247" 
d="M743 1737h126l126 -258h-105z" />
    <glyph glyph-name="Hungarumlaut" unicode="&#xf6cf;" horiz-adv-x="1174" 
d="M1066 1737l-257 -258h-105l235 258h127zM1311 1737l-256 -258h-105l235 258h126z" />
    <glyph glyph-name="Macron" unicode="&#xf6d0;" horiz-adv-x="1195" 
d="M1202 1588l-18 -86h-535l18 86h535z" />
    <glyph glyph-name="uniFEFF" unicode="&#xfeff;" horiz-adv-x="8" 
 />
    <glyph glyph-name="uniFFFC" unicode="&#xfffc;" horiz-adv-x="2056" 
d="M2296 1150h-100l48 223h-223l21 100h323zM1769 1373h-323l21 100h323zM2174 575h-100l69 323h100zM1197 1388h-323l21 100h323zM2052 0h-323l21 100h223l48 223h100zM619 1373h-223l-48 -223h-100l69 323h323zM1477 0h-323l21 100h323zM226 575h-100l69 323h100zM902 0
h-323l21 100h323zM327 0h-323l69 323h100l-48 -223h223zM792 1096q105 0 166 -68q64 -71 64 -192q0 -184 -98 -334q-116 -178 -299 -178q-118 0 -180 87q-49 68 -49 168t32 200t86 169q116 148 278 148zM774 1017q-121 0 -205 -133q-36 -56 -57.5 -136.5t-21.5 -156.5
q0 -93 47 -144q43 -46 105 -46q122 0 205 135q80 128 80 288q0 89 -41 141t-112 52zM1042 357l157 737h233q101 0 140 -29q51 -38 51 -108q0 -141 -140 -205q95 -29 95 -127q0 -117 -74.5 -192.5t-189.5 -75.5h-272zM1222 780h124q55 0 82 6.5t49 25.5q51 44 51 120
q0 49 -25 66t-99 17h-132zM1149 436h140q59 0 87.5 6.5t50.5 25.5q59 51 59 143q0 58 -44 81q-24 13 -110 13h-126zM1571 346l17 80q23 -10 48 -10q73 0 113 67q20 33 43 141l100 470h90l-103 -485q-29 -137 -73 -188q-68 -82 -180 -82q-26 0 -55 7z" />
    <glyph glyph-name="uniFFFD" unicode="&#xfffd;" horiz-adv-x="2107" 
d="M1382 1556l741 -938l-1139 -937l-739 937zM882 779h214q10 83 21 111q34 88 128 88q51 0 80.5 -26.5t29.5 -72.5q0 -67 -47 -126q-15 -19 -121 -106q-54 -45 -78.5 -76t-46.5 -83q-23 -57 -39 -143h198q21 88 52 127.5t136 114.5q175 123 175 321q0 108 -72 184
q-84 87 -247 87q-102 0 -183.5 -42.5t-129.5 -120.5q-51 -82 -70 -237zM1227 243h-254l-53 -248h254z" />
    </font>
</defs>
</svg>
